<?xml version="1.0" standalone="no"?><!DOCTYPE svg PUBLIC "-//W3C//DTD SVG 1.1//EN" "http://www.w3.org/Graphics/SVG/1.1/DTD/svg11.dtd" ><svg version="1.1" xmlns="http://www.w3.org/2000/svg"><defs><font horiz-adv-x="0" id="font"><font-face ascent="700" bbox="-65 -700 698 762" cap-height="700" descent="-250" font-family="Sparks" font-stretch="normal" font-style="normal" font-weight="400" units-per-em="1000" x-height="500" /><missing-glyph d="M52 0H448V500H52ZM86 34V467H414V34ZM225.8 192H269L270.8 225.6C326.6 230.4 360.8 264 360.8 316.2C360.8 375.6 316.4 408 256.4 408C192.8 408 146.6 376.2 140 310.2H189.8C195.8 346.2 219.8 363.6 254.6 363.6C287.6 363.6 309.8 345.6 309.8 316.2C309.8 279.6 286.4 264 223.4 262.8ZM216.8 162V102H278V162Z" horiz-adv-x="500" /><glyph glyph-name=".null" horiz-adv-x="500" /><glyph d="M79 98H358V170H79ZM1 0H86L206 346C211 361 219 385 224 404H226C230 385 238 361 243 346L361 0H449L267 500H183Z" glyph-name="A" horiz-adv-x="450" unicode="A" /><glyph d="M298 0H591V72H380V219H552V291H380V428H585V500H298ZM105 98H350V170H105ZM-12 0H79L258 362C267 381 277 405 283 422H298L339 500H245Z" glyph-name="AE" horiz-adv-x="618" unicode="&#198;" /><glyph d="M79 98H358V170H79ZM1 0H86L206 346C211 361 219 385 224 404H226C230 385 238 361 243 346L361 0H449L267 500H183ZM258 560 362 670H258L191 560Z" glyph-name="Aacute" horiz-adv-x="450" unicode="&#193;" /><glyph d="M79 98H358V170H79ZM1 0H86L206 346C211 361 219 385 224 404H226C230 385 238 361 243 346L361 0H449L267 500H183ZM273 670H177L66 570H161L225 629L289 570H384Z" glyph-name="Acircumflex" horiz-adv-x="450" unicode="&#194;" /><glyph d="M79 98H358V170H79ZM1 0H86L206 346C211 361 219 385 224 404H226C230 385 238 361 243 346L361 0H449L267 500H183ZM95 670V574H191V670ZM260 670V574H356V670Z" glyph-name="Adieresis" horiz-adv-x="450" unicode="&#196;" /><glyph d="M79 98H358V170H79ZM1 0H86L206 346C211 361 219 385 224 404H226C230 385 238 361 243 346L361 0H449L267 500H183ZM191 560H258L191 670H87Z" glyph-name="Agrave" horiz-adv-x="450" unicode="&#192;" /><glyph d="M79 98H358V170H79ZM1 0H86L206 346C211 361 219 385 224 404H226C230 385 238 361 243 346L361 0H449L267 500H183ZM223 556C274 556 315 595 315 645C315 695 274 734 223 734C172 734 131 695 131 645C131 595 172 556 223 556ZM223 604C198 604 181 621 181 645C181 669 198 686 223 686C248 686 265 669 265 645C265 621 248 604 223 604Z" glyph-name="Aring" horiz-adv-x="450" unicode="&#197;" /><glyph d="M79 98H358V170H79ZM1 0H86L206 346C211 361 219 385 224 404H226C230 385 238 361 243 346L361 0H449L267 500H183ZM302 670C300 646 289 632 268 632C238 632 216 670 169 670C118 670 86 629 83 570H137C140 594 151 608 172 608C204 608 222 570 271 570C322 570 353 611 356 670Z" glyph-name="Atilde" horiz-adv-x="450" unicode="&#195;" /><glyph d="M254 0C365 0 429 53 429 146C429 205 400 240 351 263V265C386 283 413 320 413 368C413 455 355 500 248 500H52V0ZM134 294V428H240C297 428 328 410 328 363C328 317 297 294 240 294ZM244 73H134V225H244C312 225 344 201 344 150C344 99 312 73 244 73Z" glyph-name="B" horiz-adv-x="456" unicode="B" /><glyph d="M25 122H268V178H25ZM279 0C390 0 454 53 454 146C454 205 425 240 376 263V265C411 283 438 320 438 368C438 455 380 500 273 500H77V0ZM159 294V428H265C322 428 353 410 353 363C353 317 322 294 265 294ZM269 73H159V225H269C337 225 369 201 369 150C369 99 337 73 269 73Z" glyph-name="Bstroke" horiz-adv-x="481" unicode="&#579;" /><glyph d="M457 156H369C354 100 321 66 252 66C165 66 112 132 112 248C112 365 165 434 252 434C321 434 358 396 368 339H455C444 445 366 510 256 510C125 510 26 423 26 252C26 82 117 -10 248 -10C357 -10 437 49 457 156Z" glyph-name="C" horiz-adv-x="473" unicode="C" /><glyph d="M457 156H369C354 100 321 66 252 66C165 66 112 132 112 248C112 365 165 434 252 434C321 434 358 396 368 339H455C444 445 366 510 256 510C125 510 26 423 26 252C26 82 117 -10 248 -10C357 -10 437 49 457 156ZM232 5 209 -65 226 -84C233 -82 243 -80 252 -80C277 -80 295 -91 295 -111C295 -132 277 -142 249 -142C224 -142 203 -135 188 -127L176 -160C195 -175 235 -187 263 -187C325 -187 357 -157 357 -110C357 -64 330 -36 286 -36C276 -36 262 -37 252 -40L267 5Z" glyph-name="Ccedilla" horiz-adv-x="473" unicode="&#199;" /><glyph d="M52 0H178C339 0 436 80 436 250C436 421 346 500 184 500H52ZM180 428C303 428 353 377 353 254C353 132 305 72 182 72H134V428Z" glyph-name="D" horiz-adv-x="462" unicode="D" /><glyph d="M52 0H361V72H134V219H316V291H134V428H355V500H52Z" glyph-name="E" horiz-adv-x="388" unicode="E" /><glyph d="M52 0H361V72H134V219H316V291H134V428H355V500H52ZM223 560 327 670H223L156 560Z" glyph-name="Eacute" horiz-adv-x="388" unicode="&#201;" /><glyph d="M52 0H361V72H134V219H316V291H134V428H355V500H52ZM252 670H156L45 570H140L204 629L268 570H363Z" glyph-name="Ecircumflex" horiz-adv-x="388" unicode="&#202;" /><glyph d="M52 0H361V72H134V219H316V291H134V428H355V500H52ZM71 670V574H167V670ZM236 670V574H332V670Z" glyph-name="Edieresis" horiz-adv-x="388" unicode="&#203;" /><glyph d="M52 0H361V72H134V219H316V291H134V428H355V500H52ZM179 560H246L179 670H75Z" glyph-name="Egrave" horiz-adv-x="388" unicode="&#200;" /><glyph d="M25 225H277V285H25ZM77 0H203C364 0 461 80 461 250C461 421 371 500 209 500H77ZM205 428C328 428 378 377 378 254C378 132 330 72 207 72H159V428Z" glyph-name="Eth" horiz-adv-x="487" unicode="&#208;" /><glyph d="M350 111C341 81 315 62 280 62C190 62 159 141 159 248C159 356 184 438 274 438C311 438 343 414 351 379H430C415 457 353 509 276 509C147 509 76 408 76 252C76 97 145 -9 274 -9C347 -9 412 41 432 111ZM32 273H309L320 333H32ZM32 161H289L300 221H32Z" glyph-name="Euro" horiz-adv-x="440" unicode="&#8364;" /><glyph d="M52 0H134V210H320V282H134V428H359V500H52Z" glyph-name="F" horiz-adv-x="374" unicode="F" /><glyph d="M472 241V252H239V180H383C379 116 338 66 255 66C168 66 112 132 112 248C112 365 170 434 257 434C324 434 362 403 373 349H459C447 451 368 510 261 510C130 510 26 423 26 252C26 82 120 -10 251 -10C398 -10 472 81 472 241Z" glyph-name="G" horiz-adv-x="497" unicode="G" /><glyph d="M52 0H134V218H363V0H445V500H363V290H134V500H52Z" glyph-name="H" horiz-adv-x="497" unicode="H" /><glyph d="M52 0H135V500H52Z" glyph-name="I" horiz-adv-x="187" unicode="I" /><glyph d="M52 0H135V500H52ZM127 560 231 670H127L60 560Z" glyph-name="Iacute" horiz-adv-x="187" unicode="&#205;" /><glyph d="M52 0H135V500H52ZM142 670H46L-65 570H30L94 629L158 570H253Z" glyph-name="Icircumflex" horiz-adv-x="187" unicode="&#206;" /><glyph d="M52 0H135V500H52ZM-37 670V574H59V670ZM128 670V574H224V670Z" glyph-name="Idieresis" horiz-adv-x="187" unicode="&#207;" /><glyph d="M52 0H135V500H52ZM60 560H127L60 670H-44Z" glyph-name="Igrave" horiz-adv-x="187" unicode="&#204;" /><glyph d="M133 161C133 94 116 66 57 66C45 66 24 67 10 69V-7C25 -9 44 -10 59 -10C170 -10 216 28 216 145V500H133Z" glyph-name="J" horiz-adv-x="266" unicode="J" /><glyph d="M56 0H139V140L214 229L361 0H460L268 292L446 500H349L139 251V500H56Z" glyph-name="K" horiz-adv-x="456" unicode="K" /><glyph d="M52 0H361V73H134V500H52Z" glyph-name="L" horiz-adv-x="366" unicode="L" /><glyph d="M347 0 473 335H475C473 295 471 239 471 200V0H553V500H463L304 86H302L142 500H52V0H134V200C134 239 132 295 130 335H132L258 0Z" glyph-name="M" horiz-adv-x="605" unicode="M" /><glyph d="M52 0H134V223C134 256 133 322 131 358H133C144 340 158 318 168 303L373 0H445V500H363V276C363 243 365 176 367 141H365C354 159 340 181 329 197L124 500H52Z" glyph-name="N" horiz-adv-x="497" unicode="N" /><glyph d="M52 0H134V223C134 256 133 322 131 358H133C144 340 158 318 168 303L373 0H445V500H363V276C363 243 365 176 367 141H365C354 159 340 181 329 197L124 500H52ZM332 670C330 646 319 632 298 632C268 632 246 670 199 670C148 670 116 629 113 570H167C170 594 181 608 202 608C234 608 252 570 301 570C352 570 383 611 386 670Z" glyph-name="Ntilde" horiz-adv-x="497" unicode="&#209;" /><glyph d="M260 66C168 66 112 133 112 248C112 364 163 434 256 434C348 434 404 367 404 252C404 136 353 66 260 66ZM256 -10C386 -10 490 76 490 248C490 421 391 510 260 510C130 510 26 424 26 252C26 79 125 -10 256 -10Z" glyph-name="O" horiz-adv-x="516" unicode="O" /><glyph d="M26 250C26 80 123 0 284 0H591V72H380V219H552V291H380V428H585V500H278C116 500 26 421 26 250ZM282 428H298V72H280C157 72 109 132 109 254C109 377 159 428 282 428Z" glyph-name="OE" horiz-adv-x="618" unicode="&#338;" /><glyph d="M260 66C168 66 112 133 112 248C112 364 163 434 256 434C348 434 404 367 404 252C404 136 353 66 260 66ZM256 -10C386 -10 490 76 490 248C490 421 391 510 260 510C130 510 26 424 26 252C26 79 125 -10 256 -10ZM287 560 391 670H287L220 560Z" glyph-name="Oacute" horiz-adv-x="516" unicode="&#211;" /><glyph d="M260 66C168 66 112 133 112 248C112 364 163 434 256 434C348 434 404 367 404 252C404 136 353 66 260 66ZM256 -10C386 -10 490 76 490 248C490 421 391 510 260 510C130 510 26 424 26 252C26 79 125 -10 256 -10ZM306 670H210L99 570H194L258 629L322 570H417Z" glyph-name="Ocircumflex" horiz-adv-x="516" unicode="&#212;" /><glyph d="M260 66C168 66 112 133 112 248C112 364 163 434 256 434C348 434 404 367 404 252C404 136 353 66 260 66ZM256 -10C386 -10 490 76 490 248C490 421 391 510 260 510C130 510 26 424 26 252C26 79 125 -10 256 -10ZM129 670V574H225V670ZM294 670V574H390V670Z" glyph-name="Odieresis" horiz-adv-x="516" unicode="&#214;" /><glyph d="M260 66C168 66 112 133 112 248C112 364 163 434 256 434C348 434 404 367 404 252C404 136 353 66 260 66ZM256 -10C386 -10 490 76 490 248C490 421 391 510 260 510C130 510 26 424 26 252C26 79 125 -10 256 -10ZM223 560H290L223 670H119Z" glyph-name="Ograve" horiz-adv-x="516" unicode="&#210;" /><glyph d="M260 66C168 66 112 133 112 248C112 364 163 434 256 434C348 434 404 367 404 252C404 136 353 66 260 66ZM256 -10C386 -10 490 76 490 248C490 421 391 510 260 510C130 510 26 424 26 252C26 79 125 -10 256 -10ZM44 11 88 -22 473 489 429 522Z" glyph-name="Oslash" horiz-adv-x="516" unicode="&#216;" /><glyph d="M260 66C168 66 112 133 112 248C112 364 163 434 256 434C348 434 404 367 404 252C404 136 353 66 260 66ZM256 -10C386 -10 490 76 490 248C490 421 391 510 260 510C130 510 26 424 26 252C26 79 125 -10 256 -10ZM339 670C337 646 326 632 305 632C275 632 253 670 206 670C155 670 123 629 120 570H174C177 594 188 608 209 608C241 608 259 570 308 570C359 570 390 611 393 670Z" glyph-name="Otilde" horiz-adv-x="516" unicode="&#213;" /><glyph d="M225 428C299 428 330 397 330 342C330 286 299 256 225 256H134V428ZM238 500H52V0H134V184H238C355 184 416 244 416 342C416 440 355 500 238 500Z" glyph-name="P" horiz-adv-x="431" unicode="P" /><glyph d="M260 66C168 66 112 133 112 248C112 364 163 434 256 434C348 434 404 367 404 252C404 136 353 66 260 66ZM256 -10C386 -10 490 76 490 248C490 421 391 510 260 510C130 510 26 424 26 252C26 79 125 -10 256 -10ZM432 -39 482 10 304 185 255 135Z" glyph-name="Q" horiz-adv-x="516" unicode="Q" /><glyph d="M345 0H435L323 207V209C382 232 416 277 416 346C416 442 355 500 239 500H52V0H134V190H245ZM226 428C299 428 330 398 330 345C330 291 299 262 226 262H134V428Z" glyph-name="R" horiz-adv-x="443" unicode="R" /><glyph d="M255 203C316 192 340 175 340 136C340 91 301 63 230 63C147 63 105 105 100 155H20C29 65 96 -10 227 -10C343 -10 423 45 423 145C423 218 377 263 287 279L199 295C142 305 117 323 117 362C117 408 151 437 214 437C290 437 322 403 328 353H410C403 455 322 510 218 510C107 510 34 447 34 358C34 280 80 235 167 219Z" glyph-name="S" horiz-adv-x="445" unicode="S" /><glyph d="M156 0H239V428H392V500H3V428H156Z" glyph-name="T" horiz-adv-x="395" unicode="T" /><glyph d="M238 408H134V500H52V0H134V92H238C355 92 416 152 416 250C416 348 355 408 238 408ZM225 336C299 336 330 305 330 250C330 194 299 164 225 164H134V336Z" glyph-name="Thorn" horiz-adv-x="428" unicode="&#222;" /><glyph d="M361 196C361 106 322 66 247 66C172 66 133 106 133 196V500H50V192C50 46 128 -10 247 -10C366 -10 444 46 444 192V500H361Z" glyph-name="U" horiz-adv-x="494" unicode="U" /><glyph d="M361 196C361 106 322 66 247 66C172 66 133 106 133 196V500H50V192C50 46 128 -10 247 -10C366 -10 444 46 444 192V500H361ZM275 560 379 670H275L208 560Z" glyph-name="Uacute" horiz-adv-x="494" unicode="&#218;" /><glyph d="M361 196C361 106 322 66 247 66C172 66 133 106 133 196V500H50V192C50 46 128 -10 247 -10C366 -10 444 46 444 192V500H361ZM296 670H200L89 570H184L248 629L312 570H407Z" glyph-name="Ucircumflex" horiz-adv-x="494" unicode="&#219;" /><glyph d="M361 196C361 106 322 66 247 66C172 66 133 106 133 196V500H50V192C50 46 128 -10 247 -10C366 -10 444 46 444 192V500H361ZM117 670V574H213V670ZM282 670V574H378V670Z" glyph-name="Udieresis" horiz-adv-x="494" unicode="&#220;" /><glyph d="M361 196C361 106 322 66 247 66C172 66 133 106 133 196V500H50V192C50 46 128 -10 247 -10C366 -10 444 46 444 192V500H361ZM219 560H286L219 670H115Z" glyph-name="Ugrave" horiz-adv-x="494" unicode="&#217;" /><glyph d="M453 500H368L248 154C243 139 235 115 230 96H228C224 115 216 139 211 154L93 500H5L187 0H271Z" glyph-name="V" horiz-adv-x="458" unicode="V" /><glyph d="M384 500H308L217 162C212 145 205 118 200 96H198C193 118 187 144 182 162L93 500H5L155 0H243L306 210C316 244 335 317 343 357H345C354 316 373 244 383 211L446 0H534L684 500H599L508 162C503 145 496 118 491 96H489C484 118 478 144 473 162Z" glyph-name="W" horiz-adv-x="689" unicode="W" /><glyph d="M92 0 209 186H211L328 0H427L262 257L418 500H321L212 326H210L101 500H2L159 256L-5 0Z" glyph-name="X" horiz-adv-x="422" unicode="X" /><glyph d="M173 0H256V197L438 500H347L279 386C254 344 232 305 215 273H213C197 304 175 343 150 386L84 500H-10L173 195Z" glyph-name="Y" horiz-adv-x="428" unicode="Y" /><glyph d="M173 0H256V197L438 500H347L279 386C254 344 232 305 215 273H213C197 304 175 343 150 386L84 500H-10L173 195ZM238 560 342 670H238L171 560Z" glyph-name="Yacute" horiz-adv-x="428" unicode="&#221;" /><glyph d="M400 72H114V74L383 435V499H26V427H285V425L14 64V0H400Z" glyph-name="Z" horiz-adv-x="414" unicode="Z" /><glyph d="M79 98H358V170H79ZM1 0H86L206 346C211 361 219 385 224 404H226C230 385 238 361 243 346L361 0H449L267 500H183Z" glyph-name="a" horiz-adv-x="450" unicode="a" /><glyph d="M79 98H358V170H79ZM1 0H86L206 346C211 361 219 385 224 404H226C230 385 238 361 243 346L361 0H449L267 500H183ZM258 560 362 670H258L191 560Z" glyph-name="aacute" horiz-adv-x="450" unicode="&#225;" /><glyph d="M79 98H358V170H79ZM1 0H86L206 346C211 361 219 385 224 404H226C230 385 238 361 243 346L361 0H449L267 500H183ZM273 670H177L66 570H161L225 629L289 570H384Z" glyph-name="acircumflex" horiz-adv-x="450" unicode="&#226;" /><glyph d="M117 560 221 670H117L50 560Z" glyph-name="acute" horiz-adv-x="271" unicode="&#180;" /><glyph d="M79 98H358V170H79ZM1 0H86L206 346C211 361 219 385 224 404H226C230 385 238 361 243 346L361 0H449L267 500H183ZM95 670V574H191V670ZM260 670V574H356V670Z" glyph-name="adieresis" horiz-adv-x="450" unicode="&#228;" /><glyph d="M298 0H591V72H380V219H552V291H380V428H585V500H298ZM105 98H350V170H105ZM-12 0H79L258 362C267 381 277 405 283 422H298L339 500H245Z" glyph-name="ae" horiz-adv-x="618" unicode="&#230;" /><glyph d="M79 98H358V170H79ZM1 0H86L206 346C211 361 219 385 224 404H226C230 385 238 361 243 346L361 0H449L267 500H183ZM191 560H258L191 670H87Z" glyph-name="agrave" horiz-adv-x="450" unicode="&#224;" /><glyph d="M192 508C120 508 60 462 60 394C60 355 80 314 112 279C45 245 7 204 7 136C7 46 69 -8 183 -8C248 -8 298 12 338 45L384 0H488L392 99C420 144 436 202 440 269H358C356 223 349 185 336 155L230 265C292 298 319 340 319 394C319 463 269 508 192 508ZM137 392C137 419 158 442 190 442C224 442 244 417 244 390C244 356 228 334 185 309C149 343 137 365 137 392ZM91 136C91 171 109 199 158 229L288 97C260 73 227 61 189 61C130 61 91 92 91 136Z" glyph-name="ampersand" horiz-adv-x="463" unicode="&amp;" /><glyph d="M79 98H358V170H79ZM1 0H86L206 346C211 361 219 385 224 404H226C230 385 238 361 243 346L361 0H449L267 500H183ZM223 556C274 556 315 595 315 645C315 695 274 734 223 734C172 734 131 695 131 645C131 595 172 556 223 556ZM223 604C198 604 181 621 181 645C181 669 198 686 223 686C248 686 265 669 265 645C265 621 248 604 223 604Z" glyph-name="aring" horiz-adv-x="450" unicode="&#229;" /><glyph d="M152.11 500.18V436.55L405.923 440.085L6.468 40.63L53.13 -6.032L452.585 393.423L449.05 139.61H512.68L512.68 500.18Z" glyph-name="arrowNE" horiz-adv-x="557" unicode="&#8599;" /><glyph d="M43.82 139.11H107.45L103.915 392.923L503.37 -6.532L550.032 40.13L150.577 439.585L404.39 436.05V499.68L43.82 499.68Z" glyph-name="arrowNW" horiz-adv-x="556" unicode="&#8598;" /><glyph d="M512.18 360.89H448.55L452.085 107.077L52.63 506.532L5.968 459.87L405.423 60.415L151.61 63.95V0.32L512.18 0.32Z" glyph-name="arrowSE" horiz-adv-x="556" unicode="&#8600;" /><glyph d="M404.89 -0.18V63.45L151.077 59.915L550.532 459.37L503.87 506.032L104.415 106.577L107.95 360.39H44.32L44.32 -0.18Z" glyph-name="arrowSW" horiz-adv-x="556" unicode="&#8601;" /><glyph d="M519 266 474 311 297 129V694H231V129L54 311L9 266L264 11Z" glyph-name="arrowdown" horiz-adv-x="528" unicode="&#8595;" /><glyph d="M265 -5 310 40 128 217H693V283H128L310 460L265 505L10 250Z" glyph-name="arrowleft" horiz-adv-x="708" unicode="&#8592;" /><glyph d="M443 -5 398 40 580 217H15V283H580L398 460L443 505L698 250Z" glyph-name="arrowright" horiz-adv-x="708" unicode="&#8594;" /><glyph d="M9 442 54 397 231 579V14H297V579L474 397L519 442L264 697Z" glyph-name="arrowup" horiz-adv-x="528" unicode="&#8593;" /><glyph d="M169 500 30 200H120L215 425L310 200H400L261 500Z" glyph-name="asciicircum" horiz-adv-x="430" unicode="^" /><glyph d="M354 335C352 299 333 276 301 276C253 276 226 336 147 336C82 336 41 287 38 213H96C99 249 118 272 150 272C196 272 225 212 304 212C369 212 409 261 412 335Z" glyph-name="asciitilde" horiz-adv-x="450" unicode="~" /><glyph d="M52 341 128 396 120 301H185L177 396L253 340L286 396L200 436L285 475L253 532L177 476L185 570H120L128 476L53 531L20 474L104 436L20 397Z" glyph-name="asterisk" horiz-adv-x="306" unicode="*" /><glyph d="M347 372 340 338H338C327 360 302 378 273 378C209 378 157 313 157 233C157 161 197 122 251 122C283 122 313 137 332 166H334C346 139 370 122 411 122C497 122 545 177 545 274C545 424 440 512 290 512C142 512 20 394 20 245C20 90 125 -12 280 -12C330 -12 388 2 420 21L401 72C365 56 323 48 280 48C159 48 87 128 87 245C87 360 174 452 289 452C410 452 480 386 480 267C480 205 455 176 416 176C393 176 382 188 382 210C382 221 383 233 385 246L403 372ZM265 178C235 178 220 200 220 233C220 288 246 322 283 322C311 322 327 297 327 265C327 206 302 178 265 178Z" glyph-name="at" horiz-adv-x="563" unicode="@" /><glyph d="M79 98H358V170H79ZM1 0H86L206 346C211 361 219 385 224 404H226C230 385 238 361 243 346L361 0H449L267 500H183ZM302 670C300 646 289 632 268 632C238 632 216 670 169 670C118 670 86 629 83 570H137C140 594 151 608 172 608C204 608 222 570 271 570C322 570 353 611 356 670Z" glyph-name="atilde" horiz-adv-x="450" unicode="&#227;" /><glyph d="M254 0C365 0 429 53 429 146C429 205 400 240 351 263V265C386 283 413 320 413 368C413 455 355 500 248 500H52V0ZM134 294V428H240C297 428 328 410 328 363C328 317 297 294 240 294ZM244 73H134V225H244C312 225 344 201 344 150C344 99 312 73 244 73Z" glyph-name="b" horiz-adv-x="456" unicode="b" /><glyph d="M431 0H341L0 500H90Z" glyph-name="backslash" horiz-adv-x="436" unicode="\" /><glyph d="M82 -100H160V600H82Z" glyph-name="bar" horiz-adv-x="242" unicode="|" /><glyph d="M57 217C90 213 107 196 107 161V115C107 28 155 -16 268 -16V51C204 51 185 80 185 129V182C185 212 170 239 143 247C170 255 185 282 185 312V365C185 414 204 443 268 443V510C155 510 107 466 107 379V333C107 298 90 281 57 277Z" glyph-name="braceleft" horiz-adv-x="300" unicode="{" /><glyph d="M243 217C210 213 193 196 193 161V115C193 28 145 -16 32 -16V51C96 51 115 80 115 129V182C115 212 130 239 157 247C130 255 115 282 115 312V365C115 414 96 443 32 443V510C145 510 193 466 193 379V333C193 298 210 281 243 277Z" glyph-name="braceright" horiz-adv-x="300" unicode="}" /><glyph d="M82 0H263V69H160V431H263V500H82Z" glyph-name="bracketleft" horiz-adv-x="300" unicode="[" /><glyph d="M218 0H37V69H140V431H37V500H218Z" glyph-name="bracketright" horiz-adv-x="300" unicode="]" /><glyph d="M118 670C122 645 145 624 178 624C211 624 234 645 238 670H306C299 605 247 560 178 560C109 560 57 605 50 670Z" glyph-name="breve" horiz-adv-x="356" unicode="&#728;" /><glyph d="M82 330H160V600H82ZM82 -100H160V170H82Z" glyph-name="brokenbar" horiz-adv-x="242" unicode="&#166;" /><glyph d="M457 156H369C354 100 321 66 252 66C165 66 112 132 112 248C112 365 165 434 252 434C321 434 358 396 368 339H455C444 445 366 510 256 510C125 510 26 423 26 252C26 82 117 -10 248 -10C357 -10 437 49 457 156Z" glyph-name="c" horiz-adv-x="473" unicode="c" /><glyph d="M257 570 368 670H273L209 611L145 670H50L161 570Z" glyph-name="caron" horiz-adv-x="418" unicode="&#711;" /><glyph d="M457 156H369C354 100 321 66 252 66C165 66 112 132 112 248C112 365 165 434 252 434C321 434 358 396 368 339H455C444 445 366 510 256 510C125 510 26 423 26 252C26 82 117 -10 248 -10C357 -10 437 49 457 156ZM232 5 209 -65 226 -84C233 -82 243 -80 252 -80C277 -80 295 -91 295 -111C295 -132 277 -142 249 -142C224 -142 203 -135 188 -127L176 -160C195 -175 235 -187 263 -187C325 -187 357 -157 357 -110C357 -64 330 -36 286 -36C276 -36 262 -37 252 -40L267 5Z" glyph-name="ccedilla" horiz-adv-x="473" unicode="&#231;" /><glyph d="M106 5 83 -65 100 -84C107 -82 117 -80 126 -80C151 -80 169 -91 169 -111C169 -132 151 -142 123 -142C98 -142 77 -135 62 -127L50 -160C69 -175 109 -187 137 -187C199 -187 231 -157 231 -110C231 -64 204 -36 160 -36C150 -36 136 -37 126 -40L141 5Z" glyph-name="cedilla" horiz-adv-x="281" unicode="&#184;" /><glyph d="M156 -80H218L321 580H259ZM340 161C331 104 297 67 239 67C154 67 114 141 114 248C114 356 150 434 235 434C291 434 330 401 340 345H423C409 446 343 509 239 509C116 509 30 416 30 252C30 89 112 -9 235 -9C339 -9 409 56 425 161Z" glyph-name="cent" horiz-adv-x="440" unicode="&#162;" /><glyph d="M85 -62C119 -62 147 -34 147 0C147 34 119 62 85 62C51 62 23 34 23 0C23 -34 51 -62 85 -62Z" glyph-name="chart.dot" horiz-adv-x="170" /><glyph d="M283 113 159 328H407ZM282 -12C430 -12 545 102 545 250C545 398 430 512 282 512C134 512 20 398 20 250C20 102 134 -12 282 -12Z" glyph-name="circle.arrowdown" horiz-adv-x="565" /><glyph d="M282 -12C430 -12 545 102 545 250C545 398 430 512 282 512C134 512 20 398 20 250C20 102 134 -12 282 -12ZM282 387 406 172H158Z" glyph-name="circle.arrowup" horiz-adv-x="565" /><glyph d="M282 -12C430 -12 545 102 545 250C545 398 430 512 282 512C134 512 20 398 20 250C20 102 134 -12 282 -12ZM194 118V386H268C363 386 415 348 415 252C415 157 359 118 265 118ZM264 338H247V166H265C329 166 358 191 358 254C358 318 328 338 264 338Z" glyph-name="circle.d" horiz-adv-x="565" /><glyph d="M282 -12C430 -12 545 102 545 250C545 398 430 512 282 512C134 512 20 398 20 250C20 102 134 -12 282 -12ZM211 118V384H264V166H384V118Z" glyph-name="circle.l" horiz-adv-x="565" /><glyph d="M282 -12C430 -12 545 102 545 250C545 398 430 512 282 512C134 512 20 398 20 250C20 102 134 -12 282 -12ZM308 374 344 218 352 182H355L364 218L400 374H452L380 118H326L297 234L284 295H281L267 234L239 118H185L113 374H166L202 218L210 182H213L222 218L259 374Z" glyph-name="circle.w" horiz-adv-x="565" /><glyph d="M257 670H161L50 570H145L209 629L273 570H368Z" glyph-name="circumflex" horiz-adv-x="418" unicode="&#710;" /><glyph d="M70 120V0H190V120ZM70 370V250H190V370Z" glyph-name="colon" horiz-adv-x="260" unicode=":" /><glyph d="M111 0C111 -42 95 -62 55 -69V-113C122 -104 162 -62 162 14V114H55V0Z" glyph-name="comma" horiz-adv-x="217" unicode="," /><glyph d="M282 48C167 48 87 139 87 250C87 361 167 452 282 452C397 452 478 361 478 250C478 139 397 48 282 48ZM282 -12C430 -12 545 102 545 250C545 398 430 512 282 512C134 512 20 398 20 250C20 102 134 -12 282 -12ZM396 205H336C331 179 313 164 284 164C240 164 220 194 220 249C220 304 240 336 284 336C311 336 330 318 336 292H395C389 349 344 388 286 388C214 388 160 341 160 251C160 162 210 112 281 112C339 112 385 147 396 205Z" glyph-name="copyright" horiz-adv-x="565" unicode="&#169;" /><glyph d="M18 89 64 43 119 98C149 76 185 64 225 64C265 64 301 76 331 98L386 43L432 89L377 144C398 174 410 210 410 249C410 289 398 325 376 355L432 411L386 457L330 401C300 422 264 434 225 434C186 434 149 422 120 401L64 457L18 411L73 356C52 326 40 289 40 249C40 210 52 174 73 144ZM225 146C167 146 124 191 124 249C124 307 167 352 225 352C283 352 326 308 326 249C326 191 283 146 225 146Z" glyph-name="currency" horiz-adv-x="450" unicode="&#164;" /><glyph d="M52 0H178C339 0 436 80 436 250C436 421 346 500 184 500H52ZM180 428C303 428 353 377 353 254C353 132 305 72 182 72H134V428Z" glyph-name="d" horiz-adv-x="462" unicode="d" /><glyph d="M153 477C188 477 213 504 213 538C213 572 190 600 153 600C118 600 93 572 93 538C93 504 118 477 153 477ZM153 411C81 411 25 466 25 538C25 610 81 666 153 666C225 666 281 610 281 538C281 466 225 411 153 411Z" glyph-name="degree" horiz-adv-x="306" unicode="&#176;" /><glyph d="M50 670V574H146V670ZM215 670V574H311V670Z" glyph-name="dieresis" horiz-adv-x="361" unicode="&#168;" /><glyph d="M49 217H401V277H49ZM225 323C197 323 178 343 178 372C178 401 197 421 225 421C253 421 273 401 273 372C273 343 253 323 225 323ZM225 73C197 73 178 93 178 122C178 151 197 171 225 171C253 171 273 151 273 122C273 93 253 73 225 73Z" glyph-name="divide" horiz-adv-x="450" unicode="&#247;" /><glyph d="M252 203C300 189 329 173 329 136C329 84 284 63 228 63C154 63 121 96 113 147H35C40 52 123 -9 222 -9C324 -9 409 42 409 144C409 223 361 252 279 276L199 299C155 312 133 332 133 367C133 415 172 438 221 438C277 438 311 413 320 358H404C396 456 323 509 225 509C129 509 52 460 52 368C52 292 92 250 167 228ZM143 -80H204L307 580H246Z" glyph-name="dollar" horiz-adv-x="440" unicode="$" /><glyph d="M85 -62C119 -62 147 -34 147 0C147 34 119 62 85 62C51 62 23 34 23 0C23 -34 51 -62 85 -62Z" glyph-name="dot.000" horiz-adv-x="170" /><glyph d="M85 -55C119 -55 147 -27 147 7C147 41 119 69 85 69C51 69 23 41 23 7C23 -27 51 -55 85 -55Z" glyph-name="dot.001" horiz-adv-x="170" /><glyph d="M85 -48C119 -48 147 -20 147 14C147 48 119 76 85 76C51 76 23 48 23 14C23 -20 51 -48 85 -48Z" glyph-name="dot.002" horiz-adv-x="170" /><glyph d="M85 -41C119 -41 147 -13 147 21C147 55 119 83 85 83C51 83 23 55 23 21C23 -13 51 -41 85 -41Z" glyph-name="dot.003" horiz-adv-x="170" /><glyph d="M85 -34C119 -34 147 -6 147 28C147 62 119 90 85 90C51 90 23 62 23 28C23 -6 51 -34 85 -34Z" glyph-name="dot.004" horiz-adv-x="170" /><glyph d="M85 -27C119 -27 147 1 147 35C147 69 119 97 85 97C51 97 23 69 23 35C23 1 51 -27 85 -27Z" glyph-name="dot.005" horiz-adv-x="170" /><glyph d="M85 -20C119 -20 147 8 147 42C147 76 119 104 85 104C51 104 23 76 23 42C23 8 51 -20 85 -20Z" glyph-name="dot.006" horiz-adv-x="170" /><glyph d="M85 -13C119 -13 147 15 147 49C147 83 119 111 85 111C51 111 23 83 23 49C23 15 51 -13 85 -13Z" glyph-name="dot.007" horiz-adv-x="170" /><glyph d="M85 -6C119 -6 147 22 147 56C147 90 119 118 85 118C51 118 23 90 23 56C23 22 51 -6 85 -6Z" glyph-name="dot.008" horiz-adv-x="170" /><glyph d="M85 1C119 1 147 29 147 63C147 97 119 125 85 125C51 125 23 97 23 63C23 29 51 1 85 1Z" glyph-name="dot.009" horiz-adv-x="170" /><glyph d="M85 8C119 8 147 36 147 70C147 104 119 132 85 132C51 132 23 104 23 70C23 36 51 8 85 8Z" glyph-name="dot.010" horiz-adv-x="170" /><glyph d="M85 15C119 15 147 43 147 77C147 111 119 139 85 139C51 139 23 111 23 77C23 43 51 15 85 15Z" glyph-name="dot.011" horiz-adv-x="170" /><glyph d="M85 22C119 22 147 50 147 84C147 118 119 146 85 146C51 146 23 118 23 84C23 50 51 22 85 22Z" glyph-name="dot.012" horiz-adv-x="170" /><glyph d="M85 29C119 29 147 57 147 91C147 125 119 153 85 153C51 153 23 125 23 91C23 57 51 29 85 29Z" glyph-name="dot.013" horiz-adv-x="170" /><glyph d="M85 36C119 36 147 64 147 98C147 132 119 160 85 160C51 160 23 132 23 98C23 64 51 36 85 36Z" glyph-name="dot.014" horiz-adv-x="170" /><glyph d="M85 43C119 43 147 71 147 105C147 139 119 167 85 167C51 167 23 139 23 105C23 71 51 43 85 43Z" glyph-name="dot.015" horiz-adv-x="170" /><glyph d="M85 50C119 50 147 78 147 112C147 146 119 174 85 174C51 174 23 146 23 112C23 78 51 50 85 50Z" glyph-name="dot.016" horiz-adv-x="170" /><glyph d="M85 57C119 57 147 85 147 119C147 153 119 181 85 181C51 181 23 153 23 119C23 85 51 57 85 57Z" glyph-name="dot.017" horiz-adv-x="170" /><glyph d="M85 64C119 64 147 92 147 126C147 160 119 188 85 188C51 188 23 160 23 126C23 92 51 64 85 64Z" glyph-name="dot.018" horiz-adv-x="170" /><glyph d="M85 71C119 71 147 99 147 133C147 167 119 195 85 195C51 195 23 167 23 133C23 99 51 71 85 71Z" glyph-name="dot.019" horiz-adv-x="170" /><glyph d="M85 78C119 78 147 106 147 140C147 174 119 202 85 202C51 202 23 174 23 140C23 106 51 78 85 78Z" glyph-name="dot.020" horiz-adv-x="170" /><glyph d="M85 85C119 85 147 113 147 147C147 181 119 209 85 209C51 209 23 181 23 147C23 113 51 85 85 85Z" glyph-name="dot.021" horiz-adv-x="170" /><glyph d="M85 92C119 92 147 120 147 154C147 188 119 216 85 216C51 216 23 188 23 154C23 120 51 92 85 92Z" glyph-name="dot.022" horiz-adv-x="170" /><glyph d="M85 99C119 99 147 127 147 161C147 195 119 223 85 223C51 223 23 195 23 161C23 127 51 99 85 99Z" glyph-name="dot.023" horiz-adv-x="170" /><glyph d="M85 106C119 106 147 134 147 168C147 202 119 230 85 230C51 230 23 202 23 168C23 134 51 106 85 106Z" glyph-name="dot.024" horiz-adv-x="170" /><glyph d="M85 113C119 113 147 141 147 175C147 209 119 237 85 237C51 237 23 209 23 175C23 141 51 113 85 113Z" glyph-name="dot.025" horiz-adv-x="170" /><glyph d="M85 120C119 120 147 148 147 182C147 216 119 244 85 244C51 244 23 216 23 182C23 148 51 120 85 120Z" glyph-name="dot.026" horiz-adv-x="170" /><glyph d="M85 127C119 127 147 155 147 189C147 223 119 251 85 251C51 251 23 223 23 189C23 155 51 127 85 127Z" glyph-name="dot.027" horiz-adv-x="170" /><glyph d="M85 134C119 134 147 162 147 196C147 230 119 258 85 258C51 258 23 230 23 196C23 162 51 134 85 134Z" glyph-name="dot.028" horiz-adv-x="170" /><glyph d="M85 141C119 141 147 169 147 203C147 237 119 265 85 265C51 265 23 237 23 203C23 169 51 141 85 141Z" glyph-name="dot.029" horiz-adv-x="170" /><glyph d="M85 148C119 148 147 176 147 210C147 244 119 272 85 272C51 272 23 244 23 210C23 176 51 148 85 148Z" glyph-name="dot.030" horiz-adv-x="170" /><glyph d="M85 155C119 155 147 183 147 217C147 251 119 279 85 279C51 279 23 251 23 217C23 183 51 155 85 155Z" glyph-name="dot.031" horiz-adv-x="170" /><glyph d="M85 162C119 162 147 190 147 224C147 258 119 286 85 286C51 286 23 258 23 224C23 190 51 162 85 162Z" glyph-name="dot.032" horiz-adv-x="170" /><glyph d="M85 169C119 169 147 197 147 231C147 265 119 293 85 293C51 293 23 265 23 231C23 197 51 169 85 169Z" glyph-name="dot.033" horiz-adv-x="170" /><glyph d="M85 176C119 176 147 204 147 238C147 272 119 300 85 300C51 300 23 272 23 238C23 204 51 176 85 176Z" glyph-name="dot.034" horiz-adv-x="170" /><glyph d="M85 183C119 183 147 211 147 245C147 279 119 307 85 307C51 307 23 279 23 245C23 211 51 183 85 183Z" glyph-name="dot.035" horiz-adv-x="170" /><glyph d="M85 190C119 190 147 218 147 252C147 286 119 314 85 314C51 314 23 286 23 252C23 218 51 190 85 190Z" glyph-name="dot.036" horiz-adv-x="170" /><glyph d="M85 197C119 197 147 225 147 259C147 293 119 321 85 321C51 321 23 293 23 259C23 225 51 197 85 197Z" glyph-name="dot.037" horiz-adv-x="170" /><glyph d="M85 204C119 204 147 232 147 266C147 300 119 328 85 328C51 328 23 300 23 266C23 232 51 204 85 204Z" glyph-name="dot.038" horiz-adv-x="170" /><glyph d="M85 211C119 211 147 239 147 273C147 307 119 335 85 335C51 335 23 307 23 273C23 239 51 211 85 211Z" glyph-name="dot.039" horiz-adv-x="170" /><glyph d="M85 218C119 218 147 246 147 280C147 314 119 342 85 342C51 342 23 314 23 280C23 246 51 218 85 218Z" glyph-name="dot.040" horiz-adv-x="170" /><glyph d="M85 225C119 225 147 253 147 287C147 321 119 349 85 349C51 349 23 321 23 287C23 253 51 225 85 225Z" glyph-name="dot.041" horiz-adv-x="170" /><glyph d="M85 232C119 232 147 260 147 294C147 328 119 356 85 356C51 356 23 328 23 294C23 260 51 232 85 232Z" glyph-name="dot.042" horiz-adv-x="170" /><glyph d="M85 239C119 239 147 267 147 301C147 335 119 363 85 363C51 363 23 335 23 301C23 267 51 239 85 239Z" glyph-name="dot.043" horiz-adv-x="170" /><glyph d="M85 246C119 246 147 274 147 308C147 342 119 370 85 370C51 370 23 342 23 308C23 274 51 246 85 246Z" glyph-name="dot.044" horiz-adv-x="170" /><glyph d="M85 253C119 253 147 281 147 315C147 349 119 377 85 377C51 377 23 349 23 315C23 281 51 253 85 253Z" glyph-name="dot.045" horiz-adv-x="170" /><glyph d="M85 260C119 260 147 288 147 322C147 356 119 384 85 384C51 384 23 356 23 322C23 288 51 260 85 260Z" glyph-name="dot.046" horiz-adv-x="170" /><glyph d="M85 267C119 267 147 295 147 329C147 363 119 391 85 391C51 391 23 363 23 329C23 295 51 267 85 267Z" glyph-name="dot.047" horiz-adv-x="170" /><glyph d="M85 274C119 274 147 302 147 336C147 370 119 398 85 398C51 398 23 370 23 336C23 302 51 274 85 274Z" glyph-name="dot.048" horiz-adv-x="170" /><glyph d="M85 281C119 281 147 309 147 343C147 377 119 405 85 405C51 405 23 377 23 343C23 309 51 281 85 281Z" glyph-name="dot.049" horiz-adv-x="170" /><glyph d="M85 288C119 288 147 316 147 350C147 384 119 412 85 412C51 412 23 384 23 350C23 316 51 288 85 288Z" glyph-name="dot.050" horiz-adv-x="170" /><glyph d="M85 295C119 295 147 323 147 357C147 391 119 419 85 419C51 419 23 391 23 357C23 323 51 295 85 295Z" glyph-name="dot.051" horiz-adv-x="170" /><glyph d="M85 302C119 302 147 330 147 364C147 398 119 426 85 426C51 426 23 398 23 364C23 330 51 302 85 302Z" glyph-name="dot.052" horiz-adv-x="170" /><glyph d="M85 309C119 309 147 337 147 371C147 405 119 433 85 433C51 433 23 405 23 371C23 337 51 309 85 309Z" glyph-name="dot.053" horiz-adv-x="170" /><glyph d="M85 316C119 316 147 344 147 378C147 412 119 440 85 440C51 440 23 412 23 378C23 344 51 316 85 316Z" glyph-name="dot.054" horiz-adv-x="170" /><glyph d="M85 323C119 323 147 351 147 385C147 419 119 447 85 447C51 447 23 419 23 385C23 351 51 323 85 323Z" glyph-name="dot.055" horiz-adv-x="170" /><glyph d="M85 330C119 330 147 358 147 392C147 426 119 454 85 454C51 454 23 426 23 392C23 358 51 330 85 330Z" glyph-name="dot.056" horiz-adv-x="170" /><glyph d="M85 337C119 337 147 365 147 399C147 433 119 461 85 461C51 461 23 433 23 399C23 365 51 337 85 337Z" glyph-name="dot.057" horiz-adv-x="170" /><glyph d="M85 344C119 344 147 372 147 406C147 440 119 468 85 468C51 468 23 440 23 406C23 372 51 344 85 344Z" glyph-name="dot.058" horiz-adv-x="170" /><glyph d="M85 351C119 351 147 379 147 413C147 447 119 475 85 475C51 475 23 447 23 413C23 379 51 351 85 351Z" glyph-name="dot.059" horiz-adv-x="170" /><glyph d="M85 358C119 358 147 386 147 420C147 454 119 482 85 482C51 482 23 454 23 420C23 386 51 358 85 358Z" glyph-name="dot.060" horiz-adv-x="170" /><glyph d="M85 365C119 365 147 393 147 427C147 461 119 489 85 489C51 489 23 461 23 427C23 393 51 365 85 365Z" glyph-name="dot.061" horiz-adv-x="170" /><glyph d="M85 372C119 372 147 400 147 434C147 468 119 496 85 496C51 496 23 468 23 434C23 400 51 372 85 372Z" glyph-name="dot.062" horiz-adv-x="170" /><glyph d="M85 379C119 379 147 407 147 441C147 475 119 503 85 503C51 503 23 475 23 441C23 407 51 379 85 379Z" glyph-name="dot.063" horiz-adv-x="170" /><glyph d="M85 386C119 386 147 414 147 448C147 482 119 510 85 510C51 510 23 482 23 448C23 414 51 386 85 386Z" glyph-name="dot.064" horiz-adv-x="170" /><glyph d="M85 393C119 393 147 421 147 455C147 489 119 517 85 517C51 517 23 489 23 455C23 421 51 393 85 393Z" glyph-name="dot.065" horiz-adv-x="170" /><glyph d="M85 400C119 400 147 428 147 462C147 496 119 524 85 524C51 524 23 496 23 462C23 428 51 400 85 400Z" glyph-name="dot.066" horiz-adv-x="170" /><glyph d="M85 407C119 407 147 435 147 469C147 503 119 531 85 531C51 531 23 503 23 469C23 435 51 407 85 407Z" glyph-name="dot.067" horiz-adv-x="170" /><glyph d="M85 414C119 414 147 442 147 476C147 510 119 538 85 538C51 538 23 510 23 476C23 442 51 414 85 414Z" glyph-name="dot.068" horiz-adv-x="170" /><glyph d="M85 421C119 421 147 449 147 483C147 517 119 545 85 545C51 545 23 517 23 483C23 449 51 421 85 421Z" glyph-name="dot.069" horiz-adv-x="170" /><glyph d="M85 428C119 428 147 456 147 490C147 524 119 552 85 552C51 552 23 524 23 490C23 456 51 428 85 428Z" glyph-name="dot.070" horiz-adv-x="170" /><glyph d="M85 435C119 435 147 463 147 497C147 531 119 559 85 559C51 559 23 531 23 497C23 463 51 435 85 435Z" glyph-name="dot.071" horiz-adv-x="170" /><glyph d="M85 442C119 442 147 470 147 504C147 538 119 566 85 566C51 566 23 538 23 504C23 470 51 442 85 442Z" glyph-name="dot.072" horiz-adv-x="170" /><glyph d="M85 449C119 449 147 477 147 511C147 545 119 573 85 573C51 573 23 545 23 511C23 477 51 449 85 449Z" glyph-name="dot.073" horiz-adv-x="170" /><glyph d="M85 456C119 456 147 484 147 518C147 552 119 580 85 580C51 580 23 552 23 518C23 484 51 456 85 456Z" glyph-name="dot.074" horiz-adv-x="170" /><glyph d="M85 463C119 463 147 491 147 525C147 559 119 587 85 587C51 587 23 559 23 525C23 491 51 463 85 463Z" glyph-name="dot.075" horiz-adv-x="170" /><glyph d="M85 470C119 470 147 498 147 532C147 566 119 594 85 594C51 594 23 566 23 532C23 498 51 470 85 470Z" glyph-name="dot.076" horiz-adv-x="170" /><glyph d="M85 477C119 477 147 505 147 539C147 573 119 601 85 601C51 601 23 573 23 539C23 505 51 477 85 477Z" glyph-name="dot.077" horiz-adv-x="170" /><glyph d="M85 484C119 484 147 512 147 546C147 580 119 608 85 608C51 608 23 580 23 546C23 512 51 484 85 484Z" glyph-name="dot.078" horiz-adv-x="170" /><glyph d="M85 491C119 491 147 519 147 553C147 587 119 615 85 615C51 615 23 587 23 553C23 519 51 491 85 491Z" glyph-name="dot.079" horiz-adv-x="170" /><glyph d="M85 498C119 498 147 526 147 560C147 594 119 622 85 622C51 622 23 594 23 560C23 526 51 498 85 498Z" glyph-name="dot.080" horiz-adv-x="170" /><glyph d="M85 505C119 505 147 533 147 567C147 601 119 629 85 629C51 629 23 601 23 567C23 533 51 505 85 505Z" glyph-name="dot.081" horiz-adv-x="170" /><glyph d="M85 512C119 512 147 540 147 574C147 608 119 636 85 636C51 636 23 608 23 574C23 540 51 512 85 512Z" glyph-name="dot.082" horiz-adv-x="170" /><glyph d="M85 519C119 519 147 547 147 581C147 615 119 643 85 643C51 643 23 615 23 581C23 547 51 519 85 519Z" glyph-name="dot.083" horiz-adv-x="170" /><glyph d="M85 526C119 526 147 554 147 588C147 622 119 650 85 650C51 650 23 622 23 588C23 554 51 526 85 526Z" glyph-name="dot.084" horiz-adv-x="170" /><glyph d="M85 533C119 533 147 561 147 595C147 629 119 657 85 657C51 657 23 629 23 595C23 561 51 533 85 533Z" glyph-name="dot.085" horiz-adv-x="170" /><glyph d="M85 540C119 540 147 568 147 602C147 636 119 664 85 664C51 664 23 636 23 602C23 568 51 540 85 540Z" glyph-name="dot.086" horiz-adv-x="170" /><glyph d="M85 547C119 547 147 575 147 609C147 643 119 671 85 671C51 671 23 643 23 609C23 575 51 547 85 547Z" glyph-name="dot.087" horiz-adv-x="170" /><glyph d="M85 554C119 554 147 582 147 616C147 650 119 678 85 678C51 678 23 650 23 616C23 582 51 554 85 554Z" glyph-name="dot.088" horiz-adv-x="170" /><glyph d="M85 561C119 561 147 589 147 623C147 657 119 685 85 685C51 685 23 657 23 623C23 589 51 561 85 561Z" glyph-name="dot.089" horiz-adv-x="170" /><glyph d="M85 568C119 568 147 596 147 630C147 664 119 692 85 692C51 692 23 664 23 630C23 596 51 568 85 568Z" glyph-name="dot.090" horiz-adv-x="170" /><glyph d="M85 575C119 575 147 603 147 637C147 671 119 699 85 699C51 699 23 671 23 637C23 603 51 575 85 575Z" glyph-name="dot.091" horiz-adv-x="170" /><glyph d="M85 582C119 582 147 610 147 644C147 678 119 706 85 706C51 706 23 678 23 644C23 610 51 582 85 582Z" glyph-name="dot.092" horiz-adv-x="170" /><glyph d="M85 589C119 589 147 617 147 651C147 685 119 713 85 713C51 713 23 685 23 651C23 617 51 589 85 589Z" glyph-name="dot.093" horiz-adv-x="170" /><glyph d="M85 596C119 596 147 624 147 658C147 692 119 720 85 720C51 720 23 692 23 658C23 624 51 596 85 596Z" glyph-name="dot.094" horiz-adv-x="170" /><glyph d="M85 603C119 603 147 631 147 665C147 699 119 727 85 727C51 727 23 699 23 665C23 631 51 603 85 603Z" glyph-name="dot.095" horiz-adv-x="170" /><glyph d="M85 610C119 610 147 638 147 672C147 706 119 734 85 734C51 734 23 706 23 672C23 638 51 610 85 610Z" glyph-name="dot.096" horiz-adv-x="170" /><glyph d="M85 617C119 617 147 645 147 679C147 713 119 741 85 741C51 741 23 713 23 679C23 645 51 617 85 617Z" glyph-name="dot.097" horiz-adv-x="170" /><glyph d="M85 624C119 624 147 652 147 686C147 720 119 748 85 748C51 748 23 720 23 686C23 652 51 624 85 624Z" glyph-name="dot.098" horiz-adv-x="170" /><glyph d="M85 631C119 631 147 659 147 693C147 727 119 755 85 755C51 755 23 727 23 693C23 659 51 631 85 631Z" glyph-name="dot.099" horiz-adv-x="170" /><glyph d="M85 638C119 638 147 666 147 700C147 734 119 762 85 762C51 762 23 734 23 700C23 666 51 638 85 638Z" glyph-name="dot.100" horiz-adv-x="170" /><glyph d="M50 670V570H150V670Z" glyph-name="dotaccent" horiz-adv-x="200" unicode="&#729;" /><glyph d="M52 0H135V500H52Z" glyph-name="dotlessi" horiz-adv-x="187" unicode="&#305;" /><glyph d="M52 0H361V72H134V219H316V291H134V428H355V500H52Z" glyph-name="e" horiz-adv-x="388" unicode="e" /><glyph d="M52 0H361V72H134V219H316V291H134V428H355V500H52ZM223 560 327 670H223L156 560Z" glyph-name="eacute" horiz-adv-x="388" unicode="&#233;" /><glyph d="M52 0H361V72H134V219H316V291H134V428H355V500H52ZM252 670H156L45 570H140L204 629L268 570H363Z" glyph-name="ecircumflex" horiz-adv-x="388" unicode="&#234;" /><glyph d="M52 0H361V72H134V219H316V291H134V428H355V500H52ZM71 670V574H167V670ZM236 670V574H332V670Z" glyph-name="edieresis" horiz-adv-x="388" unicode="&#235;" /><glyph d="M52 0H361V72H134V219H316V291H134V428H355V500H52ZM179 560H246L179 670H75Z" glyph-name="egrave" horiz-adv-x="388" unicode="&#232;" /><glyph d="M418 141C418 194 381 237 335 254V256C371 276 400 316 400 364C400 452 331 510 226 510C121 510 50 456 50 368C50 319 80 277 117 256V254C70 236 32 194 32 139C32 40 113 -10 227 -10C341 -10 418 42 418 141ZM226 282C171 282 133 311 133 360C133 409 169 440 224 440C279 440 317 411 317 362C317 313 281 282 226 282ZM224 223C290 223 331 193 331 142C331 91 292 59 226 59C160 59 119 89 119 140C119 191 158 223 224 223Z" glyph-name="eight" horiz-adv-x="450" unicode="8" /><glyph d="M55 105V0H160V105ZM245 105V0H350V105ZM435 105V0H540V105Z" glyph-name="ellipsis" horiz-adv-x="595" unicode="&#8230;" /><glyph d="M43 218H577V276H43Z" glyph-name="emdash" horiz-adv-x="620" unicode="&#8212;" /><glyph d="M44 217H396V277H44Z" glyph-name="endash" horiz-adv-x="440" unicode="&#8211;" /><glyph d="M65 144H385V209H65ZM65 286H385V351H65Z" glyph-name="equal" horiz-adv-x="450" unicode="=" /><glyph d="M25 225H277V285H25ZM77 0H203C364 0 461 80 461 250C461 421 371 500 209 500H77ZM205 428C328 428 378 377 378 254C378 132 330 72 207 72H159V428Z" glyph-name="eth" horiz-adv-x="487" unicode="&#240;" /><glyph d="M61 100V0H163V100ZM51 500 81 150H143L173 500Z" glyph-name="exclam" horiz-adv-x="224" unicode="!" /><glyph d="M61 400V500H163V400ZM51 0 81 350H143L173 0Z" glyph-name="exclamdown" horiz-adv-x="224" unicode="&#161;" /><glyph d="M52 0H134V210H320V282H134V428H359V500H52Z" glyph-name="f" horiz-adv-x="374" unicode="f" /><glyph d="M55 216H127C147 250 177 271 225 271C296 271 329 226 329 167C329 108 292 62 221 62C166 62 128 91 120 134H40C43 103 58 70 74 50C104 13 153 -10 218 -10C331 -10 412 60 412 170C412 278 338 339 237 339C197 339 162 327 134 303H132L142 428H388V500H77Z" glyph-name="five" horiz-adv-x="450" unicode="5" /><glyph d="M27 100H268V0H347V100H424V169H347V502H259L27 160ZM108 169 269 411H271C269 378 268 334 268 304V169Z" glyph-name="four" horiz-adv-x="450" unicode="4" /><glyph d="M20 280H154V223H218V280H261V334H218V500H143L20 329ZM80 334 157 443H158L154 334Z" glyph-name="foursuperscript" horiz-adv-x="283" /><glyph d="M472 241V252H239V180H383C379 116 338 66 255 66C168 66 112 132 112 248C112 365 170 434 257 434C324 434 362 403 373 349H459C447 451 368 510 261 510C130 510 26 423 26 252C26 82 120 -10 251 -10C398 -10 472 81 472 241Z" glyph-name="g" horiz-adv-x="497" unicode="g" /><glyph d="M199 0H235C346 0 410 53 410 146C410 205 381 240 332 263V265C367 283 394 320 394 368C394 455 330 500 229 500C125 500 51 451 51 357V0H133V352C133 404 168 428 221 428C272 428 309 410 309 363C309 317 278 294 221 294H199V225H225C293 225 325 201 325 150C325 99 293 73 225 73H199Z" glyph-name="germandbls" horiz-adv-x="437" unicode="&#223;" /><glyph d="M154 560H221L154 670H50Z" glyph-name="grave" horiz-adv-x="271" unicode="`" /><glyph d="M393 206 53 35V126L322 250L53 374V465L393 294Z" glyph-name="greater" horiz-adv-x="450" unicode="&gt;" /><glyph d="M131 400H220L126 250L220 100H131L32 250ZM281 400H370L276 250L370 100H281L182 250Z" glyph-name="guillemetleft" horiz-adv-x="406" unicode="&#171;" /><glyph d="M125 400H36L130 250L36 100H125L224 250ZM275 400H186L280 250L186 100H275L374 250Z" glyph-name="guillemetright" horiz-adv-x="406" unicode="&#187;" /><glyph d="M131 400H220L126 250L220 100H131L32 250Z" glyph-name="guilsinglleft" horiz-adv-x="256" unicode="&#8249;" /><glyph d="M125 400H36L130 250L36 100H125L224 250Z" glyph-name="guilsinglright" horiz-adv-x="256" unicode="&#8250;" /><glyph d="M52 0H134V218H363V0H445V500H363V290H134V500H52Z" glyph-name="h" horiz-adv-x="497" unicode="h" /><glyph d="M123 560 231 670H135L50 560ZM266 560 374 670H278L193 560Z" glyph-name="hungarumlaut" horiz-adv-x="424" unicode="&#733;" /><glyph d="M45 213H295V285H45Z" glyph-name="hyphen" horiz-adv-x="340" unicode="-" /><glyph d="M52 0H135V500H52Z" glyph-name="i" horiz-adv-x="187" unicode="i" /><glyph d="M52 0H135V500H52ZM127 560 231 670H127L60 560Z" glyph-name="iacute" horiz-adv-x="187" unicode="&#237;" /><glyph d="M52 0H135V500H52ZM142 670H46L-65 570H30L94 629L158 570H253Z" glyph-name="icircumflex" horiz-adv-x="187" unicode="&#238;" /><glyph d="M52 0H135V500H52ZM-37 670V574H59V670ZM128 670V574H224V670Z" glyph-name="idieresis" horiz-adv-x="187" unicode="&#239;" /><glyph d="M52 0H135V500H52ZM60 560H127L60 670H-44Z" glyph-name="igrave" horiz-adv-x="187" unicode="&#236;" /><glyph d="M133 161C133 94 116 66 57 66C45 66 24 67 10 69V-7C25 -9 44 -10 59 -10C170 -10 216 28 216 145V500H133Z" glyph-name="j" horiz-adv-x="266" unicode="j" /><glyph d="M56 0H139V140L214 229L361 0H460L268 292L446 500H349L139 251V500H56Z" glyph-name="k" horiz-adv-x="456" unicode="k" /><glyph d="M52 0H361V73H134V500H52Z" glyph-name="l" horiz-adv-x="366" unicode="l" /><glyph d="M57 206 397 35V126L128 250L397 374V465L57 294Z" glyph-name="less" horiz-adv-x="450" unicode="&lt;" /><glyph d="M85 -37H435V37H85ZM85 -62C119 -62 147 -34 147 0C147 34 119 62 85 62C51 62 23 34 23 0C23 -34 51 -62 85 -62Z" glyph-name="line.000.000" horiz-adv-x="350" /><glyph d="M85 -37 435 -30V44L85 37ZM85 -62C119 -62 147 -34 147 0C147 34 119 62 85 62C51 62 23 34 23 0C23 -34 51 -62 85 -62Z" glyph-name="line.000.001" horiz-adv-x="350" /><glyph d="M85 -37 435 -23V51L85 37ZM85 -62C119 -62 147 -34 147 0C147 34 119 62 85 62C51 62 23 34 23 0C23 -34 51 -62 85 -62Z" glyph-name="line.000.002" horiz-adv-x="350" /><glyph d="M85 -37 435 -16V58L85 37ZM85 -62C119 -62 147 -34 147 0C147 34 119 62 85 62C51 62 23 34 23 0C23 -34 51 -62 85 -62Z" glyph-name="line.000.003" horiz-adv-x="350" /><glyph d="M85 -37 435 -9V65L85 37ZM85 -62C119 -62 147 -34 147 0C147 34 119 62 85 62C51 62 23 34 23 0C23 -34 51 -62 85 -62Z" glyph-name="line.000.004" horiz-adv-x="350" /><glyph d="M85 -38 435 -2V73L85 38ZM85 -62C119 -62 147 -34 147 0C147 34 119 62 85 62C51 62 23 34 23 0C23 -34 51 -62 85 -62Z" glyph-name="line.000.005" horiz-adv-x="350" /><glyph d="M85 -38 435 4V80L85 38ZM85 -62C119 -62 147 -34 147 0C147 34 119 62 85 62C51 62 23 34 23 0C23 -34 51 -62 85 -62Z" glyph-name="line.000.006" horiz-adv-x="350" /><glyph d="M85 -38 435 11V87L85 38ZM85 -62C119 -62 147 -34 147 0C147 34 119 62 85 62C51 62 23 34 23 0C23 -34 51 -62 85 -62Z" glyph-name="line.000.007" horiz-adv-x="350" /><glyph d="M85 -38 435 18V94L85 38ZM85 -62C119 -62 147 -34 147 0C147 34 119 62 85 62C51 62 23 34 23 0C23 -34 51 -62 85 -62Z" glyph-name="line.000.008" horiz-adv-x="350" /><glyph d="M85 -38 435 25V101L85 38ZM85 -62C119 -62 147 -34 147 0C147 34 119 62 85 62C51 62 23 34 23 0C23 -34 51 -62 85 -62Z" glyph-name="line.000.009" horiz-adv-x="350" /><glyph d="M85 -39 435 31V109L85 39ZM85 -62C119 -62 147 -34 147 0C147 34 119 62 85 62C51 62 23 34 23 0C23 -34 51 -62 85 -62Z" glyph-name="line.000.010" horiz-adv-x="350" /><glyph d="M85 -39 435 38V116L85 39ZM85 -62C119 -62 147 -34 147 0C147 34 119 62 85 62C51 62 23 34 23 0C23 -34 51 -62 85 -62Z" glyph-name="line.000.011" horiz-adv-x="350" /><glyph d="M85 -39 435 45V123L85 39ZM85 -62C119 -62 147 -34 147 0C147 34 119 62 85 62C51 62 23 34 23 0C23 -34 51 -62 85 -62Z" glyph-name="line.000.012" horiz-adv-x="350" /><glyph d="M85 -39 435 52V130L85 39ZM85 -62C119 -62 147 -34 147 0C147 34 119 62 85 62C51 62 23 34 23 0C23 -34 51 -62 85 -62Z" glyph-name="line.000.013" horiz-adv-x="350" /><glyph d="M85 -39 435 59V137L85 39ZM85 -62C119 -62 147 -34 147 0C147 34 119 62 85 62C51 62 23 34 23 0C23 -34 51 -62 85 -62Z" glyph-name="line.000.014" horiz-adv-x="350" /><glyph d="M85 -40 435 65V145L85 40ZM85 -62C119 -62 147 -34 147 0C147 34 119 62 85 62C51 62 23 34 23 0C23 -34 51 -62 85 -62Z" glyph-name="line.000.015" horiz-adv-x="350" /><glyph d="M85 -40 435 72V152L85 40ZM85 -62C119 -62 147 -34 147 0C147 34 119 62 85 62C51 62 23 34 23 0C23 -34 51 -62 85 -62Z" glyph-name="line.000.016" horiz-adv-x="350" /><glyph d="M85 -40 435 79V159L85 40ZM85 -62C119 -62 147 -34 147 0C147 34 119 62 85 62C51 62 23 34 23 0C23 -34 51 -62 85 -62Z" glyph-name="line.000.017" horiz-adv-x="350" /><glyph d="M85 -40 435 86V166L85 40ZM85 -62C119 -62 147 -34 147 0C147 34 119 62 85 62C51 62 23 34 23 0C23 -34 51 -62 85 -62Z" glyph-name="line.000.018" horiz-adv-x="350" /><glyph d="M85 -40 435 93V173L85 40ZM85 -62C119 -62 147 -34 147 0C147 34 119 62 85 62C51 62 23 34 23 0C23 -34 51 -62 85 -62Z" glyph-name="line.000.019" horiz-adv-x="350" /><glyph d="M85 -41 435 99V181L85 41ZM85 -62C119 -62 147 -34 147 0C147 34 119 62 85 62C51 62 23 34 23 0C23 -34 51 -62 85 -62Z" glyph-name="line.000.020" horiz-adv-x="350" /><glyph d="M85 -41 435 106V188L85 41ZM85 -62C119 -62 147 -34 147 0C147 34 119 62 85 62C51 62 23 34 23 0C23 -34 51 -62 85 -62Z" glyph-name="line.000.021" horiz-adv-x="350" /><glyph d="M85 -41 435 113V195L85 41ZM85 -62C119 -62 147 -34 147 0C147 34 119 62 85 62C51 62 23 34 23 0C23 -34 51 -62 85 -62Z" glyph-name="line.000.022" horiz-adv-x="350" /><glyph d="M85 -41 435 120V202L85 41ZM85 -62C119 -62 147 -34 147 0C147 34 119 62 85 62C51 62 23 34 23 0C23 -34 51 -62 85 -62Z" glyph-name="line.000.023" horiz-adv-x="350" /><glyph d="M85 -41 435 127V209L85 41ZM85 -62C119 -62 147 -34 147 0C147 34 119 62 85 62C51 62 23 34 23 0C23 -34 51 -62 85 -62Z" glyph-name="line.000.024" horiz-adv-x="350" /><glyph d="M85 -42 435 133V217L85 42ZM85 -62C119 -62 147 -34 147 0C147 34 119 62 85 62C51 62 23 34 23 0C23 -34 51 -62 85 -62Z" glyph-name="line.000.025" horiz-adv-x="350" /><glyph d="M85 -42 435 140V224L85 42ZM85 -62C119 -62 147 -34 147 0C147 34 119 62 85 62C51 62 23 34 23 0C23 -34 51 -62 85 -62Z" glyph-name="line.000.026" horiz-adv-x="350" /><glyph d="M85 -42 435 147V231L85 42ZM85 -62C119 -62 147 -34 147 0C147 34 119 62 85 62C51 62 23 34 23 0C23 -34 51 -62 85 -62Z" glyph-name="line.000.027" horiz-adv-x="350" /><glyph d="M85 -42 435 154V238L85 42ZM85 -62C119 -62 147 -34 147 0C147 34 119 62 85 62C51 62 23 34 23 0C23 -34 51 -62 85 -62Z" glyph-name="line.000.028" horiz-adv-x="350" /><glyph d="M85 -42 435 161V245L85 42ZM85 -62C119 -62 147 -34 147 0C147 34 119 62 85 62C51 62 23 34 23 0C23 -34 51 -62 85 -62Z" glyph-name="line.000.029" horiz-adv-x="350" /><glyph d="M85 -43 435 167V253L85 43ZM85 -62C119 -62 147 -34 147 0C147 34 119 62 85 62C51 62 23 34 23 0C23 -34 51 -62 85 -62Z" glyph-name="line.000.030" horiz-adv-x="350" /><glyph d="M85 -43 435 174V260L85 43ZM85 -62C119 -62 147 -34 147 0C147 34 119 62 85 62C51 62 23 34 23 0C23 -34 51 -62 85 -62Z" glyph-name="line.000.031" horiz-adv-x="350" /><glyph d="M85 -43 435 181V267L85 43ZM85 -62C119 -62 147 -34 147 0C147 34 119 62 85 62C51 62 23 34 23 0C23 -34 51 -62 85 -62Z" glyph-name="line.000.032" horiz-adv-x="350" /><glyph d="M85 -43 435 188V274L85 43ZM85 -62C119 -62 147 -34 147 0C147 34 119 62 85 62C51 62 23 34 23 0C23 -34 51 -62 85 -62Z" glyph-name="line.000.033" horiz-adv-x="350" /><glyph d="M85 -43 435 195V281L85 43ZM85 -62C119 -62 147 -34 147 0C147 34 119 62 85 62C51 62 23 34 23 0C23 -34 51 -62 85 -62Z" glyph-name="line.000.034" horiz-adv-x="350" /><glyph d="M85 -44 435 201V289L85 44ZM85 -62C119 -62 147 -34 147 0C147 34 119 62 85 62C51 62 23 34 23 0C23 -34 51 -62 85 -62Z" glyph-name="line.000.035" horiz-adv-x="350" /><glyph d="M85 -44 435 208V296L85 44ZM85 -62C119 -62 147 -34 147 0C147 34 119 62 85 62C51 62 23 34 23 0C23 -34 51 -62 85 -62Z" glyph-name="line.000.036" horiz-adv-x="350" /><glyph d="M85 -44 435 215V303L85 44ZM85 -62C119 -62 147 -34 147 0C147 34 119 62 85 62C51 62 23 34 23 0C23 -34 51 -62 85 -62Z" glyph-name="line.000.037" horiz-adv-x="350" /><glyph d="M85 -44 435 222V310L85 44ZM85 -62C119 -62 147 -34 147 0C147 34 119 62 85 62C51 62 23 34 23 0C23 -34 51 -62 85 -62Z" glyph-name="line.000.038" horiz-adv-x="350" /><glyph d="M85 -45 435 228V318L85 45ZM85 -62C119 -62 147 -34 147 0C147 34 119 62 85 62C51 62 23 34 23 0C23 -34 51 -62 85 -62Z" glyph-name="line.000.039" horiz-adv-x="350" /><glyph d="M85 -46 435 234V326L85 46ZM85 -62C119 -62 147 -34 147 0C147 34 119 62 85 62C51 62 23 34 23 0C23 -34 51 -62 85 -62Z" glyph-name="line.000.040" horiz-adv-x="350" /><glyph d="M85 -46 435 241V333L85 46ZM85 -62C119 -62 147 -34 147 0C147 34 119 62 85 62C51 62 23 34 23 0C23 -34 51 -62 85 -62Z" glyph-name="line.000.041" horiz-adv-x="350" /><glyph d="M85 -46 435 248V340L85 46ZM85 -62C119 -62 147 -34 147 0C147 34 119 62 85 62C51 62 23 34 23 0C23 -34 51 -62 85 -62Z" glyph-name="line.000.042" horiz-adv-x="350" /><glyph d="M85 -47 435 254V348L85 47ZM85 -62C119 -62 147 -34 147 0C147 34 119 62 85 62C51 62 23 34 23 0C23 -34 51 -62 85 -62Z" glyph-name="line.000.043" horiz-adv-x="350" /><glyph d="M85 -47 435 261V355L85 47ZM85 -62C119 -62 147 -34 147 0C147 34 119 62 85 62C51 62 23 34 23 0C23 -34 51 -62 85 -62Z" glyph-name="line.000.044" horiz-adv-x="350" /><glyph d="M85 -47 435 268V362L85 47ZM85 -62C119 -62 147 -34 147 0C147 34 119 62 85 62C51 62 23 34 23 0C23 -34 51 -62 85 -62Z" glyph-name="line.000.045" horiz-adv-x="350" /><glyph d="M85 -48 435 274V370L85 48ZM85 -62C119 -62 147 -34 147 0C147 34 119 62 85 62C51 62 23 34 23 0C23 -34 51 -62 85 -62Z" glyph-name="line.000.046" horiz-adv-x="350" /><glyph d="M85 -48 435 281V377L85 48ZM85 -62C119 -62 147 -34 147 0C147 34 119 62 85 62C51 62 23 34 23 0C23 -34 51 -62 85 -62Z" glyph-name="line.000.047" horiz-adv-x="350" /><glyph d="M85 -49 435 287V385L85 49ZM85 -62C119 -62 147 -34 147 0C147 34 119 62 85 62C51 62 23 34 23 0C23 -34 51 -62 85 -62Z" glyph-name="line.000.048" horiz-adv-x="350" /><glyph d="M85 -49 435 294V392L85 49ZM85 -62C119 -62 147 -34 147 0C147 34 119 62 85 62C51 62 23 34 23 0C23 -34 51 -62 85 -62Z" glyph-name="line.000.049" horiz-adv-x="350" /><glyph d="M85 -50 435 300V400L85 50ZM85 -62C119 -62 147 -34 147 0C147 34 119 62 85 62C51 62 23 34 23 0C23 -34 51 -62 85 -62Z" glyph-name="line.000.050" horiz-adv-x="350" /><glyph d="M85 -50 435 307V407L85 50ZM85 -62C119 -62 147 -34 147 0C147 34 119 62 85 62C51 62 23 34 23 0C23 -34 51 -62 85 -62Z" glyph-name="line.000.051" horiz-adv-x="350" /><glyph d="M85 -51 435 313V415L85 51ZM85 -62C119 -62 147 -34 147 0C147 34 119 62 85 62C51 62 23 34 23 0C23 -34 51 -62 85 -62Z" glyph-name="line.000.052" horiz-adv-x="350" /><glyph d="M85 -52 435 319V423L85 52ZM85 -62C119 -62 147 -34 147 0C147 34 119 62 85 62C51 62 23 34 23 0C23 -34 51 -62 85 -62Z" glyph-name="line.000.053" horiz-adv-x="350" /><glyph d="M85 -54 435 324V432L85 54ZM85 -62C119 -62 147 -34 147 0C147 34 119 62 85 62C51 62 23 34 23 0C23 -34 51 -62 85 -62Z" glyph-name="line.000.054" horiz-adv-x="350" /><glyph d="M85 -54 435 331V439L85 54ZM85 -62C119 -62 147 -34 147 0C147 34 119 62 85 62C51 62 23 34 23 0C23 -34 51 -62 85 -62Z" glyph-name="line.000.055" horiz-adv-x="350" /><glyph d="M85 -55 435 337V447L85 55ZM85 -62C119 -62 147 -34 147 0C147 34 119 62 85 62C51 62 23 34 23 0C23 -34 51 -62 85 -62Z" glyph-name="line.000.056" horiz-adv-x="350" /><glyph d="M85 -55 435 344V454L85 55ZM85 -62C119 -62 147 -34 147 0C147 34 119 62 85 62C51 62 23 34 23 0C23 -34 51 -62 85 -62Z" glyph-name="line.000.057" horiz-adv-x="350" /><glyph d="M85 -56 435 350V462L85 56ZM85 -62C119 -62 147 -34 147 0C147 34 119 62 85 62C51 62 23 34 23 0C23 -34 51 -62 85 -62Z" glyph-name="line.000.058" horiz-adv-x="350" /><glyph d="M85 -56 435 357V469L85 56ZM85 -62C119 -62 147 -34 147 0C147 34 119 62 85 62C51 62 23 34 23 0C23 -34 51 -62 85 -62Z" glyph-name="line.000.059" horiz-adv-x="350" /><glyph d="M85 -57 435 363V477L85 57ZM85 -62C119 -62 147 -34 147 0C147 34 119 62 85 62C51 62 23 34 23 0C23 -34 51 -62 85 -62Z" glyph-name="line.000.060" horiz-adv-x="350" /><glyph d="M85 -57 435 370V484L85 57ZM85 -62C119 -62 147 -34 147 0C147 34 119 62 85 62C51 62 23 34 23 0C23 -34 51 -62 85 -62Z" glyph-name="line.000.061" horiz-adv-x="350" /><glyph d="M85 -58 435 376V492L85 58ZM85 -62C119 -62 147 -34 147 0C147 34 119 62 85 62C51 62 23 34 23 0C23 -34 51 -62 85 -62Z" glyph-name="line.000.062" horiz-adv-x="350" /><glyph d="M85 -58 435 383V499L85 58ZM85 -62C119 -62 147 -34 147 0C147 34 119 62 85 62C51 62 23 34 23 0C23 -34 51 -62 85 -62Z" glyph-name="line.000.063" horiz-adv-x="350" /><glyph d="M85 -59 435 389V507L85 59ZM85 -62C119 -62 147 -34 147 0C147 34 119 62 85 62C51 62 23 34 23 0C23 -34 51 -62 85 -62Z" glyph-name="line.000.064" horiz-adv-x="350" /><glyph d="M85 -59 435 396V514L85 59ZM85 -62C119 -62 147 -34 147 0C147 34 119 62 85 62C51 62 23 34 23 0C23 -34 51 -62 85 -62Z" glyph-name="line.000.065" horiz-adv-x="350" /><glyph d="M85 -60 435 402V522L85 60ZM85 -62C119 -62 147 -34 147 0C147 34 119 62 85 62C51 62 23 34 23 0C23 -34 51 -62 85 -62Z" glyph-name="line.000.066" horiz-adv-x="350" /><glyph d="M85 -60 435 409V529L85 60ZM85 -62C119 -62 147 -34 147 0C147 34 119 62 85 62C51 62 23 34 23 0C23 -34 51 -62 85 -62Z" glyph-name="line.000.067" horiz-adv-x="350" /><glyph d="M85 -61 435 415V537L85 61ZM85 -62C119 -62 147 -34 147 0C147 34 119 62 85 62C51 62 23 34 23 0C23 -34 51 -62 85 -62Z" glyph-name="line.000.068" horiz-adv-x="350" /><glyph d="M85 -61 435 423V545L85 61ZM85 -62C119 -62 147 -34 147 0C147 34 119 62 85 62C51 62 23 34 23 0C23 -34 51 -62 85 -62Z" glyph-name="line.000.069" horiz-adv-x="350" /><glyph d="M85 -62 435 428V552L85 62ZM85 -62C119 -62 147 -34 147 0C147 34 119 62 85 62C51 62 23 34 23 0C23 -34 51 -62 85 -62Z" glyph-name="line.000.070" horiz-adv-x="350" /><glyph d="M85 -62 435 435V559L85 62ZM85 -62C119 -62 147 -34 147 0C147 34 119 62 85 62C51 62 23 34 23 0C23 -34 51 -62 85 -62Z" glyph-name="line.000.071" horiz-adv-x="350" /><glyph d="M129 0 479 504H391L41 0ZM85 -62C119 -62 147 -34 147 0C147 34 119 62 85 62C51 62 23 34 23 0C23 -34 51 -62 85 -62Z" glyph-name="line.000.072" horiz-adv-x="350" /><glyph d="M128 0 478 511H392L42 0ZM85 -62C119 -62 147 -34 147 0C147 34 119 62 85 62C51 62 23 34 23 0C23 -34 51 -62 85 -62Z" glyph-name="line.000.073" horiz-adv-x="350" /><glyph d="M128 0 478 518H392L42 0ZM85 -62C119 -62 147 -34 147 0C147 34 119 62 85 62C51 62 23 34 23 0C23 -34 51 -62 85 -62Z" glyph-name="line.000.074" horiz-adv-x="350" /><glyph d="M128 0 478 525H392L42 0ZM85 -62C119 -62 147 -34 147 0C147 34 119 62 85 62C51 62 23 34 23 0C23 -34 51 -62 85 -62Z" glyph-name="line.000.075" horiz-adv-x="350" /><glyph d="M128 0 478 532H392L42 0ZM85 -62C119 -62 147 -34 147 0C147 34 119 62 85 62C51 62 23 34 23 0C23 -34 51 -62 85 -62Z" glyph-name="line.000.076" horiz-adv-x="350" /><glyph d="M128 0 478 539H392L42 0ZM85 -62C119 -62 147 -34 147 0C147 34 119 62 85 62C51 62 23 34 23 0C23 -34 51 -62 85 -62Z" glyph-name="line.000.077" horiz-adv-x="350" /><glyph d="M127 0 477 546H393L43 0ZM85 -62C119 -62 147 -34 147 0C147 34 119 62 85 62C51 62 23 34 23 0C23 -34 51 -62 85 -62Z" glyph-name="line.000.078" horiz-adv-x="350" /><glyph d="M127 0 477 553H393L43 0ZM85 -62C119 -62 147 -34 147 0C147 34 119 62 85 62C51 62 23 34 23 0C23 -34 51 -62 85 -62Z" glyph-name="line.000.079" horiz-adv-x="350" /><glyph d="M127 0 477 560H393L43 0ZM85 -62C119 -62 147 -34 147 0C147 34 119 62 85 62C51 62 23 34 23 0C23 -34 51 -62 85 -62Z" glyph-name="line.000.080" horiz-adv-x="350" /><glyph d="M127 0 477 567H393L43 0ZM85 -62C119 -62 147 -34 147 0C147 34 119 62 85 62C51 62 23 34 23 0C23 -34 51 -62 85 -62Z" glyph-name="line.000.081" horiz-adv-x="350" /><glyph d="M127 0 477 574H393L43 0ZM85 -62C119 -62 147 -34 147 0C147 34 119 62 85 62C51 62 23 34 23 0C23 -34 51 -62 85 -62Z" glyph-name="line.000.082" horiz-adv-x="350" /><glyph d="M127 0 477 581H393L43 0ZM85 -62C119 -62 147 -34 147 0C147 34 119 62 85 62C51 62 23 34 23 0C23 -34 51 -62 85 -62Z" glyph-name="line.000.083" horiz-adv-x="350" /><glyph d="M127 0 477 588H393L43 0ZM85 -62C119 -62 147 -34 147 0C147 34 119 62 85 62C51 62 23 34 23 0C23 -34 51 -62 85 -62Z" glyph-name="line.000.084" horiz-adv-x="350" /><glyph d="M127 0 477 595H393L43 0ZM85 -62C119 -62 147 -34 147 0C147 34 119 62 85 62C51 62 23 34 23 0C23 -34 51 -62 85 -62Z" glyph-name="line.000.085" horiz-adv-x="350" /><glyph d="M127 0 477 602H393L43 0ZM85 -62C119 -62 147 -34 147 0C147 34 119 62 85 62C51 62 23 34 23 0C23 -34 51 -62 85 -62Z" glyph-name="line.000.086" horiz-adv-x="350" /><glyph d="M126 0 476 609H394L44 0ZM85 -62C119 -62 147 -34 147 0C147 34 119 62 85 62C51 62 23 34 23 0C23 -34 51 -62 85 -62Z" glyph-name="line.000.087" horiz-adv-x="350" /><glyph d="M126 0 476 616H394L44 0ZM85 -62C119 -62 147 -34 147 0C147 34 119 62 85 62C51 62 23 34 23 0C23 -34 51 -62 85 -62Z" glyph-name="line.000.088" horiz-adv-x="350" /><glyph d="M126 0 476 623H394L44 0ZM85 -62C119 -62 147 -34 147 0C147 34 119 62 85 62C51 62 23 34 23 0C23 -34 51 -62 85 -62Z" glyph-name="line.000.089" horiz-adv-x="350" /><glyph d="M126 0 476 630H394L44 0ZM85 -62C119 -62 147 -34 147 0C147 34 119 62 85 62C51 62 23 34 23 0C23 -34 51 -62 85 -62Z" glyph-name="line.000.090" horiz-adv-x="350" /><glyph d="M126 0 476 637H394L44 0ZM85 -62C119 -62 147 -34 147 0C147 34 119 62 85 62C51 62 23 34 23 0C23 -34 51 -62 85 -62Z" glyph-name="line.000.091" horiz-adv-x="350" /><glyph d="M126 0 476 644H394L44 0ZM85 -62C119 -62 147 -34 147 0C147 34 119 62 85 62C51 62 23 34 23 0C23 -34 51 -62 85 -62Z" glyph-name="line.000.092" horiz-adv-x="350" /><glyph d="M126 0 476 651H394L44 0ZM85 -62C119 -62 147 -34 147 0C147 34 119 62 85 62C51 62 23 34 23 0C23 -34 51 -62 85 -62Z" glyph-name="line.000.093" horiz-adv-x="350" /><glyph d="M126 0 476 658H394L44 0ZM85 -62C119 -62 147 -34 147 0C147 34 119 62 85 62C51 62 23 34 23 0C23 -34 51 -62 85 -62Z" glyph-name="line.000.094" horiz-adv-x="350" /><glyph d="M126 0 476 665H394L44 0ZM85 -62C119 -62 147 -34 147 0C147 34 119 62 85 62C51 62 23 34 23 0C23 -34 51 -62 85 -62Z" glyph-name="line.000.095" horiz-adv-x="350" /><glyph d="M126 0 476 672H394L44 0ZM85 -62C119 -62 147 -34 147 0C147 34 119 62 85 62C51 62 23 34 23 0C23 -34 51 -62 85 -62Z" glyph-name="line.000.096" horiz-adv-x="350" /><glyph d="M126 0 476 679H394L44 0ZM85 -62C119 -62 147 -34 147 0C147 34 119 62 85 62C51 62 23 34 23 0C23 -34 51 -62 85 -62Z" glyph-name="line.000.097" horiz-adv-x="350" /><glyph d="M126 0 476 686H394L44 0ZM85 -62C119 -62 147 -34 147 0C147 34 119 62 85 62C51 62 23 34 23 0C23 -34 51 -62 85 -62Z" glyph-name="line.000.098" horiz-adv-x="350" /><glyph d="M126 0 476 693H394L44 0ZM85 -62C119 -62 147 -34 147 0C147 34 119 62 85 62C51 62 23 34 23 0C23 -34 51 -62 85 -62Z" glyph-name="line.000.099" horiz-adv-x="350" /><glyph d="M126 0 476 700H394L44 0ZM85 -62C119 -62 147 -34 147 0C147 34 119 62 85 62C51 62 23 34 23 0C23 -34 51 -62 85 -62Z" glyph-name="line.000.100" horiz-adv-x="350" /><glyph d="M85 44 435 37V-37L85 -30ZM85 69C119 69 147 41 147 7C147 -27 119 -55 85 -55C51 -55 23 -27 23 7C23 41 51 69 85 69Z" glyph-name="line.001.000" horiz-adv-x="350" /><glyph d="M85 -30H435V44H85ZM85 -55C119 -55 147 -27 147 7C147 41 119 69 85 69C51 69 23 41 23 7C23 -27 51 -55 85 -55Z" glyph-name="line.001.001" horiz-adv-x="350" /><glyph d="M85 -30 435 -23V51L85 44ZM85 -55C119 -55 147 -27 147 7C147 41 119 69 85 69C51 69 23 41 23 7C23 -27 51 -55 85 -55Z" glyph-name="line.001.002" horiz-adv-x="350" /><glyph d="M85 -30 435 -16V58L85 44ZM85 -55C119 -55 147 -27 147 7C147 41 119 69 85 69C51 69 23 41 23 7C23 -27 51 -55 85 -55Z" glyph-name="line.001.003" horiz-adv-x="350" /><glyph d="M85 -30 435 -9V65L85 44ZM85 -55C119 -55 147 -27 147 7C147 41 119 69 85 69C51 69 23 41 23 7C23 -27 51 -55 85 -55Z" glyph-name="line.001.004" horiz-adv-x="350" /><glyph d="M85 -30 435 -2V72L85 44ZM85 -55C119 -55 147 -27 147 7C147 41 119 69 85 69C51 69 23 41 23 7C23 -27 51 -55 85 -55Z" glyph-name="line.001.005" horiz-adv-x="350" /><glyph d="M85 -31 435 5V80L85 45ZM85 -55C119 -55 147 -27 147 7C147 41 119 69 85 69C51 69 23 41 23 7C23 -27 51 -55 85 -55Z" glyph-name="line.001.006" horiz-adv-x="350" /><glyph d="M85 -31 435 11V87L85 45ZM85 -55C119 -55 147 -27 147 7C147 41 119 69 85 69C51 69 23 41 23 7C23 -27 51 -55 85 -55Z" glyph-name="line.001.007" horiz-adv-x="350" /><glyph d="M85 -31 435 18V94L85 45ZM85 -55C119 -55 147 -27 147 7C147 41 119 69 85 69C51 69 23 41 23 7C23 -27 51 -55 85 -55Z" glyph-name="line.001.008" horiz-adv-x="350" /><glyph d="M85 -31 435 25V101L85 45ZM85 -55C119 -55 147 -27 147 7C147 41 119 69 85 69C51 69 23 41 23 7C23 -27 51 -55 85 -55Z" glyph-name="line.001.009" horiz-adv-x="350" /><glyph d="M85 -31 435 32V108L85 45ZM85 -55C119 -55 147 -27 147 7C147 41 119 69 85 69C51 69 23 41 23 7C23 -27 51 -55 85 -55Z" glyph-name="line.001.010" horiz-adv-x="350" /><glyph d="M85 -32 435 38V116L85 46ZM85 -55C119 -55 147 -27 147 7C147 41 119 69 85 69C51 69 23 41 23 7C23 -27 51 -55 85 -55Z" glyph-name="line.001.011" horiz-adv-x="350" /><glyph d="M85 -32 435 45V123L85 46ZM85 -55C119 -55 147 -27 147 7C147 41 119 69 85 69C51 69 23 41 23 7C23 -27 51 -55 85 -55Z" glyph-name="line.001.012" horiz-adv-x="350" /><glyph d="M85 -32 435 52V130L85 46ZM85 -55C119 -55 147 -27 147 7C147 41 119 69 85 69C51 69 23 41 23 7C23 -27 51 -55 85 -55Z" glyph-name="line.001.013" horiz-adv-x="350" /><glyph d="M85 -32 435 59V137L85 46ZM85 -55C119 -55 147 -27 147 7C147 41 119 69 85 69C51 69 23 41 23 7C23 -27 51 -55 85 -55Z" glyph-name="line.001.014" horiz-adv-x="350" /><glyph d="M85 -32 435 66V144L85 46ZM85 -55C119 -55 147 -27 147 7C147 41 119 69 85 69C51 69 23 41 23 7C23 -27 51 -55 85 -55Z" glyph-name="line.001.015" horiz-adv-x="350" /><glyph d="M85 -33 435 72V152L85 47ZM85 -55C119 -55 147 -27 147 7C147 41 119 69 85 69C51 69 23 41 23 7C23 -27 51 -55 85 -55Z" glyph-name="line.001.016" horiz-adv-x="350" /><glyph d="M85 -33 435 79V159L85 47ZM85 -55C119 -55 147 -27 147 7C147 41 119 69 85 69C51 69 23 41 23 7C23 -27 51 -55 85 -55Z" glyph-name="line.001.017" horiz-adv-x="350" /><glyph d="M85 -33 435 86V166L85 47ZM85 -55C119 -55 147 -27 147 7C147 41 119 69 85 69C51 69 23 41 23 7C23 -27 51 -55 85 -55Z" glyph-name="line.001.018" horiz-adv-x="350" /><glyph d="M85 -33 435 93V173L85 47ZM85 -55C119 -55 147 -27 147 7C147 41 119 69 85 69C51 69 23 41 23 7C23 -27 51 -55 85 -55Z" glyph-name="line.001.019" horiz-adv-x="350" /><glyph d="M85 -33 435 100V180L85 47ZM85 -55C119 -55 147 -27 147 7C147 41 119 69 85 69C51 69 23 41 23 7C23 -27 51 -55 85 -55Z" glyph-name="line.001.020" horiz-adv-x="350" /><glyph d="M85 -34 435 106V188L85 48ZM85 -55C119 -55 147 -27 147 7C147 41 119 69 85 69C51 69 23 41 23 7C23 -27 51 -55 85 -55Z" glyph-name="line.001.021" horiz-adv-x="350" /><glyph d="M85 -34 435 113V195L85 48ZM85 -55C119 -55 147 -27 147 7C147 41 119 69 85 69C51 69 23 41 23 7C23 -27 51 -55 85 -55Z" glyph-name="line.001.022" horiz-adv-x="350" /><glyph d="M85 -34 435 120V202L85 48ZM85 -55C119 -55 147 -27 147 7C147 41 119 69 85 69C51 69 23 41 23 7C23 -27 51 -55 85 -55Z" glyph-name="line.001.023" horiz-adv-x="350" /><glyph d="M85 -34 435 127V209L85 48ZM85 -55C119 -55 147 -27 147 7C147 41 119 69 85 69C51 69 23 41 23 7C23 -27 51 -55 85 -55Z" glyph-name="line.001.024" horiz-adv-x="350" /><glyph d="M85 -34 435 134V216L85 48ZM85 -55C119 -55 147 -27 147 7C147 41 119 69 85 69C51 69 23 41 23 7C23 -27 51 -55 85 -55Z" glyph-name="line.001.025" horiz-adv-x="350" /><glyph d="M85 -35 435 140V224L85 49ZM85 -55C119 -55 147 -27 147 7C147 41 119 69 85 69C51 69 23 41 23 7C23 -27 51 -55 85 -55Z" glyph-name="line.001.026" horiz-adv-x="350" /><glyph d="M85 -35 435 147V231L85 49ZM85 -55C119 -55 147 -27 147 7C147 41 119 69 85 69C51 69 23 41 23 7C23 -27 51 -55 85 -55Z" glyph-name="line.001.027" horiz-adv-x="350" /><glyph d="M85 -35 435 154V238L85 49ZM85 -55C119 -55 147 -27 147 7C147 41 119 69 85 69C51 69 23 41 23 7C23 -27 51 -55 85 -55Z" glyph-name="line.001.028" horiz-adv-x="350" /><glyph d="M85 -35 435 161V245L85 49ZM85 -55C119 -55 147 -27 147 7C147 41 119 69 85 69C51 69 23 41 23 7C23 -27 51 -55 85 -55Z" glyph-name="line.001.029" horiz-adv-x="350" /><glyph d="M85 -35 435 168V252L85 49ZM85 -55C119 -55 147 -27 147 7C147 41 119 69 85 69C51 69 23 41 23 7C23 -27 51 -55 85 -55Z" glyph-name="line.001.030" horiz-adv-x="350" /><glyph d="M85 -36 435 174V260L85 50ZM85 -55C119 -55 147 -27 147 7C147 41 119 69 85 69C51 69 23 41 23 7C23 -27 51 -55 85 -55Z" glyph-name="line.001.031" horiz-adv-x="350" /><glyph d="M85 -36 435 181V267L85 50ZM85 -55C119 -55 147 -27 147 7C147 41 119 69 85 69C51 69 23 41 23 7C23 -27 51 -55 85 -55Z" glyph-name="line.001.032" horiz-adv-x="350" /><glyph d="M85 -36 435 188V274L85 50ZM85 -55C119 -55 147 -27 147 7C147 41 119 69 85 69C51 69 23 41 23 7C23 -27 51 -55 85 -55Z" glyph-name="line.001.033" horiz-adv-x="350" /><glyph d="M85 -36 435 195V281L85 50ZM85 -55C119 -55 147 -27 147 7C147 41 119 69 85 69C51 69 23 41 23 7C23 -27 51 -55 85 -55Z" glyph-name="line.001.034" horiz-adv-x="350" /><glyph d="M85 -36 435 202V288L85 50ZM85 -55C119 -55 147 -27 147 7C147 41 119 69 85 69C51 69 23 41 23 7C23 -27 51 -55 85 -55Z" glyph-name="line.001.035" horiz-adv-x="350" /><glyph d="M85 -37 435 208V296L85 51ZM85 -55C119 -55 147 -27 147 7C147 41 119 69 85 69C51 69 23 41 23 7C23 -27 51 -55 85 -55Z" glyph-name="line.001.036" horiz-adv-x="350" /><glyph d="M85 -37 435 215V303L85 51ZM85 -55C119 -55 147 -27 147 7C147 41 119 69 85 69C51 69 23 41 23 7C23 -27 51 -55 85 -55Z" glyph-name="line.001.037" horiz-adv-x="350" /><glyph d="M85 -37 435 222V310L85 51ZM85 -55C119 -55 147 -27 147 7C147 41 119 69 85 69C51 69 23 41 23 7C23 -27 51 -55 85 -55Z" glyph-name="line.001.038" horiz-adv-x="350" /><glyph d="M85 -37 435 229V317L85 51ZM85 -55C119 -55 147 -27 147 7C147 41 119 69 85 69C51 69 23 41 23 7C23 -27 51 -55 85 -55Z" glyph-name="line.001.039" horiz-adv-x="350" /><glyph d="M85 -38 435 235V325L85 52ZM85 -55C119 -55 147 -27 147 7C147 41 119 69 85 69C51 69 23 41 23 7C23 -27 51 -55 85 -55Z" glyph-name="line.001.040" horiz-adv-x="350" /><glyph d="M85 -39 435 241V333L85 53ZM85 -55C119 -55 147 -27 147 7C147 41 119 69 85 69C51 69 23 41 23 7C23 -27 51 -55 85 -55Z" glyph-name="line.001.041" horiz-adv-x="350" /><glyph d="M85 -39 435 248V340L85 53ZM85 -55C119 -55 147 -27 147 7C147 41 119 69 85 69C51 69 23 41 23 7C23 -27 51 -55 85 -55Z" glyph-name="line.001.042" horiz-adv-x="350" /><glyph d="M85 -39 435 255V347L85 53ZM85 -55C119 -55 147 -27 147 7C147 41 119 69 85 69C51 69 23 41 23 7C23 -27 51 -55 85 -55Z" glyph-name="line.001.043" horiz-adv-x="350" /><glyph d="M85 -40 435 261V355L85 54ZM85 -55C119 -55 147 -27 147 7C147 41 119 69 85 69C51 69 23 41 23 7C23 -27 51 -55 85 -55Z" glyph-name="line.001.044" horiz-adv-x="350" /><glyph d="M85 -40 435 268V362L85 54ZM85 -55C119 -55 147 -27 147 7C147 41 119 69 85 69C51 69 23 41 23 7C23 -27 51 -55 85 -55Z" glyph-name="line.001.045" horiz-adv-x="350" /><glyph d="M85 -40 435 275V369L85 54ZM85 -55C119 -55 147 -27 147 7C147 41 119 69 85 69C51 69 23 41 23 7C23 -27 51 -55 85 -55Z" glyph-name="line.001.046" horiz-adv-x="350" /><glyph d="M85 -41 435 281V377L85 55ZM85 -55C119 -55 147 -27 147 7C147 41 119 69 85 69C51 69 23 41 23 7C23 -27 51 -55 85 -55Z" glyph-name="line.001.047" horiz-adv-x="350" /><glyph d="M85 -41 435 288V384L85 55ZM85 -55C119 -55 147 -27 147 7C147 41 119 69 85 69C51 69 23 41 23 7C23 -27 51 -55 85 -55Z" glyph-name="line.001.048" horiz-adv-x="350" /><glyph d="M85 -42 435 294V392L85 56ZM85 -55C119 -55 147 -27 147 7C147 41 119 69 85 69C51 69 23 41 23 7C23 -27 51 -55 85 -55Z" glyph-name="line.001.049" horiz-adv-x="350" /><glyph d="M85 -42 435 301V399L85 56ZM85 -55C119 -55 147 -27 147 7C147 41 119 69 85 69C51 69 23 41 23 7C23 -27 51 -55 85 -55Z" glyph-name="line.001.050" horiz-adv-x="350" /><glyph d="M85 -43 435 307V407L85 57ZM85 -55C119 -55 147 -27 147 7C147 41 119 69 85 69C51 69 23 41 23 7C23 -27 51 -55 85 -55Z" glyph-name="line.001.051" horiz-adv-x="350" /><glyph d="M85 -43 435 314V414L85 57ZM85 -55C119 -55 147 -27 147 7C147 41 119 69 85 69C51 69 23 41 23 7C23 -27 51 -55 85 -55Z" glyph-name="line.001.052" horiz-adv-x="350" /><glyph d="M85 -44 435 320V422L85 58ZM85 -55C119 -55 147 -27 147 7C147 41 119 69 85 69C51 69 23 41 23 7C23 -27 51 -55 85 -55Z" glyph-name="line.001.053" horiz-adv-x="350" /><glyph d="M85 -45 435 326V430L85 59ZM85 -55C119 -55 147 -27 147 7C147 41 119 69 85 69C51 69 23 41 23 7C23 -27 51 -55 85 -55Z" glyph-name="line.001.054" horiz-adv-x="350" /><glyph d="M85 -47 435 331V439L85 61ZM85 -55C119 -55 147 -27 147 7C147 41 119 69 85 69C51 69 23 41 23 7C23 -27 51 -55 85 -55Z" glyph-name="line.001.055" horiz-adv-x="350" /><glyph d="M85 -47 435 338V446L85 61ZM85 -55C119 -55 147 -27 147 7C147 41 119 69 85 69C51 69 23 41 23 7C23 -27 51 -55 85 -55Z" glyph-name="line.001.056" horiz-adv-x="350" /><glyph d="M85 -48 435 344V454L85 62ZM85 -55C119 -55 147 -27 147 7C147 41 119 69 85 69C51 69 23 41 23 7C23 -27 51 -55 85 -55Z" glyph-name="line.001.057" horiz-adv-x="350" /><glyph d="M85 -48 435 351V461L85 62ZM85 -55C119 -55 147 -27 147 7C147 41 119 69 85 69C51 69 23 41 23 7C23 -27 51 -55 85 -55Z" glyph-name="line.001.058" horiz-adv-x="350" /><glyph d="M85 -49 435 357V469L85 63ZM85 -55C119 -55 147 -27 147 7C147 41 119 69 85 69C51 69 23 41 23 7C23 -27 51 -55 85 -55Z" glyph-name="line.001.059" horiz-adv-x="350" /><glyph d="M85 -49 435 364V476L85 63ZM85 -55C119 -55 147 -27 147 7C147 41 119 69 85 69C51 69 23 41 23 7C23 -27 51 -55 85 -55Z" glyph-name="line.001.060" horiz-adv-x="350" /><glyph d="M85 -50 435 370V484L85 64ZM85 -55C119 -55 147 -27 147 7C147 41 119 69 85 69C51 69 23 41 23 7C23 -27 51 -55 85 -55Z" glyph-name="line.001.061" horiz-adv-x="350" /><glyph d="M85 -50 435 377V491L85 64ZM85 -55C119 -55 147 -27 147 7C147 41 119 69 85 69C51 69 23 41 23 7C23 -27 51 -55 85 -55Z" glyph-name="line.001.062" horiz-adv-x="350" /><glyph d="M85 -51 435 383V499L85 65ZM85 -55C119 -55 147 -27 147 7C147 41 119 69 85 69C51 69 23 41 23 7C23 -27 51 -55 85 -55Z" glyph-name="line.001.063" horiz-adv-x="350" /><glyph d="M85 -51 435 390V506L85 65ZM85 -55C119 -55 147 -27 147 7C147 41 119 69 85 69C51 69 23 41 23 7C23 -27 51 -55 85 -55Z" glyph-name="line.001.064" horiz-adv-x="350" /><glyph d="M85 -52 435 396V514L85 66ZM85 -55C119 -55 147 -27 147 7C147 41 119 69 85 69C51 69 23 41 23 7C23 -27 51 -55 85 -55Z" glyph-name="line.001.065" horiz-adv-x="350" /><glyph d="M85 -52 435 403V521L85 66ZM85 -55C119 -55 147 -27 147 7C147 41 119 69 85 69C51 69 23 41 23 7C23 -27 51 -55 85 -55Z" glyph-name="line.001.066" horiz-adv-x="350" /><glyph d="M85 -53 435 409V529L85 67ZM85 -55C119 -55 147 -27 147 7C147 41 119 69 85 69C51 69 23 41 23 7C23 -27 51 -55 85 -55Z" glyph-name="line.001.067" horiz-adv-x="350" /><glyph d="M85 -53 435 416V536L85 67ZM85 -55C119 -55 147 -27 147 7C147 41 119 69 85 69C51 69 23 41 23 7C23 -27 51 -55 85 -55Z" glyph-name="line.001.068" horiz-adv-x="350" /><glyph d="M85 -54 435 422V544L85 68ZM85 -55C119 -55 147 -27 147 7C147 41 119 69 85 69C51 69 23 41 23 7C23 -27 51 -55 85 -55Z" glyph-name="line.001.069" horiz-adv-x="350" /><glyph d="M85 -54 435 430V552L85 68ZM85 -55C119 -55 147 -27 147 7C147 41 119 69 85 69C51 69 23 41 23 7C23 -27 51 -55 85 -55Z" glyph-name="line.001.070" horiz-adv-x="350" /><glyph d="M85 -55 435 435V559L85 69ZM85 -55C119 -55 147 -27 147 7C147 41 119 69 85 69C51 69 23 41 23 7C23 -27 51 -55 85 -55Z" glyph-name="line.001.071" horiz-adv-x="350" /><glyph d="M85 -55 435 442V566L85 69ZM85 -55C119 -55 147 -27 147 7C147 41 119 69 85 69C51 69 23 41 23 7C23 -27 51 -55 85 -55Z" glyph-name="line.001.072" horiz-adv-x="350" /><glyph d="M129 7 479 511H391L41 7ZM85 -55C119 -55 147 -27 147 7C147 41 119 69 85 69C51 69 23 41 23 7C23 -27 51 -55 85 -55Z" glyph-name="line.001.073" horiz-adv-x="350" /><glyph d="M128 7 478 518H392L42 7ZM85 -55C119 -55 147 -27 147 7C147 41 119 69 85 69C51 69 23 41 23 7C23 -27 51 -55 85 -55Z" glyph-name="line.001.074" horiz-adv-x="350" /><glyph d="M128 7 478 525H392L42 7ZM85 -55C119 -55 147 -27 147 7C147 41 119 69 85 69C51 69 23 41 23 7C23 -27 51 -55 85 -55Z" glyph-name="line.001.075" horiz-adv-x="350" /><glyph d="M128 7 478 532H392L42 7ZM85 -55C119 -55 147 -27 147 7C147 41 119 69 85 69C51 69 23 41 23 7C23 -27 51 -55 85 -55Z" glyph-name="line.001.076" horiz-adv-x="350" /><glyph d="M128 7 478 539H392L42 7ZM85 -55C119 -55 147 -27 147 7C147 41 119 69 85 69C51 69 23 41 23 7C23 -27 51 -55 85 -55Z" glyph-name="line.001.077" horiz-adv-x="350" /><glyph d="M128 7 478 546H392L42 7ZM85 -55C119 -55 147 -27 147 7C147 41 119 69 85 69C51 69 23 41 23 7C23 -27 51 -55 85 -55Z" glyph-name="line.001.078" horiz-adv-x="350" /><glyph d="M127 7 477 553H393L43 7ZM85 -55C119 -55 147 -27 147 7C147 41 119 69 85 69C51 69 23 41 23 7C23 -27 51 -55 85 -55Z" glyph-name="line.001.079" horiz-adv-x="350" /><glyph d="M127 7 477 560H393L43 7ZM85 -55C119 -55 147 -27 147 7C147 41 119 69 85 69C51 69 23 41 23 7C23 -27 51 -55 85 -55Z" glyph-name="line.001.080" horiz-adv-x="350" /><glyph d="M127 7 477 567H393L43 7ZM85 -55C119 -55 147 -27 147 7C147 41 119 69 85 69C51 69 23 41 23 7C23 -27 51 -55 85 -55Z" glyph-name="line.001.081" horiz-adv-x="350" /><glyph d="M127 7 477 574H393L43 7ZM85 -55C119 -55 147 -27 147 7C147 41 119 69 85 69C51 69 23 41 23 7C23 -27 51 -55 85 -55Z" glyph-name="line.001.082" horiz-adv-x="350" /><glyph d="M127 7 477 581H393L43 7ZM85 -55C119 -55 147 -27 147 7C147 41 119 69 85 69C51 69 23 41 23 7C23 -27 51 -55 85 -55Z" glyph-name="line.001.083" horiz-adv-x="350" /><glyph d="M127 7 477 588H393L43 7ZM85 -55C119 -55 147 -27 147 7C147 41 119 69 85 69C51 69 23 41 23 7C23 -27 51 -55 85 -55Z" glyph-name="line.001.084" horiz-adv-x="350" /><glyph d="M127 7 477 595H393L43 7ZM85 -55C119 -55 147 -27 147 7C147 41 119 69 85 69C51 69 23 41 23 7C23 -27 51 -55 85 -55Z" glyph-name="line.001.085" horiz-adv-x="350" /><glyph d="M127 7 477 602H393L43 7ZM85 -55C119 -55 147 -27 147 7C147 41 119 69 85 69C51 69 23 41 23 7C23 -27 51 -55 85 -55Z" glyph-name="line.001.086" horiz-adv-x="350" /><glyph d="M127 7 477 609H393L43 7ZM85 -55C119 -55 147 -27 147 7C147 41 119 69 85 69C51 69 23 41 23 7C23 -27 51 -55 85 -55Z" glyph-name="line.001.087" horiz-adv-x="350" /><glyph d="M126 7 476 616H394L44 7ZM85 -55C119 -55 147 -27 147 7C147 41 119 69 85 69C51 69 23 41 23 7C23 -27 51 -55 85 -55Z" glyph-name="line.001.088" horiz-adv-x="350" /><glyph d="M126 7 476 623H394L44 7ZM85 -55C119 -55 147 -27 147 7C147 41 119 69 85 69C51 69 23 41 23 7C23 -27 51 -55 85 -55Z" glyph-name="line.001.089" horiz-adv-x="350" /><glyph d="M126 7 476 630H394L44 7ZM85 -55C119 -55 147 -27 147 7C147 41 119 69 85 69C51 69 23 41 23 7C23 -27 51 -55 85 -55Z" glyph-name="line.001.090" horiz-adv-x="350" /><glyph d="M126 7 476 637H394L44 7ZM85 -55C119 -55 147 -27 147 7C147 41 119 69 85 69C51 69 23 41 23 7C23 -27 51 -55 85 -55Z" glyph-name="line.001.091" horiz-adv-x="350" /><glyph d="M126 7 476 644H394L44 7ZM85 -55C119 -55 147 -27 147 7C147 41 119 69 85 69C51 69 23 41 23 7C23 -27 51 -55 85 -55Z" glyph-name="line.001.092" horiz-adv-x="350" /><glyph d="M126 7 476 651H394L44 7ZM85 -55C119 -55 147 -27 147 7C147 41 119 69 85 69C51 69 23 41 23 7C23 -27 51 -55 85 -55Z" glyph-name="line.001.093" horiz-adv-x="350" /><glyph d="M126 7 476 658H394L44 7ZM85 -55C119 -55 147 -27 147 7C147 41 119 69 85 69C51 69 23 41 23 7C23 -27 51 -55 85 -55Z" glyph-name="line.001.094" horiz-adv-x="350" /><glyph d="M126 7 476 665H394L44 7ZM85 -55C119 -55 147 -27 147 7C147 41 119 69 85 69C51 69 23 41 23 7C23 -27 51 -55 85 -55Z" glyph-name="line.001.095" horiz-adv-x="350" /><glyph d="M126 7 476 672H394L44 7ZM85 -55C119 -55 147 -27 147 7C147 41 119 69 85 69C51 69 23 41 23 7C23 -27 51 -55 85 -55Z" glyph-name="line.001.096" horiz-adv-x="350" /><glyph d="M126 7 476 679H394L44 7ZM85 -55C119 -55 147 -27 147 7C147 41 119 69 85 69C51 69 23 41 23 7C23 -27 51 -55 85 -55Z" glyph-name="line.001.097" horiz-adv-x="350" /><glyph d="M126 7 476 686H394L44 7ZM85 -55C119 -55 147 -27 147 7C147 41 119 69 85 69C51 69 23 41 23 7C23 -27 51 -55 85 -55Z" glyph-name="line.001.098" horiz-adv-x="350" /><glyph d="M126 7 476 693H394L44 7ZM85 -55C119 -55 147 -27 147 7C147 41 119 69 85 69C51 69 23 41 23 7C23 -27 51 -55 85 -55Z" glyph-name="line.001.099" horiz-adv-x="350" /><glyph d="M126 7 476 700H394L44 7ZM85 -55C119 -55 147 -27 147 7C147 41 119 69 85 69C51 69 23 41 23 7C23 -27 51 -55 85 -55Z" glyph-name="line.001.100" horiz-adv-x="350" /><glyph d="M85 51 435 37V-37L85 -23ZM85 76C119 76 147 48 147 14C147 -20 119 -48 85 -48C51 -48 23 -20 23 14C23 48 51 76 85 76Z" glyph-name="line.002.000" horiz-adv-x="350" /><glyph d="M85 51 435 44V-30L85 -23ZM85 76C119 76 147 48 147 14C147 -20 119 -48 85 -48C51 -48 23 -20 23 14C23 48 51 76 85 76Z" glyph-name="line.002.001" horiz-adv-x="350" /><glyph d="M85 -23H435V51H85ZM85 -48C119 -48 147 -20 147 14C147 48 119 76 85 76C51 76 23 48 23 14C23 -20 51 -48 85 -48Z" glyph-name="line.002.002" horiz-adv-x="350" /><glyph d="M85 -23 435 -16V58L85 51ZM85 -48C119 -48 147 -20 147 14C147 48 119 76 85 76C51 76 23 48 23 14C23 -20 51 -48 85 -48Z" glyph-name="line.002.003" horiz-adv-x="350" /><glyph d="M85 -23 435 -9V65L85 51ZM85 -48C119 -48 147 -20 147 14C147 48 119 76 85 76C51 76 23 48 23 14C23 -20 51 -48 85 -48Z" glyph-name="line.002.004" horiz-adv-x="350" /><glyph d="M85 -23 435 -2V72L85 51ZM85 -48C119 -48 147 -20 147 14C147 48 119 76 85 76C51 76 23 48 23 14C23 -20 51 -48 85 -48Z" glyph-name="line.002.005" horiz-adv-x="350" /><glyph d="M85 -23 435 5V79L85 51ZM85 -48C119 -48 147 -20 147 14C147 48 119 76 85 76C51 76 23 48 23 14C23 -20 51 -48 85 -48Z" glyph-name="line.002.006" horiz-adv-x="350" /><glyph d="M85 -24 435 12V87L85 52ZM85 -48C119 -48 147 -20 147 14C147 48 119 76 85 76C51 76 23 48 23 14C23 -20 51 -48 85 -48Z" glyph-name="line.002.007" horiz-adv-x="350" /><glyph d="M85 -24 435 18V94L85 52ZM85 -48C119 -48 147 -20 147 14C147 48 119 76 85 76C51 76 23 48 23 14C23 -20 51 -48 85 -48Z" glyph-name="line.002.008" horiz-adv-x="350" /><glyph d="M85 -24 435 25V101L85 52ZM85 -48C119 -48 147 -20 147 14C147 48 119 76 85 76C51 76 23 48 23 14C23 -20 51 -48 85 -48Z" glyph-name="line.002.009" horiz-adv-x="350" /><glyph d="M85 -24 435 32V108L85 52ZM85 -48C119 -48 147 -20 147 14C147 48 119 76 85 76C51 76 23 48 23 14C23 -20 51 -48 85 -48Z" glyph-name="line.002.010" horiz-adv-x="350" /><glyph d="M85 -24 435 39V115L85 52ZM85 -48C119 -48 147 -20 147 14C147 48 119 76 85 76C51 76 23 48 23 14C23 -20 51 -48 85 -48Z" glyph-name="line.002.011" horiz-adv-x="350" /><glyph d="M85 -25 435 45V123L85 53ZM85 -48C119 -48 147 -20 147 14C147 48 119 76 85 76C51 76 23 48 23 14C23 -20 51 -48 85 -48Z" glyph-name="line.002.012" horiz-adv-x="350" /><glyph d="M85 -25 435 52V130L85 53ZM85 -48C119 -48 147 -20 147 14C147 48 119 76 85 76C51 76 23 48 23 14C23 -20 51 -48 85 -48Z" glyph-name="line.002.013" horiz-adv-x="350" /><glyph d="M85 -25 435 59V137L85 53ZM85 -48C119 -48 147 -20 147 14C147 48 119 76 85 76C51 76 23 48 23 14C23 -20 51 -48 85 -48Z" glyph-name="line.002.014" horiz-adv-x="350" /><glyph d="M85 -25 435 66V144L85 53ZM85 -48C119 -48 147 -20 147 14C147 48 119 76 85 76C51 76 23 48 23 14C23 -20 51 -48 85 -48Z" glyph-name="line.002.015" horiz-adv-x="350" /><glyph d="M85 -25 435 73V151L85 53ZM85 -48C119 -48 147 -20 147 14C147 48 119 76 85 76C51 76 23 48 23 14C23 -20 51 -48 85 -48Z" glyph-name="line.002.016" horiz-adv-x="350" /><glyph d="M85 -26 435 79V159L85 54ZM85 -48C119 -48 147 -20 147 14C147 48 119 76 85 76C51 76 23 48 23 14C23 -20 51 -48 85 -48Z" glyph-name="line.002.017" horiz-adv-x="350" /><glyph d="M85 -26 435 86V166L85 54ZM85 -48C119 -48 147 -20 147 14C147 48 119 76 85 76C51 76 23 48 23 14C23 -20 51 -48 85 -48Z" glyph-name="line.002.018" horiz-adv-x="350" /><glyph d="M85 -26 435 93V173L85 54ZM85 -48C119 -48 147 -20 147 14C147 48 119 76 85 76C51 76 23 48 23 14C23 -20 51 -48 85 -48Z" glyph-name="line.002.019" horiz-adv-x="350" /><glyph d="M85 -26 435 100V180L85 54ZM85 -48C119 -48 147 -20 147 14C147 48 119 76 85 76C51 76 23 48 23 14C23 -20 51 -48 85 -48Z" glyph-name="line.002.020" horiz-adv-x="350" /><glyph d="M85 -26 435 107V187L85 54ZM85 -48C119 -48 147 -20 147 14C147 48 119 76 85 76C51 76 23 48 23 14C23 -20 51 -48 85 -48Z" glyph-name="line.002.021" horiz-adv-x="350" /><glyph d="M85 -27 435 113V195L85 55ZM85 -48C119 -48 147 -20 147 14C147 48 119 76 85 76C51 76 23 48 23 14C23 -20 51 -48 85 -48Z" glyph-name="line.002.022" horiz-adv-x="350" /><glyph d="M85 -27 435 120V202L85 55ZM85 -48C119 -48 147 -20 147 14C147 48 119 76 85 76C51 76 23 48 23 14C23 -20 51 -48 85 -48Z" glyph-name="line.002.023" horiz-adv-x="350" /><glyph d="M85 -27 435 127V209L85 55ZM85 -48C119 -48 147 -20 147 14C147 48 119 76 85 76C51 76 23 48 23 14C23 -20 51 -48 85 -48Z" glyph-name="line.002.024" horiz-adv-x="350" /><glyph d="M85 -27 435 134V216L85 55ZM85 -48C119 -48 147 -20 147 14C147 48 119 76 85 76C51 76 23 48 23 14C23 -20 51 -48 85 -48Z" glyph-name="line.002.025" horiz-adv-x="350" /><glyph d="M85 -27 435 141V223L85 55ZM85 -48C119 -48 147 -20 147 14C147 48 119 76 85 76C51 76 23 48 23 14C23 -20 51 -48 85 -48Z" glyph-name="line.002.026" horiz-adv-x="350" /><glyph d="M85 -28 435 147V231L85 56ZM85 -48C119 -48 147 -20 147 14C147 48 119 76 85 76C51 76 23 48 23 14C23 -20 51 -48 85 -48Z" glyph-name="line.002.027" horiz-adv-x="350" /><glyph d="M85 -28 435 154V238L85 56ZM85 -48C119 -48 147 -20 147 14C147 48 119 76 85 76C51 76 23 48 23 14C23 -20 51 -48 85 -48Z" glyph-name="line.002.028" horiz-adv-x="350" /><glyph d="M85 -28 435 161V245L85 56ZM85 -48C119 -48 147 -20 147 14C147 48 119 76 85 76C51 76 23 48 23 14C23 -20 51 -48 85 -48Z" glyph-name="line.002.029" horiz-adv-x="350" /><glyph d="M85 -28 435 168V252L85 56ZM85 -48C119 -48 147 -20 147 14C147 48 119 76 85 76C51 76 23 48 23 14C23 -20 51 -48 85 -48Z" glyph-name="line.002.030" horiz-adv-x="350" /><glyph d="M85 -28 435 175V259L85 56ZM85 -48C119 -48 147 -20 147 14C147 48 119 76 85 76C51 76 23 48 23 14C23 -20 51 -48 85 -48Z" glyph-name="line.002.031" horiz-adv-x="350" /><glyph d="M85 -29 435 181V267L85 57ZM85 -48C119 -48 147 -20 147 14C147 48 119 76 85 76C51 76 23 48 23 14C23 -20 51 -48 85 -48Z" glyph-name="line.002.032" horiz-adv-x="350" /><glyph d="M85 -29 435 188V274L85 57ZM85 -48C119 -48 147 -20 147 14C147 48 119 76 85 76C51 76 23 48 23 14C23 -20 51 -48 85 -48Z" glyph-name="line.002.033" horiz-adv-x="350" /><glyph d="M85 -29 435 195V281L85 57ZM85 -48C119 -48 147 -20 147 14C147 48 119 76 85 76C51 76 23 48 23 14C23 -20 51 -48 85 -48Z" glyph-name="line.002.034" horiz-adv-x="350" /><glyph d="M85 -29 435 202V288L85 57ZM85 -48C119 -48 147 -20 147 14C147 48 119 76 85 76C51 76 23 48 23 14C23 -20 51 -48 85 -48Z" glyph-name="line.002.035" horiz-adv-x="350" /><glyph d="M85 -29 435 209V295L85 57ZM85 -48C119 -48 147 -20 147 14C147 48 119 76 85 76C51 76 23 48 23 14C23 -20 51 -48 85 -48Z" glyph-name="line.002.036" horiz-adv-x="350" /><glyph d="M85 -30 435 215V303L85 58ZM85 -48C119 -48 147 -20 147 14C147 48 119 76 85 76C51 76 23 48 23 14C23 -20 51 -48 85 -48Z" glyph-name="line.002.037" horiz-adv-x="350" /><glyph d="M85 -30 435 222V310L85 58ZM85 -48C119 -48 147 -20 147 14C147 48 119 76 85 76C51 76 23 48 23 14C23 -20 51 -48 85 -48Z" glyph-name="line.002.038" horiz-adv-x="350" /><glyph d="M85 -30 435 229V317L85 58ZM85 -48C119 -48 147 -20 147 14C147 48 119 76 85 76C51 76 23 48 23 14C23 -20 51 -48 85 -48Z" glyph-name="line.002.039" horiz-adv-x="350" /><glyph d="M85 -30 435 236V324L85 58ZM85 -48C119 -48 147 -20 147 14C147 48 119 76 85 76C51 76 23 48 23 14C23 -20 51 -48 85 -48Z" glyph-name="line.002.040" horiz-adv-x="350" /><glyph d="M85 -31 435 242V332L85 59ZM85 -48C119 -48 147 -20 147 14C147 48 119 76 85 76C51 76 23 48 23 14C23 -20 51 -48 85 -48Z" glyph-name="line.002.041" horiz-adv-x="350" /><glyph d="M85 -32 435 248V340L85 60ZM85 -48C119 -48 147 -20 147 14C147 48 119 76 85 76C51 76 23 48 23 14C23 -20 51 -48 85 -48Z" glyph-name="line.002.042" horiz-adv-x="350" /><glyph d="M85 -32 435 255V347L85 60ZM85 -48C119 -48 147 -20 147 14C147 48 119 76 85 76C51 76 23 48 23 14C23 -20 51 -48 85 -48Z" glyph-name="line.002.043" horiz-adv-x="350" /><glyph d="M85 -32 435 262V354L85 60ZM85 -48C119 -48 147 -20 147 14C147 48 119 76 85 76C51 76 23 48 23 14C23 -20 51 -48 85 -48Z" glyph-name="line.002.044" horiz-adv-x="350" /><glyph d="M85 -33 435 268V362L85 61ZM85 -48C119 -48 147 -20 147 14C147 48 119 76 85 76C51 76 23 48 23 14C23 -20 51 -48 85 -48Z" glyph-name="line.002.045" horiz-adv-x="350" /><glyph d="M85 -33 435 275V369L85 61ZM85 -48C119 -48 147 -20 147 14C147 48 119 76 85 76C51 76 23 48 23 14C23 -20 51 -48 85 -48Z" glyph-name="line.002.046" horiz-adv-x="350" /><glyph d="M85 -33 435 282V376L85 61ZM85 -48C119 -48 147 -20 147 14C147 48 119 76 85 76C51 76 23 48 23 14C23 -20 51 -48 85 -48Z" glyph-name="line.002.047" horiz-adv-x="350" /><glyph d="M85 -34 435 288V384L85 62ZM85 -48C119 -48 147 -20 147 14C147 48 119 76 85 76C51 76 23 48 23 14C23 -20 51 -48 85 -48Z" glyph-name="line.002.048" horiz-adv-x="350" /><glyph d="M85 -34 435 295V391L85 62ZM85 -48C119 -48 147 -20 147 14C147 48 119 76 85 76C51 76 23 48 23 14C23 -20 51 -48 85 -48Z" glyph-name="line.002.049" horiz-adv-x="350" /><glyph d="M85 -35 435 301V399L85 63ZM85 -48C119 -48 147 -20 147 14C147 48 119 76 85 76C51 76 23 48 23 14C23 -20 51 -48 85 -48Z" glyph-name="line.002.050" horiz-adv-x="350" /><glyph d="M85 -35 435 308V406L85 63ZM85 -48C119 -48 147 -20 147 14C147 48 119 76 85 76C51 76 23 48 23 14C23 -20 51 -48 85 -48Z" glyph-name="line.002.051" horiz-adv-x="350" /><glyph d="M85 -36 435 314V414L85 64ZM85 -48C119 -48 147 -20 147 14C147 48 119 76 85 76C51 76 23 48 23 14C23 -20 51 -48 85 -48Z" glyph-name="line.002.052" horiz-adv-x="350" /><glyph d="M85 -36 435 321V421L85 64ZM85 -48C119 -48 147 -20 147 14C147 48 119 76 85 76C51 76 23 48 23 14C23 -20 51 -48 85 -48Z" glyph-name="line.002.053" horiz-adv-x="350" /><glyph d="M85 -37 435 327V429L85 65ZM85 -48C119 -48 147 -20 147 14C147 48 119 76 85 76C51 76 23 48 23 14C23 -20 51 -48 85 -48Z" glyph-name="line.002.054" horiz-adv-x="350" /><glyph d="M85 -38 435 333V437L85 66ZM85 -48C119 -48 147 -20 147 14C147 48 119 76 85 76C51 76 23 48 23 14C23 -20 51 -48 85 -48Z" glyph-name="line.002.055" horiz-adv-x="350" /><glyph d="M85 -40 435 338V446L85 68ZM85 -48C119 -48 147 -20 147 14C147 48 119 76 85 76C51 76 23 48 23 14C23 -20 51 -48 85 -48Z" glyph-name="line.002.056" horiz-adv-x="350" /><glyph d="M85 -40 435 345V453L85 68ZM85 -48C119 -48 147 -20 147 14C147 48 119 76 85 76C51 76 23 48 23 14C23 -20 51 -48 85 -48Z" glyph-name="line.002.057" horiz-adv-x="350" /><glyph d="M85 -41 435 351V461L85 69ZM85 -48C119 -48 147 -20 147 14C147 48 119 76 85 76C51 76 23 48 23 14C23 -20 51 -48 85 -48Z" glyph-name="line.002.058" horiz-adv-x="350" /><glyph d="M85 -41 435 358V468L85 69ZM85 -48C119 -48 147 -20 147 14C147 48 119 76 85 76C51 76 23 48 23 14C23 -20 51 -48 85 -48Z" glyph-name="line.002.059" horiz-adv-x="350" /><glyph d="M85 -42 435 364V476L85 70ZM85 -48C119 -48 147 -20 147 14C147 48 119 76 85 76C51 76 23 48 23 14C23 -20 51 -48 85 -48Z" glyph-name="line.002.060" horiz-adv-x="350" /><glyph d="M85 -42 435 371V483L85 70ZM85 -48C119 -48 147 -20 147 14C147 48 119 76 85 76C51 76 23 48 23 14C23 -20 51 -48 85 -48Z" glyph-name="line.002.061" horiz-adv-x="350" /><glyph d="M85 -43 435 377V491L85 71ZM85 -48C119 -48 147 -20 147 14C147 48 119 76 85 76C51 76 23 48 23 14C23 -20 51 -48 85 -48Z" glyph-name="line.002.062" horiz-adv-x="350" /><glyph d="M85 -43 435 384V498L85 71ZM85 -48C119 -48 147 -20 147 14C147 48 119 76 85 76C51 76 23 48 23 14C23 -20 51 -48 85 -48Z" glyph-name="line.002.063" horiz-adv-x="350" /><glyph d="M85 -44 435 390V506L85 72ZM85 -48C119 -48 147 -20 147 14C147 48 119 76 85 76C51 76 23 48 23 14C23 -20 51 -48 85 -48Z" glyph-name="line.002.064" horiz-adv-x="350" /><glyph d="M85 -44 435 397V513L85 72ZM85 -48C119 -48 147 -20 147 14C147 48 119 76 85 76C51 76 23 48 23 14C23 -20 51 -48 85 -48Z" glyph-name="line.002.065" horiz-adv-x="350" /><glyph d="M85 -45 435 403V521L85 73ZM85 -48C119 -48 147 -20 147 14C147 48 119 76 85 76C51 76 23 48 23 14C23 -20 51 -48 85 -48Z" glyph-name="line.002.066" horiz-adv-x="350" /><glyph d="M85 -45 435 410V528L85 73ZM85 -48C119 -48 147 -20 147 14C147 48 119 76 85 76C51 76 23 48 23 14C23 -20 51 -48 85 -48Z" glyph-name="line.002.067" horiz-adv-x="350" /><glyph d="M85 -46 435 416V536L85 74ZM85 -48C119 -48 147 -20 147 14C147 48 119 76 85 76C51 76 23 48 23 14C23 -20 51 -48 85 -48Z" glyph-name="line.002.068" horiz-adv-x="350" /><glyph d="M85 -46 435 423V543L85 74ZM85 -48C119 -48 147 -20 147 14C147 48 119 76 85 76C51 76 23 48 23 14C23 -20 51 -48 85 -48Z" glyph-name="line.002.069" horiz-adv-x="350" /><glyph d="M85 -47 435 429V551L85 75ZM85 -48C119 -48 147 -20 147 14C147 48 119 76 85 76C51 76 23 48 23 14C23 -20 51 -48 85 -48Z" glyph-name="line.002.070" horiz-adv-x="350" /><glyph d="M85 -47 435 437V559L85 75ZM85 -48C119 -48 147 -20 147 14C147 48 119 76 85 76C51 76 23 48 23 14C23 -20 51 -48 85 -48Z" glyph-name="line.002.071" horiz-adv-x="350" /><glyph d="M85 -48 435 442V566L85 76ZM85 -48C119 -48 147 -20 147 14C147 48 119 76 85 76C51 76 23 48 23 14C23 -20 51 -48 85 -48Z" glyph-name="line.002.072" horiz-adv-x="350" /><glyph d="M85 -48 435 449V573L85 76ZM85 -48C119 -48 147 -20 147 14C147 48 119 76 85 76C51 76 23 48 23 14C23 -20 51 -48 85 -48Z" glyph-name="line.002.073" horiz-adv-x="350" /><glyph d="M129 14 479 518H391L41 14ZM85 -48C119 -48 147 -20 147 14C147 48 119 76 85 76C51 76 23 48 23 14C23 -20 51 -48 85 -48Z" glyph-name="line.002.074" horiz-adv-x="350" /><glyph d="M128 14 478 525H392L42 14ZM85 -48C119 -48 147 -20 147 14C147 48 119 76 85 76C51 76 23 48 23 14C23 -20 51 -48 85 -48Z" glyph-name="line.002.075" horiz-adv-x="350" /><glyph d="M128 14 478 532H392L42 14ZM85 -48C119 -48 147 -20 147 14C147 48 119 76 85 76C51 76 23 48 23 14C23 -20 51 -48 85 -48Z" glyph-name="line.002.076" horiz-adv-x="350" /><glyph d="M128 14 478 539H392L42 14ZM85 -48C119 -48 147 -20 147 14C147 48 119 76 85 76C51 76 23 48 23 14C23 -20 51 -48 85 -48Z" glyph-name="line.002.077" horiz-adv-x="350" /><glyph d="M128 14 478 546H392L42 14ZM85 -48C119 -48 147 -20 147 14C147 48 119 76 85 76C51 76 23 48 23 14C23 -20 51 -48 85 -48Z" glyph-name="line.002.078" horiz-adv-x="350" /><glyph d="M128 14 478 553H392L42 14ZM85 -48C119 -48 147 -20 147 14C147 48 119 76 85 76C51 76 23 48 23 14C23 -20 51 -48 85 -48Z" glyph-name="line.002.079" horiz-adv-x="350" /><glyph d="M127 14 477 560H393L43 14ZM85 -48C119 -48 147 -20 147 14C147 48 119 76 85 76C51 76 23 48 23 14C23 -20 51 -48 85 -48Z" glyph-name="line.002.080" horiz-adv-x="350" /><glyph d="M127 14 477 567H393L43 14ZM85 -48C119 -48 147 -20 147 14C147 48 119 76 85 76C51 76 23 48 23 14C23 -20 51 -48 85 -48Z" glyph-name="line.002.081" horiz-adv-x="350" /><glyph d="M127 14 477 574H393L43 14ZM85 -48C119 -48 147 -20 147 14C147 48 119 76 85 76C51 76 23 48 23 14C23 -20 51 -48 85 -48Z" glyph-name="line.002.082" horiz-adv-x="350" /><glyph d="M127 14 477 581H393L43 14ZM85 -48C119 -48 147 -20 147 14C147 48 119 76 85 76C51 76 23 48 23 14C23 -20 51 -48 85 -48Z" glyph-name="line.002.083" horiz-adv-x="350" /><glyph d="M127 14 477 588H393L43 14ZM85 -48C119 -48 147 -20 147 14C147 48 119 76 85 76C51 76 23 48 23 14C23 -20 51 -48 85 -48Z" glyph-name="line.002.084" horiz-adv-x="350" /><glyph d="M127 14 477 595H393L43 14ZM85 -48C119 -48 147 -20 147 14C147 48 119 76 85 76C51 76 23 48 23 14C23 -20 51 -48 85 -48Z" glyph-name="line.002.085" horiz-adv-x="350" /><glyph d="M127 14 477 602H393L43 14ZM85 -48C119 -48 147 -20 147 14C147 48 119 76 85 76C51 76 23 48 23 14C23 -20 51 -48 85 -48Z" glyph-name="line.002.086" horiz-adv-x="350" /><glyph d="M127 14 477 609H393L43 14ZM85 -48C119 -48 147 -20 147 14C147 48 119 76 85 76C51 76 23 48 23 14C23 -20 51 -48 85 -48Z" glyph-name="line.002.087" horiz-adv-x="350" /><glyph d="M127 14 477 616H393L43 14ZM85 -48C119 -48 147 -20 147 14C147 48 119 76 85 76C51 76 23 48 23 14C23 -20 51 -48 85 -48Z" glyph-name="line.002.088" horiz-adv-x="350" /><glyph d="M126 14 476 623H394L44 14ZM85 -48C119 -48 147 -20 147 14C147 48 119 76 85 76C51 76 23 48 23 14C23 -20 51 -48 85 -48Z" glyph-name="line.002.089" horiz-adv-x="350" /><glyph d="M126 14 476 630H394L44 14ZM85 -48C119 -48 147 -20 147 14C147 48 119 76 85 76C51 76 23 48 23 14C23 -20 51 -48 85 -48Z" glyph-name="line.002.090" horiz-adv-x="350" /><glyph d="M126 14 476 637H394L44 14ZM85 -48C119 -48 147 -20 147 14C147 48 119 76 85 76C51 76 23 48 23 14C23 -20 51 -48 85 -48Z" glyph-name="line.002.091" horiz-adv-x="350" /><glyph d="M126 14 476 644H394L44 14ZM85 -48C119 -48 147 -20 147 14C147 48 119 76 85 76C51 76 23 48 23 14C23 -20 51 -48 85 -48Z" glyph-name="line.002.092" horiz-adv-x="350" /><glyph d="M126 14 476 651H394L44 14ZM85 -48C119 -48 147 -20 147 14C147 48 119 76 85 76C51 76 23 48 23 14C23 -20 51 -48 85 -48Z" glyph-name="line.002.093" horiz-adv-x="350" /><glyph d="M126 14 476 658H394L44 14ZM85 -48C119 -48 147 -20 147 14C147 48 119 76 85 76C51 76 23 48 23 14C23 -20 51 -48 85 -48Z" glyph-name="line.002.094" horiz-adv-x="350" /><glyph d="M126 14 476 665H394L44 14ZM85 -48C119 -48 147 -20 147 14C147 48 119 76 85 76C51 76 23 48 23 14C23 -20 51 -48 85 -48Z" glyph-name="line.002.095" horiz-adv-x="350" /><glyph d="M126 14 476 672H394L44 14ZM85 -48C119 -48 147 -20 147 14C147 48 119 76 85 76C51 76 23 48 23 14C23 -20 51 -48 85 -48Z" glyph-name="line.002.096" horiz-adv-x="350" /><glyph d="M126 14 476 679H394L44 14ZM85 -48C119 -48 147 -20 147 14C147 48 119 76 85 76C51 76 23 48 23 14C23 -20 51 -48 85 -48Z" glyph-name="line.002.097" horiz-adv-x="350" /><glyph d="M126 14 476 686H394L44 14ZM85 -48C119 -48 147 -20 147 14C147 48 119 76 85 76C51 76 23 48 23 14C23 -20 51 -48 85 -48Z" glyph-name="line.002.098" horiz-adv-x="350" /><glyph d="M126 14 476 693H394L44 14ZM85 -48C119 -48 147 -20 147 14C147 48 119 76 85 76C51 76 23 48 23 14C23 -20 51 -48 85 -48Z" glyph-name="line.002.099" horiz-adv-x="350" /><glyph d="M126 14 476 700H394L44 14ZM85 -48C119 -48 147 -20 147 14C147 48 119 76 85 76C51 76 23 48 23 14C23 -20 51 -48 85 -48Z" glyph-name="line.002.100" horiz-adv-x="350" /><glyph d="M85 58 435 37V-37L85 -16ZM85 83C119 83 147 55 147 21C147 -13 119 -41 85 -41C51 -41 23 -13 23 21C23 55 51 83 85 83Z" glyph-name="line.003.000" horiz-adv-x="350" /><glyph d="M85 58 435 44V-30L85 -16ZM85 83C119 83 147 55 147 21C147 -13 119 -41 85 -41C51 -41 23 -13 23 21C23 55 51 83 85 83Z" glyph-name="line.003.001" horiz-adv-x="350" /><glyph d="M85 58 435 51V-23L85 -16ZM85 83C119 83 147 55 147 21C147 -13 119 -41 85 -41C51 -41 23 -13 23 21C23 55 51 83 85 83Z" glyph-name="line.003.002" horiz-adv-x="350" /><glyph d="M85 -16H435V58H85ZM85 -41C119 -41 147 -13 147 21C147 55 119 83 85 83C51 83 23 55 23 21C23 -13 51 -41 85 -41Z" glyph-name="line.003.003" horiz-adv-x="350" /><glyph d="M85 -16 435 -9V65L85 58ZM85 -41C119 -41 147 -13 147 21C147 55 119 83 85 83C51 83 23 55 23 21C23 -13 51 -41 85 -41Z" glyph-name="line.003.004" horiz-adv-x="350" /><glyph d="M85 -16 435 -2V72L85 58ZM85 -41C119 -41 147 -13 147 21C147 55 119 83 85 83C51 83 23 55 23 21C23 -13 51 -41 85 -41Z" glyph-name="line.003.005" horiz-adv-x="350" /><glyph d="M85 -16 435 5V79L85 58ZM85 -41C119 -41 147 -13 147 21C147 55 119 83 85 83C51 83 23 55 23 21C23 -13 51 -41 85 -41Z" glyph-name="line.003.006" horiz-adv-x="350" /><glyph d="M85 -16 435 12V86L85 58ZM85 -41C119 -41 147 -13 147 21C147 55 119 83 85 83C51 83 23 55 23 21C23 -13 51 -41 85 -41Z" glyph-name="line.003.007" horiz-adv-x="350" /><glyph d="M85 -17 435 19V94L85 59ZM85 -41C119 -41 147 -13 147 21C147 55 119 83 85 83C51 83 23 55 23 21C23 -13 51 -41 85 -41Z" glyph-name="line.003.008" horiz-adv-x="350" /><glyph d="M85 -17 435 25V101L85 59ZM85 -41C119 -41 147 -13 147 21C147 55 119 83 85 83C51 83 23 55 23 21C23 -13 51 -41 85 -41Z" glyph-name="line.003.009" horiz-adv-x="350" /><glyph d="M85 -17 435 32V108L85 59ZM85 -41C119 -41 147 -13 147 21C147 55 119 83 85 83C51 83 23 55 23 21C23 -13 51 -41 85 -41Z" glyph-name="line.003.010" horiz-adv-x="350" /><glyph d="M85 -17 435 39V115L85 59ZM85 -41C119 -41 147 -13 147 21C147 55 119 83 85 83C51 83 23 55 23 21C23 -13 51 -41 85 -41Z" glyph-name="line.003.011" horiz-adv-x="350" /><glyph d="M85 -17 435 46V122L85 59ZM85 -41C119 -41 147 -13 147 21C147 55 119 83 85 83C51 83 23 55 23 21C23 -13 51 -41 85 -41Z" glyph-name="line.003.012" horiz-adv-x="350" /><glyph d="M85 -18 435 52V130L85 60ZM85 -41C119 -41 147 -13 147 21C147 55 119 83 85 83C51 83 23 55 23 21C23 -13 51 -41 85 -41Z" glyph-name="line.003.013" horiz-adv-x="350" /><glyph d="M85 -18 435 59V137L85 60ZM85 -41C119 -41 147 -13 147 21C147 55 119 83 85 83C51 83 23 55 23 21C23 -13 51 -41 85 -41Z" glyph-name="line.003.014" horiz-adv-x="350" /><glyph d="M85 -18 435 66V144L85 60ZM85 -41C119 -41 147 -13 147 21C147 55 119 83 85 83C51 83 23 55 23 21C23 -13 51 -41 85 -41Z" glyph-name="line.003.015" horiz-adv-x="350" /><glyph d="M85 -18 435 73V151L85 60ZM85 -41C119 -41 147 -13 147 21C147 55 119 83 85 83C51 83 23 55 23 21C23 -13 51 -41 85 -41Z" glyph-name="line.003.016" horiz-adv-x="350" /><glyph d="M85 -18 435 80V158L85 60ZM85 -41C119 -41 147 -13 147 21C147 55 119 83 85 83C51 83 23 55 23 21C23 -13 51 -41 85 -41Z" glyph-name="line.003.017" horiz-adv-x="350" /><glyph d="M85 -19 435 86V166L85 61ZM85 -41C119 -41 147 -13 147 21C147 55 119 83 85 83C51 83 23 55 23 21C23 -13 51 -41 85 -41Z" glyph-name="line.003.018" horiz-adv-x="350" /><glyph d="M85 -19 435 93V173L85 61ZM85 -41C119 -41 147 -13 147 21C147 55 119 83 85 83C51 83 23 55 23 21C23 -13 51 -41 85 -41Z" glyph-name="line.003.019" horiz-adv-x="350" /><glyph d="M85 -19 435 100V180L85 61ZM85 -41C119 -41 147 -13 147 21C147 55 119 83 85 83C51 83 23 55 23 21C23 -13 51 -41 85 -41Z" glyph-name="line.003.020" horiz-adv-x="350" /><glyph d="M85 -19 435 107V187L85 61ZM85 -41C119 -41 147 -13 147 21C147 55 119 83 85 83C51 83 23 55 23 21C23 -13 51 -41 85 -41Z" glyph-name="line.003.021" horiz-adv-x="350" /><glyph d="M85 -19 435 114V194L85 61ZM85 -41C119 -41 147 -13 147 21C147 55 119 83 85 83C51 83 23 55 23 21C23 -13 51 -41 85 -41Z" glyph-name="line.003.022" horiz-adv-x="350" /><glyph d="M85 -20 435 120V202L85 62ZM85 -41C119 -41 147 -13 147 21C147 55 119 83 85 83C51 83 23 55 23 21C23 -13 51 -41 85 -41Z" glyph-name="line.003.023" horiz-adv-x="350" /><glyph d="M85 -20 435 127V209L85 62ZM85 -41C119 -41 147 -13 147 21C147 55 119 83 85 83C51 83 23 55 23 21C23 -13 51 -41 85 -41Z" glyph-name="line.003.024" horiz-adv-x="350" /><glyph d="M85 -20 435 134V216L85 62ZM85 -41C119 -41 147 -13 147 21C147 55 119 83 85 83C51 83 23 55 23 21C23 -13 51 -41 85 -41Z" glyph-name="line.003.025" horiz-adv-x="350" /><glyph d="M85 -20 435 141V223L85 62ZM85 -41C119 -41 147 -13 147 21C147 55 119 83 85 83C51 83 23 55 23 21C23 -13 51 -41 85 -41Z" glyph-name="line.003.026" horiz-adv-x="350" /><glyph d="M85 -20 435 148V230L85 62ZM85 -41C119 -41 147 -13 147 21C147 55 119 83 85 83C51 83 23 55 23 21C23 -13 51 -41 85 -41Z" glyph-name="line.003.027" horiz-adv-x="350" /><glyph d="M85 -21 435 154V238L85 63ZM85 -41C119 -41 147 -13 147 21C147 55 119 83 85 83C51 83 23 55 23 21C23 -13 51 -41 85 -41Z" glyph-name="line.003.028" horiz-adv-x="350" /><glyph d="M85 -21 435 161V245L85 63ZM85 -41C119 -41 147 -13 147 21C147 55 119 83 85 83C51 83 23 55 23 21C23 -13 51 -41 85 -41Z" glyph-name="line.003.029" horiz-adv-x="350" /><glyph d="M85 -21 435 168V252L85 63ZM85 -41C119 -41 147 -13 147 21C147 55 119 83 85 83C51 83 23 55 23 21C23 -13 51 -41 85 -41Z" glyph-name="line.003.030" horiz-adv-x="350" /><glyph d="M85 -21 435 175V259L85 63ZM85 -41C119 -41 147 -13 147 21C147 55 119 83 85 83C51 83 23 55 23 21C23 -13 51 -41 85 -41Z" glyph-name="line.003.031" horiz-adv-x="350" /><glyph d="M85 -21 435 182V266L85 63ZM85 -41C119 -41 147 -13 147 21C147 55 119 83 85 83C51 83 23 55 23 21C23 -13 51 -41 85 -41Z" glyph-name="line.003.032" horiz-adv-x="350" /><glyph d="M85 -22 435 188V274L85 64ZM85 -41C119 -41 147 -13 147 21C147 55 119 83 85 83C51 83 23 55 23 21C23 -13 51 -41 85 -41Z" glyph-name="line.003.033" horiz-adv-x="350" /><glyph d="M85 -22 435 195V281L85 64ZM85 -41C119 -41 147 -13 147 21C147 55 119 83 85 83C51 83 23 55 23 21C23 -13 51 -41 85 -41Z" glyph-name="line.003.034" horiz-adv-x="350" /><glyph d="M85 -22 435 202V288L85 64ZM85 -41C119 -41 147 -13 147 21C147 55 119 83 85 83C51 83 23 55 23 21C23 -13 51 -41 85 -41Z" glyph-name="line.003.035" horiz-adv-x="350" /><glyph d="M85 -22 435 209V295L85 64ZM85 -41C119 -41 147 -13 147 21C147 55 119 83 85 83C51 83 23 55 23 21C23 -13 51 -41 85 -41Z" glyph-name="line.003.036" horiz-adv-x="350" /><glyph d="M85 -22 435 216V302L85 64ZM85 -41C119 -41 147 -13 147 21C147 55 119 83 85 83C51 83 23 55 23 21C23 -13 51 -41 85 -41Z" glyph-name="line.003.037" horiz-adv-x="350" /><glyph d="M85 -23 435 222V310L85 65ZM85 -41C119 -41 147 -13 147 21C147 55 119 83 85 83C51 83 23 55 23 21C23 -13 51 -41 85 -41Z" glyph-name="line.003.038" horiz-adv-x="350" /><glyph d="M85 -23 435 229V317L85 65ZM85 -41C119 -41 147 -13 147 21C147 55 119 83 85 83C51 83 23 55 23 21C23 -13 51 -41 85 -41Z" glyph-name="line.003.039" horiz-adv-x="350" /><glyph d="M85 -23 435 236V324L85 65ZM85 -41C119 -41 147 -13 147 21C147 55 119 83 85 83C51 83 23 55 23 21C23 -13 51 -41 85 -41Z" glyph-name="line.003.040" horiz-adv-x="350" /><glyph d="M85 -23 435 243V331L85 65ZM85 -41C119 -41 147 -13 147 21C147 55 119 83 85 83C51 83 23 55 23 21C23 -13 51 -41 85 -41Z" glyph-name="line.003.041" horiz-adv-x="350" /><glyph d="M85 -24 435 249V339L85 66ZM85 -41C119 -41 147 -13 147 21C147 55 119 83 85 83C51 83 23 55 23 21C23 -13 51 -41 85 -41Z" glyph-name="line.003.042" horiz-adv-x="350" /><glyph d="M85 -25 435 255V347L85 67ZM85 -41C119 -41 147 -13 147 21C147 55 119 83 85 83C51 83 23 55 23 21C23 -13 51 -41 85 -41Z" glyph-name="line.003.043" horiz-adv-x="350" /><glyph d="M85 -25 435 262V354L85 67ZM85 -41C119 -41 147 -13 147 21C147 55 119 83 85 83C51 83 23 55 23 21C23 -13 51 -41 85 -41Z" glyph-name="line.003.044" horiz-adv-x="350" /><glyph d="M85 -25 435 269V361L85 67ZM85 -41C119 -41 147 -13 147 21C147 55 119 83 85 83C51 83 23 55 23 21C23 -13 51 -41 85 -41Z" glyph-name="line.003.045" horiz-adv-x="350" /><glyph d="M85 -26 435 275V369L85 68ZM85 -41C119 -41 147 -13 147 21C147 55 119 83 85 83C51 83 23 55 23 21C23 -13 51 -41 85 -41Z" glyph-name="line.003.046" horiz-adv-x="350" /><glyph d="M85 -26 435 282V376L85 68ZM85 -41C119 -41 147 -13 147 21C147 55 119 83 85 83C51 83 23 55 23 21C23 -13 51 -41 85 -41Z" glyph-name="line.003.047" horiz-adv-x="350" /><glyph d="M85 -26 435 289V383L85 68ZM85 -41C119 -41 147 -13 147 21C147 55 119 83 85 83C51 83 23 55 23 21C23 -13 51 -41 85 -41Z" glyph-name="line.003.048" horiz-adv-x="350" /><glyph d="M85 -27 435 295V391L85 69ZM85 -41C119 -41 147 -13 147 21C147 55 119 83 85 83C51 83 23 55 23 21C23 -13 51 -41 85 -41Z" glyph-name="line.003.049" horiz-adv-x="350" /><glyph d="M85 -27 435 302V398L85 69ZM85 -41C119 -41 147 -13 147 21C147 55 119 83 85 83C51 83 23 55 23 21C23 -13 51 -41 85 -41Z" glyph-name="line.003.050" horiz-adv-x="350" /><glyph d="M85 -28 435 308V406L85 70ZM85 -41C119 -41 147 -13 147 21C147 55 119 83 85 83C51 83 23 55 23 21C23 -13 51 -41 85 -41Z" glyph-name="line.003.051" horiz-adv-x="350" /><glyph d="M85 -28 435 315V413L85 70ZM85 -41C119 -41 147 -13 147 21C147 55 119 83 85 83C51 83 23 55 23 21C23 -13 51 -41 85 -41Z" glyph-name="line.003.052" horiz-adv-x="350" /><glyph d="M85 -29 435 321V421L85 71ZM85 -41C119 -41 147 -13 147 21C147 55 119 83 85 83C51 83 23 55 23 21C23 -13 51 -41 85 -41Z" glyph-name="line.003.053" horiz-adv-x="350" /><glyph d="M85 -29 435 328V428L85 71ZM85 -41C119 -41 147 -13 147 21C147 55 119 83 85 83C51 83 23 55 23 21C23 -13 51 -41 85 -41Z" glyph-name="line.003.054" horiz-adv-x="350" /><glyph d="M85 -30 435 334V436L85 72ZM85 -41C119 -41 147 -13 147 21C147 55 119 83 85 83C51 83 23 55 23 21C23 -13 51 -41 85 -41Z" glyph-name="line.003.055" horiz-adv-x="350" /><glyph d="M85 -31 435 340V444L85 73ZM85 -41C119 -41 147 -13 147 21C147 55 119 83 85 83C51 83 23 55 23 21C23 -13 51 -41 85 -41Z" glyph-name="line.003.056" horiz-adv-x="350" /><glyph d="M85 -33 435 345V453L85 75ZM85 -41C119 -41 147 -13 147 21C147 55 119 83 85 83C51 83 23 55 23 21C23 -13 51 -41 85 -41Z" glyph-name="line.003.057" horiz-adv-x="350" /><glyph d="M85 -33 435 352V460L85 75ZM85 -41C119 -41 147 -13 147 21C147 55 119 83 85 83C51 83 23 55 23 21C23 -13 51 -41 85 -41Z" glyph-name="line.003.058" horiz-adv-x="350" /><glyph d="M85 -34 435 358V468L85 76ZM85 -41C119 -41 147 -13 147 21C147 55 119 83 85 83C51 83 23 55 23 21C23 -13 51 -41 85 -41Z" glyph-name="line.003.059" horiz-adv-x="350" /><glyph d="M85 -34 435 365V475L85 76ZM85 -41C119 -41 147 -13 147 21C147 55 119 83 85 83C51 83 23 55 23 21C23 -13 51 -41 85 -41Z" glyph-name="line.003.060" horiz-adv-x="350" /><glyph d="M85 -35 435 371V483L85 77ZM85 -41C119 -41 147 -13 147 21C147 55 119 83 85 83C51 83 23 55 23 21C23 -13 51 -41 85 -41Z" glyph-name="line.003.061" horiz-adv-x="350" /><glyph d="M85 -35 435 378V490L85 77ZM85 -41C119 -41 147 -13 147 21C147 55 119 83 85 83C51 83 23 55 23 21C23 -13 51 -41 85 -41Z" glyph-name="line.003.062" horiz-adv-x="350" /><glyph d="M85 -36 435 384V498L85 78ZM85 -41C119 -41 147 -13 147 21C147 55 119 83 85 83C51 83 23 55 23 21C23 -13 51 -41 85 -41Z" glyph-name="line.003.063" horiz-adv-x="350" /><glyph d="M85 -36 435 391V505L85 78ZM85 -41C119 -41 147 -13 147 21C147 55 119 83 85 83C51 83 23 55 23 21C23 -13 51 -41 85 -41Z" glyph-name="line.003.064" horiz-adv-x="350" /><glyph d="M85 -37 435 397V513L85 79ZM85 -41C119 -41 147 -13 147 21C147 55 119 83 85 83C51 83 23 55 23 21C23 -13 51 -41 85 -41Z" glyph-name="line.003.065" horiz-adv-x="350" /><glyph d="M85 -37 435 404V520L85 79ZM85 -41C119 -41 147 -13 147 21C147 55 119 83 85 83C51 83 23 55 23 21C23 -13 51 -41 85 -41Z" glyph-name="line.003.066" horiz-adv-x="350" /><glyph d="M85 -38 435 410V528L85 80ZM85 -41C119 -41 147 -13 147 21C147 55 119 83 85 83C51 83 23 55 23 21C23 -13 51 -41 85 -41Z" glyph-name="line.003.067" horiz-adv-x="350" /><glyph d="M85 -38 435 417V535L85 80ZM85 -41C119 -41 147 -13 147 21C147 55 119 83 85 83C51 83 23 55 23 21C23 -13 51 -41 85 -41Z" glyph-name="line.003.068" horiz-adv-x="350" /><glyph d="M85 -39 435 423V543L85 81ZM85 -41C119 -41 147 -13 147 21C147 55 119 83 85 83C51 83 23 55 23 21C23 -13 51 -41 85 -41Z" glyph-name="line.003.069" horiz-adv-x="350" /><glyph d="M85 -39 435 430V550L85 81ZM85 -41C119 -41 147 -13 147 21C147 55 119 83 85 83C51 83 23 55 23 21C23 -13 51 -41 85 -41Z" glyph-name="line.003.070" horiz-adv-x="350" /><glyph d="M85 -40 435 436V558L85 82ZM85 -41C119 -41 147 -13 147 21C147 55 119 83 85 83C51 83 23 55 23 21C23 -13 51 -41 85 -41Z" glyph-name="line.003.071" horiz-adv-x="350" /><glyph d="M85 -40 435 444V566L85 82ZM85 -41C119 -41 147 -13 147 21C147 55 119 83 85 83C51 83 23 55 23 21C23 -13 51 -41 85 -41Z" glyph-name="line.003.072" horiz-adv-x="350" /><glyph d="M85 -41 435 449V573L85 83ZM85 -41C119 -41 147 -13 147 21C147 55 119 83 85 83C51 83 23 55 23 21C23 -13 51 -41 85 -41Z" glyph-name="line.003.073" horiz-adv-x="350" /><glyph d="M85 -41 435 456V580L85 83ZM85 -41C119 -41 147 -13 147 21C147 55 119 83 85 83C51 83 23 55 23 21C23 -13 51 -41 85 -41Z" glyph-name="line.003.074" horiz-adv-x="350" /><glyph d="M129 21 479 525H391L41 21ZM85 -41C119 -41 147 -13 147 21C147 55 119 83 85 83C51 83 23 55 23 21C23 -13 51 -41 85 -41Z" glyph-name="line.003.075" horiz-adv-x="350" /><glyph d="M128 21 478 532H392L42 21ZM85 -41C119 -41 147 -13 147 21C147 55 119 83 85 83C51 83 23 55 23 21C23 -13 51 -41 85 -41Z" glyph-name="line.003.076" horiz-adv-x="350" /><glyph d="M128 21 478 539H392L42 21ZM85 -41C119 -41 147 -13 147 21C147 55 119 83 85 83C51 83 23 55 23 21C23 -13 51 -41 85 -41Z" glyph-name="line.003.077" horiz-adv-x="350" /><glyph d="M128 21 478 546H392L42 21ZM85 -41C119 -41 147 -13 147 21C147 55 119 83 85 83C51 83 23 55 23 21C23 -13 51 -41 85 -41Z" glyph-name="line.003.078" horiz-adv-x="350" /><glyph d="M128 21 478 553H392L42 21ZM85 -41C119 -41 147 -13 147 21C147 55 119 83 85 83C51 83 23 55 23 21C23 -13 51 -41 85 -41Z" glyph-name="line.003.079" horiz-adv-x="350" /><glyph d="M128 21 478 560H392L42 21ZM85 -41C119 -41 147 -13 147 21C147 55 119 83 85 83C51 83 23 55 23 21C23 -13 51 -41 85 -41Z" glyph-name="line.003.080" horiz-adv-x="350" /><glyph d="M127 21 477 567H393L43 21ZM85 -41C119 -41 147 -13 147 21C147 55 119 83 85 83C51 83 23 55 23 21C23 -13 51 -41 85 -41Z" glyph-name="line.003.081" horiz-adv-x="350" /><glyph d="M127 21 477 574H393L43 21ZM85 -41C119 -41 147 -13 147 21C147 55 119 83 85 83C51 83 23 55 23 21C23 -13 51 -41 85 -41Z" glyph-name="line.003.082" horiz-adv-x="350" /><glyph d="M127 21 477 581H393L43 21ZM85 -41C119 -41 147 -13 147 21C147 55 119 83 85 83C51 83 23 55 23 21C23 -13 51 -41 85 -41Z" glyph-name="line.003.083" horiz-adv-x="350" /><glyph d="M127 21 477 588H393L43 21ZM85 -41C119 -41 147 -13 147 21C147 55 119 83 85 83C51 83 23 55 23 21C23 -13 51 -41 85 -41Z" glyph-name="line.003.084" horiz-adv-x="350" /><glyph d="M127 21 477 595H393L43 21ZM85 -41C119 -41 147 -13 147 21C147 55 119 83 85 83C51 83 23 55 23 21C23 -13 51 -41 85 -41Z" glyph-name="line.003.085" horiz-adv-x="350" /><glyph d="M127 21 477 602H393L43 21ZM85 -41C119 -41 147 -13 147 21C147 55 119 83 85 83C51 83 23 55 23 21C23 -13 51 -41 85 -41Z" glyph-name="line.003.086" horiz-adv-x="350" /><glyph d="M127 21 477 609H393L43 21ZM85 -41C119 -41 147 -13 147 21C147 55 119 83 85 83C51 83 23 55 23 21C23 -13 51 -41 85 -41Z" glyph-name="line.003.087" horiz-adv-x="350" /><glyph d="M127 21 477 616H393L43 21ZM85 -41C119 -41 147 -13 147 21C147 55 119 83 85 83C51 83 23 55 23 21C23 -13 51 -41 85 -41Z" glyph-name="line.003.088" horiz-adv-x="350" /><glyph d="M127 21 477 623H393L43 21ZM85 -41C119 -41 147 -13 147 21C147 55 119 83 85 83C51 83 23 55 23 21C23 -13 51 -41 85 -41Z" glyph-name="line.003.089" horiz-adv-x="350" /><glyph d="M126 21 476 630H394L44 21ZM85 -41C119 -41 147 -13 147 21C147 55 119 83 85 83C51 83 23 55 23 21C23 -13 51 -41 85 -41Z" glyph-name="line.003.090" horiz-adv-x="350" /><glyph d="M126 21 476 637H394L44 21ZM85 -41C119 -41 147 -13 147 21C147 55 119 83 85 83C51 83 23 55 23 21C23 -13 51 -41 85 -41Z" glyph-name="line.003.091" horiz-adv-x="350" /><glyph d="M126 21 476 644H394L44 21ZM85 -41C119 -41 147 -13 147 21C147 55 119 83 85 83C51 83 23 55 23 21C23 -13 51 -41 85 -41Z" glyph-name="line.003.092" horiz-adv-x="350" /><glyph d="M126 21 476 651H394L44 21ZM85 -41C119 -41 147 -13 147 21C147 55 119 83 85 83C51 83 23 55 23 21C23 -13 51 -41 85 -41Z" glyph-name="line.003.093" horiz-adv-x="350" /><glyph d="M126 21 476 658H394L44 21ZM85 -41C119 -41 147 -13 147 21C147 55 119 83 85 83C51 83 23 55 23 21C23 -13 51 -41 85 -41Z" glyph-name="line.003.094" horiz-adv-x="350" /><glyph d="M126 21 476 665H394L44 21ZM85 -41C119 -41 147 -13 147 21C147 55 119 83 85 83C51 83 23 55 23 21C23 -13 51 -41 85 -41Z" glyph-name="line.003.095" horiz-adv-x="350" /><glyph d="M126 21 476 672H394L44 21ZM85 -41C119 -41 147 -13 147 21C147 55 119 83 85 83C51 83 23 55 23 21C23 -13 51 -41 85 -41Z" glyph-name="line.003.096" horiz-adv-x="350" /><glyph d="M126 21 476 679H394L44 21ZM85 -41C119 -41 147 -13 147 21C147 55 119 83 85 83C51 83 23 55 23 21C23 -13 51 -41 85 -41Z" glyph-name="line.003.097" horiz-adv-x="350" /><glyph d="M126 21 476 686H394L44 21ZM85 -41C119 -41 147 -13 147 21C147 55 119 83 85 83C51 83 23 55 23 21C23 -13 51 -41 85 -41Z" glyph-name="line.003.098" horiz-adv-x="350" /><glyph d="M126 21 476 693H394L44 21ZM85 -41C119 -41 147 -13 147 21C147 55 119 83 85 83C51 83 23 55 23 21C23 -13 51 -41 85 -41Z" glyph-name="line.003.099" horiz-adv-x="350" /><glyph d="M126 21 476 700H394L44 21ZM85 -41C119 -41 147 -13 147 21C147 55 119 83 85 83C51 83 23 55 23 21C23 -13 51 -41 85 -41Z" glyph-name="line.003.100" horiz-adv-x="350" /><glyph d="M85 65 435 37V-37L85 -9ZM85 90C119 90 147 62 147 28C147 -6 119 -34 85 -34C51 -34 23 -6 23 28C23 62 51 90 85 90Z" glyph-name="line.004.000" horiz-adv-x="350" /><glyph d="M85 65 435 44V-30L85 -9ZM85 90C119 90 147 62 147 28C147 -6 119 -34 85 -34C51 -34 23 -6 23 28C23 62 51 90 85 90Z" glyph-name="line.004.001" horiz-adv-x="350" /><glyph d="M85 65 435 51V-23L85 -9ZM85 90C119 90 147 62 147 28C147 -6 119 -34 85 -34C51 -34 23 -6 23 28C23 62 51 90 85 90Z" glyph-name="line.004.002" horiz-adv-x="350" /><glyph d="M85 65 435 58V-16L85 -9ZM85 90C119 90 147 62 147 28C147 -6 119 -34 85 -34C51 -34 23 -6 23 28C23 62 51 90 85 90Z" glyph-name="line.004.003" horiz-adv-x="350" /><glyph d="M85 -9H435V65H85ZM85 -34C119 -34 147 -6 147 28C147 62 119 90 85 90C51 90 23 62 23 28C23 -6 51 -34 85 -34Z" glyph-name="line.004.004" horiz-adv-x="350" /><glyph d="M85 -9 435 -2V72L85 65ZM85 -34C119 -34 147 -6 147 28C147 62 119 90 85 90C51 90 23 62 23 28C23 -6 51 -34 85 -34Z" glyph-name="line.004.005" horiz-adv-x="350" /><glyph d="M85 -9 435 5V79L85 65ZM85 -34C119 -34 147 -6 147 28C147 62 119 90 85 90C51 90 23 62 23 28C23 -6 51 -34 85 -34Z" glyph-name="line.004.006" horiz-adv-x="350" /><glyph d="M85 -9 435 12V86L85 65ZM85 -34C119 -34 147 -6 147 28C147 62 119 90 85 90C51 90 23 62 23 28C23 -6 51 -34 85 -34Z" glyph-name="line.004.007" horiz-adv-x="350" /><glyph d="M85 -9 435 19V93L85 65ZM85 -34C119 -34 147 -6 147 28C147 62 119 90 85 90C51 90 23 62 23 28C23 -6 51 -34 85 -34Z" glyph-name="line.004.008" horiz-adv-x="350" /><glyph d="M85 -10 435 26V101L85 66ZM85 -34C119 -34 147 -6 147 28C147 62 119 90 85 90C51 90 23 62 23 28C23 -6 51 -34 85 -34Z" glyph-name="line.004.009" horiz-adv-x="350" /><glyph d="M85 -10 435 32V108L85 66ZM85 -34C119 -34 147 -6 147 28C147 62 119 90 85 90C51 90 23 62 23 28C23 -6 51 -34 85 -34Z" glyph-name="line.004.010" horiz-adv-x="350" /><glyph d="M85 -10 435 39V115L85 66ZM85 -34C119 -34 147 -6 147 28C147 62 119 90 85 90C51 90 23 62 23 28C23 -6 51 -34 85 -34Z" glyph-name="line.004.011" horiz-adv-x="350" /><glyph d="M85 -10 435 46V122L85 66ZM85 -34C119 -34 147 -6 147 28C147 62 119 90 85 90C51 90 23 62 23 28C23 -6 51 -34 85 -34Z" glyph-name="line.004.012" horiz-adv-x="350" /><glyph d="M85 -10 435 53V129L85 66ZM85 -34C119 -34 147 -6 147 28C147 62 119 90 85 90C51 90 23 62 23 28C23 -6 51 -34 85 -34Z" glyph-name="line.004.013" horiz-adv-x="350" /><glyph d="M85 -11 435 59V137L85 67ZM85 -34C119 -34 147 -6 147 28C147 62 119 90 85 90C51 90 23 62 23 28C23 -6 51 -34 85 -34Z" glyph-name="line.004.014" horiz-adv-x="350" /><glyph d="M85 -11 435 66V144L85 67ZM85 -34C119 -34 147 -6 147 28C147 62 119 90 85 90C51 90 23 62 23 28C23 -6 51 -34 85 -34Z" glyph-name="line.004.015" horiz-adv-x="350" /><glyph d="M85 -11 435 73V151L85 67ZM85 -34C119 -34 147 -6 147 28C147 62 119 90 85 90C51 90 23 62 23 28C23 -6 51 -34 85 -34Z" glyph-name="line.004.016" horiz-adv-x="350" /><glyph d="M85 -11 435 80V158L85 67ZM85 -34C119 -34 147 -6 147 28C147 62 119 90 85 90C51 90 23 62 23 28C23 -6 51 -34 85 -34Z" glyph-name="line.004.017" horiz-adv-x="350" /><glyph d="M85 -11 435 87V165L85 67ZM85 -34C119 -34 147 -6 147 28C147 62 119 90 85 90C51 90 23 62 23 28C23 -6 51 -34 85 -34Z" glyph-name="line.004.018" horiz-adv-x="350" /><glyph d="M85 -12 435 93V173L85 68ZM85 -34C119 -34 147 -6 147 28C147 62 119 90 85 90C51 90 23 62 23 28C23 -6 51 -34 85 -34Z" glyph-name="line.004.019" horiz-adv-x="350" /><glyph d="M85 -12 435 100V180L85 68ZM85 -34C119 -34 147 -6 147 28C147 62 119 90 85 90C51 90 23 62 23 28C23 -6 51 -34 85 -34Z" glyph-name="line.004.020" horiz-adv-x="350" /><glyph d="M85 -12 435 107V187L85 68ZM85 -34C119 -34 147 -6 147 28C147 62 119 90 85 90C51 90 23 62 23 28C23 -6 51 -34 85 -34Z" glyph-name="line.004.021" horiz-adv-x="350" /><glyph d="M85 -12 435 114V194L85 68ZM85 -34C119 -34 147 -6 147 28C147 62 119 90 85 90C51 90 23 62 23 28C23 -6 51 -34 85 -34Z" glyph-name="line.004.022" horiz-adv-x="350" /><glyph d="M85 -12 435 121V201L85 68ZM85 -34C119 -34 147 -6 147 28C147 62 119 90 85 90C51 90 23 62 23 28C23 -6 51 -34 85 -34Z" glyph-name="line.004.023" horiz-adv-x="350" /><glyph d="M85 -13 435 127V209L85 69ZM85 -34C119 -34 147 -6 147 28C147 62 119 90 85 90C51 90 23 62 23 28C23 -6 51 -34 85 -34Z" glyph-name="line.004.024" horiz-adv-x="350" /><glyph d="M85 -13 435 134V216L85 69ZM85 -34C119 -34 147 -6 147 28C147 62 119 90 85 90C51 90 23 62 23 28C23 -6 51 -34 85 -34Z" glyph-name="line.004.025" horiz-adv-x="350" /><glyph d="M85 -13 435 141V223L85 69ZM85 -34C119 -34 147 -6 147 28C147 62 119 90 85 90C51 90 23 62 23 28C23 -6 51 -34 85 -34Z" glyph-name="line.004.026" horiz-adv-x="350" /><glyph d="M85 -13 435 148V230L85 69ZM85 -34C119 -34 147 -6 147 28C147 62 119 90 85 90C51 90 23 62 23 28C23 -6 51 -34 85 -34Z" glyph-name="line.004.027" horiz-adv-x="350" /><glyph d="M85 -13 435 155V237L85 69ZM85 -34C119 -34 147 -6 147 28C147 62 119 90 85 90C51 90 23 62 23 28C23 -6 51 -34 85 -34Z" glyph-name="line.004.028" horiz-adv-x="350" /><glyph d="M85 -14 435 161V245L85 70ZM85 -34C119 -34 147 -6 147 28C147 62 119 90 85 90C51 90 23 62 23 28C23 -6 51 -34 85 -34Z" glyph-name="line.004.029" horiz-adv-x="350" /><glyph d="M85 -14 435 168V252L85 70ZM85 -34C119 -34 147 -6 147 28C147 62 119 90 85 90C51 90 23 62 23 28C23 -6 51 -34 85 -34Z" glyph-name="line.004.030" horiz-adv-x="350" /><glyph d="M85 -14 435 175V259L85 70ZM85 -34C119 -34 147 -6 147 28C147 62 119 90 85 90C51 90 23 62 23 28C23 -6 51 -34 85 -34Z" glyph-name="line.004.031" horiz-adv-x="350" /><glyph d="M85 -14 435 182V266L85 70ZM85 -34C119 -34 147 -6 147 28C147 62 119 90 85 90C51 90 23 62 23 28C23 -6 51 -34 85 -34Z" glyph-name="line.004.032" horiz-adv-x="350" /><glyph d="M85 -14 435 189V273L85 70ZM85 -34C119 -34 147 -6 147 28C147 62 119 90 85 90C51 90 23 62 23 28C23 -6 51 -34 85 -34Z" glyph-name="line.004.033" horiz-adv-x="350" /><glyph d="M85 -15 435 195V281L85 71ZM85 -34C119 -34 147 -6 147 28C147 62 119 90 85 90C51 90 23 62 23 28C23 -6 51 -34 85 -34Z" glyph-name="line.004.034" horiz-adv-x="350" /><glyph d="M85 -15 435 202V288L85 71ZM85 -34C119 -34 147 -6 147 28C147 62 119 90 85 90C51 90 23 62 23 28C23 -6 51 -34 85 -34Z" glyph-name="line.004.035" horiz-adv-x="350" /><glyph d="M85 -15 435 209V295L85 71ZM85 -34C119 -34 147 -6 147 28C147 62 119 90 85 90C51 90 23 62 23 28C23 -6 51 -34 85 -34Z" glyph-name="line.004.036" horiz-adv-x="350" /><glyph d="M85 -15 435 216V302L85 71ZM85 -34C119 -34 147 -6 147 28C147 62 119 90 85 90C51 90 23 62 23 28C23 -6 51 -34 85 -34Z" glyph-name="line.004.037" horiz-adv-x="350" /><glyph d="M85 -15 435 223V309L85 71ZM85 -34C119 -34 147 -6 147 28C147 62 119 90 85 90C51 90 23 62 23 28C23 -6 51 -34 85 -34Z" glyph-name="line.004.038" horiz-adv-x="350" /><glyph d="M85 -16 435 229V317L85 72ZM85 -34C119 -34 147 -6 147 28C147 62 119 90 85 90C51 90 23 62 23 28C23 -6 51 -34 85 -34Z" glyph-name="line.004.039" horiz-adv-x="350" /><glyph d="M85 -16 435 236V324L85 72ZM85 -34C119 -34 147 -6 147 28C147 62 119 90 85 90C51 90 23 62 23 28C23 -6 51 -34 85 -34Z" glyph-name="line.004.040" horiz-adv-x="350" /><glyph d="M85 -16 435 243V331L85 72ZM85 -34C119 -34 147 -6 147 28C147 62 119 90 85 90C51 90 23 62 23 28C23 -6 51 -34 85 -34Z" glyph-name="line.004.041" horiz-adv-x="350" /><glyph d="M85 -16 435 250V338L85 72ZM85 -34C119 -34 147 -6 147 28C147 62 119 90 85 90C51 90 23 62 23 28C23 -6 51 -34 85 -34Z" glyph-name="line.004.042" horiz-adv-x="350" /><glyph d="M85 -17 435 256V346L85 73ZM85 -34C119 -34 147 -6 147 28C147 62 119 90 85 90C51 90 23 62 23 28C23 -6 51 -34 85 -34Z" glyph-name="line.004.043" horiz-adv-x="350" /><glyph d="M85 -18 435 262V354L85 74ZM85 -34C119 -34 147 -6 147 28C147 62 119 90 85 90C51 90 23 62 23 28C23 -6 51 -34 85 -34Z" glyph-name="line.004.044" horiz-adv-x="350" /><glyph d="M85 -18 435 269V361L85 74ZM85 -34C119 -34 147 -6 147 28C147 62 119 90 85 90C51 90 23 62 23 28C23 -6 51 -34 85 -34Z" glyph-name="line.004.045" horiz-adv-x="350" /><glyph d="M85 -18 435 276V368L85 74ZM85 -34C119 -34 147 -6 147 28C147 62 119 90 85 90C51 90 23 62 23 28C23 -6 51 -34 85 -34Z" glyph-name="line.004.046" horiz-adv-x="350" /><glyph d="M85 -19 435 282V376L85 75ZM85 -34C119 -34 147 -6 147 28C147 62 119 90 85 90C51 90 23 62 23 28C23 -6 51 -34 85 -34Z" glyph-name="line.004.047" horiz-adv-x="350" /><glyph d="M85 -19 435 289V383L85 75ZM85 -34C119 -34 147 -6 147 28C147 62 119 90 85 90C51 90 23 62 23 28C23 -6 51 -34 85 -34Z" glyph-name="line.004.048" horiz-adv-x="350" /><glyph d="M85 -19 435 296V390L85 75ZM85 -34C119 -34 147 -6 147 28C147 62 119 90 85 90C51 90 23 62 23 28C23 -6 51 -34 85 -34Z" glyph-name="line.004.049" horiz-adv-x="350" /><glyph d="M85 -20 435 302V398L85 76ZM85 -34C119 -34 147 -6 147 28C147 62 119 90 85 90C51 90 23 62 23 28C23 -6 51 -34 85 -34Z" glyph-name="line.004.050" horiz-adv-x="350" /><glyph d="M85 -20 435 309V405L85 76ZM85 -34C119 -34 147 -6 147 28C147 62 119 90 85 90C51 90 23 62 23 28C23 -6 51 -34 85 -34Z" glyph-name="line.004.051" horiz-adv-x="350" /><glyph d="M85 -21 435 315V413L85 77ZM85 -34C119 -34 147 -6 147 28C147 62 119 90 85 90C51 90 23 62 23 28C23 -6 51 -34 85 -34Z" glyph-name="line.004.052" horiz-adv-x="350" /><glyph d="M85 -21 435 322V420L85 77ZM85 -34C119 -34 147 -6 147 28C147 62 119 90 85 90C51 90 23 62 23 28C23 -6 51 -34 85 -34Z" glyph-name="line.004.053" horiz-adv-x="350" /><glyph d="M85 -22 435 328V428L85 78ZM85 -34C119 -34 147 -6 147 28C147 62 119 90 85 90C51 90 23 62 23 28C23 -6 51 -34 85 -34Z" glyph-name="line.004.054" horiz-adv-x="350" /><glyph d="M85 -22 435 335V435L85 78ZM85 -34C119 -34 147 -6 147 28C147 62 119 90 85 90C51 90 23 62 23 28C23 -6 51 -34 85 -34Z" glyph-name="line.004.055" horiz-adv-x="350" /><glyph d="M85 -23 435 341V443L85 79ZM85 -34C119 -34 147 -6 147 28C147 62 119 90 85 90C51 90 23 62 23 28C23 -6 51 -34 85 -34Z" glyph-name="line.004.056" horiz-adv-x="350" /><glyph d="M85 -24 435 347V451L85 80ZM85 -34C119 -34 147 -6 147 28C147 62 119 90 85 90C51 90 23 62 23 28C23 -6 51 -34 85 -34Z" glyph-name="line.004.057" horiz-adv-x="350" /><glyph d="M85 -26 435 352V460L85 82ZM85 -34C119 -34 147 -6 147 28C147 62 119 90 85 90C51 90 23 62 23 28C23 -6 51 -34 85 -34Z" glyph-name="line.004.058" horiz-adv-x="350" /><glyph d="M85 -26 435 359V467L85 82ZM85 -34C119 -34 147 -6 147 28C147 62 119 90 85 90C51 90 23 62 23 28C23 -6 51 -34 85 -34Z" glyph-name="line.004.059" horiz-adv-x="350" /><glyph d="M85 -27 435 365V475L85 83ZM85 -34C119 -34 147 -6 147 28C147 62 119 90 85 90C51 90 23 62 23 28C23 -6 51 -34 85 -34Z" glyph-name="line.004.060" horiz-adv-x="350" /><glyph d="M85 -27 435 372V482L85 83ZM85 -34C119 -34 147 -6 147 28C147 62 119 90 85 90C51 90 23 62 23 28C23 -6 51 -34 85 -34Z" glyph-name="line.004.061" horiz-adv-x="350" /><glyph d="M85 -28 435 378V490L85 84ZM85 -34C119 -34 147 -6 147 28C147 62 119 90 85 90C51 90 23 62 23 28C23 -6 51 -34 85 -34Z" glyph-name="line.004.062" horiz-adv-x="350" /><glyph d="M85 -28 435 385V497L85 84ZM85 -34C119 -34 147 -6 147 28C147 62 119 90 85 90C51 90 23 62 23 28C23 -6 51 -34 85 -34Z" glyph-name="line.004.063" horiz-adv-x="350" /><glyph d="M85 -29 435 391V505L85 85ZM85 -34C119 -34 147 -6 147 28C147 62 119 90 85 90C51 90 23 62 23 28C23 -6 51 -34 85 -34Z" glyph-name="line.004.064" horiz-adv-x="350" /><glyph d="M85 -29 435 398V512L85 85ZM85 -34C119 -34 147 -6 147 28C147 62 119 90 85 90C51 90 23 62 23 28C23 -6 51 -34 85 -34Z" glyph-name="line.004.065" horiz-adv-x="350" /><glyph d="M85 -30 435 404V520L85 86ZM85 -34C119 -34 147 -6 147 28C147 62 119 90 85 90C51 90 23 62 23 28C23 -6 51 -34 85 -34Z" glyph-name="line.004.066" horiz-adv-x="350" /><glyph d="M85 -30 435 411V527L85 86ZM85 -34C119 -34 147 -6 147 28C147 62 119 90 85 90C51 90 23 62 23 28C23 -6 51 -34 85 -34Z" glyph-name="line.004.067" horiz-adv-x="350" /><glyph d="M85 -31 435 417V535L85 87ZM85 -34C119 -34 147 -6 147 28C147 62 119 90 85 90C51 90 23 62 23 28C23 -6 51 -34 85 -34Z" glyph-name="line.004.068" horiz-adv-x="350" /><glyph d="M85 -31 435 424V542L85 87ZM85 -34C119 -34 147 -6 147 28C147 62 119 90 85 90C51 90 23 62 23 28C23 -6 51 -34 85 -34Z" glyph-name="line.004.069" horiz-adv-x="350" /><glyph d="M85 -32 435 430V550L85 88ZM85 -34C119 -34 147 -6 147 28C147 62 119 90 85 90C51 90 23 62 23 28C23 -6 51 -34 85 -34Z" glyph-name="line.004.070" horiz-adv-x="350" /><glyph d="M85 -32 435 437V557L85 88ZM85 -34C119 -34 147 -6 147 28C147 62 119 90 85 90C51 90 23 62 23 28C23 -6 51 -34 85 -34Z" glyph-name="line.004.071" horiz-adv-x="350" /><glyph d="M85 -33 435 443V565L85 89ZM85 -34C119 -34 147 -6 147 28C147 62 119 90 85 90C51 90 23 62 23 28C23 -6 51 -34 85 -34Z" glyph-name="line.004.072" horiz-adv-x="350" /><glyph d="M85 -33 435 451V573L85 89ZM85 -34C119 -34 147 -6 147 28C147 62 119 90 85 90C51 90 23 62 23 28C23 -6 51 -34 85 -34Z" glyph-name="line.004.073" horiz-adv-x="350" /><glyph d="M85 -34 435 456V580L85 90ZM85 -34C119 -34 147 -6 147 28C147 62 119 90 85 90C51 90 23 62 23 28C23 -6 51 -34 85 -34Z" glyph-name="line.004.074" horiz-adv-x="350" /><glyph d="M85 -34 435 463V587L85 90ZM85 -34C119 -34 147 -6 147 28C147 62 119 90 85 90C51 90 23 62 23 28C23 -6 51 -34 85 -34Z" glyph-name="line.004.075" horiz-adv-x="350" /><glyph d="M129 28 479 532H391L41 28ZM85 -34C119 -34 147 -6 147 28C147 62 119 90 85 90C51 90 23 62 23 28C23 -6 51 -34 85 -34Z" glyph-name="line.004.076" horiz-adv-x="350" /><glyph d="M128 28 478 539H392L42 28ZM85 -34C119 -34 147 -6 147 28C147 62 119 90 85 90C51 90 23 62 23 28C23 -6 51 -34 85 -34Z" glyph-name="line.004.077" horiz-adv-x="350" /><glyph d="M128 28 478 546H392L42 28ZM85 -34C119 -34 147 -6 147 28C147 62 119 90 85 90C51 90 23 62 23 28C23 -6 51 -34 85 -34Z" glyph-name="line.004.078" horiz-adv-x="350" /><glyph d="M128 28 478 553H392L42 28ZM85 -34C119 -34 147 -6 147 28C147 62 119 90 85 90C51 90 23 62 23 28C23 -6 51 -34 85 -34Z" glyph-name="line.004.079" horiz-adv-x="350" /><glyph d="M128 28 478 560H392L42 28ZM85 -34C119 -34 147 -6 147 28C147 62 119 90 85 90C51 90 23 62 23 28C23 -6 51 -34 85 -34Z" glyph-name="line.004.080" horiz-adv-x="350" /><glyph d="M128 28 478 567H392L42 28ZM85 -34C119 -34 147 -6 147 28C147 62 119 90 85 90C51 90 23 62 23 28C23 -6 51 -34 85 -34Z" glyph-name="line.004.081" horiz-adv-x="350" /><glyph d="M127 28 477 574H393L43 28ZM85 -34C119 -34 147 -6 147 28C147 62 119 90 85 90C51 90 23 62 23 28C23 -6 51 -34 85 -34Z" glyph-name="line.004.082" horiz-adv-x="350" /><glyph d="M127 28 477 581H393L43 28ZM85 -34C119 -34 147 -6 147 28C147 62 119 90 85 90C51 90 23 62 23 28C23 -6 51 -34 85 -34Z" glyph-name="line.004.083" horiz-adv-x="350" /><glyph d="M127 28 477 588H393L43 28ZM85 -34C119 -34 147 -6 147 28C147 62 119 90 85 90C51 90 23 62 23 28C23 -6 51 -34 85 -34Z" glyph-name="line.004.084" horiz-adv-x="350" /><glyph d="M127 28 477 595H393L43 28ZM85 -34C119 -34 147 -6 147 28C147 62 119 90 85 90C51 90 23 62 23 28C23 -6 51 -34 85 -34Z" glyph-name="line.004.085" horiz-adv-x="350" /><glyph d="M127 28 477 602H393L43 28ZM85 -34C119 -34 147 -6 147 28C147 62 119 90 85 90C51 90 23 62 23 28C23 -6 51 -34 85 -34Z" glyph-name="line.004.086" horiz-adv-x="350" /><glyph d="M127 28 477 609H393L43 28ZM85 -34C119 -34 147 -6 147 28C147 62 119 90 85 90C51 90 23 62 23 28C23 -6 51 -34 85 -34Z" glyph-name="line.004.087" horiz-adv-x="350" /><glyph d="M127 28 477 616H393L43 28ZM85 -34C119 -34 147 -6 147 28C147 62 119 90 85 90C51 90 23 62 23 28C23 -6 51 -34 85 -34Z" glyph-name="line.004.088" horiz-adv-x="350" /><glyph d="M127 28 477 623H393L43 28ZM85 -34C119 -34 147 -6 147 28C147 62 119 90 85 90C51 90 23 62 23 28C23 -6 51 -34 85 -34Z" glyph-name="line.004.089" horiz-adv-x="350" /><glyph d="M127 28 477 630H393L43 28ZM85 -34C119 -34 147 -6 147 28C147 62 119 90 85 90C51 90 23 62 23 28C23 -6 51 -34 85 -34Z" glyph-name="line.004.090" horiz-adv-x="350" /><glyph d="M126 28 476 637H394L44 28ZM85 -34C119 -34 147 -6 147 28C147 62 119 90 85 90C51 90 23 62 23 28C23 -6 51 -34 85 -34Z" glyph-name="line.004.091" horiz-adv-x="350" /><glyph d="M126 28 476 644H394L44 28ZM85 -34C119 -34 147 -6 147 28C147 62 119 90 85 90C51 90 23 62 23 28C23 -6 51 -34 85 -34Z" glyph-name="line.004.092" horiz-adv-x="350" /><glyph d="M126 28 476 651H394L44 28ZM85 -34C119 -34 147 -6 147 28C147 62 119 90 85 90C51 90 23 62 23 28C23 -6 51 -34 85 -34Z" glyph-name="line.004.093" horiz-adv-x="350" /><glyph d="M126 28 476 658H394L44 28ZM85 -34C119 -34 147 -6 147 28C147 62 119 90 85 90C51 90 23 62 23 28C23 -6 51 -34 85 -34Z" glyph-name="line.004.094" horiz-adv-x="350" /><glyph d="M126 28 476 665H394L44 28ZM85 -34C119 -34 147 -6 147 28C147 62 119 90 85 90C51 90 23 62 23 28C23 -6 51 -34 85 -34Z" glyph-name="line.004.095" horiz-adv-x="350" /><glyph d="M126 28 476 672H394L44 28ZM85 -34C119 -34 147 -6 147 28C147 62 119 90 85 90C51 90 23 62 23 28C23 -6 51 -34 85 -34Z" glyph-name="line.004.096" horiz-adv-x="350" /><glyph d="M126 28 476 679H394L44 28ZM85 -34C119 -34 147 -6 147 28C147 62 119 90 85 90C51 90 23 62 23 28C23 -6 51 -34 85 -34Z" glyph-name="line.004.097" horiz-adv-x="350" /><glyph d="M126 28 476 686H394L44 28ZM85 -34C119 -34 147 -6 147 28C147 62 119 90 85 90C51 90 23 62 23 28C23 -6 51 -34 85 -34Z" glyph-name="line.004.098" horiz-adv-x="350" /><glyph d="M126 28 476 693H394L44 28ZM85 -34C119 -34 147 -6 147 28C147 62 119 90 85 90C51 90 23 62 23 28C23 -6 51 -34 85 -34Z" glyph-name="line.004.099" horiz-adv-x="350" /><glyph d="M126 28 476 700H394L44 28ZM85 -34C119 -34 147 -6 147 28C147 62 119 90 85 90C51 90 23 62 23 28C23 -6 51 -34 85 -34Z" glyph-name="line.004.100" horiz-adv-x="350" /><glyph d="M85 73 435 37V-38L85 -3ZM85 97C119 97 147 69 147 35C147 1 119 -27 85 -27C51 -27 23 1 23 35C23 69 51 97 85 97Z" glyph-name="line.005.000" horiz-adv-x="350" /><glyph d="M85 72 435 44V-30L85 -2ZM85 97C119 97 147 69 147 35C147 1 119 -27 85 -27C51 -27 23 1 23 35C23 69 51 97 85 97Z" glyph-name="line.005.001" horiz-adv-x="350" /><glyph d="M85 72 435 51V-23L85 -2ZM85 97C119 97 147 69 147 35C147 1 119 -27 85 -27C51 -27 23 1 23 35C23 69 51 97 85 97Z" glyph-name="line.005.002" horiz-adv-x="350" /><glyph d="M85 72 435 58V-16L85 -2ZM85 97C119 97 147 69 147 35C147 1 119 -27 85 -27C51 -27 23 1 23 35C23 69 51 97 85 97Z" glyph-name="line.005.003" horiz-adv-x="350" /><glyph d="M85 72 435 65V-9L85 -2ZM85 97C119 97 147 69 147 35C147 1 119 -27 85 -27C51 -27 23 1 23 35C23 69 51 97 85 97Z" glyph-name="line.005.004" horiz-adv-x="350" /><glyph d="M85 -2H435V72H85ZM85 -27C119 -27 147 1 147 35C147 69 119 97 85 97C51 97 23 69 23 35C23 1 51 -27 85 -27Z" glyph-name="line.005.005" horiz-adv-x="350" /><glyph d="M85 -2 435 5V79L85 72ZM85 -27C119 -27 147 1 147 35C147 69 119 97 85 97C51 97 23 69 23 35C23 1 51 -27 85 -27Z" glyph-name="line.005.006" horiz-adv-x="350" /><glyph d="M85 -2 435 12V86L85 72ZM85 -27C119 -27 147 1 147 35C147 69 119 97 85 97C51 97 23 69 23 35C23 1 51 -27 85 -27Z" glyph-name="line.005.007" horiz-adv-x="350" /><glyph d="M85 -2 435 19V93L85 72ZM85 -27C119 -27 147 1 147 35C147 69 119 97 85 97C51 97 23 69 23 35C23 1 51 -27 85 -27Z" glyph-name="line.005.008" horiz-adv-x="350" /><glyph d="M85 -2 435 26V100L85 72ZM85 -27C119 -27 147 1 147 35C147 69 119 97 85 97C51 97 23 69 23 35C23 1 51 -27 85 -27Z" glyph-name="line.005.009" horiz-adv-x="350" /><glyph d="M85 -3 435 33V108L85 73ZM85 -27C119 -27 147 1 147 35C147 69 119 97 85 97C51 97 23 69 23 35C23 1 51 -27 85 -27Z" glyph-name="line.005.010" horiz-adv-x="350" /><glyph d="M85 -3 435 39V115L85 73ZM85 -27C119 -27 147 1 147 35C147 69 119 97 85 97C51 97 23 69 23 35C23 1 51 -27 85 -27Z" glyph-name="line.005.011" horiz-adv-x="350" /><glyph d="M85 -3 435 46V122L85 73ZM85 -27C119 -27 147 1 147 35C147 69 119 97 85 97C51 97 23 69 23 35C23 1 51 -27 85 -27Z" glyph-name="line.005.012" horiz-adv-x="350" /><glyph d="M85 -3 435 53V129L85 73ZM85 -27C119 -27 147 1 147 35C147 69 119 97 85 97C51 97 23 69 23 35C23 1 51 -27 85 -27Z" glyph-name="line.005.013" horiz-adv-x="350" /><glyph d="M85 -3 435 60V136L85 73ZM85 -27C119 -27 147 1 147 35C147 69 119 97 85 97C51 97 23 69 23 35C23 1 51 -27 85 -27Z" glyph-name="line.005.014" horiz-adv-x="350" /><glyph d="M85 -4 435 66V144L85 74ZM85 -27C119 -27 147 1 147 35C147 69 119 97 85 97C51 97 23 69 23 35C23 1 51 -27 85 -27Z" glyph-name="line.005.015" horiz-adv-x="350" /><glyph d="M85 -4 435 73V151L85 74ZM85 -27C119 -27 147 1 147 35C147 69 119 97 85 97C51 97 23 69 23 35C23 1 51 -27 85 -27Z" glyph-name="line.005.016" horiz-adv-x="350" /><glyph d="M85 -4 435 80V158L85 74ZM85 -27C119 -27 147 1 147 35C147 69 119 97 85 97C51 97 23 69 23 35C23 1 51 -27 85 -27Z" glyph-name="line.005.017" horiz-adv-x="350" /><glyph d="M85 -4 435 87V165L85 74ZM85 -27C119 -27 147 1 147 35C147 69 119 97 85 97C51 97 23 69 23 35C23 1 51 -27 85 -27Z" glyph-name="line.005.018" horiz-adv-x="350" /><glyph d="M85 -4 435 94V172L85 74ZM85 -27C119 -27 147 1 147 35C147 69 119 97 85 97C51 97 23 69 23 35C23 1 51 -27 85 -27Z" glyph-name="line.005.019" horiz-adv-x="350" /><glyph d="M85 -5 435 100V180L85 75ZM85 -27C119 -27 147 1 147 35C147 69 119 97 85 97C51 97 23 69 23 35C23 1 51 -27 85 -27Z" glyph-name="line.005.020" horiz-adv-x="350" /><glyph d="M85 -5 435 107V187L85 75ZM85 -27C119 -27 147 1 147 35C147 69 119 97 85 97C51 97 23 69 23 35C23 1 51 -27 85 -27Z" glyph-name="line.005.021" horiz-adv-x="350" /><glyph d="M85 -5 435 114V194L85 75ZM85 -27C119 -27 147 1 147 35C147 69 119 97 85 97C51 97 23 69 23 35C23 1 51 -27 85 -27Z" glyph-name="line.005.022" horiz-adv-x="350" /><glyph d="M85 -5 435 121V201L85 75ZM85 -27C119 -27 147 1 147 35C147 69 119 97 85 97C51 97 23 69 23 35C23 1 51 -27 85 -27Z" glyph-name="line.005.023" horiz-adv-x="350" /><glyph d="M85 -5 435 128V208L85 75ZM85 -27C119 -27 147 1 147 35C147 69 119 97 85 97C51 97 23 69 23 35C23 1 51 -27 85 -27Z" glyph-name="line.005.024" horiz-adv-x="350" /><glyph d="M85 -6 435 134V216L85 76ZM85 -27C119 -27 147 1 147 35C147 69 119 97 85 97C51 97 23 69 23 35C23 1 51 -27 85 -27Z" glyph-name="line.005.025" horiz-adv-x="350" /><glyph d="M85 -6 435 141V223L85 76ZM85 -27C119 -27 147 1 147 35C147 69 119 97 85 97C51 97 23 69 23 35C23 1 51 -27 85 -27Z" glyph-name="line.005.026" horiz-adv-x="350" /><glyph d="M85 -6 435 148V230L85 76ZM85 -27C119 -27 147 1 147 35C147 69 119 97 85 97C51 97 23 69 23 35C23 1 51 -27 85 -27Z" glyph-name="line.005.027" horiz-adv-x="350" /><glyph d="M85 -6 435 155V237L85 76ZM85 -27C119 -27 147 1 147 35C147 69 119 97 85 97C51 97 23 69 23 35C23 1 51 -27 85 -27Z" glyph-name="line.005.028" horiz-adv-x="350" /><glyph d="M85 -6 435 162V244L85 76ZM85 -27C119 -27 147 1 147 35C147 69 119 97 85 97C51 97 23 69 23 35C23 1 51 -27 85 -27Z" glyph-name="line.005.029" horiz-adv-x="350" /><glyph d="M85 -7 435 168V252L85 77ZM85 -27C119 -27 147 1 147 35C147 69 119 97 85 97C51 97 23 69 23 35C23 1 51 -27 85 -27Z" glyph-name="line.005.030" horiz-adv-x="350" /><glyph d="M85 -7 435 175V259L85 77ZM85 -27C119 -27 147 1 147 35C147 69 119 97 85 97C51 97 23 69 23 35C23 1 51 -27 85 -27Z" glyph-name="line.005.031" horiz-adv-x="350" /><glyph d="M85 -7 435 182V266L85 77ZM85 -27C119 -27 147 1 147 35C147 69 119 97 85 97C51 97 23 69 23 35C23 1 51 -27 85 -27Z" glyph-name="line.005.032" horiz-adv-x="350" /><glyph d="M85 -7 435 189V273L85 77ZM85 -27C119 -27 147 1 147 35C147 69 119 97 85 97C51 97 23 69 23 35C23 1 51 -27 85 -27Z" glyph-name="line.005.033" horiz-adv-x="350" /><glyph d="M85 -7 435 196V280L85 77ZM85 -27C119 -27 147 1 147 35C147 69 119 97 85 97C51 97 23 69 23 35C23 1 51 -27 85 -27Z" glyph-name="line.005.034" horiz-adv-x="350" /><glyph d="M85 -8 435 202V288L85 78ZM85 -27C119 -27 147 1 147 35C147 69 119 97 85 97C51 97 23 69 23 35C23 1 51 -27 85 -27Z" glyph-name="line.005.035" horiz-adv-x="350" /><glyph d="M85 -8 435 209V295L85 78ZM85 -27C119 -27 147 1 147 35C147 69 119 97 85 97C51 97 23 69 23 35C23 1 51 -27 85 -27Z" glyph-name="line.005.036" horiz-adv-x="350" /><glyph d="M85 -8 435 216V302L85 78ZM85 -27C119 -27 147 1 147 35C147 69 119 97 85 97C51 97 23 69 23 35C23 1 51 -27 85 -27Z" glyph-name="line.005.037" horiz-adv-x="350" /><glyph d="M85 -8 435 223V309L85 78ZM85 -27C119 -27 147 1 147 35C147 69 119 97 85 97C51 97 23 69 23 35C23 1 51 -27 85 -27Z" glyph-name="line.005.038" horiz-adv-x="350" /><glyph d="M85 -8 435 230V316L85 78ZM85 -27C119 -27 147 1 147 35C147 69 119 97 85 97C51 97 23 69 23 35C23 1 51 -27 85 -27Z" glyph-name="line.005.039" horiz-adv-x="350" /><glyph d="M85 -9 435 236V324L85 79ZM85 -27C119 -27 147 1 147 35C147 69 119 97 85 97C51 97 23 69 23 35C23 1 51 -27 85 -27Z" glyph-name="line.005.040" horiz-adv-x="350" /><glyph d="M85 -9 435 243V331L85 79ZM85 -27C119 -27 147 1 147 35C147 69 119 97 85 97C51 97 23 69 23 35C23 1 51 -27 85 -27Z" glyph-name="line.005.041" horiz-adv-x="350" /><glyph d="M85 -9 435 250V338L85 79ZM85 -27C119 -27 147 1 147 35C147 69 119 97 85 97C51 97 23 69 23 35C23 1 51 -27 85 -27Z" glyph-name="line.005.042" horiz-adv-x="350" /><glyph d="M85 -9 435 257V345L85 79ZM85 -27C119 -27 147 1 147 35C147 69 119 97 85 97C51 97 23 69 23 35C23 1 51 -27 85 -27Z" glyph-name="line.005.043" horiz-adv-x="350" /><glyph d="M85 -10 435 263V353L85 80ZM85 -27C119 -27 147 1 147 35C147 69 119 97 85 97C51 97 23 69 23 35C23 1 51 -27 85 -27Z" glyph-name="line.005.044" horiz-adv-x="350" /><glyph d="M85 -11 435 269V361L85 81ZM85 -27C119 -27 147 1 147 35C147 69 119 97 85 97C51 97 23 69 23 35C23 1 51 -27 85 -27Z" glyph-name="line.005.045" horiz-adv-x="350" /><glyph d="M85 -11 435 276V368L85 81ZM85 -27C119 -27 147 1 147 35C147 69 119 97 85 97C51 97 23 69 23 35C23 1 51 -27 85 -27Z" glyph-name="line.005.046" horiz-adv-x="350" /><glyph d="M85 -11 435 283V375L85 81ZM85 -27C119 -27 147 1 147 35C147 69 119 97 85 97C51 97 23 69 23 35C23 1 51 -27 85 -27Z" glyph-name="line.005.047" horiz-adv-x="350" /><glyph d="M85 -12 435 289V383L85 82ZM85 -27C119 -27 147 1 147 35C147 69 119 97 85 97C51 97 23 69 23 35C23 1 51 -27 85 -27Z" glyph-name="line.005.048" horiz-adv-x="350" /><glyph d="M85 -12 435 296V390L85 82ZM85 -27C119 -27 147 1 147 35C147 69 119 97 85 97C51 97 23 69 23 35C23 1 51 -27 85 -27Z" glyph-name="line.005.049" horiz-adv-x="350" /><glyph d="M85 -12 435 303V397L85 82ZM85 -27C119 -27 147 1 147 35C147 69 119 97 85 97C51 97 23 69 23 35C23 1 51 -27 85 -27Z" glyph-name="line.005.050" horiz-adv-x="350" /><glyph d="M85 -13 435 309V405L85 83ZM85 -27C119 -27 147 1 147 35C147 69 119 97 85 97C51 97 23 69 23 35C23 1 51 -27 85 -27Z" glyph-name="line.005.051" horiz-adv-x="350" /><glyph d="M85 -13 435 316V412L85 83ZM85 -27C119 -27 147 1 147 35C147 69 119 97 85 97C51 97 23 69 23 35C23 1 51 -27 85 -27Z" glyph-name="line.005.052" horiz-adv-x="350" /><glyph d="M85 -14 435 322V420L85 84ZM85 -27C119 -27 147 1 147 35C147 69 119 97 85 97C51 97 23 69 23 35C23 1 51 -27 85 -27Z" glyph-name="line.005.053" horiz-adv-x="350" /><glyph d="M85 -14 435 329V427L85 84ZM85 -27C119 -27 147 1 147 35C147 69 119 97 85 97C51 97 23 69 23 35C23 1 51 -27 85 -27Z" glyph-name="line.005.054" horiz-adv-x="350" /><glyph d="M85 -15 435 335V435L85 85ZM85 -27C119 -27 147 1 147 35C147 69 119 97 85 97C51 97 23 69 23 35C23 1 51 -27 85 -27Z" glyph-name="line.005.055" horiz-adv-x="350" /><glyph d="M85 -15 435 342V442L85 85ZM85 -27C119 -27 147 1 147 35C147 69 119 97 85 97C51 97 23 69 23 35C23 1 51 -27 85 -27Z" glyph-name="line.005.056" horiz-adv-x="350" /><glyph d="M85 -16 435 348V450L85 86ZM85 -27C119 -27 147 1 147 35C147 69 119 97 85 97C51 97 23 69 23 35C23 1 51 -27 85 -27Z" glyph-name="line.005.057" horiz-adv-x="350" /><glyph d="M85 -17 435 354V458L85 87ZM85 -27C119 -27 147 1 147 35C147 69 119 97 85 97C51 97 23 69 23 35C23 1 51 -27 85 -27Z" glyph-name="line.005.058" horiz-adv-x="350" /><glyph d="M85 -19 435 359V467L85 89ZM85 -27C119 -27 147 1 147 35C147 69 119 97 85 97C51 97 23 69 23 35C23 1 51 -27 85 -27Z" glyph-name="line.005.059" horiz-adv-x="350" /><glyph d="M85 -19 435 366V474L85 89ZM85 -27C119 -27 147 1 147 35C147 69 119 97 85 97C51 97 23 69 23 35C23 1 51 -27 85 -27Z" glyph-name="line.005.060" horiz-adv-x="350" /><glyph d="M85 -20 435 372V482L85 90ZM85 -27C119 -27 147 1 147 35C147 69 119 97 85 97C51 97 23 69 23 35C23 1 51 -27 85 -27Z" glyph-name="line.005.061" horiz-adv-x="350" /><glyph d="M85 -20 435 379V489L85 90ZM85 -27C119 -27 147 1 147 35C147 69 119 97 85 97C51 97 23 69 23 35C23 1 51 -27 85 -27Z" glyph-name="line.005.062" horiz-adv-x="350" /><glyph d="M85 -21 435 385V497L85 91ZM85 -27C119 -27 147 1 147 35C147 69 119 97 85 97C51 97 23 69 23 35C23 1 51 -27 85 -27Z" glyph-name="line.005.063" horiz-adv-x="350" /><glyph d="M85 -21 435 392V504L85 91ZM85 -27C119 -27 147 1 147 35C147 69 119 97 85 97C51 97 23 69 23 35C23 1 51 -27 85 -27Z" glyph-name="line.005.064" horiz-adv-x="350" /><glyph d="M85 -22 435 398V512L85 92ZM85 -27C119 -27 147 1 147 35C147 69 119 97 85 97C51 97 23 69 23 35C23 1 51 -27 85 -27Z" glyph-name="line.005.065" horiz-adv-x="350" /><glyph d="M85 -22 435 405V519L85 92ZM85 -27C119 -27 147 1 147 35C147 69 119 97 85 97C51 97 23 69 23 35C23 1 51 -27 85 -27Z" glyph-name="line.005.066" horiz-adv-x="350" /><glyph d="M85 -23 435 411V527L85 93ZM85 -27C119 -27 147 1 147 35C147 69 119 97 85 97C51 97 23 69 23 35C23 1 51 -27 85 -27Z" glyph-name="line.005.067" horiz-adv-x="350" /><glyph d="M85 -23 435 418V534L85 93ZM85 -27C119 -27 147 1 147 35C147 69 119 97 85 97C51 97 23 69 23 35C23 1 51 -27 85 -27Z" glyph-name="line.005.068" horiz-adv-x="350" /><glyph d="M85 -24 435 424V542L85 94ZM85 -27C119 -27 147 1 147 35C147 69 119 97 85 97C51 97 23 69 23 35C23 1 51 -27 85 -27Z" glyph-name="line.005.069" horiz-adv-x="350" /><glyph d="M85 -24 435 431V549L85 94ZM85 -27C119 -27 147 1 147 35C147 69 119 97 85 97C51 97 23 69 23 35C23 1 51 -27 85 -27Z" glyph-name="line.005.070" horiz-adv-x="350" /><glyph d="M85 -25 435 437V557L85 95ZM85 -27C119 -27 147 1 147 35C147 69 119 97 85 97C51 97 23 69 23 35C23 1 51 -27 85 -27Z" glyph-name="line.005.071" horiz-adv-x="350" /><glyph d="M85 -25 435 444V564L85 95ZM85 -27C119 -27 147 1 147 35C147 69 119 97 85 97C51 97 23 69 23 35C23 1 51 -27 85 -27Z" glyph-name="line.005.072" horiz-adv-x="350" /><glyph d="M85 -26 435 450V572L85 96ZM85 -27C119 -27 147 1 147 35C147 69 119 97 85 97C51 97 23 69 23 35C23 1 51 -27 85 -27Z" glyph-name="line.005.073" horiz-adv-x="350" /><glyph d="M85 -26 435 458V580L85 96ZM85 -27C119 -27 147 1 147 35C147 69 119 97 85 97C51 97 23 69 23 35C23 1 51 -27 85 -27Z" glyph-name="line.005.074" horiz-adv-x="350" /><glyph d="M85 -27 435 463V587L85 97ZM85 -27C119 -27 147 1 147 35C147 69 119 97 85 97C51 97 23 69 23 35C23 1 51 -27 85 -27Z" glyph-name="line.005.075" horiz-adv-x="350" /><glyph d="M85 -27 435 470V594L85 97ZM85 -27C119 -27 147 1 147 35C147 69 119 97 85 97C51 97 23 69 23 35C23 1 51 -27 85 -27Z" glyph-name="line.005.076" horiz-adv-x="350" /><glyph d="M129 35 479 539H391L41 35ZM85 -27C119 -27 147 1 147 35C147 69 119 97 85 97C51 97 23 69 23 35C23 1 51 -27 85 -27Z" glyph-name="line.005.077" horiz-adv-x="350" /><glyph d="M128 35 478 546H392L42 35ZM85 -27C119 -27 147 1 147 35C147 69 119 97 85 97C51 97 23 69 23 35C23 1 51 -27 85 -27Z" glyph-name="line.005.078" horiz-adv-x="350" /><glyph d="M128 35 478 553H392L42 35ZM85 -27C119 -27 147 1 147 35C147 69 119 97 85 97C51 97 23 69 23 35C23 1 51 -27 85 -27Z" glyph-name="line.005.079" horiz-adv-x="350" /><glyph d="M128 35 478 560H392L42 35ZM85 -27C119 -27 147 1 147 35C147 69 119 97 85 97C51 97 23 69 23 35C23 1 51 -27 85 -27Z" glyph-name="line.005.080" horiz-adv-x="350" /><glyph d="M128 35 478 567H392L42 35ZM85 -27C119 -27 147 1 147 35C147 69 119 97 85 97C51 97 23 69 23 35C23 1 51 -27 85 -27Z" glyph-name="line.005.081" horiz-adv-x="350" /><glyph d="M128 35 478 574H392L42 35ZM85 -27C119 -27 147 1 147 35C147 69 119 97 85 97C51 97 23 69 23 35C23 1 51 -27 85 -27Z" glyph-name="line.005.082" horiz-adv-x="350" /><glyph d="M127 35 477 581H393L43 35ZM85 -27C119 -27 147 1 147 35C147 69 119 97 85 97C51 97 23 69 23 35C23 1 51 -27 85 -27Z" glyph-name="line.005.083" horiz-adv-x="350" /><glyph d="M127 35 477 588H393L43 35ZM85 -27C119 -27 147 1 147 35C147 69 119 97 85 97C51 97 23 69 23 35C23 1 51 -27 85 -27Z" glyph-name="line.005.084" horiz-adv-x="350" /><glyph d="M127 35 477 595H393L43 35ZM85 -27C119 -27 147 1 147 35C147 69 119 97 85 97C51 97 23 69 23 35C23 1 51 -27 85 -27Z" glyph-name="line.005.085" horiz-adv-x="350" /><glyph d="M127 35 477 602H393L43 35ZM85 -27C119 -27 147 1 147 35C147 69 119 97 85 97C51 97 23 69 23 35C23 1 51 -27 85 -27Z" glyph-name="line.005.086" horiz-adv-x="350" /><glyph d="M127 35 477 609H393L43 35ZM85 -27C119 -27 147 1 147 35C147 69 119 97 85 97C51 97 23 69 23 35C23 1 51 -27 85 -27Z" glyph-name="line.005.087" horiz-adv-x="350" /><glyph d="M127 35 477 616H393L43 35ZM85 -27C119 -27 147 1 147 35C147 69 119 97 85 97C51 97 23 69 23 35C23 1 51 -27 85 -27Z" glyph-name="line.005.088" horiz-adv-x="350" /><glyph d="M127 35 477 623H393L43 35ZM85 -27C119 -27 147 1 147 35C147 69 119 97 85 97C51 97 23 69 23 35C23 1 51 -27 85 -27Z" glyph-name="line.005.089" horiz-adv-x="350" /><glyph d="M127 35 477 630H393L43 35ZM85 -27C119 -27 147 1 147 35C147 69 119 97 85 97C51 97 23 69 23 35C23 1 51 -27 85 -27Z" glyph-name="line.005.090" horiz-adv-x="350" /><glyph d="M127 35 477 637H393L43 35ZM85 -27C119 -27 147 1 147 35C147 69 119 97 85 97C51 97 23 69 23 35C23 1 51 -27 85 -27Z" glyph-name="line.005.091" horiz-adv-x="350" /><glyph d="M126 35 476 644H394L44 35ZM85 -27C119 -27 147 1 147 35C147 69 119 97 85 97C51 97 23 69 23 35C23 1 51 -27 85 -27Z" glyph-name="line.005.092" horiz-adv-x="350" /><glyph d="M126 35 476 651H394L44 35ZM85 -27C119 -27 147 1 147 35C147 69 119 97 85 97C51 97 23 69 23 35C23 1 51 -27 85 -27Z" glyph-name="line.005.093" horiz-adv-x="350" /><glyph d="M126 35 476 658H394L44 35ZM85 -27C119 -27 147 1 147 35C147 69 119 97 85 97C51 97 23 69 23 35C23 1 51 -27 85 -27Z" glyph-name="line.005.094" horiz-adv-x="350" /><glyph d="M126 35 476 665H394L44 35ZM85 -27C119 -27 147 1 147 35C147 69 119 97 85 97C51 97 23 69 23 35C23 1 51 -27 85 -27Z" glyph-name="line.005.095" horiz-adv-x="350" /><glyph d="M126 35 476 672H394L44 35ZM85 -27C119 -27 147 1 147 35C147 69 119 97 85 97C51 97 23 69 23 35C23 1 51 -27 85 -27Z" glyph-name="line.005.096" horiz-adv-x="350" /><glyph d="M126 35 476 679H394L44 35ZM85 -27C119 -27 147 1 147 35C147 69 119 97 85 97C51 97 23 69 23 35C23 1 51 -27 85 -27Z" glyph-name="line.005.097" horiz-adv-x="350" /><glyph d="M126 35 476 686H394L44 35ZM85 -27C119 -27 147 1 147 35C147 69 119 97 85 97C51 97 23 69 23 35C23 1 51 -27 85 -27Z" glyph-name="line.005.098" horiz-adv-x="350" /><glyph d="M126 35 476 693H394L44 35ZM85 -27C119 -27 147 1 147 35C147 69 119 97 85 97C51 97 23 69 23 35C23 1 51 -27 85 -27Z" glyph-name="line.005.099" horiz-adv-x="350" /><glyph d="M126 35 476 700H394L44 35ZM85 -27C119 -27 147 1 147 35C147 69 119 97 85 97C51 97 23 69 23 35C23 1 51 -27 85 -27Z" glyph-name="line.005.100" horiz-adv-x="350" /><glyph d="M85 80 435 38V-38L85 4ZM85 104C119 104 147 76 147 42C147 8 119 -20 85 -20C51 -20 23 8 23 42C23 76 51 104 85 104Z" glyph-name="line.006.000" horiz-adv-x="350" /><glyph d="M85 80 435 44V-31L85 4ZM85 104C119 104 147 76 147 42C147 8 119 -20 85 -20C51 -20 23 8 23 42C23 76 51 104 85 104Z" glyph-name="line.006.001" horiz-adv-x="350" /><glyph d="M85 79 435 51V-23L85 5ZM85 104C119 104 147 76 147 42C147 8 119 -20 85 -20C51 -20 23 8 23 42C23 76 51 104 85 104Z" glyph-name="line.006.002" horiz-adv-x="350" /><glyph d="M85 79 435 58V-16L85 5ZM85 104C119 104 147 76 147 42C147 8 119 -20 85 -20C51 -20 23 8 23 42C23 76 51 104 85 104Z" glyph-name="line.006.003" horiz-adv-x="350" /><glyph d="M85 79 435 65V-9L85 5ZM85 104C119 104 147 76 147 42C147 8 119 -20 85 -20C51 -20 23 8 23 42C23 76 51 104 85 104Z" glyph-name="line.006.004" horiz-adv-x="350" /><glyph d="M85 79 435 72V-2L85 5ZM85 104C119 104 147 76 147 42C147 8 119 -20 85 -20C51 -20 23 8 23 42C23 76 51 104 85 104Z" glyph-name="line.006.005" horiz-adv-x="350" /><glyph d="M85 5H435V79H85ZM85 -20C119 -20 147 8 147 42C147 76 119 104 85 104C51 104 23 76 23 42C23 8 51 -20 85 -20Z" glyph-name="line.006.006" horiz-adv-x="350" /><glyph d="M85 5 435 12V86L85 79ZM85 -20C119 -20 147 8 147 42C147 76 119 104 85 104C51 104 23 76 23 42C23 8 51 -20 85 -20Z" glyph-name="line.006.007" horiz-adv-x="350" /><glyph d="M85 5 435 19V93L85 79ZM85 -20C119 -20 147 8 147 42C147 76 119 104 85 104C51 104 23 76 23 42C23 8 51 -20 85 -20Z" glyph-name="line.006.008" horiz-adv-x="350" /><glyph d="M85 5 435 26V100L85 79ZM85 -20C119 -20 147 8 147 42C147 76 119 104 85 104C51 104 23 76 23 42C23 8 51 -20 85 -20Z" glyph-name="line.006.009" horiz-adv-x="350" /><glyph d="M85 5 435 33V107L85 79ZM85 -20C119 -20 147 8 147 42C147 76 119 104 85 104C51 104 23 76 23 42C23 8 51 -20 85 -20Z" glyph-name="line.006.010" horiz-adv-x="350" /><glyph d="M85 4 435 40V115L85 80ZM85 -20C119 -20 147 8 147 42C147 76 119 104 85 104C51 104 23 76 23 42C23 8 51 -20 85 -20Z" glyph-name="line.006.011" horiz-adv-x="350" /><glyph d="M85 4 435 46V122L85 80ZM85 -20C119 -20 147 8 147 42C147 76 119 104 85 104C51 104 23 76 23 42C23 8 51 -20 85 -20Z" glyph-name="line.006.012" horiz-adv-x="350" /><glyph d="M85 4 435 53V129L85 80ZM85 -20C119 -20 147 8 147 42C147 76 119 104 85 104C51 104 23 76 23 42C23 8 51 -20 85 -20Z" glyph-name="line.006.013" horiz-adv-x="350" /><glyph d="M85 4 435 60V136L85 80ZM85 -20C119 -20 147 8 147 42C147 76 119 104 85 104C51 104 23 76 23 42C23 8 51 -20 85 -20Z" glyph-name="line.006.014" horiz-adv-x="350" /><glyph d="M85 4 435 67V143L85 80ZM85 -20C119 -20 147 8 147 42C147 76 119 104 85 104C51 104 23 76 23 42C23 8 51 -20 85 -20Z" glyph-name="line.006.015" horiz-adv-x="350" /><glyph d="M85 3 435 73V151L85 81ZM85 -20C119 -20 147 8 147 42C147 76 119 104 85 104C51 104 23 76 23 42C23 8 51 -20 85 -20Z" glyph-name="line.006.016" horiz-adv-x="350" /><glyph d="M85 3 435 80V158L85 81ZM85 -20C119 -20 147 8 147 42C147 76 119 104 85 104C51 104 23 76 23 42C23 8 51 -20 85 -20Z" glyph-name="line.006.017" horiz-adv-x="350" /><glyph d="M85 3 435 87V165L85 81ZM85 -20C119 -20 147 8 147 42C147 76 119 104 85 104C51 104 23 76 23 42C23 8 51 -20 85 -20Z" glyph-name="line.006.018" horiz-adv-x="350" /><glyph d="M85 3 435 94V172L85 81ZM85 -20C119 -20 147 8 147 42C147 76 119 104 85 104C51 104 23 76 23 42C23 8 51 -20 85 -20Z" glyph-name="line.006.019" horiz-adv-x="350" /><glyph d="M85 3 435 101V179L85 81ZM85 -20C119 -20 147 8 147 42C147 76 119 104 85 104C51 104 23 76 23 42C23 8 51 -20 85 -20Z" glyph-name="line.006.020" horiz-adv-x="350" /><glyph d="M85 2 435 107V187L85 82ZM85 -20C119 -20 147 8 147 42C147 76 119 104 85 104C51 104 23 76 23 42C23 8 51 -20 85 -20Z" glyph-name="line.006.021" horiz-adv-x="350" /><glyph d="M85 2 435 114V194L85 82ZM85 -20C119 -20 147 8 147 42C147 76 119 104 85 104C51 104 23 76 23 42C23 8 51 -20 85 -20Z" glyph-name="line.006.022" horiz-adv-x="350" /><glyph d="M85 2 435 121V201L85 82ZM85 -20C119 -20 147 8 147 42C147 76 119 104 85 104C51 104 23 76 23 42C23 8 51 -20 85 -20Z" glyph-name="line.006.023" horiz-adv-x="350" /><glyph d="M85 2 435 128V208L85 82ZM85 -20C119 -20 147 8 147 42C147 76 119 104 85 104C51 104 23 76 23 42C23 8 51 -20 85 -20Z" glyph-name="line.006.024" horiz-adv-x="350" /><glyph d="M85 2 435 135V215L85 82ZM85 -20C119 -20 147 8 147 42C147 76 119 104 85 104C51 104 23 76 23 42C23 8 51 -20 85 -20Z" glyph-name="line.006.025" horiz-adv-x="350" /><glyph d="M85 1 435 141V223L85 83ZM85 -20C119 -20 147 8 147 42C147 76 119 104 85 104C51 104 23 76 23 42C23 8 51 -20 85 -20Z" glyph-name="line.006.026" horiz-adv-x="350" /><glyph d="M85 1 435 148V230L85 83ZM85 -20C119 -20 147 8 147 42C147 76 119 104 85 104C51 104 23 76 23 42C23 8 51 -20 85 -20Z" glyph-name="line.006.027" horiz-adv-x="350" /><glyph d="M85 1 435 155V237L85 83ZM85 -20C119 -20 147 8 147 42C147 76 119 104 85 104C51 104 23 76 23 42C23 8 51 -20 85 -20Z" glyph-name="line.006.028" horiz-adv-x="350" /><glyph d="M85 1 435 162V244L85 83ZM85 -20C119 -20 147 8 147 42C147 76 119 104 85 104C51 104 23 76 23 42C23 8 51 -20 85 -20Z" glyph-name="line.006.029" horiz-adv-x="350" /><glyph d="M85 1 435 169V251L85 83ZM85 -20C119 -20 147 8 147 42C147 76 119 104 85 104C51 104 23 76 23 42C23 8 51 -20 85 -20Z" glyph-name="line.006.030" horiz-adv-x="350" /><glyph d="M85 0 435 175V259L85 84ZM85 -20C119 -20 147 8 147 42C147 76 119 104 85 104C51 104 23 76 23 42C23 8 51 -20 85 -20Z" glyph-name="line.006.031" horiz-adv-x="350" /><glyph d="M85 0 435 182V266L85 84ZM85 -20C119 -20 147 8 147 42C147 76 119 104 85 104C51 104 23 76 23 42C23 8 51 -20 85 -20Z" glyph-name="line.006.032" horiz-adv-x="350" /><glyph d="M85 0 435 189V273L85 84ZM85 -20C119 -20 147 8 147 42C147 76 119 104 85 104C51 104 23 76 23 42C23 8 51 -20 85 -20Z" glyph-name="line.006.033" horiz-adv-x="350" /><glyph d="M85 0 435 196V280L85 84ZM85 -20C119 -20 147 8 147 42C147 76 119 104 85 104C51 104 23 76 23 42C23 8 51 -20 85 -20Z" glyph-name="line.006.034" horiz-adv-x="350" /><glyph d="M85 0 435 203V287L85 84ZM85 -20C119 -20 147 8 147 42C147 76 119 104 85 104C51 104 23 76 23 42C23 8 51 -20 85 -20Z" glyph-name="line.006.035" horiz-adv-x="350" /><glyph d="M85 -1 435 209V295L85 85ZM85 -20C119 -20 147 8 147 42C147 76 119 104 85 104C51 104 23 76 23 42C23 8 51 -20 85 -20Z" glyph-name="line.006.036" horiz-adv-x="350" /><glyph d="M85 -1 435 216V302L85 85ZM85 -20C119 -20 147 8 147 42C147 76 119 104 85 104C51 104 23 76 23 42C23 8 51 -20 85 -20Z" glyph-name="line.006.037" horiz-adv-x="350" /><glyph d="M85 -1 435 223V309L85 85ZM85 -20C119 -20 147 8 147 42C147 76 119 104 85 104C51 104 23 76 23 42C23 8 51 -20 85 -20Z" glyph-name="line.006.038" horiz-adv-x="350" /><glyph d="M85 -1 435 230V316L85 85ZM85 -20C119 -20 147 8 147 42C147 76 119 104 85 104C51 104 23 76 23 42C23 8 51 -20 85 -20Z" glyph-name="line.006.039" horiz-adv-x="350" /><glyph d="M85 -1 435 237V323L85 85ZM85 -20C119 -20 147 8 147 42C147 76 119 104 85 104C51 104 23 76 23 42C23 8 51 -20 85 -20Z" glyph-name="line.006.040" horiz-adv-x="350" /><glyph d="M85 -2 435 243V331L85 86ZM85 -20C119 -20 147 8 147 42C147 76 119 104 85 104C51 104 23 76 23 42C23 8 51 -20 85 -20Z" glyph-name="line.006.041" horiz-adv-x="350" /><glyph d="M85 -2 435 250V338L85 86ZM85 -20C119 -20 147 8 147 42C147 76 119 104 85 104C51 104 23 76 23 42C23 8 51 -20 85 -20Z" glyph-name="line.006.042" horiz-adv-x="350" /><glyph d="M85 -2 435 257V345L85 86ZM85 -20C119 -20 147 8 147 42C147 76 119 104 85 104C51 104 23 76 23 42C23 8 51 -20 85 -20Z" glyph-name="line.006.043" horiz-adv-x="350" /><glyph d="M85 -2 435 264V352L85 86ZM85 -20C119 -20 147 8 147 42C147 76 119 104 85 104C51 104 23 76 23 42C23 8 51 -20 85 -20Z" glyph-name="line.006.044" horiz-adv-x="350" /><glyph d="M85 -3 435 270V360L85 87ZM85 -20C119 -20 147 8 147 42C147 76 119 104 85 104C51 104 23 76 23 42C23 8 51 -20 85 -20Z" glyph-name="line.006.045" horiz-adv-x="350" /><glyph d="M85 -4 435 276V368L85 88ZM85 -20C119 -20 147 8 147 42C147 76 119 104 85 104C51 104 23 76 23 42C23 8 51 -20 85 -20Z" glyph-name="line.006.046" horiz-adv-x="350" /><glyph d="M85 -4 435 283V375L85 88ZM85 -20C119 -20 147 8 147 42C147 76 119 104 85 104C51 104 23 76 23 42C23 8 51 -20 85 -20Z" glyph-name="line.006.047" horiz-adv-x="350" /><glyph d="M85 -4 435 290V382L85 88ZM85 -20C119 -20 147 8 147 42C147 76 119 104 85 104C51 104 23 76 23 42C23 8 51 -20 85 -20Z" glyph-name="line.006.048" horiz-adv-x="350" /><glyph d="M85 -5 435 296V390L85 89ZM85 -20C119 -20 147 8 147 42C147 76 119 104 85 104C51 104 23 76 23 42C23 8 51 -20 85 -20Z" glyph-name="line.006.049" horiz-adv-x="350" /><glyph d="M85 -5 435 303V397L85 89ZM85 -20C119 -20 147 8 147 42C147 76 119 104 85 104C51 104 23 76 23 42C23 8 51 -20 85 -20Z" glyph-name="line.006.050" horiz-adv-x="350" /><glyph d="M85 -5 435 310V404L85 89ZM85 -20C119 -20 147 8 147 42C147 76 119 104 85 104C51 104 23 76 23 42C23 8 51 -20 85 -20Z" glyph-name="line.006.051" horiz-adv-x="350" /><glyph d="M85 -6 435 316V412L85 90ZM85 -20C119 -20 147 8 147 42C147 76 119 104 85 104C51 104 23 76 23 42C23 8 51 -20 85 -20Z" glyph-name="line.006.052" horiz-adv-x="350" /><glyph d="M85 -6 435 323V419L85 90ZM85 -20C119 -20 147 8 147 42C147 76 119 104 85 104C51 104 23 76 23 42C23 8 51 -20 85 -20Z" glyph-name="line.006.053" horiz-adv-x="350" /><glyph d="M85 -7 435 329V427L85 91ZM85 -20C119 -20 147 8 147 42C147 76 119 104 85 104C51 104 23 76 23 42C23 8 51 -20 85 -20Z" glyph-name="line.006.054" horiz-adv-x="350" /><glyph d="M85 -7 435 336V434L85 91ZM85 -20C119 -20 147 8 147 42C147 76 119 104 85 104C51 104 23 76 23 42C23 8 51 -20 85 -20Z" glyph-name="line.006.055" horiz-adv-x="350" /><glyph d="M85 -8 435 342V442L85 92ZM85 -20C119 -20 147 8 147 42C147 76 119 104 85 104C51 104 23 76 23 42C23 8 51 -20 85 -20Z" glyph-name="line.006.056" horiz-adv-x="350" /><glyph d="M85 -8 435 349V449L85 92ZM85 -20C119 -20 147 8 147 42C147 76 119 104 85 104C51 104 23 76 23 42C23 8 51 -20 85 -20Z" glyph-name="line.006.057" horiz-adv-x="350" /><glyph d="M85 -9 435 355V457L85 93ZM85 -20C119 -20 147 8 147 42C147 76 119 104 85 104C51 104 23 76 23 42C23 8 51 -20 85 -20Z" glyph-name="line.006.058" horiz-adv-x="350" /><glyph d="M85 -10 435 361V465L85 94ZM85 -20C119 -20 147 8 147 42C147 76 119 104 85 104C51 104 23 76 23 42C23 8 51 -20 85 -20Z" glyph-name="line.006.059" horiz-adv-x="350" /><glyph d="M85 -12 435 366V474L85 96ZM85 -20C119 -20 147 8 147 42C147 76 119 104 85 104C51 104 23 76 23 42C23 8 51 -20 85 -20Z" glyph-name="line.006.060" horiz-adv-x="350" /><glyph d="M85 -12 435 373V481L85 96ZM85 -20C119 -20 147 8 147 42C147 76 119 104 85 104C51 104 23 76 23 42C23 8 51 -20 85 -20Z" glyph-name="line.006.061" horiz-adv-x="350" /><glyph d="M85 -13 435 379V489L85 97ZM85 -20C119 -20 147 8 147 42C147 76 119 104 85 104C51 104 23 76 23 42C23 8 51 -20 85 -20Z" glyph-name="line.006.062" horiz-adv-x="350" /><glyph d="M85 -13 435 386V496L85 97ZM85 -20C119 -20 147 8 147 42C147 76 119 104 85 104C51 104 23 76 23 42C23 8 51 -20 85 -20Z" glyph-name="line.006.063" horiz-adv-x="350" /><glyph d="M85 -14 435 392V504L85 98ZM85 -20C119 -20 147 8 147 42C147 76 119 104 85 104C51 104 23 76 23 42C23 8 51 -20 85 -20Z" glyph-name="line.006.064" horiz-adv-x="350" /><glyph d="M85 -14 435 399V511L85 98ZM85 -20C119 -20 147 8 147 42C147 76 119 104 85 104C51 104 23 76 23 42C23 8 51 -20 85 -20Z" glyph-name="line.006.065" horiz-adv-x="350" /><glyph d="M85 -15 435 405V519L85 99ZM85 -20C119 -20 147 8 147 42C147 76 119 104 85 104C51 104 23 76 23 42C23 8 51 -20 85 -20Z" glyph-name="line.006.066" horiz-adv-x="350" /><glyph d="M85 -15 435 412V526L85 99ZM85 -20C119 -20 147 8 147 42C147 76 119 104 85 104C51 104 23 76 23 42C23 8 51 -20 85 -20Z" glyph-name="line.006.067" horiz-adv-x="350" /><glyph d="M85 -16 435 418V534L85 100ZM85 -20C119 -20 147 8 147 42C147 76 119 104 85 104C51 104 23 76 23 42C23 8 51 -20 85 -20Z" glyph-name="line.006.068" horiz-adv-x="350" /><glyph d="M85 -16 435 425V541L85 100ZM85 -20C119 -20 147 8 147 42C147 76 119 104 85 104C51 104 23 76 23 42C23 8 51 -20 85 -20Z" glyph-name="line.006.069" horiz-adv-x="350" /><glyph d="M85 -17 435 431V549L85 101ZM85 -20C119 -20 147 8 147 42C147 76 119 104 85 104C51 104 23 76 23 42C23 8 51 -20 85 -20Z" glyph-name="line.006.070" horiz-adv-x="350" /><glyph d="M85 -17 435 438V556L85 101ZM85 -20C119 -20 147 8 147 42C147 76 119 104 85 104C51 104 23 76 23 42C23 8 51 -20 85 -20Z" glyph-name="line.006.071" horiz-adv-x="350" /><glyph d="M85 -18 435 444V564L85 102ZM85 -20C119 -20 147 8 147 42C147 76 119 104 85 104C51 104 23 76 23 42C23 8 51 -20 85 -20Z" glyph-name="line.006.072" horiz-adv-x="350" /><glyph d="M85 -18 435 451V571L85 102ZM85 -20C119 -20 147 8 147 42C147 76 119 104 85 104C51 104 23 76 23 42C23 8 51 -20 85 -20Z" glyph-name="line.006.073" horiz-adv-x="350" /><glyph d="M85 -19 435 457V579L85 103ZM85 -20C119 -20 147 8 147 42C147 76 119 104 85 104C51 104 23 76 23 42C23 8 51 -20 85 -20Z" glyph-name="line.006.074" horiz-adv-x="350" /><glyph d="M85 -19 435 465V587L85 103ZM85 -20C119 -20 147 8 147 42C147 76 119 104 85 104C51 104 23 76 23 42C23 8 51 -20 85 -20Z" glyph-name="line.006.075" horiz-adv-x="350" /><glyph d="M85 -20 435 470V594L85 104ZM85 -20C119 -20 147 8 147 42C147 76 119 104 85 104C51 104 23 76 23 42C23 8 51 -20 85 -20Z" glyph-name="line.006.076" horiz-adv-x="350" /><glyph d="M85 -20 435 477V601L85 104ZM85 -20C119 -20 147 8 147 42C147 76 119 104 85 104C51 104 23 76 23 42C23 8 51 -20 85 -20Z" glyph-name="line.006.077" horiz-adv-x="350" /><glyph d="M129 42 479 546H391L41 42ZM85 -20C119 -20 147 8 147 42C147 76 119 104 85 104C51 104 23 76 23 42C23 8 51 -20 85 -20Z" glyph-name="line.006.078" horiz-adv-x="350" /><glyph d="M128 42 478 553H392L42 42ZM85 -20C119 -20 147 8 147 42C147 76 119 104 85 104C51 104 23 76 23 42C23 8 51 -20 85 -20Z" glyph-name="line.006.079" horiz-adv-x="350" /><glyph d="M128 42 478 560H392L42 42ZM85 -20C119 -20 147 8 147 42C147 76 119 104 85 104C51 104 23 76 23 42C23 8 51 -20 85 -20Z" glyph-name="line.006.080" horiz-adv-x="350" /><glyph d="M128 42 478 567H392L42 42ZM85 -20C119 -20 147 8 147 42C147 76 119 104 85 104C51 104 23 76 23 42C23 8 51 -20 85 -20Z" glyph-name="line.006.081" horiz-adv-x="350" /><glyph d="M128 42 478 574H392L42 42ZM85 -20C119 -20 147 8 147 42C147 76 119 104 85 104C51 104 23 76 23 42C23 8 51 -20 85 -20Z" glyph-name="line.006.082" horiz-adv-x="350" /><glyph d="M128 42 478 581H392L42 42ZM85 -20C119 -20 147 8 147 42C147 76 119 104 85 104C51 104 23 76 23 42C23 8 51 -20 85 -20Z" glyph-name="line.006.083" horiz-adv-x="350" /><glyph d="M127 42 477 588H393L43 42ZM85 -20C119 -20 147 8 147 42C147 76 119 104 85 104C51 104 23 76 23 42C23 8 51 -20 85 -20Z" glyph-name="line.006.084" horiz-adv-x="350" /><glyph d="M127 42 477 595H393L43 42ZM85 -20C119 -20 147 8 147 42C147 76 119 104 85 104C51 104 23 76 23 42C23 8 51 -20 85 -20Z" glyph-name="line.006.085" horiz-adv-x="350" /><glyph d="M127 42 477 602H393L43 42ZM85 -20C119 -20 147 8 147 42C147 76 119 104 85 104C51 104 23 76 23 42C23 8 51 -20 85 -20Z" glyph-name="line.006.086" horiz-adv-x="350" /><glyph d="M127 42 477 609H393L43 42ZM85 -20C119 -20 147 8 147 42C147 76 119 104 85 104C51 104 23 76 23 42C23 8 51 -20 85 -20Z" glyph-name="line.006.087" horiz-adv-x="350" /><glyph d="M127 42 477 616H393L43 42ZM85 -20C119 -20 147 8 147 42C147 76 119 104 85 104C51 104 23 76 23 42C23 8 51 -20 85 -20Z" glyph-name="line.006.088" horiz-adv-x="350" /><glyph d="M127 42 477 623H393L43 42ZM85 -20C119 -20 147 8 147 42C147 76 119 104 85 104C51 104 23 76 23 42C23 8 51 -20 85 -20Z" glyph-name="line.006.089" horiz-adv-x="350" /><glyph d="M127 42 477 630H393L43 42ZM85 -20C119 -20 147 8 147 42C147 76 119 104 85 104C51 104 23 76 23 42C23 8 51 -20 85 -20Z" glyph-name="line.006.090" horiz-adv-x="350" /><glyph d="M127 42 477 637H393L43 42ZM85 -20C119 -20 147 8 147 42C147 76 119 104 85 104C51 104 23 76 23 42C23 8 51 -20 85 -20Z" glyph-name="line.006.091" horiz-adv-x="350" /><glyph d="M127 42 477 644H393L43 42ZM85 -20C119 -20 147 8 147 42C147 76 119 104 85 104C51 104 23 76 23 42C23 8 51 -20 85 -20Z" glyph-name="line.006.092" horiz-adv-x="350" /><glyph d="M126 42 476 651H394L44 42ZM85 -20C119 -20 147 8 147 42C147 76 119 104 85 104C51 104 23 76 23 42C23 8 51 -20 85 -20Z" glyph-name="line.006.093" horiz-adv-x="350" /><glyph d="M126 42 476 658H394L44 42ZM85 -20C119 -20 147 8 147 42C147 76 119 104 85 104C51 104 23 76 23 42C23 8 51 -20 85 -20Z" glyph-name="line.006.094" horiz-adv-x="350" /><glyph d="M126 42 476 665H394L44 42ZM85 -20C119 -20 147 8 147 42C147 76 119 104 85 104C51 104 23 76 23 42C23 8 51 -20 85 -20Z" glyph-name="line.006.095" horiz-adv-x="350" /><glyph d="M126 42 476 672H394L44 42ZM85 -20C119 -20 147 8 147 42C147 76 119 104 85 104C51 104 23 76 23 42C23 8 51 -20 85 -20Z" glyph-name="line.006.096" horiz-adv-x="350" /><glyph d="M126 42 476 679H394L44 42ZM85 -20C119 -20 147 8 147 42C147 76 119 104 85 104C51 104 23 76 23 42C23 8 51 -20 85 -20Z" glyph-name="line.006.097" horiz-adv-x="350" /><glyph d="M126 42 476 686H394L44 42ZM85 -20C119 -20 147 8 147 42C147 76 119 104 85 104C51 104 23 76 23 42C23 8 51 -20 85 -20Z" glyph-name="line.006.098" horiz-adv-x="350" /><glyph d="M126 42 476 693H394L44 42ZM85 -20C119 -20 147 8 147 42C147 76 119 104 85 104C51 104 23 76 23 42C23 8 51 -20 85 -20Z" glyph-name="line.006.099" horiz-adv-x="350" /><glyph d="M126 42 476 700H394L44 42ZM85 -20C119 -20 147 8 147 42C147 76 119 104 85 104C51 104 23 76 23 42C23 8 51 -20 85 -20Z" glyph-name="line.006.100" horiz-adv-x="350" /><glyph d="M85 87 435 38V-38L85 11ZM85 111C119 111 147 83 147 49C147 15 119 -13 85 -13C51 -13 23 15 23 49C23 83 51 111 85 111Z" glyph-name="line.007.000" horiz-adv-x="350" /><glyph d="M85 87 435 45V-31L85 11ZM85 111C119 111 147 83 147 49C147 15 119 -13 85 -13C51 -13 23 15 23 49C23 83 51 111 85 111Z" glyph-name="line.007.001" horiz-adv-x="350" /><glyph d="M85 87 435 51V-24L85 11ZM85 111C119 111 147 83 147 49C147 15 119 -13 85 -13C51 -13 23 15 23 49C23 83 51 111 85 111Z" glyph-name="line.007.002" horiz-adv-x="350" /><glyph d="M85 86 435 58V-16L85 12ZM85 111C119 111 147 83 147 49C147 15 119 -13 85 -13C51 -13 23 15 23 49C23 83 51 111 85 111Z" glyph-name="line.007.003" horiz-adv-x="350" /><glyph d="M85 86 435 65V-9L85 12ZM85 111C119 111 147 83 147 49C147 15 119 -13 85 -13C51 -13 23 15 23 49C23 83 51 111 85 111Z" glyph-name="line.007.004" horiz-adv-x="350" /><glyph d="M85 86 435 72V-2L85 12ZM85 111C119 111 147 83 147 49C147 15 119 -13 85 -13C51 -13 23 15 23 49C23 83 51 111 85 111Z" glyph-name="line.007.005" horiz-adv-x="350" /><glyph d="M85 86 435 79V5L85 12ZM85 111C119 111 147 83 147 49C147 15 119 -13 85 -13C51 -13 23 15 23 49C23 83 51 111 85 111Z" glyph-name="line.007.006" horiz-adv-x="350" /><glyph d="M85 12H435V86H85ZM85 -13C119 -13 147 15 147 49C147 83 119 111 85 111C51 111 23 83 23 49C23 15 51 -13 85 -13Z" glyph-name="line.007.007" horiz-adv-x="350" /><glyph d="M85 12 435 19V93L85 86ZM85 -13C119 -13 147 15 147 49C147 83 119 111 85 111C51 111 23 83 23 49C23 15 51 -13 85 -13Z" glyph-name="line.007.008" horiz-adv-x="350" /><glyph d="M85 12 435 26V100L85 86ZM85 -13C119 -13 147 15 147 49C147 83 119 111 85 111C51 111 23 83 23 49C23 15 51 -13 85 -13Z" glyph-name="line.007.009" horiz-adv-x="350" /><glyph d="M85 12 435 33V107L85 86ZM85 -13C119 -13 147 15 147 49C147 83 119 111 85 111C51 111 23 83 23 49C23 15 51 -13 85 -13Z" glyph-name="line.007.010" horiz-adv-x="350" /><glyph d="M85 12 435 40V114L85 86ZM85 -13C119 -13 147 15 147 49C147 83 119 111 85 111C51 111 23 83 23 49C23 15 51 -13 85 -13Z" glyph-name="line.007.011" horiz-adv-x="350" /><glyph d="M85 11 435 47V122L85 87ZM85 -13C119 -13 147 15 147 49C147 83 119 111 85 111C51 111 23 83 23 49C23 15 51 -13 85 -13Z" glyph-name="line.007.012" horiz-adv-x="350" /><glyph d="M85 11 435 53V129L85 87ZM85 -13C119 -13 147 15 147 49C147 83 119 111 85 111C51 111 23 83 23 49C23 15 51 -13 85 -13Z" glyph-name="line.007.013" horiz-adv-x="350" /><glyph d="M85 11 435 60V136L85 87ZM85 -13C119 -13 147 15 147 49C147 83 119 111 85 111C51 111 23 83 23 49C23 15 51 -13 85 -13Z" glyph-name="line.007.014" horiz-adv-x="350" /><glyph d="M85 11 435 67V143L85 87ZM85 -13C119 -13 147 15 147 49C147 83 119 111 85 111C51 111 23 83 23 49C23 15 51 -13 85 -13Z" glyph-name="line.007.015" horiz-adv-x="350" /><glyph d="M85 11 435 74V150L85 87ZM85 -13C119 -13 147 15 147 49C147 83 119 111 85 111C51 111 23 83 23 49C23 15 51 -13 85 -13Z" glyph-name="line.007.016" horiz-adv-x="350" /><glyph d="M85 10 435 80V158L85 88ZM85 -13C119 -13 147 15 147 49C147 83 119 111 85 111C51 111 23 83 23 49C23 15 51 -13 85 -13Z" glyph-name="line.007.017" horiz-adv-x="350" /><glyph d="M85 10 435 87V165L85 88ZM85 -13C119 -13 147 15 147 49C147 83 119 111 85 111C51 111 23 83 23 49C23 15 51 -13 85 -13Z" glyph-name="line.007.018" horiz-adv-x="350" /><glyph d="M85 10 435 94V172L85 88ZM85 -13C119 -13 147 15 147 49C147 83 119 111 85 111C51 111 23 83 23 49C23 15 51 -13 85 -13Z" glyph-name="line.007.019" horiz-adv-x="350" /><glyph d="M85 10 435 101V179L85 88ZM85 -13C119 -13 147 15 147 49C147 83 119 111 85 111C51 111 23 83 23 49C23 15 51 -13 85 -13Z" glyph-name="line.007.020" horiz-adv-x="350" /><glyph d="M85 10 435 108V186L85 88ZM85 -13C119 -13 147 15 147 49C147 83 119 111 85 111C51 111 23 83 23 49C23 15 51 -13 85 -13Z" glyph-name="line.007.021" horiz-adv-x="350" /><glyph d="M85 9 435 114V194L85 89ZM85 -13C119 -13 147 15 147 49C147 83 119 111 85 111C51 111 23 83 23 49C23 15 51 -13 85 -13Z" glyph-name="line.007.022" horiz-adv-x="350" /><glyph d="M85 9 435 121V201L85 89ZM85 -13C119 -13 147 15 147 49C147 83 119 111 85 111C51 111 23 83 23 49C23 15 51 -13 85 -13Z" glyph-name="line.007.023" horiz-adv-x="350" /><glyph d="M85 9 435 128V208L85 89ZM85 -13C119 -13 147 15 147 49C147 83 119 111 85 111C51 111 23 83 23 49C23 15 51 -13 85 -13Z" glyph-name="line.007.024" horiz-adv-x="350" /><glyph d="M85 9 435 135V215L85 89ZM85 -13C119 -13 147 15 147 49C147 83 119 111 85 111C51 111 23 83 23 49C23 15 51 -13 85 -13Z" glyph-name="line.007.025" horiz-adv-x="350" /><glyph d="M85 9 435 142V222L85 89ZM85 -13C119 -13 147 15 147 49C147 83 119 111 85 111C51 111 23 83 23 49C23 15 51 -13 85 -13Z" glyph-name="line.007.026" horiz-adv-x="350" /><glyph d="M85 8 435 148V230L85 90ZM85 -13C119 -13 147 15 147 49C147 83 119 111 85 111C51 111 23 83 23 49C23 15 51 -13 85 -13Z" glyph-name="line.007.027" horiz-adv-x="350" /><glyph d="M85 8 435 155V237L85 90ZM85 -13C119 -13 147 15 147 49C147 83 119 111 85 111C51 111 23 83 23 49C23 15 51 -13 85 -13Z" glyph-name="line.007.028" horiz-adv-x="350" /><glyph d="M85 8 435 162V244L85 90ZM85 -13C119 -13 147 15 147 49C147 83 119 111 85 111C51 111 23 83 23 49C23 15 51 -13 85 -13Z" glyph-name="line.007.029" horiz-adv-x="350" /><glyph d="M85 8 435 169V251L85 90ZM85 -13C119 -13 147 15 147 49C147 83 119 111 85 111C51 111 23 83 23 49C23 15 51 -13 85 -13Z" glyph-name="line.007.030" horiz-adv-x="350" /><glyph d="M85 8 435 176V258L85 90ZM85 -13C119 -13 147 15 147 49C147 83 119 111 85 111C51 111 23 83 23 49C23 15 51 -13 85 -13Z" glyph-name="line.007.031" horiz-adv-x="350" /><glyph d="M85 7 435 182V266L85 91ZM85 -13C119 -13 147 15 147 49C147 83 119 111 85 111C51 111 23 83 23 49C23 15 51 -13 85 -13Z" glyph-name="line.007.032" horiz-adv-x="350" /><glyph d="M85 7 435 189V273L85 91ZM85 -13C119 -13 147 15 147 49C147 83 119 111 85 111C51 111 23 83 23 49C23 15 51 -13 85 -13Z" glyph-name="line.007.033" horiz-adv-x="350" /><glyph d="M85 7 435 196V280L85 91ZM85 -13C119 -13 147 15 147 49C147 83 119 111 85 111C51 111 23 83 23 49C23 15 51 -13 85 -13Z" glyph-name="line.007.034" horiz-adv-x="350" /><glyph d="M85 7 435 203V287L85 91ZM85 -13C119 -13 147 15 147 49C147 83 119 111 85 111C51 111 23 83 23 49C23 15 51 -13 85 -13Z" glyph-name="line.007.035" horiz-adv-x="350" /><glyph d="M85 7 435 210V294L85 91ZM85 -13C119 -13 147 15 147 49C147 83 119 111 85 111C51 111 23 83 23 49C23 15 51 -13 85 -13Z" glyph-name="line.007.036" horiz-adv-x="350" /><glyph d="M85 6 435 216V302L85 92ZM85 -13C119 -13 147 15 147 49C147 83 119 111 85 111C51 111 23 83 23 49C23 15 51 -13 85 -13Z" glyph-name="line.007.037" horiz-adv-x="350" /><glyph d="M85 6 435 223V309L85 92ZM85 -13C119 -13 147 15 147 49C147 83 119 111 85 111C51 111 23 83 23 49C23 15 51 -13 85 -13Z" glyph-name="line.007.038" horiz-adv-x="350" /><glyph d="M85 6 435 230V316L85 92ZM85 -13C119 -13 147 15 147 49C147 83 119 111 85 111C51 111 23 83 23 49C23 15 51 -13 85 -13Z" glyph-name="line.007.039" horiz-adv-x="350" /><glyph d="M85 6 435 237V323L85 92ZM85 -13C119 -13 147 15 147 49C147 83 119 111 85 111C51 111 23 83 23 49C23 15 51 -13 85 -13Z" glyph-name="line.007.040" horiz-adv-x="350" /><glyph d="M85 6 435 244V330L85 92ZM85 -13C119 -13 147 15 147 49C147 83 119 111 85 111C51 111 23 83 23 49C23 15 51 -13 85 -13Z" glyph-name="line.007.041" horiz-adv-x="350" /><glyph d="M85 5 435 250V338L85 93ZM85 -13C119 -13 147 15 147 49C147 83 119 111 85 111C51 111 23 83 23 49C23 15 51 -13 85 -13Z" glyph-name="line.007.042" horiz-adv-x="350" /><glyph d="M85 5 435 257V345L85 93ZM85 -13C119 -13 147 15 147 49C147 83 119 111 85 111C51 111 23 83 23 49C23 15 51 -13 85 -13Z" glyph-name="line.007.043" horiz-adv-x="350" /><glyph d="M85 5 435 264V352L85 93ZM85 -13C119 -13 147 15 147 49C147 83 119 111 85 111C51 111 23 83 23 49C23 15 51 -13 85 -13Z" glyph-name="line.007.044" horiz-adv-x="350" /><glyph d="M85 5 435 271V359L85 93ZM85 -13C119 -13 147 15 147 49C147 83 119 111 85 111C51 111 23 83 23 49C23 15 51 -13 85 -13Z" glyph-name="line.007.045" horiz-adv-x="350" /><glyph d="M85 4 435 277V367L85 94ZM85 -13C119 -13 147 15 147 49C147 83 119 111 85 111C51 111 23 83 23 49C23 15 51 -13 85 -13Z" glyph-name="line.007.046" horiz-adv-x="350" /><glyph d="M85 3 435 283V375L85 95ZM85 -13C119 -13 147 15 147 49C147 83 119 111 85 111C51 111 23 83 23 49C23 15 51 -13 85 -13Z" glyph-name="line.007.047" horiz-adv-x="350" /><glyph d="M85 3 435 290V382L85 95ZM85 -13C119 -13 147 15 147 49C147 83 119 111 85 111C51 111 23 83 23 49C23 15 51 -13 85 -13Z" glyph-name="line.007.048" horiz-adv-x="350" /><glyph d="M85 3 435 297V389L85 95ZM85 -13C119 -13 147 15 147 49C147 83 119 111 85 111C51 111 23 83 23 49C23 15 51 -13 85 -13Z" glyph-name="line.007.049" horiz-adv-x="350" /><glyph d="M85 2 435 303V397L85 96ZM85 -13C119 -13 147 15 147 49C147 83 119 111 85 111C51 111 23 83 23 49C23 15 51 -13 85 -13Z" glyph-name="line.007.050" horiz-adv-x="350" /><glyph d="M85 2 435 310V404L85 96ZM85 -13C119 -13 147 15 147 49C147 83 119 111 85 111C51 111 23 83 23 49C23 15 51 -13 85 -13Z" glyph-name="line.007.051" horiz-adv-x="350" /><glyph d="M85 2 435 317V411L85 96ZM85 -13C119 -13 147 15 147 49C147 83 119 111 85 111C51 111 23 83 23 49C23 15 51 -13 85 -13Z" glyph-name="line.007.052" horiz-adv-x="350" /><glyph d="M85 1 435 323V419L85 97ZM85 -13C119 -13 147 15 147 49C147 83 119 111 85 111C51 111 23 83 23 49C23 15 51 -13 85 -13Z" glyph-name="line.007.053" horiz-adv-x="350" /><glyph d="M85 1 435 330V426L85 97ZM85 -13C119 -13 147 15 147 49C147 83 119 111 85 111C51 111 23 83 23 49C23 15 51 -13 85 -13Z" glyph-name="line.007.054" horiz-adv-x="350" /><glyph d="M85 0 435 336V434L85 98ZM85 -13C119 -13 147 15 147 49C147 83 119 111 85 111C51 111 23 83 23 49C23 15 51 -13 85 -13Z" glyph-name="line.007.055" horiz-adv-x="350" /><glyph d="M85 0 435 343V441L85 98ZM85 -13C119 -13 147 15 147 49C147 83 119 111 85 111C51 111 23 83 23 49C23 15 51 -13 85 -13Z" glyph-name="line.007.056" horiz-adv-x="350" /><glyph d="M85 -1 435 349V449L85 99ZM85 -13C119 -13 147 15 147 49C147 83 119 111 85 111C51 111 23 83 23 49C23 15 51 -13 85 -13Z" glyph-name="line.007.057" horiz-adv-x="350" /><glyph d="M85 -1 435 356V456L85 99ZM85 -13C119 -13 147 15 147 49C147 83 119 111 85 111C51 111 23 83 23 49C23 15 51 -13 85 -13Z" glyph-name="line.007.058" horiz-adv-x="350" /><glyph d="M85 -2 435 362V464L85 100ZM85 -13C119 -13 147 15 147 49C147 83 119 111 85 111C51 111 23 83 23 49C23 15 51 -13 85 -13Z" glyph-name="line.007.059" horiz-adv-x="350" /><glyph d="M85 -3 435 368V472L85 101ZM85 -13C119 -13 147 15 147 49C147 83 119 111 85 111C51 111 23 83 23 49C23 15 51 -13 85 -13Z" glyph-name="line.007.060" horiz-adv-x="350" /><glyph d="M85 -5 435 373V481L85 103ZM85 -13C119 -13 147 15 147 49C147 83 119 111 85 111C51 111 23 83 23 49C23 15 51 -13 85 -13Z" glyph-name="line.007.061" horiz-adv-x="350" /><glyph d="M85 -5 435 380V488L85 103ZM85 -13C119 -13 147 15 147 49C147 83 119 111 85 111C51 111 23 83 23 49C23 15 51 -13 85 -13Z" glyph-name="line.007.062" horiz-adv-x="350" /><glyph d="M85 -6 435 386V496L85 104ZM85 -13C119 -13 147 15 147 49C147 83 119 111 85 111C51 111 23 83 23 49C23 15 51 -13 85 -13Z" glyph-name="line.007.063" horiz-adv-x="350" /><glyph d="M85 -6 435 393V503L85 104ZM85 -13C119 -13 147 15 147 49C147 83 119 111 85 111C51 111 23 83 23 49C23 15 51 -13 85 -13Z" glyph-name="line.007.064" horiz-adv-x="350" /><glyph d="M85 -7 435 399V511L85 105ZM85 -13C119 -13 147 15 147 49C147 83 119 111 85 111C51 111 23 83 23 49C23 15 51 -13 85 -13Z" glyph-name="line.007.065" horiz-adv-x="350" /><glyph d="M85 -7 435 406V518L85 105ZM85 -13C119 -13 147 15 147 49C147 83 119 111 85 111C51 111 23 83 23 49C23 15 51 -13 85 -13Z" glyph-name="line.007.066" horiz-adv-x="350" /><glyph d="M85 -8 435 412V526L85 106ZM85 -13C119 -13 147 15 147 49C147 83 119 111 85 111C51 111 23 83 23 49C23 15 51 -13 85 -13Z" glyph-name="line.007.067" horiz-adv-x="350" /><glyph d="M85 -8 435 419V533L85 106ZM85 -13C119 -13 147 15 147 49C147 83 119 111 85 111C51 111 23 83 23 49C23 15 51 -13 85 -13Z" glyph-name="line.007.068" horiz-adv-x="350" /><glyph d="M85 -9 435 425V541L85 107ZM85 -13C119 -13 147 15 147 49C147 83 119 111 85 111C51 111 23 83 23 49C23 15 51 -13 85 -13Z" glyph-name="line.007.069" horiz-adv-x="350" /><glyph d="M85 -9 435 432V548L85 107ZM85 -13C119 -13 147 15 147 49C147 83 119 111 85 111C51 111 23 83 23 49C23 15 51 -13 85 -13Z" glyph-name="line.007.070" horiz-adv-x="350" /><glyph d="M85 -10 435 438V556L85 108ZM85 -13C119 -13 147 15 147 49C147 83 119 111 85 111C51 111 23 83 23 49C23 15 51 -13 85 -13Z" glyph-name="line.007.071" horiz-adv-x="350" /><glyph d="M85 -10 435 445V563L85 108ZM85 -13C119 -13 147 15 147 49C147 83 119 111 85 111C51 111 23 83 23 49C23 15 51 -13 85 -13Z" glyph-name="line.007.072" horiz-adv-x="350" /><glyph d="M85 -11 435 451V571L85 109ZM85 -13C119 -13 147 15 147 49C147 83 119 111 85 111C51 111 23 83 23 49C23 15 51 -13 85 -13Z" glyph-name="line.007.073" horiz-adv-x="350" /><glyph d="M85 -11 435 458V578L85 109ZM85 -13C119 -13 147 15 147 49C147 83 119 111 85 111C51 111 23 83 23 49C23 15 51 -13 85 -13Z" glyph-name="line.007.074" horiz-adv-x="350" /><glyph d="M85 -12 435 464V586L85 110ZM85 -13C119 -13 147 15 147 49C147 83 119 111 85 111C51 111 23 83 23 49C23 15 51 -13 85 -13Z" glyph-name="line.007.075" horiz-adv-x="350" /><glyph d="M85 -12 435 472V594L85 110ZM85 -13C119 -13 147 15 147 49C147 83 119 111 85 111C51 111 23 83 23 49C23 15 51 -13 85 -13Z" glyph-name="line.007.076" horiz-adv-x="350" /><glyph d="M85 -13 435 477V601L85 111ZM85 -13C119 -13 147 15 147 49C147 83 119 111 85 111C51 111 23 83 23 49C23 15 51 -13 85 -13Z" glyph-name="line.007.077" horiz-adv-x="350" /><glyph d="M85 -13 435 484V608L85 111ZM85 -13C119 -13 147 15 147 49C147 83 119 111 85 111C51 111 23 83 23 49C23 15 51 -13 85 -13Z" glyph-name="line.007.078" horiz-adv-x="350" /><glyph d="M129 49 479 553H391L41 49ZM85 -13C119 -13 147 15 147 49C147 83 119 111 85 111C51 111 23 83 23 49C23 15 51 -13 85 -13Z" glyph-name="line.007.079" horiz-adv-x="350" /><glyph d="M128 49 478 560H392L42 49ZM85 -13C119 -13 147 15 147 49C147 83 119 111 85 111C51 111 23 83 23 49C23 15 51 -13 85 -13Z" glyph-name="line.007.080" horiz-adv-x="350" /><glyph d="M128 49 478 567H392L42 49ZM85 -13C119 -13 147 15 147 49C147 83 119 111 85 111C51 111 23 83 23 49C23 15 51 -13 85 -13Z" glyph-name="line.007.081" horiz-adv-x="350" /><glyph d="M128 49 478 574H392L42 49ZM85 -13C119 -13 147 15 147 49C147 83 119 111 85 111C51 111 23 83 23 49C23 15 51 -13 85 -13Z" glyph-name="line.007.082" horiz-adv-x="350" /><glyph d="M128 49 478 581H392L42 49ZM85 -13C119 -13 147 15 147 49C147 83 119 111 85 111C51 111 23 83 23 49C23 15 51 -13 85 -13Z" glyph-name="line.007.083" horiz-adv-x="350" /><glyph d="M128 49 478 588H392L42 49ZM85 -13C119 -13 147 15 147 49C147 83 119 111 85 111C51 111 23 83 23 49C23 15 51 -13 85 -13Z" glyph-name="line.007.084" horiz-adv-x="350" /><glyph d="M127 49 477 595H393L43 49ZM85 -13C119 -13 147 15 147 49C147 83 119 111 85 111C51 111 23 83 23 49C23 15 51 -13 85 -13Z" glyph-name="line.007.085" horiz-adv-x="350" /><glyph d="M127 49 477 602H393L43 49ZM85 -13C119 -13 147 15 147 49C147 83 119 111 85 111C51 111 23 83 23 49C23 15 51 -13 85 -13Z" glyph-name="line.007.086" horiz-adv-x="350" /><glyph d="M127 49 477 609H393L43 49ZM85 -13C119 -13 147 15 147 49C147 83 119 111 85 111C51 111 23 83 23 49C23 15 51 -13 85 -13Z" glyph-name="line.007.087" horiz-adv-x="350" /><glyph d="M127 49 477 616H393L43 49ZM85 -13C119 -13 147 15 147 49C147 83 119 111 85 111C51 111 23 83 23 49C23 15 51 -13 85 -13Z" glyph-name="line.007.088" horiz-adv-x="350" /><glyph d="M127 49 477 623H393L43 49ZM85 -13C119 -13 147 15 147 49C147 83 119 111 85 111C51 111 23 83 23 49C23 15 51 -13 85 -13Z" glyph-name="line.007.089" horiz-adv-x="350" /><glyph d="M127 49 477 630H393L43 49ZM85 -13C119 -13 147 15 147 49C147 83 119 111 85 111C51 111 23 83 23 49C23 15 51 -13 85 -13Z" glyph-name="line.007.090" horiz-adv-x="350" /><glyph d="M127 49 477 637H393L43 49ZM85 -13C119 -13 147 15 147 49C147 83 119 111 85 111C51 111 23 83 23 49C23 15 51 -13 85 -13Z" glyph-name="line.007.091" horiz-adv-x="350" /><glyph d="M127 49 477 644H393L43 49ZM85 -13C119 -13 147 15 147 49C147 83 119 111 85 111C51 111 23 83 23 49C23 15 51 -13 85 -13Z" glyph-name="line.007.092" horiz-adv-x="350" /><glyph d="M127 49 477 651H393L43 49ZM85 -13C119 -13 147 15 147 49C147 83 119 111 85 111C51 111 23 83 23 49C23 15 51 -13 85 -13Z" glyph-name="line.007.093" horiz-adv-x="350" /><glyph d="M126 49 476 658H394L44 49ZM85 -13C119 -13 147 15 147 49C147 83 119 111 85 111C51 111 23 83 23 49C23 15 51 -13 85 -13Z" glyph-name="line.007.094" horiz-adv-x="350" /><glyph d="M126 49 476 665H394L44 49ZM85 -13C119 -13 147 15 147 49C147 83 119 111 85 111C51 111 23 83 23 49C23 15 51 -13 85 -13Z" glyph-name="line.007.095" horiz-adv-x="350" /><glyph d="M126 49 476 672H394L44 49ZM85 -13C119 -13 147 15 147 49C147 83 119 111 85 111C51 111 23 83 23 49C23 15 51 -13 85 -13Z" glyph-name="line.007.096" horiz-adv-x="350" /><glyph d="M126 49 476 679H394L44 49ZM85 -13C119 -13 147 15 147 49C147 83 119 111 85 111C51 111 23 83 23 49C23 15 51 -13 85 -13Z" glyph-name="line.007.097" horiz-adv-x="350" /><glyph d="M126 49 476 686H394L44 49ZM85 -13C119 -13 147 15 147 49C147 83 119 111 85 111C51 111 23 83 23 49C23 15 51 -13 85 -13Z" glyph-name="line.007.098" horiz-adv-x="350" /><glyph d="M126 49 476 693H394L44 49ZM85 -13C119 -13 147 15 147 49C147 83 119 111 85 111C51 111 23 83 23 49C23 15 51 -13 85 -13Z" glyph-name="line.007.099" horiz-adv-x="350" /><glyph d="M126 49 476 700H394L44 49ZM85 -13C119 -13 147 15 147 49C147 83 119 111 85 111C51 111 23 83 23 49C23 15 51 -13 85 -13Z" glyph-name="line.007.100" horiz-adv-x="350" /><glyph d="M85 94 435 38V-38L85 18ZM85 118C119 118 147 90 147 56C147 22 119 -6 85 -6C51 -6 23 22 23 56C23 90 51 118 85 118Z" glyph-name="line.008.000" horiz-adv-x="350" /><glyph d="M85 94 435 45V-31L85 18ZM85 118C119 118 147 90 147 56C147 22 119 -6 85 -6C51 -6 23 22 23 56C23 90 51 118 85 118Z" glyph-name="line.008.001" horiz-adv-x="350" /><glyph d="M85 94 435 52V-24L85 18ZM85 118C119 118 147 90 147 56C147 22 119 -6 85 -6C51 -6 23 22 23 56C23 90 51 118 85 118Z" glyph-name="line.008.002" horiz-adv-x="350" /><glyph d="M85 94 435 58V-17L85 18ZM85 118C119 118 147 90 147 56C147 22 119 -6 85 -6C51 -6 23 22 23 56C23 90 51 118 85 118Z" glyph-name="line.008.003" horiz-adv-x="350" /><glyph d="M85 93 435 65V-9L85 19ZM85 118C119 118 147 90 147 56C147 22 119 -6 85 -6C51 -6 23 22 23 56C23 90 51 118 85 118Z" glyph-name="line.008.004" horiz-adv-x="350" /><glyph d="M85 93 435 72V-2L85 19ZM85 118C119 118 147 90 147 56C147 22 119 -6 85 -6C51 -6 23 22 23 56C23 90 51 118 85 118Z" glyph-name="line.008.005" horiz-adv-x="350" /><glyph d="M85 93 435 79V5L85 19ZM85 118C119 118 147 90 147 56C147 22 119 -6 85 -6C51 -6 23 22 23 56C23 90 51 118 85 118Z" glyph-name="line.008.006" horiz-adv-x="350" /><glyph d="M85 93 435 86V12L85 19ZM85 118C119 118 147 90 147 56C147 22 119 -6 85 -6C51 -6 23 22 23 56C23 90 51 118 85 118Z" glyph-name="line.008.007" horiz-adv-x="350" /><glyph d="M85 19H435V93H85ZM85 -6C119 -6 147 22 147 56C147 90 119 118 85 118C51 118 23 90 23 56C23 22 51 -6 85 -6Z" glyph-name="line.008.008" horiz-adv-x="350" /><glyph d="M85 19 435 26V100L85 93ZM85 -6C119 -6 147 22 147 56C147 90 119 118 85 118C51 118 23 90 23 56C23 22 51 -6 85 -6Z" glyph-name="line.008.009" horiz-adv-x="350" /><glyph d="M85 19 435 33V107L85 93ZM85 -6C119 -6 147 22 147 56C147 90 119 118 85 118C51 118 23 90 23 56C23 22 51 -6 85 -6Z" glyph-name="line.008.010" horiz-adv-x="350" /><glyph d="M85 19 435 40V114L85 93ZM85 -6C119 -6 147 22 147 56C147 90 119 118 85 118C51 118 23 90 23 56C23 22 51 -6 85 -6Z" glyph-name="line.008.011" horiz-adv-x="350" /><glyph d="M85 19 435 47V121L85 93ZM85 -6C119 -6 147 22 147 56C147 90 119 118 85 118C51 118 23 90 23 56C23 22 51 -6 85 -6Z" glyph-name="line.008.012" horiz-adv-x="350" /><glyph d="M85 18 435 54V129L85 94ZM85 -6C119 -6 147 22 147 56C147 90 119 118 85 118C51 118 23 90 23 56C23 22 51 -6 85 -6Z" glyph-name="line.008.013" horiz-adv-x="350" /><glyph d="M85 18 435 60V136L85 94ZM85 -6C119 -6 147 22 147 56C147 90 119 118 85 118C51 118 23 90 23 56C23 22 51 -6 85 -6Z" glyph-name="line.008.014" horiz-adv-x="350" /><glyph d="M85 18 435 67V143L85 94ZM85 -6C119 -6 147 22 147 56C147 90 119 118 85 118C51 118 23 90 23 56C23 22 51 -6 85 -6Z" glyph-name="line.008.015" horiz-adv-x="350" /><glyph d="M85 18 435 74V150L85 94ZM85 -6C119 -6 147 22 147 56C147 90 119 118 85 118C51 118 23 90 23 56C23 22 51 -6 85 -6Z" glyph-name="line.008.016" horiz-adv-x="350" /><glyph d="M85 18 435 81V157L85 94ZM85 -6C119 -6 147 22 147 56C147 90 119 118 85 118C51 118 23 90 23 56C23 22 51 -6 85 -6Z" glyph-name="line.008.017" horiz-adv-x="350" /><glyph d="M85 17 435 87V165L85 95ZM85 -6C119 -6 147 22 147 56C147 90 119 118 85 118C51 118 23 90 23 56C23 22 51 -6 85 -6Z" glyph-name="line.008.018" horiz-adv-x="350" /><glyph d="M85 17 435 94V172L85 95ZM85 -6C119 -6 147 22 147 56C147 90 119 118 85 118C51 118 23 90 23 56C23 22 51 -6 85 -6Z" glyph-name="line.008.019" horiz-adv-x="350" /><glyph d="M85 17 435 101V179L85 95ZM85 -6C119 -6 147 22 147 56C147 90 119 118 85 118C51 118 23 90 23 56C23 22 51 -6 85 -6Z" glyph-name="line.008.020" horiz-adv-x="350" /><glyph d="M85 17 435 108V186L85 95ZM85 -6C119 -6 147 22 147 56C147 90 119 118 85 118C51 118 23 90 23 56C23 22 51 -6 85 -6Z" glyph-name="line.008.021" horiz-adv-x="350" /><glyph d="M85 17 435 115V193L85 95ZM85 -6C119 -6 147 22 147 56C147 90 119 118 85 118C51 118 23 90 23 56C23 22 51 -6 85 -6Z" glyph-name="line.008.022" horiz-adv-x="350" /><glyph d="M85 16 435 121V201L85 96ZM85 -6C119 -6 147 22 147 56C147 90 119 118 85 118C51 118 23 90 23 56C23 22 51 -6 85 -6Z" glyph-name="line.008.023" horiz-adv-x="350" /><glyph d="M85 16 435 128V208L85 96ZM85 -6C119 -6 147 22 147 56C147 90 119 118 85 118C51 118 23 90 23 56C23 22 51 -6 85 -6Z" glyph-name="line.008.024" horiz-adv-x="350" /><glyph d="M85 16 435 135V215L85 96ZM85 -6C119 -6 147 22 147 56C147 90 119 118 85 118C51 118 23 90 23 56C23 22 51 -6 85 -6Z" glyph-name="line.008.025" horiz-adv-x="350" /><glyph d="M85 16 435 142V222L85 96ZM85 -6C119 -6 147 22 147 56C147 90 119 118 85 118C51 118 23 90 23 56C23 22 51 -6 85 -6Z" glyph-name="line.008.026" horiz-adv-x="350" /><glyph d="M85 16 435 149V229L85 96ZM85 -6C119 -6 147 22 147 56C147 90 119 118 85 118C51 118 23 90 23 56C23 22 51 -6 85 -6Z" glyph-name="line.008.027" horiz-adv-x="350" /><glyph d="M85 15 435 155V237L85 97ZM85 -6C119 -6 147 22 147 56C147 90 119 118 85 118C51 118 23 90 23 56C23 22 51 -6 85 -6Z" glyph-name="line.008.028" horiz-adv-x="350" /><glyph d="M85 15 435 162V244L85 97ZM85 -6C119 -6 147 22 147 56C147 90 119 118 85 118C51 118 23 90 23 56C23 22 51 -6 85 -6Z" glyph-name="line.008.029" horiz-adv-x="350" /><glyph d="M85 15 435 169V251L85 97ZM85 -6C119 -6 147 22 147 56C147 90 119 118 85 118C51 118 23 90 23 56C23 22 51 -6 85 -6Z" glyph-name="line.008.030" horiz-adv-x="350" /><glyph d="M85 15 435 176V258L85 97ZM85 -6C119 -6 147 22 147 56C147 90 119 118 85 118C51 118 23 90 23 56C23 22 51 -6 85 -6Z" glyph-name="line.008.031" horiz-adv-x="350" /><glyph d="M85 15 435 183V265L85 97ZM85 -6C119 -6 147 22 147 56C147 90 119 118 85 118C51 118 23 90 23 56C23 22 51 -6 85 -6Z" glyph-name="line.008.032" horiz-adv-x="350" /><glyph d="M85 14 435 189V273L85 98ZM85 -6C119 -6 147 22 147 56C147 90 119 118 85 118C51 118 23 90 23 56C23 22 51 -6 85 -6Z" glyph-name="line.008.033" horiz-adv-x="350" /><glyph d="M85 14 435 196V280L85 98ZM85 -6C119 -6 147 22 147 56C147 90 119 118 85 118C51 118 23 90 23 56C23 22 51 -6 85 -6Z" glyph-name="line.008.034" horiz-adv-x="350" /><glyph d="M85 14 435 203V287L85 98ZM85 -6C119 -6 147 22 147 56C147 90 119 118 85 118C51 118 23 90 23 56C23 22 51 -6 85 -6Z" glyph-name="line.008.035" horiz-adv-x="350" /><glyph d="M85 14 435 210V294L85 98ZM85 -6C119 -6 147 22 147 56C147 90 119 118 85 118C51 118 23 90 23 56C23 22 51 -6 85 -6Z" glyph-name="line.008.036" horiz-adv-x="350" /><glyph d="M85 14 435 217V301L85 98ZM85 -6C119 -6 147 22 147 56C147 90 119 118 85 118C51 118 23 90 23 56C23 22 51 -6 85 -6Z" glyph-name="line.008.037" horiz-adv-x="350" /><glyph d="M85 13 435 223V309L85 99ZM85 -6C119 -6 147 22 147 56C147 90 119 118 85 118C51 118 23 90 23 56C23 22 51 -6 85 -6Z" glyph-name="line.008.038" horiz-adv-x="350" /><glyph d="M85 13 435 230V316L85 99ZM85 -6C119 -6 147 22 147 56C147 90 119 118 85 118C51 118 23 90 23 56C23 22 51 -6 85 -6Z" glyph-name="line.008.039" horiz-adv-x="350" /><glyph d="M85 13 435 237V323L85 99ZM85 -6C119 -6 147 22 147 56C147 90 119 118 85 118C51 118 23 90 23 56C23 22 51 -6 85 -6Z" glyph-name="line.008.040" horiz-adv-x="350" /><glyph d="M85 13 435 244V330L85 99ZM85 -6C119 -6 147 22 147 56C147 90 119 118 85 118C51 118 23 90 23 56C23 22 51 -6 85 -6Z" glyph-name="line.008.041" horiz-adv-x="350" /><glyph d="M85 13 435 251V337L85 99ZM85 -6C119 -6 147 22 147 56C147 90 119 118 85 118C51 118 23 90 23 56C23 22 51 -6 85 -6Z" glyph-name="line.008.042" horiz-adv-x="350" /><glyph d="M85 12 435 257V345L85 100ZM85 -6C119 -6 147 22 147 56C147 90 119 118 85 118C51 118 23 90 23 56C23 22 51 -6 85 -6Z" glyph-name="line.008.043" horiz-adv-x="350" /><glyph d="M85 12 435 264V352L85 100ZM85 -6C119 -6 147 22 147 56C147 90 119 118 85 118C51 118 23 90 23 56C23 22 51 -6 85 -6Z" glyph-name="line.008.044" horiz-adv-x="350" /><glyph d="M85 12 435 271V359L85 100ZM85 -6C119 -6 147 22 147 56C147 90 119 118 85 118C51 118 23 90 23 56C23 22 51 -6 85 -6Z" glyph-name="line.008.045" horiz-adv-x="350" /><glyph d="M85 12 435 278V366L85 100ZM85 -6C119 -6 147 22 147 56C147 90 119 118 85 118C51 118 23 90 23 56C23 22 51 -6 85 -6Z" glyph-name="line.008.046" horiz-adv-x="350" /><glyph d="M85 11 435 284V374L85 101ZM85 -6C119 -6 147 22 147 56C147 90 119 118 85 118C51 118 23 90 23 56C23 22 51 -6 85 -6Z" glyph-name="line.008.047" horiz-adv-x="350" /><glyph d="M85 10 435 290V382L85 102ZM85 -6C119 -6 147 22 147 56C147 90 119 118 85 118C51 118 23 90 23 56C23 22 51 -6 85 -6Z" glyph-name="line.008.048" horiz-adv-x="350" /><glyph d="M85 10 435 297V389L85 102ZM85 -6C119 -6 147 22 147 56C147 90 119 118 85 118C51 118 23 90 23 56C23 22 51 -6 85 -6Z" glyph-name="line.008.049" horiz-adv-x="350" /><glyph d="M85 10 435 304V396L85 102ZM85 -6C119 -6 147 22 147 56C147 90 119 118 85 118C51 118 23 90 23 56C23 22 51 -6 85 -6Z" glyph-name="line.008.050" horiz-adv-x="350" /><glyph d="M85 9 435 310V404L85 103ZM85 -6C119 -6 147 22 147 56C147 90 119 118 85 118C51 118 23 90 23 56C23 22 51 -6 85 -6Z" glyph-name="line.008.051" horiz-adv-x="350" /><glyph d="M85 9 435 317V411L85 103ZM85 -6C119 -6 147 22 147 56C147 90 119 118 85 118C51 118 23 90 23 56C23 22 51 -6 85 -6Z" glyph-name="line.008.052" horiz-adv-x="350" /><glyph d="M85 9 435 324V418L85 103ZM85 -6C119 -6 147 22 147 56C147 90 119 118 85 118C51 118 23 90 23 56C23 22 51 -6 85 -6Z" glyph-name="line.008.053" horiz-adv-x="350" /><glyph d="M85 8 435 330V426L85 104ZM85 -6C119 -6 147 22 147 56C147 90 119 118 85 118C51 118 23 90 23 56C23 22 51 -6 85 -6Z" glyph-name="line.008.054" horiz-adv-x="350" /><glyph d="M85 8 435 337V433L85 104ZM85 -6C119 -6 147 22 147 56C147 90 119 118 85 118C51 118 23 90 23 56C23 22 51 -6 85 -6Z" glyph-name="line.008.055" horiz-adv-x="350" /><glyph d="M85 7 435 343V441L85 105ZM85 -6C119 -6 147 22 147 56C147 90 119 118 85 118C51 118 23 90 23 56C23 22 51 -6 85 -6Z" glyph-name="line.008.056" horiz-adv-x="350" /><glyph d="M85 7 435 350V448L85 105ZM85 -6C119 -6 147 22 147 56C147 90 119 118 85 118C51 118 23 90 23 56C23 22 51 -6 85 -6Z" glyph-name="line.008.057" horiz-adv-x="350" /><glyph d="M85 6 435 356V456L85 106ZM85 -6C119 -6 147 22 147 56C147 90 119 118 85 118C51 118 23 90 23 56C23 22 51 -6 85 -6Z" glyph-name="line.008.058" horiz-adv-x="350" /><glyph d="M85 6 435 363V463L85 106ZM85 -6C119 -6 147 22 147 56C147 90 119 118 85 118C51 118 23 90 23 56C23 22 51 -6 85 -6Z" glyph-name="line.008.059" horiz-adv-x="350" /><glyph d="M85 5 435 369V471L85 107ZM85 -6C119 -6 147 22 147 56C147 90 119 118 85 118C51 118 23 90 23 56C23 22 51 -6 85 -6Z" glyph-name="line.008.060" horiz-adv-x="350" /><glyph d="M85 4 435 375V479L85 108ZM85 -6C119 -6 147 22 147 56C147 90 119 118 85 118C51 118 23 90 23 56C23 22 51 -6 85 -6Z" glyph-name="line.008.061" horiz-adv-x="350" /><glyph d="M85 2 435 380V488L85 110ZM85 -6C119 -6 147 22 147 56C147 90 119 118 85 118C51 118 23 90 23 56C23 22 51 -6 85 -6Z" glyph-name="line.008.062" horiz-adv-x="350" /><glyph d="M85 2 435 387V495L85 110ZM85 -6C119 -6 147 22 147 56C147 90 119 118 85 118C51 118 23 90 23 56C23 22 51 -6 85 -6Z" glyph-name="line.008.063" horiz-adv-x="350" /><glyph d="M85 1 435 393V503L85 111ZM85 -6C119 -6 147 22 147 56C147 90 119 118 85 118C51 118 23 90 23 56C23 22 51 -6 85 -6Z" glyph-name="line.008.064" horiz-adv-x="350" /><glyph d="M85 1 435 400V510L85 111ZM85 -6C119 -6 147 22 147 56C147 90 119 118 85 118C51 118 23 90 23 56C23 22 51 -6 85 -6Z" glyph-name="line.008.065" horiz-adv-x="350" /><glyph d="M85 0 435 406V518L85 112ZM85 -6C119 -6 147 22 147 56C147 90 119 118 85 118C51 118 23 90 23 56C23 22 51 -6 85 -6Z" glyph-name="line.008.066" horiz-adv-x="350" /><glyph d="M85 0 435 413V525L85 112ZM85 -6C119 -6 147 22 147 56C147 90 119 118 85 118C51 118 23 90 23 56C23 22 51 -6 85 -6Z" glyph-name="line.008.067" horiz-adv-x="350" /><glyph d="M85 -1 435 419V533L85 113ZM85 -6C119 -6 147 22 147 56C147 90 119 118 85 118C51 118 23 90 23 56C23 22 51 -6 85 -6Z" glyph-name="line.008.068" horiz-adv-x="350" /><glyph d="M85 -1 435 426V540L85 113ZM85 -6C119 -6 147 22 147 56C147 90 119 118 85 118C51 118 23 90 23 56C23 22 51 -6 85 -6Z" glyph-name="line.008.069" horiz-adv-x="350" /><glyph d="M85 -2 435 432V548L85 114ZM85 -6C119 -6 147 22 147 56C147 90 119 118 85 118C51 118 23 90 23 56C23 22 51 -6 85 -6Z" glyph-name="line.008.070" horiz-adv-x="350" /><glyph d="M85 -2 435 439V555L85 114ZM85 -6C119 -6 147 22 147 56C147 90 119 118 85 118C51 118 23 90 23 56C23 22 51 -6 85 -6Z" glyph-name="line.008.071" horiz-adv-x="350" /><glyph d="M85 -3 435 445V563L85 115ZM85 -6C119 -6 147 22 147 56C147 90 119 118 85 118C51 118 23 90 23 56C23 22 51 -6 85 -6Z" glyph-name="line.008.072" horiz-adv-x="350" /><glyph d="M85 -3 435 452V570L85 115ZM85 -6C119 -6 147 22 147 56C147 90 119 118 85 118C51 118 23 90 23 56C23 22 51 -6 85 -6Z" glyph-name="line.008.073" horiz-adv-x="350" /><glyph d="M85 -4 435 458V578L85 116ZM85 -6C119 -6 147 22 147 56C147 90 119 118 85 118C51 118 23 90 23 56C23 22 51 -6 85 -6Z" glyph-name="line.008.074" horiz-adv-x="350" /><glyph d="M85 -4 435 465V585L85 116ZM85 -6C119 -6 147 22 147 56C147 90 119 118 85 118C51 118 23 90 23 56C23 22 51 -6 85 -6Z" glyph-name="line.008.075" horiz-adv-x="350" /><glyph d="M85 -5 435 471V593L85 117ZM85 -6C119 -6 147 22 147 56C147 90 119 118 85 118C51 118 23 90 23 56C23 22 51 -6 85 -6Z" glyph-name="line.008.076" horiz-adv-x="350" /><glyph d="M85 -5 435 479V601L85 117ZM85 -6C119 -6 147 22 147 56C147 90 119 118 85 118C51 118 23 90 23 56C23 22 51 -6 85 -6Z" glyph-name="line.008.077" horiz-adv-x="350" /><glyph d="M85 -6 435 484V608L85 118ZM85 -6C119 -6 147 22 147 56C147 90 119 118 85 118C51 118 23 90 23 56C23 22 51 -6 85 -6Z" glyph-name="line.008.078" horiz-adv-x="350" /><glyph d="M85 -6 435 491V615L85 118ZM85 -6C119 -6 147 22 147 56C147 90 119 118 85 118C51 118 23 90 23 56C23 22 51 -6 85 -6Z" glyph-name="line.008.079" horiz-adv-x="350" /><glyph d="M129 56 479 560H391L41 56ZM85 -6C119 -6 147 22 147 56C147 90 119 118 85 118C51 118 23 90 23 56C23 22 51 -6 85 -6Z" glyph-name="line.008.080" horiz-adv-x="350" /><glyph d="M128 56 478 567H392L42 56ZM85 -6C119 -6 147 22 147 56C147 90 119 118 85 118C51 118 23 90 23 56C23 22 51 -6 85 -6Z" glyph-name="line.008.081" horiz-adv-x="350" /><glyph d="M128 56 478 574H392L42 56ZM85 -6C119 -6 147 22 147 56C147 90 119 118 85 118C51 118 23 90 23 56C23 22 51 -6 85 -6Z" glyph-name="line.008.082" horiz-adv-x="350" /><glyph d="M128 56 478 581H392L42 56ZM85 -6C119 -6 147 22 147 56C147 90 119 118 85 118C51 118 23 90 23 56C23 22 51 -6 85 -6Z" glyph-name="line.008.083" horiz-adv-x="350" /><glyph d="M128 56 478 588H392L42 56ZM85 -6C119 -6 147 22 147 56C147 90 119 118 85 118C51 118 23 90 23 56C23 22 51 -6 85 -6Z" glyph-name="line.008.084" horiz-adv-x="350" /><glyph d="M128 56 478 595H392L42 56ZM85 -6C119 -6 147 22 147 56C147 90 119 118 85 118C51 118 23 90 23 56C23 22 51 -6 85 -6Z" glyph-name="line.008.085" horiz-adv-x="350" /><glyph d="M127 56 477 602H393L43 56ZM85 -6C119 -6 147 22 147 56C147 90 119 118 85 118C51 118 23 90 23 56C23 22 51 -6 85 -6Z" glyph-name="line.008.086" horiz-adv-x="350" /><glyph d="M127 56 477 609H393L43 56ZM85 -6C119 -6 147 22 147 56C147 90 119 118 85 118C51 118 23 90 23 56C23 22 51 -6 85 -6Z" glyph-name="line.008.087" horiz-adv-x="350" /></font>
</defs>
</svg>
