<?xml version="1.0" standalone="no"?><!DOCTYPE svg PUBLIC "-//W3C//DTD SVG 1.1//EN" "http://www.w3.org/Graphics/SVG/1.1/DTD/svg11.dtd" ><svg version="1.1" xmlns="http://www.w3.org/2000/svg"><defs><font horiz-adv-x="0" id="font"><font-face ascent="700" bbox="-65 -743 698 745" cap-height="700" descent="-250" font-family="Sparks" font-stretch="normal" font-style="normal" font-weight="400" units-per-em="1000" x-height="500" /><missing-glyph d="M52 0H448V500H52ZM86 34V467H414V34ZM225.8 192H269L270.8 225.6C326.6 230.4 360.8 264 360.8 316.2C360.8 375.6 316.4 408 256.4 408C192.8 408 146.6 376.2 140 310.2H189.8C195.8 346.2 219.8 363.6 254.6 363.6C287.6 363.6 309.8 345.6 309.8 316.2C309.8 279.6 286.4 264 223.4 262.8ZM216.8 162V102H278V162Z" horiz-adv-x="500" /><glyph glyph-name=".null" horiz-adv-x="500" /><glyph d="M79 98H358V170H79ZM1 0H86L206 346C211 361 219 385 224 404H226C230 385 238 361 243 346L361 0H449L267 500H183Z" glyph-name="A" horiz-adv-x="450" unicode="A" /><glyph d="M298 0H591V72H380V219H552V291H380V428H585V500H298ZM105 98H350V170H105ZM-12 0H79L258 362C267 381 277 405 283 422H298L339 500H245Z" glyph-name="AE" horiz-adv-x="618" unicode="&#198;" /><glyph d="M79 98H358V170H79ZM1 0H86L206 346C211 361 219 385 224 404H226C230 385 238 361 243 346L361 0H449L267 500H183ZM258 560 362 670H258L191 560Z" glyph-name="Aacute" horiz-adv-x="450" unicode="&#193;" /><glyph d="M79 98H358V170H79ZM1 0H86L206 346C211 361 219 385 224 404H226C230 385 238 361 243 346L361 0H449L267 500H183ZM273 670H177L66 570H161L225 629L289 570H384Z" glyph-name="Acircumflex" horiz-adv-x="450" unicode="&#194;" /><glyph d="M79 98H358V170H79ZM1 0H86L206 346C211 361 219 385 224 404H226C230 385 238 361 243 346L361 0H449L267 500H183ZM95 670V574H191V670ZM260 670V574H356V670Z" glyph-name="Adieresis" horiz-adv-x="450" unicode="&#196;" /><glyph d="M79 98H358V170H79ZM1 0H86L206 346C211 361 219 385 224 404H226C230 385 238 361 243 346L361 0H449L267 500H183ZM191 560H258L191 670H87Z" glyph-name="Agrave" horiz-adv-x="450" unicode="&#192;" /><glyph d="M79 98H358V170H79ZM1 0H86L206 346C211 361 219 385 224 404H226C230 385 238 361 243 346L361 0H449L267 500H183ZM223 556C274 556 315 595 315 645C315 695 274 734 223 734C172 734 131 695 131 645C131 595 172 556 223 556ZM223 604C198 604 181 621 181 645C181 669 198 686 223 686C248 686 265 669 265 645C265 621 248 604 223 604Z" glyph-name="Aring" horiz-adv-x="450" unicode="&#197;" /><glyph d="M79 98H358V170H79ZM1 0H86L206 346C211 361 219 385 224 404H226C230 385 238 361 243 346L361 0H449L267 500H183ZM302 670C300 646 289 632 268 632C238 632 216 670 169 670C118 670 86 629 83 570H137C140 594 151 608 172 608C204 608 222 570 271 570C322 570 353 611 356 670Z" glyph-name="Atilde" horiz-adv-x="450" unicode="&#195;" /><glyph d="M254 0C365 0 429 53 429 146C429 205 400 240 351 263V265C386 283 413 320 413 368C413 455 355 500 248 500H52V0ZM134 294V428H240C297 428 328 410 328 363C328 317 297 294 240 294ZM244 73H134V225H244C312 225 344 201 344 150C344 99 312 73 244 73Z" glyph-name="B" horiz-adv-x="456" unicode="B" /><glyph d="M25 122H268V178H25ZM279 0C390 0 454 53 454 146C454 205 425 240 376 263V265C411 283 438 320 438 368C438 455 380 500 273 500H77V0ZM159 294V428H265C322 428 353 410 353 363C353 317 322 294 265 294ZM269 73H159V225H269C337 225 369 201 369 150C369 99 337 73 269 73Z" glyph-name="Bstroke" horiz-adv-x="481" unicode="&#579;" /><glyph d="M457 156H369C354 100 321 66 252 66C165 66 112 132 112 248C112 365 165 434 252 434C321 434 358 396 368 339H455C444 445 366 510 256 510C125 510 26 423 26 252C26 82 117 -10 248 -10C357 -10 437 49 457 156Z" glyph-name="C" horiz-adv-x="473" unicode="C" /><glyph d="M457 156H369C354 100 321 66 252 66C165 66 112 132 112 248C112 365 165 434 252 434C321 434 358 396 368 339H455C444 445 366 510 256 510C125 510 26 423 26 252C26 82 117 -10 248 -10C357 -10 437 49 457 156ZM232 5 209 -65 226 -84C233 -82 243 -80 252 -80C277 -80 295 -91 295 -111C295 -132 277 -142 249 -142C224 -142 203 -135 188 -127L176 -160C195 -175 235 -187 263 -187C325 -187 357 -157 357 -110C357 -64 330 -36 286 -36C276 -36 262 -37 252 -40L267 5Z" glyph-name="Ccedilla" horiz-adv-x="473" unicode="&#199;" /><glyph d="M52 0H178C339 0 436 80 436 250C436 421 346 500 184 500H52ZM180 428C303 428 353 377 353 254C353 132 305 72 182 72H134V428Z" glyph-name="D" horiz-adv-x="462" unicode="D" /><glyph d="M52 0H361V72H134V219H316V291H134V428H355V500H52Z" glyph-name="E" horiz-adv-x="388" unicode="E" /><glyph d="M52 0H361V72H134V219H316V291H134V428H355V500H52ZM223 560 327 670H223L156 560Z" glyph-name="Eacute" horiz-adv-x="388" unicode="&#201;" /><glyph d="M52 0H361V72H134V219H316V291H134V428H355V500H52ZM252 670H156L45 570H140L204 629L268 570H363Z" glyph-name="Ecircumflex" horiz-adv-x="388" unicode="&#202;" /><glyph d="M52 0H361V72H134V219H316V291H134V428H355V500H52ZM71 670V574H167V670ZM236 670V574H332V670Z" glyph-name="Edieresis" horiz-adv-x="388" unicode="&#203;" /><glyph d="M52 0H361V72H134V219H316V291H134V428H355V500H52ZM179 560H246L179 670H75Z" glyph-name="Egrave" horiz-adv-x="388" unicode="&#200;" /><glyph d="M25 225H277V285H25ZM77 0H203C364 0 461 80 461 250C461 421 371 500 209 500H77ZM205 428C328 428 378 377 378 254C378 132 330 72 207 72H159V428Z" glyph-name="Eth" horiz-adv-x="487" unicode="&#208;" /><glyph d="M350 111C341 81 315 62 280 62C190 62 159 141 159 248C159 356 184 438 274 438C311 438 343 414 351 379H430C415 457 353 509 276 509C147 509 76 408 76 252C76 97 145 -9 274 -9C347 -9 412 41 432 111ZM32 273H309L320 333H32ZM32 161H289L300 221H32Z" glyph-name="Euro" horiz-adv-x="440" unicode="&#8364;" /><glyph d="M52 0H134V210H320V282H134V428H359V500H52Z" glyph-name="F" horiz-adv-x="374" unicode="F" /><glyph d="M472 241V252H239V180H383C379 116 338 66 255 66C168 66 112 132 112 248C112 365 170 434 257 434C324 434 362 403 373 349H459C447 451 368 510 261 510C130 510 26 423 26 252C26 82 120 -10 251 -10C398 -10 472 81 472 241Z" glyph-name="G" horiz-adv-x="497" unicode="G" /><glyph d="M52 0H134V218H363V0H445V500H363V290H134V500H52Z" glyph-name="H" horiz-adv-x="497" unicode="H" /><glyph d="M52 0H135V500H52Z" glyph-name="I" horiz-adv-x="187" unicode="I" /><glyph d="M52 0H135V500H52ZM127 560 231 670H127L60 560Z" glyph-name="Iacute" horiz-adv-x="187" unicode="&#205;" /><glyph d="M52 0H135V500H52ZM142 670H46L-65 570H30L94 629L158 570H253Z" glyph-name="Icircumflex" horiz-adv-x="187" unicode="&#206;" /><glyph d="M52 0H135V500H52ZM-37 670V574H59V670ZM128 670V574H224V670Z" glyph-name="Idieresis" horiz-adv-x="187" unicode="&#207;" /><glyph d="M52 0H135V500H52ZM60 560H127L60 670H-44Z" glyph-name="Igrave" horiz-adv-x="187" unicode="&#204;" /><glyph d="M133 161C133 94 116 66 57 66C45 66 24 67 10 69V-7C25 -9 44 -10 59 -10C170 -10 216 28 216 145V500H133Z" glyph-name="J" horiz-adv-x="266" unicode="J" /><glyph d="M56 0H139V140L214 229L361 0H460L268 292L446 500H349L139 251V500H56Z" glyph-name="K" horiz-adv-x="456" unicode="K" /><glyph d="M52 0H361V73H134V500H52Z" glyph-name="L" horiz-adv-x="366" unicode="L" /><glyph d="M347 0 473 335H475C473 295 471 239 471 200V0H553V500H463L304 86H302L142 500H52V0H134V200C134 239 132 295 130 335H132L258 0Z" glyph-name="M" horiz-adv-x="605" unicode="M" /><glyph d="M52 0H134V223C134 256 133 322 131 358H133C144 340 158 318 168 303L373 0H445V500H363V276C363 243 365 176 367 141H365C354 159 340 181 329 197L124 500H52Z" glyph-name="N" horiz-adv-x="497" unicode="N" /><glyph d="M52 0H134V223C134 256 133 322 131 358H133C144 340 158 318 168 303L373 0H445V500H363V276C363 243 365 176 367 141H365C354 159 340 181 329 197L124 500H52ZM332 670C330 646 319 632 298 632C268 632 246 670 199 670C148 670 116 629 113 570H167C170 594 181 608 202 608C234 608 252 570 301 570C352 570 383 611 386 670Z" glyph-name="Ntilde" horiz-adv-x="497" unicode="&#209;" /><glyph d="M260 66C168 66 112 133 112 248C112 364 163 434 256 434C348 434 404 367 404 252C404 136 353 66 260 66ZM256 -10C386 -10 490 76 490 248C490 421 391 510 260 510C130 510 26 424 26 252C26 79 125 -10 256 -10Z" glyph-name="O" horiz-adv-x="516" unicode="O" /><glyph d="M26 250C26 80 123 0 284 0H591V72H380V219H552V291H380V428H585V500H278C116 500 26 421 26 250ZM282 428H298V72H280C157 72 109 132 109 254C109 377 159 428 282 428Z" glyph-name="OE" horiz-adv-x="618" unicode="&#338;" /><glyph d="M260 66C168 66 112 133 112 248C112 364 163 434 256 434C348 434 404 367 404 252C404 136 353 66 260 66ZM256 -10C386 -10 490 76 490 248C490 421 391 510 260 510C130 510 26 424 26 252C26 79 125 -10 256 -10ZM287 560 391 670H287L220 560Z" glyph-name="Oacute" horiz-adv-x="516" unicode="&#211;" /><glyph d="M260 66C168 66 112 133 112 248C112 364 163 434 256 434C348 434 404 367 404 252C404 136 353 66 260 66ZM256 -10C386 -10 490 76 490 248C490 421 391 510 260 510C130 510 26 424 26 252C26 79 125 -10 256 -10ZM306 670H210L99 570H194L258 629L322 570H417Z" glyph-name="Ocircumflex" horiz-adv-x="516" unicode="&#212;" /><glyph d="M260 66C168 66 112 133 112 248C112 364 163 434 256 434C348 434 404 367 404 252C404 136 353 66 260 66ZM256 -10C386 -10 490 76 490 248C490 421 391 510 260 510C130 510 26 424 26 252C26 79 125 -10 256 -10ZM129 670V574H225V670ZM294 670V574H390V670Z" glyph-name="Odieresis" horiz-adv-x="516" unicode="&#214;" /><glyph d="M260 66C168 66 112 133 112 248C112 364 163 434 256 434C348 434 404 367 404 252C404 136 353 66 260 66ZM256 -10C386 -10 490 76 490 248C490 421 391 510 260 510C130 510 26 424 26 252C26 79 125 -10 256 -10ZM223 560H290L223 670H119Z" glyph-name="Ograve" horiz-adv-x="516" unicode="&#210;" /><glyph d="M260 66C168 66 112 133 112 248C112 364 163 434 256 434C348 434 404 367 404 252C404 136 353 66 260 66ZM256 -10C386 -10 490 76 490 248C490 421 391 510 260 510C130 510 26 424 26 252C26 79 125 -10 256 -10ZM44 11 88 -22 473 489 429 522Z" glyph-name="Oslash" horiz-adv-x="516" unicode="&#216;" /><glyph d="M260 66C168 66 112 133 112 248C112 364 163 434 256 434C348 434 404 367 404 252C404 136 353 66 260 66ZM256 -10C386 -10 490 76 490 248C490 421 391 510 260 510C130 510 26 424 26 252C26 79 125 -10 256 -10ZM339 670C337 646 326 632 305 632C275 632 253 670 206 670C155 670 123 629 120 570H174C177 594 188 608 209 608C241 608 259 570 308 570C359 570 390 611 393 670Z" glyph-name="Otilde" horiz-adv-x="516" unicode="&#213;" /><glyph d="M225 428C299 428 330 397 330 342C330 286 299 256 225 256H134V428ZM238 500H52V0H134V184H238C355 184 416 244 416 342C416 440 355 500 238 500Z" glyph-name="P" horiz-adv-x="431" unicode="P" /><glyph d="M260 66C168 66 112 133 112 248C112 364 163 434 256 434C348 434 404 367 404 252C404 136 353 66 260 66ZM256 -10C386 -10 490 76 490 248C490 421 391 510 260 510C130 510 26 424 26 252C26 79 125 -10 256 -10ZM432 -39 482 10 304 185 255 135Z" glyph-name="Q" horiz-adv-x="516" unicode="Q" /><glyph d="M345 0H435L323 207V209C382 232 416 277 416 346C416 442 355 500 239 500H52V0H134V190H245ZM226 428C299 428 330 398 330 345C330 291 299 262 226 262H134V428Z" glyph-name="R" horiz-adv-x="443" unicode="R" /><glyph d="M255 203C316 192 340 175 340 136C340 91 301 63 230 63C147 63 105 105 100 155H20C29 65 96 -10 227 -10C343 -10 423 45 423 145C423 218 377 263 287 279L199 295C142 305 117 323 117 362C117 408 151 437 214 437C290 437 322 403 328 353H410C403 455 322 510 218 510C107 510 34 447 34 358C34 280 80 235 167 219Z" glyph-name="S" horiz-adv-x="445" unicode="S" /><glyph d="M156 0H239V428H392V500H3V428H156Z" glyph-name="T" horiz-adv-x="395" unicode="T" /><glyph d="M238 408H134V500H52V0H134V92H238C355 92 416 152 416 250C416 348 355 408 238 408ZM225 336C299 336 330 305 330 250C330 194 299 164 225 164H134V336Z" glyph-name="Thorn" horiz-adv-x="428" unicode="&#222;" /><glyph d="M361 196C361 106 322 66 247 66C172 66 133 106 133 196V500H50V192C50 46 128 -10 247 -10C366 -10 444 46 444 192V500H361Z" glyph-name="U" horiz-adv-x="494" unicode="U" /><glyph d="M361 196C361 106 322 66 247 66C172 66 133 106 133 196V500H50V192C50 46 128 -10 247 -10C366 -10 444 46 444 192V500H361ZM275 560 379 670H275L208 560Z" glyph-name="Uacute" horiz-adv-x="494" unicode="&#218;" /><glyph d="M361 196C361 106 322 66 247 66C172 66 133 106 133 196V500H50V192C50 46 128 -10 247 -10C366 -10 444 46 444 192V500H361ZM296 670H200L89 570H184L248 629L312 570H407Z" glyph-name="Ucircumflex" horiz-adv-x="494" unicode="&#219;" /><glyph d="M361 196C361 106 322 66 247 66C172 66 133 106 133 196V500H50V192C50 46 128 -10 247 -10C366 -10 444 46 444 192V500H361ZM117 670V574H213V670ZM282 670V574H378V670Z" glyph-name="Udieresis" horiz-adv-x="494" unicode="&#220;" /><glyph d="M361 196C361 106 322 66 247 66C172 66 133 106 133 196V500H50V192C50 46 128 -10 247 -10C366 -10 444 46 444 192V500H361ZM219 560H286L219 670H115Z" glyph-name="Ugrave" horiz-adv-x="494" unicode="&#217;" /><glyph d="M453 500H368L248 154C243 139 235 115 230 96H228C224 115 216 139 211 154L93 500H5L187 0H271Z" glyph-name="V" horiz-adv-x="458" unicode="V" /><glyph d="M384 500H308L217 162C212 145 205 118 200 96H198C193 118 187 144 182 162L93 500H5L155 0H243L306 210C316 244 335 317 343 357H345C354 316 373 244 383 211L446 0H534L684 500H599L508 162C503 145 496 118 491 96H489C484 118 478 144 473 162Z" glyph-name="W" horiz-adv-x="689" unicode="W" /><glyph d="M92 0 209 186H211L328 0H427L262 257L418 500H321L212 326H210L101 500H2L159 256L-5 0Z" glyph-name="X" horiz-adv-x="422" unicode="X" /><glyph d="M173 0H256V197L438 500H347L279 386C254 344 232 305 215 273H213C197 304 175 343 150 386L84 500H-10L173 195Z" glyph-name="Y" horiz-adv-x="428" unicode="Y" /><glyph d="M173 0H256V197L438 500H347L279 386C254 344 232 305 215 273H213C197 304 175 343 150 386L84 500H-10L173 195ZM238 560 342 670H238L171 560Z" glyph-name="Yacute" horiz-adv-x="428" unicode="&#221;" /><glyph d="M400 72H114V74L383 435V499H26V427H285V425L14 64V0H400Z" glyph-name="Z" horiz-adv-x="414" unicode="Z" /><glyph d="M79 98H358V170H79ZM1 0H86L206 346C211 361 219 385 224 404H226C230 385 238 361 243 346L361 0H449L267 500H183Z" glyph-name="a" horiz-adv-x="450" unicode="a" /><glyph d="M79 98H358V170H79ZM1 0H86L206 346C211 361 219 385 224 404H226C230 385 238 361 243 346L361 0H449L267 500H183ZM258 560 362 670H258L191 560Z" glyph-name="aacute" horiz-adv-x="450" unicode="&#225;" /><glyph d="M79 98H358V170H79ZM1 0H86L206 346C211 361 219 385 224 404H226C230 385 238 361 243 346L361 0H449L267 500H183ZM273 670H177L66 570H161L225 629L289 570H384Z" glyph-name="acircumflex" horiz-adv-x="450" unicode="&#226;" /><glyph d="M117 560 221 670H117L50 560Z" glyph-name="acute" horiz-adv-x="271" unicode="&#180;" /><glyph d="M79 98H358V170H79ZM1 0H86L206 346C211 361 219 385 224 404H226C230 385 238 361 243 346L361 0H449L267 500H183ZM95 670V574H191V670ZM260 670V574H356V670Z" glyph-name="adieresis" horiz-adv-x="450" unicode="&#228;" /><glyph d="M298 0H591V72H380V219H552V291H380V428H585V500H298ZM105 98H350V170H105ZM-12 0H79L258 362C267 381 277 405 283 422H298L339 500H245Z" glyph-name="ae" horiz-adv-x="618" unicode="&#230;" /><glyph d="M79 98H358V170H79ZM1 0H86L206 346C211 361 219 385 224 404H226C230 385 238 361 243 346L361 0H449L267 500H183ZM191 560H258L191 670H87Z" glyph-name="agrave" horiz-adv-x="450" unicode="&#224;" /><glyph d="M192 508C120 508 60 462 60 394C60 355 80 314 112 279C45 245 7 204 7 136C7 46 69 -8 183 -8C248 -8 298 12 338 45L384 0H488L392 99C420 144 436 202 440 269H358C356 223 349 185 336 155L230 265C292 298 319 340 319 394C319 463 269 508 192 508ZM137 392C137 419 158 442 190 442C224 442 244 417 244 390C244 356 228 334 185 309C149 343 137 365 137 392ZM91 136C91 171 109 199 158 229L288 97C260 73 227 61 189 61C130 61 91 92 91 136Z" glyph-name="ampersand" horiz-adv-x="463" unicode="&amp;" /><glyph d="M79 98H358V170H79ZM1 0H86L206 346C211 361 219 385 224 404H226C230 385 238 361 243 346L361 0H449L267 500H183ZM223 556C274 556 315 595 315 645C315 695 274 734 223 734C172 734 131 695 131 645C131 595 172 556 223 556ZM223 604C198 604 181 621 181 645C181 669 198 686 223 686C248 686 265 669 265 645C265 621 248 604 223 604Z" glyph-name="aring" horiz-adv-x="450" unicode="&#229;" /><glyph d="M152.11 500.18V436.55L405.923 440.085L6.468 40.63L53.13 -6.032L452.585 393.423L449.05 139.61H512.68L512.68 500.18Z" glyph-name="arrowNE" horiz-adv-x="557" unicode="&#8599;" /><glyph d="M43.82 139.11H107.45L103.915 392.923L503.37 -6.532L550.032 40.13L150.577 439.585L404.39 436.05V499.68L43.82 499.68Z" glyph-name="arrowNW" horiz-adv-x="556" unicode="&#8598;" /><glyph d="M512.18 360.89H448.55L452.085 107.077L52.63 506.532L5.968 459.87L405.423 60.415L151.61 63.95V0.32L512.18 0.32Z" glyph-name="arrowSE" horiz-adv-x="556" unicode="&#8600;" /><glyph d="M404.89 -0.18V63.45L151.077 59.915L550.532 459.37L503.87 506.032L104.415 106.577L107.95 360.39H44.32L44.32 -0.18Z" glyph-name="arrowSW" horiz-adv-x="556" unicode="&#8601;" /><glyph d="M519 266 474 311 297 129V694H231V129L54 311L9 266L264 11Z" glyph-name="arrowdown" horiz-adv-x="528" unicode="&#8595;" /><glyph d="M265 -5 310 40 128 217H693V283H128L310 460L265 505L10 250Z" glyph-name="arrowleft" horiz-adv-x="708" unicode="&#8592;" /><glyph d="M443 -5 398 40 580 217H15V283H580L398 460L443 505L698 250Z" glyph-name="arrowright" horiz-adv-x="708" unicode="&#8594;" /><glyph d="M9 442 54 397 231 579V14H297V579L474 397L519 442L264 697Z" glyph-name="arrowup" horiz-adv-x="528" unicode="&#8593;" /><glyph d="M169 500 30 200H120L215 425L310 200H400L261 500Z" glyph-name="asciicircum" horiz-adv-x="430" unicode="^" /><glyph d="M354 335C352 299 333 276 301 276C253 276 226 336 147 336C82 336 41 287 38 213H96C99 249 118 272 150 272C196 272 225 212 304 212C369 212 409 261 412 335Z" glyph-name="asciitilde" horiz-adv-x="450" unicode="~" /><glyph d="M52 341 128 396 120 301H185L177 396L253 340L286 396L200 436L285 475L253 532L177 476L185 570H120L128 476L53 531L20 474L104 436L20 397Z" glyph-name="asterisk" horiz-adv-x="306" unicode="*" /><glyph d="M347 372 340 338H338C327 360 302 378 273 378C209 378 157 313 157 233C157 161 197 122 251 122C283 122 313 137 332 166H334C346 139 370 122 411 122C497 122 545 177 545 274C545 424 440 512 290 512C142 512 20 394 20 245C20 90 125 -12 280 -12C330 -12 388 2 420 21L401 72C365 56 323 48 280 48C159 48 87 128 87 245C87 360 174 452 289 452C410 452 480 386 480 267C480 205 455 176 416 176C393 176 382 188 382 210C382 221 383 233 385 246L403 372ZM265 178C235 178 220 200 220 233C220 288 246 322 283 322C311 322 327 297 327 265C327 206 302 178 265 178Z" glyph-name="at" horiz-adv-x="563" unicode="@" /><glyph d="M79 98H358V170H79ZM1 0H86L206 346C211 361 219 385 224 404H226C230 385 238 361 243 346L361 0H449L267 500H183ZM302 670C300 646 289 632 268 632C238 632 216 670 169 670C118 670 86 629 83 570H137C140 594 151 608 172 608C204 608 222 570 271 570C322 570 353 611 356 670Z" glyph-name="atilde" horiz-adv-x="450" unicode="&#227;" /><glyph d="M254 0C365 0 429 53 429 146C429 205 400 240 351 263V265C386 283 413 320 413 368C413 455 355 500 248 500H52V0ZM134 294V428H240C297 428 328 410 328 363C328 317 297 294 240 294ZM244 73H134V225H244C312 225 344 201 344 150C344 99 312 73 244 73Z" glyph-name="b" horiz-adv-x="456" unicode="b" /><glyph d="M431 0H341L0 500H90Z" glyph-name="backslash" horiz-adv-x="436" unicode="\" /><glyph d="M82 -100H160V600H82Z" glyph-name="bar" horiz-adv-x="242" unicode="|" /><glyph d="M57 217C90 213 107 196 107 161V115C107 28 155 -16 268 -16V51C204 51 185 80 185 129V182C185 212 170 239 143 247C170 255 185 282 185 312V365C185 414 204 443 268 443V510C155 510 107 466 107 379V333C107 298 90 281 57 277Z" glyph-name="braceleft" horiz-adv-x="300" unicode="{" /><glyph d="M243 217C210 213 193 196 193 161V115C193 28 145 -16 32 -16V51C96 51 115 80 115 129V182C115 212 130 239 157 247C130 255 115 282 115 312V365C115 414 96 443 32 443V510C145 510 193 466 193 379V333C193 298 210 281 243 277Z" glyph-name="braceright" horiz-adv-x="300" unicode="}" /><glyph d="M82 0H263V69H160V431H263V500H82Z" glyph-name="bracketleft" horiz-adv-x="300" unicode="[" /><glyph d="M218 0H37V69H140V431H37V500H218Z" glyph-name="bracketright" horiz-adv-x="300" unicode="]" /><glyph d="M118 670C122 645 145 624 178 624C211 624 234 645 238 670H306C299 605 247 560 178 560C109 560 57 605 50 670Z" glyph-name="breve" horiz-adv-x="356" unicode="&#728;" /><glyph d="M82 330H160V600H82ZM82 -100H160V170H82Z" glyph-name="brokenbar" horiz-adv-x="242" unicode="&#166;" /><glyph d="M457 156H369C354 100 321 66 252 66C165 66 112 132 112 248C112 365 165 434 252 434C321 434 358 396 368 339H455C444 445 366 510 256 510C125 510 26 423 26 252C26 82 117 -10 248 -10C357 -10 437 49 457 156Z" glyph-name="c" horiz-adv-x="473" unicode="c" /><glyph d="M257 570 368 670H273L209 611L145 670H50L161 570Z" glyph-name="caron" horiz-adv-x="418" unicode="&#711;" /><glyph d="M457 156H369C354 100 321 66 252 66C165 66 112 132 112 248C112 365 165 434 252 434C321 434 358 396 368 339H455C444 445 366 510 256 510C125 510 26 423 26 252C26 82 117 -10 248 -10C357 -10 437 49 457 156ZM232 5 209 -65 226 -84C233 -82 243 -80 252 -80C277 -80 295 -91 295 -111C295 -132 277 -142 249 -142C224 -142 203 -135 188 -127L176 -160C195 -175 235 -187 263 -187C325 -187 357 -157 357 -110C357 -64 330 -36 286 -36C276 -36 262 -37 252 -40L267 5Z" glyph-name="ccedilla" horiz-adv-x="473" unicode="&#231;" /><glyph d="M106 5 83 -65 100 -84C107 -82 117 -80 126 -80C151 -80 169 -91 169 -111C169 -132 151 -142 123 -142C98 -142 77 -135 62 -127L50 -160C69 -175 109 -187 137 -187C199 -187 231 -157 231 -110C231 -64 204 -36 160 -36C150 -36 136 -37 126 -40L141 5Z" glyph-name="cedilla" horiz-adv-x="281" unicode="&#184;" /><glyph d="M156 -80H218L321 580H259ZM340 161C331 104 297 67 239 67C154 67 114 141 114 248C114 356 150 434 235 434C291 434 330 401 340 345H423C409 446 343 509 239 509C116 509 30 416 30 252C30 89 112 -9 235 -9C339 -9 409 56 425 161Z" glyph-name="cent" horiz-adv-x="440" unicode="&#162;" /><glyph d="M85 -45C110 -45 130 -25 130 0C130 25 110 45 85 45C60 45 40 25 40 0C40 -25 60 -45 85 -45Z" glyph-name="chart.dot" horiz-adv-x="170" /><glyph d="M283 113 159 328H407ZM282 -12C430 -12 545 102 545 250C545 398 430 512 282 512C134 512 20 398 20 250C20 102 134 -12 282 -12Z" glyph-name="circle.arrowdown" horiz-adv-x="565" /><glyph d="M282 -12C430 -12 545 102 545 250C545 398 430 512 282 512C134 512 20 398 20 250C20 102 134 -12 282 -12ZM282 387 406 172H158Z" glyph-name="circle.arrowup" horiz-adv-x="565" /><glyph d="M282 -12C430 -12 545 102 545 250C545 398 430 512 282 512C134 512 20 398 20 250C20 102 134 -12 282 -12ZM194 118V386H268C363 386 415 348 415 252C415 157 359 118 265 118ZM264 338H247V166H265C329 166 358 191 358 254C358 318 328 338 264 338Z" glyph-name="circle.d" horiz-adv-x="565" /><glyph d="M282 -12C430 -12 545 102 545 250C545 398 430 512 282 512C134 512 20 398 20 250C20 102 134 -12 282 -12ZM211 118V384H264V166H384V118Z" glyph-name="circle.l" horiz-adv-x="565" /><glyph d="M282 -12C430 -12 545 102 545 250C545 398 430 512 282 512C134 512 20 398 20 250C20 102 134 -12 282 -12ZM308 374 344 218 352 182H355L364 218L400 374H452L380 118H326L297 234L284 295H281L267 234L239 118H185L113 374H166L202 218L210 182H213L222 218L259 374Z" glyph-name="circle.w" horiz-adv-x="565" /><glyph d="M257 670H161L50 570H145L209 629L273 570H368Z" glyph-name="circumflex" horiz-adv-x="418" unicode="&#710;" /><glyph d="M70 120V0H190V120ZM70 370V250H190V370Z" glyph-name="colon" horiz-adv-x="260" unicode=":" /><glyph d="M111 0C111 -42 95 -62 55 -69V-113C122 -104 162 -62 162 14V114H55V0Z" glyph-name="comma" horiz-adv-x="217" unicode="," /><glyph d="M282 48C167 48 87 139 87 250C87 361 167 452 282 452C397 452 478 361 478 250C478 139 397 48 282 48ZM282 -12C430 -12 545 102 545 250C545 398 430 512 282 512C134 512 20 398 20 250C20 102 134 -12 282 -12ZM396 205H336C331 179 313 164 284 164C240 164 220 194 220 249C220 304 240 336 284 336C311 336 330 318 336 292H395C389 349 344 388 286 388C214 388 160 341 160 251C160 162 210 112 281 112C339 112 385 147 396 205Z" glyph-name="copyright" horiz-adv-x="565" unicode="&#169;" /><glyph d="M18 89 64 43 119 98C149 76 185 64 225 64C265 64 301 76 331 98L386 43L432 89L377 144C398 174 410 210 410 249C410 289 398 325 376 355L432 411L386 457L330 401C300 422 264 434 225 434C186 434 149 422 120 401L64 457L18 411L73 356C52 326 40 289 40 249C40 210 52 174 73 144ZM225 146C167 146 124 191 124 249C124 307 167 352 225 352C283 352 326 308 326 249C326 191 283 146 225 146Z" glyph-name="currency" horiz-adv-x="450" unicode="&#164;" /><glyph d="M52 0H178C339 0 436 80 436 250C436 421 346 500 184 500H52ZM180 428C303 428 353 377 353 254C353 132 305 72 182 72H134V428Z" glyph-name="d" horiz-adv-x="462" unicode="d" /><glyph d="M153 477C188 477 213 504 213 538C213 572 190 600 153 600C118 600 93 572 93 538C93 504 118 477 153 477ZM153 411C81 411 25 466 25 538C25 610 81 666 153 666C225 666 281 610 281 538C281 466 225 411 153 411Z" glyph-name="degree" horiz-adv-x="306" unicode="&#176;" /><glyph d="M50 670V574H146V670ZM215 670V574H311V670Z" glyph-name="dieresis" horiz-adv-x="361" unicode="&#168;" /><glyph d="M49 217H401V277H49ZM225 323C197 323 178 343 178 372C178 401 197 421 225 421C253 421 273 401 273 372C273 343 253 323 225 323ZM225 73C197 73 178 93 178 122C178 151 197 171 225 171C253 171 273 151 273 122C273 93 253 73 225 73Z" glyph-name="divide" horiz-adv-x="450" unicode="&#247;" /><glyph d="M252 203C300 189 329 173 329 136C329 84 284 63 228 63C154 63 121 96 113 147H35C40 52 123 -9 222 -9C324 -9 409 42 409 144C409 223 361 252 279 276L199 299C155 312 133 332 133 367C133 415 172 438 221 438C277 438 311 413 320 358H404C396 456 323 509 225 509C129 509 52 460 52 368C52 292 92 250 167 228ZM143 -80H204L307 580H246Z" glyph-name="dollar" horiz-adv-x="440" unicode="$" /><glyph d="M85 -45C110 -45 130 -25 130 0C130 25 110 45 85 45C60 45 40 25 40 0C40 -25 60 -45 85 -45Z" glyph-name="dot.000" horiz-adv-x="170" /><glyph d="M85 -38C110 -38 130 -18 130 7C130 32 110 52 85 52C60 52 40 32 40 7C40 -18 60 -38 85 -38Z" glyph-name="dot.001" horiz-adv-x="170" /><glyph d="M85 -31C110 -31 130 -11 130 14C130 39 110 59 85 59C60 59 40 39 40 14C40 -11 60 -31 85 -31Z" glyph-name="dot.002" horiz-adv-x="170" /><glyph d="M85 -24C110 -24 130 -4 130 21C130 46 110 66 85 66C60 66 40 46 40 21C40 -4 60 -24 85 -24Z" glyph-name="dot.003" horiz-adv-x="170" /><glyph d="M85 -17C110 -17 130 3 130 28C130 53 110 73 85 73C60 73 40 53 40 28C40 3 60 -17 85 -17Z" glyph-name="dot.004" horiz-adv-x="170" /><glyph d="M85 -10C110 -10 130 10 130 35C130 60 110 80 85 80C60 80 40 60 40 35C40 10 60 -10 85 -10Z" glyph-name="dot.005" horiz-adv-x="170" /><glyph d="M85 -3C110 -3 130 17 130 42C130 67 110 87 85 87C60 87 40 67 40 42C40 17 60 -3 85 -3Z" glyph-name="dot.006" horiz-adv-x="170" /><glyph d="M85 4C110 4 130 24 130 49C130 74 110 94 85 94C60 94 40 74 40 49C40 24 60 4 85 4Z" glyph-name="dot.007" horiz-adv-x="170" /><glyph d="M85 11C110 11 130 31 130 56C130 81 110 101 85 101C60 101 40 81 40 56C40 31 60 11 85 11Z" glyph-name="dot.008" horiz-adv-x="170" /><glyph d="M85 18C110 18 130 38 130 63C130 88 110 108 85 108C60 108 40 88 40 63C40 38 60 18 85 18Z" glyph-name="dot.009" horiz-adv-x="170" /><glyph d="M85 25C110 25 130 45 130 70C130 95 110 115 85 115C60 115 40 95 40 70C40 45 60 25 85 25Z" glyph-name="dot.010" horiz-adv-x="170" /><glyph d="M85 32C110 32 130 52 130 77C130 102 110 122 85 122C60 122 40 102 40 77C40 52 60 32 85 32Z" glyph-name="dot.011" horiz-adv-x="170" /><glyph d="M85 39C110 39 130 59 130 84C130 109 110 129 85 129C60 129 40 109 40 84C40 59 60 39 85 39Z" glyph-name="dot.012" horiz-adv-x="170" /><glyph d="M85 46C110 46 130 66 130 91C130 116 110 136 85 136C60 136 40 116 40 91C40 66 60 46 85 46Z" glyph-name="dot.013" horiz-adv-x="170" /><glyph d="M85 53C110 53 130 73 130 98C130 123 110 143 85 143C60 143 40 123 40 98C40 73 60 53 85 53Z" glyph-name="dot.014" horiz-adv-x="170" /><glyph d="M85 60C110 60 130 80 130 105C130 130 110 150 85 150C60 150 40 130 40 105C40 80 60 60 85 60Z" glyph-name="dot.015" horiz-adv-x="170" /><glyph d="M85 67C110 67 130 87 130 112C130 137 110 157 85 157C60 157 40 137 40 112C40 87 60 67 85 67Z" glyph-name="dot.016" horiz-adv-x="170" /><glyph d="M85 74C110 74 130 94 130 119C130 144 110 164 85 164C60 164 40 144 40 119C40 94 60 74 85 74Z" glyph-name="dot.017" horiz-adv-x="170" /><glyph d="M85 81C110 81 130 101 130 126C130 151 110 171 85 171C60 171 40 151 40 126C40 101 60 81 85 81Z" glyph-name="dot.018" horiz-adv-x="170" /><glyph d="M85 88C110 88 130 108 130 133C130 158 110 178 85 178C60 178 40 158 40 133C40 108 60 88 85 88Z" glyph-name="dot.019" horiz-adv-x="170" /><glyph d="M85 95C110 95 130 115 130 140C130 165 110 185 85 185C60 185 40 165 40 140C40 115 60 95 85 95Z" glyph-name="dot.020" horiz-adv-x="170" /><glyph d="M85 102C110 102 130 122 130 147C130 172 110 192 85 192C60 192 40 172 40 147C40 122 60 102 85 102Z" glyph-name="dot.021" horiz-adv-x="170" /><glyph d="M85 109C110 109 130 129 130 154C130 179 110 199 85 199C60 199 40 179 40 154C40 129 60 109 85 109Z" glyph-name="dot.022" horiz-adv-x="170" /><glyph d="M85 116C110 116 130 136 130 161C130 186 110 206 85 206C60 206 40 186 40 161C40 136 60 116 85 116Z" glyph-name="dot.023" horiz-adv-x="170" /><glyph d="M85 123C110 123 130 143 130 168C130 193 110 213 85 213C60 213 40 193 40 168C40 143 60 123 85 123Z" glyph-name="dot.024" horiz-adv-x="170" /><glyph d="M85 130C110 130 130 150 130 175C130 200 110 220 85 220C60 220 40 200 40 175C40 150 60 130 85 130Z" glyph-name="dot.025" horiz-adv-x="170" /><glyph d="M85 137C110 137 130 157 130 182C130 207 110 227 85 227C60 227 40 207 40 182C40 157 60 137 85 137Z" glyph-name="dot.026" horiz-adv-x="170" /><glyph d="M85 144C110 144 130 164 130 189C130 214 110 234 85 234C60 234 40 214 40 189C40 164 60 144 85 144Z" glyph-name="dot.027" horiz-adv-x="170" /><glyph d="M85 151C110 151 130 171 130 196C130 221 110 241 85 241C60 241 40 221 40 196C40 171 60 151 85 151Z" glyph-name="dot.028" horiz-adv-x="170" /><glyph d="M85 158C110 158 130 178 130 203C130 228 110 248 85 248C60 248 40 228 40 203C40 178 60 158 85 158Z" glyph-name="dot.029" horiz-adv-x="170" /><glyph d="M85 165C110 165 130 185 130 210C130 235 110 255 85 255C60 255 40 235 40 210C40 185 60 165 85 165Z" glyph-name="dot.030" horiz-adv-x="170" /><glyph d="M85 172C110 172 130 192 130 217C130 242 110 262 85 262C60 262 40 242 40 217C40 192 60 172 85 172Z" glyph-name="dot.031" horiz-adv-x="170" /><glyph d="M85 179C110 179 130 199 130 224C130 249 110 269 85 269C60 269 40 249 40 224C40 199 60 179 85 179Z" glyph-name="dot.032" horiz-adv-x="170" /><glyph d="M85 186C110 186 130 206 130 231C130 256 110 276 85 276C60 276 40 256 40 231C40 206 60 186 85 186Z" glyph-name="dot.033" horiz-adv-x="170" /><glyph d="M85 193C110 193 130 213 130 238C130 263 110 283 85 283C60 283 40 263 40 238C40 213 60 193 85 193Z" glyph-name="dot.034" horiz-adv-x="170" /><glyph d="M85 200C110 200 130 220 130 245C130 270 110 290 85 290C60 290 40 270 40 245C40 220 60 200 85 200Z" glyph-name="dot.035" horiz-adv-x="170" /><glyph d="M85 207C110 207 130 227 130 252C130 277 110 297 85 297C60 297 40 277 40 252C40 227 60 207 85 207Z" glyph-name="dot.036" horiz-adv-x="170" /><glyph d="M85 214C110 214 130 234 130 259C130 284 110 304 85 304C60 304 40 284 40 259C40 234 60 214 85 214Z" glyph-name="dot.037" horiz-adv-x="170" /><glyph d="M85 221C110 221 130 241 130 266C130 291 110 311 85 311C60 311 40 291 40 266C40 241 60 221 85 221Z" glyph-name="dot.038" horiz-adv-x="170" /><glyph d="M85 228C110 228 130 248 130 273C130 298 110 318 85 318C60 318 40 298 40 273C40 248 60 228 85 228Z" glyph-name="dot.039" horiz-adv-x="170" /><glyph d="M85 235C110 235 130 255 130 280C130 305 110 325 85 325C60 325 40 305 40 280C40 255 60 235 85 235Z" glyph-name="dot.040" horiz-adv-x="170" /><glyph d="M85 242C110 242 130 262 130 287C130 312 110 332 85 332C60 332 40 312 40 287C40 262 60 242 85 242Z" glyph-name="dot.041" horiz-adv-x="170" /><glyph d="M85 249C110 249 130 269 130 294C130 319 110 339 85 339C60 339 40 319 40 294C40 269 60 249 85 249Z" glyph-name="dot.042" horiz-adv-x="170" /><glyph d="M85 256C110 256 130 276 130 301C130 326 110 346 85 346C60 346 40 326 40 301C40 276 60 256 85 256Z" glyph-name="dot.043" horiz-adv-x="170" /><glyph d="M85 263C110 263 130 283 130 308C130 333 110 353 85 353C60 353 40 333 40 308C40 283 60 263 85 263Z" glyph-name="dot.044" horiz-adv-x="170" /><glyph d="M85 270C110 270 130 290 130 315C130 340 110 360 85 360C60 360 40 340 40 315C40 290 60 270 85 270Z" glyph-name="dot.045" horiz-adv-x="170" /><glyph d="M85 277C110 277 130 297 130 322C130 347 110 367 85 367C60 367 40 347 40 322C40 297 60 277 85 277Z" glyph-name="dot.046" horiz-adv-x="170" /><glyph d="M85 284C110 284 130 304 130 329C130 354 110 374 85 374C60 374 40 354 40 329C40 304 60 284 85 284Z" glyph-name="dot.047" horiz-adv-x="170" /><glyph d="M85 291C110 291 130 311 130 336C130 361 110 381 85 381C60 381 40 361 40 336C40 311 60 291 85 291Z" glyph-name="dot.048" horiz-adv-x="170" /><glyph d="M85 298C110 298 130 318 130 343C130 368 110 388 85 388C60 388 40 368 40 343C40 318 60 298 85 298Z" glyph-name="dot.049" horiz-adv-x="170" /><glyph d="M85 305C110 305 130 325 130 350C130 375 110 395 85 395C60 395 40 375 40 350C40 325 60 305 85 305Z" glyph-name="dot.050" horiz-adv-x="170" /><glyph d="M85 312C110 312 130 332 130 357C130 382 110 402 85 402C60 402 40 382 40 357C40 332 60 312 85 312Z" glyph-name="dot.051" horiz-adv-x="170" /><glyph d="M85 319C110 319 130 339 130 364C130 389 110 409 85 409C60 409 40 389 40 364C40 339 60 319 85 319Z" glyph-name="dot.052" horiz-adv-x="170" /><glyph d="M85 326C110 326 130 346 130 371C130 396 110 416 85 416C60 416 40 396 40 371C40 346 60 326 85 326Z" glyph-name="dot.053" horiz-adv-x="170" /><glyph d="M85 333C110 333 130 353 130 378C130 403 110 423 85 423C60 423 40 403 40 378C40 353 60 333 85 333Z" glyph-name="dot.054" horiz-adv-x="170" /><glyph d="M85 340C110 340 130 360 130 385C130 410 110 430 85 430C60 430 40 410 40 385C40 360 60 340 85 340Z" glyph-name="dot.055" horiz-adv-x="170" /><glyph d="M85 347C110 347 130 367 130 392C130 417 110 437 85 437C60 437 40 417 40 392C40 367 60 347 85 347Z" glyph-name="dot.056" horiz-adv-x="170" /><glyph d="M85 354C110 354 130 374 130 399C130 424 110 444 85 444C60 444 40 424 40 399C40 374 60 354 85 354Z" glyph-name="dot.057" horiz-adv-x="170" /><glyph d="M85 361C110 361 130 381 130 406C130 431 110 451 85 451C60 451 40 431 40 406C40 381 60 361 85 361Z" glyph-name="dot.058" horiz-adv-x="170" /><glyph d="M85 368C110 368 130 388 130 413C130 438 110 458 85 458C60 458 40 438 40 413C40 388 60 368 85 368Z" glyph-name="dot.059" horiz-adv-x="170" /><glyph d="M85 375C110 375 130 395 130 420C130 445 110 465 85 465C60 465 40 445 40 420C40 395 60 375 85 375Z" glyph-name="dot.060" horiz-adv-x="170" /><glyph d="M85 382C110 382 130 402 130 427C130 452 110 472 85 472C60 472 40 452 40 427C40 402 60 382 85 382Z" glyph-name="dot.061" horiz-adv-x="170" /><glyph d="M85 389C110 389 130 409 130 434C130 459 110 479 85 479C60 479 40 459 40 434C40 409 60 389 85 389Z" glyph-name="dot.062" horiz-adv-x="170" /><glyph d="M85 396C110 396 130 416 130 441C130 466 110 486 85 486C60 486 40 466 40 441C40 416 60 396 85 396Z" glyph-name="dot.063" horiz-adv-x="170" /><glyph d="M85 403C110 403 130 423 130 448C130 473 110 493 85 493C60 493 40 473 40 448C40 423 60 403 85 403Z" glyph-name="dot.064" horiz-adv-x="170" /><glyph d="M85 410C110 410 130 430 130 455C130 480 110 500 85 500C60 500 40 480 40 455C40 430 60 410 85 410Z" glyph-name="dot.065" horiz-adv-x="170" /><glyph d="M85 417C110 417 130 437 130 462C130 487 110 507 85 507C60 507 40 487 40 462C40 437 60 417 85 417Z" glyph-name="dot.066" horiz-adv-x="170" /><glyph d="M85 424C110 424 130 444 130 469C130 494 110 514 85 514C60 514 40 494 40 469C40 444 60 424 85 424Z" glyph-name="dot.067" horiz-adv-x="170" /><glyph d="M85 431C110 431 130 451 130 476C130 501 110 521 85 521C60 521 40 501 40 476C40 451 60 431 85 431Z" glyph-name="dot.068" horiz-adv-x="170" /><glyph d="M85 438C110 438 130 458 130 483C130 508 110 528 85 528C60 528 40 508 40 483C40 458 60 438 85 438Z" glyph-name="dot.069" horiz-adv-x="170" /><glyph d="M85 445C110 445 130 465 130 490C130 515 110 535 85 535C60 535 40 515 40 490C40 465 60 445 85 445Z" glyph-name="dot.070" horiz-adv-x="170" /><glyph d="M85 452C110 452 130 472 130 497C130 522 110 542 85 542C60 542 40 522 40 497C40 472 60 452 85 452Z" glyph-name="dot.071" horiz-adv-x="170" /><glyph d="M85 459C110 459 130 479 130 504C130 529 110 549 85 549C60 549 40 529 40 504C40 479 60 459 85 459Z" glyph-name="dot.072" horiz-adv-x="170" /><glyph d="M85 466C110 466 130 486 130 511C130 536 110 556 85 556C60 556 40 536 40 511C40 486 60 466 85 466Z" glyph-name="dot.073" horiz-adv-x="170" /><glyph d="M85 473C110 473 130 493 130 518C130 543 110 563 85 563C60 563 40 543 40 518C40 493 60 473 85 473Z" glyph-name="dot.074" horiz-adv-x="170" /><glyph d="M85 480C110 480 130 500 130 525C130 550 110 570 85 570C60 570 40 550 40 525C40 500 60 480 85 480Z" glyph-name="dot.075" horiz-adv-x="170" /><glyph d="M85 487C110 487 130 507 130 532C130 557 110 577 85 577C60 577 40 557 40 532C40 507 60 487 85 487Z" glyph-name="dot.076" horiz-adv-x="170" /><glyph d="M85 494C110 494 130 514 130 539C130 564 110 584 85 584C60 584 40 564 40 539C40 514 60 494 85 494Z" glyph-name="dot.077" horiz-adv-x="170" /><glyph d="M85 501C110 501 130 521 130 546C130 571 110 591 85 591C60 591 40 571 40 546C40 521 60 501 85 501Z" glyph-name="dot.078" horiz-adv-x="170" /><glyph d="M85 508C110 508 130 528 130 553C130 578 110 598 85 598C60 598 40 578 40 553C40 528 60 508 85 508Z" glyph-name="dot.079" horiz-adv-x="170" /><glyph d="M85 515C110 515 130 535 130 560C130 585 110 605 85 605C60 605 40 585 40 560C40 535 60 515 85 515Z" glyph-name="dot.080" horiz-adv-x="170" /><glyph d="M85 522C110 522 130 542 130 567C130 592 110 612 85 612C60 612 40 592 40 567C40 542 60 522 85 522Z" glyph-name="dot.081" horiz-adv-x="170" /><glyph d="M85 529C110 529 130 549 130 574C130 599 110 619 85 619C60 619 40 599 40 574C40 549 60 529 85 529Z" glyph-name="dot.082" horiz-adv-x="170" /><glyph d="M85 536C110 536 130 556 130 581C130 606 110 626 85 626C60 626 40 606 40 581C40 556 60 536 85 536Z" glyph-name="dot.083" horiz-adv-x="170" /><glyph d="M85 543C110 543 130 563 130 588C130 613 110 633 85 633C60 633 40 613 40 588C40 563 60 543 85 543Z" glyph-name="dot.084" horiz-adv-x="170" /><glyph d="M85 550C110 550 130 570 130 595C130 620 110 640 85 640C60 640 40 620 40 595C40 570 60 550 85 550Z" glyph-name="dot.085" horiz-adv-x="170" /><glyph d="M85 557C110 557 130 577 130 602C130 627 110 647 85 647C60 647 40 627 40 602C40 577 60 557 85 557Z" glyph-name="dot.086" horiz-adv-x="170" /><glyph d="M85 564C110 564 130 584 130 609C130 634 110 654 85 654C60 654 40 634 40 609C40 584 60 564 85 564Z" glyph-name="dot.087" horiz-adv-x="170" /><glyph d="M85 571C110 571 130 591 130 616C130 641 110 661 85 661C60 661 40 641 40 616C40 591 60 571 85 571Z" glyph-name="dot.088" horiz-adv-x="170" /><glyph d="M85 578C110 578 130 598 130 623C130 648 110 668 85 668C60 668 40 648 40 623C40 598 60 578 85 578Z" glyph-name="dot.089" horiz-adv-x="170" /><glyph d="M85 585C110 585 130 605 130 630C130 655 110 675 85 675C60 675 40 655 40 630C40 605 60 585 85 585Z" glyph-name="dot.090" horiz-adv-x="170" /><glyph d="M85 592C110 592 130 612 130 637C130 662 110 682 85 682C60 682 40 662 40 637C40 612 60 592 85 592Z" glyph-name="dot.091" horiz-adv-x="170" /><glyph d="M85 599C110 599 130 619 130 644C130 669 110 689 85 689C60 689 40 669 40 644C40 619 60 599 85 599Z" glyph-name="dot.092" horiz-adv-x="170" /><glyph d="M85 606C110 606 130 626 130 651C130 676 110 696 85 696C60 696 40 676 40 651C40 626 60 606 85 606Z" glyph-name="dot.093" horiz-adv-x="170" /><glyph d="M85 613C110 613 130 633 130 658C130 683 110 703 85 703C60 703 40 683 40 658C40 633 60 613 85 613Z" glyph-name="dot.094" horiz-adv-x="170" /><glyph d="M85 620C110 620 130 640 130 665C130 690 110 710 85 710C60 710 40 690 40 665C40 640 60 620 85 620Z" glyph-name="dot.095" horiz-adv-x="170" /><glyph d="M85 627C110 627 130 647 130 672C130 697 110 717 85 717C60 717 40 697 40 672C40 647 60 627 85 627Z" glyph-name="dot.096" horiz-adv-x="170" /><glyph d="M85 634C110 634 130 654 130 679C130 704 110 724 85 724C60 724 40 704 40 679C40 654 60 634 85 634Z" glyph-name="dot.097" horiz-adv-x="170" /><glyph d="M85 641C110 641 130 661 130 686C130 711 110 731 85 731C60 731 40 711 40 686C40 661 60 641 85 641Z" glyph-name="dot.098" horiz-adv-x="170" /><glyph d="M85 648C110 648 130 668 130 693C130 718 110 738 85 738C60 738 40 718 40 693C40 668 60 648 85 648Z" glyph-name="dot.099" horiz-adv-x="170" /><glyph d="M85 655C110 655 130 675 130 700C130 725 110 745 85 745C60 745 40 725 40 700C40 675 60 655 85 655Z" glyph-name="dot.100" horiz-adv-x="170" /><glyph d="M50 670V570H150V670Z" glyph-name="dotaccent" horiz-adv-x="200" unicode="&#729;" /><glyph d="M52 0H135V500H52Z" glyph-name="dotlessi" horiz-adv-x="187" unicode="&#305;" /><glyph d="M52 0H361V72H134V219H316V291H134V428H355V500H52Z" glyph-name="e" horiz-adv-x="388" unicode="e" /><glyph d="M52 0H361V72H134V219H316V291H134V428H355V500H52ZM223 560 327 670H223L156 560Z" glyph-name="eacute" horiz-adv-x="388" unicode="&#233;" /><glyph d="M52 0H361V72H134V219H316V291H134V428H355V500H52ZM252 670H156L45 570H140L204 629L268 570H363Z" glyph-name="ecircumflex" horiz-adv-x="388" unicode="&#234;" /><glyph d="M52 0H361V72H134V219H316V291H134V428H355V500H52ZM71 670V574H167V670ZM236 670V574H332V670Z" glyph-name="edieresis" horiz-adv-x="388" unicode="&#235;" /><glyph d="M52 0H361V72H134V219H316V291H134V428H355V500H52ZM179 560H246L179 670H75Z" glyph-name="egrave" horiz-adv-x="388" unicode="&#232;" /><glyph d="M418 141C418 194 381 237 335 254V256C371 276 400 316 400 364C400 452 331 510 226 510C121 510 50 456 50 368C50 319 80 277 117 256V254C70 236 32 194 32 139C32 40 113 -10 227 -10C341 -10 418 42 418 141ZM226 282C171 282 133 311 133 360C133 409 169 440 224 440C279 440 317 411 317 362C317 313 281 282 226 282ZM224 223C290 223 331 193 331 142C331 91 292 59 226 59C160 59 119 89 119 140C119 191 158 223 224 223Z" glyph-name="eight" horiz-adv-x="450" unicode="8" /><glyph d="M55 105V0H160V105ZM245 105V0H350V105ZM435 105V0H540V105Z" glyph-name="ellipsis" horiz-adv-x="595" unicode="&#8230;" /><glyph d="M43 218H577V276H43Z" glyph-name="emdash" horiz-adv-x="620" unicode="&#8212;" /><glyph d="M44 217H396V277H44Z" glyph-name="endash" horiz-adv-x="440" unicode="&#8211;" /><glyph d="M65 144H385V209H65ZM65 286H385V351H65Z" glyph-name="equal" horiz-adv-x="450" unicode="=" /><glyph d="M25 225H277V285H25ZM77 0H203C364 0 461 80 461 250C461 421 371 500 209 500H77ZM205 428C328 428 378 377 378 254C378 132 330 72 207 72H159V428Z" glyph-name="eth" horiz-adv-x="487" unicode="&#240;" /><glyph d="M61 100V0H163V100ZM51 500 81 150H143L173 500Z" glyph-name="exclam" horiz-adv-x="224" unicode="!" /><glyph d="M61 400V500H163V400ZM51 0 81 350H143L173 0Z" glyph-name="exclamdown" horiz-adv-x="224" unicode="&#161;" /><glyph d="M52 0H134V210H320V282H134V428H359V500H52Z" glyph-name="f" horiz-adv-x="374" unicode="f" /><glyph d="M55 216H127C147 250 177 271 225 271C296 271 329 226 329 167C329 108 292 62 221 62C166 62 128 91 120 134H40C43 103 58 70 74 50C104 13 153 -10 218 -10C331 -10 412 60 412 170C412 278 338 339 237 339C197 339 162 327 134 303H132L142 428H388V500H77Z" glyph-name="five" horiz-adv-x="450" unicode="5" /><glyph d="M27 100H268V0H347V100H424V169H347V502H259L27 160ZM108 169 269 411H271C269 378 268 334 268 304V169Z" glyph-name="four" horiz-adv-x="450" unicode="4" /><glyph d="M20 280H154V223H218V280H261V334H218V500H143L20 329ZM80 334 157 443H158L154 334Z" glyph-name="foursuperscript" horiz-adv-x="283" /><glyph d="M472 241V252H239V180H383C379 116 338 66 255 66C168 66 112 132 112 248C112 365 170 434 257 434C324 434 362 403 373 349H459C447 451 368 510 261 510C130 510 26 423 26 252C26 82 120 -10 251 -10C398 -10 472 81 472 241Z" glyph-name="g" horiz-adv-x="497" unicode="g" /><glyph d="M199 0H235C346 0 410 53 410 146C410 205 381 240 332 263V265C367 283 394 320 394 368C394 455 330 500 229 500C125 500 51 451 51 357V0H133V352C133 404 168 428 221 428C272 428 309 410 309 363C309 317 278 294 221 294H199V225H225C293 225 325 201 325 150C325 99 293 73 225 73H199Z" glyph-name="germandbls" horiz-adv-x="437" unicode="&#223;" /><glyph d="M154 560H221L154 670H50Z" glyph-name="grave" horiz-adv-x="271" unicode="`" /><glyph d="M393 206 53 35V126L322 250L53 374V465L393 294Z" glyph-name="greater" horiz-adv-x="450" unicode="&gt;" /><glyph d="M131 400H220L126 250L220 100H131L32 250ZM281 400H370L276 250L370 100H281L182 250Z" glyph-name="guillemetleft" horiz-adv-x="406" unicode="&#171;" /><glyph d="M125 400H36L130 250L36 100H125L224 250ZM275 400H186L280 250L186 100H275L374 250Z" glyph-name="guillemetright" horiz-adv-x="406" unicode="&#187;" /><glyph d="M131 400H220L126 250L220 100H131L32 250Z" glyph-name="guilsinglleft" horiz-adv-x="256" unicode="&#8249;" /><glyph d="M125 400H36L130 250L36 100H125L224 250Z" glyph-name="guilsinglright" horiz-adv-x="256" unicode="&#8250;" /><glyph d="M52 0H134V218H363V0H445V500H363V290H134V500H52Z" glyph-name="h" horiz-adv-x="497" unicode="h" /><glyph d="M123 560 231 670H135L50 560ZM266 560 374 670H278L193 560Z" glyph-name="hungarumlaut" horiz-adv-x="424" unicode="&#733;" /><glyph d="M45 213H295V285H45Z" glyph-name="hyphen" horiz-adv-x="340" unicode="-" /><glyph d="M52 0H135V500H52Z" glyph-name="i" horiz-adv-x="187" unicode="i" /><glyph d="M52 0H135V500H52ZM127 560 231 670H127L60 560Z" glyph-name="iacute" horiz-adv-x="187" unicode="&#237;" /><glyph d="M52 0H135V500H52ZM142 670H46L-65 570H30L94 629L158 570H253Z" glyph-name="icircumflex" horiz-adv-x="187" unicode="&#238;" /><glyph d="M52 0H135V500H52ZM-37 670V574H59V670ZM128 670V574H224V670Z" glyph-name="idieresis" horiz-adv-x="187" unicode="&#239;" /><glyph d="M52 0H135V500H52ZM60 560H127L60 670H-44Z" glyph-name="igrave" horiz-adv-x="187" unicode="&#236;" /><glyph d="M133 161C133 94 116 66 57 66C45 66 24 67 10 69V-7C25 -9 44 -10 59 -10C170 -10 216 28 216 145V500H133Z" glyph-name="j" horiz-adv-x="266" unicode="j" /><glyph d="M56 0H139V140L214 229L361 0H460L268 292L446 500H349L139 251V500H56Z" glyph-name="k" horiz-adv-x="456" unicode="k" /><glyph d="M52 0H361V73H134V500H52Z" glyph-name="l" horiz-adv-x="366" unicode="l" /><glyph d="M57 206 397 35V126L128 250L397 374V465L57 294Z" glyph-name="less" horiz-adv-x="450" unicode="&lt;" /><glyph d="M85 -23H435V23H85ZM85 -45C110 -45 130 -25 130 0C130 25 110 45 85 45C60 45 40 25 40 0C40 -25 60 -45 85 -45Z" glyph-name="line.000.000" horiz-adv-x="350" /><glyph d="M85 -23 435 -16V30L85 23ZM85 -45C110 -45 130 -25 130 0C130 25 110 45 85 45C60 45 40 25 40 0C40 -25 60 -45 85 -45Z" glyph-name="line.000.001" horiz-adv-x="350" /><glyph d="M85 -23 435 -9V37L85 23ZM85 -45C110 -45 130 -25 130 0C130 25 110 45 85 45C60 45 40 25 40 0C40 -25 60 -45 85 -45Z" glyph-name="line.000.002" horiz-adv-x="350" /><glyph d="M85 -23 435 -2V44L85 23ZM85 -45C110 -45 130 -25 130 0C130 25 110 45 85 45C60 45 40 25 40 0C40 -25 60 -45 85 -45Z" glyph-name="line.000.003" horiz-adv-x="350" /><glyph d="M85 -23 435 5V51L85 23ZM85 -45C110 -45 130 -25 130 0C130 25 110 45 85 45C60 45 40 25 40 0C40 -25 60 -45 85 -45Z" glyph-name="line.000.004" horiz-adv-x="350" /><glyph d="M85 -23 435 12V58L85 23ZM85 -45C110 -45 130 -25 130 0C130 25 110 45 85 45C60 45 40 25 40 0C40 -25 60 -45 85 -45Z" glyph-name="line.000.005" horiz-adv-x="350" /><glyph d="M85 -23 435 19V65L85 23ZM85 -45C110 -45 130 -25 130 0C130 25 110 45 85 45C60 45 40 25 40 0C40 -25 60 -45 85 -45Z" glyph-name="line.000.006" horiz-adv-x="350" /><glyph d="M85 -23 435 26V72L85 23ZM85 -45C110 -45 130 -25 130 0C130 25 110 45 85 45C60 45 40 25 40 0C40 -25 60 -45 85 -45Z" glyph-name="line.000.007" horiz-adv-x="350" /><glyph d="M85 -23 435 33V79L85 23ZM85 -45C110 -45 130 -25 130 0C130 25 110 45 85 45C60 45 40 25 40 0C40 -25 60 -45 85 -45Z" glyph-name="line.000.008" horiz-adv-x="350" /><glyph d="M85 -23 435 40V86L85 23ZM85 -45C110 -45 130 -25 130 0C130 25 110 45 85 45C60 45 40 25 40 0C40 -25 60 -45 85 -45Z" glyph-name="line.000.009" horiz-adv-x="350" /><glyph d="M85 -24 435 46V94L85 24ZM85 -45C110 -45 130 -25 130 0C130 25 110 45 85 45C60 45 40 25 40 0C40 -25 60 -45 85 -45Z" glyph-name="line.000.010" horiz-adv-x="350" /><glyph d="M85 -24 435 53V101L85 24ZM85 -45C110 -45 130 -25 130 0C130 25 110 45 85 45C60 45 40 25 40 0C40 -25 60 -45 85 -45Z" glyph-name="line.000.011" horiz-adv-x="350" /><glyph d="M85 -24 435 60V108L85 24ZM85 -45C110 -45 130 -25 130 0C130 25 110 45 85 45C60 45 40 25 40 0C40 -25 60 -45 85 -45Z" glyph-name="line.000.012" horiz-adv-x="350" /><glyph d="M85 -24 435 67V115L85 24ZM85 -45C110 -45 130 -25 130 0C130 25 110 45 85 45C60 45 40 25 40 0C40 -25 60 -45 85 -45Z" glyph-name="line.000.013" horiz-adv-x="350" /><glyph d="M85 -24 435 74V122L85 24ZM85 -45C110 -45 130 -25 130 0C130 25 110 45 85 45C60 45 40 25 40 0C40 -25 60 -45 85 -45Z" glyph-name="line.000.014" horiz-adv-x="350" /><glyph d="M85 -24 435 81V129L85 24ZM85 -45C110 -45 130 -25 130 0C130 25 110 45 85 45C60 45 40 25 40 0C40 -25 60 -45 85 -45Z" glyph-name="line.000.015" horiz-adv-x="350" /><glyph d="M85 -24 435 88V136L85 24ZM85 -45C110 -45 130 -25 130 0C130 25 110 45 85 45C60 45 40 25 40 0C40 -25 60 -45 85 -45Z" glyph-name="line.000.016" horiz-adv-x="350" /><glyph d="M85 -24 435 95V143L85 24ZM85 -45C110 -45 130 -25 130 0C130 25 110 45 85 45C60 45 40 25 40 0C40 -25 60 -45 85 -45Z" glyph-name="line.000.017" horiz-adv-x="350" /><glyph d="M85 -24 435 102V150L85 24ZM85 -45C110 -45 130 -25 130 0C130 25 110 45 85 45C60 45 40 25 40 0C40 -25 60 -45 85 -45Z" glyph-name="line.000.018" horiz-adv-x="350" /><glyph d="M85 -24 435 109V157L85 24ZM85 -45C110 -45 130 -25 130 0C130 25 110 45 85 45C60 45 40 25 40 0C40 -25 60 -45 85 -45Z" glyph-name="line.000.019" horiz-adv-x="350" /><glyph d="M85 -25 435 115V165L85 25ZM85 -45C110 -45 130 -25 130 0C130 25 110 45 85 45C60 45 40 25 40 0C40 -25 60 -45 85 -45Z" glyph-name="line.000.020" horiz-adv-x="350" /><glyph d="M85 -25 435 122V172L85 25ZM85 -45C110 -45 130 -25 130 0C130 25 110 45 85 45C60 45 40 25 40 0C40 -25 60 -45 85 -45Z" glyph-name="line.000.021" horiz-adv-x="350" /><glyph d="M85 -25 435 129V179L85 25ZM85 -45C110 -45 130 -25 130 0C130 25 110 45 85 45C60 45 40 25 40 0C40 -25 60 -45 85 -45Z" glyph-name="line.000.022" horiz-adv-x="350" /><glyph d="M85 -25 435 136V186L85 25ZM85 -45C110 -45 130 -25 130 0C130 25 110 45 85 45C60 45 40 25 40 0C40 -25 60 -45 85 -45Z" glyph-name="line.000.023" horiz-adv-x="350" /><glyph d="M85 -25 435 143V193L85 25ZM85 -45C110 -45 130 -25 130 0C130 25 110 45 85 45C60 45 40 25 40 0C40 -25 60 -45 85 -45Z" glyph-name="line.000.024" horiz-adv-x="350" /><glyph d="M85 -26 435 149V201L85 26ZM85 -45C110 -45 130 -25 130 0C130 25 110 45 85 45C60 45 40 25 40 0C40 -25 60 -45 85 -45Z" glyph-name="line.000.025" horiz-adv-x="350" /><glyph d="M85 -26 435 156V208L85 26ZM85 -45C110 -45 130 -25 130 0C130 25 110 45 85 45C60 45 40 25 40 0C40 -25 60 -45 85 -45Z" glyph-name="line.000.026" horiz-adv-x="350" /><glyph d="M85 -26 435 163V215L85 26ZM85 -45C110 -45 130 -25 130 0C130 25 110 45 85 45C60 45 40 25 40 0C40 -25 60 -45 85 -45Z" glyph-name="line.000.027" horiz-adv-x="350" /><glyph d="M85 -26 435 170V222L85 26ZM85 -45C110 -45 130 -25 130 0C130 25 110 45 85 45C60 45 40 25 40 0C40 -25 60 -45 85 -45Z" glyph-name="line.000.028" horiz-adv-x="350" /><glyph d="M85 -26 435 177V229L85 26ZM85 -45C110 -45 130 -25 130 0C130 25 110 45 85 45C60 45 40 25 40 0C40 -25 60 -45 85 -45Z" glyph-name="line.000.029" horiz-adv-x="350" /><glyph d="M85 -27 435 183V237L85 27ZM85 -45C110 -45 130 -25 130 0C130 25 110 45 85 45C60 45 40 25 40 0C40 -25 60 -45 85 -45Z" glyph-name="line.000.030" horiz-adv-x="350" /><glyph d="M85 -27 435 190V244L85 27ZM85 -45C110 -45 130 -25 130 0C130 25 110 45 85 45C60 45 40 25 40 0C40 -25 60 -45 85 -45Z" glyph-name="line.000.031" horiz-adv-x="350" /><glyph d="M85 -27 435 197V251L85 27ZM85 -45C110 -45 130 -25 130 0C130 25 110 45 85 45C60 45 40 25 40 0C40 -25 60 -45 85 -45Z" glyph-name="line.000.032" horiz-adv-x="350" /><glyph d="M85 -27 435 204V258L85 27ZM85 -45C110 -45 130 -25 130 0C130 25 110 45 85 45C60 45 40 25 40 0C40 -25 60 -45 85 -45Z" glyph-name="line.000.033" horiz-adv-x="350" /><glyph d="M85 -27 435 211V265L85 27ZM85 -45C110 -45 130 -25 130 0C130 25 110 45 85 45C60 45 40 25 40 0C40 -25 60 -45 85 -45Z" glyph-name="line.000.034" horiz-adv-x="350" /><glyph d="M85 -28 435 217V273L85 28ZM85 -45C110 -45 130 -25 130 0C130 25 110 45 85 45C60 45 40 25 40 0C40 -25 60 -45 85 -45Z" glyph-name="line.000.035" horiz-adv-x="350" /><glyph d="M85 -28 435 224V280L85 28ZM85 -45C110 -45 130 -25 130 0C130 25 110 45 85 45C60 45 40 25 40 0C40 -25 60 -45 85 -45Z" glyph-name="line.000.036" horiz-adv-x="350" /><glyph d="M85 -28 435 231V287L85 28ZM85 -45C110 -45 130 -25 130 0C130 25 110 45 85 45C60 45 40 25 40 0C40 -25 60 -45 85 -45Z" glyph-name="line.000.037" horiz-adv-x="350" /><glyph d="M85 -28 435 238V294L85 28ZM85 -45C110 -45 130 -25 130 0C130 25 110 45 85 45C60 45 40 25 40 0C40 -25 60 -45 85 -45Z" glyph-name="line.000.038" horiz-adv-x="350" /><glyph d="M85 -28 435 245V301L85 28ZM85 -45C110 -45 130 -25 130 0C130 25 110 45 85 45C60 45 40 25 40 0C40 -25 60 -45 85 -45Z" glyph-name="line.000.039" horiz-adv-x="350" /><glyph d="M85 -29 435 251V309L85 29ZM85 -45C110 -45 130 -25 130 0C130 25 110 45 85 45C60 45 40 25 40 0C40 -25 60 -45 85 -45Z" glyph-name="line.000.040" horiz-adv-x="350" /><glyph d="M85 -29 435 258V316L85 29ZM85 -45C110 -45 130 -25 130 0C130 25 110 45 85 45C60 45 40 25 40 0C40 -25 60 -45 85 -45Z" glyph-name="line.000.041" horiz-adv-x="350" /><glyph d="M85 -29 435 265V323L85 29ZM85 -45C110 -45 130 -25 130 0C130 25 110 45 85 45C60 45 40 25 40 0C40 -25 60 -45 85 -45Z" glyph-name="line.000.042" horiz-adv-x="350" /><glyph d="M85 -29 435 272V330L85 29ZM85 -45C110 -45 130 -25 130 0C130 25 110 45 85 45C60 45 40 25 40 0C40 -25 60 -45 85 -45Z" glyph-name="line.000.043" horiz-adv-x="350" /><glyph d="M85 -29 435 279V337L85 29ZM85 -45C110 -45 130 -25 130 0C130 25 110 45 85 45C60 45 40 25 40 0C40 -25 60 -45 85 -45Z" glyph-name="line.000.044" horiz-adv-x="350" /><glyph d="M85 -30 435 285V345L85 30ZM85 -45C110 -45 130 -25 130 0C130 25 110 45 85 45C60 45 40 25 40 0C40 -25 60 -45 85 -45Z" glyph-name="line.000.045" horiz-adv-x="350" /><glyph d="M85 -30 435 292V352L85 30ZM85 -45C110 -45 130 -25 130 0C130 25 110 45 85 45C60 45 40 25 40 0C40 -25 60 -45 85 -45Z" glyph-name="line.000.046" horiz-adv-x="350" /><glyph d="M85 -30 435 299V359L85 30ZM85 -45C110 -45 130 -25 130 0C130 25 110 45 85 45C60 45 40 25 40 0C40 -25 60 -45 85 -45Z" glyph-name="line.000.047" horiz-adv-x="350" /><glyph d="M85 -30 435 306V366L85 30ZM85 -45C110 -45 130 -25 130 0C130 25 110 45 85 45C60 45 40 25 40 0C40 -25 60 -45 85 -45Z" glyph-name="line.000.048" horiz-adv-x="350" /><glyph d="M85 -30 435 313V373L85 30ZM85 -45C110 -45 130 -25 130 0C130 25 110 45 85 45C60 45 40 25 40 0C40 -25 60 -45 85 -45Z" glyph-name="line.000.049" horiz-adv-x="350" /><glyph d="M85 -31 435 319V381L85 31ZM85 -45C110 -45 130 -25 130 0C130 25 110 45 85 45C60 45 40 25 40 0C40 -25 60 -45 85 -45Z" glyph-name="line.000.050" horiz-adv-x="350" /><glyph d="M85 -31 435 326V388L85 31ZM85 -45C110 -45 130 -25 130 0C130 25 110 45 85 45C60 45 40 25 40 0C40 -25 60 -45 85 -45Z" glyph-name="line.000.051" horiz-adv-x="350" /><glyph d="M85 -31 435 333V395L85 31ZM85 -45C110 -45 130 -25 130 0C130 25 110 45 85 45C60 45 40 25 40 0C40 -25 60 -45 85 -45Z" glyph-name="line.000.052" horiz-adv-x="350" /><glyph d="M85 -31 435 340V402L85 31ZM85 -45C110 -45 130 -25 130 0C130 25 110 45 85 45C60 45 40 25 40 0C40 -25 60 -45 85 -45Z" glyph-name="line.000.053" horiz-adv-x="350" /><glyph d="M85 -32 435 346V410L85 32ZM85 -45C110 -45 130 -25 130 0C130 25 110 45 85 45C60 45 40 25 40 0C40 -25 60 -45 85 -45Z" glyph-name="line.000.054" horiz-adv-x="350" /><glyph d="M85 -32 435 353V417L85 32ZM85 -45C110 -45 130 -25 130 0C130 25 110 45 85 45C60 45 40 25 40 0C40 -25 60 -45 85 -45Z" glyph-name="line.000.055" horiz-adv-x="350" /><glyph d="M85 -32 435 360V424L85 32ZM85 -45C110 -45 130 -25 130 0C130 25 110 45 85 45C60 45 40 25 40 0C40 -25 60 -45 85 -45Z" glyph-name="line.000.056" horiz-adv-x="350" /><glyph d="M85 -33 435 366V432L85 33ZM85 -45C110 -45 130 -25 130 0C130 25 110 45 85 45C60 45 40 25 40 0C40 -25 60 -45 85 -45Z" glyph-name="line.000.057" horiz-adv-x="350" /><glyph d="M85 -33 435 373V439L85 33ZM85 -45C110 -45 130 -25 130 0C130 25 110 45 85 45C60 45 40 25 40 0C40 -25 60 -45 85 -45Z" glyph-name="line.000.058" horiz-adv-x="350" /><glyph d="M85 -33 435 380V446L85 33ZM85 -45C110 -45 130 -25 130 0C130 25 110 45 85 45C60 45 40 25 40 0C40 -25 60 -45 85 -45Z" glyph-name="line.000.059" horiz-adv-x="350" /><glyph d="M85 -34 435 386V454L85 34ZM85 -45C110 -45 130 -25 130 0C130 25 110 45 85 45C60 45 40 25 40 0C40 -25 60 -45 85 -45Z" glyph-name="line.000.060" horiz-adv-x="350" /><glyph d="M85 -34 435 393V461L85 34ZM85 -45C110 -45 130 -25 130 0C130 25 110 45 85 45C60 45 40 25 40 0C40 -25 60 -45 85 -45Z" glyph-name="line.000.061" horiz-adv-x="350" /><glyph d="M85 -34 435 400V468L85 34ZM85 -45C110 -45 130 -25 130 0C130 25 110 45 85 45C60 45 40 25 40 0C40 -25 60 -45 85 -45Z" glyph-name="line.000.062" horiz-adv-x="350" /><glyph d="M85 -35 435 406V476L85 35ZM85 -45C110 -45 130 -25 130 0C130 25 110 45 85 45C60 45 40 25 40 0C40 -25 60 -45 85 -45Z" glyph-name="line.000.063" horiz-adv-x="350" /><glyph d="M85 -35 435 413V483L85 35ZM85 -45C110 -45 130 -25 130 0C130 25 110 45 85 45C60 45 40 25 40 0C40 -25 60 -45 85 -45Z" glyph-name="line.000.064" horiz-adv-x="350" /><glyph d="M85 -36 435 419V491L85 36ZM85 -45C110 -45 130 -25 130 0C130 25 110 45 85 45C60 45 40 25 40 0C40 -25 60 -45 85 -45Z" glyph-name="line.000.065" horiz-adv-x="350" /><glyph d="M85 -36 435 426V498L85 36ZM85 -45C110 -45 130 -25 130 0C130 25 110 45 85 45C60 45 40 25 40 0C40 -25 60 -45 85 -45Z" glyph-name="line.000.066" horiz-adv-x="350" /><glyph d="M85 -37 435 432V506L85 37ZM85 -45C110 -45 130 -25 130 0C130 25 110 45 85 45C60 45 40 25 40 0C40 -25 60 -45 85 -45Z" glyph-name="line.000.067" horiz-adv-x="350" /><glyph d="M85 -37 435 439V513L85 37ZM85 -45C110 -45 130 -25 130 0C130 25 110 45 85 45C60 45 40 25 40 0C40 -25 60 -45 85 -45Z" glyph-name="line.000.068" horiz-adv-x="350" /><glyph d="M85 -37 435 447V521L85 37ZM85 -45C110 -45 130 -25 130 0C130 25 110 45 85 45C60 45 40 25 40 0C40 -25 60 -45 85 -45Z" glyph-name="line.000.069" horiz-adv-x="350" /><glyph d="M85 -38 435 452V528L85 38ZM85 -45C110 -45 130 -25 130 0C130 25 110 45 85 45C60 45 40 25 40 0C40 -25 60 -45 85 -45Z" glyph-name="line.000.070" horiz-adv-x="350" /><glyph d="M85 -38 435 459V535L85 38ZM85 -45C110 -45 130 -25 130 0C130 25 110 45 85 45C60 45 40 25 40 0C40 -25 60 -45 85 -45Z" glyph-name="line.000.071" horiz-adv-x="350" /><glyph d="M85 -38 435 466V542L85 38ZM85 -45C110 -45 130 -25 130 0C130 25 110 45 85 45C60 45 40 25 40 0C40 -25 60 -45 85 -45Z" glyph-name="line.000.072" horiz-adv-x="350" /><glyph d="M85 -39 435 472V550L85 39ZM85 -45C110 -45 130 -25 130 0C130 25 110 45 85 45C60 45 40 25 40 0C40 -25 60 -45 85 -45Z" glyph-name="line.000.073" horiz-adv-x="350" /><glyph d="M85 -39 435 479V557L85 39ZM85 -45C110 -45 130 -25 130 0C130 25 110 45 85 45C60 45 40 25 40 0C40 -25 60 -45 85 -45Z" glyph-name="line.000.074" horiz-adv-x="350" /><glyph d="M85 -40 435 485V565L85 40ZM85 -45C110 -45 130 -25 130 0C130 25 110 45 85 45C60 45 40 25 40 0C40 -25 60 -45 85 -45Z" glyph-name="line.000.075" horiz-adv-x="350" /><glyph d="M85 -40 435 492V572L85 40ZM85 -45C110 -45 130 -25 130 0C130 25 110 45 85 45C60 45 40 25 40 0C40 -25 60 -45 85 -45Z" glyph-name="line.000.076" horiz-adv-x="350" /><glyph d="M85 -41 435 498V580L85 41ZM85 -45C110 -45 130 -25 130 0C130 25 110 45 85 45C60 45 40 25 40 0C40 -25 60 -45 85 -45Z" glyph-name="line.000.077" horiz-adv-x="350" /><glyph d="M85 -41 435 505V587L85 41ZM85 -45C110 -45 130 -25 130 0C130 25 110 45 85 45C60 45 40 25 40 0C40 -25 60 -45 85 -45Z" glyph-name="line.000.078" horiz-adv-x="350" /><glyph d="M85 -41 435 512V594L85 41ZM85 -45C110 -45 130 -25 130 0C130 25 110 45 85 45C60 45 40 25 40 0C40 -25 60 -45 85 -45Z" glyph-name="line.000.079" horiz-adv-x="350" /><glyph d="M85 -42 435 518V602L85 42ZM85 -45C110 -45 130 -25 130 0C130 25 110 45 85 45C60 45 40 25 40 0C40 -25 60 -45 85 -45Z" glyph-name="line.000.080" horiz-adv-x="350" /><glyph d="M85 -42 435 525V609L85 42ZM85 -45C110 -45 130 -25 130 0C130 25 110 45 85 45C60 45 40 25 40 0C40 -25 60 -45 85 -45Z" glyph-name="line.000.081" horiz-adv-x="350" /><glyph d="M85 -43 435 531V617L85 43ZM85 -45C110 -45 130 -25 130 0C130 25 110 45 85 45C60 45 40 25 40 0C40 -25 60 -45 85 -45Z" glyph-name="line.000.082" horiz-adv-x="350" /><glyph d="M85 -43 435 538V624L85 43ZM85 -45C110 -45 130 -25 130 0C130 25 110 45 85 45C60 45 40 25 40 0C40 -25 60 -45 85 -45Z" glyph-name="line.000.083" horiz-adv-x="350" /><glyph d="M85 -44 435 544V632L85 44ZM85 -45C110 -45 130 -25 130 0C130 25 110 45 85 45C60 45 40 25 40 0C40 -25 60 -45 85 -45Z" glyph-name="line.000.084" horiz-adv-x="350" /><glyph d="M85 -44 435 551V639L85 44ZM85 -45C110 -45 130 -25 130 0C130 25 110 45 85 45C60 45 40 25 40 0C40 -25 60 -45 85 -45Z" glyph-name="line.000.085" horiz-adv-x="350" /><glyph d="M85 -45 435 557V647L85 45ZM85 -45C110 -45 130 -25 130 0C130 25 110 45 85 45C60 45 40 25 40 0C40 -25 60 -45 85 -45Z" glyph-name="line.000.086" horiz-adv-x="350" /><glyph d="M85 -45 435 564V654L85 45ZM85 -45C110 -45 130 -25 130 0C130 25 110 45 85 45C60 45 40 25 40 0C40 -25 60 -45 85 -45Z" glyph-name="line.000.087" horiz-adv-x="350" /><glyph d="M89 -39 436 572 434 660 81 39ZM85 -45C110 -45 130 -25 130 0C130 25 110 45 85 45C60 45 40 25 40 0C40 -25 60 -45 85 -45Z" glyph-name="line.000.088" horiz-adv-x="350" /><glyph d="M89 -39 436 579 434 667 81 39ZM85 -45C110 -45 130 -25 130 0C130 25 110 45 85 45C60 45 40 25 40 0C40 -25 60 -45 85 -45Z" glyph-name="line.000.089" horiz-adv-x="350" /><glyph d="M90 -38 436 585 434 675 80 38ZM85 -45C110 -45 130 -25 130 0C130 25 110 45 85 45C60 45 40 25 40 0C40 -25 60 -45 85 -45Z" glyph-name="line.000.090" horiz-adv-x="350" /><glyph d="M90 -38 436 592 434 682 80 38ZM85 -45C110 -45 130 -25 130 0C130 25 110 45 85 45C60 45 40 25 40 0C40 -25 60 -45 85 -45Z" glyph-name="line.000.091" horiz-adv-x="350" /><glyph d="M91 -37 439 603 431 685 79 37ZM85 -45C110 -45 130 -25 130 0C130 25 110 45 85 45C60 45 40 25 40 0C40 -25 60 -45 85 -45Z" glyph-name="line.000.092" horiz-adv-x="350" /><glyph d="M92 -35 437 607 433 695 78 35ZM85 -45C110 -45 130 -25 130 0C130 25 110 45 85 45C60 45 40 25 40 0C40 -25 60 -45 85 -45Z" glyph-name="line.000.093" horiz-adv-x="350" /><glyph d="M93 -34 441 620 429 696 77 34ZM85 -45C110 -45 130 -25 130 0C130 25 110 45 85 45C60 45 40 25 40 0C40 -25 60 -45 85 -45Z" glyph-name="line.000.094" horiz-adv-x="350" /><glyph d="M94 -32 441 627 429 703 76 32ZM85 -45C110 -45 130 -25 130 0C130 25 110 45 85 45C60 45 40 25 40 0C40 -25 60 -45 85 -45Z" glyph-name="line.000.095" horiz-adv-x="350" /><glyph d="M96 -29 439 630 431 714 74 29ZM85 -45C110 -45 130 -25 130 0C130 25 110 45 85 45C60 45 40 25 40 0C40 -25 60 -45 85 -45Z" glyph-name="line.000.096" horiz-adv-x="350" /><glyph d="M99 -23 439 637 431 721 71 23ZM85 -45C110 -45 130 -25 130 0C130 25 110 45 85 45C60 45 40 25 40 0C40 -25 60 -45 85 -45Z" glyph-name="line.000.097" horiz-adv-x="350" /><glyph d="M89 -43 439 643 431 729 81 43ZM85 -45C110 -45 130 -25 130 0C130 25 110 45 85 45C60 45 40 25 40 0C40 -25 60 -45 85 -45Z" glyph-name="line.000.098" horiz-adv-x="350" /><glyph d="M89 -44 439 649 431 737 81 44ZM85 -45C110 -45 130 -25 130 0C130 25 110 45 85 45C60 45 40 25 40 0C40 -25 60 -45 85 -45Z" glyph-name="line.000.099" horiz-adv-x="350" /><glyph d="M90 -43 440 657 430 743 80 43ZM85 -45C110 -45 130 -25 130 0C130 25 110 45 85 45C60 45 40 25 40 0C40 -25 60 -45 85 -45Z" glyph-name="line.000.100" horiz-adv-x="350" /><glyph d="M85 30 435 23V-23L85 -16ZM85 52C110 52 130 32 130 7C130 -18 110 -38 85 -38C60 -38 40 -18 40 7C40 32 60 52 85 52Z" glyph-name="line.001.000" horiz-adv-x="350" /><glyph d="M85 -16H435V30H85ZM85 -38C110 -38 130 -18 130 7C130 32 110 52 85 52C60 52 40 32 40 7C40 -18 60 -38 85 -38Z" glyph-name="line.001.001" horiz-adv-x="350" /><glyph d="M85 -16 435 -9V37L85 30ZM85 -38C110 -38 130 -18 130 7C130 32 110 52 85 52C60 52 40 32 40 7C40 -18 60 -38 85 -38Z" glyph-name="line.001.002" horiz-adv-x="350" /><glyph d="M85 -16 435 -2V44L85 30ZM85 -38C110 -38 130 -18 130 7C130 32 110 52 85 52C60 52 40 32 40 7C40 -18 60 -38 85 -38Z" glyph-name="line.001.003" horiz-adv-x="350" /><glyph d="M85 -16 435 5V51L85 30ZM85 -38C110 -38 130 -18 130 7C130 32 110 52 85 52C60 52 40 32 40 7C40 -18 60 -38 85 -38Z" glyph-name="line.001.004" horiz-adv-x="350" /><glyph d="M85 -16 435 12V58L85 30ZM85 -38C110 -38 130 -18 130 7C130 32 110 52 85 52C60 52 40 32 40 7C40 -18 60 -38 85 -38Z" glyph-name="line.001.005" horiz-adv-x="350" /><glyph d="M85 -16 435 19V65L85 30ZM85 -38C110 -38 130 -18 130 7C130 32 110 52 85 52C60 52 40 32 40 7C40 -18 60 -38 85 -38Z" glyph-name="line.001.006" horiz-adv-x="350" /><glyph d="M85 -16 435 26V72L85 30ZM85 -38C110 -38 130 -18 130 7C130 32 110 52 85 52C60 52 40 32 40 7C40 -18 60 -38 85 -38Z" glyph-name="line.001.007" horiz-adv-x="350" /><glyph d="M85 -16 435 33V79L85 30ZM85 -38C110 -38 130 -18 130 7C130 32 110 52 85 52C60 52 40 32 40 7C40 -18 60 -38 85 -38Z" glyph-name="line.001.008" horiz-adv-x="350" /><glyph d="M85 -16 435 40V86L85 30ZM85 -38C110 -38 130 -18 130 7C130 32 110 52 85 52C60 52 40 32 40 7C40 -18 60 -38 85 -38Z" glyph-name="line.001.009" horiz-adv-x="350" /><glyph d="M85 -16 435 47V93L85 30ZM85 -38C110 -38 130 -18 130 7C130 32 110 52 85 52C60 52 40 32 40 7C40 -18 60 -38 85 -38Z" glyph-name="line.001.010" horiz-adv-x="350" /><glyph d="M85 -17 435 53V101L85 31ZM85 -38C110 -38 130 -18 130 7C130 32 110 52 85 52C60 52 40 32 40 7C40 -18 60 -38 85 -38Z" glyph-name="line.001.011" horiz-adv-x="350" /><glyph d="M85 -17 435 60V108L85 31ZM85 -38C110 -38 130 -18 130 7C130 32 110 52 85 52C60 52 40 32 40 7C40 -18 60 -38 85 -38Z" glyph-name="line.001.012" horiz-adv-x="350" /><glyph d="M85 -17 435 67V115L85 31ZM85 -38C110 -38 130 -18 130 7C130 32 110 52 85 52C60 52 40 32 40 7C40 -18 60 -38 85 -38Z" glyph-name="line.001.013" horiz-adv-x="350" /><glyph d="M85 -17 435 74V122L85 31ZM85 -38C110 -38 130 -18 130 7C130 32 110 52 85 52C60 52 40 32 40 7C40 -18 60 -38 85 -38Z" glyph-name="line.001.014" horiz-adv-x="350" /><glyph d="M85 -17 435 81V129L85 31ZM85 -38C110 -38 130 -18 130 7C130 32 110 52 85 52C60 52 40 32 40 7C40 -18 60 -38 85 -38Z" glyph-name="line.001.015" horiz-adv-x="350" /><glyph d="M85 -17 435 88V136L85 31ZM85 -38C110 -38 130 -18 130 7C130 32 110 52 85 52C60 52 40 32 40 7C40 -18 60 -38 85 -38Z" glyph-name="line.001.016" horiz-adv-x="350" /><glyph d="M85 -17 435 95V143L85 31ZM85 -38C110 -38 130 -18 130 7C130 32 110 52 85 52C60 52 40 32 40 7C40 -18 60 -38 85 -38Z" glyph-name="line.001.017" horiz-adv-x="350" /><glyph d="M85 -17 435 102V150L85 31ZM85 -38C110 -38 130 -18 130 7C130 32 110 52 85 52C60 52 40 32 40 7C40 -18 60 -38 85 -38Z" glyph-name="line.001.018" horiz-adv-x="350" /><glyph d="M85 -17 435 109V157L85 31ZM85 -38C110 -38 130 -18 130 7C130 32 110 52 85 52C60 52 40 32 40 7C40 -18 60 -38 85 -38Z" glyph-name="line.001.019" horiz-adv-x="350" /><glyph d="M85 -17 435 116V164L85 31ZM85 -38C110 -38 130 -18 130 7C130 32 110 52 85 52C60 52 40 32 40 7C40 -18 60 -38 85 -38Z" glyph-name="line.001.020" horiz-adv-x="350" /><glyph d="M85 -18 435 122V172L85 32ZM85 -38C110 -38 130 -18 130 7C130 32 110 52 85 52C60 52 40 32 40 7C40 -18 60 -38 85 -38Z" glyph-name="line.001.021" horiz-adv-x="350" /><glyph d="M85 -18 435 129V179L85 32ZM85 -38C110 -38 130 -18 130 7C130 32 110 52 85 52C60 52 40 32 40 7C40 -18 60 -38 85 -38Z" glyph-name="line.001.022" horiz-adv-x="350" /><glyph d="M85 -18 435 136V186L85 32ZM85 -38C110 -38 130 -18 130 7C130 32 110 52 85 52C60 52 40 32 40 7C40 -18 60 -38 85 -38Z" glyph-name="line.001.023" horiz-adv-x="350" /><glyph d="M85 -18 435 143V193L85 32ZM85 -38C110 -38 130 -18 130 7C130 32 110 52 85 52C60 52 40 32 40 7C40 -18 60 -38 85 -38Z" glyph-name="line.001.024" horiz-adv-x="350" /><glyph d="M85 -18 435 150V200L85 32ZM85 -38C110 -38 130 -18 130 7C130 32 110 52 85 52C60 52 40 32 40 7C40 -18 60 -38 85 -38Z" glyph-name="line.001.025" horiz-adv-x="350" /><glyph d="M85 -19 435 156V208L85 33ZM85 -38C110 -38 130 -18 130 7C130 32 110 52 85 52C60 52 40 32 40 7C40 -18 60 -38 85 -38Z" glyph-name="line.001.026" horiz-adv-x="350" /><glyph d="M85 -19 435 163V215L85 33ZM85 -38C110 -38 130 -18 130 7C130 32 110 52 85 52C60 52 40 32 40 7C40 -18 60 -38 85 -38Z" glyph-name="line.001.027" horiz-adv-x="350" /><glyph d="M85 -19 435 170V222L85 33ZM85 -38C110 -38 130 -18 130 7C130 32 110 52 85 52C60 52 40 32 40 7C40 -18 60 -38 85 -38Z" glyph-name="line.001.028" horiz-adv-x="350" /><glyph d="M85 -19 435 177V229L85 33ZM85 -38C110 -38 130 -18 130 7C130 32 110 52 85 52C60 52 40 32 40 7C40 -18 60 -38 85 -38Z" glyph-name="line.001.029" horiz-adv-x="350" /><glyph d="M85 -19 435 184V236L85 33ZM85 -38C110 -38 130 -18 130 7C130 32 110 52 85 52C60 52 40 32 40 7C40 -18 60 -38 85 -38Z" glyph-name="line.001.030" horiz-adv-x="350" /><glyph d="M85 -20 435 190V244L85 34ZM85 -38C110 -38 130 -18 130 7C130 32 110 52 85 52C60 52 40 32 40 7C40 -18 60 -38 85 -38Z" glyph-name="line.001.031" horiz-adv-x="350" /><glyph d="M85 -20 435 197V251L85 34ZM85 -38C110 -38 130 -18 130 7C130 32 110 52 85 52C60 52 40 32 40 7C40 -18 60 -38 85 -38Z" glyph-name="line.001.032" horiz-adv-x="350" /><glyph d="M85 -20 435 204V258L85 34ZM85 -38C110 -38 130 -18 130 7C130 32 110 52 85 52C60 52 40 32 40 7C40 -18 60 -38 85 -38Z" glyph-name="line.001.033" horiz-adv-x="350" /><glyph d="M85 -20 435 211V265L85 34ZM85 -38C110 -38 130 -18 130 7C130 32 110 52 85 52C60 52 40 32 40 7C40 -18 60 -38 85 -38Z" glyph-name="line.001.034" horiz-adv-x="350" /><glyph d="M85 -20 435 218V272L85 34ZM85 -38C110 -38 130 -18 130 7C130 32 110 52 85 52C60 52 40 32 40 7C40 -18 60 -38 85 -38Z" glyph-name="line.001.035" horiz-adv-x="350" /><glyph d="M85 -21 435 224V280L85 35ZM85 -38C110 -38 130 -18 130 7C130 32 110 52 85 52C60 52 40 32 40 7C40 -18 60 -38 85 -38Z" glyph-name="line.001.036" horiz-adv-x="350" /><glyph d="M85 -21 435 231V287L85 35ZM85 -38C110 -38 130 -18 130 7C130 32 110 52 85 52C60 52 40 32 40 7C40 -18 60 -38 85 -38Z" glyph-name="line.001.037" horiz-adv-x="350" /><glyph d="M85 -21 435 238V294L85 35ZM85 -38C110 -38 130 -18 130 7C130 32 110 52 85 52C60 52 40 32 40 7C40 -18 60 -38 85 -38Z" glyph-name="line.001.038" horiz-adv-x="350" /><glyph d="M85 -21 435 245V301L85 35ZM85 -38C110 -38 130 -18 130 7C130 32 110 52 85 52C60 52 40 32 40 7C40 -18 60 -38 85 -38Z" glyph-name="line.001.039" horiz-adv-x="350" /><glyph d="M85 -21 435 252V308L85 35ZM85 -38C110 -38 130 -18 130 7C130 32 110 52 85 52C60 52 40 32 40 7C40 -18 60 -38 85 -38Z" glyph-name="line.001.040" horiz-adv-x="350" /><glyph d="M85 -22 435 258V316L85 36ZM85 -38C110 -38 130 -18 130 7C130 32 110 52 85 52C60 52 40 32 40 7C40 -18 60 -38 85 -38Z" glyph-name="line.001.041" horiz-adv-x="350" /><glyph d="M85 -22 435 265V323L85 36ZM85 -38C110 -38 130 -18 130 7C130 32 110 52 85 52C60 52 40 32 40 7C40 -18 60 -38 85 -38Z" glyph-name="line.001.042" horiz-adv-x="350" /><glyph d="M85 -22 435 272V330L85 36ZM85 -38C110 -38 130 -18 130 7C130 32 110 52 85 52C60 52 40 32 40 7C40 -18 60 -38 85 -38Z" glyph-name="line.001.043" horiz-adv-x="350" /><glyph d="M85 -22 435 279V337L85 36ZM85 -38C110 -38 130 -18 130 7C130 32 110 52 85 52C60 52 40 32 40 7C40 -18 60 -38 85 -38Z" glyph-name="line.001.044" horiz-adv-x="350" /><glyph d="M85 -22 435 286V344L85 36ZM85 -38C110 -38 130 -18 130 7C130 32 110 52 85 52C60 52 40 32 40 7C40 -18 60 -38 85 -38Z" glyph-name="line.001.045" horiz-adv-x="350" /><glyph d="M85 -23 435 292V352L85 37ZM85 -38C110 -38 130 -18 130 7C130 32 110 52 85 52C60 52 40 32 40 7C40 -18 60 -38 85 -38Z" glyph-name="line.001.046" horiz-adv-x="350" /><glyph d="M85 -23 435 299V359L85 37ZM85 -38C110 -38 130 -18 130 7C130 32 110 52 85 52C60 52 40 32 40 7C40 -18 60 -38 85 -38Z" glyph-name="line.001.047" horiz-adv-x="350" /><glyph d="M85 -23 435 306V366L85 37ZM85 -38C110 -38 130 -18 130 7C130 32 110 52 85 52C60 52 40 32 40 7C40 -18 60 -38 85 -38Z" glyph-name="line.001.048" horiz-adv-x="350" /><glyph d="M85 -23 435 313V373L85 37ZM85 -38C110 -38 130 -18 130 7C130 32 110 52 85 52C60 52 40 32 40 7C40 -18 60 -38 85 -38Z" glyph-name="line.001.049" horiz-adv-x="350" /><glyph d="M85 -23 435 320V380L85 37ZM85 -38C110 -38 130 -18 130 7C130 32 110 52 85 52C60 52 40 32 40 7C40 -18 60 -38 85 -38Z" glyph-name="line.001.050" horiz-adv-x="350" /><glyph d="M85 -24 435 326V388L85 38ZM85 -38C110 -38 130 -18 130 7C130 32 110 52 85 52C60 52 40 32 40 7C40 -18 60 -38 85 -38Z" glyph-name="line.001.051" horiz-adv-x="350" /><glyph d="M85 -24 435 333V395L85 38ZM85 -38C110 -38 130 -18 130 7C130 32 110 52 85 52C60 52 40 32 40 7C40 -18 60 -38 85 -38Z" glyph-name="line.001.052" horiz-adv-x="350" /><glyph d="M85 -24 435 340V402L85 38ZM85 -38C110 -38 130 -18 130 7C130 32 110 52 85 52C60 52 40 32 40 7C40 -18 60 -38 85 -38Z" glyph-name="line.001.053" horiz-adv-x="350" /><glyph d="M85 -24 435 347V409L85 38ZM85 -38C110 -38 130 -18 130 7C130 32 110 52 85 52C60 52 40 32 40 7C40 -18 60 -38 85 -38Z" glyph-name="line.001.054" horiz-adv-x="350" /><glyph d="M85 -25 435 353V417L85 39ZM85 -38C110 -38 130 -18 130 7C130 32 110 52 85 52C60 52 40 32 40 7C40 -18 60 -38 85 -38Z" glyph-name="line.001.055" horiz-adv-x="350" /><glyph d="M85 -25 435 360V424L85 39ZM85 -38C110 -38 130 -18 130 7C130 32 110 52 85 52C60 52 40 32 40 7C40 -18 60 -38 85 -38Z" glyph-name="line.001.056" horiz-adv-x="350" /><glyph d="M85 -25 435 367V431L85 39ZM85 -38C110 -38 130 -18 130 7C130 32 110 52 85 52C60 52 40 32 40 7C40 -18 60 -38 85 -38Z" glyph-name="line.001.057" horiz-adv-x="350" /><glyph d="M85 -26 435 373V439L85 40ZM85 -38C110 -38 130 -18 130 7C130 32 110 52 85 52C60 52 40 32 40 7C40 -18 60 -38 85 -38Z" glyph-name="line.001.058" horiz-adv-x="350" /><glyph d="M85 -26 435 380V446L85 40ZM85 -38C110 -38 130 -18 130 7C130 32 110 52 85 52C60 52 40 32 40 7C40 -18 60 -38 85 -38Z" glyph-name="line.001.059" horiz-adv-x="350" /><glyph d="M85 -26 435 387V453L85 40ZM85 -38C110 -38 130 -18 130 7C130 32 110 52 85 52C60 52 40 32 40 7C40 -18 60 -38 85 -38Z" glyph-name="line.001.060" horiz-adv-x="350" /><glyph d="M85 -27 435 393V461L85 41ZM85 -38C110 -38 130 -18 130 7C130 32 110 52 85 52C60 52 40 32 40 7C40 -18 60 -38 85 -38Z" glyph-name="line.001.061" horiz-adv-x="350" /><glyph d="M85 -27 435 400V468L85 41ZM85 -38C110 -38 130 -18 130 7C130 32 110 52 85 52C60 52 40 32 40 7C40 -18 60 -38 85 -38Z" glyph-name="line.001.062" horiz-adv-x="350" /><glyph d="M85 -27 435 407V475L85 41ZM85 -38C110 -38 130 -18 130 7C130 32 110 52 85 52C60 52 40 32 40 7C40 -18 60 -38 85 -38Z" glyph-name="line.001.063" horiz-adv-x="350" /><glyph d="M85 -28 435 413V483L85 42ZM85 -38C110 -38 130 -18 130 7C130 32 110 52 85 52C60 52 40 32 40 7C40 -18 60 -38 85 -38Z" glyph-name="line.001.064" horiz-adv-x="350" /><glyph d="M85 -28 435 420V490L85 42ZM85 -38C110 -38 130 -18 130 7C130 32 110 52 85 52C60 52 40 32 40 7C40 -18 60 -38 85 -38Z" glyph-name="line.001.065" horiz-adv-x="350" /><glyph d="M85 -29 435 426V498L85 43ZM85 -38C110 -38 130 -18 130 7C130 32 110 52 85 52C60 52 40 32 40 7C40 -18 60 -38 85 -38Z" glyph-name="line.001.066" horiz-adv-x="350" /><glyph d="M85 -29 435 433V505L85 43ZM85 -38C110 -38 130 -18 130 7C130 32 110 52 85 52C60 52 40 32 40 7C40 -18 60 -38 85 -38Z" glyph-name="line.001.067" horiz-adv-x="350" /><glyph d="M85 -30 435 439V513L85 44ZM85 -38C110 -38 130 -18 130 7C130 32 110 52 85 52C60 52 40 32 40 7C40 -18 60 -38 85 -38Z" glyph-name="line.001.068" horiz-adv-x="350" /><glyph d="M85 -30 435 446V520L85 44ZM85 -38C110 -38 130 -18 130 7C130 32 110 52 85 52C60 52 40 32 40 7C40 -18 60 -38 85 -38Z" glyph-name="line.001.069" horiz-adv-x="350" /><glyph d="M85 -30 435 454V528L85 44ZM85 -38C110 -38 130 -18 130 7C130 32 110 52 85 52C60 52 40 32 40 7C40 -18 60 -38 85 -38Z" glyph-name="line.001.070" horiz-adv-x="350" /><glyph d="M85 -31 435 459V535L85 45ZM85 -38C110 -38 130 -18 130 7C130 32 110 52 85 52C60 52 40 32 40 7C40 -18 60 -38 85 -38Z" glyph-name="line.001.071" horiz-adv-x="350" /><glyph d="M85 -31 435 466V542L85 45ZM85 -38C110 -38 130 -18 130 7C130 32 110 52 85 52C60 52 40 32 40 7C40 -18 60 -38 85 -38Z" glyph-name="line.001.072" horiz-adv-x="350" /><glyph d="M85 -31 435 473V549L85 45ZM85 -38C110 -38 130 -18 130 7C130 32 110 52 85 52C60 52 40 32 40 7C40 -18 60 -38 85 -38Z" glyph-name="line.001.073" horiz-adv-x="350" /><glyph d="M85 -32 435 479V557L85 46ZM85 -38C110 -38 130 -18 130 7C130 32 110 52 85 52C60 52 40 32 40 7C40 -18 60 -38 85 -38Z" glyph-name="line.001.074" horiz-adv-x="350" /><glyph d="M85 -32 435 486V564L85 46ZM85 -38C110 -38 130 -18 130 7C130 32 110 52 85 52C60 52 40 32 40 7C40 -18 60 -38 85 -38Z" glyph-name="line.001.075" horiz-adv-x="350" /><glyph d="M85 -33 435 492V572L85 47ZM85 -38C110 -38 130 -18 130 7C130 32 110 52 85 52C60 52 40 32 40 7C40 -18 60 -38 85 -38Z" glyph-name="line.001.076" horiz-adv-x="350" /><glyph d="M85 -33 435 499V579L85 47ZM85 -38C110 -38 130 -18 130 7C130 32 110 52 85 52C60 52 40 32 40 7C40 -18 60 -38 85 -38Z" glyph-name="line.001.077" horiz-adv-x="350" /><glyph d="M85 -34 435 505V587L85 48ZM85 -38C110 -38 130 -18 130 7C130 32 110 52 85 52C60 52 40 32 40 7C40 -18 60 -38 85 -38Z" glyph-name="line.001.078" horiz-adv-x="350" /><glyph d="M85 -34 435 512V594L85 48ZM85 -38C110 -38 130 -18 130 7C130 32 110 52 85 52C60 52 40 32 40 7C40 -18 60 -38 85 -38Z" glyph-name="line.001.079" horiz-adv-x="350" /><glyph d="M85 -34 435 519V601L85 48ZM85 -38C110 -38 130 -18 130 7C130 32 110 52 85 52C60 52 40 32 40 7C40 -18 60 -38 85 -38Z" glyph-name="line.001.080" horiz-adv-x="350" /><glyph d="M85 -35 435 525V609L85 49ZM85 -38C110 -38 130 -18 130 7C130 32 110 52 85 52C60 52 40 32 40 7C40 -18 60 -38 85 -38Z" glyph-name="line.001.081" horiz-adv-x="350" /><glyph d="M85 -35 435 532V616L85 49ZM85 -38C110 -38 130 -18 130 7C130 32 110 52 85 52C60 52 40 32 40 7C40 -18 60 -38 85 -38Z" glyph-name="line.001.082" horiz-adv-x="350" /><glyph d="M85 -36 435 538V624L85 50ZM85 -38C110 -38 130 -18 130 7C130 32 110 52 85 52C60 52 40 32 40 7C40 -18 60 -38 85 -38Z" glyph-name="line.001.083" horiz-adv-x="350" /><glyph d="M85 -36 435 545V631L85 50ZM85 -38C110 -38 130 -18 130 7C130 32 110 52 85 52C60 52 40 32 40 7C40 -18 60 -38 85 -38Z" glyph-name="line.001.084" horiz-adv-x="350" /><glyph d="M85 -37 435 551V639L85 51ZM85 -38C110 -38 130 -18 130 7C130 32 110 52 85 52C60 52 40 32 40 7C40 -18 60 -38 85 -38Z" glyph-name="line.001.085" horiz-adv-x="350" /><glyph d="M85 -37 435 558V646L85 51ZM85 -38C110 -38 130 -18 130 7C130 32 110 52 85 52C60 52 40 32 40 7C40 -18 60 -38 85 -38Z" glyph-name="line.001.086" horiz-adv-x="350" /><glyph d="M85 -38 435 564V654L85 52ZM85 -38C110 -38 130 -18 130 7C130 32 110 52 85 52C60 52 40 32 40 7C40 -18 60 -38 85 -38Z" glyph-name="line.001.087" horiz-adv-x="350" /><glyph d="M85 -38 435 571V661L85 52ZM85 -38C110 -38 130 -18 130 7C130 32 110 52 85 52C60 52 40 32 40 7C40 -18 60 -38 85 -38Z" glyph-name="line.001.088" horiz-adv-x="350" /><glyph d="M89 -32 436 579 434 667 81 46ZM85 -38C110 -38 130 -18 130 7C130 32 110 52 85 52C60 52 40 32 40 7C40 -18 60 -38 85 -38Z" glyph-name="line.001.089" horiz-adv-x="350" /><glyph d="M89 -32 436 586 434 674 81 46ZM85 -38C110 -38 130 -18 130 7C130 32 110 52 85 52C60 52 40 32 40 7C40 -18 60 -38 85 -38Z" glyph-name="line.001.090" horiz-adv-x="350" /><glyph d="M90 -31 436 592 434 682 80 45ZM85 -38C110 -38 130 -18 130 7C130 32 110 52 85 52C60 52 40 32 40 7C40 -18 60 -38 85 -38Z" glyph-name="line.001.091" horiz-adv-x="350" /><glyph d="M90 -31 436 599 434 689 80 45ZM85 -38C110 -38 130 -18 130 7C130 32 110 52 85 52C60 52 40 32 40 7C40 -18 60 -38 85 -38Z" glyph-name="line.001.092" horiz-adv-x="350" /><glyph d="M91 -30 439 610 431 692 79 44ZM85 -38C110 -38 130 -18 130 7C130 32 110 52 85 52C60 52 40 32 40 7C40 -18 60 -38 85 -38Z" glyph-name="line.001.093" horiz-adv-x="350" /><glyph d="M92 -28 437 614 433 702 78 42ZM85 -38C110 -38 130 -18 130 7C130 32 110 52 85 52C60 52 40 32 40 7C40 -18 60 -38 85 -38Z" glyph-name="line.001.094" horiz-adv-x="350" /><glyph d="M93 -27 441 627 429 703 77 41ZM85 -38C110 -38 130 -18 130 7C130 32 110 52 85 52C60 52 40 32 40 7C40 -18 60 -38 85 -38Z" glyph-name="line.001.095" horiz-adv-x="350" /><glyph d="M94 -25 441 634 429 710 76 39ZM85 -38C110 -38 130 -18 130 7C130 32 110 52 85 52C60 52 40 32 40 7C40 -18 60 -38 85 -38Z" glyph-name="line.001.096" horiz-adv-x="350" /><glyph d="M96 -22 439 637 431 721 74 36ZM85 -38C110 -38 130 -18 130 7C130 32 110 52 85 52C60 52 40 32 40 7C40 -18 60 -38 85 -38Z" glyph-name="line.001.097" horiz-adv-x="350" /><glyph d="M99 -16 439 644 431 728 71 30ZM85 -38C110 -38 130 -18 130 7C130 32 110 52 85 52C60 52 40 32 40 7C40 -18 60 -38 85 -38Z" glyph-name="line.001.098" horiz-adv-x="350" /><glyph d="M89 -36 439 650 431 736 81 50ZM85 -38C110 -38 130 -18 130 7C130 32 110 52 85 52C60 52 40 32 40 7C40 -18 60 -38 85 -38Z" glyph-name="line.001.099" horiz-adv-x="350" /><glyph d="M89 -37 439 656 431 744 81 51ZM85 -38C110 -38 130 -18 130 7C130 32 110 52 85 52C60 52 40 32 40 7C40 -18 60 -38 85 -38Z" glyph-name="line.001.100" horiz-adv-x="350" /><glyph d="M85 37 435 23V-23L85 -9ZM85 59C110 59 130 39 130 14C130 -11 110 -31 85 -31C60 -31 40 -11 40 14C40 39 60 59 85 59Z" glyph-name="line.002.000" horiz-adv-x="350" /><glyph d="M85 37 435 30V-16L85 -9ZM85 59C110 59 130 39 130 14C130 -11 110 -31 85 -31C60 -31 40 -11 40 14C40 39 60 59 85 59Z" glyph-name="line.002.001" horiz-adv-x="350" /><glyph d="M85 -9H435V37H85ZM85 -31C110 -31 130 -11 130 14C130 39 110 59 85 59C60 59 40 39 40 14C40 -11 60 -31 85 -31Z" glyph-name="line.002.002" horiz-adv-x="350" /><glyph d="M85 -9 435 -2V44L85 37ZM85 -31C110 -31 130 -11 130 14C130 39 110 59 85 59C60 59 40 39 40 14C40 -11 60 -31 85 -31Z" glyph-name="line.002.003" horiz-adv-x="350" /><glyph d="M85 -9 435 5V51L85 37ZM85 -31C110 -31 130 -11 130 14C130 39 110 59 85 59C60 59 40 39 40 14C40 -11 60 -31 85 -31Z" glyph-name="line.002.004" horiz-adv-x="350" /><glyph d="M85 -9 435 12V58L85 37ZM85 -31C110 -31 130 -11 130 14C130 39 110 59 85 59C60 59 40 39 40 14C40 -11 60 -31 85 -31Z" glyph-name="line.002.005" horiz-adv-x="350" /><glyph d="M85 -9 435 19V65L85 37ZM85 -31C110 -31 130 -11 130 14C130 39 110 59 85 59C60 59 40 39 40 14C40 -11 60 -31 85 -31Z" glyph-name="line.002.006" horiz-adv-x="350" /><glyph d="M85 -9 435 26V72L85 37ZM85 -31C110 -31 130 -11 130 14C130 39 110 59 85 59C60 59 40 39 40 14C40 -11 60 -31 85 -31Z" glyph-name="line.002.007" horiz-adv-x="350" /><glyph d="M85 -9 435 33V79L85 37ZM85 -31C110 -31 130 -11 130 14C130 39 110 59 85 59C60 59 40 39 40 14C40 -11 60 -31 85 -31Z" glyph-name="line.002.008" horiz-adv-x="350" /><glyph d="M85 -9 435 40V86L85 37ZM85 -31C110 -31 130 -11 130 14C130 39 110 59 85 59C60 59 40 39 40 14C40 -11 60 -31 85 -31Z" glyph-name="line.002.009" horiz-adv-x="350" /><glyph d="M85 -9 435 47V93L85 37ZM85 -31C110 -31 130 -11 130 14C130 39 110 59 85 59C60 59 40 39 40 14C40 -11 60 -31 85 -31Z" glyph-name="line.002.010" horiz-adv-x="350" /><glyph d="M85 -9 435 54V100L85 37ZM85 -31C110 -31 130 -11 130 14C130 39 110 59 85 59C60 59 40 39 40 14C40 -11 60 -31 85 -31Z" glyph-name="line.002.011" horiz-adv-x="350" /><glyph d="M85 -10 435 60V108L85 38ZM85 -31C110 -31 130 -11 130 14C130 39 110 59 85 59C60 59 40 39 40 14C40 -11 60 -31 85 -31Z" glyph-name="line.002.012" horiz-adv-x="350" /><glyph d="M85 -10 435 67V115L85 38ZM85 -31C110 -31 130 -11 130 14C130 39 110 59 85 59C60 59 40 39 40 14C40 -11 60 -31 85 -31Z" glyph-name="line.002.013" horiz-adv-x="350" /><glyph d="M85 -10 435 74V122L85 38ZM85 -31C110 -31 130 -11 130 14C130 39 110 59 85 59C60 59 40 39 40 14C40 -11 60 -31 85 -31Z" glyph-name="line.002.014" horiz-adv-x="350" /><glyph d="M85 -10 435 81V129L85 38ZM85 -31C110 -31 130 -11 130 14C130 39 110 59 85 59C60 59 40 39 40 14C40 -11 60 -31 85 -31Z" glyph-name="line.002.015" horiz-adv-x="350" /><glyph d="M85 -10 435 88V136L85 38ZM85 -31C110 -31 130 -11 130 14C130 39 110 59 85 59C60 59 40 39 40 14C40 -11 60 -31 85 -31Z" glyph-name="line.002.016" horiz-adv-x="350" /><glyph d="M85 -10 435 95V143L85 38ZM85 -31C110 -31 130 -11 130 14C130 39 110 59 85 59C60 59 40 39 40 14C40 -11 60 -31 85 -31Z" glyph-name="line.002.017" horiz-adv-x="350" /><glyph d="M85 -10 435 102V150L85 38ZM85 -31C110 -31 130 -11 130 14C130 39 110 59 85 59C60 59 40 39 40 14C40 -11 60 -31 85 -31Z" glyph-name="line.002.018" horiz-adv-x="350" /><glyph d="M85 -10 435 109V157L85 38ZM85 -31C110 -31 130 -11 130 14C130 39 110 59 85 59C60 59 40 39 40 14C40 -11 60 -31 85 -31Z" glyph-name="line.002.019" horiz-adv-x="350" /><glyph d="M85 -10 435 116V164L85 38ZM85 -31C110 -31 130 -11 130 14C130 39 110 59 85 59C60 59 40 39 40 14C40 -11 60 -31 85 -31Z" glyph-name="line.002.020" horiz-adv-x="350" /><glyph d="M85 -10 435 123V171L85 38ZM85 -31C110 -31 130 -11 130 14C130 39 110 59 85 59C60 59 40 39 40 14C40 -11 60 -31 85 -31Z" glyph-name="line.002.021" horiz-adv-x="350" /><glyph d="M85 -11 435 129V179L85 39ZM85 -31C110 -31 130 -11 130 14C130 39 110 59 85 59C60 59 40 39 40 14C40 -11 60 -31 85 -31Z" glyph-name="line.002.022" horiz-adv-x="350" /><glyph d="M85 -11 435 136V186L85 39ZM85 -31C110 -31 130 -11 130 14C130 39 110 59 85 59C60 59 40 39 40 14C40 -11 60 -31 85 -31Z" glyph-name="line.002.023" horiz-adv-x="350" /><glyph d="M85 -11 435 143V193L85 39ZM85 -31C110 -31 130 -11 130 14C130 39 110 59 85 59C60 59 40 39 40 14C40 -11 60 -31 85 -31Z" glyph-name="line.002.024" horiz-adv-x="350" /><glyph d="M85 -11 435 150V200L85 39ZM85 -31C110 -31 130 -11 130 14C130 39 110 59 85 59C60 59 40 39 40 14C40 -11 60 -31 85 -31Z" glyph-name="line.002.025" horiz-adv-x="350" /><glyph d="M85 -11 435 157V207L85 39ZM85 -31C110 -31 130 -11 130 14C130 39 110 59 85 59C60 59 40 39 40 14C40 -11 60 -31 85 -31Z" glyph-name="line.002.026" horiz-adv-x="350" /><glyph d="M85 -12 435 163V215L85 40ZM85 -31C110 -31 130 -11 130 14C130 39 110 59 85 59C60 59 40 39 40 14C40 -11 60 -31 85 -31Z" glyph-name="line.002.027" horiz-adv-x="350" /><glyph d="M85 -12 435 170V222L85 40ZM85 -31C110 -31 130 -11 130 14C130 39 110 59 85 59C60 59 40 39 40 14C40 -11 60 -31 85 -31Z" glyph-name="line.002.028" horiz-adv-x="350" /><glyph d="M85 -12 435 177V229L85 40ZM85 -31C110 -31 130 -11 130 14C130 39 110 59 85 59C60 59 40 39 40 14C40 -11 60 -31 85 -31Z" glyph-name="line.002.029" horiz-adv-x="350" /><glyph d="M85 -12 435 184V236L85 40ZM85 -31C110 -31 130 -11 130 14C130 39 110 59 85 59C60 59 40 39 40 14C40 -11 60 -31 85 -31Z" glyph-name="line.002.030" horiz-adv-x="350" /><glyph d="M85 -12 435 191V243L85 40ZM85 -31C110 -31 130 -11 130 14C130 39 110 59 85 59C60 59 40 39 40 14C40 -11 60 -31 85 -31Z" glyph-name="line.002.031" horiz-adv-x="350" /><glyph d="M85 -13 435 197V251L85 41ZM85 -31C110 -31 130 -11 130 14C130 39 110 59 85 59C60 59 40 39 40 14C40 -11 60 -31 85 -31Z" glyph-name="line.002.032" horiz-adv-x="350" /><glyph d="M85 -13 435 204V258L85 41ZM85 -31C110 -31 130 -11 130 14C130 39 110 59 85 59C60 59 40 39 40 14C40 -11 60 -31 85 -31Z" glyph-name="line.002.033" horiz-adv-x="350" /><glyph d="M85 -13 435 211V265L85 41ZM85 -31C110 -31 130 -11 130 14C130 39 110 59 85 59C60 59 40 39 40 14C40 -11 60 -31 85 -31Z" glyph-name="line.002.034" horiz-adv-x="350" /><glyph d="M85 -13 435 218V272L85 41ZM85 -31C110 -31 130 -11 130 14C130 39 110 59 85 59C60 59 40 39 40 14C40 -11 60 -31 85 -31Z" glyph-name="line.002.035" horiz-adv-x="350" /><glyph d="M85 -13 435 225V279L85 41ZM85 -31C110 -31 130 -11 130 14C130 39 110 59 85 59C60 59 40 39 40 14C40 -11 60 -31 85 -31Z" glyph-name="line.002.036" horiz-adv-x="350" /><glyph d="M85 -14 435 231V287L85 42ZM85 -31C110 -31 130 -11 130 14C130 39 110 59 85 59C60 59 40 39 40 14C40 -11 60 -31 85 -31Z" glyph-name="line.002.037" horiz-adv-x="350" /><glyph d="M85 -14 435 238V294L85 42ZM85 -31C110 -31 130 -11 130 14C130 39 110 59 85 59C60 59 40 39 40 14C40 -11 60 -31 85 -31Z" glyph-name="line.002.038" horiz-adv-x="350" /><glyph d="M85 -14 435 245V301L85 42ZM85 -31C110 -31 130 -11 130 14C130 39 110 59 85 59C60 59 40 39 40 14C40 -11 60 -31 85 -31Z" glyph-name="line.002.039" horiz-adv-x="350" /><glyph d="M85 -14 435 252V308L85 42ZM85 -31C110 -31 130 -11 130 14C130 39 110 59 85 59C60 59 40 39 40 14C40 -11 60 -31 85 -31Z" glyph-name="line.002.040" horiz-adv-x="350" /><glyph d="M85 -14 435 259V315L85 42ZM85 -31C110 -31 130 -11 130 14C130 39 110 59 85 59C60 59 40 39 40 14C40 -11 60 -31 85 -31Z" glyph-name="line.002.041" horiz-adv-x="350" /><glyph d="M85 -15 435 265V323L85 43ZM85 -31C110 -31 130 -11 130 14C130 39 110 59 85 59C60 59 40 39 40 14C40 -11 60 -31 85 -31Z" glyph-name="line.002.042" horiz-adv-x="350" /><glyph d="M85 -15 435 272V330L85 43ZM85 -31C110 -31 130 -11 130 14C130 39 110 59 85 59C60 59 40 39 40 14C40 -11 60 -31 85 -31Z" glyph-name="line.002.043" horiz-adv-x="350" /><glyph d="M85 -15 435 279V337L85 43ZM85 -31C110 -31 130 -11 130 14C130 39 110 59 85 59C60 59 40 39 40 14C40 -11 60 -31 85 -31Z" glyph-name="line.002.044" horiz-adv-x="350" /><glyph d="M85 -15 435 286V344L85 43ZM85 -31C110 -31 130 -11 130 14C130 39 110 59 85 59C60 59 40 39 40 14C40 -11 60 -31 85 -31Z" glyph-name="line.002.045" horiz-adv-x="350" /><glyph d="M85 -15 435 293V351L85 43ZM85 -31C110 -31 130 -11 130 14C130 39 110 59 85 59C60 59 40 39 40 14C40 -11 60 -31 85 -31Z" glyph-name="line.002.046" horiz-adv-x="350" /><glyph d="M85 -16 435 299V359L85 44ZM85 -31C110 -31 130 -11 130 14C130 39 110 59 85 59C60 59 40 39 40 14C40 -11 60 -31 85 -31Z" glyph-name="line.002.047" horiz-adv-x="350" /><glyph d="M85 -16 435 306V366L85 44ZM85 -31C110 -31 130 -11 130 14C130 39 110 59 85 59C60 59 40 39 40 14C40 -11 60 -31 85 -31Z" glyph-name="line.002.048" horiz-adv-x="350" /><glyph d="M85 -16 435 313V373L85 44ZM85 -31C110 -31 130 -11 130 14C130 39 110 59 85 59C60 59 40 39 40 14C40 -11 60 -31 85 -31Z" glyph-name="line.002.049" horiz-adv-x="350" /><glyph d="M85 -16 435 320V380L85 44ZM85 -31C110 -31 130 -11 130 14C130 39 110 59 85 59C60 59 40 39 40 14C40 -11 60 -31 85 -31Z" glyph-name="line.002.050" horiz-adv-x="350" /><glyph d="M85 -16 435 327V387L85 44ZM85 -31C110 -31 130 -11 130 14C130 39 110 59 85 59C60 59 40 39 40 14C40 -11 60 -31 85 -31Z" glyph-name="line.002.051" horiz-adv-x="350" /><glyph d="M85 -17 435 333V395L85 45ZM85 -31C110 -31 130 -11 130 14C130 39 110 59 85 59C60 59 40 39 40 14C40 -11 60 -31 85 -31Z" glyph-name="line.002.052" horiz-adv-x="350" /><glyph d="M85 -17 435 340V402L85 45ZM85 -31C110 -31 130 -11 130 14C130 39 110 59 85 59C60 59 40 39 40 14C40 -11 60 -31 85 -31Z" glyph-name="line.002.053" horiz-adv-x="350" /><glyph d="M85 -17 435 347V409L85 45ZM85 -31C110 -31 130 -11 130 14C130 39 110 59 85 59C60 59 40 39 40 14C40 -11 60 -31 85 -31Z" glyph-name="line.002.054" horiz-adv-x="350" /><glyph d="M85 -17 435 354V416L85 45ZM85 -31C110 -31 130 -11 130 14C130 39 110 59 85 59C60 59 40 39 40 14C40 -11 60 -31 85 -31Z" glyph-name="line.002.055" horiz-adv-x="350" /><glyph d="M85 -18 435 360V424L85 46ZM85 -31C110 -31 130 -11 130 14C130 39 110 59 85 59C60 59 40 39 40 14C40 -11 60 -31 85 -31Z" glyph-name="line.002.056" horiz-adv-x="350" /><glyph d="M85 -18 435 367V431L85 46ZM85 -31C110 -31 130 -11 130 14C130 39 110 59 85 59C60 59 40 39 40 14C40 -11 60 -31 85 -31Z" glyph-name="line.002.057" horiz-adv-x="350" /><glyph d="M85 -18 435 374V438L85 46ZM85 -31C110 -31 130 -11 130 14C130 39 110 59 85 59C60 59 40 39 40 14C40 -11 60 -31 85 -31Z" glyph-name="line.002.058" horiz-adv-x="350" /><glyph d="M85 -19 435 380V446L85 47ZM85 -31C110 -31 130 -11 130 14C130 39 110 59 85 59C60 59 40 39 40 14C40 -11 60 -31 85 -31Z" glyph-name="line.002.059" horiz-adv-x="350" /><glyph d="M85 -19 435 387V453L85 47ZM85 -31C110 -31 130 -11 130 14C130 39 110 59 85 59C60 59 40 39 40 14C40 -11 60 -31 85 -31Z" glyph-name="line.002.060" horiz-adv-x="350" /><glyph d="M85 -19 435 394V460L85 47ZM85 -31C110 -31 130 -11 130 14C130 39 110 59 85 59C60 59 40 39 40 14C40 -11 60 -31 85 -31Z" glyph-name="line.002.061" horiz-adv-x="350" /><glyph d="M85 -20 435 400V468L85 48ZM85 -31C110 -31 130 -11 130 14C130 39 110 59 85 59C60 59 40 39 40 14C40 -11 60 -31 85 -31Z" glyph-name="line.002.062" horiz-adv-x="350" /><glyph d="M85 -20 435 407V475L85 48ZM85 -31C110 -31 130 -11 130 14C130 39 110 59 85 59C60 59 40 39 40 14C40 -11 60 -31 85 -31Z" glyph-name="line.002.063" horiz-adv-x="350" /><glyph d="M85 -20 435 414V482L85 48ZM85 -31C110 -31 130 -11 130 14C130 39 110 59 85 59C60 59 40 39 40 14C40 -11 60 -31 85 -31Z" glyph-name="line.002.064" horiz-adv-x="350" /><glyph d="M85 -21 435 420V490L85 49ZM85 -31C110 -31 130 -11 130 14C130 39 110 59 85 59C60 59 40 39 40 14C40 -11 60 -31 85 -31Z" glyph-name="line.002.065" horiz-adv-x="350" /><glyph d="M85 -21 435 427V497L85 49ZM85 -31C110 -31 130 -11 130 14C130 39 110 59 85 59C60 59 40 39 40 14C40 -11 60 -31 85 -31Z" glyph-name="line.002.066" horiz-adv-x="350" /><glyph d="M85 -22 435 433V505L85 50ZM85 -31C110 -31 130 -11 130 14C130 39 110 59 85 59C60 59 40 39 40 14C40 -11 60 -31 85 -31Z" glyph-name="line.002.067" horiz-adv-x="350" /><glyph d="M85 -22 435 440V512L85 50ZM85 -31C110 -31 130 -11 130 14C130 39 110 59 85 59C60 59 40 39 40 14C40 -11 60 -31 85 -31Z" glyph-name="line.002.068" horiz-adv-x="350" /><glyph d="M85 -23 435 446V520L85 51ZM85 -31C110 -31 130 -11 130 14C130 39 110 59 85 59C60 59 40 39 40 14C40 -11 60 -31 85 -31Z" glyph-name="line.002.069" horiz-adv-x="350" /><glyph d="M85 -23 435 453V527L85 51ZM85 -31C110 -31 130 -11 130 14C130 39 110 59 85 59C60 59 40 39 40 14C40 -11 60 -31 85 -31Z" glyph-name="line.002.070" horiz-adv-x="350" /><glyph d="M85 -23 435 461V535L85 51ZM85 -31C110 -31 130 -11 130 14C130 39 110 59 85 59C60 59 40 39 40 14C40 -11 60 -31 85 -31Z" glyph-name="line.002.071" horiz-adv-x="350" /><glyph d="M85 -24 435 466V542L85 52ZM85 -31C110 -31 130 -11 130 14C130 39 110 59 85 59C60 59 40 39 40 14C40 -11 60 -31 85 -31Z" glyph-name="line.002.072" horiz-adv-x="350" /><glyph d="M85 -24 435 473V549L85 52ZM85 -31C110 -31 130 -11 130 14C130 39 110 59 85 59C60 59 40 39 40 14C40 -11 60 -31 85 -31Z" glyph-name="line.002.073" horiz-adv-x="350" /><glyph d="M85 -24 435 480V556L85 52ZM85 -31C110 -31 130 -11 130 14C130 39 110 59 85 59C60 59 40 39 40 14C40 -11 60 -31 85 -31Z" glyph-name="line.002.074" horiz-adv-x="350" /><glyph d="M85 -25 435 486V564L85 53ZM85 -31C110 -31 130 -11 130 14C130 39 110 59 85 59C60 59 40 39 40 14C40 -11 60 -31 85 -31Z" glyph-name="line.002.075" horiz-adv-x="350" /><glyph d="M85 -25 435 493V571L85 53ZM85 -31C110 -31 130 -11 130 14C130 39 110 59 85 59C60 59 40 39 40 14C40 -11 60 -31 85 -31Z" glyph-name="line.002.076" horiz-adv-x="350" /><glyph d="M85 -26 435 499V579L85 54ZM85 -31C110 -31 130 -11 130 14C130 39 110 59 85 59C60 59 40 39 40 14C40 -11 60 -31 85 -31Z" glyph-name="line.002.077" horiz-adv-x="350" /><glyph d="M85 -26 435 506V586L85 54ZM85 -31C110 -31 130 -11 130 14C130 39 110 59 85 59C60 59 40 39 40 14C40 -11 60 -31 85 -31Z" glyph-name="line.002.078" horiz-adv-x="350" /><glyph d="M85 -27 435 512V594L85 55ZM85 -31C110 -31 130 -11 130 14C130 39 110 59 85 59C60 59 40 39 40 14C40 -11 60 -31 85 -31Z" glyph-name="line.002.079" horiz-adv-x="350" /><glyph d="M85 -27 435 519V601L85 55ZM85 -31C110 -31 130 -11 130 14C130 39 110 59 85 59C60 59 40 39 40 14C40 -11 60 -31 85 -31Z" glyph-name="line.002.080" horiz-adv-x="350" /><glyph d="M85 -27 435 526V608L85 55ZM85 -31C110 -31 130 -11 130 14C130 39 110 59 85 59C60 59 40 39 40 14C40 -11 60 -31 85 -31Z" glyph-name="line.002.081" horiz-adv-x="350" /><glyph d="M85 -28 435 532V616L85 56ZM85 -31C110 -31 130 -11 130 14C130 39 110 59 85 59C60 59 40 39 40 14C40 -11 60 -31 85 -31Z" glyph-name="line.002.082" horiz-adv-x="350" /><glyph d="M85 -28 435 539V623L85 56ZM85 -31C110 -31 130 -11 130 14C130 39 110 59 85 59C60 59 40 39 40 14C40 -11 60 -31 85 -31Z" glyph-name="line.002.083" horiz-adv-x="350" /><glyph d="M85 -29 435 545V631L85 57ZM85 -31C110 -31 130 -11 130 14C130 39 110 59 85 59C60 59 40 39 40 14C40 -11 60 -31 85 -31Z" glyph-name="line.002.084" horiz-adv-x="350" /><glyph d="M85 -29 435 552V638L85 57ZM85 -31C110 -31 130 -11 130 14C130 39 110 59 85 59C60 59 40 39 40 14C40 -11 60 -31 85 -31Z" glyph-name="line.002.085" horiz-adv-x="350" /><glyph d="M85 -30 435 558V646L85 58ZM85 -31C110 -31 130 -11 130 14C130 39 110 59 85 59C60 59 40 39 40 14C40 -11 60 -31 85 -31Z" glyph-name="line.002.086" horiz-adv-x="350" /><glyph d="M85 -30 435 565V653L85 58ZM85 -31C110 -31 130 -11 130 14C130 39 110 59 85 59C60 59 40 39 40 14C40 -11 60 -31 85 -31Z" glyph-name="line.002.087" horiz-adv-x="350" /><glyph d="M85 -31 435 571V661L85 59ZM85 -31C110 -31 130 -11 130 14C130 39 110 59 85 59C60 59 40 39 40 14C40 -11 60 -31 85 -31Z" glyph-name="line.002.088" horiz-adv-x="350" /><glyph d="M85 -31 435 578V668L85 59ZM85 -31C110 -31 130 -11 130 14C130 39 110 59 85 59C60 59 40 39 40 14C40 -11 60 -31 85 -31Z" glyph-name="line.002.089" horiz-adv-x="350" /><glyph d="M89 -25 436 586 434 674 81 53ZM85 -31C110 -31 130 -11 130 14C130 39 110 59 85 59C60 59 40 39 40 14C40 -11 60 -31 85 -31Z" glyph-name="line.002.090" horiz-adv-x="350" /><glyph d="M89 -25 436 593 434 681 81 53ZM85 -31C110 -31 130 -11 130 14C130 39 110 59 85 59C60 59 40 39 40 14C40 -11 60 -31 85 -31Z" glyph-name="line.002.091" horiz-adv-x="350" /><glyph d="M90 -24 436 599 434 689 80 52ZM85 -31C110 -31 130 -11 130 14C130 39 110 59 85 59C60 59 40 39 40 14C40 -11 60 -31 85 -31Z" glyph-name="line.002.092" horiz-adv-x="350" /><glyph d="M90 -24 436 606 434 696 80 52ZM85 -31C110 -31 130 -11 130 14C130 39 110 59 85 59C60 59 40 39 40 14C40 -11 60 -31 85 -31Z" glyph-name="line.002.093" horiz-adv-x="350" /><glyph d="M91 -23 439 617 431 699 79 51ZM85 -31C110 -31 130 -11 130 14C130 39 110 59 85 59C60 59 40 39 40 14C40 -11 60 -31 85 -31Z" glyph-name="line.002.094" horiz-adv-x="350" /><glyph d="M92 -21 437 621 433 709 78 49ZM85 -31C110 -31 130 -11 130 14C130 39 110 59 85 59C60 59 40 39 40 14C40 -11 60 -31 85 -31Z" glyph-name="line.002.095" horiz-adv-x="350" /><glyph d="M93 -20 441 634 429 710 77 48ZM85 -31C110 -31 130 -11 130 14C130 39 110 59 85 59C60 59 40 39 40 14C40 -11 60 -31 85 -31Z" glyph-name="line.002.096" horiz-adv-x="350" /><glyph d="M94 -18 441 641 429 717 76 46ZM85 -31C110 -31 130 -11 130 14C130 39 110 59 85 59C60 59 40 39 40 14C40 -11 60 -31 85 -31Z" glyph-name="line.002.097" horiz-adv-x="350" /><glyph d="M96 -15 439 644 431 728 74 43ZM85 -31C110 -31 130 -11 130 14C130 39 110 59 85 59C60 59 40 39 40 14C40 -11 60 -31 85 -31Z" glyph-name="line.002.098" horiz-adv-x="350" /><glyph d="M99 -9 439 651 431 735 71 37ZM85 -31C110 -31 130 -11 130 14C130 39 110 59 85 59C60 59 40 39 40 14C40 -11 60 -31 85 -31Z" glyph-name="line.002.099" horiz-adv-x="350" /><glyph d="M89 -29 439 657 431 743 81 57ZM85 -31C110 -31 130 -11 130 14C130 39 110 59 85 59C60 59 40 39 40 14C40 -11 60 -31 85 -31Z" glyph-name="line.002.100" horiz-adv-x="350" /><glyph d="M85 44 435 23V-23L85 -2ZM85 66C110 66 130 46 130 21C130 -4 110 -24 85 -24C60 -24 40 -4 40 21C40 46 60 66 85 66Z" glyph-name="line.003.000" horiz-adv-x="350" /><glyph d="M85 44 435 30V-16L85 -2ZM85 66C110 66 130 46 130 21C130 -4 110 -24 85 -24C60 -24 40 -4 40 21C40 46 60 66 85 66Z" glyph-name="line.003.001" horiz-adv-x="350" /><glyph d="M85 44 435 37V-9L85 -2ZM85 66C110 66 130 46 130 21C130 -4 110 -24 85 -24C60 -24 40 -4 40 21C40 46 60 66 85 66Z" glyph-name="line.003.002" horiz-adv-x="350" /><glyph d="M85 -2H435V44H85ZM85 -24C110 -24 130 -4 130 21C130 46 110 66 85 66C60 66 40 46 40 21C40 -4 60 -24 85 -24Z" glyph-name="line.003.003" horiz-adv-x="350" /><glyph d="M85 -2 435 5V51L85 44ZM85 -24C110 -24 130 -4 130 21C130 46 110 66 85 66C60 66 40 46 40 21C40 -4 60 -24 85 -24Z" glyph-name="line.003.004" horiz-adv-x="350" /><glyph d="M85 -2 435 12V58L85 44ZM85 -24C110 -24 130 -4 130 21C130 46 110 66 85 66C60 66 40 46 40 21C40 -4 60 -24 85 -24Z" glyph-name="line.003.005" horiz-adv-x="350" /><glyph d="M85 -2 435 19V65L85 44ZM85 -24C110 -24 130 -4 130 21C130 46 110 66 85 66C60 66 40 46 40 21C40 -4 60 -24 85 -24Z" glyph-name="line.003.006" horiz-adv-x="350" /><glyph d="M85 -2 435 26V72L85 44ZM85 -24C110 -24 130 -4 130 21C130 46 110 66 85 66C60 66 40 46 40 21C40 -4 60 -24 85 -24Z" glyph-name="line.003.007" horiz-adv-x="350" /><glyph d="M85 -2 435 33V79L85 44ZM85 -24C110 -24 130 -4 130 21C130 46 110 66 85 66C60 66 40 46 40 21C40 -4 60 -24 85 -24Z" glyph-name="line.003.008" horiz-adv-x="350" /><glyph d="M85 -2 435 40V86L85 44ZM85 -24C110 -24 130 -4 130 21C130 46 110 66 85 66C60 66 40 46 40 21C40 -4 60 -24 85 -24Z" glyph-name="line.003.009" horiz-adv-x="350" /><glyph d="M85 -2 435 47V93L85 44ZM85 -24C110 -24 130 -4 130 21C130 46 110 66 85 66C60 66 40 46 40 21C40 -4 60 -24 85 -24Z" glyph-name="line.003.010" horiz-adv-x="350" /><glyph d="M85 -2 435 54V100L85 44ZM85 -24C110 -24 130 -4 130 21C130 46 110 66 85 66C60 66 40 46 40 21C40 -4 60 -24 85 -24Z" glyph-name="line.003.011" horiz-adv-x="350" /><glyph d="M85 -2 435 61V107L85 44ZM85 -24C110 -24 130 -4 130 21C130 46 110 66 85 66C60 66 40 46 40 21C40 -4 60 -24 85 -24Z" glyph-name="line.003.012" horiz-adv-x="350" /><glyph d="M85 -3 435 67V115L85 45ZM85 -24C110 -24 130 -4 130 21C130 46 110 66 85 66C60 66 40 46 40 21C40 -4 60 -24 85 -24Z" glyph-name="line.003.013" horiz-adv-x="350" /><glyph d="M85 -3 435 74V122L85 45ZM85 -24C110 -24 130 -4 130 21C130 46 110 66 85 66C60 66 40 46 40 21C40 -4 60 -24 85 -24Z" glyph-name="line.003.014" horiz-adv-x="350" /><glyph d="M85 -3 435 81V129L85 45ZM85 -24C110 -24 130 -4 130 21C130 46 110 66 85 66C60 66 40 46 40 21C40 -4 60 -24 85 -24Z" glyph-name="line.003.015" horiz-adv-x="350" /><glyph d="M85 -3 435 88V136L85 45ZM85 -24C110 -24 130 -4 130 21C130 46 110 66 85 66C60 66 40 46 40 21C40 -4 60 -24 85 -24Z" glyph-name="line.003.016" horiz-adv-x="350" /><glyph d="M85 -3 435 95V143L85 45ZM85 -24C110 -24 130 -4 130 21C130 46 110 66 85 66C60 66 40 46 40 21C40 -4 60 -24 85 -24Z" glyph-name="line.003.017" horiz-adv-x="350" /><glyph d="M85 -3 435 102V150L85 45ZM85 -24C110 -24 130 -4 130 21C130 46 110 66 85 66C60 66 40 46 40 21C40 -4 60 -24 85 -24Z" glyph-name="line.003.018" horiz-adv-x="350" /><glyph d="M85 -3 435 109V157L85 45ZM85 -24C110 -24 130 -4 130 21C130 46 110 66 85 66C60 66 40 46 40 21C40 -4 60 -24 85 -24Z" glyph-name="line.003.019" horiz-adv-x="350" /><glyph d="M85 -3 435 116V164L85 45ZM85 -24C110 -24 130 -4 130 21C130 46 110 66 85 66C60 66 40 46 40 21C40 -4 60 -24 85 -24Z" glyph-name="line.003.020" horiz-adv-x="350" /><glyph d="M85 -3 435 123V171L85 45ZM85 -24C110 -24 130 -4 130 21C130 46 110 66 85 66C60 66 40 46 40 21C40 -4 60 -24 85 -24Z" glyph-name="line.003.021" horiz-adv-x="350" /><glyph d="M85 -3 435 130V178L85 45ZM85 -24C110 -24 130 -4 130 21C130 46 110 66 85 66C60 66 40 46 40 21C40 -4 60 -24 85 -24Z" glyph-name="line.003.022" horiz-adv-x="350" /><glyph d="M85 -4 435 136V186L85 46ZM85 -24C110 -24 130 -4 130 21C130 46 110 66 85 66C60 66 40 46 40 21C40 -4 60 -24 85 -24Z" glyph-name="line.003.023" horiz-adv-x="350" /><glyph d="M85 -4 435 143V193L85 46ZM85 -24C110 -24 130 -4 130 21C130 46 110 66 85 66C60 66 40 46 40 21C40 -4 60 -24 85 -24Z" glyph-name="line.003.024" horiz-adv-x="350" /><glyph d="M85 -4 435 150V200L85 46ZM85 -24C110 -24 130 -4 130 21C130 46 110 66 85 66C60 66 40 46 40 21C40 -4 60 -24 85 -24Z" glyph-name="line.003.025" horiz-adv-x="350" /><glyph d="M85 -4 435 157V207L85 46ZM85 -24C110 -24 130 -4 130 21C130 46 110 66 85 66C60 66 40 46 40 21C40 -4 60 -24 85 -24Z" glyph-name="line.003.026" horiz-adv-x="350" /><glyph d="M85 -4 435 164V214L85 46ZM85 -24C110 -24 130 -4 130 21C130 46 110 66 85 66C60 66 40 46 40 21C40 -4 60 -24 85 -24Z" glyph-name="line.003.027" horiz-adv-x="350" /><glyph d="M85 -5 435 170V222L85 47ZM85 -24C110 -24 130 -4 130 21C130 46 110 66 85 66C60 66 40 46 40 21C40 -4 60 -24 85 -24Z" glyph-name="line.003.028" horiz-adv-x="350" /><glyph d="M85 -5 435 177V229L85 47ZM85 -24C110 -24 130 -4 130 21C130 46 110 66 85 66C60 66 40 46 40 21C40 -4 60 -24 85 -24Z" glyph-name="line.003.029" horiz-adv-x="350" /><glyph d="M85 -5 435 184V236L85 47ZM85 -24C110 -24 130 -4 130 21C130 46 110 66 85 66C60 66 40 46 40 21C40 -4 60 -24 85 -24Z" glyph-name="line.003.030" horiz-adv-x="350" /><glyph d="M85 -5 435 191V243L85 47ZM85 -24C110 -24 130 -4 130 21C130 46 110 66 85 66C60 66 40 46 40 21C40 -4 60 -24 85 -24Z" glyph-name="line.003.031" horiz-adv-x="350" /><glyph d="M85 -5 435 198V250L85 47ZM85 -24C110 -24 130 -4 130 21C130 46 110 66 85 66C60 66 40 46 40 21C40 -4 60 -24 85 -24Z" glyph-name="line.003.032" horiz-adv-x="350" /><glyph d="M85 -6 435 204V258L85 48ZM85 -24C110 -24 130 -4 130 21C130 46 110 66 85 66C60 66 40 46 40 21C40 -4 60 -24 85 -24Z" glyph-name="line.003.033" horiz-adv-x="350" /><glyph d="M85 -6 435 211V265L85 48ZM85 -24C110 -24 130 -4 130 21C130 46 110 66 85 66C60 66 40 46 40 21C40 -4 60 -24 85 -24Z" glyph-name="line.003.034" horiz-adv-x="350" /><glyph d="M85 -6 435 218V272L85 48ZM85 -24C110 -24 130 -4 130 21C130 46 110 66 85 66C60 66 40 46 40 21C40 -4 60 -24 85 -24Z" glyph-name="line.003.035" horiz-adv-x="350" /><glyph d="M85 -6 435 225V279L85 48ZM85 -24C110 -24 130 -4 130 21C130 46 110 66 85 66C60 66 40 46 40 21C40 -4 60 -24 85 -24Z" glyph-name="line.003.036" horiz-adv-x="350" /><glyph d="M85 -6 435 232V286L85 48ZM85 -24C110 -24 130 -4 130 21C130 46 110 66 85 66C60 66 40 46 40 21C40 -4 60 -24 85 -24Z" glyph-name="line.003.037" horiz-adv-x="350" /><glyph d="M85 -7 435 238V294L85 49ZM85 -24C110 -24 130 -4 130 21C130 46 110 66 85 66C60 66 40 46 40 21C40 -4 60 -24 85 -24Z" glyph-name="line.003.038" horiz-adv-x="350" /><glyph d="M85 -7 435 245V301L85 49ZM85 -24C110 -24 130 -4 130 21C130 46 110 66 85 66C60 66 40 46 40 21C40 -4 60 -24 85 -24Z" glyph-name="line.003.039" horiz-adv-x="350" /><glyph d="M85 -7 435 252V308L85 49ZM85 -24C110 -24 130 -4 130 21C130 46 110 66 85 66C60 66 40 46 40 21C40 -4 60 -24 85 -24Z" glyph-name="line.003.040" horiz-adv-x="350" /><glyph d="M85 -7 435 259V315L85 49ZM85 -24C110 -24 130 -4 130 21C130 46 110 66 85 66C60 66 40 46 40 21C40 -4 60 -24 85 -24Z" glyph-name="line.003.041" horiz-adv-x="350" /><glyph d="M85 -7 435 266V322L85 49ZM85 -24C110 -24 130 -4 130 21C130 46 110 66 85 66C60 66 40 46 40 21C40 -4 60 -24 85 -24Z" glyph-name="line.003.042" horiz-adv-x="350" /><glyph d="M85 -8 435 272V330L85 50ZM85 -24C110 -24 130 -4 130 21C130 46 110 66 85 66C60 66 40 46 40 21C40 -4 60 -24 85 -24Z" glyph-name="line.003.043" horiz-adv-x="350" /><glyph d="M85 -8 435 279V337L85 50ZM85 -24C110 -24 130 -4 130 21C130 46 110 66 85 66C60 66 40 46 40 21C40 -4 60 -24 85 -24Z" glyph-name="line.003.044" horiz-adv-x="350" /><glyph d="M85 -8 435 286V344L85 50ZM85 -24C110 -24 130 -4 130 21C130 46 110 66 85 66C60 66 40 46 40 21C40 -4 60 -24 85 -24Z" glyph-name="line.003.045" horiz-adv-x="350" /><glyph d="M85 -8 435 293V351L85 50ZM85 -24C110 -24 130 -4 130 21C130 46 110 66 85 66C60 66 40 46 40 21C40 -4 60 -24 85 -24Z" glyph-name="line.003.046" horiz-adv-x="350" /><glyph d="M85 -8 435 300V358L85 50ZM85 -24C110 -24 130 -4 130 21C130 46 110 66 85 66C60 66 40 46 40 21C40 -4 60 -24 85 -24Z" glyph-name="line.003.047" horiz-adv-x="350" /><glyph d="M85 -9 435 306V366L85 51ZM85 -24C110 -24 130 -4 130 21C130 46 110 66 85 66C60 66 40 46 40 21C40 -4 60 -24 85 -24Z" glyph-name="line.003.048" horiz-adv-x="350" /><glyph d="M85 -9 435 313V373L85 51ZM85 -24C110 -24 130 -4 130 21C130 46 110 66 85 66C60 66 40 46 40 21C40 -4 60 -24 85 -24Z" glyph-name="line.003.049" horiz-adv-x="350" /><glyph d="M85 -9 435 320V380L85 51ZM85 -24C110 -24 130 -4 130 21C130 46 110 66 85 66C60 66 40 46 40 21C40 -4 60 -24 85 -24Z" glyph-name="line.003.050" horiz-adv-x="350" /><glyph d="M85 -9 435 327V387L85 51ZM85 -24C110 -24 130 -4 130 21C130 46 110 66 85 66C60 66 40 46 40 21C40 -4 60 -24 85 -24Z" glyph-name="line.003.051" horiz-adv-x="350" /><glyph d="M85 -9 435 334V394L85 51ZM85 -24C110 -24 130 -4 130 21C130 46 110 66 85 66C60 66 40 46 40 21C40 -4 60 -24 85 -24Z" glyph-name="line.003.052" horiz-adv-x="350" /><glyph d="M85 -10 435 340V402L85 52ZM85 -24C110 -24 130 -4 130 21C130 46 110 66 85 66C60 66 40 46 40 21C40 -4 60 -24 85 -24Z" glyph-name="line.003.053" horiz-adv-x="350" /><glyph d="M85 -10 435 347V409L85 52ZM85 -24C110 -24 130 -4 130 21C130 46 110 66 85 66C60 66 40 46 40 21C40 -4 60 -24 85 -24Z" glyph-name="line.003.054" horiz-adv-x="350" /><glyph d="M85 -10 435 354V416L85 52ZM85 -24C110 -24 130 -4 130 21C130 46 110 66 85 66C60 66 40 46 40 21C40 -4 60 -24 85 -24Z" glyph-name="line.003.055" horiz-adv-x="350" /><glyph d="M85 -10 435 361V423L85 52ZM85 -24C110 -24 130 -4 130 21C130 46 110 66 85 66C60 66 40 46 40 21C40 -4 60 -24 85 -24Z" glyph-name="line.003.056" horiz-adv-x="350" /><glyph d="M85 -11 435 367V431L85 53ZM85 -24C110 -24 130 -4 130 21C130 46 110 66 85 66C60 66 40 46 40 21C40 -4 60 -24 85 -24Z" glyph-name="line.003.057" horiz-adv-x="350" /><glyph d="M85 -11 435 374V438L85 53ZM85 -24C110 -24 130 -4 130 21C130 46 110 66 85 66C60 66 40 46 40 21C40 -4 60 -24 85 -24Z" glyph-name="line.003.058" horiz-adv-x="350" /><glyph d="M85 -11 435 381V445L85 53ZM85 -24C110 -24 130 -4 130 21C130 46 110 66 85 66C60 66 40 46 40 21C40 -4 60 -24 85 -24Z" glyph-name="line.003.059" horiz-adv-x="350" /><glyph d="M85 -12 435 387V453L85 54ZM85 -24C110 -24 130 -4 130 21C130 46 110 66 85 66C60 66 40 46 40 21C40 -4 60 -24 85 -24Z" glyph-name="line.003.060" horiz-adv-x="350" /><glyph d="M85 -12 435 394V460L85 54ZM85 -24C110 -24 130 -4 130 21C130 46 110 66 85 66C60 66 40 46 40 21C40 -4 60 -24 85 -24Z" glyph-name="line.003.061" horiz-adv-x="350" /><glyph d="M85 -12 435 401V467L85 54ZM85 -24C110 -24 130 -4 130 21C130 46 110 66 85 66C60 66 40 46 40 21C40 -4 60 -24 85 -24Z" glyph-name="line.003.062" horiz-adv-x="350" /><glyph d="M85 -13 435 407V475L85 55ZM85 -24C110 -24 130 -4 130 21C130 46 110 66 85 66C60 66 40 46 40 21C40 -4 60 -24 85 -24Z" glyph-name="line.003.063" horiz-adv-x="350" /><glyph d="M85 -13 435 414V482L85 55ZM85 -24C110 -24 130 -4 130 21C130 46 110 66 85 66C60 66 40 46 40 21C40 -4 60 -24 85 -24Z" glyph-name="line.003.064" horiz-adv-x="350" /><glyph d="M85 -13 435 421V489L85 55ZM85 -24C110 -24 130 -4 130 21C130 46 110 66 85 66C60 66 40 46 40 21C40 -4 60 -24 85 -24Z" glyph-name="line.003.065" horiz-adv-x="350" /><glyph d="M85 -14 435 427V497L85 56ZM85 -24C110 -24 130 -4 130 21C130 46 110 66 85 66C60 66 40 46 40 21C40 -4 60 -24 85 -24Z" glyph-name="line.003.066" horiz-adv-x="350" /><glyph d="M85 -14 435 434V504L85 56ZM85 -24C110 -24 130 -4 130 21C130 46 110 66 85 66C60 66 40 46 40 21C40 -4 60 -24 85 -24Z" glyph-name="line.003.067" horiz-adv-x="350" /><glyph d="M85 -15 435 440V512L85 57ZM85 -24C110 -24 130 -4 130 21C130 46 110 66 85 66C60 66 40 46 40 21C40 -4 60 -24 85 -24Z" glyph-name="line.003.068" horiz-adv-x="350" /><glyph d="M85 -15 435 447V519L85 57ZM85 -24C110 -24 130 -4 130 21C130 46 110 66 85 66C60 66 40 46 40 21C40 -4 60 -24 85 -24Z" glyph-name="line.003.069" horiz-adv-x="350" /><glyph d="M85 -16 435 453V527L85 58ZM85 -24C110 -24 130 -4 130 21C130 46 110 66 85 66C60 66 40 46 40 21C40 -4 60 -24 85 -24Z" glyph-name="line.003.070" horiz-adv-x="350" /><glyph d="M85 -16 435 460V534L85 58ZM85 -24C110 -24 130 -4 130 21C130 46 110 66 85 66C60 66 40 46 40 21C40 -4 60 -24 85 -24Z" glyph-name="line.003.071" horiz-adv-x="350" /><glyph d="M85 -16 435 468V542L85 58ZM85 -24C110 -24 130 -4 130 21C130 46 110 66 85 66C60 66 40 46 40 21C40 -4 60 -24 85 -24Z" glyph-name="line.003.072" horiz-adv-x="350" /><glyph d="M85 -17 435 473V549L85 59ZM85 -24C110 -24 130 -4 130 21C130 46 110 66 85 66C60 66 40 46 40 21C40 -4 60 -24 85 -24Z" glyph-name="line.003.073" horiz-adv-x="350" /><glyph d="M85 -17 435 480V556L85 59ZM85 -24C110 -24 130 -4 130 21C130 46 110 66 85 66C60 66 40 46 40 21C40 -4 60 -24 85 -24Z" glyph-name="line.003.074" horiz-adv-x="350" /><glyph d="M85 -17 435 487V563L85 59ZM85 -24C110 -24 130 -4 130 21C130 46 110 66 85 66C60 66 40 46 40 21C40 -4 60 -24 85 -24Z" glyph-name="line.003.075" horiz-adv-x="350" /><glyph d="M85 -18 435 493V571L85 60ZM85 -24C110 -24 130 -4 130 21C130 46 110 66 85 66C60 66 40 46 40 21C40 -4 60 -24 85 -24Z" glyph-name="line.003.076" horiz-adv-x="350" /><glyph d="M85 -18 435 500V578L85 60ZM85 -24C110 -24 130 -4 130 21C130 46 110 66 85 66C60 66 40 46 40 21C40 -4 60 -24 85 -24Z" glyph-name="line.003.077" horiz-adv-x="350" /><glyph d="M85 -19 435 506V586L85 61ZM85 -24C110 -24 130 -4 130 21C130 46 110 66 85 66C60 66 40 46 40 21C40 -4 60 -24 85 -24Z" glyph-name="line.003.078" horiz-adv-x="350" /><glyph d="M85 -19 435 513V593L85 61ZM85 -24C110 -24 130 -4 130 21C130 46 110 66 85 66C60 66 40 46 40 21C40 -4 60 -24 85 -24Z" glyph-name="line.003.079" horiz-adv-x="350" /><glyph d="M85 -20 435 519V601L85 62ZM85 -24C110 -24 130 -4 130 21C130 46 110 66 85 66C60 66 40 46 40 21C40 -4 60 -24 85 -24Z" glyph-name="line.003.080" horiz-adv-x="350" /><glyph d="M85 -20 435 526V608L85 62ZM85 -24C110 -24 130 -4 130 21C130 46 110 66 85 66C60 66 40 46 40 21C40 -4 60 -24 85 -24Z" glyph-name="line.003.081" horiz-adv-x="350" /><glyph d="M85 -20 435 533V615L85 62ZM85 -24C110 -24 130 -4 130 21C130 46 110 66 85 66C60 66 40 46 40 21C40 -4 60 -24 85 -24Z" glyph-name="line.003.082" horiz-adv-x="350" /><glyph d="M85 -21 435 539V623L85 63ZM85 -24C110 -24 130 -4 130 21C130 46 110 66 85 66C60 66 40 46 40 21C40 -4 60 -24 85 -24Z" glyph-name="line.003.083" horiz-adv-x="350" /><glyph d="M85 -21 435 546V630L85 63ZM85 -24C110 -24 130 -4 130 21C130 46 110 66 85 66C60 66 40 46 40 21C40 -4 60 -24 85 -24Z" glyph-name="line.003.084" horiz-adv-x="350" /><glyph d="M85 -22 435 552V638L85 64ZM85 -24C110 -24 130 -4 130 21C130 46 110 66 85 66C60 66 40 46 40 21C40 -4 60 -24 85 -24Z" glyph-name="line.003.085" horiz-adv-x="350" /><glyph d="M85 -22 435 559V645L85 64ZM85 -24C110 -24 130 -4 130 21C130 46 110 66 85 66C60 66 40 46 40 21C40 -4 60 -24 85 -24Z" glyph-name="line.003.086" horiz-adv-x="350" /><glyph d="M85 -23 435 565V653L85 65ZM85 -24C110 -24 130 -4 130 21C130 46 110 66 85 66C60 66 40 46 40 21C40 -4 60 -24 85 -24Z" glyph-name="line.003.087" horiz-adv-x="350" /><glyph d="M85 -23 435 572V660L85 65ZM85 -24C110 -24 130 -4 130 21C130 46 110 66 85 66C60 66 40 46 40 21C40 -4 60 -24 85 -24Z" glyph-name="line.003.088" horiz-adv-x="350" /><glyph d="M85 -24 435 578V668L85 66ZM85 -24C110 -24 130 -4 130 21C130 46 110 66 85 66C60 66 40 46 40 21C40 -4 60 -24 85 -24Z" glyph-name="line.003.089" horiz-adv-x="350" /><glyph d="M85 -24 435 585V675L85 66ZM85 -24C110 -24 130 -4 130 21C130 46 110 66 85 66C60 66 40 46 40 21C40 -4 60 -24 85 -24Z" glyph-name="line.003.090" horiz-adv-x="350" /><glyph d="M89 -18 436 593 434 681 81 60ZM85 -24C110 -24 130 -4 130 21C130 46 110 66 85 66C60 66 40 46 40 21C40 -4 60 -24 85 -24Z" glyph-name="line.003.091" horiz-adv-x="350" /><glyph d="M89 -18 436 600 434 688 81 60ZM85 -24C110 -24 130 -4 130 21C130 46 110 66 85 66C60 66 40 46 40 21C40 -4 60 -24 85 -24Z" glyph-name="line.003.092" horiz-adv-x="350" /><glyph d="M90 -17 436 606 434 696 80 59ZM85 -24C110 -24 130 -4 130 21C130 46 110 66 85 66C60 66 40 46 40 21C40 -4 60 -24 85 -24Z" glyph-name="line.003.093" horiz-adv-x="350" /><glyph d="M90 -17 436 613 434 703 80 59ZM85 -24C110 -24 130 -4 130 21C130 46 110 66 85 66C60 66 40 46 40 21C40 -4 60 -24 85 -24Z" glyph-name="line.003.094" horiz-adv-x="350" /><glyph d="M91 -16 439 624 431 706 79 58ZM85 -24C110 -24 130 -4 130 21C130 46 110 66 85 66C60 66 40 46 40 21C40 -4 60 -24 85 -24Z" glyph-name="line.003.095" horiz-adv-x="350" /><glyph d="M92 -14 437 628 433 716 78 56ZM85 -24C110 -24 130 -4 130 21C130 46 110 66 85 66C60 66 40 46 40 21C40 -4 60 -24 85 -24Z" glyph-name="line.003.096" horiz-adv-x="350" /><glyph d="M93 -13 441 641 429 717 77 55ZM85 -24C110 -24 130 -4 130 21C130 46 110 66 85 66C60 66 40 46 40 21C40 -4 60 -24 85 -24Z" glyph-name="line.003.097" horiz-adv-x="350" /><glyph d="M94 -11 441 648 429 724 76 53ZM85 -24C110 -24 130 -4 130 21C130 46 110 66 85 66C60 66 40 46 40 21C40 -4 60 -24 85 -24Z" glyph-name="line.003.098" horiz-adv-x="350" /><glyph d="M96 -8 439 651 431 735 74 50ZM85 -24C110 -24 130 -4 130 21C130 46 110 66 85 66C60 66 40 46 40 21C40 -4 60 -24 85 -24Z" glyph-name="line.003.099" horiz-adv-x="350" /><glyph d="M99 -2 439 658 431 742 71 44ZM85 -24C110 -24 130 -4 130 21C130 46 110 66 85 66C60 66 40 46 40 21C40 -4 60 -24 85 -24Z" glyph-name="line.003.100" horiz-adv-x="350" /><glyph d="M85 51 435 23V-23L85 5ZM85 73C110 73 130 53 130 28C130 3 110 -17 85 -17C60 -17 40 3 40 28C40 53 60 73 85 73Z" glyph-name="line.004.000" horiz-adv-x="350" /><glyph d="M85 51 435 30V-16L85 5ZM85 73C110 73 130 53 130 28C130 3 110 -17 85 -17C60 -17 40 3 40 28C40 53 60 73 85 73Z" glyph-name="line.004.001" horiz-adv-x="350" /><glyph d="M85 51 435 37V-9L85 5ZM85 73C110 73 130 53 130 28C130 3 110 -17 85 -17C60 -17 40 3 40 28C40 53 60 73 85 73Z" glyph-name="line.004.002" horiz-adv-x="350" /><glyph d="M85 51 435 44V-2L85 5ZM85 73C110 73 130 53 130 28C130 3 110 -17 85 -17C60 -17 40 3 40 28C40 53 60 73 85 73Z" glyph-name="line.004.003" horiz-adv-x="350" /><glyph d="M85 5H435V51H85ZM85 -17C110 -17 130 3 130 28C130 53 110 73 85 73C60 73 40 53 40 28C40 3 60 -17 85 -17Z" glyph-name="line.004.004" horiz-adv-x="350" /><glyph d="M85 5 435 12V58L85 51ZM85 -17C110 -17 130 3 130 28C130 53 110 73 85 73C60 73 40 53 40 28C40 3 60 -17 85 -17Z" glyph-name="line.004.005" horiz-adv-x="350" /><glyph d="M85 5 435 19V65L85 51ZM85 -17C110 -17 130 3 130 28C130 53 110 73 85 73C60 73 40 53 40 28C40 3 60 -17 85 -17Z" glyph-name="line.004.006" horiz-adv-x="350" /><glyph d="M85 5 435 26V72L85 51ZM85 -17C110 -17 130 3 130 28C130 53 110 73 85 73C60 73 40 53 40 28C40 3 60 -17 85 -17Z" glyph-name="line.004.007" horiz-adv-x="350" /><glyph d="M85 5 435 33V79L85 51ZM85 -17C110 -17 130 3 130 28C130 53 110 73 85 73C60 73 40 53 40 28C40 3 60 -17 85 -17Z" glyph-name="line.004.008" horiz-adv-x="350" /><glyph d="M85 5 435 40V86L85 51ZM85 -17C110 -17 130 3 130 28C130 53 110 73 85 73C60 73 40 53 40 28C40 3 60 -17 85 -17Z" glyph-name="line.004.009" horiz-adv-x="350" /><glyph d="M85 5 435 47V93L85 51ZM85 -17C110 -17 130 3 130 28C130 53 110 73 85 73C60 73 40 53 40 28C40 3 60 -17 85 -17Z" glyph-name="line.004.010" horiz-adv-x="350" /><glyph d="M85 5 435 54V100L85 51ZM85 -17C110 -17 130 3 130 28C130 53 110 73 85 73C60 73 40 53 40 28C40 3 60 -17 85 -17Z" glyph-name="line.004.011" horiz-adv-x="350" /><glyph d="M85 5 435 61V107L85 51ZM85 -17C110 -17 130 3 130 28C130 53 110 73 85 73C60 73 40 53 40 28C40 3 60 -17 85 -17Z" glyph-name="line.004.012" horiz-adv-x="350" /><glyph d="M85 5 435 68V114L85 51ZM85 -17C110 -17 130 3 130 28C130 53 110 73 85 73C60 73 40 53 40 28C40 3 60 -17 85 -17Z" glyph-name="line.004.013" horiz-adv-x="350" /><glyph d="M85 4 435 74V122L85 52ZM85 -17C110 -17 130 3 130 28C130 53 110 73 85 73C60 73 40 53 40 28C40 3 60 -17 85 -17Z" glyph-name="line.004.014" horiz-adv-x="350" /><glyph d="M85 4 435 81V129L85 52ZM85 -17C110 -17 130 3 130 28C130 53 110 73 85 73C60 73 40 53 40 28C40 3 60 -17 85 -17Z" glyph-name="line.004.015" horiz-adv-x="350" /><glyph d="M85 4 435 88V136L85 52ZM85 -17C110 -17 130 3 130 28C130 53 110 73 85 73C60 73 40 53 40 28C40 3 60 -17 85 -17Z" glyph-name="line.004.016" horiz-adv-x="350" /><glyph d="M85 4 435 95V143L85 52ZM85 -17C110 -17 130 3 130 28C130 53 110 73 85 73C60 73 40 53 40 28C40 3 60 -17 85 -17Z" glyph-name="line.004.017" horiz-adv-x="350" /><glyph d="M85 4 435 102V150L85 52ZM85 -17C110 -17 130 3 130 28C130 53 110 73 85 73C60 73 40 53 40 28C40 3 60 -17 85 -17Z" glyph-name="line.004.018" horiz-adv-x="350" /><glyph d="M85 4 435 109V157L85 52ZM85 -17C110 -17 130 3 130 28C130 53 110 73 85 73C60 73 40 53 40 28C40 3 60 -17 85 -17Z" glyph-name="line.004.019" horiz-adv-x="350" /><glyph d="M85 4 435 116V164L85 52ZM85 -17C110 -17 130 3 130 28C130 53 110 73 85 73C60 73 40 53 40 28C40 3 60 -17 85 -17Z" glyph-name="line.004.020" horiz-adv-x="350" /><glyph d="M85 4 435 123V171L85 52ZM85 -17C110 -17 130 3 130 28C130 53 110 73 85 73C60 73 40 53 40 28C40 3 60 -17 85 -17Z" glyph-name="line.004.021" horiz-adv-x="350" /><glyph d="M85 4 435 130V178L85 52ZM85 -17C110 -17 130 3 130 28C130 53 110 73 85 73C60 73 40 53 40 28C40 3 60 -17 85 -17Z" glyph-name="line.004.022" horiz-adv-x="350" /><glyph d="M85 4 435 137V185L85 52ZM85 -17C110 -17 130 3 130 28C130 53 110 73 85 73C60 73 40 53 40 28C40 3 60 -17 85 -17Z" glyph-name="line.004.023" horiz-adv-x="350" /><glyph d="M85 3 435 143V193L85 53ZM85 -17C110 -17 130 3 130 28C130 53 110 73 85 73C60 73 40 53 40 28C40 3 60 -17 85 -17Z" glyph-name="line.004.024" horiz-adv-x="350" /><glyph d="M85 3 435 150V200L85 53ZM85 -17C110 -17 130 3 130 28C130 53 110 73 85 73C60 73 40 53 40 28C40 3 60 -17 85 -17Z" glyph-name="line.004.025" horiz-adv-x="350" /><glyph d="M85 3 435 157V207L85 53ZM85 -17C110 -17 130 3 130 28C130 53 110 73 85 73C60 73 40 53 40 28C40 3 60 -17 85 -17Z" glyph-name="line.004.026" horiz-adv-x="350" /><glyph d="M85 3 435 164V214L85 53ZM85 -17C110 -17 130 3 130 28C130 53 110 73 85 73C60 73 40 53 40 28C40 3 60 -17 85 -17Z" glyph-name="line.004.027" horiz-adv-x="350" /><glyph d="M85 3 435 171V221L85 53ZM85 -17C110 -17 130 3 130 28C130 53 110 73 85 73C60 73 40 53 40 28C40 3 60 -17 85 -17Z" glyph-name="line.004.028" horiz-adv-x="350" /><glyph d="M85 2 435 177V229L85 54ZM85 -17C110 -17 130 3 130 28C130 53 110 73 85 73C60 73 40 53 40 28C40 3 60 -17 85 -17Z" glyph-name="line.004.029" horiz-adv-x="350" /><glyph d="M85 2 435 184V236L85 54ZM85 -17C110 -17 130 3 130 28C130 53 110 73 85 73C60 73 40 53 40 28C40 3 60 -17 85 -17Z" glyph-name="line.004.030" horiz-adv-x="350" /><glyph d="M85 2 435 191V243L85 54ZM85 -17C110 -17 130 3 130 28C130 53 110 73 85 73C60 73 40 53 40 28C40 3 60 -17 85 -17Z" glyph-name="line.004.031" horiz-adv-x="350" /><glyph d="M85 2 435 198V250L85 54ZM85 -17C110 -17 130 3 130 28C130 53 110 73 85 73C60 73 40 53 40 28C40 3 60 -17 85 -17Z" glyph-name="line.004.032" horiz-adv-x="350" /><glyph d="M85 2 435 205V257L85 54ZM85 -17C110 -17 130 3 130 28C130 53 110 73 85 73C60 73 40 53 40 28C40 3 60 -17 85 -17Z" glyph-name="line.004.033" horiz-adv-x="350" /><glyph d="M85 1 435 211V265L85 55ZM85 -17C110 -17 130 3 130 28C130 53 110 73 85 73C60 73 40 53 40 28C40 3 60 -17 85 -17Z" glyph-name="line.004.034" horiz-adv-x="350" /><glyph d="M85 1 435 218V272L85 55ZM85 -17C110 -17 130 3 130 28C130 53 110 73 85 73C60 73 40 53 40 28C40 3 60 -17 85 -17Z" glyph-name="line.004.035" horiz-adv-x="350" /><glyph d="M85 1 435 225V279L85 55ZM85 -17C110 -17 130 3 130 28C130 53 110 73 85 73C60 73 40 53 40 28C40 3 60 -17 85 -17Z" glyph-name="line.004.036" horiz-adv-x="350" /><glyph d="M85 1 435 232V286L85 55ZM85 -17C110 -17 130 3 130 28C130 53 110 73 85 73C60 73 40 53 40 28C40 3 60 -17 85 -17Z" glyph-name="line.004.037" horiz-adv-x="350" /><glyph d="M85 1 435 239V293L85 55ZM85 -17C110 -17 130 3 130 28C130 53 110 73 85 73C60 73 40 53 40 28C40 3 60 -17 85 -17Z" glyph-name="line.004.038" horiz-adv-x="350" /><glyph d="M85 0 435 245V301L85 56ZM85 -17C110 -17 130 3 130 28C130 53 110 73 85 73C60 73 40 53 40 28C40 3 60 -17 85 -17Z" glyph-name="line.004.039" horiz-adv-x="350" /><glyph d="M85 0 435 252V308L85 56ZM85 -17C110 -17 130 3 130 28C130 53 110 73 85 73C60 73 40 53 40 28C40 3 60 -17 85 -17Z" glyph-name="line.004.040" horiz-adv-x="350" /><glyph d="M85 0 435 259V315L85 56ZM85 -17C110 -17 130 3 130 28C130 53 110 73 85 73C60 73 40 53 40 28C40 3 60 -17 85 -17Z" glyph-name="line.004.041" horiz-adv-x="350" /><glyph d="M85 0 435 266V322L85 56ZM85 -17C110 -17 130 3 130 28C130 53 110 73 85 73C60 73 40 53 40 28C40 3 60 -17 85 -17Z" glyph-name="line.004.042" horiz-adv-x="350" /><glyph d="M85 0 435 273V329L85 56ZM85 -17C110 -17 130 3 130 28C130 53 110 73 85 73C60 73 40 53 40 28C40 3 60 -17 85 -17Z" glyph-name="line.004.043" horiz-adv-x="350" /><glyph d="M85 -1 435 279V337L85 57ZM85 -17C110 -17 130 3 130 28C130 53 110 73 85 73C60 73 40 53 40 28C40 3 60 -17 85 -17Z" glyph-name="line.004.044" horiz-adv-x="350" /><glyph d="M85 -1 435 286V344L85 57ZM85 -17C110 -17 130 3 130 28C130 53 110 73 85 73C60 73 40 53 40 28C40 3 60 -17 85 -17Z" glyph-name="line.004.045" horiz-adv-x="350" /><glyph d="M85 -1 435 293V351L85 57ZM85 -17C110 -17 130 3 130 28C130 53 110 73 85 73C60 73 40 53 40 28C40 3 60 -17 85 -17Z" glyph-name="line.004.046" horiz-adv-x="350" /><glyph d="M85 -1 435 300V358L85 57ZM85 -17C110 -17 130 3 130 28C130 53 110 73 85 73C60 73 40 53 40 28C40 3 60 -17 85 -17Z" glyph-name="line.004.047" horiz-adv-x="350" /><glyph d="M85 -1 435 307V365L85 57ZM85 -17C110 -17 130 3 130 28C130 53 110 73 85 73C60 73 40 53 40 28C40 3 60 -17 85 -17Z" glyph-name="line.004.048" horiz-adv-x="350" /><glyph d="M85 -2 435 313V373L85 58ZM85 -17C110 -17 130 3 130 28C130 53 110 73 85 73C60 73 40 53 40 28C40 3 60 -17 85 -17Z" glyph-name="line.004.049" horiz-adv-x="350" /><glyph d="M85 -2 435 320V380L85 58ZM85 -17C110 -17 130 3 130 28C130 53 110 73 85 73C60 73 40 53 40 28C40 3 60 -17 85 -17Z" glyph-name="line.004.050" horiz-adv-x="350" /><glyph d="M85 -2 435 327V387L85 58ZM85 -17C110 -17 130 3 130 28C130 53 110 73 85 73C60 73 40 53 40 28C40 3 60 -17 85 -17Z" glyph-name="line.004.051" horiz-adv-x="350" /><glyph d="M85 -2 435 334V394L85 58ZM85 -17C110 -17 130 3 130 28C130 53 110 73 85 73C60 73 40 53 40 28C40 3 60 -17 85 -17Z" glyph-name="line.004.052" horiz-adv-x="350" /><glyph d="M85 -2 435 341V401L85 58ZM85 -17C110 -17 130 3 130 28C130 53 110 73 85 73C60 73 40 53 40 28C40 3 60 -17 85 -17Z" glyph-name="line.004.053" horiz-adv-x="350" /><glyph d="M85 -3 435 347V409L85 59ZM85 -17C110 -17 130 3 130 28C130 53 110 73 85 73C60 73 40 53 40 28C40 3 60 -17 85 -17Z" glyph-name="line.004.054" horiz-adv-x="350" /><glyph d="M85 -3 435 354V416L85 59ZM85 -17C110 -17 130 3 130 28C130 53 110 73 85 73C60 73 40 53 40 28C40 3 60 -17 85 -17Z" glyph-name="line.004.055" horiz-adv-x="350" /><glyph d="M85 -3 435 361V423L85 59ZM85 -17C110 -17 130 3 130 28C130 53 110 73 85 73C60 73 40 53 40 28C40 3 60 -17 85 -17Z" glyph-name="line.004.056" horiz-adv-x="350" /><glyph d="M85 -3 435 368V430L85 59ZM85 -17C110 -17 130 3 130 28C130 53 110 73 85 73C60 73 40 53 40 28C40 3 60 -17 85 -17Z" glyph-name="line.004.057" horiz-adv-x="350" /><glyph d="M85 -4 435 374V438L85 60ZM85 -17C110 -17 130 3 130 28C130 53 110 73 85 73C60 73 40 53 40 28C40 3 60 -17 85 -17Z" glyph-name="line.004.058" horiz-adv-x="350" /><glyph d="M85 -4 435 381V445L85 60ZM85 -17C110 -17 130 3 130 28C130 53 110 73 85 73C60 73 40 53 40 28C40 3 60 -17 85 -17Z" glyph-name="line.004.059" horiz-adv-x="350" /><glyph d="M85 -4 435 388V452L85 60ZM85 -17C110 -17 130 3 130 28C130 53 110 73 85 73C60 73 40 53 40 28C40 3 60 -17 85 -17Z" glyph-name="line.004.060" horiz-adv-x="350" /><glyph d="M85 -5 435 394V460L85 61ZM85 -17C110 -17 130 3 130 28C130 53 110 73 85 73C60 73 40 53 40 28C40 3 60 -17 85 -17Z" glyph-name="line.004.061" horiz-adv-x="350" /><glyph d="M85 -5 435 401V467L85 61ZM85 -17C110 -17 130 3 130 28C130 53 110 73 85 73C60 73 40 53 40 28C40 3 60 -17 85 -17Z" glyph-name="line.004.062" horiz-adv-x="350" /><glyph d="M85 -5 435 408V474L85 61ZM85 -17C110 -17 130 3 130 28C130 53 110 73 85 73C60 73 40 53 40 28C40 3 60 -17 85 -17Z" glyph-name="line.004.063" horiz-adv-x="350" /><glyph d="M85 -6 435 414V482L85 62ZM85 -17C110 -17 130 3 130 28C130 53 110 73 85 73C60 73 40 53 40 28C40 3 60 -17 85 -17Z" glyph-name="line.004.064" horiz-adv-x="350" /><glyph d="M85 -6 435 421V489L85 62ZM85 -17C110 -17 130 3 130 28C130 53 110 73 85 73C60 73 40 53 40 28C40 3 60 -17 85 -17Z" glyph-name="line.004.065" horiz-adv-x="350" /><glyph d="M85 -6 435 428V496L85 62ZM85 -17C110 -17 130 3 130 28C130 53 110 73 85 73C60 73 40 53 40 28C40 3 60 -17 85 -17Z" glyph-name="line.004.066" horiz-adv-x="350" /><glyph d="M85 -7 435 434V504L85 63ZM85 -17C110 -17 130 3 130 28C130 53 110 73 85 73C60 73 40 53 40 28C40 3 60 -17 85 -17Z" glyph-name="line.004.067" horiz-adv-x="350" /><glyph d="M85 -7 435 441V511L85 63ZM85 -17C110 -17 130 3 130 28C130 53 110 73 85 73C60 73 40 53 40 28C40 3 60 -17 85 -17Z" glyph-name="line.004.068" horiz-adv-x="350" /><glyph d="M85 -8 435 447V519L85 64ZM85 -17C110 -17 130 3 130 28C130 53 110 73 85 73C60 73 40 53 40 28C40 3 60 -17 85 -17Z" glyph-name="line.004.069" horiz-adv-x="350" /><glyph d="M85 -8 435 454V526L85 64ZM85 -17C110 -17 130 3 130 28C130 53 110 73 85 73C60 73 40 53 40 28C40 3 60 -17 85 -17Z" glyph-name="line.004.070" horiz-adv-x="350" /><glyph d="M85 -9 435 460V534L85 65ZM85 -17C110 -17 130 3 130 28C130 53 110 73 85 73C60 73 40 53 40 28C40 3 60 -17 85 -17Z" glyph-name="line.004.071" horiz-adv-x="350" /><glyph d="M85 -9 435 467V541L85 65ZM85 -17C110 -17 130 3 130 28C130 53 110 73 85 73C60 73 40 53 40 28C40 3 60 -17 85 -17Z" glyph-name="line.004.072" horiz-adv-x="350" /><glyph d="M85 -9 435 475V549L85 65ZM85 -17C110 -17 130 3 130 28C130 53 110 73 85 73C60 73 40 53 40 28C40 3 60 -17 85 -17Z" glyph-name="line.004.073" horiz-adv-x="350" /><glyph d="M85 -10 435 480V556L85 66ZM85 -17C110 -17 130 3 130 28C130 53 110 73 85 73C60 73 40 53 40 28C40 3 60 -17 85 -17Z" glyph-name="line.004.074" horiz-adv-x="350" /><glyph d="M85 -10 435 487V563L85 66ZM85 -17C110 -17 130 3 130 28C130 53 110 73 85 73C60 73 40 53 40 28C40 3 60 -17 85 -17Z" glyph-name="line.004.075" horiz-adv-x="350" /><glyph d="M85 -10 435 494V570L85 66ZM85 -17C110 -17 130 3 130 28C130 53 110 73 85 73C60 73 40 53 40 28C40 3 60 -17 85 -17Z" glyph-name="line.004.076" horiz-adv-x="350" /><glyph d="M85 -11 435 500V578L85 67ZM85 -17C110 -17 130 3 130 28C130 53 110 73 85 73C60 73 40 53 40 28C40 3 60 -17 85 -17Z" glyph-name="line.004.077" horiz-adv-x="350" /><glyph d="M85 -11 435 507V585L85 67ZM85 -17C110 -17 130 3 130 28C130 53 110 73 85 73C60 73 40 53 40 28C40 3 60 -17 85 -17Z" glyph-name="line.004.078" horiz-adv-x="350" /><glyph d="M85 -12 435 513V593L85 68ZM85 -17C110 -17 130 3 130 28C130 53 110 73 85 73C60 73 40 53 40 28C40 3 60 -17 85 -17Z" glyph-name="line.004.079" horiz-adv-x="350" /><glyph d="M85 -12 435 520V600L85 68ZM85 -17C110 -17 130 3 130 28C130 53 110 73 85 73C60 73 40 53 40 28C40 3 60 -17 85 -17Z" glyph-name="line.004.080" horiz-adv-x="350" /><glyph d="M85 -13 435 526V608L85 69ZM85 -17C110 -17 130 3 130 28C130 53 110 73 85 73C60 73 40 53 40 28C40 3 60 -17 85 -17Z" glyph-name="line.004.081" horiz-adv-x="350" /><glyph d="M85 -13 435 533V615L85 69ZM85 -17C110 -17 130 3 130 28C130 53 110 73 85 73C60 73 40 53 40 28C40 3 60 -17 85 -17Z" glyph-name="line.004.082" horiz-adv-x="350" /><glyph d="M85 -13 435 540V622L85 69ZM85 -17C110 -17 130 3 130 28C130 53 110 73 85 73C60 73 40 53 40 28C40 3 60 -17 85 -17Z" glyph-name="line.004.083" horiz-adv-x="350" /><glyph d="M85 -14 435 546V630L85 70ZM85 -17C110 -17 130 3 130 28C130 53 110 73 85 73C60 73 40 53 40 28C40 3 60 -17 85 -17Z" glyph-name="line.004.084" horiz-adv-x="350" /><glyph d="M85 -14 435 553V637L85 70ZM85 -17C110 -17 130 3 130 28C130 53 110 73 85 73C60 73 40 53 40 28C40 3 60 -17 85 -17Z" glyph-name="line.004.085" horiz-adv-x="350" /><glyph d="M85 -15 435 559V645L85 71ZM85 -17C110 -17 130 3 130 28C130 53 110 73 85 73C60 73 40 53 40 28C40 3 60 -17 85 -17Z" glyph-name="line.004.086" horiz-adv-x="350" /><glyph d="M85 -15 435 566V652L85 71ZM85 -17C110 -17 130 3 130 28C130 53 110 73 85 73C60 73 40 53 40 28C40 3 60 -17 85 -17Z" glyph-name="line.004.087" horiz-adv-x="350" /><glyph d="M85 -16 435 572V660L85 72ZM85 -17C110 -17 130 3 130 28C130 53 110 73 85 73C60 73 40 53 40 28C40 3 60 -17 85 -17Z" glyph-name="line.004.088" horiz-adv-x="350" /><glyph d="M85 -16 435 579V667L85 72ZM85 -17C110 -17 130 3 130 28C130 53 110 73 85 73C60 73 40 53 40 28C40 3 60 -17 85 -17Z" glyph-name="line.004.089" horiz-adv-x="350" /><glyph d="M85 -17 435 585V675L85 73ZM85 -17C110 -17 130 3 130 28C130 53 110 73 85 73C60 73 40 53 40 28C40 3 60 -17 85 -17Z" glyph-name="line.004.090" horiz-adv-x="350" /><glyph d="M85 -17 435 592V682L85 73ZM85 -17C110 -17 130 3 130 28C130 53 110 73 85 73C60 73 40 53 40 28C40 3 60 -17 85 -17Z" glyph-name="line.004.091" horiz-adv-x="350" /><glyph d="M89 -11 436 600 434 688 81 67ZM85 -17C110 -17 130 3 130 28C130 53 110 73 85 73C60 73 40 53 40 28C40 3 60 -17 85 -17Z" glyph-name="line.004.092" horiz-adv-x="350" /><glyph d="M89 -11 436 607 434 695 81 67ZM85 -17C110 -17 130 3 130 28C130 53 110 73 85 73C60 73 40 53 40 28C40 3 60 -17 85 -17Z" glyph-name="line.004.093" horiz-adv-x="350" /><glyph d="M90 -10 436 613 434 703 80 66ZM85 -17C110 -17 130 3 130 28C130 53 110 73 85 73C60 73 40 53 40 28C40 3 60 -17 85 -17Z" glyph-name="line.004.094" horiz-adv-x="350" /><glyph d="M90 -10 436 620 434 710 80 66ZM85 -17C110 -17 130 3 130 28C130 53 110 73 85 73C60 73 40 53 40 28C40 3 60 -17 85 -17Z" glyph-name="line.004.095" horiz-adv-x="350" /><glyph d="M91 -9 439 631 431 713 79 65ZM85 -17C110 -17 130 3 130 28C130 53 110 73 85 73C60 73 40 53 40 28C40 3 60 -17 85 -17Z" glyph-name="line.004.096" horiz-adv-x="350" /><glyph d="M92 -7 437 635 433 723 78 63ZM85 -17C110 -17 130 3 130 28C130 53 110 73 85 73C60 73 40 53 40 28C40 3 60 -17 85 -17Z" glyph-name="line.004.097" horiz-adv-x="350" /><glyph d="M93 -6 441 648 429 724 77 62ZM85 -17C110 -17 130 3 130 28C130 53 110 73 85 73C60 73 40 53 40 28C40 3 60 -17 85 -17Z" glyph-name="line.004.098" horiz-adv-x="350" /><glyph d="M94 -4 441 655 429 731 76 60ZM85 -17C110 -17 130 3 130 28C130 53 110 73 85 73C60 73 40 53 40 28C40 3 60 -17 85 -17Z" glyph-name="line.004.099" horiz-adv-x="350" /><glyph d="M96 -1 439 658 431 742 74 57ZM85 -17C110 -17 130 3 130 28C130 53 110 73 85 73C60 73 40 53 40 28C40 3 60 -17 85 -17Z" glyph-name="line.004.100" horiz-adv-x="350" /><glyph d="M85 58 435 23V-23L85 12ZM85 80C110 80 130 60 130 35C130 10 110 -10 85 -10C60 -10 40 10 40 35C40 60 60 80 85 80Z" glyph-name="line.005.000" horiz-adv-x="350" /><glyph d="M85 58 435 30V-16L85 12ZM85 80C110 80 130 60 130 35C130 10 110 -10 85 -10C60 -10 40 10 40 35C40 60 60 80 85 80Z" glyph-name="line.005.001" horiz-adv-x="350" /><glyph d="M85 58 435 37V-9L85 12ZM85 80C110 80 130 60 130 35C130 10 110 -10 85 -10C60 -10 40 10 40 35C40 60 60 80 85 80Z" glyph-name="line.005.002" horiz-adv-x="350" /><glyph d="M85 58 435 44V-2L85 12ZM85 80C110 80 130 60 130 35C130 10 110 -10 85 -10C60 -10 40 10 40 35C40 60 60 80 85 80Z" glyph-name="line.005.003" horiz-adv-x="350" /><glyph d="M85 58 435 51V5L85 12ZM85 80C110 80 130 60 130 35C130 10 110 -10 85 -10C60 -10 40 10 40 35C40 60 60 80 85 80Z" glyph-name="line.005.004" horiz-adv-x="350" /><glyph d="M85 12H435V58H85ZM85 -10C110 -10 130 10 130 35C130 60 110 80 85 80C60 80 40 60 40 35C40 10 60 -10 85 -10Z" glyph-name="line.005.005" horiz-adv-x="350" /><glyph d="M85 12 435 19V65L85 58ZM85 -10C110 -10 130 10 130 35C130 60 110 80 85 80C60 80 40 60 40 35C40 10 60 -10 85 -10Z" glyph-name="line.005.006" horiz-adv-x="350" /><glyph d="M85 12 435 26V72L85 58ZM85 -10C110 -10 130 10 130 35C130 60 110 80 85 80C60 80 40 60 40 35C40 10 60 -10 85 -10Z" glyph-name="line.005.007" horiz-adv-x="350" /><glyph d="M85 12 435 33V79L85 58ZM85 -10C110 -10 130 10 130 35C130 60 110 80 85 80C60 80 40 60 40 35C40 10 60 -10 85 -10Z" glyph-name="line.005.008" horiz-adv-x="350" /><glyph d="M85 12 435 40V86L85 58ZM85 -10C110 -10 130 10 130 35C130 60 110 80 85 80C60 80 40 60 40 35C40 10 60 -10 85 -10Z" glyph-name="line.005.009" horiz-adv-x="350" /><glyph d="M85 12 435 47V93L85 58ZM85 -10C110 -10 130 10 130 35C130 60 110 80 85 80C60 80 40 60 40 35C40 10 60 -10 85 -10Z" glyph-name="line.005.010" horiz-adv-x="350" /><glyph d="M85 12 435 54V100L85 58ZM85 -10C110 -10 130 10 130 35C130 60 110 80 85 80C60 80 40 60 40 35C40 10 60 -10 85 -10Z" glyph-name="line.005.011" horiz-adv-x="350" /><glyph d="M85 12 435 61V107L85 58ZM85 -10C110 -10 130 10 130 35C130 60 110 80 85 80C60 80 40 60 40 35C40 10 60 -10 85 -10Z" glyph-name="line.005.012" horiz-adv-x="350" /><glyph d="M85 12 435 68V114L85 58ZM85 -10C110 -10 130 10 130 35C130 60 110 80 85 80C60 80 40 60 40 35C40 10 60 -10 85 -10Z" glyph-name="line.005.013" horiz-adv-x="350" /><glyph d="M85 12 435 75V121L85 58ZM85 -10C110 -10 130 10 130 35C130 60 110 80 85 80C60 80 40 60 40 35C40 10 60 -10 85 -10Z" glyph-name="line.005.014" horiz-adv-x="350" /><glyph d="M85 11 435 81V129L85 59ZM85 -10C110 -10 130 10 130 35C130 60 110 80 85 80C60 80 40 60 40 35C40 10 60 -10 85 -10Z" glyph-name="line.005.015" horiz-adv-x="350" /><glyph d="M85 11 435 88V136L85 59ZM85 -10C110 -10 130 10 130 35C130 60 110 80 85 80C60 80 40 60 40 35C40 10 60 -10 85 -10Z" glyph-name="line.005.016" horiz-adv-x="350" /><glyph d="M85 11 435 95V143L85 59ZM85 -10C110 -10 130 10 130 35C130 60 110 80 85 80C60 80 40 60 40 35C40 10 60 -10 85 -10Z" glyph-name="line.005.017" horiz-adv-x="350" /><glyph d="M85 11 435 102V150L85 59ZM85 -10C110 -10 130 10 130 35C130 60 110 80 85 80C60 80 40 60 40 35C40 10 60 -10 85 -10Z" glyph-name="line.005.018" horiz-adv-x="350" /><glyph d="M85 11 435 109V157L85 59ZM85 -10C110 -10 130 10 130 35C130 60 110 80 85 80C60 80 40 60 40 35C40 10 60 -10 85 -10Z" glyph-name="line.005.019" horiz-adv-x="350" /><glyph d="M85 11 435 116V164L85 59ZM85 -10C110 -10 130 10 130 35C130 60 110 80 85 80C60 80 40 60 40 35C40 10 60 -10 85 -10Z" glyph-name="line.005.020" horiz-adv-x="350" /><glyph d="M85 11 435 123V171L85 59ZM85 -10C110 -10 130 10 130 35C130 60 110 80 85 80C60 80 40 60 40 35C40 10 60 -10 85 -10Z" glyph-name="line.005.021" horiz-adv-x="350" /><glyph d="M85 11 435 130V178L85 59ZM85 -10C110 -10 130 10 130 35C130 60 110 80 85 80C60 80 40 60 40 35C40 10 60 -10 85 -10Z" glyph-name="line.005.022" horiz-adv-x="350" /><glyph d="M85 11 435 137V185L85 59ZM85 -10C110 -10 130 10 130 35C130 60 110 80 85 80C60 80 40 60 40 35C40 10 60 -10 85 -10Z" glyph-name="line.005.023" horiz-adv-x="350" /><glyph d="M85 11 435 144V192L85 59ZM85 -10C110 -10 130 10 130 35C130 60 110 80 85 80C60 80 40 60 40 35C40 10 60 -10 85 -10Z" glyph-name="line.005.024" horiz-adv-x="350" /><glyph d="M85 10 435 150V200L85 60ZM85 -10C110 -10 130 10 130 35C130 60 110 80 85 80C60 80 40 60 40 35C40 10 60 -10 85 -10Z" glyph-name="line.005.025" horiz-adv-x="350" /><glyph d="M85 10 435 157V207L85 60ZM85 -10C110 -10 130 10 130 35C130 60 110 80 85 80C60 80 40 60 40 35C40 10 60 -10 85 -10Z" glyph-name="line.005.026" horiz-adv-x="350" /><glyph d="M85 10 435 164V214L85 60ZM85 -10C110 -10 130 10 130 35C130 60 110 80 85 80C60 80 40 60 40 35C40 10 60 -10 85 -10Z" glyph-name="line.005.027" horiz-adv-x="350" /><glyph d="M85 10 435 171V221L85 60ZM85 -10C110 -10 130 10 130 35C130 60 110 80 85 80C60 80 40 60 40 35C40 10 60 -10 85 -10Z" glyph-name="line.005.028" horiz-adv-x="350" /><glyph d="M85 10 435 178V228L85 60ZM85 -10C110 -10 130 10 130 35C130 60 110 80 85 80C60 80 40 60 40 35C40 10 60 -10 85 -10Z" glyph-name="line.005.029" horiz-adv-x="350" /><glyph d="M85 9 435 184V236L85 61ZM85 -10C110 -10 130 10 130 35C130 60 110 80 85 80C60 80 40 60 40 35C40 10 60 -10 85 -10Z" glyph-name="line.005.030" horiz-adv-x="350" /><glyph d="M85 9 435 191V243L85 61ZM85 -10C110 -10 130 10 130 35C130 60 110 80 85 80C60 80 40 60 40 35C40 10 60 -10 85 -10Z" glyph-name="line.005.031" horiz-adv-x="350" /><glyph d="M85 9 435 198V250L85 61ZM85 -10C110 -10 130 10 130 35C130 60 110 80 85 80C60 80 40 60 40 35C40 10 60 -10 85 -10Z" glyph-name="line.005.032" horiz-adv-x="350" /><glyph d="M85 9 435 205V257L85 61ZM85 -10C110 -10 130 10 130 35C130 60 110 80 85 80C60 80 40 60 40 35C40 10 60 -10 85 -10Z" glyph-name="line.005.033" horiz-adv-x="350" /><glyph d="M85 9 435 212V264L85 61ZM85 -10C110 -10 130 10 130 35C130 60 110 80 85 80C60 80 40 60 40 35C40 10 60 -10 85 -10Z" glyph-name="line.005.034" horiz-adv-x="350" /><glyph d="M85 8 435 218V272L85 62ZM85 -10C110 -10 130 10 130 35C130 60 110 80 85 80C60 80 40 60 40 35C40 10 60 -10 85 -10Z" glyph-name="line.005.035" horiz-adv-x="350" /><glyph d="M85 8 435 225V279L85 62ZM85 -10C110 -10 130 10 130 35C130 60 110 80 85 80C60 80 40 60 40 35C40 10 60 -10 85 -10Z" glyph-name="line.005.036" horiz-adv-x="350" /><glyph d="M85 8 435 232V286L85 62ZM85 -10C110 -10 130 10 130 35C130 60 110 80 85 80C60 80 40 60 40 35C40 10 60 -10 85 -10Z" glyph-name="line.005.037" horiz-adv-x="350" /><glyph d="M85 8 435 239V293L85 62ZM85 -10C110 -10 130 10 130 35C130 60 110 80 85 80C60 80 40 60 40 35C40 10 60 -10 85 -10Z" glyph-name="line.005.038" horiz-adv-x="350" /><glyph d="M85 8 435 246V300L85 62ZM85 -10C110 -10 130 10 130 35C130 60 110 80 85 80C60 80 40 60 40 35C40 10 60 -10 85 -10Z" glyph-name="line.005.039" horiz-adv-x="350" /><glyph d="M85 7 435 252V308L85 63ZM85 -10C110 -10 130 10 130 35C130 60 110 80 85 80C60 80 40 60 40 35C40 10 60 -10 85 -10Z" glyph-name="line.005.040" horiz-adv-x="350" /><glyph d="M85 7 435 259V315L85 63ZM85 -10C110 -10 130 10 130 35C130 60 110 80 85 80C60 80 40 60 40 35C40 10 60 -10 85 -10Z" glyph-name="line.005.041" horiz-adv-x="350" /><glyph d="M85 7 435 266V322L85 63ZM85 -10C110 -10 130 10 130 35C130 60 110 80 85 80C60 80 40 60 40 35C40 10 60 -10 85 -10Z" glyph-name="line.005.042" horiz-adv-x="350" /><glyph d="M85 7 435 273V329L85 63ZM85 -10C110 -10 130 10 130 35C130 60 110 80 85 80C60 80 40 60 40 35C40 10 60 -10 85 -10Z" glyph-name="line.005.043" horiz-adv-x="350" /><glyph d="M85 7 435 280V336L85 63ZM85 -10C110 -10 130 10 130 35C130 60 110 80 85 80C60 80 40 60 40 35C40 10 60 -10 85 -10Z" glyph-name="line.005.044" horiz-adv-x="350" /><glyph d="M85 6 435 286V344L85 64ZM85 -10C110 -10 130 10 130 35C130 60 110 80 85 80C60 80 40 60 40 35C40 10 60 -10 85 -10Z" glyph-name="line.005.045" horiz-adv-x="350" /><glyph d="M85 6 435 293V351L85 64ZM85 -10C110 -10 130 10 130 35C130 60 110 80 85 80C60 80 40 60 40 35C40 10 60 -10 85 -10Z" glyph-name="line.005.046" horiz-adv-x="350" /><glyph d="M85 6 435 300V358L85 64ZM85 -10C110 -10 130 10 130 35C130 60 110 80 85 80C60 80 40 60 40 35C40 10 60 -10 85 -10Z" glyph-name="line.005.047" horiz-adv-x="350" /><glyph d="M85 6 435 307V365L85 64ZM85 -10C110 -10 130 10 130 35C130 60 110 80 85 80C60 80 40 60 40 35C40 10 60 -10 85 -10Z" glyph-name="line.005.048" horiz-adv-x="350" /><glyph d="M85 6 435 314V372L85 64ZM85 -10C110 -10 130 10 130 35C130 60 110 80 85 80C60 80 40 60 40 35C40 10 60 -10 85 -10Z" glyph-name="line.005.049" horiz-adv-x="350" /><glyph d="M85 5 435 320V380L85 65ZM85 -10C110 -10 130 10 130 35C130 60 110 80 85 80C60 80 40 60 40 35C40 10 60 -10 85 -10Z" glyph-name="line.005.050" horiz-adv-x="350" /><glyph d="M85 5 435 327V387L85 65ZM85 -10C110 -10 130 10 130 35C130 60 110 80 85 80C60 80 40 60 40 35C40 10 60 -10 85 -10Z" glyph-name="line.005.051" horiz-adv-x="350" /><glyph d="M85 5 435 334V394L85 65ZM85 -10C110 -10 130 10 130 35C130 60 110 80 85 80C60 80 40 60 40 35C40 10 60 -10 85 -10Z" glyph-name="line.005.052" horiz-adv-x="350" /><glyph d="M85 5 435 341V401L85 65ZM85 -10C110 -10 130 10 130 35C130 60 110 80 85 80C60 80 40 60 40 35C40 10 60 -10 85 -10Z" glyph-name="line.005.053" horiz-adv-x="350" /><glyph d="M85 5 435 348V408L85 65ZM85 -10C110 -10 130 10 130 35C130 60 110 80 85 80C60 80 40 60 40 35C40 10 60 -10 85 -10Z" glyph-name="line.005.054" horiz-adv-x="350" /><glyph d="M85 4 435 354V416L85 66ZM85 -10C110 -10 130 10 130 35C130 60 110 80 85 80C60 80 40 60 40 35C40 10 60 -10 85 -10Z" glyph-name="line.005.055" horiz-adv-x="350" /><glyph d="M85 4 435 361V423L85 66ZM85 -10C110 -10 130 10 130 35C130 60 110 80 85 80C60 80 40 60 40 35C40 10 60 -10 85 -10Z" glyph-name="line.005.056" horiz-adv-x="350" /><glyph d="M85 4 435 368V430L85 66ZM85 -10C110 -10 130 10 130 35C130 60 110 80 85 80C60 80 40 60 40 35C40 10 60 -10 85 -10Z" glyph-name="line.005.057" horiz-adv-x="350" /><glyph d="M85 4 435 375V437L85 66ZM85 -10C110 -10 130 10 130 35C130 60 110 80 85 80C60 80 40 60 40 35C40 10 60 -10 85 -10Z" glyph-name="line.005.058" horiz-adv-x="350" /><glyph d="M85 3 435 381V445L85 67ZM85 -10C110 -10 130 10 130 35C130 60 110 80 85 80C60 80 40 60 40 35C40 10 60 -10 85 -10Z" glyph-name="line.005.059" horiz-adv-x="350" /><glyph d="M85 3 435 388V452L85 67ZM85 -10C110 -10 130 10 130 35C130 60 110 80 85 80C60 80 40 60 40 35C40 10 60 -10 85 -10Z" glyph-name="line.005.060" horiz-adv-x="350" /><glyph d="M85 3 435 395V459L85 67ZM85 -10C110 -10 130 10 130 35C130 60 110 80 85 80C60 80 40 60 40 35C40 10 60 -10 85 -10Z" glyph-name="line.005.061" horiz-adv-x="350" /><glyph d="M85 2 435 401V467L85 68ZM85 -10C110 -10 130 10 130 35C130 60 110 80 85 80C60 80 40 60 40 35C40 10 60 -10 85 -10Z" glyph-name="line.005.062" horiz-adv-x="350" /><glyph d="M85 2 435 408V474L85 68ZM85 -10C110 -10 130 10 130 35C130 60 110 80 85 80C60 80 40 60 40 35C40 10 60 -10 85 -10Z" glyph-name="line.005.063" horiz-adv-x="350" /><glyph d="M85 2 435 415V481L85 68ZM85 -10C110 -10 130 10 130 35C130 60 110 80 85 80C60 80 40 60 40 35C40 10 60 -10 85 -10Z" glyph-name="line.005.064" horiz-adv-x="350" /><glyph d="M85 1 435 421V489L85 69ZM85 -10C110 -10 130 10 130 35C130 60 110 80 85 80C60 80 40 60 40 35C40 10 60 -10 85 -10Z" glyph-name="line.005.065" horiz-adv-x="350" /><glyph d="M85 1 435 428V496L85 69ZM85 -10C110 -10 130 10 130 35C130 60 110 80 85 80C60 80 40 60 40 35C40 10 60 -10 85 -10Z" glyph-name="line.005.066" horiz-adv-x="350" /><glyph d="M85 1 435 435V503L85 69ZM85 -10C110 -10 130 10 130 35C130 60 110 80 85 80C60 80 40 60 40 35C40 10 60 -10 85 -10Z" glyph-name="line.005.067" horiz-adv-x="350" /><glyph d="M85 0 435 441V511L85 70ZM85 -10C110 -10 130 10 130 35C130 60 110 80 85 80C60 80 40 60 40 35C40 10 60 -10 85 -10Z" glyph-name="line.005.068" horiz-adv-x="350" /><glyph d="M85 0 435 448V518L85 70ZM85 -10C110 -10 130 10 130 35C130 60 110 80 85 80C60 80 40 60 40 35C40 10 60 -10 85 -10Z" glyph-name="line.005.069" horiz-adv-x="350" /><glyph d="M85 -1 435 454V526L85 71ZM85 -10C110 -10 130 10 130 35C130 60 110 80 85 80C60 80 40 60 40 35C40 10 60 -10 85 -10Z" glyph-name="line.005.070" horiz-adv-x="350" /><glyph d="M85 -1 435 461V533L85 71ZM85 -10C110 -10 130 10 130 35C130 60 110 80 85 80C60 80 40 60 40 35C40 10 60 -10 85 -10Z" glyph-name="line.005.071" horiz-adv-x="350" /><glyph d="M85 -2 435 467V541L85 72ZM85 -10C110 -10 130 10 130 35C130 60 110 80 85 80C60 80 40 60 40 35C40 10 60 -10 85 -10Z" glyph-name="line.005.072" horiz-adv-x="350" /><glyph d="M85 -2 435 474V548L85 72ZM85 -10C110 -10 130 10 130 35C130 60 110 80 85 80C60 80 40 60 40 35C40 10 60 -10 85 -10Z" glyph-name="line.005.073" horiz-adv-x="350" /><glyph d="M85 -2 435 482V556L85 72ZM85 -10C110 -10 130 10 130 35C130 60 110 80 85 80C60 80 40 60 40 35C40 10 60 -10 85 -10Z" glyph-name="line.005.074" horiz-adv-x="350" /><glyph d="M85 -3 435 487V563L85 73ZM85 -10C110 -10 130 10 130 35C130 60 110 80 85 80C60 80 40 60 40 35C40 10 60 -10 85 -10Z" glyph-name="line.005.075" horiz-adv-x="350" /><glyph d="M85 -3 435 494V570L85 73ZM85 -10C110 -10 130 10 130 35C130 60 110 80 85 80C60 80 40 60 40 35C40 10 60 -10 85 -10Z" glyph-name="line.005.076" horiz-adv-x="350" /><glyph d="M85 -3 435 501V577L85 73ZM85 -10C110 -10 130 10 130 35C130 60 110 80 85 80C60 80 40 60 40 35C40 10 60 -10 85 -10Z" glyph-name="line.005.077" horiz-adv-x="350" /><glyph d="M85 -4 435 507V585L85 74ZM85 -10C110 -10 130 10 130 35C130 60 110 80 85 80C60 80 40 60 40 35C40 10 60 -10 85 -10Z" glyph-name="line.005.078" horiz-adv-x="350" /><glyph d="M85 -4 435 514V592L85 74ZM85 -10C110 -10 130 10 130 35C130 60 110 80 85 80C60 80 40 60 40 35C40 10 60 -10 85 -10Z" glyph-name="line.005.079" horiz-adv-x="350" /><glyph d="M85 -5 435 520V600L85 75ZM85 -10C110 -10 130 10 130 35C130 60 110 80 85 80C60 80 40 60 40 35C40 10 60 -10 85 -10Z" glyph-name="line.005.080" horiz-adv-x="350" /><glyph d="M85 -5 435 527V607L85 75ZM85 -10C110 -10 130 10 130 35C130 60 110 80 85 80C60 80 40 60 40 35C40 10 60 -10 85 -10Z" glyph-name="line.005.081" horiz-adv-x="350" /><glyph d="M85 -6 435 533V615L85 76ZM85 -10C110 -10 130 10 130 35C130 60 110 80 85 80C60 80 40 60 40 35C40 10 60 -10 85 -10Z" glyph-name="line.005.082" horiz-adv-x="350" /><glyph d="M85 -6 435 540V622L85 76ZM85 -10C110 -10 130 10 130 35C130 60 110 80 85 80C60 80 40 60 40 35C40 10 60 -10 85 -10Z" glyph-name="line.005.083" horiz-adv-x="350" /><glyph d="M85 -6 435 547V629L85 76ZM85 -10C110 -10 130 10 130 35C130 60 110 80 85 80C60 80 40 60 40 35C40 10 60 -10 85 -10Z" glyph-name="line.005.084" horiz-adv-x="350" /><glyph d="M85 -7 435 553V637L85 77ZM85 -10C110 -10 130 10 130 35C130 60 110 80 85 80C60 80 40 60 40 35C40 10 60 -10 85 -10Z" glyph-name="line.005.085" horiz-adv-x="350" /><glyph d="M85 -7 435 560V644L85 77ZM85 -10C110 -10 130 10 130 35C130 60 110 80 85 80C60 80 40 60 40 35C40 10 60 -10 85 -10Z" glyph-name="line.005.086" horiz-adv-x="350" /><glyph d="M85 -8 435 566V652L85 78ZM85 -10C110 -10 130 10 130 35C130 60 110 80 85 80C60 80 40 60 40 35C40 10 60 -10 85 -10Z" glyph-name="line.005.087" horiz-adv-x="350" /><glyph d="M85 -8 435 573V659L85 78ZM85 -10C110 -10 130 10 130 35C130 60 110 80 85 80C60 80 40 60 40 35C40 10 60 -10 85 -10Z" glyph-name="line.005.088" horiz-adv-x="350" /><glyph d="M85 -9 435 579V667L85 79ZM85 -10C110 -10 130 10 130 35C130 60 110 80 85 80C60 80 40 60 40 35C40 10 60 -10 85 -10Z" glyph-name="line.005.089" horiz-adv-x="350" /><glyph d="M85 -9 435 586V674L85 79ZM85 -10C110 -10 130 10 130 35C130 60 110 80 85 80C60 80 40 60 40 35C40 10 60 -10 85 -10Z" glyph-name="line.005.090" horiz-adv-x="350" /><glyph d="M85 -10 435 592V682L85 80ZM85 -10C110 -10 130 10 130 35C130 60 110 80 85 80C60 80 40 60 40 35C40 10 60 -10 85 -10Z" glyph-name="line.005.091" horiz-adv-x="350" /><glyph d="M85 -10 435 599V689L85 80ZM85 -10C110 -10 130 10 130 35C130 60 110 80 85 80C60 80 40 60 40 35C40 10 60 -10 85 -10Z" glyph-name="line.005.092" horiz-adv-x="350" /><glyph d="M89 -4 436 607 434 695 81 74ZM85 -10C110 -10 130 10 130 35C130 60 110 80 85 80C60 80 40 60 40 35C40 10 60 -10 85 -10Z" glyph-name="line.005.093" horiz-adv-x="350" /><glyph d="M89 -4 436 614 434 702 81 74ZM85 -10C110 -10 130 10 130 35C130 60 110 80 85 80C60 80 40 60 40 35C40 10 60 -10 85 -10Z" glyph-name="line.005.094" horiz-adv-x="350" /><glyph d="M90 -3 436 620 434 710 80 73ZM85 -10C110 -10 130 10 130 35C130 60 110 80 85 80C60 80 40 60 40 35C40 10 60 -10 85 -10Z" glyph-name="line.005.095" horiz-adv-x="350" /><glyph d="M90 -3 436 627 434 717 80 73ZM85 -10C110 -10 130 10 130 35C130 60 110 80 85 80C60 80 40 60 40 35C40 10 60 -10 85 -10Z" glyph-name="line.005.096" horiz-adv-x="350" /><glyph d="M91 -2 439 638 431 720 79 72ZM85 -10C110 -10 130 10 130 35C130 60 110 80 85 80C60 80 40 60 40 35C40 10 60 -10 85 -10Z" glyph-name="line.005.097" horiz-adv-x="350" /><glyph d="M92 0 437 642 433 730 78 70ZM85 -10C110 -10 130 10 130 35C130 60 110 80 85 80C60 80 40 60 40 35C40 10 60 -10 85 -10Z" glyph-name="line.005.098" horiz-adv-x="350" /><glyph d="M93 1 441 655 429 731 77 69ZM85 -10C110 -10 130 10 130 35C130 60 110 80 85 80C60 80 40 60 40 35C40 10 60 -10 85 -10Z" glyph-name="line.005.099" horiz-adv-x="350" /><glyph d="M94 3 441 662 429 738 76 67ZM85 -10C110 -10 130 10 130 35C130 60 110 80 85 80C60 80 40 60 40 35C40 10 60 -10 85 -10Z" glyph-name="line.005.100" horiz-adv-x="350" /><glyph d="M85 65 435 23V-23L85 19ZM85 87C110 87 130 67 130 42C130 17 110 -3 85 -3C60 -3 40 17 40 42C40 67 60 87 85 87Z" glyph-name="line.006.000" horiz-adv-x="350" /><glyph d="M85 65 435 30V-16L85 19ZM85 87C110 87 130 67 130 42C130 17 110 -3 85 -3C60 -3 40 17 40 42C40 67 60 87 85 87Z" glyph-name="line.006.001" horiz-adv-x="350" /><glyph d="M85 65 435 37V-9L85 19ZM85 87C110 87 130 67 130 42C130 17 110 -3 85 -3C60 -3 40 17 40 42C40 67 60 87 85 87Z" glyph-name="line.006.002" horiz-adv-x="350" /><glyph d="M85 65 435 44V-2L85 19ZM85 87C110 87 130 67 130 42C130 17 110 -3 85 -3C60 -3 40 17 40 42C40 67 60 87 85 87Z" glyph-name="line.006.003" horiz-adv-x="350" /><glyph d="M85 65 435 51V5L85 19ZM85 87C110 87 130 67 130 42C130 17 110 -3 85 -3C60 -3 40 17 40 42C40 67 60 87 85 87Z" glyph-name="line.006.004" horiz-adv-x="350" /><glyph d="M85 65 435 58V12L85 19ZM85 87C110 87 130 67 130 42C130 17 110 -3 85 -3C60 -3 40 17 40 42C40 67 60 87 85 87Z" glyph-name="line.006.005" horiz-adv-x="350" /><glyph d="M85 19H435V65H85ZM85 -3C110 -3 130 17 130 42C130 67 110 87 85 87C60 87 40 67 40 42C40 17 60 -3 85 -3Z" glyph-name="line.006.006" horiz-adv-x="350" /><glyph d="M85 19 435 26V72L85 65ZM85 -3C110 -3 130 17 130 42C130 67 110 87 85 87C60 87 40 67 40 42C40 17 60 -3 85 -3Z" glyph-name="line.006.007" horiz-adv-x="350" /><glyph d="M85 19 435 33V79L85 65ZM85 -3C110 -3 130 17 130 42C130 67 110 87 85 87C60 87 40 67 40 42C40 17 60 -3 85 -3Z" glyph-name="line.006.008" horiz-adv-x="350" /><glyph d="M85 19 435 40V86L85 65ZM85 -3C110 -3 130 17 130 42C130 67 110 87 85 87C60 87 40 67 40 42C40 17 60 -3 85 -3Z" glyph-name="line.006.009" horiz-adv-x="350" /><glyph d="M85 19 435 47V93L85 65ZM85 -3C110 -3 130 17 130 42C130 67 110 87 85 87C60 87 40 67 40 42C40 17 60 -3 85 -3Z" glyph-name="line.006.010" horiz-adv-x="350" /><glyph d="M85 19 435 54V100L85 65ZM85 -3C110 -3 130 17 130 42C130 67 110 87 85 87C60 87 40 67 40 42C40 17 60 -3 85 -3Z" glyph-name="line.006.011" horiz-adv-x="350" /><glyph d="M85 19 435 61V107L85 65ZM85 -3C110 -3 130 17 130 42C130 67 110 87 85 87C60 87 40 67 40 42C40 17 60 -3 85 -3Z" glyph-name="line.006.012" horiz-adv-x="350" /><glyph d="M85 19 435 68V114L85 65ZM85 -3C110 -3 130 17 130 42C130 67 110 87 85 87C60 87 40 67 40 42C40 17 60 -3 85 -3Z" glyph-name="line.006.013" horiz-adv-x="350" /><glyph d="M85 19 435 75V121L85 65ZM85 -3C110 -3 130 17 130 42C130 67 110 87 85 87C60 87 40 67 40 42C40 17 60 -3 85 -3Z" glyph-name="line.006.014" horiz-adv-x="350" /><glyph d="M85 19 435 82V128L85 65ZM85 -3C110 -3 130 17 130 42C130 67 110 87 85 87C60 87 40 67 40 42C40 17 60 -3 85 -3Z" glyph-name="line.006.015" horiz-adv-x="350" /><glyph d="M85 18 435 88V136L85 66ZM85 -3C110 -3 130 17 130 42C130 67 110 87 85 87C60 87 40 67 40 42C40 17 60 -3 85 -3Z" glyph-name="line.006.016" horiz-adv-x="350" /><glyph d="M85 18 435 95V143L85 66ZM85 -3C110 -3 130 17 130 42C130 67 110 87 85 87C60 87 40 67 40 42C40 17 60 -3 85 -3Z" glyph-name="line.006.017" horiz-adv-x="350" /><glyph d="M85 18 435 102V150L85 66ZM85 -3C110 -3 130 17 130 42C130 67 110 87 85 87C60 87 40 67 40 42C40 17 60 -3 85 -3Z" glyph-name="line.006.018" horiz-adv-x="350" /><glyph d="M85 18 435 109V157L85 66ZM85 -3C110 -3 130 17 130 42C130 67 110 87 85 87C60 87 40 67 40 42C40 17 60 -3 85 -3Z" glyph-name="line.006.019" horiz-adv-x="350" /><glyph d="M85 18 435 116V164L85 66ZM85 -3C110 -3 130 17 130 42C130 67 110 87 85 87C60 87 40 67 40 42C40 17 60 -3 85 -3Z" glyph-name="line.006.020" horiz-adv-x="350" /><glyph d="M85 18 435 123V171L85 66ZM85 -3C110 -3 130 17 130 42C130 67 110 87 85 87C60 87 40 67 40 42C40 17 60 -3 85 -3Z" glyph-name="line.006.021" horiz-adv-x="350" /><glyph d="M85 18 435 130V178L85 66ZM85 -3C110 -3 130 17 130 42C130 67 110 87 85 87C60 87 40 67 40 42C40 17 60 -3 85 -3Z" glyph-name="line.006.022" horiz-adv-x="350" /><glyph d="M85 18 435 137V185L85 66ZM85 -3C110 -3 130 17 130 42C130 67 110 87 85 87C60 87 40 67 40 42C40 17 60 -3 85 -3Z" glyph-name="line.006.023" horiz-adv-x="350" /><glyph d="M85 18 435 144V192L85 66ZM85 -3C110 -3 130 17 130 42C130 67 110 87 85 87C60 87 40 67 40 42C40 17 60 -3 85 -3Z" glyph-name="line.006.024" horiz-adv-x="350" /><glyph d="M85 18 435 151V199L85 66ZM85 -3C110 -3 130 17 130 42C130 67 110 87 85 87C60 87 40 67 40 42C40 17 60 -3 85 -3Z" glyph-name="line.006.025" horiz-adv-x="350" /><glyph d="M85 17 435 157V207L85 67ZM85 -3C110 -3 130 17 130 42C130 67 110 87 85 87C60 87 40 67 40 42C40 17 60 -3 85 -3Z" glyph-name="line.006.026" horiz-adv-x="350" /><glyph d="M85 17 435 164V214L85 67ZM85 -3C110 -3 130 17 130 42C130 67 110 87 85 87C60 87 40 67 40 42C40 17 60 -3 85 -3Z" glyph-name="line.006.027" horiz-adv-x="350" /><glyph d="M85 17 435 171V221L85 67ZM85 -3C110 -3 130 17 130 42C130 67 110 87 85 87C60 87 40 67 40 42C40 17 60 -3 85 -3Z" glyph-name="line.006.028" horiz-adv-x="350" /><glyph d="M85 17 435 178V228L85 67ZM85 -3C110 -3 130 17 130 42C130 67 110 87 85 87C60 87 40 67 40 42C40 17 60 -3 85 -3Z" glyph-name="line.006.029" horiz-adv-x="350" /><glyph d="M85 17 435 185V235L85 67ZM85 -3C110 -3 130 17 130 42C130 67 110 87 85 87C60 87 40 67 40 42C40 17 60 -3 85 -3Z" glyph-name="line.006.030" horiz-adv-x="350" /><glyph d="M85 16 435 191V243L85 68ZM85 -3C110 -3 130 17 130 42C130 67 110 87 85 87C60 87 40 67 40 42C40 17 60 -3 85 -3Z" glyph-name="line.006.031" horiz-adv-x="350" /><glyph d="M85 16 435 198V250L85 68ZM85 -3C110 -3 130 17 130 42C130 67 110 87 85 87C60 87 40 67 40 42C40 17 60 -3 85 -3Z" glyph-name="line.006.032" horiz-adv-x="350" /><glyph d="M85 16 435 205V257L85 68ZM85 -3C110 -3 130 17 130 42C130 67 110 87 85 87C60 87 40 67 40 42C40 17 60 -3 85 -3Z" glyph-name="line.006.033" horiz-adv-x="350" /><glyph d="M85 16 435 212V264L85 68ZM85 -3C110 -3 130 17 130 42C130 67 110 87 85 87C60 87 40 67 40 42C40 17 60 -3 85 -3Z" glyph-name="line.006.034" horiz-adv-x="350" /><glyph d="M85 16 435 219V271L85 68ZM85 -3C110 -3 130 17 130 42C130 67 110 87 85 87C60 87 40 67 40 42C40 17 60 -3 85 -3Z" glyph-name="line.006.035" horiz-adv-x="350" /><glyph d="M85 15 435 225V279L85 69ZM85 -3C110 -3 130 17 130 42C130 67 110 87 85 87C60 87 40 67 40 42C40 17 60 -3 85 -3Z" glyph-name="line.006.036" horiz-adv-x="350" /><glyph d="M85 15 435 232V286L85 69ZM85 -3C110 -3 130 17 130 42C130 67 110 87 85 87C60 87 40 67 40 42C40 17 60 -3 85 -3Z" glyph-name="line.006.037" horiz-adv-x="350" /><glyph d="M85 15 435 239V293L85 69ZM85 -3C110 -3 130 17 130 42C130 67 110 87 85 87C60 87 40 67 40 42C40 17 60 -3 85 -3Z" glyph-name="line.006.038" horiz-adv-x="350" /><glyph d="M85 15 435 246V300L85 69ZM85 -3C110 -3 130 17 130 42C130 67 110 87 85 87C60 87 40 67 40 42C40 17 60 -3 85 -3Z" glyph-name="line.006.039" horiz-adv-x="350" /><glyph d="M85 15 435 253V307L85 69ZM85 -3C110 -3 130 17 130 42C130 67 110 87 85 87C60 87 40 67 40 42C40 17 60 -3 85 -3Z" glyph-name="line.006.040" horiz-adv-x="350" /><glyph d="M85 14 435 259V315L85 70ZM85 -3C110 -3 130 17 130 42C130 67 110 87 85 87C60 87 40 67 40 42C40 17 60 -3 85 -3Z" glyph-name="line.006.041" horiz-adv-x="350" /><glyph d="M85 14 435 266V322L85 70ZM85 -3C110 -3 130 17 130 42C130 67 110 87 85 87C60 87 40 67 40 42C40 17 60 -3 85 -3Z" glyph-name="line.006.042" horiz-adv-x="350" /><glyph d="M85 14 435 273V329L85 70ZM85 -3C110 -3 130 17 130 42C130 67 110 87 85 87C60 87 40 67 40 42C40 17 60 -3 85 -3Z" glyph-name="line.006.043" horiz-adv-x="350" /><glyph d="M85 14 435 280V336L85 70ZM85 -3C110 -3 130 17 130 42C130 67 110 87 85 87C60 87 40 67 40 42C40 17 60 -3 85 -3Z" glyph-name="line.006.044" horiz-adv-x="350" /><glyph d="M85 14 435 287V343L85 70ZM85 -3C110 -3 130 17 130 42C130 67 110 87 85 87C60 87 40 67 40 42C40 17 60 -3 85 -3Z" glyph-name="line.006.045" horiz-adv-x="350" /><glyph d="M85 13 435 293V351L85 71ZM85 -3C110 -3 130 17 130 42C130 67 110 87 85 87C60 87 40 67 40 42C40 17 60 -3 85 -3Z" glyph-name="line.006.046" horiz-adv-x="350" /><glyph d="M85 13 435 300V358L85 71ZM85 -3C110 -3 130 17 130 42C130 67 110 87 85 87C60 87 40 67 40 42C40 17 60 -3 85 -3Z" glyph-name="line.006.047" horiz-adv-x="350" /><glyph d="M85 13 435 307V365L85 71ZM85 -3C110 -3 130 17 130 42C130 67 110 87 85 87C60 87 40 67 40 42C40 17 60 -3 85 -3Z" glyph-name="line.006.048" horiz-adv-x="350" /><glyph d="M85 13 435 314V372L85 71ZM85 -3C110 -3 130 17 130 42C130 67 110 87 85 87C60 87 40 67 40 42C40 17 60 -3 85 -3Z" glyph-name="line.006.049" horiz-adv-x="350" /><glyph d="M85 13 435 321V379L85 71ZM85 -3C110 -3 130 17 130 42C130 67 110 87 85 87C60 87 40 67 40 42C40 17 60 -3 85 -3Z" glyph-name="line.006.050" horiz-adv-x="350" /><glyph d="M85 12 435 327V387L85 72ZM85 -3C110 -3 130 17 130 42C130 67 110 87 85 87C60 87 40 67 40 42C40 17 60 -3 85 -3Z" glyph-name="line.006.051" horiz-adv-x="350" /><glyph d="M85 12 435 334V394L85 72ZM85 -3C110 -3 130 17 130 42C130 67 110 87 85 87C60 87 40 67 40 42C40 17 60 -3 85 -3Z" glyph-name="line.006.052" horiz-adv-x="350" /><glyph d="M85 12 435 341V401L85 72ZM85 -3C110 -3 130 17 130 42C130 67 110 87 85 87C60 87 40 67 40 42C40 17 60 -3 85 -3Z" glyph-name="line.006.053" horiz-adv-x="350" /><glyph d="M85 12 435 348V408L85 72ZM85 -3C110 -3 130 17 130 42C130 67 110 87 85 87C60 87 40 67 40 42C40 17 60 -3 85 -3Z" glyph-name="line.006.054" horiz-adv-x="350" /><glyph d="M85 12 435 355V415L85 72ZM85 -3C110 -3 130 17 130 42C130 67 110 87 85 87C60 87 40 67 40 42C40 17 60 -3 85 -3Z" glyph-name="line.006.055" horiz-adv-x="350" /><glyph d="M85 11 435 361V423L85 73ZM85 -3C110 -3 130 17 130 42C130 67 110 87 85 87C60 87 40 67 40 42C40 17 60 -3 85 -3Z" glyph-name="line.006.056" horiz-adv-x="350" /><glyph d="M85 11 435 368V430L85 73ZM85 -3C110 -3 130 17 130 42C130 67 110 87 85 87C60 87 40 67 40 42C40 17 60 -3 85 -3Z" glyph-name="line.006.057" horiz-adv-x="350" /><glyph d="M85 11 435 375V437L85 73ZM85 -3C110 -3 130 17 130 42C130 67 110 87 85 87C60 87 40 67 40 42C40 17 60 -3 85 -3Z" glyph-name="line.006.058" horiz-adv-x="350" /><glyph d="M85 11 435 382V444L85 73ZM85 -3C110 -3 130 17 130 42C130 67 110 87 85 87C60 87 40 67 40 42C40 17 60 -3 85 -3Z" glyph-name="line.006.059" horiz-adv-x="350" /><glyph d="M85 10 435 388V452L85 74ZM85 -3C110 -3 130 17 130 42C130 67 110 87 85 87C60 87 40 67 40 42C40 17 60 -3 85 -3Z" glyph-name="line.006.060" horiz-adv-x="350" /><glyph d="M85 10 435 395V459L85 74ZM85 -3C110 -3 130 17 130 42C130 67 110 87 85 87C60 87 40 67 40 42C40 17 60 -3 85 -3Z" glyph-name="line.006.061" horiz-adv-x="350" /><glyph d="M85 10 435 402V466L85 74ZM85 -3C110 -3 130 17 130 42C130 67 110 87 85 87C60 87 40 67 40 42C40 17 60 -3 85 -3Z" glyph-name="line.006.062" horiz-adv-x="350" /><glyph d="M85 9 435 408V474L85 75ZM85 -3C110 -3 130 17 130 42C130 67 110 87 85 87C60 87 40 67 40 42C40 17 60 -3 85 -3Z" glyph-name="line.006.063" horiz-adv-x="350" /><glyph d="M85 9 435 415V481L85 75ZM85 -3C110 -3 130 17 130 42C130 67 110 87 85 87C60 87 40 67 40 42C40 17 60 -3 85 -3Z" glyph-name="line.006.064" horiz-adv-x="350" /><glyph d="M85 9 435 422V488L85 75ZM85 -3C110 -3 130 17 130 42C130 67 110 87 85 87C60 87 40 67 40 42C40 17 60 -3 85 -3Z" glyph-name="line.006.065" horiz-adv-x="350" /><glyph d="M85 8 435 428V496L85 76ZM85 -3C110 -3 130 17 130 42C130 67 110 87 85 87C60 87 40 67 40 42C40 17 60 -3 85 -3Z" glyph-name="line.006.066" horiz-adv-x="350" /><glyph d="M85 8 435 435V503L85 76ZM85 -3C110 -3 130 17 130 42C130 67 110 87 85 87C60 87 40 67 40 42C40 17 60 -3 85 -3Z" glyph-name="line.006.067" horiz-adv-x="350" /><glyph d="M85 8 435 442V510L85 76ZM85 -3C110 -3 130 17 130 42C130 67 110 87 85 87C60 87 40 67 40 42C40 17 60 -3 85 -3Z" glyph-name="line.006.068" horiz-adv-x="350" /><glyph d="M85 7 435 448V518L85 77ZM85 -3C110 -3 130 17 130 42C130 67 110 87 85 87C60 87 40 67 40 42C40 17 60 -3 85 -3Z" glyph-name="line.006.069" horiz-adv-x="350" /><glyph d="M85 7 435 455V525L85 77ZM85 -3C110 -3 130 17 130 42C130 67 110 87 85 87C60 87 40 67 40 42C40 17 60 -3 85 -3Z" glyph-name="line.006.070" horiz-adv-x="350" /><glyph d="M85 6 435 461V533L85 78ZM85 -3C110 -3 130 17 130 42C130 67 110 87 85 87C60 87 40 67 40 42C40 17 60 -3 85 -3Z" glyph-name="line.006.071" horiz-adv-x="350" /><glyph d="M85 6 435 468V540L85 78ZM85 -3C110 -3 130 17 130 42C130 67 110 87 85 87C60 87 40 67 40 42C40 17 60 -3 85 -3Z" glyph-name="line.006.072" horiz-adv-x="350" /><glyph d="M85 5 435 474V548L85 79ZM85 -3C110 -3 130 17 130 42C130 67 110 87 85 87C60 87 40 67 40 42C40 17 60 -3 85 -3Z" glyph-name="line.006.073" horiz-adv-x="350" /><glyph d="M85 5 435 481V555L85 79ZM85 -3C110 -3 130 17 130 42C130 67 110 87 85 87C60 87 40 67 40 42C40 17 60 -3 85 -3Z" glyph-name="line.006.074" horiz-adv-x="350" /><glyph d="M85 5 435 489V563L85 79ZM85 -3C110 -3 130 17 130 42C130 67 110 87 85 87C60 87 40 67 40 42C40 17 60 -3 85 -3Z" glyph-name="line.006.075" horiz-adv-x="350" /><glyph d="M85 4 435 494V570L85 80ZM85 -3C110 -3 130 17 130 42C130 67 110 87 85 87C60 87 40 67 40 42C40 17 60 -3 85 -3Z" glyph-name="line.006.076" horiz-adv-x="350" /><glyph d="M85 4 435 501V577L85 80ZM85 -3C110 -3 130 17 130 42C130 67 110 87 85 87C60 87 40 67 40 42C40 17 60 -3 85 -3Z" glyph-name="line.006.077" horiz-adv-x="350" /><glyph d="M85 4 435 508V584L85 80ZM85 -3C110 -3 130 17 130 42C130 67 110 87 85 87C60 87 40 67 40 42C40 17 60 -3 85 -3Z" glyph-name="line.006.078" horiz-adv-x="350" /><glyph d="M85 3 435 514V592L85 81ZM85 -3C110 -3 130 17 130 42C130 67 110 87 85 87C60 87 40 67 40 42C40 17 60 -3 85 -3Z" glyph-name="line.006.079" horiz-adv-x="350" /><glyph d="M85 3 435 521V599L85 81ZM85 -3C110 -3 130 17 130 42C130 67 110 87 85 87C60 87 40 67 40 42C40 17 60 -3 85 -3Z" glyph-name="line.006.080" horiz-adv-x="350" /><glyph d="M85 2 435 527V607L85 82ZM85 -3C110 -3 130 17 130 42C130 67 110 87 85 87C60 87 40 67 40 42C40 17 60 -3 85 -3Z" glyph-name="line.006.081" horiz-adv-x="350" /><glyph d="M85 2 435 534V614L85 82ZM85 -3C110 -3 130 17 130 42C130 67 110 87 85 87C60 87 40 67 40 42C40 17 60 -3 85 -3Z" glyph-name="line.006.082" horiz-adv-x="350" /><glyph d="M85 1 435 540V622L85 83ZM85 -3C110 -3 130 17 130 42C130 67 110 87 85 87C60 87 40 67 40 42C40 17 60 -3 85 -3Z" glyph-name="line.006.083" horiz-adv-x="350" /><glyph d="M85 1 435 547V629L85 83ZM85 -3C110 -3 130 17 130 42C130 67 110 87 85 87C60 87 40 67 40 42C40 17 60 -3 85 -3Z" glyph-name="line.006.084" horiz-adv-x="350" /><glyph d="M85 1 435 554V636L85 83ZM85 -3C110 -3 130 17 130 42C130 67 110 87 85 87C60 87 40 67 40 42C40 17 60 -3 85 -3Z" glyph-name="line.006.085" horiz-adv-x="350" /><glyph d="M85 0 435 560V644L85 84ZM85 -3C110 -3 130 17 130 42C130 67 110 87 85 87C60 87 40 67 40 42C40 17 60 -3 85 -3Z" glyph-name="line.006.086" horiz-adv-x="350" /><glyph d="M85 0 435 567V651L85 84ZM85 -3C110 -3 130 17 130 42C130 67 110 87 85 87C60 87 40 67 40 42C40 17 60 -3 85 -3Z" glyph-name="line.006.087" horiz-adv-x="350" /><glyph d="M85 -1 435 573V659L85 85ZM85 -3C110 -3 130 17 130 42C130 67 110 87 85 87C60 87 40 67 40 42C40 17 60 -3 85 -3Z" glyph-name="line.006.088" horiz-adv-x="350" /><glyph d="M85 -1 435 580V666L85 85ZM85 -3C110 -3 130 17 130 42C130 67 110 87 85 87C60 87 40 67 40 42C40 17 60 -3 85 -3Z" glyph-name="line.006.089" horiz-adv-x="350" /><glyph d="M85 -2 435 586V674L85 86ZM85 -3C110 -3 130 17 130 42C130 67 110 87 85 87C60 87 40 67 40 42C40 17 60 -3 85 -3Z" glyph-name="line.006.090" horiz-adv-x="350" /><glyph d="M85 -2 435 593V681L85 86ZM85 -3C110 -3 130 17 130 42C130 67 110 87 85 87C60 87 40 67 40 42C40 17 60 -3 85 -3Z" glyph-name="line.006.091" horiz-adv-x="350" /><glyph d="M85 -3 435 599V689L85 87ZM85 -3C110 -3 130 17 130 42C130 67 110 87 85 87C60 87 40 67 40 42C40 17 60 -3 85 -3Z" glyph-name="line.006.092" horiz-adv-x="350" /><glyph d="M85 -3 435 606V696L85 87ZM85 -3C110 -3 130 17 130 42C130 67 110 87 85 87C60 87 40 67 40 42C40 17 60 -3 85 -3Z" glyph-name="line.006.093" horiz-adv-x="350" /><glyph d="M89 3 436 614 434 702 81 81ZM85 -3C110 -3 130 17 130 42C130 67 110 87 85 87C60 87 40 67 40 42C40 17 60 -3 85 -3Z" glyph-name="line.006.094" horiz-adv-x="350" /><glyph d="M89 3 436 621 434 709 81 81ZM85 -3C110 -3 130 17 130 42C130 67 110 87 85 87C60 87 40 67 40 42C40 17 60 -3 85 -3Z" glyph-name="line.006.095" horiz-adv-x="350" /><glyph d="M90 4 436 627 434 717 80 80ZM85 -3C110 -3 130 17 130 42C130 67 110 87 85 87C60 87 40 67 40 42C40 17 60 -3 85 -3Z" glyph-name="line.006.096" horiz-adv-x="350" /><glyph d="M90 4 436 634 434 724 80 80ZM85 -3C110 -3 130 17 130 42C130 67 110 87 85 87C60 87 40 67 40 42C40 17 60 -3 85 -3Z" glyph-name="line.006.097" horiz-adv-x="350" /><glyph d="M91 5 439 645 431 727 79 79ZM85 -3C110 -3 130 17 130 42C130 67 110 87 85 87C60 87 40 67 40 42C40 17 60 -3 85 -3Z" glyph-name="line.006.098" horiz-adv-x="350" /><glyph d="M92 7 437 649 433 737 78 77ZM85 -3C110 -3 130 17 130 42C130 67 110 87 85 87C60 87 40 67 40 42C40 17 60 -3 85 -3Z" glyph-name="line.006.099" horiz-adv-x="350" /><glyph d="M93 8 441 662 429 738 77 76ZM85 -3C110 -3 130 17 130 42C130 67 110 87 85 87C60 87 40 67 40 42C40 17 60 -3 85 -3Z" glyph-name="line.006.100" horiz-adv-x="350" /><glyph d="M85 72 435 23V-23L85 26ZM85 94C110 94 130 74 130 49C130 24 110 4 85 4C60 4 40 24 40 49C40 74 60 94 85 94Z" glyph-name="line.007.000" horiz-adv-x="350" /><glyph d="M85 72 435 30V-16L85 26ZM85 94C110 94 130 74 130 49C130 24 110 4 85 4C60 4 40 24 40 49C40 74 60 94 85 94Z" glyph-name="line.007.001" horiz-adv-x="350" /><glyph d="M85 72 435 37V-9L85 26ZM85 94C110 94 130 74 130 49C130 24 110 4 85 4C60 4 40 24 40 49C40 74 60 94 85 94Z" glyph-name="line.007.002" horiz-adv-x="350" /><glyph d="M85 72 435 44V-2L85 26ZM85 94C110 94 130 74 130 49C130 24 110 4 85 4C60 4 40 24 40 49C40 74 60 94 85 94Z" glyph-name="line.007.003" horiz-adv-x="350" /><glyph d="M85 72 435 51V5L85 26ZM85 94C110 94 130 74 130 49C130 24 110 4 85 4C60 4 40 24 40 49C40 74 60 94 85 94Z" glyph-name="line.007.004" horiz-adv-x="350" /><glyph d="M85 72 435 58V12L85 26ZM85 94C110 94 130 74 130 49C130 24 110 4 85 4C60 4 40 24 40 49C40 74 60 94 85 94Z" glyph-name="line.007.005" horiz-adv-x="350" /><glyph d="M85 72 435 65V19L85 26ZM85 94C110 94 130 74 130 49C130 24 110 4 85 4C60 4 40 24 40 49C40 74 60 94 85 94Z" glyph-name="line.007.006" horiz-adv-x="350" /><glyph d="M85 26H435V72H85ZM85 4C110 4 130 24 130 49C130 74 110 94 85 94C60 94 40 74 40 49C40 24 60 4 85 4Z" glyph-name="line.007.007" horiz-adv-x="350" /><glyph d="M85 26 435 33V79L85 72ZM85 4C110 4 130 24 130 49C130 74 110 94 85 94C60 94 40 74 40 49C40 24 60 4 85 4Z" glyph-name="line.007.008" horiz-adv-x="350" /><glyph d="M85 26 435 40V86L85 72ZM85 4C110 4 130 24 130 49C130 74 110 94 85 94C60 94 40 74 40 49C40 24 60 4 85 4Z" glyph-name="line.007.009" horiz-adv-x="350" /><glyph d="M85 26 435 47V93L85 72ZM85 4C110 4 130 24 130 49C130 74 110 94 85 94C60 94 40 74 40 49C40 24 60 4 85 4Z" glyph-name="line.007.010" horiz-adv-x="350" /><glyph d="M85 26 435 54V100L85 72ZM85 4C110 4 130 24 130 49C130 74 110 94 85 94C60 94 40 74 40 49C40 24 60 4 85 4Z" glyph-name="line.007.011" horiz-adv-x="350" /><glyph d="M85 26 435 61V107L85 72ZM85 4C110 4 130 24 130 49C130 74 110 94 85 94C60 94 40 74 40 49C40 24 60 4 85 4Z" glyph-name="line.007.012" horiz-adv-x="350" /><glyph d="M85 26 435 68V114L85 72ZM85 4C110 4 130 24 130 49C130 74 110 94 85 94C60 94 40 74 40 49C40 24 60 4 85 4Z" glyph-name="line.007.013" horiz-adv-x="350" /><glyph d="M85 26 435 75V121L85 72ZM85 4C110 4 130 24 130 49C130 74 110 94 85 94C60 94 40 74 40 49C40 24 60 4 85 4Z" glyph-name="line.007.014" horiz-adv-x="350" /><glyph d="M85 26 435 82V128L85 72ZM85 4C110 4 130 24 130 49C130 74 110 94 85 94C60 94 40 74 40 49C40 24 60 4 85 4Z" glyph-name="line.007.015" horiz-adv-x="350" /><glyph d="M85 26 435 89V135L85 72ZM85 4C110 4 130 24 130 49C130 74 110 94 85 94C60 94 40 74 40 49C40 24 60 4 85 4Z" glyph-name="line.007.016" horiz-adv-x="350" /><glyph d="M85 25 435 95V143L85 73ZM85 4C110 4 130 24 130 49C130 74 110 94 85 94C60 94 40 74 40 49C40 24 60 4 85 4Z" glyph-name="line.007.017" horiz-adv-x="350" /><glyph d="M85 25 435 102V150L85 73ZM85 4C110 4 130 24 130 49C130 74 110 94 85 94C60 94 40 74 40 49C40 24 60 4 85 4Z" glyph-name="line.007.018" horiz-adv-x="350" /><glyph d="M85 25 435 109V157L85 73ZM85 4C110 4 130 24 130 49C130 74 110 94 85 94C60 94 40 74 40 49C40 24 60 4 85 4Z" glyph-name="line.007.019" horiz-adv-x="350" /><glyph d="M85 25 435 116V164L85 73ZM85 4C110 4 130 24 130 49C130 74 110 94 85 94C60 94 40 74 40 49C40 24 60 4 85 4Z" glyph-name="line.007.020" horiz-adv-x="350" /><glyph d="M85 25 435 123V171L85 73ZM85 4C110 4 130 24 130 49C130 74 110 94 85 94C60 94 40 74 40 49C40 24 60 4 85 4Z" glyph-name="line.007.021" horiz-adv-x="350" /><glyph d="M85 25 435 130V178L85 73ZM85 4C110 4 130 24 130 49C130 74 110 94 85 94C60 94 40 74 40 49C40 24 60 4 85 4Z" glyph-name="line.007.022" horiz-adv-x="350" /><glyph d="M85 25 435 137V185L85 73ZM85 4C110 4 130 24 130 49C130 74 110 94 85 94C60 94 40 74 40 49C40 24 60 4 85 4Z" glyph-name="line.007.023" horiz-adv-x="350" /><glyph d="M85 25 435 144V192L85 73ZM85 4C110 4 130 24 130 49C130 74 110 94 85 94C60 94 40 74 40 49C40 24 60 4 85 4Z" glyph-name="line.007.024" horiz-adv-x="350" /><glyph d="M85 25 435 151V199L85 73ZM85 4C110 4 130 24 130 49C130 74 110 94 85 94C60 94 40 74 40 49C40 24 60 4 85 4Z" glyph-name="line.007.025" horiz-adv-x="350" /><glyph d="M85 25 435 158V206L85 73ZM85 4C110 4 130 24 130 49C130 74 110 94 85 94C60 94 40 74 40 49C40 24 60 4 85 4Z" glyph-name="line.007.026" horiz-adv-x="350" /><glyph d="M85 24 435 164V214L85 74ZM85 4C110 4 130 24 130 49C130 74 110 94 85 94C60 94 40 74 40 49C40 24 60 4 85 4Z" glyph-name="line.007.027" horiz-adv-x="350" /><glyph d="M85 24 435 171V221L85 74ZM85 4C110 4 130 24 130 49C130 74 110 94 85 94C60 94 40 74 40 49C40 24 60 4 85 4Z" glyph-name="line.007.028" horiz-adv-x="350" /><glyph d="M85 24 435 178V228L85 74ZM85 4C110 4 130 24 130 49C130 74 110 94 85 94C60 94 40 74 40 49C40 24 60 4 85 4Z" glyph-name="line.007.029" horiz-adv-x="350" /><glyph d="M85 24 435 185V235L85 74ZM85 4C110 4 130 24 130 49C130 74 110 94 85 94C60 94 40 74 40 49C40 24 60 4 85 4Z" glyph-name="line.007.030" horiz-adv-x="350" /><glyph d="M85 24 435 192V242L85 74ZM85 4C110 4 130 24 130 49C130 74 110 94 85 94C60 94 40 74 40 49C40 24 60 4 85 4Z" glyph-name="line.007.031" horiz-adv-x="350" /><glyph d="M85 23 435 198V250L85 75ZM85 4C110 4 130 24 130 49C130 74 110 94 85 94C60 94 40 74 40 49C40 24 60 4 85 4Z" glyph-name="line.007.032" horiz-adv-x="350" /><glyph d="M85 23 435 205V257L85 75ZM85 4C110 4 130 24 130 49C130 74 110 94 85 94C60 94 40 74 40 49C40 24 60 4 85 4Z" glyph-name="line.007.033" horiz-adv-x="350" /><glyph d="M85 23 435 212V264L85 75ZM85 4C110 4 130 24 130 49C130 74 110 94 85 94C60 94 40 74 40 49C40 24 60 4 85 4Z" glyph-name="line.007.034" horiz-adv-x="350" /><glyph d="M85 23 435 219V271L85 75ZM85 4C110 4 130 24 130 49C130 74 110 94 85 94C60 94 40 74 40 49C40 24 60 4 85 4Z" glyph-name="line.007.035" horiz-adv-x="350" /><glyph d="M85 23 435 226V278L85 75ZM85 4C110 4 130 24 130 49C130 74 110 94 85 94C60 94 40 74 40 49C40 24 60 4 85 4Z" glyph-name="line.007.036" horiz-adv-x="350" /><glyph d="M85 22 435 232V286L85 76ZM85 4C110 4 130 24 130 49C130 74 110 94 85 94C60 94 40 74 40 49C40 24 60 4 85 4Z" glyph-name="line.007.037" horiz-adv-x="350" /><glyph d="M85 22 435 239V293L85 76ZM85 4C110 4 130 24 130 49C130 74 110 94 85 94C60 94 40 74 40 49C40 24 60 4 85 4Z" glyph-name="line.007.038" horiz-adv-x="350" /><glyph d="M85 22 435 246V300L85 76ZM85 4C110 4 130 24 130 49C130 74 110 94 85 94C60 94 40 74 40 49C40 24 60 4 85 4Z" glyph-name="line.007.039" horiz-adv-x="350" /><glyph d="M85 22 435 253V307L85 76ZM85 4C110 4 130 24 130 49C130 74 110 94 85 94C60 94 40 74 40 49C40 24 60 4 85 4Z" glyph-name="line.007.040" horiz-adv-x="350" /><glyph d="M85 22 435 260V314L85 76ZM85 4C110 4 130 24 130 49C130 74 110 94 85 94C60 94 40 74 40 49C40 24 60 4 85 4Z" glyph-name="line.007.041" horiz-adv-x="350" /><glyph d="M85 21 435 266V322L85 77ZM85 4C110 4 130 24 130 49C130 74 110 94 85 94C60 94 40 74 40 49C40 24 60 4 85 4Z" glyph-name="line.007.042" horiz-adv-x="350" /><glyph d="M85 21 435 273V329L85 77ZM85 4C110 4 130 24 130 49C130 74 110 94 85 94C60 94 40 74 40 49C40 24 60 4 85 4Z" glyph-name="line.007.043" horiz-adv-x="350" /><glyph d="M85 21 435 280V336L85 77ZM85 4C110 4 130 24 130 49C130 74 110 94 85 94C60 94 40 74 40 49C40 24 60 4 85 4Z" glyph-name="line.007.044" horiz-adv-x="350" /><glyph d="M85 21 435 287V343L85 77ZM85 4C110 4 130 24 130 49C130 74 110 94 85 94C60 94 40 74 40 49C40 24 60 4 85 4Z" glyph-name="line.007.045" horiz-adv-x="350" /><glyph d="M85 21 435 294V350L85 77ZM85 4C110 4 130 24 130 49C130 74 110 94 85 94C60 94 40 74 40 49C40 24 60 4 85 4Z" glyph-name="line.007.046" horiz-adv-x="350" /><glyph d="M85 20 435 300V358L85 78ZM85 4C110 4 130 24 130 49C130 74 110 94 85 94C60 94 40 74 40 49C40 24 60 4 85 4Z" glyph-name="line.007.047" horiz-adv-x="350" /><glyph d="M85 20 435 307V365L85 78ZM85 4C110 4 130 24 130 49C130 74 110 94 85 94C60 94 40 74 40 49C40 24 60 4 85 4Z" glyph-name="line.007.048" horiz-adv-x="350" /><glyph d="M85 20 435 314V372L85 78ZM85 4C110 4 130 24 130 49C130 74 110 94 85 94C60 94 40 74 40 49C40 24 60 4 85 4Z" glyph-name="line.007.049" horiz-adv-x="350" /><glyph d="M85 20 435 321V379L85 78ZM85 4C110 4 130 24 130 49C130 74 110 94 85 94C60 94 40 74 40 49C40 24 60 4 85 4Z" glyph-name="line.007.050" horiz-adv-x="350" /><glyph d="M85 20 435 328V386L85 78ZM85 4C110 4 130 24 130 49C130 74 110 94 85 94C60 94 40 74 40 49C40 24 60 4 85 4Z" glyph-name="line.007.051" horiz-adv-x="350" /><glyph d="M85 19 435 334V394L85 79ZM85 4C110 4 130 24 130 49C130 74 110 94 85 94C60 94 40 74 40 49C40 24 60 4 85 4Z" glyph-name="line.007.052" horiz-adv-x="350" /><glyph d="M85 19 435 341V401L85 79ZM85 4C110 4 130 24 130 49C130 74 110 94 85 94C60 94 40 74 40 49C40 24 60 4 85 4Z" glyph-name="line.007.053" horiz-adv-x="350" /><glyph d="M85 19 435 348V408L85 79ZM85 4C110 4 130 24 130 49C130 74 110 94 85 94C60 94 40 74 40 49C40 24 60 4 85 4Z" glyph-name="line.007.054" horiz-adv-x="350" /><glyph d="M85 19 435 355V415L85 79ZM85 4C110 4 130 24 130 49C130 74 110 94 85 94C60 94 40 74 40 49C40 24 60 4 85 4Z" glyph-name="line.007.055" horiz-adv-x="350" /><glyph d="M85 19 435 362V422L85 79ZM85 4C110 4 130 24 130 49C130 74 110 94 85 94C60 94 40 74 40 49C40 24 60 4 85 4Z" glyph-name="line.007.056" horiz-adv-x="350" /><glyph d="M85 18 435 368V430L85 80ZM85 4C110 4 130 24 130 49C130 74 110 94 85 94C60 94 40 74 40 49C40 24 60 4 85 4Z" glyph-name="line.007.057" horiz-adv-x="350" /><glyph d="M85 18 435 375V437L85 80ZM85 4C110 4 130 24 130 49C130 74 110 94 85 94C60 94 40 74 40 49C40 24 60 4 85 4Z" glyph-name="line.007.058" horiz-adv-x="350" /><glyph d="M85 18 435 382V444L85 80ZM85 4C110 4 130 24 130 49C130 74 110 94 85 94C60 94 40 74 40 49C40 24 60 4 85 4Z" glyph-name="line.007.059" horiz-adv-x="350" /><glyph d="M85 18 435 389V451L85 80ZM85 4C110 4 130 24 130 49C130 74 110 94 85 94C60 94 40 74 40 49C40 24 60 4 85 4Z" glyph-name="line.007.060" horiz-adv-x="350" /><glyph d="M85 17 435 395V459L85 81ZM85 4C110 4 130 24 130 49C130 74 110 94 85 94C60 94 40 74 40 49C40 24 60 4 85 4Z" glyph-name="line.007.061" horiz-adv-x="350" /><glyph d="M85 17 435 402V466L85 81ZM85 4C110 4 130 24 130 49C130 74 110 94 85 94C60 94 40 74 40 49C40 24 60 4 85 4Z" glyph-name="line.007.062" horiz-adv-x="350" /><glyph d="M85 17 435 409V473L85 81ZM85 4C110 4 130 24 130 49C130 74 110 94 85 94C60 94 40 74 40 49C40 24 60 4 85 4Z" glyph-name="line.007.063" horiz-adv-x="350" /><glyph d="M85 16 435 415V481L85 82ZM85 4C110 4 130 24 130 49C130 74 110 94 85 94C60 94 40 74 40 49C40 24 60 4 85 4Z" glyph-name="line.007.064" horiz-adv-x="350" /><glyph d="M85 16 435 422V488L85 82ZM85 4C110 4 130 24 130 49C130 74 110 94 85 94C60 94 40 74 40 49C40 24 60 4 85 4Z" glyph-name="line.007.065" horiz-adv-x="350" /><glyph d="M85 16 435 429V495L85 82ZM85 4C110 4 130 24 130 49C130 74 110 94 85 94C60 94 40 74 40 49C40 24 60 4 85 4Z" glyph-name="line.007.066" horiz-adv-x="350" /><glyph d="M85 15 435 435V503L85 83ZM85 4C110 4 130 24 130 49C130 74 110 94 85 94C60 94 40 74 40 49C40 24 60 4 85 4Z" glyph-name="line.007.067" horiz-adv-x="350" /><glyph d="M85 15 435 442V510L85 83ZM85 4C110 4 130 24 130 49C130 74 110 94 85 94C60 94 40 74 40 49C40 24 60 4 85 4Z" glyph-name="line.007.068" horiz-adv-x="350" /><glyph d="M85 15 435 449V517L85 83ZM85 4C110 4 130 24 130 49C130 74 110 94 85 94C60 94 40 74 40 49C40 24 60 4 85 4Z" glyph-name="line.007.069" horiz-adv-x="350" /><glyph d="M85 14 435 455V525L85 84ZM85 4C110 4 130 24 130 49C130 74 110 94 85 94C60 94 40 74 40 49C40 24 60 4 85 4Z" glyph-name="line.007.070" horiz-adv-x="350" /><glyph d="M85 14 435 462V532L85 84ZM85 4C110 4 130 24 130 49C130 74 110 94 85 94C60 94 40 74 40 49C40 24 60 4 85 4Z" glyph-name="line.007.071" horiz-adv-x="350" /><glyph d="M85 13 435 468V540L85 85ZM85 4C110 4 130 24 130 49C130 74 110 94 85 94C60 94 40 74 40 49C40 24 60 4 85 4Z" glyph-name="line.007.072" horiz-adv-x="350" /><glyph d="M85 13 435 475V547L85 85ZM85 4C110 4 130 24 130 49C130 74 110 94 85 94C60 94 40 74 40 49C40 24 60 4 85 4Z" glyph-name="line.007.073" horiz-adv-x="350" /><glyph d="M85 12 435 481V555L85 86ZM85 4C110 4 130 24 130 49C130 74 110 94 85 94C60 94 40 74 40 49C40 24 60 4 85 4Z" glyph-name="line.007.074" horiz-adv-x="350" /><glyph d="M85 12 435 488V562L85 86ZM85 4C110 4 130 24 130 49C130 74 110 94 85 94C60 94 40 74 40 49C40 24 60 4 85 4Z" glyph-name="line.007.075" horiz-adv-x="350" /><glyph d="M85 12 435 496V570L85 86ZM85 4C110 4 130 24 130 49C130 74 110 94 85 94C60 94 40 74 40 49C40 24 60 4 85 4Z" glyph-name="line.007.076" horiz-adv-x="350" /><glyph d="M85 11 435 501V577L85 87ZM85 4C110 4 130 24 130 49C130 74 110 94 85 94C60 94 40 74 40 49C40 24 60 4 85 4Z" glyph-name="line.007.077" horiz-adv-x="350" /><glyph d="M85 11 435 508V584L85 87ZM85 4C110 4 130 24 130 49C130 74 110 94 85 94C60 94 40 74 40 49C40 24 60 4 85 4Z" glyph-name="line.007.078" horiz-adv-x="350" /><glyph d="M85 11 435 515V591L85 87ZM85 4C110 4 130 24 130 49C130 74 110 94 85 94C60 94 40 74 40 49C40 24 60 4 85 4Z" glyph-name="line.007.079" horiz-adv-x="350" /><glyph d="M85 10 435 521V599L85 88ZM85 4C110 4 130 24 130 49C130 74 110 94 85 94C60 94 40 74 40 49C40 24 60 4 85 4Z" glyph-name="line.007.080" horiz-adv-x="350" /><glyph d="M85 10 435 528V606L85 88ZM85 4C110 4 130 24 130 49C130 74 110 94 85 94C60 94 40 74 40 49C40 24 60 4 85 4Z" glyph-name="line.007.081" horiz-adv-x="350" /><glyph d="M85 9 435 534V614L85 89ZM85 4C110 4 130 24 130 49C130 74 110 94 85 94C60 94 40 74 40 49C40 24 60 4 85 4Z" glyph-name="line.007.082" horiz-adv-x="350" /><glyph d="M85 9 435 541V621L85 89ZM85 4C110 4 130 24 130 49C130 74 110 94 85 94C60 94 40 74 40 49C40 24 60 4 85 4Z" glyph-name="line.007.083" horiz-adv-x="350" /><glyph d="M85 8 435 547V629L85 90ZM85 4C110 4 130 24 130 49C130 74 110 94 85 94C60 94 40 74 40 49C40 24 60 4 85 4Z" glyph-name="line.007.084" horiz-adv-x="350" /><glyph d="M85 8 435 554V636L85 90ZM85 4C110 4 130 24 130 49C130 74 110 94 85 94C60 94 40 74 40 49C40 24 60 4 85 4Z" glyph-name="line.007.085" horiz-adv-x="350" /><glyph d="M85 8 435 561V643L85 90ZM85 4C110 4 130 24 130 49C130 74 110 94 85 94C60 94 40 74 40 49C40 24 60 4 85 4Z" glyph-name="line.007.086" horiz-adv-x="350" /><glyph d="M85 7 435 567V651L85 91ZM85 4C110 4 130 24 130 49C130 74 110 94 85 94C60 94 40 74 40 49C40 24 60 4 85 4Z" glyph-name="line.007.087" horiz-adv-x="350" /><glyph d="M85 7 435 574V658L85 91ZM85 4C110 4 130 24 130 49C130 74 110 94 85 94C60 94 40 74 40 49C40 24 60 4 85 4Z" glyph-name="line.007.088" horiz-adv-x="350" /><glyph d="M85 6 435 580V666L85 92ZM85 4C110 4 130 24 130 49C130 74 110 94 85 94C60 94 40 74 40 49C40 24 60 4 85 4Z" glyph-name="line.007.089" horiz-adv-x="350" /><glyph d="M85 6 435 587V673L85 92ZM85 4C110 4 130 24 130 49C130 74 110 94 85 94C60 94 40 74 40 49C40 24 60 4 85 4Z" glyph-name="line.007.090" horiz-adv-x="350" /><glyph d="M85 5 435 593V681L85 93ZM85 4C110 4 130 24 130 49C130 74 110 94 85 94C60 94 40 74 40 49C40 24 60 4 85 4Z" glyph-name="line.007.091" horiz-adv-x="350" /><glyph d="M85 5 435 600V688L85 93ZM85 4C110 4 130 24 130 49C130 74 110 94 85 94C60 94 40 74 40 49C40 24 60 4 85 4Z" glyph-name="line.007.092" horiz-adv-x="350" /><glyph d="M85 4 435 606V696L85 94ZM85 4C110 4 130 24 130 49C130 74 110 94 85 94C60 94 40 74 40 49C40 24 60 4 85 4Z" glyph-name="line.007.093" horiz-adv-x="350" /><glyph d="M85 4 435 613V703L85 94ZM85 4C110 4 130 24 130 49C130 74 110 94 85 94C60 94 40 74 40 49C40 24 60 4 85 4Z" glyph-name="line.007.094" horiz-adv-x="350" /><glyph d="M89 10 436 621 434 709 81 88ZM85 4C110 4 130 24 130 49C130 74 110 94 85 94C60 94 40 74 40 49C40 24 60 4 85 4Z" glyph-name="line.007.095" horiz-adv-x="350" /><glyph d="M89 10 436 628 434 716 81 88ZM85 4C110 4 130 24 130 49C130 74 110 94 85 94C60 94 40 74 40 49C40 24 60 4 85 4Z" glyph-name="line.007.096" horiz-adv-x="350" /><glyph d="M90 11 436 634 434 724 80 87ZM85 4C110 4 130 24 130 49C130 74 110 94 85 94C60 94 40 74 40 49C40 24 60 4 85 4Z" glyph-name="line.007.097" horiz-adv-x="350" /><glyph d="M90 11 436 641 434 731 80 87ZM85 4C110 4 130 24 130 49C130 74 110 94 85 94C60 94 40 74 40 49C40 24 60 4 85 4Z" glyph-name="line.007.098" horiz-adv-x="350" /><glyph d="M91 12 439 652 431 734 79 86ZM85 4C110 4 130 24 130 49C130 74 110 94 85 94C60 94 40 74 40 49C40 24 60 4 85 4Z" glyph-name="line.007.099" horiz-adv-x="350" /><glyph d="M92 14 437 656 433 744 78 84ZM85 4C110 4 130 24 130 49C130 74 110 94 85 94C60 94 40 74 40 49C40 24 60 4 85 4Z" glyph-name="line.007.100" horiz-adv-x="350" /><glyph d="M85 79 435 23V-23L85 33ZM85 101C110 101 130 81 130 56C130 31 110 11 85 11C60 11 40 31 40 56C40 81 60 101 85 101Z" glyph-name="line.008.000" horiz-adv-x="350" /><glyph d="M85 79 435 30V-16L85 33ZM85 101C110 101 130 81 130 56C130 31 110 11 85 11C60 11 40 31 40 56C40 81 60 101 85 101Z" glyph-name="line.008.001" horiz-adv-x="350" /><glyph d="M85 79 435 37V-9L85 33ZM85 101C110 101 130 81 130 56C130 31 110 11 85 11C60 11 40 31 40 56C40 81 60 101 85 101Z" glyph-name="line.008.002" horiz-adv-x="350" /><glyph d="M85 79 435 44V-2L85 33ZM85 101C110 101 130 81 130 56C130 31 110 11 85 11C60 11 40 31 40 56C40 81 60 101 85 101Z" glyph-name="line.008.003" horiz-adv-x="350" /><glyph d="M85 79 435 51V5L85 33ZM85 101C110 101 130 81 130 56C130 31 110 11 85 11C60 11 40 31 40 56C40 81 60 101 85 101Z" glyph-name="line.008.004" horiz-adv-x="350" /><glyph d="M85 79 435 58V12L85 33ZM85 101C110 101 130 81 130 56C130 31 110 11 85 11C60 11 40 31 40 56C40 81 60 101 85 101Z" glyph-name="line.008.005" horiz-adv-x="350" /><glyph d="M85 79 435 65V19L85 33ZM85 101C110 101 130 81 130 56C130 31 110 11 85 11C60 11 40 31 40 56C40 81 60 101 85 101Z" glyph-name="line.008.006" horiz-adv-x="350" /><glyph d="M85 79 435 72V26L85 33ZM85 101C110 101 130 81 130 56C130 31 110 11 85 11C60 11 40 31 40 56C40 81 60 101 85 101Z" glyph-name="line.008.007" horiz-adv-x="350" /><glyph d="M85 33H435V79H85ZM85 11C110 11 130 31 130 56C130 81 110 101 85 101C60 101 40 81 40 56C40 31 60 11 85 11Z" glyph-name="line.008.008" horiz-adv-x="350" /><glyph d="M85 33 435 40V86L85 79ZM85 11C110 11 130 31 130 56C130 81 110 101 85 101C60 101 40 81 40 56C40 31 60 11 85 11Z" glyph-name="line.008.009" horiz-adv-x="350" /><glyph d="M85 33 435 47V93L85 79ZM85 11C110 11 130 31 130 56C130 81 110 101 85 101C60 101 40 81 40 56C40 31 60 11 85 11Z" glyph-name="line.008.010" horiz-adv-x="350" /><glyph d="M85 33 435 54V100L85 79ZM85 11C110 11 130 31 130 56C130 81 110 101 85 101C60 101 40 81 40 56C40 31 60 11 85 11Z" glyph-name="line.008.011" horiz-adv-x="350" /><glyph d="M85 33 435 61V107L85 79ZM85 11C110 11 130 31 130 56C130 81 110 101 85 101C60 101 40 81 40 56C40 31 60 11 85 11Z" glyph-name="line.008.012" horiz-adv-x="350" /><glyph d="M85 33 435 68V114L85 79ZM85 11C110 11 130 31 130 56C130 81 110 101 85 101C60 101 40 81 40 56C40 31 60 11 85 11Z" glyph-name="line.008.013" horiz-adv-x="350" /><glyph d="M85 33 435 75V121L85 79ZM85 11C110 11 130 31 130 56C130 81 110 101 85 101C60 101 40 81 40 56C40 31 60 11 85 11Z" glyph-name="line.008.014" horiz-adv-x="350" /><glyph d="M85 33 435 82V128L85 79ZM85 11C110 11 130 31 130 56C130 81 110 101 85 101C60 101 40 81 40 56C40 31 60 11 85 11Z" glyph-name="line.008.015" horiz-adv-x="350" /><glyph d="M85 33 435 89V135L85 79ZM85 11C110 11 130 31 130 56C130 81 110 101 85 101C60 101 40 81 40 56C40 31 60 11 85 11Z" glyph-name="line.008.016" horiz-adv-x="350" /><glyph d="M85 33 435 96V142L85 79ZM85 11C110 11 130 31 130 56C130 81 110 101 85 101C60 101 40 81 40 56C40 31 60 11 85 11Z" glyph-name="line.008.017" horiz-adv-x="350" /><glyph d="M85 32 435 102V150L85 80ZM85 11C110 11 130 31 130 56C130 81 110 101 85 101C60 101 40 81 40 56C40 31 60 11 85 11Z" glyph-name="line.008.018" horiz-adv-x="350" /><glyph d="M85 32 435 109V157L85 80ZM85 11C110 11 130 31 130 56C130 81 110 101 85 101C60 101 40 81 40 56C40 31 60 11 85 11Z" glyph-name="line.008.019" horiz-adv-x="350" /><glyph d="M85 32 435 116V164L85 80ZM85 11C110 11 130 31 130 56C130 81 110 101 85 101C60 101 40 81 40 56C40 31 60 11 85 11Z" glyph-name="line.008.020" horiz-adv-x="350" /><glyph d="M85 32 435 123V171L85 80ZM85 11C110 11 130 31 130 56C130 81 110 101 85 101C60 101 40 81 40 56C40 31 60 11 85 11Z" glyph-name="line.008.021" horiz-adv-x="350" /><glyph d="M85 32 435 130V178L85 80ZM85 11C110 11 130 31 130 56C130 81 110 101 85 101C60 101 40 81 40 56C40 31 60 11 85 11Z" glyph-name="line.008.022" horiz-adv-x="350" /><glyph d="M85 32 435 137V185L85 80ZM85 11C110 11 130 31 130 56C130 81 110 101 85 101C60 101 40 81 40 56C40 31 60 11 85 11Z" glyph-name="line.008.023" horiz-adv-x="350" /><glyph d="M85 32 435 144V192L85 80ZM85 11C110 11 130 31 130 56C130 81 110 101 85 101C60 101 40 81 40 56C40 31 60 11 85 11Z" glyph-name="line.008.024" horiz-adv-x="350" /><glyph d="M85 32 435 151V199L85 80ZM85 11C110 11 130 31 130 56C130 81 110 101 85 101C60 101 40 81 40 56C40 31 60 11 85 11Z" glyph-name="line.008.025" horiz-adv-x="350" /><glyph d="M85 32 435 158V206L85 80ZM85 11C110 11 130 31 130 56C130 81 110 101 85 101C60 101 40 81 40 56C40 31 60 11 85 11Z" glyph-name="line.008.026" horiz-adv-x="350" /><glyph d="M85 32 435 165V213L85 80ZM85 11C110 11 130 31 130 56C130 81 110 101 85 101C60 101 40 81 40 56C40 31 60 11 85 11Z" glyph-name="line.008.027" horiz-adv-x="350" /><glyph d="M85 31 435 171V221L85 81ZM85 11C110 11 130 31 130 56C130 81 110 101 85 101C60 101 40 81 40 56C40 31 60 11 85 11Z" glyph-name="line.008.028" horiz-adv-x="350" /><glyph d="M85 31 435 178V228L85 81ZM85 11C110 11 130 31 130 56C130 81 110 101 85 101C60 101 40 81 40 56C40 31 60 11 85 11Z" glyph-name="line.008.029" horiz-adv-x="350" /><glyph d="M85 31 435 185V235L85 81ZM85 11C110 11 130 31 130 56C130 81 110 101 85 101C60 101 40 81 40 56C40 31 60 11 85 11Z" glyph-name="line.008.030" horiz-adv-x="350" /><glyph d="M85 31 435 192V242L85 81ZM85 11C110 11 130 31 130 56C130 81 110 101 85 101C60 101 40 81 40 56C40 31 60 11 85 11Z" glyph-name="line.008.031" horiz-adv-x="350" /><glyph d="M85 31 435 199V249L85 81ZM85 11C110 11 130 31 130 56C130 81 110 101 85 101C60 101 40 81 40 56C40 31 60 11 85 11Z" glyph-name="line.008.032" horiz-adv-x="350" /><glyph d="M85 30 435 205V257L85 82ZM85 11C110 11 130 31 130 56C130 81 110 101 85 101C60 101 40 81 40 56C40 31 60 11 85 11Z" glyph-name="line.008.033" horiz-adv-x="350" /><glyph d="M85 30 435 212V264L85 82ZM85 11C110 11 130 31 130 56C130 81 110 101 85 101C60 101 40 81 40 56C40 31 60 11 85 11Z" glyph-name="line.008.034" horiz-adv-x="350" /><glyph d="M85 30 435 219V271L85 82ZM85 11C110 11 130 31 130 56C130 81 110 101 85 101C60 101 40 81 40 56C40 31 60 11 85 11Z" glyph-name="line.008.035" horiz-adv-x="350" /><glyph d="M85 30 435 226V278L85 82ZM85 11C110 11 130 31 130 56C130 81 110 101 85 101C60 101 40 81 40 56C40 31 60 11 85 11Z" glyph-name="line.008.036" horiz-adv-x="350" /><glyph d="M85 30 435 233V285L85 82ZM85 11C110 11 130 31 130 56C130 81 110 101 85 101C60 101 40 81 40 56C40 31 60 11 85 11Z" glyph-name="line.008.037" horiz-adv-x="350" /><glyph d="M85 29 435 239V293L85 83ZM85 11C110 11 130 31 130 56C130 81 110 101 85 101C60 101 40 81 40 56C40 31 60 11 85 11Z" glyph-name="line.008.038" horiz-adv-x="350" /><glyph d="M85 29 435 246V300L85 83ZM85 11C110 11 130 31 130 56C130 81 110 101 85 101C60 101 40 81 40 56C40 31 60 11 85 11Z" glyph-name="line.008.039" horiz-adv-x="350" /><glyph d="M85 29 435 253V307L85 83ZM85 11C110 11 130 31 130 56C130 81 110 101 85 101C60 101 40 81 40 56C40 31 60 11 85 11Z" glyph-name="line.008.040" horiz-adv-x="350" /><glyph d="M85 29 435 260V314L85 83ZM85 11C110 11 130 31 130 56C130 81 110 101 85 101C60 101 40 81 40 56C40 31 60 11 85 11Z" glyph-name="line.008.041" horiz-adv-x="350" /><glyph d="M85 29 435 267V321L85 83ZM85 11C110 11 130 31 130 56C130 81 110 101 85 101C60 101 40 81 40 56C40 31 60 11 85 11Z" glyph-name="line.008.042" horiz-adv-x="350" /><glyph d="M85 28 435 273V329L85 84ZM85 11C110 11 130 31 130 56C130 81 110 101 85 101C60 101 40 81 40 56C40 31 60 11 85 11Z" glyph-name="line.008.043" horiz-adv-x="350" /><glyph d="M85 28 435 280V336L85 84ZM85 11C110 11 130 31 130 56C130 81 110 101 85 101C60 101 40 81 40 56C40 31 60 11 85 11Z" glyph-name="line.008.044" horiz-adv-x="350" /><glyph d="M85 28 435 287V343L85 84ZM85 11C110 11 130 31 130 56C130 81 110 101 85 101C60 101 40 81 40 56C40 31 60 11 85 11Z" glyph-name="line.008.045" horiz-adv-x="350" /><glyph d="M85 28 435 294V350L85 84ZM85 11C110 11 130 31 130 56C130 81 110 101 85 101C60 101 40 81 40 56C40 31 60 11 85 11Z" glyph-name="line.008.046" horiz-adv-x="350" /><glyph d="M85 28 435 301V357L85 84ZM85 11C110 11 130 31 130 56C130 81 110 101 85 101C60 101 40 81 40 56C40 31 60 11 85 11Z" glyph-name="line.008.047" horiz-adv-x="350" /><glyph d="M85 27 435 307V365L85 85ZM85 11C110 11 130 31 130 56C130 81 110 101 85 101C60 101 40 81 40 56C40 31 60 11 85 11Z" glyph-name="line.008.048" horiz-adv-x="350" /><glyph d="M85 27 435 314V372L85 85ZM85 11C110 11 130 31 130 56C130 81 110 101 85 101C60 101 40 81 40 56C40 31 60 11 85 11Z" glyph-name="line.008.049" horiz-adv-x="350" /><glyph d="M85 27 435 321V379L85 85ZM85 11C110 11 130 31 130 56C130 81 110 101 85 101C60 101 40 81 40 56C40 31 60 11 85 11Z" glyph-name="line.008.050" horiz-adv-x="350" /><glyph d="M85 27 435 328V386L85 85ZM85 11C110 11 130 31 130 56C130 81 110 101 85 101C60 101 40 81 40 56C40 31 60 11 85 11Z" glyph-name="line.008.051" horiz-adv-x="350" /><glyph d="M85 27 435 335V393L85 85ZM85 11C110 11 130 31 130 56C130 81 110 101 85 101C60 101 40 81 40 56C40 31 60 11 85 11Z" glyph-name="line.008.052" horiz-adv-x="350" /><glyph d="M85 26 435 341V401L85 86ZM85 11C110 11 130 31 130 56C130 81 110 101 85 101C60 101 40 81 40 56C40 31 60 11 85 11Z" glyph-name="line.008.053" horiz-adv-x="350" /><glyph d="M85 26 435 348V408L85 86ZM85 11C110 11 130 31 130 56C130 81 110 101 85 101C60 101 40 81 40 56C40 31 60 11 85 11Z" glyph-name="line.008.054" horiz-adv-x="350" /><glyph d="M85 26 435 355V415L85 86ZM85 11C110 11 130 31 130 56C130 81 110 101 85 101C60 101 40 81 40 56C40 31 60 11 85 11Z" glyph-name="line.008.055" horiz-adv-x="350" /><glyph d="M85 26 435 362V422L85 86ZM85 11C110 11 130 31 130 56C130 81 110 101 85 101C60 101 40 81 40 56C40 31 60 11 85 11Z" glyph-name="line.008.056" horiz-adv-x="350" /><glyph d="M85 26 435 369V429L85 86ZM85 11C110 11 130 31 130 56C130 81 110 101 85 101C60 101 40 81 40 56C40 31 60 11 85 11Z" glyph-name="line.008.057" horiz-adv-x="350" /><glyph d="M85 25 435 375V437L85 87ZM85 11C110 11 130 31 130 56C130 81 110 101 85 101C60 101 40 81 40 56C40 31 60 11 85 11Z" glyph-name="line.008.058" horiz-adv-x="350" /><glyph d="M85 25 435 382V444L85 87ZM85 11C110 11 130 31 130 56C130 81 110 101 85 101C60 101 40 81 40 56C40 31 60 11 85 11Z" glyph-name="line.008.059" horiz-adv-x="350" /><glyph d="M85 25 435 389V451L85 87ZM85 11C110 11 130 31 130 56C130 81 110 101 85 101C60 101 40 81 40 56C40 31 60 11 85 11Z" glyph-name="line.008.060" horiz-adv-x="350" /><glyph d="M85 25 435 396V458L85 87ZM85 11C110 11 130 31 130 56C130 81 110 101 85 101C60 101 40 81 40 56C40 31 60 11 85 11Z" glyph-name="line.008.061" horiz-adv-x="350" /><glyph d="M85 24 435 402V466L85 88ZM85 11C110 11 130 31 130 56C130 81 110 101 85 101C60 101 40 81 40 56C40 31 60 11 85 11Z" glyph-name="line.008.062" horiz-adv-x="350" /><glyph d="M85 24 435 409V473L85 88ZM85 11C110 11 130 31 130 56C130 81 110 101 85 101C60 101 40 81 40 56C40 31 60 11 85 11Z" glyph-name="line.008.063" horiz-adv-x="350" /><glyph d="M85 24 435 416V480L85 88ZM85 11C110 11 130 31 130 56C130 81 110 101 85 101C60 101 40 81 40 56C40 31 60 11 85 11Z" glyph-name="line.008.064" horiz-adv-x="350" /><glyph d="M85 23 435 422V488L85 89ZM85 11C110 11 130 31 130 56C130 81 110 101 85 101C60 101 40 81 40 56C40 31 60 11 85 11Z" glyph-name="line.008.065" horiz-adv-x="350" /><glyph d="M85 23 435 429V495L85 89ZM85 11C110 11 130 31 130 56C130 81 110 101 85 101C60 101 40 81 40 56C40 31 60 11 85 11Z" glyph-name="line.008.066" horiz-adv-x="350" /><glyph d="M85 23 435 436V502L85 89ZM85 11C110 11 130 31 130 56C130 81 110 101 85 101C60 101 40 81 40 56C40 31 60 11 85 11Z" glyph-name="line.008.067" horiz-adv-x="350" /><glyph d="M85 22 435 442V510L85 90ZM85 11C110 11 130 31 130 56C130 81 110 101 85 101C60 101 40 81 40 56C40 31 60 11 85 11Z" glyph-name="line.008.068" horiz-adv-x="350" /><glyph d="M85 22 435 449V517L85 90ZM85 11C110 11 130 31 130 56C130 81 110 101 85 101C60 101 40 81 40 56C40 31 60 11 85 11Z" glyph-name="line.008.069" horiz-adv-x="350" /><glyph d="M85 22 435 456V524L85 90ZM85 11C110 11 130 31 130 56C130 81 110 101 85 101C60 101 40 81 40 56C40 31 60 11 85 11Z" glyph-name="line.008.070" horiz-adv-x="350" /><glyph d="M85 21 435 462V532L85 91ZM85 11C110 11 130 31 130 56C130 81 110 101 85 101C60 101 40 81 40 56C40 31 60 11 85 11Z" glyph-name="line.008.071" horiz-adv-x="350" /><glyph d="M85 21 435 469V539L85 91ZM85 11C110 11 130 31 130 56C130 81 110 101 85 101C60 101 40 81 40 56C40 31 60 11 85 11Z" glyph-name="line.008.072" horiz-adv-x="350" /><glyph d="M85 20 435 475V547L85 92ZM85 11C110 11 130 31 130 56C130 81 110 101 85 101C60 101 40 81 40 56C40 31 60 11 85 11Z" glyph-name="line.008.073" horiz-adv-x="350" /><glyph d="M85 20 435 482V554L85 92ZM85 11C110 11 130 31 130 56C130 81 110 101 85 101C60 101 40 81 40 56C40 31 60 11 85 11Z" glyph-name="line.008.074" horiz-adv-x="350" /><glyph d="M85 19 435 488V562L85 93ZM85 11C110 11 130 31 130 56C130 81 110 101 85 101C60 101 40 81 40 56C40 31 60 11 85 11Z" glyph-name="line.008.075" horiz-adv-x="350" /><glyph d="M85 19 435 495V569L85 93ZM85 11C110 11 130 31 130 56C130 81 110 101 85 101C60 101 40 81 40 56C40 31 60 11 85 11Z" glyph-name="line.008.076" horiz-adv-x="350" /><glyph d="M85 19 435 503V577L85 93ZM85 11C110 11 130 31 130 56C130 81 110 101 85 101C60 101 40 81 40 56C40 31 60 11 85 11Z" glyph-name="line.008.077" horiz-adv-x="350" /><glyph d="M85 18 435 508V584L85 94ZM85 11C110 11 130 31 130 56C130 81 110 101 85 101C60 101 40 81 40 56C40 31 60 11 85 11Z" glyph-name="line.008.078" horiz-adv-x="350" /><glyph d="M85 18 435 515V591L85 94ZM85 11C110 11 130 31 130 56C130 81 110 101 85 101C60 101 40 81 40 56C40 31 60 11 85 11Z" glyph-name="line.008.079" horiz-adv-x="350" /><glyph d="M85 18 435 522V598L85 94ZM85 11C110 11 130 31 130 56C130 81 110 101 85 101C60 101 40 81 40 56C40 31 60 11 85 11Z" glyph-name="line.008.080" horiz-adv-x="350" /><glyph d="M85 17 435 528V606L85 95ZM85 11C110 11 130 31 130 56C130 81 110 101 85 101C60 101 40 81 40 56C40 31 60 11 85 11Z" glyph-name="line.008.081" horiz-adv-x="350" /><glyph d="M85 17 435 535V613L85 95ZM85 11C110 11 130 31 130 56C130 81 110 101 85 101C60 101 40 81 40 56C40 31 60 11 85 11Z" glyph-name="line.008.082" horiz-adv-x="350" /><glyph d="M85 16 435 541V621L85 96ZM85 11C110 11 130 31 130 56C130 81 110 101 85 101C60 101 40 81 40 56C40 31 60 11 85 11Z" glyph-name="line.008.083" horiz-adv-x="350" /><glyph d="M85 16 435 548V628L85 96ZM85 11C110 11 130 31 130 56C130 81 110 101 85 101C60 101 40 81 40 56C40 31 60 11 85 11Z" glyph-name="line.008.084" horiz-adv-x="350" /><glyph d="M85 15 435 554V636L85 97ZM85 11C110 11 130 31 130 56C130 81 110 101 85 101C60 101 40 81 40 56C40 31 60 11 85 11Z" glyph-name="line.008.085" horiz-adv-x="350" /><glyph d="M85 15 435 561V643L85 97ZM85 11C110 11 130 31 130 56C130 81 110 101 85 101C60 101 40 81 40 56C40 31 60 11 85 11Z" glyph-name="line.008.086" horiz-adv-x="350" /><glyph d="M85 15 435 568V650L85 97ZM85 11C110 11 130 31 130 56C130 81 110 101 85 101C60 101 40 81 40 56C40 31 60 11 85 11Z" glyph-name="line.008.087" horiz-adv-x="350" /><glyph d="M85 14 435 574V658L85 98ZM85 11C110 11 130 31 130 56C130 81 110 101 85 101C60 101 40 81 40 56C40 31 60 11 85 11Z" glyph-name="line.008.088" horiz-adv-x="350" /><glyph d="M85 14 435 581V665L85 98ZM85 11C110 11 130 31 130 56C130 81 110 101 85 101C60 101 40 81 40 56C40 31 60 11 85 11Z" glyph-name="line.008.089" horiz-adv-x="350" /><glyph d="M85 13 435 587V673L85 99ZM85 11C110 11 130 31 130 56C130 81 110 101 85 101C60 101 40 81 40 56C40 31 60 11 85 11Z" glyph-name="line.008.090" horiz-adv-x="350" /><glyph d="M85 13 435 594V680L85 99ZM85 11C110 11 130 31 130 56C130 81 110 101 85 101C60 101 40 81 40 56C40 31 60 11 85 11Z" glyph-name="line.008.091" horiz-adv-x="350" /><glyph d="M85 12 435 600V688L85 100ZM85 11C110 11 130 31 130 56C130 81 110 101 85 101C60 101 40 81 40 56C40 31 60 11 85 11Z" glyph-name="line.008.092" horiz-adv-x="350" /><glyph d="M85 12 435 607V695L85 100ZM85 11C110 11 130 31 130 56C130 81 110 101 85 101C60 101 40 81 40 56C40 31 60 11 85 11Z" glyph-name="line.008.093" horiz-adv-x="350" /><glyph d="M85 11 435 613V703L85 101ZM85 11C110 11 130 31 130 56C130 81 110 101 85 101C60 101 40 81 40 56C40 31 60 11 85 11Z" glyph-name="line.008.094" horiz-adv-x="350" /><glyph d="M85 11 435 620V710L85 101ZM85 11C110 11 130 31 130 56C130 81 110 101 85 101C60 101 40 81 40 56C40 31 60 11 85 11Z" glyph-name="line.008.095" horiz-adv-x="350" /><glyph d="M89 17 436 628 434 716 81 95ZM85 11C110 11 130 31 130 56C130 81 110 101 85 101C60 101 40 81 40 56C40 31 60 11 85 11Z" glyph-name="line.008.096" horiz-adv-x="350" /><glyph d="M89 17 436 635 434 723 81 95ZM85 11C110 11 130 31 130 56C130 81 110 101 85 101C60 101 40 81 40 56C40 31 60 11 85 11Z" glyph-name="line.008.097" horiz-adv-x="350" /></font>
</defs>
</svg>
