<?xml version="1.0" standalone="no"?><!DOCTYPE svg PUBLIC "-//W3C//DTD SVG 1.1//EN" "http://www.w3.org/Graphics/SVG/1.1/DTD/svg11.dtd" ><svg version="1.1" xmlns="http://www.w3.org/2000/svg"><defs><font horiz-adv-x="0" id="font"><font-face ascent="700" bbox="-65 -709 698 734" cap-height="700" descent="-250" font-family="Sparks" font-stretch="normal" font-style="normal" font-weight="400" units-per-em="1000" x-height="500" /><missing-glyph d="M52 0H448V500H52ZM86 34V467H414V34ZM225.8 192H269L270.8 225.6C326.6 230.4 360.8 264 360.8 316.2C360.8 375.6 316.4 408 256.4 408C192.8 408 146.6 376.2 140 310.2H189.8C195.8 346.2 219.8 363.6 254.6 363.6C287.6 363.6 309.8 345.6 309.8 316.2C309.8 279.6 286.4 264 223.4 262.8ZM216.8 162V102H278V162Z" horiz-adv-x="500" /><glyph glyph-name=".null" horiz-adv-x="500" /><glyph d="M79 98H358V170H79ZM1 0H86L206 346C211 361 219 385 224 404H226C230 385 238 361 243 346L361 0H449L267 500H183Z" glyph-name="A" horiz-adv-x="450" unicode="A" /><glyph d="M298 0H591V72H380V219H552V291H380V428H585V500H298ZM105 98H350V170H105ZM-12 0H79L258 362C267 381 277 405 283 422H298L339 500H245Z" glyph-name="AE" horiz-adv-x="618" unicode="&#198;" /><glyph d="M79 98H358V170H79ZM1 0H86L206 346C211 361 219 385 224 404H226C230 385 238 361 243 346L361 0H449L267 500H183ZM258 560 362 670H258L191 560Z" glyph-name="Aacute" horiz-adv-x="450" unicode="&#193;" /><glyph d="M79 98H358V170H79ZM1 0H86L206 346C211 361 219 385 224 404H226C230 385 238 361 243 346L361 0H449L267 500H183ZM273 670H177L66 570H161L225 629L289 570H384Z" glyph-name="Acircumflex" horiz-adv-x="450" unicode="&#194;" /><glyph d="M79 98H358V170H79ZM1 0H86L206 346C211 361 219 385 224 404H226C230 385 238 361 243 346L361 0H449L267 500H183ZM95 670V574H191V670ZM260 670V574H356V670Z" glyph-name="Adieresis" horiz-adv-x="450" unicode="&#196;" /><glyph d="M79 98H358V170H79ZM1 0H86L206 346C211 361 219 385 224 404H226C230 385 238 361 243 346L361 0H449L267 500H183ZM191 560H258L191 670H87Z" glyph-name="Agrave" horiz-adv-x="450" unicode="&#192;" /><glyph d="M79 98H358V170H79ZM1 0H86L206 346C211 361 219 385 224 404H226C230 385 238 361 243 346L361 0H449L267 500H183ZM223 556C274 556 315 595 315 645C315 695 274 734 223 734C172 734 131 695 131 645C131 595 172 556 223 556ZM223 604C198 604 181 621 181 645C181 669 198 686 223 686C248 686 265 669 265 645C265 621 248 604 223 604Z" glyph-name="Aring" horiz-adv-x="450" unicode="&#197;" /><glyph d="M79 98H358V170H79ZM1 0H86L206 346C211 361 219 385 224 404H226C230 385 238 361 243 346L361 0H449L267 500H183ZM302 670C300 646 289 632 268 632C238 632 216 670 169 670C118 670 86 629 83 570H137C140 594 151 608 172 608C204 608 222 570 271 570C322 570 353 611 356 670Z" glyph-name="Atilde" horiz-adv-x="450" unicode="&#195;" /><glyph d="M254 0C365 0 429 53 429 146C429 205 400 240 351 263V265C386 283 413 320 413 368C413 455 355 500 248 500H52V0ZM134 294V428H240C297 428 328 410 328 363C328 317 297 294 240 294ZM244 73H134V225H244C312 225 344 201 344 150C344 99 312 73 244 73Z" glyph-name="B" horiz-adv-x="456" unicode="B" /><glyph d="M25 122H268V178H25ZM279 0C390 0 454 53 454 146C454 205 425 240 376 263V265C411 283 438 320 438 368C438 455 380 500 273 500H77V0ZM159 294V428H265C322 428 353 410 353 363C353 317 322 294 265 294ZM269 73H159V225H269C337 225 369 201 369 150C369 99 337 73 269 73Z" glyph-name="Bstroke" horiz-adv-x="481" unicode="&#579;" /><glyph d="M457 156H369C354 100 321 66 252 66C165 66 112 132 112 248C112 365 165 434 252 434C321 434 358 396 368 339H455C444 445 366 510 256 510C125 510 26 423 26 252C26 82 117 -10 248 -10C357 -10 437 49 457 156Z" glyph-name="C" horiz-adv-x="473" unicode="C" /><glyph d="M457 156H369C354 100 321 66 252 66C165 66 112 132 112 248C112 365 165 434 252 434C321 434 358 396 368 339H455C444 445 366 510 256 510C125 510 26 423 26 252C26 82 117 -10 248 -10C357 -10 437 49 457 156ZM232 5 209 -65 226 -84C233 -82 243 -80 252 -80C277 -80 295 -91 295 -111C295 -132 277 -142 249 -142C224 -142 203 -135 188 -127L176 -160C195 -175 235 -187 263 -187C325 -187 357 -157 357 -110C357 -64 330 -36 286 -36C276 -36 262 -37 252 -40L267 5Z" glyph-name="Ccedilla" horiz-adv-x="473" unicode="&#199;" /><glyph d="M52 0H178C339 0 436 80 436 250C436 421 346 500 184 500H52ZM180 428C303 428 353 377 353 254C353 132 305 72 182 72H134V428Z" glyph-name="D" horiz-adv-x="462" unicode="D" /><glyph d="M52 0H361V72H134V219H316V291H134V428H355V500H52Z" glyph-name="E" horiz-adv-x="388" unicode="E" /><glyph d="M52 0H361V72H134V219H316V291H134V428H355V500H52ZM223 560 327 670H223L156 560Z" glyph-name="Eacute" horiz-adv-x="388" unicode="&#201;" /><glyph d="M52 0H361V72H134V219H316V291H134V428H355V500H52ZM252 670H156L45 570H140L204 629L268 570H363Z" glyph-name="Ecircumflex" horiz-adv-x="388" unicode="&#202;" /><glyph d="M52 0H361V72H134V219H316V291H134V428H355V500H52ZM71 670V574H167V670ZM236 670V574H332V670Z" glyph-name="Edieresis" horiz-adv-x="388" unicode="&#203;" /><glyph d="M52 0H361V72H134V219H316V291H134V428H355V500H52ZM179 560H246L179 670H75Z" glyph-name="Egrave" horiz-adv-x="388" unicode="&#200;" /><glyph d="M25 225H277V285H25ZM77 0H203C364 0 461 80 461 250C461 421 371 500 209 500H77ZM205 428C328 428 378 377 378 254C378 132 330 72 207 72H159V428Z" glyph-name="Eth" horiz-adv-x="487" unicode="&#208;" /><glyph d="M350 111C341 81 315 62 280 62C190 62 159 141 159 248C159 356 184 438 274 438C311 438 343 414 351 379H430C415 457 353 509 276 509C147 509 76 408 76 252C76 97 145 -9 274 -9C347 -9 412 41 432 111ZM32 273H309L320 333H32ZM32 161H289L300 221H32Z" glyph-name="Euro" horiz-adv-x="440" unicode="&#8364;" /><glyph d="M52 0H134V210H320V282H134V428H359V500H52Z" glyph-name="F" horiz-adv-x="374" unicode="F" /><glyph d="M472 241V252H239V180H383C379 116 338 66 255 66C168 66 112 132 112 248C112 365 170 434 257 434C324 434 362 403 373 349H459C447 451 368 510 261 510C130 510 26 423 26 252C26 82 120 -10 251 -10C398 -10 472 81 472 241Z" glyph-name="G" horiz-adv-x="497" unicode="G" /><glyph d="M52 0H134V218H363V0H445V500H363V290H134V500H52Z" glyph-name="H" horiz-adv-x="497" unicode="H" /><glyph d="M52 0H135V500H52Z" glyph-name="I" horiz-adv-x="187" unicode="I" /><glyph d="M52 0H135V500H52ZM127 560 231 670H127L60 560Z" glyph-name="Iacute" horiz-adv-x="187" unicode="&#205;" /><glyph d="M52 0H135V500H52ZM142 670H46L-65 570H30L94 629L158 570H253Z" glyph-name="Icircumflex" horiz-adv-x="187" unicode="&#206;" /><glyph d="M52 0H135V500H52ZM-37 670V574H59V670ZM128 670V574H224V670Z" glyph-name="Idieresis" horiz-adv-x="187" unicode="&#207;" /><glyph d="M52 0H135V500H52ZM60 560H127L60 670H-44Z" glyph-name="Igrave" horiz-adv-x="187" unicode="&#204;" /><glyph d="M133 161C133 94 116 66 57 66C45 66 24 67 10 69V-7C25 -9 44 -10 59 -10C170 -10 216 28 216 145V500H133Z" glyph-name="J" horiz-adv-x="266" unicode="J" /><glyph d="M56 0H139V140L214 229L361 0H460L268 292L446 500H349L139 251V500H56Z" glyph-name="K" horiz-adv-x="456" unicode="K" /><glyph d="M52 0H361V73H134V500H52Z" glyph-name="L" horiz-adv-x="366" unicode="L" /><glyph d="M347 0 473 335H475C473 295 471 239 471 200V0H553V500H463L304 86H302L142 500H52V0H134V200C134 239 132 295 130 335H132L258 0Z" glyph-name="M" horiz-adv-x="605" unicode="M" /><glyph d="M52 0H134V223C134 256 133 322 131 358H133C144 340 158 318 168 303L373 0H445V500H363V276C363 243 365 176 367 141H365C354 159 340 181 329 197L124 500H52Z" glyph-name="N" horiz-adv-x="497" unicode="N" /><glyph d="M52 0H134V223C134 256 133 322 131 358H133C144 340 158 318 168 303L373 0H445V500H363V276C363 243 365 176 367 141H365C354 159 340 181 329 197L124 500H52ZM332 670C330 646 319 632 298 632C268 632 246 670 199 670C148 670 116 629 113 570H167C170 594 181 608 202 608C234 608 252 570 301 570C352 570 383 611 386 670Z" glyph-name="Ntilde" horiz-adv-x="497" unicode="&#209;" /><glyph d="M260 66C168 66 112 133 112 248C112 364 163 434 256 434C348 434 404 367 404 252C404 136 353 66 260 66ZM256 -10C386 -10 490 76 490 248C490 421 391 510 260 510C130 510 26 424 26 252C26 79 125 -10 256 -10Z" glyph-name="O" horiz-adv-x="516" unicode="O" /><glyph d="M26 250C26 80 123 0 284 0H591V72H380V219H552V291H380V428H585V500H278C116 500 26 421 26 250ZM282 428H298V72H280C157 72 109 132 109 254C109 377 159 428 282 428Z" glyph-name="OE" horiz-adv-x="618" unicode="&#338;" /><glyph d="M260 66C168 66 112 133 112 248C112 364 163 434 256 434C348 434 404 367 404 252C404 136 353 66 260 66ZM256 -10C386 -10 490 76 490 248C490 421 391 510 260 510C130 510 26 424 26 252C26 79 125 -10 256 -10ZM287 560 391 670H287L220 560Z" glyph-name="Oacute" horiz-adv-x="516" unicode="&#211;" /><glyph d="M260 66C168 66 112 133 112 248C112 364 163 434 256 434C348 434 404 367 404 252C404 136 353 66 260 66ZM256 -10C386 -10 490 76 490 248C490 421 391 510 260 510C130 510 26 424 26 252C26 79 125 -10 256 -10ZM306 670H210L99 570H194L258 629L322 570H417Z" glyph-name="Ocircumflex" horiz-adv-x="516" unicode="&#212;" /><glyph d="M260 66C168 66 112 133 112 248C112 364 163 434 256 434C348 434 404 367 404 252C404 136 353 66 260 66ZM256 -10C386 -10 490 76 490 248C490 421 391 510 260 510C130 510 26 424 26 252C26 79 125 -10 256 -10ZM129 670V574H225V670ZM294 670V574H390V670Z" glyph-name="Odieresis" horiz-adv-x="516" unicode="&#214;" /><glyph d="M260 66C168 66 112 133 112 248C112 364 163 434 256 434C348 434 404 367 404 252C404 136 353 66 260 66ZM256 -10C386 -10 490 76 490 248C490 421 391 510 260 510C130 510 26 424 26 252C26 79 125 -10 256 -10ZM223 560H290L223 670H119Z" glyph-name="Ograve" horiz-adv-x="516" unicode="&#210;" /><glyph d="M260 66C168 66 112 133 112 248C112 364 163 434 256 434C348 434 404 367 404 252C404 136 353 66 260 66ZM256 -10C386 -10 490 76 490 248C490 421 391 510 260 510C130 510 26 424 26 252C26 79 125 -10 256 -10ZM44 11 88 -22 473 489 429 522Z" glyph-name="Oslash" horiz-adv-x="516" unicode="&#216;" /><glyph d="M260 66C168 66 112 133 112 248C112 364 163 434 256 434C348 434 404 367 404 252C404 136 353 66 260 66ZM256 -10C386 -10 490 76 490 248C490 421 391 510 260 510C130 510 26 424 26 252C26 79 125 -10 256 -10ZM339 670C337 646 326 632 305 632C275 632 253 670 206 670C155 670 123 629 120 570H174C177 594 188 608 209 608C241 608 259 570 308 570C359 570 390 611 393 670Z" glyph-name="Otilde" horiz-adv-x="516" unicode="&#213;" /><glyph d="M225 428C299 428 330 397 330 342C330 286 299 256 225 256H134V428ZM238 500H52V0H134V184H238C355 184 416 244 416 342C416 440 355 500 238 500Z" glyph-name="P" horiz-adv-x="431" unicode="P" /><glyph d="M260 66C168 66 112 133 112 248C112 364 163 434 256 434C348 434 404 367 404 252C404 136 353 66 260 66ZM256 -10C386 -10 490 76 490 248C490 421 391 510 260 510C130 510 26 424 26 252C26 79 125 -10 256 -10ZM432 -39 482 10 304 185 255 135Z" glyph-name="Q" horiz-adv-x="516" unicode="Q" /><glyph d="M345 0H435L323 207V209C382 232 416 277 416 346C416 442 355 500 239 500H52V0H134V190H245ZM226 428C299 428 330 398 330 345C330 291 299 262 226 262H134V428Z" glyph-name="R" horiz-adv-x="443" unicode="R" /><glyph d="M255 203C316 192 340 175 340 136C340 91 301 63 230 63C147 63 105 105 100 155H20C29 65 96 -10 227 -10C343 -10 423 45 423 145C423 218 377 263 287 279L199 295C142 305 117 323 117 362C117 408 151 437 214 437C290 437 322 403 328 353H410C403 455 322 510 218 510C107 510 34 447 34 358C34 280 80 235 167 219Z" glyph-name="S" horiz-adv-x="445" unicode="S" /><glyph d="M156 0H239V428H392V500H3V428H156Z" glyph-name="T" horiz-adv-x="395" unicode="T" /><glyph d="M238 408H134V500H52V0H134V92H238C355 92 416 152 416 250C416 348 355 408 238 408ZM225 336C299 336 330 305 330 250C330 194 299 164 225 164H134V336Z" glyph-name="Thorn" horiz-adv-x="428" unicode="&#222;" /><glyph d="M361 196C361 106 322 66 247 66C172 66 133 106 133 196V500H50V192C50 46 128 -10 247 -10C366 -10 444 46 444 192V500H361Z" glyph-name="U" horiz-adv-x="494" unicode="U" /><glyph d="M361 196C361 106 322 66 247 66C172 66 133 106 133 196V500H50V192C50 46 128 -10 247 -10C366 -10 444 46 444 192V500H361ZM275 560 379 670H275L208 560Z" glyph-name="Uacute" horiz-adv-x="494" unicode="&#218;" /><glyph d="M361 196C361 106 322 66 247 66C172 66 133 106 133 196V500H50V192C50 46 128 -10 247 -10C366 -10 444 46 444 192V500H361ZM296 670H200L89 570H184L248 629L312 570H407Z" glyph-name="Ucircumflex" horiz-adv-x="494" unicode="&#219;" /><glyph d="M361 196C361 106 322 66 247 66C172 66 133 106 133 196V500H50V192C50 46 128 -10 247 -10C366 -10 444 46 444 192V500H361ZM117 670V574H213V670ZM282 670V574H378V670Z" glyph-name="Udieresis" horiz-adv-x="494" unicode="&#220;" /><glyph d="M361 196C361 106 322 66 247 66C172 66 133 106 133 196V500H50V192C50 46 128 -10 247 -10C366 -10 444 46 444 192V500H361ZM219 560H286L219 670H115Z" glyph-name="Ugrave" horiz-adv-x="494" unicode="&#217;" /><glyph d="M453 500H368L248 154C243 139 235 115 230 96H228C224 115 216 139 211 154L93 500H5L187 0H271Z" glyph-name="V" horiz-adv-x="458" unicode="V" /><glyph d="M384 500H308L217 162C212 145 205 118 200 96H198C193 118 187 144 182 162L93 500H5L155 0H243L306 210C316 244 335 317 343 357H345C354 316 373 244 383 211L446 0H534L684 500H599L508 162C503 145 496 118 491 96H489C484 118 478 144 473 162Z" glyph-name="W" horiz-adv-x="689" unicode="W" /><glyph d="M92 0 209 186H211L328 0H427L262 257L418 500H321L212 326H210L101 500H2L159 256L-5 0Z" glyph-name="X" horiz-adv-x="422" unicode="X" /><glyph d="M173 0H256V197L438 500H347L279 386C254 344 232 305 215 273H213C197 304 175 343 150 386L84 500H-10L173 195Z" glyph-name="Y" horiz-adv-x="428" unicode="Y" /><glyph d="M173 0H256V197L438 500H347L279 386C254 344 232 305 215 273H213C197 304 175 343 150 386L84 500H-10L173 195ZM238 560 342 670H238L171 560Z" glyph-name="Yacute" horiz-adv-x="428" unicode="&#221;" /><glyph d="M400 72H114V74L383 435V499H26V427H285V425L14 64V0H400Z" glyph-name="Z" horiz-adv-x="414" unicode="Z" /><glyph d="M79 98H358V170H79ZM1 0H86L206 346C211 361 219 385 224 404H226C230 385 238 361 243 346L361 0H449L267 500H183Z" glyph-name="a" horiz-adv-x="450" unicode="a" /><glyph d="M79 98H358V170H79ZM1 0H86L206 346C211 361 219 385 224 404H226C230 385 238 361 243 346L361 0H449L267 500H183ZM258 560 362 670H258L191 560Z" glyph-name="aacute" horiz-adv-x="450" unicode="&#225;" /><glyph d="M79 98H358V170H79ZM1 0H86L206 346C211 361 219 385 224 404H226C230 385 238 361 243 346L361 0H449L267 500H183ZM273 670H177L66 570H161L225 629L289 570H384Z" glyph-name="acircumflex" horiz-adv-x="450" unicode="&#226;" /><glyph d="M117 560 221 670H117L50 560Z" glyph-name="acute" horiz-adv-x="271" unicode="&#180;" /><glyph d="M79 98H358V170H79ZM1 0H86L206 346C211 361 219 385 224 404H226C230 385 238 361 243 346L361 0H449L267 500H183ZM95 670V574H191V670ZM260 670V574H356V670Z" glyph-name="adieresis" horiz-adv-x="450" unicode="&#228;" /><glyph d="M298 0H591V72H380V219H552V291H380V428H585V500H298ZM105 98H350V170H105ZM-12 0H79L258 362C267 381 277 405 283 422H298L339 500H245Z" glyph-name="ae" horiz-adv-x="618" unicode="&#230;" /><glyph d="M79 98H358V170H79ZM1 0H86L206 346C211 361 219 385 224 404H226C230 385 238 361 243 346L361 0H449L267 500H183ZM191 560H258L191 670H87Z" glyph-name="agrave" horiz-adv-x="450" unicode="&#224;" /><glyph d="M192 508C120 508 60 462 60 394C60 355 80 314 112 279C45 245 7 204 7 136C7 46 69 -8 183 -8C248 -8 298 12 338 45L384 0H488L392 99C420 144 436 202 440 269H358C356 223 349 185 336 155L230 265C292 298 319 340 319 394C319 463 269 508 192 508ZM137 392C137 419 158 442 190 442C224 442 244 417 244 390C244 356 228 334 185 309C149 343 137 365 137 392ZM91 136C91 171 109 199 158 229L288 97C260 73 227 61 189 61C130 61 91 92 91 136Z" glyph-name="ampersand" horiz-adv-x="463" unicode="&amp;" /><glyph d="M79 98H358V170H79ZM1 0H86L206 346C211 361 219 385 224 404H226C230 385 238 361 243 346L361 0H449L267 500H183ZM223 556C274 556 315 595 315 645C315 695 274 734 223 734C172 734 131 695 131 645C131 595 172 556 223 556ZM223 604C198 604 181 621 181 645C181 669 198 686 223 686C248 686 265 669 265 645C265 621 248 604 223 604Z" glyph-name="aring" horiz-adv-x="450" unicode="&#229;" /><glyph d="M152.11 500.18V436.55L405.923 440.085L6.468 40.63L53.13 -6.032L452.585 393.423L449.05 139.61H512.68L512.68 500.18Z" glyph-name="arrowNE" horiz-adv-x="557" unicode="&#8599;" /><glyph d="M43.82 139.11H107.45L103.915 392.923L503.37 -6.532L550.032 40.13L150.577 439.585L404.39 436.05V499.68L43.82 499.68Z" glyph-name="arrowNW" horiz-adv-x="556" unicode="&#8598;" /><glyph d="M512.18 360.89H448.55L452.085 107.077L52.63 506.532L5.968 459.87L405.423 60.415L151.61 63.95V0.32L512.18 0.32Z" glyph-name="arrowSE" horiz-adv-x="556" unicode="&#8600;" /><glyph d="M404.89 -0.18V63.45L151.077 59.915L550.532 459.37L503.87 506.032L104.415 106.577L107.95 360.39H44.32L44.32 -0.18Z" glyph-name="arrowSW" horiz-adv-x="556" unicode="&#8601;" /><glyph d="M519 266 474 311 297 129V694H231V129L54 311L9 266L264 11Z" glyph-name="arrowdown" horiz-adv-x="528" unicode="&#8595;" /><glyph d="M265 -5 310 40 128 217H693V283H128L310 460L265 505L10 250Z" glyph-name="arrowleft" horiz-adv-x="708" unicode="&#8592;" /><glyph d="M443 -5 398 40 580 217H15V283H580L398 460L443 505L698 250Z" glyph-name="arrowright" horiz-adv-x="708" unicode="&#8594;" /><glyph d="M9 442 54 397 231 579V14H297V579L474 397L519 442L264 697Z" glyph-name="arrowup" horiz-adv-x="528" unicode="&#8593;" /><glyph d="M169 500 30 200H120L215 425L310 200H400L261 500Z" glyph-name="asciicircum" horiz-adv-x="430" unicode="^" /><glyph d="M354 335C352 299 333 276 301 276C253 276 226 336 147 336C82 336 41 287 38 213H96C99 249 118 272 150 272C196 272 225 212 304 212C369 212 409 261 412 335Z" glyph-name="asciitilde" horiz-adv-x="450" unicode="~" /><glyph d="M52 341 128 396 120 301H185L177 396L253 340L286 396L200 436L285 475L253 532L177 476L185 570H120L128 476L53 531L20 474L104 436L20 397Z" glyph-name="asterisk" horiz-adv-x="306" unicode="*" /><glyph d="M347 372 340 338H338C327 360 302 378 273 378C209 378 157 313 157 233C157 161 197 122 251 122C283 122 313 137 332 166H334C346 139 370 122 411 122C497 122 545 177 545 274C545 424 440 512 290 512C142 512 20 394 20 245C20 90 125 -12 280 -12C330 -12 388 2 420 21L401 72C365 56 323 48 280 48C159 48 87 128 87 245C87 360 174 452 289 452C410 452 480 386 480 267C480 205 455 176 416 176C393 176 382 188 382 210C382 221 383 233 385 246L403 372ZM265 178C235 178 220 200 220 233C220 288 246 322 283 322C311 322 327 297 327 265C327 206 302 178 265 178Z" glyph-name="at" horiz-adv-x="563" unicode="@" /><glyph d="M79 98H358V170H79ZM1 0H86L206 346C211 361 219 385 224 404H226C230 385 238 361 243 346L361 0H449L267 500H183ZM302 670C300 646 289 632 268 632C238 632 216 670 169 670C118 670 86 629 83 570H137C140 594 151 608 172 608C204 608 222 570 271 570C322 570 353 611 356 670Z" glyph-name="atilde" horiz-adv-x="450" unicode="&#227;" /><glyph d="M254 0C365 0 429 53 429 146C429 205 400 240 351 263V265C386 283 413 320 413 368C413 455 355 500 248 500H52V0ZM134 294V428H240C297 428 328 410 328 363C328 317 297 294 240 294ZM244 73H134V225H244C312 225 344 201 344 150C344 99 312 73 244 73Z" glyph-name="b" horiz-adv-x="456" unicode="b" /><glyph d="M431 0H341L0 500H90Z" glyph-name="backslash" horiz-adv-x="436" unicode="\" /><glyph d="M82 -100H160V600H82Z" glyph-name="bar" horiz-adv-x="242" unicode="|" /><glyph d="M57 217C90 213 107 196 107 161V115C107 28 155 -16 268 -16V51C204 51 185 80 185 129V182C185 212 170 239 143 247C170 255 185 282 185 312V365C185 414 204 443 268 443V510C155 510 107 466 107 379V333C107 298 90 281 57 277Z" glyph-name="braceleft" horiz-adv-x="300" unicode="{" /><glyph d="M243 217C210 213 193 196 193 161V115C193 28 145 -16 32 -16V51C96 51 115 80 115 129V182C115 212 130 239 157 247C130 255 115 282 115 312V365C115 414 96 443 32 443V510C145 510 193 466 193 379V333C193 298 210 281 243 277Z" glyph-name="braceright" horiz-adv-x="300" unicode="}" /><glyph d="M82 0H263V69H160V431H263V500H82Z" glyph-name="bracketleft" horiz-adv-x="300" unicode="[" /><glyph d="M218 0H37V69H140V431H37V500H218Z" glyph-name="bracketright" horiz-adv-x="300" unicode="]" /><glyph d="M118 670C122 645 145 624 178 624C211 624 234 645 238 670H306C299 605 247 560 178 560C109 560 57 605 50 670Z" glyph-name="breve" horiz-adv-x="356" unicode="&#728;" /><glyph d="M82 330H160V600H82ZM82 -100H160V170H82Z" glyph-name="brokenbar" horiz-adv-x="242" unicode="&#166;" /><glyph d="M457 156H369C354 100 321 66 252 66C165 66 112 132 112 248C112 365 165 434 252 434C321 434 358 396 368 339H455C444 445 366 510 256 510C125 510 26 423 26 252C26 82 117 -10 248 -10C357 -10 437 49 457 156Z" glyph-name="c" horiz-adv-x="473" unicode="c" /><glyph d="M257 570 368 670H273L209 611L145 670H50L161 570Z" glyph-name="caron" horiz-adv-x="418" unicode="&#711;" /><glyph d="M457 156H369C354 100 321 66 252 66C165 66 112 132 112 248C112 365 165 434 252 434C321 434 358 396 368 339H455C444 445 366 510 256 510C125 510 26 423 26 252C26 82 117 -10 248 -10C357 -10 437 49 457 156ZM232 5 209 -65 226 -84C233 -82 243 -80 252 -80C277 -80 295 -91 295 -111C295 -132 277 -142 249 -142C224 -142 203 -135 188 -127L176 -160C195 -175 235 -187 263 -187C325 -187 357 -157 357 -110C357 -64 330 -36 286 -36C276 -36 262 -37 252 -40L267 5Z" glyph-name="ccedilla" horiz-adv-x="473" unicode="&#231;" /><glyph d="M106 5 83 -65 100 -84C107 -82 117 -80 126 -80C151 -80 169 -91 169 -111C169 -132 151 -142 123 -142C98 -142 77 -135 62 -127L50 -160C69 -175 109 -187 137 -187C199 -187 231 -157 231 -110C231 -64 204 -36 160 -36C150 -36 136 -37 126 -40L141 5Z" glyph-name="cedilla" horiz-adv-x="281" unicode="&#184;" /><glyph d="M156 -80H218L321 580H259ZM340 161C331 104 297 67 239 67C154 67 114 141 114 248C114 356 150 434 235 434C291 434 330 401 340 345H423C409 446 343 509 239 509C116 509 30 416 30 252C30 89 112 -9 235 -9C339 -9 409 56 425 161Z" glyph-name="cent" horiz-adv-x="440" unicode="&#162;" /><glyph d="M85 -25C99 -25 110 -14 110 0C110 14 99 25 85 25C72 25 60 14 60 0C60 -14 72 -25 85 -25Z" glyph-name="chart.dot" horiz-adv-x="170" /><glyph d="M283 113 159 328H407ZM282 -12C430 -12 545 102 545 250C545 398 430 512 282 512C134 512 20 398 20 250C20 102 134 -12 282 -12Z" glyph-name="circle.arrowdown" horiz-adv-x="565" /><glyph d="M282 -12C430 -12 545 102 545 250C545 398 430 512 282 512C134 512 20 398 20 250C20 102 134 -12 282 -12ZM282 387 406 172H158Z" glyph-name="circle.arrowup" horiz-adv-x="565" /><glyph d="M282 -12C430 -12 545 102 545 250C545 398 430 512 282 512C134 512 20 398 20 250C20 102 134 -12 282 -12ZM194 118V386H268C363 386 415 348 415 252C415 157 359 118 265 118ZM264 338H247V166H265C329 166 358 191 358 254C358 318 328 338 264 338Z" glyph-name="circle.d" horiz-adv-x="565" /><glyph d="M282 -12C430 -12 545 102 545 250C545 398 430 512 282 512C134 512 20 398 20 250C20 102 134 -12 282 -12ZM211 118V384H264V166H384V118Z" glyph-name="circle.l" horiz-adv-x="565" /><glyph d="M282 -12C430 -12 545 102 545 250C545 398 430 512 282 512C134 512 20 398 20 250C20 102 134 -12 282 -12ZM308 374 344 218 352 182H355L364 218L400 374H452L380 118H326L297 234L284 295H281L267 234L239 118H185L113 374H166L202 218L210 182H213L222 218L259 374Z" glyph-name="circle.w" horiz-adv-x="565" /><glyph d="M257 670H161L50 570H145L209 629L273 570H368Z" glyph-name="circumflex" horiz-adv-x="418" unicode="&#710;" /><glyph d="M70 120V0H190V120ZM70 370V250H190V370Z" glyph-name="colon" horiz-adv-x="260" unicode=":" /><glyph d="M111 0C111 -42 95 -62 55 -69V-113C122 -104 162 -62 162 14V114H55V0Z" glyph-name="comma" horiz-adv-x="217" unicode="," /><glyph d="M282 48C167 48 87 139 87 250C87 361 167 452 282 452C397 452 478 361 478 250C478 139 397 48 282 48ZM282 -12C430 -12 545 102 545 250C545 398 430 512 282 512C134 512 20 398 20 250C20 102 134 -12 282 -12ZM396 205H336C331 179 313 164 284 164C240 164 220 194 220 249C220 304 240 336 284 336C311 336 330 318 336 292H395C389 349 344 388 286 388C214 388 160 341 160 251C160 162 210 112 281 112C339 112 385 147 396 205Z" glyph-name="copyright" horiz-adv-x="565" unicode="&#169;" /><glyph d="M18 89 64 43 119 98C149 76 185 64 225 64C265 64 301 76 331 98L386 43L432 89L377 144C398 174 410 210 410 249C410 289 398 325 376 355L432 411L386 457L330 401C300 422 264 434 225 434C186 434 149 422 120 401L64 457L18 411L73 356C52 326 40 289 40 249C40 210 52 174 73 144ZM225 146C167 146 124 191 124 249C124 307 167 352 225 352C283 352 326 308 326 249C326 191 283 146 225 146Z" glyph-name="currency" horiz-adv-x="450" unicode="&#164;" /><glyph d="M52 0H178C339 0 436 80 436 250C436 421 346 500 184 500H52ZM180 428C303 428 353 377 353 254C353 132 305 72 182 72H134V428Z" glyph-name="d" horiz-adv-x="462" unicode="d" /><glyph d="M153 477C188 477 213 504 213 538C213 572 190 600 153 600C118 600 93 572 93 538C93 504 118 477 153 477ZM153 411C81 411 25 466 25 538C25 610 81 666 153 666C225 666 281 610 281 538C281 466 225 411 153 411Z" glyph-name="degree" horiz-adv-x="306" unicode="&#176;" /><glyph d="M50 670V574H146V670ZM215 670V574H311V670Z" glyph-name="dieresis" horiz-adv-x="361" unicode="&#168;" /><glyph d="M49 217H401V277H49ZM225 323C197 323 178 343 178 372C178 401 197 421 225 421C253 421 273 401 273 372C273 343 253 323 225 323ZM225 73C197 73 178 93 178 122C178 151 197 171 225 171C253 171 273 151 273 122C273 93 253 73 225 73Z" glyph-name="divide" horiz-adv-x="450" unicode="&#247;" /><glyph d="M252 203C300 189 329 173 329 136C329 84 284 63 228 63C154 63 121 96 113 147H35C40 52 123 -9 222 -9C324 -9 409 42 409 144C409 223 361 252 279 276L199 299C155 312 133 332 133 367C133 415 172 438 221 438C277 438 311 413 320 358H404C396 456 323 509 225 509C129 509 52 460 52 368C52 292 92 250 167 228ZM143 -80H204L307 580H246Z" glyph-name="dollar" horiz-adv-x="440" unicode="$" /><glyph d="M85 -25C99 -25 110 -14 110 0C110 14 99 25 85 25C72 25 60 14 60 0C60 -14 72 -25 85 -25Z" glyph-name="dot.000" horiz-adv-x="170" /><glyph d="M85 -18C99 -18 110 -7 110 7C110 21 99 32 85 32C72 32 60 21 60 7C60 -7 72 -18 85 -18Z" glyph-name="dot.001" horiz-adv-x="170" /><glyph d="M85 -11C99 -11 110 0 110 14C110 28 99 39 85 39C72 39 60 28 60 14C60 0 72 -11 85 -11Z" glyph-name="dot.002" horiz-adv-x="170" /><glyph d="M85 -4C99 -4 110 7 110 21C110 35 99 46 85 46C72 46 60 35 60 21C60 7 72 -4 85 -4Z" glyph-name="dot.003" horiz-adv-x="170" /><glyph d="M85 3C99 3 110 14 110 28C110 42 99 53 85 53C72 53 60 42 60 28C60 14 72 3 85 3Z" glyph-name="dot.004" horiz-adv-x="170" /><glyph d="M85 10C99 10 110 21 110 35C110 49 99 60 85 60C72 60 60 49 60 35C60 21 72 10 85 10Z" glyph-name="dot.005" horiz-adv-x="170" /><glyph d="M85 17C99 17 110 28 110 42C110 56 99 67 85 67C72 67 60 56 60 42C60 28 72 17 85 17Z" glyph-name="dot.006" horiz-adv-x="170" /><glyph d="M85 24C99 24 110 35 110 49C110 63 99 74 85 74C72 74 60 63 60 49C60 35 72 24 85 24Z" glyph-name="dot.007" horiz-adv-x="170" /><glyph d="M85 31C99 31 110 42 110 56C110 70 99 81 85 81C72 81 60 70 60 56C60 42 72 31 85 31Z" glyph-name="dot.008" horiz-adv-x="170" /><glyph d="M85 38C99 38 110 49 110 63C110 77 99 88 85 88C72 88 60 77 60 63C60 49 72 38 85 38Z" glyph-name="dot.009" horiz-adv-x="170" /><glyph d="M85 45C99 45 110 56 110 70C110 84 99 95 85 95C72 95 60 84 60 70C60 56 72 45 85 45Z" glyph-name="dot.010" horiz-adv-x="170" /><glyph d="M85 52C99 52 110 63 110 77C110 91 99 102 85 102C72 102 60 91 60 77C60 63 72 52 85 52Z" glyph-name="dot.011" horiz-adv-x="170" /><glyph d="M85 59C99 59 110 70 110 84C110 98 99 109 85 109C72 109 60 98 60 84C60 70 72 59 85 59Z" glyph-name="dot.012" horiz-adv-x="170" /><glyph d="M85 66C99 66 110 77 110 91C110 105 99 116 85 116C72 116 60 105 60 91C60 77 72 66 85 66Z" glyph-name="dot.013" horiz-adv-x="170" /><glyph d="M85 73C99 73 110 84 110 98C110 112 99 123 85 123C72 123 60 112 60 98C60 84 72 73 85 73Z" glyph-name="dot.014" horiz-adv-x="170" /><glyph d="M85 80C99 80 110 91 110 105C110 119 99 130 85 130C72 130 60 119 60 105C60 91 72 80 85 80Z" glyph-name="dot.015" horiz-adv-x="170" /><glyph d="M85 87C99 87 110 98 110 112C110 126 99 137 85 137C72 137 60 126 60 112C60 98 72 87 85 87Z" glyph-name="dot.016" horiz-adv-x="170" /><glyph d="M85 94C99 94 110 105 110 119C110 133 99 144 85 144C72 144 60 133 60 119C60 105 72 94 85 94Z" glyph-name="dot.017" horiz-adv-x="170" /><glyph d="M85 101C99 101 110 112 110 126C110 140 99 151 85 151C72 151 60 140 60 126C60 112 72 101 85 101Z" glyph-name="dot.018" horiz-adv-x="170" /><glyph d="M85 108C99 108 110 119 110 133C110 147 99 158 85 158C72 158 60 147 60 133C60 119 72 108 85 108Z" glyph-name="dot.019" horiz-adv-x="170" /><glyph d="M85 115C99 115 110 126 110 140C110 154 99 165 85 165C72 165 60 154 60 140C60 126 72 115 85 115Z" glyph-name="dot.020" horiz-adv-x="170" /><glyph d="M85 122C99 122 110 133 110 147C110 161 99 172 85 172C72 172 60 161 60 147C60 133 72 122 85 122Z" glyph-name="dot.021" horiz-adv-x="170" /><glyph d="M85 129C99 129 110 140 110 154C110 168 99 179 85 179C72 179 60 168 60 154C60 140 72 129 85 129Z" glyph-name="dot.022" horiz-adv-x="170" /><glyph d="M85 136C99 136 110 147 110 161C110 175 99 186 85 186C72 186 60 175 60 161C60 147 72 136 85 136Z" glyph-name="dot.023" horiz-adv-x="170" /><glyph d="M85 143C99 143 110 154 110 168C110 182 99 193 85 193C72 193 60 182 60 168C60 154 72 143 85 143Z" glyph-name="dot.024" horiz-adv-x="170" /><glyph d="M85 150C99 150 110 161 110 175C110 189 99 200 85 200C72 200 60 189 60 175C60 161 72 150 85 150Z" glyph-name="dot.025" horiz-adv-x="170" /><glyph d="M85 157C99 157 110 168 110 182C110 196 99 207 85 207C72 207 60 196 60 182C60 168 72 157 85 157Z" glyph-name="dot.026" horiz-adv-x="170" /><glyph d="M85 164C99 164 110 175 110 189C110 203 99 214 85 214C72 214 60 203 60 189C60 175 72 164 85 164Z" glyph-name="dot.027" horiz-adv-x="170" /><glyph d="M85 171C99 171 110 182 110 196C110 210 99 221 85 221C72 221 60 210 60 196C60 182 72 171 85 171Z" glyph-name="dot.028" horiz-adv-x="170" /><glyph d="M85 178C99 178 110 189 110 203C110 217 99 228 85 228C72 228 60 217 60 203C60 189 72 178 85 178Z" glyph-name="dot.029" horiz-adv-x="170" /><glyph d="M85 185C99 185 110 196 110 210C110 224 99 235 85 235C72 235 60 224 60 210C60 196 72 185 85 185Z" glyph-name="dot.030" horiz-adv-x="170" /><glyph d="M85 192C99 192 110 203 110 217C110 231 99 242 85 242C72 242 60 231 60 217C60 203 72 192 85 192Z" glyph-name="dot.031" horiz-adv-x="170" /><glyph d="M85 199C99 199 110 210 110 224C110 238 99 249 85 249C72 249 60 238 60 224C60 210 72 199 85 199Z" glyph-name="dot.032" horiz-adv-x="170" /><glyph d="M85 206C99 206 110 217 110 231C110 245 99 256 85 256C72 256 60 245 60 231C60 217 72 206 85 206Z" glyph-name="dot.033" horiz-adv-x="170" /><glyph d="M85 213C99 213 110 224 110 238C110 252 99 263 85 263C72 263 60 252 60 238C60 224 72 213 85 213Z" glyph-name="dot.034" horiz-adv-x="170" /><glyph d="M85 220C99 220 110 231 110 245C110 259 99 270 85 270C72 270 60 259 60 245C60 231 72 220 85 220Z" glyph-name="dot.035" horiz-adv-x="170" /><glyph d="M85 227C99 227 110 238 110 252C110 266 99 277 85 277C72 277 60 266 60 252C60 238 72 227 85 227Z" glyph-name="dot.036" horiz-adv-x="170" /><glyph d="M85 234C99 234 110 245 110 259C110 273 99 284 85 284C72 284 60 273 60 259C60 245 72 234 85 234Z" glyph-name="dot.037" horiz-adv-x="170" /><glyph d="M85 241C99 241 110 252 110 266C110 280 99 291 85 291C72 291 60 280 60 266C60 252 72 241 85 241Z" glyph-name="dot.038" horiz-adv-x="170" /><glyph d="M85 248C99 248 110 259 110 273C110 287 99 298 85 298C72 298 60 287 60 273C60 259 72 248 85 248Z" glyph-name="dot.039" horiz-adv-x="170" /><glyph d="M85 255C99 255 110 266 110 280C110 294 99 305 85 305C72 305 60 294 60 280C60 266 72 255 85 255Z" glyph-name="dot.040" horiz-adv-x="170" /><glyph d="M85 262C99 262 110 273 110 287C110 301 99 312 85 312C72 312 60 301 60 287C60 273 72 262 85 262Z" glyph-name="dot.041" horiz-adv-x="170" /><glyph d="M85 269C99 269 110 280 110 294C110 308 99 319 85 319C72 319 60 308 60 294C60 280 72 269 85 269Z" glyph-name="dot.042" horiz-adv-x="170" /><glyph d="M85 276C99 276 110 287 110 301C110 315 99 326 85 326C72 326 60 315 60 301C60 287 72 276 85 276Z" glyph-name="dot.043" horiz-adv-x="170" /><glyph d="M85 283C99 283 110 294 110 308C110 322 99 333 85 333C72 333 60 322 60 308C60 294 72 283 85 283Z" glyph-name="dot.044" horiz-adv-x="170" /><glyph d="M85 290C99 290 110 301 110 315C110 329 99 340 85 340C72 340 60 329 60 315C60 301 72 290 85 290Z" glyph-name="dot.045" horiz-adv-x="170" /><glyph d="M85 297C99 297 110 308 110 322C110 336 99 347 85 347C72 347 60 336 60 322C60 308 72 297 85 297Z" glyph-name="dot.046" horiz-adv-x="170" /><glyph d="M85 304C99 304 110 315 110 329C110 343 99 354 85 354C72 354 60 343 60 329C60 315 72 304 85 304Z" glyph-name="dot.047" horiz-adv-x="170" /><glyph d="M85 311C99 311 110 322 110 336C110 350 99 361 85 361C72 361 60 350 60 336C60 322 72 311 85 311Z" glyph-name="dot.048" horiz-adv-x="170" /><glyph d="M85 318C99 318 110 329 110 343C110 357 99 368 85 368C72 368 60 357 60 343C60 329 72 318 85 318Z" glyph-name="dot.049" horiz-adv-x="170" /><glyph d="M85 325C99 325 110 336 110 350C110 364 99 375 85 375C72 375 60 364 60 350C60 336 72 325 85 325Z" glyph-name="dot.050" horiz-adv-x="170" /><glyph d="M85 332C99 332 110 343 110 357C110 371 99 382 85 382C72 382 60 371 60 357C60 343 72 332 85 332Z" glyph-name="dot.051" horiz-adv-x="170" /><glyph d="M85 339C99 339 110 350 110 364C110 378 99 389 85 389C72 389 60 378 60 364C60 350 72 339 85 339Z" glyph-name="dot.052" horiz-adv-x="170" /><glyph d="M85 346C99 346 110 357 110 371C110 385 99 396 85 396C72 396 60 385 60 371C60 357 72 346 85 346Z" glyph-name="dot.053" horiz-adv-x="170" /><glyph d="M85 353C99 353 110 364 110 378C110 392 99 403 85 403C72 403 60 392 60 378C60 364 72 353 85 353Z" glyph-name="dot.054" horiz-adv-x="170" /><glyph d="M85 360C99 360 110 371 110 385C110 399 99 410 85 410C72 410 60 399 60 385C60 371 72 360 85 360Z" glyph-name="dot.055" horiz-adv-x="170" /><glyph d="M85 367C99 367 110 378 110 392C110 406 99 417 85 417C72 417 60 406 60 392C60 378 72 367 85 367Z" glyph-name="dot.056" horiz-adv-x="170" /><glyph d="M85 374C99 374 110 385 110 399C110 413 99 424 85 424C72 424 60 413 60 399C60 385 72 374 85 374Z" glyph-name="dot.057" horiz-adv-x="170" /><glyph d="M85 381C99 381 110 392 110 406C110 420 99 431 85 431C72 431 60 420 60 406C60 392 72 381 85 381Z" glyph-name="dot.058" horiz-adv-x="170" /><glyph d="M85 388C99 388 110 399 110 413C110 427 99 438 85 438C72 438 60 427 60 413C60 399 72 388 85 388Z" glyph-name="dot.059" horiz-adv-x="170" /><glyph d="M85 395C99 395 110 406 110 420C110 434 99 445 85 445C72 445 60 434 60 420C60 406 72 395 85 395Z" glyph-name="dot.060" horiz-adv-x="170" /><glyph d="M85 402C99 402 110 413 110 427C110 441 99 452 85 452C72 452 60 441 60 427C60 413 72 402 85 402Z" glyph-name="dot.061" horiz-adv-x="170" /><glyph d="M85 409C99 409 110 420 110 434C110 448 99 459 85 459C72 459 60 448 60 434C60 420 72 409 85 409Z" glyph-name="dot.062" horiz-adv-x="170" /><glyph d="M85 416C99 416 110 427 110 441C110 455 99 466 85 466C72 466 60 455 60 441C60 427 72 416 85 416Z" glyph-name="dot.063" horiz-adv-x="170" /><glyph d="M85 423C99 423 110 434 110 448C110 462 99 473 85 473C72 473 60 462 60 448C60 434 72 423 85 423Z" glyph-name="dot.064" horiz-adv-x="170" /><glyph d="M85 430C99 430 110 441 110 455C110 469 99 480 85 480C72 480 60 469 60 455C60 441 72 430 85 430Z" glyph-name="dot.065" horiz-adv-x="170" /><glyph d="M85 437C99 437 110 448 110 462C110 476 99 487 85 487C72 487 60 476 60 462C60 448 72 437 85 437Z" glyph-name="dot.066" horiz-adv-x="170" /><glyph d="M85 444C99 444 110 455 110 469C110 483 99 494 85 494C72 494 60 483 60 469C60 455 72 444 85 444Z" glyph-name="dot.067" horiz-adv-x="170" /><glyph d="M85 451C99 451 110 462 110 476C110 490 99 501 85 501C72 501 60 490 60 476C60 462 72 451 85 451Z" glyph-name="dot.068" horiz-adv-x="170" /><glyph d="M85 458C99 458 110 469 110 483C110 497 99 508 85 508C72 508 60 497 60 483C60 469 72 458 85 458Z" glyph-name="dot.069" horiz-adv-x="170" /><glyph d="M85 465C99 465 110 476 110 490C110 504 99 515 85 515C72 515 60 504 60 490C60 476 72 465 85 465Z" glyph-name="dot.070" horiz-adv-x="170" /><glyph d="M85 472C99 472 110 483 110 497C110 511 99 522 85 522C72 522 60 511 60 497C60 483 72 472 85 472Z" glyph-name="dot.071" horiz-adv-x="170" /><glyph d="M85 479C99 479 110 490 110 504C110 518 99 529 85 529C72 529 60 518 60 504C60 490 72 479 85 479Z" glyph-name="dot.072" horiz-adv-x="170" /><glyph d="M85 486C99 486 110 497 110 511C110 525 99 536 85 536C72 536 60 525 60 511C60 497 72 486 85 486Z" glyph-name="dot.073" horiz-adv-x="170" /><glyph d="M85 493C99 493 110 504 110 518C110 532 99 543 85 543C72 543 60 532 60 518C60 504 72 493 85 493Z" glyph-name="dot.074" horiz-adv-x="170" /><glyph d="M85 500C99 500 110 511 110 525C110 539 99 550 85 550C72 550 60 539 60 525C60 511 72 500 85 500Z" glyph-name="dot.075" horiz-adv-x="170" /><glyph d="M85 507C99 507 110 518 110 532C110 546 99 557 85 557C72 557 60 546 60 532C60 518 72 507 85 507Z" glyph-name="dot.076" horiz-adv-x="170" /><glyph d="M85 514C99 514 110 525 110 539C110 553 99 564 85 564C72 564 60 553 60 539C60 525 72 514 85 514Z" glyph-name="dot.077" horiz-adv-x="170" /><glyph d="M85 521C99 521 110 532 110 546C110 560 99 571 85 571C72 571 60 560 60 546C60 532 72 521 85 521Z" glyph-name="dot.078" horiz-adv-x="170" /><glyph d="M85 528C99 528 110 539 110 553C110 567 99 578 85 578C72 578 60 567 60 553C60 539 72 528 85 528Z" glyph-name="dot.079" horiz-adv-x="170" /><glyph d="M85 535C99 535 110 546 110 560C110 574 99 585 85 585C72 585 60 574 60 560C60 546 72 535 85 535Z" glyph-name="dot.080" horiz-adv-x="170" /><glyph d="M85 542C99 542 110 553 110 567C110 581 99 592 85 592C72 592 60 581 60 567C60 553 72 542 85 542Z" glyph-name="dot.081" horiz-adv-x="170" /><glyph d="M85 549C99 549 110 560 110 574C110 588 99 599 85 599C72 599 60 588 60 574C60 560 72 549 85 549Z" glyph-name="dot.082" horiz-adv-x="170" /><glyph d="M85 556C99 556 110 567 110 581C110 595 99 606 85 606C72 606 60 595 60 581C60 567 72 556 85 556Z" glyph-name="dot.083" horiz-adv-x="170" /><glyph d="M85 563C99 563 110 574 110 588C110 602 99 613 85 613C72 613 60 602 60 588C60 574 72 563 85 563Z" glyph-name="dot.084" horiz-adv-x="170" /><glyph d="M85 570C99 570 110 581 110 595C110 609 99 620 85 620C72 620 60 609 60 595C60 581 72 570 85 570Z" glyph-name="dot.085" horiz-adv-x="170" /><glyph d="M85 577C99 577 110 588 110 602C110 616 99 627 85 627C72 627 60 616 60 602C60 588 72 577 85 577Z" glyph-name="dot.086" horiz-adv-x="170" /><glyph d="M85 584C99 584 110 595 110 609C110 623 99 634 85 634C72 634 60 623 60 609C60 595 72 584 85 584Z" glyph-name="dot.087" horiz-adv-x="170" /><glyph d="M85 591C99 591 110 602 110 616C110 630 99 641 85 641C72 641 60 630 60 616C60 602 72 591 85 591Z" glyph-name="dot.088" horiz-adv-x="170" /><glyph d="M85 598C99 598 110 609 110 623C110 637 99 648 85 648C72 648 60 637 60 623C60 609 72 598 85 598Z" glyph-name="dot.089" horiz-adv-x="170" /><glyph d="M85 605C99 605 110 616 110 630C110 644 99 655 85 655C72 655 60 644 60 630C60 616 72 605 85 605Z" glyph-name="dot.090" horiz-adv-x="170" /><glyph d="M85 612C99 612 110 623 110 637C110 651 99 662 85 662C72 662 60 651 60 637C60 623 72 612 85 612Z" glyph-name="dot.091" horiz-adv-x="170" /><glyph d="M85 619C99 619 110 630 110 644C110 658 99 669 85 669C72 669 60 658 60 644C60 630 72 619 85 619Z" glyph-name="dot.092" horiz-adv-x="170" /><glyph d="M85 626C99 626 110 637 110 651C110 665 99 676 85 676C72 676 60 665 60 651C60 637 72 626 85 626Z" glyph-name="dot.093" horiz-adv-x="170" /><glyph d="M85 633C99 633 110 644 110 658C110 672 99 683 85 683C72 683 60 672 60 658C60 644 72 633 85 633Z" glyph-name="dot.094" horiz-adv-x="170" /><glyph d="M85 640C99 640 110 651 110 665C110 679 99 690 85 690C72 690 60 679 60 665C60 651 72 640 85 640Z" glyph-name="dot.095" horiz-adv-x="170" /><glyph d="M85 647C99 647 110 658 110 672C110 686 99 697 85 697C72 697 60 686 60 672C60 658 72 647 85 647Z" glyph-name="dot.096" horiz-adv-x="170" /><glyph d="M85 654C99 654 110 665 110 679C110 693 99 704 85 704C72 704 60 693 60 679C60 665 72 654 85 654Z" glyph-name="dot.097" horiz-adv-x="170" /><glyph d="M85 661C99 661 110 672 110 686C110 700 99 711 85 711C72 711 60 700 60 686C60 672 72 661 85 661Z" glyph-name="dot.098" horiz-adv-x="170" /><glyph d="M85 668C99 668 110 679 110 693C110 707 99 718 85 718C72 718 60 707 60 693C60 679 72 668 85 668Z" glyph-name="dot.099" horiz-adv-x="170" /><glyph d="M85 675C99 675 110 686 110 700C110 714 99 725 85 725C72 725 60 714 60 700C60 686 72 675 85 675Z" glyph-name="dot.100" horiz-adv-x="170" /><glyph d="M50 670V570H150V670Z" glyph-name="dotaccent" horiz-adv-x="200" unicode="&#729;" /><glyph d="M52 0H135V500H52Z" glyph-name="dotlessi" horiz-adv-x="187" unicode="&#305;" /><glyph d="M52 0H361V72H134V219H316V291H134V428H355V500H52Z" glyph-name="e" horiz-adv-x="388" unicode="e" /><glyph d="M52 0H361V72H134V219H316V291H134V428H355V500H52ZM223 560 327 670H223L156 560Z" glyph-name="eacute" horiz-adv-x="388" unicode="&#233;" /><glyph d="M52 0H361V72H134V219H316V291H134V428H355V500H52ZM252 670H156L45 570H140L204 629L268 570H363Z" glyph-name="ecircumflex" horiz-adv-x="388" unicode="&#234;" /><glyph d="M52 0H361V72H134V219H316V291H134V428H355V500H52ZM71 670V574H167V670ZM236 670V574H332V670Z" glyph-name="edieresis" horiz-adv-x="388" unicode="&#235;" /><glyph d="M52 0H361V72H134V219H316V291H134V428H355V500H52ZM179 560H246L179 670H75Z" glyph-name="egrave" horiz-adv-x="388" unicode="&#232;" /><glyph d="M418 141C418 194 381 237 335 254V256C371 276 400 316 400 364C400 452 331 510 226 510C121 510 50 456 50 368C50 319 80 277 117 256V254C70 236 32 194 32 139C32 40 113 -10 227 -10C341 -10 418 42 418 141ZM226 282C171 282 133 311 133 360C133 409 169 440 224 440C279 440 317 411 317 362C317 313 281 282 226 282ZM224 223C290 223 331 193 331 142C331 91 292 59 226 59C160 59 119 89 119 140C119 191 158 223 224 223Z" glyph-name="eight" horiz-adv-x="450" unicode="8" /><glyph d="M55 105V0H160V105ZM245 105V0H350V105ZM435 105V0H540V105Z" glyph-name="ellipsis" horiz-adv-x="595" unicode="&#8230;" /><glyph d="M43 218H577V276H43Z" glyph-name="emdash" horiz-adv-x="620" unicode="&#8212;" /><glyph d="M44 217H396V277H44Z" glyph-name="endash" horiz-adv-x="440" unicode="&#8211;" /><glyph d="M65 144H385V209H65ZM65 286H385V351H65Z" glyph-name="equal" horiz-adv-x="450" unicode="=" /><glyph d="M25 225H277V285H25ZM77 0H203C364 0 461 80 461 250C461 421 371 500 209 500H77ZM205 428C328 428 378 377 378 254C378 132 330 72 207 72H159V428Z" glyph-name="eth" horiz-adv-x="487" unicode="&#240;" /><glyph d="M61 100V0H163V100ZM51 500 81 150H143L173 500Z" glyph-name="exclam" horiz-adv-x="224" unicode="!" /><glyph d="M61 400V500H163V400ZM51 0 81 350H143L173 0Z" glyph-name="exclamdown" horiz-adv-x="224" unicode="&#161;" /><glyph d="M52 0H134V210H320V282H134V428H359V500H52Z" glyph-name="f" horiz-adv-x="374" unicode="f" /><glyph d="M55 216H127C147 250 177 271 225 271C296 271 329 226 329 167C329 108 292 62 221 62C166 62 128 91 120 134H40C43 103 58 70 74 50C104 13 153 -10 218 -10C331 -10 412 60 412 170C412 278 338 339 237 339C197 339 162 327 134 303H132L142 428H388V500H77Z" glyph-name="five" horiz-adv-x="450" unicode="5" /><glyph d="M27 100H268V0H347V100H424V169H347V502H259L27 160ZM108 169 269 411H271C269 378 268 334 268 304V169Z" glyph-name="four" horiz-adv-x="450" unicode="4" /><glyph d="M20 280H154V223H218V280H261V334H218V500H143L20 329ZM80 334 157 443H158L154 334Z" glyph-name="foursuperscript" horiz-adv-x="283" /><glyph d="M472 241V252H239V180H383C379 116 338 66 255 66C168 66 112 132 112 248C112 365 170 434 257 434C324 434 362 403 373 349H459C447 451 368 510 261 510C130 510 26 423 26 252C26 82 120 -10 251 -10C398 -10 472 81 472 241Z" glyph-name="g" horiz-adv-x="497" unicode="g" /><glyph d="M199 0H235C346 0 410 53 410 146C410 205 381 240 332 263V265C367 283 394 320 394 368C394 455 330 500 229 500C125 500 51 451 51 357V0H133V352C133 404 168 428 221 428C272 428 309 410 309 363C309 317 278 294 221 294H199V225H225C293 225 325 201 325 150C325 99 293 73 225 73H199Z" glyph-name="germandbls" horiz-adv-x="437" unicode="&#223;" /><glyph d="M154 560H221L154 670H50Z" glyph-name="grave" horiz-adv-x="271" unicode="`" /><glyph d="M393 206 53 35V126L322 250L53 374V465L393 294Z" glyph-name="greater" horiz-adv-x="450" unicode="&gt;" /><glyph d="M131 400H220L126 250L220 100H131L32 250ZM281 400H370L276 250L370 100H281L182 250Z" glyph-name="guillemetleft" horiz-adv-x="406" unicode="&#171;" /><glyph d="M125 400H36L130 250L36 100H125L224 250ZM275 400H186L280 250L186 100H275L374 250Z" glyph-name="guillemetright" horiz-adv-x="406" unicode="&#187;" /><glyph d="M131 400H220L126 250L220 100H131L32 250Z" glyph-name="guilsinglleft" horiz-adv-x="256" unicode="&#8249;" /><glyph d="M125 400H36L130 250L36 100H125L224 250Z" glyph-name="guilsinglright" horiz-adv-x="256" unicode="&#8250;" /><glyph d="M52 0H134V218H363V0H445V500H363V290H134V500H52Z" glyph-name="h" horiz-adv-x="497" unicode="h" /><glyph d="M123 560 231 670H135L50 560ZM266 560 374 670H278L193 560Z" glyph-name="hungarumlaut" horiz-adv-x="424" unicode="&#733;" /><glyph d="M45 213H295V285H45Z" glyph-name="hyphen" horiz-adv-x="340" unicode="-" /><glyph d="M52 0H135V500H52Z" glyph-name="i" horiz-adv-x="187" unicode="i" /><glyph d="M52 0H135V500H52ZM127 560 231 670H127L60 560Z" glyph-name="iacute" horiz-adv-x="187" unicode="&#237;" /><glyph d="M52 0H135V500H52ZM142 670H46L-65 570H30L94 629L158 570H253Z" glyph-name="icircumflex" horiz-adv-x="187" unicode="&#238;" /><glyph d="M52 0H135V500H52ZM-37 670V574H59V670ZM128 670V574H224V670Z" glyph-name="idieresis" horiz-adv-x="187" unicode="&#239;" /><glyph d="M52 0H135V500H52ZM60 560H127L60 670H-44Z" glyph-name="igrave" horiz-adv-x="187" unicode="&#236;" /><glyph d="M133 161C133 94 116 66 57 66C45 66 24 67 10 69V-7C25 -9 44 -10 59 -10C170 -10 216 28 216 145V500H133Z" glyph-name="j" horiz-adv-x="266" unicode="j" /><glyph d="M56 0H139V140L214 229L361 0H460L268 292L446 500H349L139 251V500H56Z" glyph-name="k" horiz-adv-x="456" unicode="k" /><glyph d="M52 0H361V73H134V500H52Z" glyph-name="l" horiz-adv-x="366" unicode="l" /><glyph d="M57 206 397 35V126L128 250L397 374V465L57 294Z" glyph-name="less" horiz-adv-x="450" unicode="&lt;" /><glyph d="M85 -13H435V13H85ZM85 -25C99 -25 110 -14 110 0C110 14 99 25 85 25C72 25 60 14 60 0C60 -14 72 -25 85 -25Z" glyph-name="line.000.000" horiz-adv-x="350" /><glyph d="M85 -13 435 -6V20L85 13ZM85 -25C99 -25 110 -14 110 0C110 14 99 25 85 25C72 25 60 14 60 0C60 -14 72 -25 85 -25Z" glyph-name="line.000.001" horiz-adv-x="350" /><glyph d="M85 -13 435 1V27L85 13ZM85 -25C99 -25 110 -14 110 0C110 14 99 25 85 25C72 25 60 14 60 0C60 -14 72 -25 85 -25Z" glyph-name="line.000.002" horiz-adv-x="350" /><glyph d="M85 -13 435 8V34L85 13ZM85 -25C99 -25 110 -14 110 0C110 14 99 25 85 25C72 25 60 14 60 0C60 -14 72 -25 85 -25Z" glyph-name="line.000.003" horiz-adv-x="350" /><glyph d="M85 -13 435 15V41L85 13ZM85 -25C99 -25 110 -14 110 0C110 14 99 25 85 25C72 25 60 14 60 0C60 -14 72 -25 85 -25Z" glyph-name="line.000.004" horiz-adv-x="350" /><glyph d="M85 -13 435 22V48L85 13ZM85 -25C99 -25 110 -14 110 0C110 14 99 25 85 25C72 25 60 14 60 0C60 -14 72 -25 85 -25Z" glyph-name="line.000.005" horiz-adv-x="350" /><glyph d="M85 -13 435 29V55L85 13ZM85 -25C99 -25 110 -14 110 0C110 14 99 25 85 25C72 25 60 14 60 0C60 -14 72 -25 85 -25Z" glyph-name="line.000.006" horiz-adv-x="350" /><glyph d="M85 -13 435 36V62L85 13ZM85 -25C99 -25 110 -14 110 0C110 14 99 25 85 25C72 25 60 14 60 0C60 -14 72 -25 85 -25Z" glyph-name="line.000.007" horiz-adv-x="350" /><glyph d="M85 -13 435 43V69L85 13ZM85 -25C99 -25 110 -14 110 0C110 14 99 25 85 25C72 25 60 14 60 0C60 -14 72 -25 85 -25Z" glyph-name="line.000.008" horiz-adv-x="350" /><glyph d="M85 -13 435 50V76L85 13ZM85 -25C99 -25 110 -14 110 0C110 14 99 25 85 25C72 25 60 14 60 0C60 -14 72 -25 85 -25Z" glyph-name="line.000.009" horiz-adv-x="350" /><glyph d="M85 -14 435 56V84L85 14ZM85 -25C99 -25 110 -14 110 0C110 14 99 25 85 25C72 25 60 14 60 0C60 -14 72 -25 85 -25Z" glyph-name="line.000.010" horiz-adv-x="350" /><glyph d="M85 -14 435 63V91L85 14ZM85 -25C99 -25 110 -14 110 0C110 14 99 25 85 25C72 25 60 14 60 0C60 -14 72 -25 85 -25Z" glyph-name="line.000.011" horiz-adv-x="350" /><glyph d="M85 -14 435 70V98L85 14ZM85 -25C99 -25 110 -14 110 0C110 14 99 25 85 25C72 25 60 14 60 0C60 -14 72 -25 85 -25Z" glyph-name="line.000.012" horiz-adv-x="350" /><glyph d="M85 -14 435 77V105L85 14ZM85 -25C99 -25 110 -14 110 0C110 14 99 25 85 25C72 25 60 14 60 0C60 -14 72 -25 85 -25Z" glyph-name="line.000.013" horiz-adv-x="350" /><glyph d="M85 -14 435 84V112L85 14ZM85 -25C99 -25 110 -14 110 0C110 14 99 25 85 25C72 25 60 14 60 0C60 -14 72 -25 85 -25Z" glyph-name="line.000.014" horiz-adv-x="350" /><glyph d="M85 -14 435 91V119L85 14ZM85 -25C99 -25 110 -14 110 0C110 14 99 25 85 25C72 25 60 14 60 0C60 -14 72 -25 85 -25Z" glyph-name="line.000.015" horiz-adv-x="350" /><glyph d="M85 -14 435 98V126L85 14ZM85 -25C99 -25 110 -14 110 0C110 14 99 25 85 25C72 25 60 14 60 0C60 -14 72 -25 85 -25Z" glyph-name="line.000.016" horiz-adv-x="350" /><glyph d="M85 -14 435 105V133L85 14ZM85 -25C99 -25 110 -14 110 0C110 14 99 25 85 25C72 25 60 14 60 0C60 -14 72 -25 85 -25Z" glyph-name="line.000.017" horiz-adv-x="350" /><glyph d="M85 -14 435 112V140L85 14ZM85 -25C99 -25 110 -14 110 0C110 14 99 25 85 25C72 25 60 14 60 0C60 -14 72 -25 85 -25Z" glyph-name="line.000.018" horiz-adv-x="350" /><glyph d="M85 -14 435 119V147L85 14ZM85 -25C99 -25 110 -14 110 0C110 14 99 25 85 25C72 25 60 14 60 0C60 -14 72 -25 85 -25Z" glyph-name="line.000.019" horiz-adv-x="350" /><glyph d="M85 -14 435 126V154L85 14ZM85 -25C99 -25 110 -14 110 0C110 14 99 25 85 25C72 25 60 14 60 0C60 -14 72 -25 85 -25Z" glyph-name="line.000.020" horiz-adv-x="350" /><glyph d="M85 -14 435 133V161L85 14ZM85 -25C99 -25 110 -14 110 0C110 14 99 25 85 25C72 25 60 14 60 0C60 -14 72 -25 85 -25Z" glyph-name="line.000.021" horiz-adv-x="350" /><glyph d="M85 -14 435 140V168L85 14ZM85 -25C99 -25 110 -14 110 0C110 14 99 25 85 25C72 25 60 14 60 0C60 -14 72 -25 85 -25Z" glyph-name="line.000.022" horiz-adv-x="350" /><glyph d="M85 -14 435 147V175L85 14ZM85 -25C99 -25 110 -14 110 0C110 14 99 25 85 25C72 25 60 14 60 0C60 -14 72 -25 85 -25Z" glyph-name="line.000.023" horiz-adv-x="350" /><glyph d="M85 -14 435 154V182L85 14ZM85 -25C99 -25 110 -14 110 0C110 14 99 25 85 25C72 25 60 14 60 0C60 -14 72 -25 85 -25Z" glyph-name="line.000.024" horiz-adv-x="350" /><glyph d="M85 -15 435 160V190L85 15ZM85 -25C99 -25 110 -14 110 0C110 14 99 25 85 25C72 25 60 14 60 0C60 -14 72 -25 85 -25Z" glyph-name="line.000.025" horiz-adv-x="350" /><glyph d="M85 -15 435 167V197L85 15ZM85 -25C99 -25 110 -14 110 0C110 14 99 25 85 25C72 25 60 14 60 0C60 -14 72 -25 85 -25Z" glyph-name="line.000.026" horiz-adv-x="350" /><glyph d="M85 -15 435 174V204L85 15ZM85 -25C99 -25 110 -14 110 0C110 14 99 25 85 25C72 25 60 14 60 0C60 -14 72 -25 85 -25Z" glyph-name="line.000.027" horiz-adv-x="350" /><glyph d="M85 -15 435 181V211L85 15ZM85 -25C99 -25 110 -14 110 0C110 14 99 25 85 25C72 25 60 14 60 0C60 -14 72 -25 85 -25Z" glyph-name="line.000.028" horiz-adv-x="350" /><glyph d="M85 -15 435 188V218L85 15ZM85 -25C99 -25 110 -14 110 0C110 14 99 25 85 25C72 25 60 14 60 0C60 -14 72 -25 85 -25Z" glyph-name="line.000.029" horiz-adv-x="350" /><glyph d="M85 -15 435 195V225L85 15ZM85 -25C99 -25 110 -14 110 0C110 14 99 25 85 25C72 25 60 14 60 0C60 -14 72 -25 85 -25Z" glyph-name="line.000.030" horiz-adv-x="350" /><glyph d="M85 -15 435 202V232L85 15ZM85 -25C99 -25 110 -14 110 0C110 14 99 25 85 25C72 25 60 14 60 0C60 -14 72 -25 85 -25Z" glyph-name="line.000.031" horiz-adv-x="350" /><glyph d="M85 -15 435 209V239L85 15ZM85 -25C99 -25 110 -14 110 0C110 14 99 25 85 25C72 25 60 14 60 0C60 -14 72 -25 85 -25Z" glyph-name="line.000.032" horiz-adv-x="350" /><glyph d="M85 -15 435 216V246L85 15ZM85 -25C99 -25 110 -14 110 0C110 14 99 25 85 25C72 25 60 14 60 0C60 -14 72 -25 85 -25Z" glyph-name="line.000.033" horiz-adv-x="350" /><glyph d="M85 -15 435 223V253L85 15ZM85 -25C99 -25 110 -14 110 0C110 14 99 25 85 25C72 25 60 14 60 0C60 -14 72 -25 85 -25Z" glyph-name="line.000.034" horiz-adv-x="350" /><glyph d="M85 -16 435 229V261L85 16ZM85 -25C99 -25 110 -14 110 0C110 14 99 25 85 25C72 25 60 14 60 0C60 -14 72 -25 85 -25Z" glyph-name="line.000.035" horiz-adv-x="350" /><glyph d="M85 -16 435 236V268L85 16ZM85 -25C99 -25 110 -14 110 0C110 14 99 25 85 25C72 25 60 14 60 0C60 -14 72 -25 85 -25Z" glyph-name="line.000.036" horiz-adv-x="350" /><glyph d="M85 -16 435 243V275L85 16ZM85 -25C99 -25 110 -14 110 0C110 14 99 25 85 25C72 25 60 14 60 0C60 -14 72 -25 85 -25Z" glyph-name="line.000.037" horiz-adv-x="350" /><glyph d="M85 -16 435 250V282L85 16ZM85 -25C99 -25 110 -14 110 0C110 14 99 25 85 25C72 25 60 14 60 0C60 -14 72 -25 85 -25Z" glyph-name="line.000.038" horiz-adv-x="350" /><glyph d="M85 -16 435 257V289L85 16ZM85 -25C99 -25 110 -14 110 0C110 14 99 25 85 25C72 25 60 14 60 0C60 -14 72 -25 85 -25Z" glyph-name="line.000.039" horiz-adv-x="350" /><glyph d="M85 -17 435 263V297L85 17ZM85 -25C99 -25 110 -14 110 0C110 14 99 25 85 25C72 25 60 14 60 0C60 -14 72 -25 85 -25Z" glyph-name="line.000.040" horiz-adv-x="350" /><glyph d="M85 -17 435 270V304L85 17ZM85 -25C99 -25 110 -14 110 0C110 14 99 25 85 25C72 25 60 14 60 0C60 -14 72 -25 85 -25Z" glyph-name="line.000.041" horiz-adv-x="350" /><glyph d="M85 -17 435 277V311L85 17ZM85 -25C99 -25 110 -14 110 0C110 14 99 25 85 25C72 25 60 14 60 0C60 -14 72 -25 85 -25Z" glyph-name="line.000.042" horiz-adv-x="350" /><glyph d="M85 -17 435 284V318L85 17ZM85 -25C99 -25 110 -14 110 0C110 14 99 25 85 25C72 25 60 14 60 0C60 -14 72 -25 85 -25Z" glyph-name="line.000.043" horiz-adv-x="350" /><glyph d="M85 -17 435 291V325L85 17ZM85 -25C99 -25 110 -14 110 0C110 14 99 25 85 25C72 25 60 14 60 0C60 -14 72 -25 85 -25Z" glyph-name="line.000.044" horiz-adv-x="350" /><glyph d="M85 -18 435 297V333L85 18ZM85 -25C99 -25 110 -14 110 0C110 14 99 25 85 25C72 25 60 14 60 0C60 -14 72 -25 85 -25Z" glyph-name="line.000.045" horiz-adv-x="350" /><glyph d="M85 -18 435 304V340L85 18ZM85 -25C99 -25 110 -14 110 0C110 14 99 25 85 25C72 25 60 14 60 0C60 -14 72 -25 85 -25Z" glyph-name="line.000.046" horiz-adv-x="350" /><glyph d="M85 -18 435 311V347L85 18ZM85 -25C99 -25 110 -14 110 0C110 14 99 25 85 25C72 25 60 14 60 0C60 -14 72 -25 85 -25Z" glyph-name="line.000.047" horiz-adv-x="350" /><glyph d="M85 -18 435 318V354L85 18ZM85 -25C99 -25 110 -14 110 0C110 14 99 25 85 25C72 25 60 14 60 0C60 -14 72 -25 85 -25Z" glyph-name="line.000.048" horiz-adv-x="350" /><glyph d="M85 -18 435 325V361L85 18ZM85 -25C99 -25 110 -14 110 0C110 14 99 25 85 25C72 25 60 14 60 0C60 -14 72 -25 85 -25Z" glyph-name="line.000.049" horiz-adv-x="350" /><glyph d="M85 -19 435 331V369L85 19ZM85 -25C99 -25 110 -14 110 0C110 14 99 25 85 25C72 25 60 14 60 0C60 -14 72 -25 85 -25Z" glyph-name="line.000.050" horiz-adv-x="350" /><glyph d="M85 -19 435 338V376L85 19ZM85 -25C99 -25 110 -14 110 0C110 14 99 25 85 25C72 25 60 14 60 0C60 -14 72 -25 85 -25Z" glyph-name="line.000.051" horiz-adv-x="350" /><glyph d="M85 -19 435 345V383L85 19ZM85 -25C99 -25 110 -14 110 0C110 14 99 25 85 25C72 25 60 14 60 0C60 -14 72 -25 85 -25Z" glyph-name="line.000.052" horiz-adv-x="350" /><glyph d="M85 -19 435 352V390L85 19ZM85 -25C99 -25 110 -14 110 0C110 14 99 25 85 25C72 25 60 14 60 0C60 -14 72 -25 85 -25Z" glyph-name="line.000.053" horiz-adv-x="350" /><glyph d="M85 -20 435 358V398L85 20ZM85 -25C99 -25 110 -14 110 0C110 14 99 25 85 25C72 25 60 14 60 0C60 -14 72 -25 85 -25Z" glyph-name="line.000.054" horiz-adv-x="350" /><glyph d="M85 -20 435 365V405L85 20ZM85 -25C99 -25 110 -14 110 0C110 14 99 25 85 25C72 25 60 14 60 0C60 -14 72 -25 85 -25Z" glyph-name="line.000.055" horiz-adv-x="350" /><glyph d="M85 -20 435 372V412L85 20ZM85 -25C99 -25 110 -14 110 0C110 14 99 25 85 25C72 25 60 14 60 0C60 -14 72 -25 85 -25Z" glyph-name="line.000.056" horiz-adv-x="350" /><glyph d="M85 -21 435 378V420L85 21ZM85 -25C99 -25 110 -14 110 0C110 14 99 25 85 25C72 25 60 14 60 0C60 -14 72 -25 85 -25Z" glyph-name="line.000.057" horiz-adv-x="350" /><glyph d="M85 -21 435 385V427L85 21ZM85 -25C99 -25 110 -14 110 0C110 14 99 25 85 25C72 25 60 14 60 0C60 -14 72 -25 85 -25Z" glyph-name="line.000.058" horiz-adv-x="350" /><glyph d="M85 -21 435 392V434L85 21ZM85 -25C99 -25 110 -14 110 0C110 14 99 25 85 25C72 25 60 14 60 0C60 -14 72 -25 85 -25Z" glyph-name="line.000.059" horiz-adv-x="350" /><glyph d="M85 -22 435 398V442L85 22ZM85 -25C99 -25 110 -14 110 0C110 14 99 25 85 25C72 25 60 14 60 0C60 -14 72 -25 85 -25Z" glyph-name="line.000.060" horiz-adv-x="350" /><glyph d="M85 -22 435 405V449L85 22ZM85 -25C99 -25 110 -14 110 0C110 14 99 25 85 25C72 25 60 14 60 0C60 -14 72 -25 85 -25Z" glyph-name="line.000.061" horiz-adv-x="350" /><glyph d="M85 -22 435 412V456L85 22ZM85 -25C99 -25 110 -14 110 0C110 14 99 25 85 25C72 25 60 14 60 0C60 -14 72 -25 85 -25Z" glyph-name="line.000.062" horiz-adv-x="350" /><glyph d="M85 -22 435 419V463L85 22ZM85 -25C99 -25 110 -14 110 0C110 14 99 25 85 25C72 25 60 14 60 0C60 -14 72 -25 85 -25Z" glyph-name="line.000.063" horiz-adv-x="350" /><glyph d="M85 -22 435 426V470L85 22ZM85 -25C99 -25 110 -14 110 0C110 14 99 25 85 25C72 25 60 14 60 0C60 -14 72 -25 85 -25Z" glyph-name="line.000.064" horiz-adv-x="350" /><glyph d="M85 -23 435 432V478L85 23ZM85 -25C99 -25 110 -14 110 0C110 14 99 25 85 25C72 25 60 14 60 0C60 -14 72 -25 85 -25Z" glyph-name="line.000.065" horiz-adv-x="350" /><glyph d="M85 -23 435 439V485L85 23ZM85 -25C99 -25 110 -14 110 0C110 14 99 25 85 25C72 25 60 14 60 0C60 -14 72 -25 85 -25Z" glyph-name="line.000.066" horiz-adv-x="350" /><glyph d="M85 -25 435 444V494L85 25ZM85 -25C99 -25 110 -14 110 0C110 14 99 25 85 25C72 25 60 14 60 0C60 -14 72 -25 85 -25Z" glyph-name="line.000.067" horiz-adv-x="350" /><glyph d="M85 -24 435 452V500L85 24ZM85 -25C99 -25 110 -14 110 0C110 14 99 25 85 25C72 25 60 14 60 0C60 -14 72 -25 85 -25Z" glyph-name="line.000.068" horiz-adv-x="350" /><glyph d="M85 -24 435 460V508L85 24ZM85 -25C99 -25 110 -14 110 0C110 14 99 25 85 25C72 25 60 14 60 0C60 -14 72 -25 85 -25Z" glyph-name="line.000.069" horiz-adv-x="350" /><glyph d="M85 -24 435 466V514L85 24ZM85 -25C99 -25 110 -14 110 0C110 14 99 25 85 25C72 25 60 14 60 0C60 -14 72 -25 85 -25Z" glyph-name="line.000.070" horiz-adv-x="350" /><glyph d="M85 -24 435 473V521L85 24ZM85 -25C99 -25 110 -14 110 0C110 14 99 25 85 25C72 25 60 14 60 0C60 -14 72 -25 85 -25Z" glyph-name="line.000.071" horiz-adv-x="350" /><glyph d="M85 -24 435 480V528L85 24ZM85 -25C99 -25 110 -14 110 0C110 14 99 25 85 25C72 25 60 14 60 0C60 -14 72 -25 85 -25Z" glyph-name="line.000.072" horiz-adv-x="350" /><glyph d="M85 -25 435 486V536L85 25ZM85 -25C99 -25 110 -14 110 0C110 14 99 25 85 25C72 25 60 14 60 0C60 -14 72 -25 85 -25Z" glyph-name="line.000.073" horiz-adv-x="350" /><glyph d="M85 -25 435 493V543L85 25ZM85 -25C99 -25 110 -14 110 0C110 14 99 25 85 25C72 25 60 14 60 0C60 -14 72 -25 85 -25Z" glyph-name="line.000.074" horiz-adv-x="350" /><glyph d="M85 -25 435 500V550L85 25ZM85 -25C99 -25 110 -14 110 0C110 14 99 25 85 25C72 25 60 14 60 0C60 -14 72 -25 85 -25Z" glyph-name="line.000.075" horiz-adv-x="350" /><glyph d="M85 -25 435 507V557L85 25ZM85 -25C99 -25 110 -14 110 0C110 14 99 25 85 25C72 25 60 14 60 0C60 -14 72 -25 85 -25Z" glyph-name="line.000.076" horiz-adv-x="350" /><glyph d="M87 -23 437 516 433 562 83 23ZM85 -25C99 -25 110 -14 110 0C110 14 99 25 85 25C72 25 60 14 60 0C60 -14 72 -25 85 -25Z" glyph-name="line.000.077" horiz-adv-x="350" /><glyph d="M87 -23 437 523 433 569 83 23ZM85 -25C99 -25 110 -14 110 0C110 14 99 25 85 25C72 25 60 14 60 0C60 -14 72 -25 85 -25Z" glyph-name="line.000.078" horiz-adv-x="350" /><glyph d="M90 -18 440 535 430 571 80 18ZM85 -25C99 -25 110 -14 110 0C110 14 99 25 85 25C72 25 60 14 60 0C60 -14 72 -25 85 -25Z" glyph-name="line.000.079" horiz-adv-x="350" /><glyph d="M90 -18 440 542 430 578 80 18ZM85 -25C99 -25 110 -14 110 0C110 14 99 25 85 25C72 25 60 14 60 0C60 -14 72 -25 85 -25Z" glyph-name="line.000.080" horiz-adv-x="350" /><glyph d="M87 -23 438 546 432 588 82 21ZM85 -25C99 -25 110 -14 110 0C110 14 99 25 85 25C72 25 60 14 60 0C60 -14 72 -25 85 -25Z" glyph-name="line.000.081" horiz-adv-x="350" /><glyph d="M88 -22 440 555 432 596 82 22ZM85 -25C99 -25 110 -14 110 0C110 14 99 25 85 25C72 25 60 14 60 0C60 -14 72 -25 85 -25Z" glyph-name="line.000.082" horiz-adv-x="350" /><glyph d="M88 -22 447 574 423 588 82 22ZM85 -25C99 -25 110 -14 110 0C110 14 99 25 85 25C72 25 60 14 60 0C60 -14 72 -25 85 -25Z" glyph-name="line.000.083" horiz-adv-x="350" /><glyph d="M88 -23 447 580 422 594 81 21ZM85 -25C99 -25 110 -14 110 0C110 14 99 25 85 25C72 25 60 14 60 0C60 -14 72 -25 85 -25Z" glyph-name="line.000.084" horiz-adv-x="350" /><glyph d="M88 -23 444 582 422 601 78 16ZM85 -25C99 -25 110 -14 110 0C110 14 99 25 85 25C72 25 60 14 60 0C60 -14 72 -25 85 -25Z" glyph-name="line.000.085" horiz-adv-x="350" /><glyph d="M88 -24 445 590 421 607 77 15ZM85 -25C99 -25 110 -14 110 0C110 14 99 25 85 25C72 25 60 14 60 0C60 -14 72 -25 85 -25Z" glyph-name="line.000.086" horiz-adv-x="350" /><glyph d="M88 -23 446 600 423 616 82 23ZM85 -25C99 -25 110 -14 110 0C110 14 99 25 85 25C72 25 60 14 60 0C60 -14 72 -25 85 -25Z" glyph-name="line.000.087" horiz-adv-x="350" /><glyph d="M89 -22 447 608 423 624 81 22ZM85 -25C99 -25 110 -14 110 0C110 14 99 25 85 25C72 25 60 14 60 0C60 -14 72 -25 85 -25Z" glyph-name="line.000.088" horiz-adv-x="350" /><glyph d="M89 -22 445 612 422 629 81 22ZM85 -25C99 -25 110 -14 110 0C110 14 99 25 85 25C72 25 60 14 60 0C60 -14 72 -25 85 -25Z" glyph-name="line.000.089" horiz-adv-x="350" /><glyph d="M90 -20 449 626 425 641 80 20ZM85 -25C99 -25 110 -14 110 0C110 14 99 25 85 25C72 25 60 14 60 0C60 -14 72 -25 85 -25Z" glyph-name="line.000.090" horiz-adv-x="350" /><glyph d="M90 -20 445 626 423 644 80 20ZM85 -25C99 -25 110 -14 110 0C110 14 99 25 85 25C72 25 60 14 60 0C60 -14 72 -25 85 -25Z" glyph-name="line.000.091" horiz-adv-x="350" /><glyph d="M91 -18 447 637 423 651 79 18ZM85 -25C99 -25 110 -14 110 0C110 14 99 25 85 25C72 25 60 14 60 0C60 -14 72 -25 85 -25Z" glyph-name="line.000.092" horiz-adv-x="350" /><glyph d="M92 -17 451 651 427 666 78 17ZM85 -25C99 -25 110 -14 110 0C110 14 99 25 85 25C72 25 60 14 60 0C60 -14 72 -25 85 -25Z" glyph-name="line.000.093" horiz-adv-x="350" /><glyph d="M93 -15 448 652 424 667 77 15ZM85 -25C99 -25 110 -14 110 0C110 14 99 25 85 25C72 25 60 14 60 0C60 -14 72 -25 85 -25Z" glyph-name="line.000.094" horiz-adv-x="350" /><glyph d="M94 -13 449 662 426 678 76 13ZM85 -25C99 -25 110 -14 110 0C110 14 99 25 85 25C72 25 60 14 60 0C60 -14 72 -25 85 -25Z" glyph-name="line.000.095" horiz-adv-x="350" /><glyph d="M96 -10 448 666 424 682 74 10ZM85 -25C99 -25 110 -14 110 0C110 14 99 25 85 25C72 25 60 14 60 0C60 -14 72 -25 85 -25Z" glyph-name="line.000.096" horiz-adv-x="350" /><glyph d="M99 -4 444 665 419 679 71 4ZM85 -25C99 -25 110 -14 110 0C110 14 99 25 85 25C72 25 60 14 60 0C60 -14 72 -25 85 -25Z" glyph-name="line.000.097" horiz-adv-x="350" /><glyph d="M89 -23 449 682 425 697 81 23ZM85 -25C99 -25 110 -14 110 0C110 14 99 25 85 25C72 25 60 14 60 0C60 -14 72 -25 85 -25Z" glyph-name="line.000.098" horiz-adv-x="350" /><glyph d="M89 -23 440 672 424 702 81 23ZM85 -25C99 -25 110 -14 110 0C110 14 99 25 85 25C72 25 60 14 60 0C60 -14 72 -25 85 -25Z" glyph-name="line.000.099" horiz-adv-x="350" /><glyph d="M90 -21 441 681 424 709 80 21ZM85 -25C99 -25 110 -14 110 0C110 14 99 25 85 25C72 25 60 14 60 0C60 -14 72 -25 85 -25Z" glyph-name="line.000.100" horiz-adv-x="350" /><glyph d="M85 20 435 13V-13L85 -6ZM85 32C99 32 110 21 110 7C110 -7 99 -18 85 -18C72 -18 60 -7 60 7C60 21 72 32 85 32Z" glyph-name="line.001.000" horiz-adv-x="350" /><glyph d="M85 -6H435V20H85ZM85 -18C99 -18 110 -7 110 7C110 21 99 32 85 32C72 32 60 21 60 7C60 -7 72 -18 85 -18Z" glyph-name="line.001.001" horiz-adv-x="350" /><glyph d="M85 -6 435 1V27L85 20ZM85 -18C99 -18 110 -7 110 7C110 21 99 32 85 32C72 32 60 21 60 7C60 -7 72 -18 85 -18Z" glyph-name="line.001.002" horiz-adv-x="350" /><glyph d="M85 -6 435 8V34L85 20ZM85 -18C99 -18 110 -7 110 7C110 21 99 32 85 32C72 32 60 21 60 7C60 -7 72 -18 85 -18Z" glyph-name="line.001.003" horiz-adv-x="350" /><glyph d="M85 -6 435 15V41L85 20ZM85 -18C99 -18 110 -7 110 7C110 21 99 32 85 32C72 32 60 21 60 7C60 -7 72 -18 85 -18Z" glyph-name="line.001.004" horiz-adv-x="350" /><glyph d="M85 -6 435 22V48L85 20ZM85 -18C99 -18 110 -7 110 7C110 21 99 32 85 32C72 32 60 21 60 7C60 -7 72 -18 85 -18Z" glyph-name="line.001.005" horiz-adv-x="350" /><glyph d="M85 -6 435 29V55L85 20ZM85 -18C99 -18 110 -7 110 7C110 21 99 32 85 32C72 32 60 21 60 7C60 -7 72 -18 85 -18Z" glyph-name="line.001.006" horiz-adv-x="350" /><glyph d="M85 -6 435 36V62L85 20ZM85 -18C99 -18 110 -7 110 7C110 21 99 32 85 32C72 32 60 21 60 7C60 -7 72 -18 85 -18Z" glyph-name="line.001.007" horiz-adv-x="350" /><glyph d="M85 -6 435 43V69L85 20ZM85 -18C99 -18 110 -7 110 7C110 21 99 32 85 32C72 32 60 21 60 7C60 -7 72 -18 85 -18Z" glyph-name="line.001.008" horiz-adv-x="350" /><glyph d="M85 -6 435 50V76L85 20ZM85 -18C99 -18 110 -7 110 7C110 21 99 32 85 32C72 32 60 21 60 7C60 -7 72 -18 85 -18Z" glyph-name="line.001.009" horiz-adv-x="350" /><glyph d="M85 -6 435 57V83L85 20ZM85 -18C99 -18 110 -7 110 7C110 21 99 32 85 32C72 32 60 21 60 7C60 -7 72 -18 85 -18Z" glyph-name="line.001.010" horiz-adv-x="350" /><glyph d="M85 -7 435 63V91L85 21ZM85 -18C99 -18 110 -7 110 7C110 21 99 32 85 32C72 32 60 21 60 7C60 -7 72 -18 85 -18Z" glyph-name="line.001.011" horiz-adv-x="350" /><glyph d="M85 -7 435 70V98L85 21ZM85 -18C99 -18 110 -7 110 7C110 21 99 32 85 32C72 32 60 21 60 7C60 -7 72 -18 85 -18Z" glyph-name="line.001.012" horiz-adv-x="350" /><glyph d="M85 -7 435 77V105L85 21ZM85 -18C99 -18 110 -7 110 7C110 21 99 32 85 32C72 32 60 21 60 7C60 -7 72 -18 85 -18Z" glyph-name="line.001.013" horiz-adv-x="350" /><glyph d="M85 -7 435 84V112L85 21ZM85 -18C99 -18 110 -7 110 7C110 21 99 32 85 32C72 32 60 21 60 7C60 -7 72 -18 85 -18Z" glyph-name="line.001.014" horiz-adv-x="350" /><glyph d="M85 -7 435 91V119L85 21ZM85 -18C99 -18 110 -7 110 7C110 21 99 32 85 32C72 32 60 21 60 7C60 -7 72 -18 85 -18Z" glyph-name="line.001.015" horiz-adv-x="350" /><glyph d="M85 -7 435 98V126L85 21ZM85 -18C99 -18 110 -7 110 7C110 21 99 32 85 32C72 32 60 21 60 7C60 -7 72 -18 85 -18Z" glyph-name="line.001.016" horiz-adv-x="350" /><glyph d="M85 -7 435 105V133L85 21ZM85 -18C99 -18 110 -7 110 7C110 21 99 32 85 32C72 32 60 21 60 7C60 -7 72 -18 85 -18Z" glyph-name="line.001.017" horiz-adv-x="350" /><glyph d="M85 -7 435 112V140L85 21ZM85 -18C99 -18 110 -7 110 7C110 21 99 32 85 32C72 32 60 21 60 7C60 -7 72 -18 85 -18Z" glyph-name="line.001.018" horiz-adv-x="350" /><glyph d="M85 -7 435 119V147L85 21ZM85 -18C99 -18 110 -7 110 7C110 21 99 32 85 32C72 32 60 21 60 7C60 -7 72 -18 85 -18Z" glyph-name="line.001.019" horiz-adv-x="350" /><glyph d="M85 -7 435 126V154L85 21ZM85 -18C99 -18 110 -7 110 7C110 21 99 32 85 32C72 32 60 21 60 7C60 -7 72 -18 85 -18Z" glyph-name="line.001.020" horiz-adv-x="350" /><glyph d="M85 -7 435 133V161L85 21ZM85 -18C99 -18 110 -7 110 7C110 21 99 32 85 32C72 32 60 21 60 7C60 -7 72 -18 85 -18Z" glyph-name="line.001.021" horiz-adv-x="350" /><glyph d="M85 -7 435 140V168L85 21ZM85 -18C99 -18 110 -7 110 7C110 21 99 32 85 32C72 32 60 21 60 7C60 -7 72 -18 85 -18Z" glyph-name="line.001.022" horiz-adv-x="350" /><glyph d="M85 -7 435 147V175L85 21ZM85 -18C99 -18 110 -7 110 7C110 21 99 32 85 32C72 32 60 21 60 7C60 -7 72 -18 85 -18Z" glyph-name="line.001.023" horiz-adv-x="350" /><glyph d="M85 -7 435 154V182L85 21ZM85 -18C99 -18 110 -7 110 7C110 21 99 32 85 32C72 32 60 21 60 7C60 -7 72 -18 85 -18Z" glyph-name="line.001.024" horiz-adv-x="350" /><glyph d="M85 -7 435 161V189L85 21ZM85 -18C99 -18 110 -7 110 7C110 21 99 32 85 32C72 32 60 21 60 7C60 -7 72 -18 85 -18Z" glyph-name="line.001.025" horiz-adv-x="350" /><glyph d="M85 -8 435 167V197L85 22ZM85 -18C99 -18 110 -7 110 7C110 21 99 32 85 32C72 32 60 21 60 7C60 -7 72 -18 85 -18Z" glyph-name="line.001.026" horiz-adv-x="350" /><glyph d="M85 -8 435 174V204L85 22ZM85 -18C99 -18 110 -7 110 7C110 21 99 32 85 32C72 32 60 21 60 7C60 -7 72 -18 85 -18Z" glyph-name="line.001.027" horiz-adv-x="350" /><glyph d="M85 -8 435 181V211L85 22ZM85 -18C99 -18 110 -7 110 7C110 21 99 32 85 32C72 32 60 21 60 7C60 -7 72 -18 85 -18Z" glyph-name="line.001.028" horiz-adv-x="350" /><glyph d="M85 -8 435 188V218L85 22ZM85 -18C99 -18 110 -7 110 7C110 21 99 32 85 32C72 32 60 21 60 7C60 -7 72 -18 85 -18Z" glyph-name="line.001.029" horiz-adv-x="350" /><glyph d="M85 -8 435 195V225L85 22ZM85 -18C99 -18 110 -7 110 7C110 21 99 32 85 32C72 32 60 21 60 7C60 -7 72 -18 85 -18Z" glyph-name="line.001.030" horiz-adv-x="350" /><glyph d="M85 -8 435 202V232L85 22ZM85 -18C99 -18 110 -7 110 7C110 21 99 32 85 32C72 32 60 21 60 7C60 -7 72 -18 85 -18Z" glyph-name="line.001.031" horiz-adv-x="350" /><glyph d="M85 -8 435 209V239L85 22ZM85 -18C99 -18 110 -7 110 7C110 21 99 32 85 32C72 32 60 21 60 7C60 -7 72 -18 85 -18Z" glyph-name="line.001.032" horiz-adv-x="350" /><glyph d="M85 -8 435 216V246L85 22ZM85 -18C99 -18 110 -7 110 7C110 21 99 32 85 32C72 32 60 21 60 7C60 -7 72 -18 85 -18Z" glyph-name="line.001.033" horiz-adv-x="350" /><glyph d="M85 -8 435 223V253L85 22ZM85 -18C99 -18 110 -7 110 7C110 21 99 32 85 32C72 32 60 21 60 7C60 -7 72 -18 85 -18Z" glyph-name="line.001.034" horiz-adv-x="350" /><glyph d="M85 -8 435 230V260L85 22ZM85 -18C99 -18 110 -7 110 7C110 21 99 32 85 32C72 32 60 21 60 7C60 -7 72 -18 85 -18Z" glyph-name="line.001.035" horiz-adv-x="350" /><glyph d="M85 -9 435 236V268L85 23ZM85 -18C99 -18 110 -7 110 7C110 21 99 32 85 32C72 32 60 21 60 7C60 -7 72 -18 85 -18Z" glyph-name="line.001.036" horiz-adv-x="350" /><glyph d="M85 -9 435 243V275L85 23ZM85 -18C99 -18 110 -7 110 7C110 21 99 32 85 32C72 32 60 21 60 7C60 -7 72 -18 85 -18Z" glyph-name="line.001.037" horiz-adv-x="350" /><glyph d="M85 -9 435 250V282L85 23ZM85 -18C99 -18 110 -7 110 7C110 21 99 32 85 32C72 32 60 21 60 7C60 -7 72 -18 85 -18Z" glyph-name="line.001.038" horiz-adv-x="350" /><glyph d="M85 -9 435 257V289L85 23ZM85 -18C99 -18 110 -7 110 7C110 21 99 32 85 32C72 32 60 21 60 7C60 -7 72 -18 85 -18Z" glyph-name="line.001.039" horiz-adv-x="350" /><glyph d="M85 -9 435 264V296L85 23ZM85 -18C99 -18 110 -7 110 7C110 21 99 32 85 32C72 32 60 21 60 7C60 -7 72 -18 85 -18Z" glyph-name="line.001.040" horiz-adv-x="350" /><glyph d="M85 -10 435 270V304L85 24ZM85 -18C99 -18 110 -7 110 7C110 21 99 32 85 32C72 32 60 21 60 7C60 -7 72 -18 85 -18Z" glyph-name="line.001.041" horiz-adv-x="350" /><glyph d="M85 -10 435 277V311L85 24ZM85 -18C99 -18 110 -7 110 7C110 21 99 32 85 32C72 32 60 21 60 7C60 -7 72 -18 85 -18Z" glyph-name="line.001.042" horiz-adv-x="350" /><glyph d="M85 -10 435 284V318L85 24ZM85 -18C99 -18 110 -7 110 7C110 21 99 32 85 32C72 32 60 21 60 7C60 -7 72 -18 85 -18Z" glyph-name="line.001.043" horiz-adv-x="350" /><glyph d="M85 -10 435 291V325L85 24ZM85 -18C99 -18 110 -7 110 7C110 21 99 32 85 32C72 32 60 21 60 7C60 -7 72 -18 85 -18Z" glyph-name="line.001.044" horiz-adv-x="350" /><glyph d="M85 -10 435 298V332L85 24ZM85 -18C99 -18 110 -7 110 7C110 21 99 32 85 32C72 32 60 21 60 7C60 -7 72 -18 85 -18Z" glyph-name="line.001.045" horiz-adv-x="350" /><glyph d="M85 -11 435 304V340L85 25ZM85 -18C99 -18 110 -7 110 7C110 21 99 32 85 32C72 32 60 21 60 7C60 -7 72 -18 85 -18Z" glyph-name="line.001.046" horiz-adv-x="350" /><glyph d="M85 -11 435 311V347L85 25ZM85 -18C99 -18 110 -7 110 7C110 21 99 32 85 32C72 32 60 21 60 7C60 -7 72 -18 85 -18Z" glyph-name="line.001.047" horiz-adv-x="350" /><glyph d="M85 -11 435 318V354L85 25ZM85 -18C99 -18 110 -7 110 7C110 21 99 32 85 32C72 32 60 21 60 7C60 -7 72 -18 85 -18Z" glyph-name="line.001.048" horiz-adv-x="350" /><glyph d="M85 -11 435 325V361L85 25ZM85 -18C99 -18 110 -7 110 7C110 21 99 32 85 32C72 32 60 21 60 7C60 -7 72 -18 85 -18Z" glyph-name="line.001.049" horiz-adv-x="350" /><glyph d="M85 -11 435 332V368L85 25ZM85 -18C99 -18 110 -7 110 7C110 21 99 32 85 32C72 32 60 21 60 7C60 -7 72 -18 85 -18Z" glyph-name="line.001.050" horiz-adv-x="350" /><glyph d="M85 -12 435 338V376L85 26ZM85 -18C99 -18 110 -7 110 7C110 21 99 32 85 32C72 32 60 21 60 7C60 -7 72 -18 85 -18Z" glyph-name="line.001.051" horiz-adv-x="350" /><glyph d="M85 -12 435 345V383L85 26ZM85 -18C99 -18 110 -7 110 7C110 21 99 32 85 32C72 32 60 21 60 7C60 -7 72 -18 85 -18Z" glyph-name="line.001.052" horiz-adv-x="350" /><glyph d="M85 -12 435 352V390L85 26ZM85 -18C99 -18 110 -7 110 7C110 21 99 32 85 32C72 32 60 21 60 7C60 -7 72 -18 85 -18Z" glyph-name="line.001.053" horiz-adv-x="350" /><glyph d="M85 -12 435 359V397L85 26ZM85 -18C99 -18 110 -7 110 7C110 21 99 32 85 32C72 32 60 21 60 7C60 -7 72 -18 85 -18Z" glyph-name="line.001.054" horiz-adv-x="350" /><glyph d="M85 -13 435 365V405L85 27ZM85 -18C99 -18 110 -7 110 7C110 21 99 32 85 32C72 32 60 21 60 7C60 -7 72 -18 85 -18Z" glyph-name="line.001.055" horiz-adv-x="350" /><glyph d="M85 -13 435 372V412L85 27ZM85 -18C99 -18 110 -7 110 7C110 21 99 32 85 32C72 32 60 21 60 7C60 -7 72 -18 85 -18Z" glyph-name="line.001.056" horiz-adv-x="350" /><glyph d="M85 -13 435 379V419L85 27ZM85 -18C99 -18 110 -7 110 7C110 21 99 32 85 32C72 32 60 21 60 7C60 -7 72 -18 85 -18Z" glyph-name="line.001.057" horiz-adv-x="350" /><glyph d="M85 -14 435 385V427L85 28ZM85 -18C99 -18 110 -7 110 7C110 21 99 32 85 32C72 32 60 21 60 7C60 -7 72 -18 85 -18Z" glyph-name="line.001.058" horiz-adv-x="350" /><glyph d="M85 -14 435 392V434L85 28ZM85 -18C99 -18 110 -7 110 7C110 21 99 32 85 32C72 32 60 21 60 7C60 -7 72 -18 85 -18Z" glyph-name="line.001.059" horiz-adv-x="350" /><glyph d="M85 -14 435 399V441L85 28ZM85 -18C99 -18 110 -7 110 7C110 21 99 32 85 32C72 32 60 21 60 7C60 -7 72 -18 85 -18Z" glyph-name="line.001.060" horiz-adv-x="350" /><glyph d="M85 -15 435 405V449L85 29ZM85 -18C99 -18 110 -7 110 7C110 21 99 32 85 32C72 32 60 21 60 7C60 -7 72 -18 85 -18Z" glyph-name="line.001.061" horiz-adv-x="350" /><glyph d="M85 -15 435 412V456L85 29ZM85 -18C99 -18 110 -7 110 7C110 21 99 32 85 32C72 32 60 21 60 7C60 -7 72 -18 85 -18Z" glyph-name="line.001.062" horiz-adv-x="350" /><glyph d="M85 -15 435 419V463L85 29ZM85 -18C99 -18 110 -7 110 7C110 21 99 32 85 32C72 32 60 21 60 7C60 -7 72 -18 85 -18Z" glyph-name="line.001.063" horiz-adv-x="350" /><glyph d="M85 -15 435 426V470L85 29ZM85 -18C99 -18 110 -7 110 7C110 21 99 32 85 32C72 32 60 21 60 7C60 -7 72 -18 85 -18Z" glyph-name="line.001.064" horiz-adv-x="350" /><glyph d="M85 -15 435 433V477L85 29ZM85 -18C99 -18 110 -7 110 7C110 21 99 32 85 32C72 32 60 21 60 7C60 -7 72 -18 85 -18Z" glyph-name="line.001.065" horiz-adv-x="350" /><glyph d="M85 -16 435 439V485L85 30ZM85 -18C99 -18 110 -7 110 7C110 21 99 32 85 32C72 32 60 21 60 7C60 -7 72 -18 85 -18Z" glyph-name="line.001.066" horiz-adv-x="350" /><glyph d="M85 -16 435 446V492L85 30ZM85 -18C99 -18 110 -7 110 7C110 21 99 32 85 32C72 32 60 21 60 7C60 -7 72 -18 85 -18Z" glyph-name="line.001.067" horiz-adv-x="350" /><glyph d="M85 -18 435 451V501L85 32ZM85 -18C99 -18 110 -7 110 7C110 21 99 32 85 32C72 32 60 21 60 7C60 -7 72 -18 85 -18Z" glyph-name="line.001.068" horiz-adv-x="350" /><glyph d="M85 -17 435 459V507L85 31ZM85 -18C99 -18 110 -7 110 7C110 21 99 32 85 32C72 32 60 21 60 7C60 -7 72 -18 85 -18Z" glyph-name="line.001.069" horiz-adv-x="350" /><glyph d="M85 -17 435 467V515L85 31ZM85 -18C99 -18 110 -7 110 7C110 21 99 32 85 32C72 32 60 21 60 7C60 -7 72 -18 85 -18Z" glyph-name="line.001.070" horiz-adv-x="350" /><glyph d="M85 -17 435 473V521L85 31ZM85 -18C99 -18 110 -7 110 7C110 21 99 32 85 32C72 32 60 21 60 7C60 -7 72 -18 85 -18Z" glyph-name="line.001.071" horiz-adv-x="350" /><glyph d="M85 -17 435 480V528L85 31ZM85 -18C99 -18 110 -7 110 7C110 21 99 32 85 32C72 32 60 21 60 7C60 -7 72 -18 85 -18Z" glyph-name="line.001.072" horiz-adv-x="350" /><glyph d="M85 -17 435 487V535L85 31ZM85 -18C99 -18 110 -7 110 7C110 21 99 32 85 32C72 32 60 21 60 7C60 -7 72 -18 85 -18Z" glyph-name="line.001.073" horiz-adv-x="350" /><glyph d="M85 -18 435 493V543L85 32ZM85 -18C99 -18 110 -7 110 7C110 21 99 32 85 32C72 32 60 21 60 7C60 -7 72 -18 85 -18Z" glyph-name="line.001.074" horiz-adv-x="350" /><glyph d="M85 -18 435 500V550L85 32ZM85 -18C99 -18 110 -7 110 7C110 21 99 32 85 32C72 32 60 21 60 7C60 -7 72 -18 85 -18Z" glyph-name="line.001.075" horiz-adv-x="350" /><glyph d="M85 -18 435 507V557L85 32ZM85 -18C99 -18 110 -7 110 7C110 21 99 32 85 32C72 32 60 21 60 7C60 -7 72 -18 85 -18Z" glyph-name="line.001.076" horiz-adv-x="350" /><glyph d="M85 -18 435 514V564L85 32ZM85 -18C99 -18 110 -7 110 7C110 21 99 32 85 32C72 32 60 21 60 7C60 -7 72 -18 85 -18Z" glyph-name="line.001.077" horiz-adv-x="350" /><glyph d="M87 -16 437 523 433 569 83 30ZM85 -18C99 -18 110 -7 110 7C110 21 99 32 85 32C72 32 60 21 60 7C60 -7 72 -18 85 -18Z" glyph-name="line.001.078" horiz-adv-x="350" /><glyph d="M87 -16 437 530 433 576 83 30ZM85 -18C99 -18 110 -7 110 7C110 21 99 32 85 32C72 32 60 21 60 7C60 -7 72 -18 85 -18Z" glyph-name="line.001.079" horiz-adv-x="350" /><glyph d="M90 -11 440 542 430 578 80 25ZM85 -18C99 -18 110 -7 110 7C110 21 99 32 85 32C72 32 60 21 60 7C60 -7 72 -18 85 -18Z" glyph-name="line.001.080" horiz-adv-x="350" /><glyph d="M90 -11 440 549 430 585 80 25ZM85 -18C99 -18 110 -7 110 7C110 21 99 32 85 32C72 32 60 21 60 7C60 -7 72 -18 85 -18Z" glyph-name="line.001.081" horiz-adv-x="350" /><glyph d="M87 -16 438 553 432 595 82 28ZM85 -18C99 -18 110 -7 110 7C110 21 99 32 85 32C72 32 60 21 60 7C60 -7 72 -18 85 -18Z" glyph-name="line.001.082" horiz-adv-x="350" /><glyph d="M88 -15 440 562 432 603 82 29ZM85 -18C99 -18 110 -7 110 7C110 21 99 32 85 32C72 32 60 21 60 7C60 -7 72 -18 85 -18Z" glyph-name="line.001.083" horiz-adv-x="350" /><glyph d="M88 -15 447 581 423 595 82 29ZM85 -18C99 -18 110 -7 110 7C110 21 99 32 85 32C72 32 60 21 60 7C60 -7 72 -18 85 -18Z" glyph-name="line.001.084" horiz-adv-x="350" /><glyph d="M88 -16 447 587 422 601 81 28ZM85 -18C99 -18 110 -7 110 7C110 21 99 32 85 32C72 32 60 21 60 7C60 -7 72 -18 85 -18Z" glyph-name="line.001.085" horiz-adv-x="350" /><glyph d="M88 -16 444 589 422 608 78 23ZM85 -18C99 -18 110 -7 110 7C110 21 99 32 85 32C72 32 60 21 60 7C60 -7 72 -18 85 -18Z" glyph-name="line.001.086" horiz-adv-x="350" /><glyph d="M88 -17 445 597 421 614 77 22ZM85 -18C99 -18 110 -7 110 7C110 21 99 32 85 32C72 32 60 21 60 7C60 -7 72 -18 85 -18Z" glyph-name="line.001.087" horiz-adv-x="350" /><glyph d="M88 -16 446 607 423 623 82 30ZM85 -18C99 -18 110 -7 110 7C110 21 99 32 85 32C72 32 60 21 60 7C60 -7 72 -18 85 -18Z" glyph-name="line.001.088" horiz-adv-x="350" /><glyph d="M89 -15 447 615 423 631 81 29ZM85 -18C99 -18 110 -7 110 7C110 21 99 32 85 32C72 32 60 21 60 7C60 -7 72 -18 85 -18Z" glyph-name="line.001.089" horiz-adv-x="350" /><glyph d="M89 -15 445 619 422 636 81 29ZM85 -18C99 -18 110 -7 110 7C110 21 99 32 85 32C72 32 60 21 60 7C60 -7 72 -18 85 -18Z" glyph-name="line.001.090" horiz-adv-x="350" /><glyph d="M90 -13 449 633 425 648 80 27ZM85 -18C99 -18 110 -7 110 7C110 21 99 32 85 32C72 32 60 21 60 7C60 -7 72 -18 85 -18Z" glyph-name="line.001.091" horiz-adv-x="350" /><glyph d="M90 -13 445 633 423 651 80 27ZM85 -18C99 -18 110 -7 110 7C110 21 99 32 85 32C72 32 60 21 60 7C60 -7 72 -18 85 -18Z" glyph-name="line.001.092" horiz-adv-x="350" /><glyph d="M91 -11 447 644 423 658 79 25ZM85 -18C99 -18 110 -7 110 7C110 21 99 32 85 32C72 32 60 21 60 7C60 -7 72 -18 85 -18Z" glyph-name="line.001.093" horiz-adv-x="350" /><glyph d="M92 -10 451 658 427 673 78 24ZM85 -18C99 -18 110 -7 110 7C110 21 99 32 85 32C72 32 60 21 60 7C60 -7 72 -18 85 -18Z" glyph-name="line.001.094" horiz-adv-x="350" /><glyph d="M93 -8 448 659 424 674 77 22ZM85 -18C99 -18 110 -7 110 7C110 21 99 32 85 32C72 32 60 21 60 7C60 -7 72 -18 85 -18Z" glyph-name="line.001.095" horiz-adv-x="350" /><glyph d="M94 -6 449 669 426 685 76 20ZM85 -18C99 -18 110 -7 110 7C110 21 99 32 85 32C72 32 60 21 60 7C60 -7 72 -18 85 -18Z" glyph-name="line.001.096" horiz-adv-x="350" /><glyph d="M96 -3 448 673 424 689 74 17ZM85 -18C99 -18 110 -7 110 7C110 21 99 32 85 32C72 32 60 21 60 7C60 -7 72 -18 85 -18Z" glyph-name="line.001.097" horiz-adv-x="350" /><glyph d="M99 3 444 672 419 686 71 11ZM85 -18C99 -18 110 -7 110 7C110 21 99 32 85 32C72 32 60 21 60 7C60 -7 72 -18 85 -18Z" glyph-name="line.001.098" horiz-adv-x="350" /><glyph d="M89 -16 449 689 425 704 81 30ZM85 -18C99 -18 110 -7 110 7C110 21 99 32 85 32C72 32 60 21 60 7C60 -7 72 -18 85 -18Z" glyph-name="line.001.099" horiz-adv-x="350" /><glyph d="M89 -16 440 679 424 709 81 30ZM85 -18C99 -18 110 -7 110 7C110 21 99 32 85 32C72 32 60 21 60 7C60 -7 72 -18 85 -18Z" glyph-name="line.001.100" horiz-adv-x="350" /><glyph d="M85 27 435 13V-13L85 1ZM85 39C99 39 110 28 110 14C110 0 99 -11 85 -11C72 -11 60 0 60 14C60 28 72 39 85 39Z" glyph-name="line.002.000" horiz-adv-x="350" /><glyph d="M85 27 435 20V-6L85 1ZM85 39C99 39 110 28 110 14C110 0 99 -11 85 -11C72 -11 60 0 60 14C60 28 72 39 85 39Z" glyph-name="line.002.001" horiz-adv-x="350" /><glyph d="M85 1H435V27H85ZM85 -11C99 -11 110 0 110 14C110 28 99 39 85 39C72 39 60 28 60 14C60 0 72 -11 85 -11Z" glyph-name="line.002.002" horiz-adv-x="350" /><glyph d="M85 1 435 8V34L85 27ZM85 -11C99 -11 110 0 110 14C110 28 99 39 85 39C72 39 60 28 60 14C60 0 72 -11 85 -11Z" glyph-name="line.002.003" horiz-adv-x="350" /><glyph d="M85 1 435 15V41L85 27ZM85 -11C99 -11 110 0 110 14C110 28 99 39 85 39C72 39 60 28 60 14C60 0 72 -11 85 -11Z" glyph-name="line.002.004" horiz-adv-x="350" /><glyph d="M85 1 435 22V48L85 27ZM85 -11C99 -11 110 0 110 14C110 28 99 39 85 39C72 39 60 28 60 14C60 0 72 -11 85 -11Z" glyph-name="line.002.005" horiz-adv-x="350" /><glyph d="M85 1 435 29V55L85 27ZM85 -11C99 -11 110 0 110 14C110 28 99 39 85 39C72 39 60 28 60 14C60 0 72 -11 85 -11Z" glyph-name="line.002.006" horiz-adv-x="350" /><glyph d="M85 1 435 36V62L85 27ZM85 -11C99 -11 110 0 110 14C110 28 99 39 85 39C72 39 60 28 60 14C60 0 72 -11 85 -11Z" glyph-name="line.002.007" horiz-adv-x="350" /><glyph d="M85 1 435 43V69L85 27ZM85 -11C99 -11 110 0 110 14C110 28 99 39 85 39C72 39 60 28 60 14C60 0 72 -11 85 -11Z" glyph-name="line.002.008" horiz-adv-x="350" /><glyph d="M85 1 435 50V76L85 27ZM85 -11C99 -11 110 0 110 14C110 28 99 39 85 39C72 39 60 28 60 14C60 0 72 -11 85 -11Z" glyph-name="line.002.009" horiz-adv-x="350" /><glyph d="M85 1 435 57V83L85 27ZM85 -11C99 -11 110 0 110 14C110 28 99 39 85 39C72 39 60 28 60 14C60 0 72 -11 85 -11Z" glyph-name="line.002.010" horiz-adv-x="350" /><glyph d="M85 1 435 64V90L85 27ZM85 -11C99 -11 110 0 110 14C110 28 99 39 85 39C72 39 60 28 60 14C60 0 72 -11 85 -11Z" glyph-name="line.002.011" horiz-adv-x="350" /><glyph d="M85 0 435 70V98L85 28ZM85 -11C99 -11 110 0 110 14C110 28 99 39 85 39C72 39 60 28 60 14C60 0 72 -11 85 -11Z" glyph-name="line.002.012" horiz-adv-x="350" /><glyph d="M85 0 435 77V105L85 28ZM85 -11C99 -11 110 0 110 14C110 28 99 39 85 39C72 39 60 28 60 14C60 0 72 -11 85 -11Z" glyph-name="line.002.013" horiz-adv-x="350" /><glyph d="M85 0 435 84V112L85 28ZM85 -11C99 -11 110 0 110 14C110 28 99 39 85 39C72 39 60 28 60 14C60 0 72 -11 85 -11Z" glyph-name="line.002.014" horiz-adv-x="350" /><glyph d="M85 0 435 91V119L85 28ZM85 -11C99 -11 110 0 110 14C110 28 99 39 85 39C72 39 60 28 60 14C60 0 72 -11 85 -11Z" glyph-name="line.002.015" horiz-adv-x="350" /><glyph d="M85 0 435 98V126L85 28ZM85 -11C99 -11 110 0 110 14C110 28 99 39 85 39C72 39 60 28 60 14C60 0 72 -11 85 -11Z" glyph-name="line.002.016" horiz-adv-x="350" /><glyph d="M85 0 435 105V133L85 28ZM85 -11C99 -11 110 0 110 14C110 28 99 39 85 39C72 39 60 28 60 14C60 0 72 -11 85 -11Z" glyph-name="line.002.017" horiz-adv-x="350" /><glyph d="M85 0 435 112V140L85 28ZM85 -11C99 -11 110 0 110 14C110 28 99 39 85 39C72 39 60 28 60 14C60 0 72 -11 85 -11Z" glyph-name="line.002.018" horiz-adv-x="350" /><glyph d="M85 0 435 119V147L85 28ZM85 -11C99 -11 110 0 110 14C110 28 99 39 85 39C72 39 60 28 60 14C60 0 72 -11 85 -11Z" glyph-name="line.002.019" horiz-adv-x="350" /><glyph d="M85 0 435 126V154L85 28ZM85 -11C99 -11 110 0 110 14C110 28 99 39 85 39C72 39 60 28 60 14C60 0 72 -11 85 -11Z" glyph-name="line.002.020" horiz-adv-x="350" /><glyph d="M85 0 435 133V161L85 28ZM85 -11C99 -11 110 0 110 14C110 28 99 39 85 39C72 39 60 28 60 14C60 0 72 -11 85 -11Z" glyph-name="line.002.021" horiz-adv-x="350" /><glyph d="M85 0 435 140V168L85 28ZM85 -11C99 -11 110 0 110 14C110 28 99 39 85 39C72 39 60 28 60 14C60 0 72 -11 85 -11Z" glyph-name="line.002.022" horiz-adv-x="350" /><glyph d="M85 0 435 147V175L85 28ZM85 -11C99 -11 110 0 110 14C110 28 99 39 85 39C72 39 60 28 60 14C60 0 72 -11 85 -11Z" glyph-name="line.002.023" horiz-adv-x="350" /><glyph d="M85 0 435 154V182L85 28ZM85 -11C99 -11 110 0 110 14C110 28 99 39 85 39C72 39 60 28 60 14C60 0 72 -11 85 -11Z" glyph-name="line.002.024" horiz-adv-x="350" /><glyph d="M85 0 435 161V189L85 28ZM85 -11C99 -11 110 0 110 14C110 28 99 39 85 39C72 39 60 28 60 14C60 0 72 -11 85 -11Z" glyph-name="line.002.025" horiz-adv-x="350" /><glyph d="M85 0 435 168V196L85 28ZM85 -11C99 -11 110 0 110 14C110 28 99 39 85 39C72 39 60 28 60 14C60 0 72 -11 85 -11Z" glyph-name="line.002.026" horiz-adv-x="350" /><glyph d="M85 -1 435 174V204L85 29ZM85 -11C99 -11 110 0 110 14C110 28 99 39 85 39C72 39 60 28 60 14C60 0 72 -11 85 -11Z" glyph-name="line.002.027" horiz-adv-x="350" /><glyph d="M85 -1 435 181V211L85 29ZM85 -11C99 -11 110 0 110 14C110 28 99 39 85 39C72 39 60 28 60 14C60 0 72 -11 85 -11Z" glyph-name="line.002.028" horiz-adv-x="350" /><glyph d="M85 -1 435 188V218L85 29ZM85 -11C99 -11 110 0 110 14C110 28 99 39 85 39C72 39 60 28 60 14C60 0 72 -11 85 -11Z" glyph-name="line.002.029" horiz-adv-x="350" /><glyph d="M85 -1 435 195V225L85 29ZM85 -11C99 -11 110 0 110 14C110 28 99 39 85 39C72 39 60 28 60 14C60 0 72 -11 85 -11Z" glyph-name="line.002.030" horiz-adv-x="350" /><glyph d="M85 -1 435 202V232L85 29ZM85 -11C99 -11 110 0 110 14C110 28 99 39 85 39C72 39 60 28 60 14C60 0 72 -11 85 -11Z" glyph-name="line.002.031" horiz-adv-x="350" /><glyph d="M85 -1 435 209V239L85 29ZM85 -11C99 -11 110 0 110 14C110 28 99 39 85 39C72 39 60 28 60 14C60 0 72 -11 85 -11Z" glyph-name="line.002.032" horiz-adv-x="350" /><glyph d="M85 -1 435 216V246L85 29ZM85 -11C99 -11 110 0 110 14C110 28 99 39 85 39C72 39 60 28 60 14C60 0 72 -11 85 -11Z" glyph-name="line.002.033" horiz-adv-x="350" /><glyph d="M85 -1 435 223V253L85 29ZM85 -11C99 -11 110 0 110 14C110 28 99 39 85 39C72 39 60 28 60 14C60 0 72 -11 85 -11Z" glyph-name="line.002.034" horiz-adv-x="350" /><glyph d="M85 -1 435 230V260L85 29ZM85 -11C99 -11 110 0 110 14C110 28 99 39 85 39C72 39 60 28 60 14C60 0 72 -11 85 -11Z" glyph-name="line.002.035" horiz-adv-x="350" /><glyph d="M85 -1 435 237V267L85 29ZM85 -11C99 -11 110 0 110 14C110 28 99 39 85 39C72 39 60 28 60 14C60 0 72 -11 85 -11Z" glyph-name="line.002.036" horiz-adv-x="350" /><glyph d="M85 -2 435 243V275L85 30ZM85 -11C99 -11 110 0 110 14C110 28 99 39 85 39C72 39 60 28 60 14C60 0 72 -11 85 -11Z" glyph-name="line.002.037" horiz-adv-x="350" /><glyph d="M85 -2 435 250V282L85 30ZM85 -11C99 -11 110 0 110 14C110 28 99 39 85 39C72 39 60 28 60 14C60 0 72 -11 85 -11Z" glyph-name="line.002.038" horiz-adv-x="350" /><glyph d="M85 -2 435 257V289L85 30ZM85 -11C99 -11 110 0 110 14C110 28 99 39 85 39C72 39 60 28 60 14C60 0 72 -11 85 -11Z" glyph-name="line.002.039" horiz-adv-x="350" /><glyph d="M85 -2 435 264V296L85 30ZM85 -11C99 -11 110 0 110 14C110 28 99 39 85 39C72 39 60 28 60 14C60 0 72 -11 85 -11Z" glyph-name="line.002.040" horiz-adv-x="350" /><glyph d="M85 -2 435 271V303L85 30ZM85 -11C99 -11 110 0 110 14C110 28 99 39 85 39C72 39 60 28 60 14C60 0 72 -11 85 -11Z" glyph-name="line.002.041" horiz-adv-x="350" /><glyph d="M85 -3 435 277V311L85 31ZM85 -11C99 -11 110 0 110 14C110 28 99 39 85 39C72 39 60 28 60 14C60 0 72 -11 85 -11Z" glyph-name="line.002.042" horiz-adv-x="350" /><glyph d="M85 -3 435 284V318L85 31ZM85 -11C99 -11 110 0 110 14C110 28 99 39 85 39C72 39 60 28 60 14C60 0 72 -11 85 -11Z" glyph-name="line.002.043" horiz-adv-x="350" /><glyph d="M85 -3 435 291V325L85 31ZM85 -11C99 -11 110 0 110 14C110 28 99 39 85 39C72 39 60 28 60 14C60 0 72 -11 85 -11Z" glyph-name="line.002.044" horiz-adv-x="350" /><glyph d="M85 -3 435 298V332L85 31ZM85 -11C99 -11 110 0 110 14C110 28 99 39 85 39C72 39 60 28 60 14C60 0 72 -11 85 -11Z" glyph-name="line.002.045" horiz-adv-x="350" /><glyph d="M85 -3 435 305V339L85 31ZM85 -11C99 -11 110 0 110 14C110 28 99 39 85 39C72 39 60 28 60 14C60 0 72 -11 85 -11Z" glyph-name="line.002.046" horiz-adv-x="350" /><glyph d="M85 -4 435 311V347L85 32ZM85 -11C99 -11 110 0 110 14C110 28 99 39 85 39C72 39 60 28 60 14C60 0 72 -11 85 -11Z" glyph-name="line.002.047" horiz-adv-x="350" /><glyph d="M85 -4 435 318V354L85 32ZM85 -11C99 -11 110 0 110 14C110 28 99 39 85 39C72 39 60 28 60 14C60 0 72 -11 85 -11Z" glyph-name="line.002.048" horiz-adv-x="350" /><glyph d="M85 -4 435 325V361L85 32ZM85 -11C99 -11 110 0 110 14C110 28 99 39 85 39C72 39 60 28 60 14C60 0 72 -11 85 -11Z" glyph-name="line.002.049" horiz-adv-x="350" /><glyph d="M85 -4 435 332V368L85 32ZM85 -11C99 -11 110 0 110 14C110 28 99 39 85 39C72 39 60 28 60 14C60 0 72 -11 85 -11Z" glyph-name="line.002.050" horiz-adv-x="350" /><glyph d="M85 -4 435 339V375L85 32ZM85 -11C99 -11 110 0 110 14C110 28 99 39 85 39C72 39 60 28 60 14C60 0 72 -11 85 -11Z" glyph-name="line.002.051" horiz-adv-x="350" /><glyph d="M85 -5 435 345V383L85 33ZM85 -11C99 -11 110 0 110 14C110 28 99 39 85 39C72 39 60 28 60 14C60 0 72 -11 85 -11Z" glyph-name="line.002.052" horiz-adv-x="350" /><glyph d="M85 -5 435 352V390L85 33ZM85 -11C99 -11 110 0 110 14C110 28 99 39 85 39C72 39 60 28 60 14C60 0 72 -11 85 -11Z" glyph-name="line.002.053" horiz-adv-x="350" /><glyph d="M85 -5 435 359V397L85 33ZM85 -11C99 -11 110 0 110 14C110 28 99 39 85 39C72 39 60 28 60 14C60 0 72 -11 85 -11Z" glyph-name="line.002.054" horiz-adv-x="350" /><glyph d="M85 -5 435 366V404L85 33ZM85 -11C99 -11 110 0 110 14C110 28 99 39 85 39C72 39 60 28 60 14C60 0 72 -11 85 -11Z" glyph-name="line.002.055" horiz-adv-x="350" /><glyph d="M85 -6 435 372V412L85 34ZM85 -11C99 -11 110 0 110 14C110 28 99 39 85 39C72 39 60 28 60 14C60 0 72 -11 85 -11Z" glyph-name="line.002.056" horiz-adv-x="350" /><glyph d="M85 -6 435 379V419L85 34ZM85 -11C99 -11 110 0 110 14C110 28 99 39 85 39C72 39 60 28 60 14C60 0 72 -11 85 -11Z" glyph-name="line.002.057" horiz-adv-x="350" /><glyph d="M85 -6 435 386V426L85 34ZM85 -11C99 -11 110 0 110 14C110 28 99 39 85 39C72 39 60 28 60 14C60 0 72 -11 85 -11Z" glyph-name="line.002.058" horiz-adv-x="350" /><glyph d="M85 -7 435 392V434L85 35ZM85 -11C99 -11 110 0 110 14C110 28 99 39 85 39C72 39 60 28 60 14C60 0 72 -11 85 -11Z" glyph-name="line.002.059" horiz-adv-x="350" /><glyph d="M85 -7 435 399V441L85 35ZM85 -11C99 -11 110 0 110 14C110 28 99 39 85 39C72 39 60 28 60 14C60 0 72 -11 85 -11Z" glyph-name="line.002.060" horiz-adv-x="350" /><glyph d="M85 -7 435 406V448L85 35ZM85 -11C99 -11 110 0 110 14C110 28 99 39 85 39C72 39 60 28 60 14C60 0 72 -11 85 -11Z" glyph-name="line.002.061" horiz-adv-x="350" /><glyph d="M85 -8 435 412V456L85 36ZM85 -11C99 -11 110 0 110 14C110 28 99 39 85 39C72 39 60 28 60 14C60 0 72 -11 85 -11Z" glyph-name="line.002.062" horiz-adv-x="350" /><glyph d="M85 -8 435 419V463L85 36ZM85 -11C99 -11 110 0 110 14C110 28 99 39 85 39C72 39 60 28 60 14C60 0 72 -11 85 -11Z" glyph-name="line.002.063" horiz-adv-x="350" /><glyph d="M85 -8 435 426V470L85 36ZM85 -11C99 -11 110 0 110 14C110 28 99 39 85 39C72 39 60 28 60 14C60 0 72 -11 85 -11Z" glyph-name="line.002.064" horiz-adv-x="350" /><glyph d="M85 -8 435 433V477L85 36ZM85 -11C99 -11 110 0 110 14C110 28 99 39 85 39C72 39 60 28 60 14C60 0 72 -11 85 -11Z" glyph-name="line.002.065" horiz-adv-x="350" /><glyph d="M85 -8 435 440V484L85 36ZM85 -11C99 -11 110 0 110 14C110 28 99 39 85 39C72 39 60 28 60 14C60 0 72 -11 85 -11Z" glyph-name="line.002.066" horiz-adv-x="350" /><glyph d="M85 -9 435 446V492L85 37ZM85 -11C99 -11 110 0 110 14C110 28 99 39 85 39C72 39 60 28 60 14C60 0 72 -11 85 -11Z" glyph-name="line.002.067" horiz-adv-x="350" /><glyph d="M85 -9 435 453V499L85 37ZM85 -11C99 -11 110 0 110 14C110 28 99 39 85 39C72 39 60 28 60 14C60 0 72 -11 85 -11Z" glyph-name="line.002.068" horiz-adv-x="350" /><glyph d="M85 -11 435 458V508L85 39ZM85 -11C99 -11 110 0 110 14C110 28 99 39 85 39C72 39 60 28 60 14C60 0 72 -11 85 -11Z" glyph-name="line.002.069" horiz-adv-x="350" /><glyph d="M85 -10 435 466V514L85 38ZM85 -11C99 -11 110 0 110 14C110 28 99 39 85 39C72 39 60 28 60 14C60 0 72 -11 85 -11Z" glyph-name="line.002.070" horiz-adv-x="350" /><glyph d="M85 -10 435 474V522L85 38ZM85 -11C99 -11 110 0 110 14C110 28 99 39 85 39C72 39 60 28 60 14C60 0 72 -11 85 -11Z" glyph-name="line.002.071" horiz-adv-x="350" /><glyph d="M85 -10 435 480V528L85 38ZM85 -11C99 -11 110 0 110 14C110 28 99 39 85 39C72 39 60 28 60 14C60 0 72 -11 85 -11Z" glyph-name="line.002.072" horiz-adv-x="350" /><glyph d="M85 -10 435 487V535L85 38ZM85 -11C99 -11 110 0 110 14C110 28 99 39 85 39C72 39 60 28 60 14C60 0 72 -11 85 -11Z" glyph-name="line.002.073" horiz-adv-x="350" /><glyph d="M85 -10 435 494V542L85 38ZM85 -11C99 -11 110 0 110 14C110 28 99 39 85 39C72 39 60 28 60 14C60 0 72 -11 85 -11Z" glyph-name="line.002.074" horiz-adv-x="350" /><glyph d="M85 -11 435 500V550L85 39ZM85 -11C99 -11 110 0 110 14C110 28 99 39 85 39C72 39 60 28 60 14C60 0 72 -11 85 -11Z" glyph-name="line.002.075" horiz-adv-x="350" /><glyph d="M85 -11 435 507V557L85 39ZM85 -11C99 -11 110 0 110 14C110 28 99 39 85 39C72 39 60 28 60 14C60 0 72 -11 85 -11Z" glyph-name="line.002.076" horiz-adv-x="350" /><glyph d="M85 -11 435 514V564L85 39ZM85 -11C99 -11 110 0 110 14C110 28 99 39 85 39C72 39 60 28 60 14C60 0 72 -11 85 -11Z" glyph-name="line.002.077" horiz-adv-x="350" /><glyph d="M85 -11 435 521V571L85 39ZM85 -11C99 -11 110 0 110 14C110 28 99 39 85 39C72 39 60 28 60 14C60 0 72 -11 85 -11Z" glyph-name="line.002.078" horiz-adv-x="350" /><glyph d="M87 -9 437 530 433 576 83 37ZM85 -11C99 -11 110 0 110 14C110 28 99 39 85 39C72 39 60 28 60 14C60 0 72 -11 85 -11Z" glyph-name="line.002.079" horiz-adv-x="350" /><glyph d="M87 -9 437 537 433 583 83 37ZM85 -11C99 -11 110 0 110 14C110 28 99 39 85 39C72 39 60 28 60 14C60 0 72 -11 85 -11Z" glyph-name="line.002.080" horiz-adv-x="350" /><glyph d="M90 -4 440 549 430 585 80 32ZM85 -11C99 -11 110 0 110 14C110 28 99 39 85 39C72 39 60 28 60 14C60 0 72 -11 85 -11Z" glyph-name="line.002.081" horiz-adv-x="350" /><glyph d="M90 -4 440 556 430 592 80 32ZM85 -11C99 -11 110 0 110 14C110 28 99 39 85 39C72 39 60 28 60 14C60 0 72 -11 85 -11Z" glyph-name="line.002.082" horiz-adv-x="350" /><glyph d="M87 -9 438 560 432 602 82 35ZM85 -11C99 -11 110 0 110 14C110 28 99 39 85 39C72 39 60 28 60 14C60 0 72 -11 85 -11Z" glyph-name="line.002.083" horiz-adv-x="350" /><glyph d="M88 -8 440 569 432 610 82 36ZM85 -11C99 -11 110 0 110 14C110 28 99 39 85 39C72 39 60 28 60 14C60 0 72 -11 85 -11Z" glyph-name="line.002.084" horiz-adv-x="350" /><glyph d="M88 -8 447 588 423 602 82 36ZM85 -11C99 -11 110 0 110 14C110 28 99 39 85 39C72 39 60 28 60 14C60 0 72 -11 85 -11Z" glyph-name="line.002.085" horiz-adv-x="350" /><glyph d="M88 -9 447 594 422 608 81 35ZM85 -11C99 -11 110 0 110 14C110 28 99 39 85 39C72 39 60 28 60 14C60 0 72 -11 85 -11Z" glyph-name="line.002.086" horiz-adv-x="350" /><glyph d="M88 -9 444 596 422 615 78 30ZM85 -11C99 -11 110 0 110 14C110 28 99 39 85 39C72 39 60 28 60 14C60 0 72 -11 85 -11Z" glyph-name="line.002.087" horiz-adv-x="350" /><glyph d="M88 -10 445 604 421 621 77 29ZM85 -11C99 -11 110 0 110 14C110 28 99 39 85 39C72 39 60 28 60 14C60 0 72 -11 85 -11Z" glyph-name="line.002.088" horiz-adv-x="350" /><glyph d="M88 -9 446 614 423 630 82 37ZM85 -11C99 -11 110 0 110 14C110 28 99 39 85 39C72 39 60 28 60 14C60 0 72 -11 85 -11Z" glyph-name="line.002.089" horiz-adv-x="350" /><glyph d="M89 -8 447 622 423 638 81 36ZM85 -11C99 -11 110 0 110 14C110 28 99 39 85 39C72 39 60 28 60 14C60 0 72 -11 85 -11Z" glyph-name="line.002.090" horiz-adv-x="350" /><glyph d="M89 -8 445 626 422 643 81 36ZM85 -11C99 -11 110 0 110 14C110 28 99 39 85 39C72 39 60 28 60 14C60 0 72 -11 85 -11Z" glyph-name="line.002.091" horiz-adv-x="350" /><glyph d="M90 -6 449 640 425 655 80 34ZM85 -11C99 -11 110 0 110 14C110 28 99 39 85 39C72 39 60 28 60 14C60 0 72 -11 85 -11Z" glyph-name="line.002.092" horiz-adv-x="350" /><glyph d="M90 -6 445 640 423 658 80 34ZM85 -11C99 -11 110 0 110 14C110 28 99 39 85 39C72 39 60 28 60 14C60 0 72 -11 85 -11Z" glyph-name="line.002.093" horiz-adv-x="350" /><glyph d="M91 -4 447 651 423 665 79 32ZM85 -11C99 -11 110 0 110 14C110 28 99 39 85 39C72 39 60 28 60 14C60 0 72 -11 85 -11Z" glyph-name="line.002.094" horiz-adv-x="350" /><glyph d="M92 -3 451 665 427 680 78 31ZM85 -11C99 -11 110 0 110 14C110 28 99 39 85 39C72 39 60 28 60 14C60 0 72 -11 85 -11Z" glyph-name="line.002.095" horiz-adv-x="350" /><glyph d="M93 -1 448 666 424 681 77 29ZM85 -11C99 -11 110 0 110 14C110 28 99 39 85 39C72 39 60 28 60 14C60 0 72 -11 85 -11Z" glyph-name="line.002.096" horiz-adv-x="350" /><glyph d="M94 1 449 676 426 692 76 27ZM85 -11C99 -11 110 0 110 14C110 28 99 39 85 39C72 39 60 28 60 14C60 0 72 -11 85 -11Z" glyph-name="line.002.097" horiz-adv-x="350" /><glyph d="M96 4 448 680 424 696 74 24ZM85 -11C99 -11 110 0 110 14C110 28 99 39 85 39C72 39 60 28 60 14C60 0 72 -11 85 -11Z" glyph-name="line.002.098" horiz-adv-x="350" /><glyph d="M99 10 444 679 419 693 71 18ZM85 -11C99 -11 110 0 110 14C110 28 99 39 85 39C72 39 60 28 60 14C60 0 72 -11 85 -11Z" glyph-name="line.002.099" horiz-adv-x="350" /><glyph d="M89 -9 449 696 425 711 81 37ZM85 -11C99 -11 110 0 110 14C110 28 99 39 85 39C72 39 60 28 60 14C60 0 72 -11 85 -11Z" glyph-name="line.002.100" horiz-adv-x="350" /><glyph d="M85 34 435 13V-13L85 8ZM85 46C99 46 110 35 110 21C110 7 99 -4 85 -4C72 -4 60 7 60 21C60 35 72 46 85 46Z" glyph-name="line.003.000" horiz-adv-x="350" /><glyph d="M85 34 435 20V-6L85 8ZM85 46C99 46 110 35 110 21C110 7 99 -4 85 -4C72 -4 60 7 60 21C60 35 72 46 85 46Z" glyph-name="line.003.001" horiz-adv-x="350" /><glyph d="M85 34 435 27V1L85 8ZM85 46C99 46 110 35 110 21C110 7 99 -4 85 -4C72 -4 60 7 60 21C60 35 72 46 85 46Z" glyph-name="line.003.002" horiz-adv-x="350" /><glyph d="M85 8H435V34H85ZM85 -4C99 -4 110 7 110 21C110 35 99 46 85 46C72 46 60 35 60 21C60 7 72 -4 85 -4Z" glyph-name="line.003.003" horiz-adv-x="350" /><glyph d="M85 8 435 15V41L85 34ZM85 -4C99 -4 110 7 110 21C110 35 99 46 85 46C72 46 60 35 60 21C60 7 72 -4 85 -4Z" glyph-name="line.003.004" horiz-adv-x="350" /><glyph d="M85 8 435 22V48L85 34ZM85 -4C99 -4 110 7 110 21C110 35 99 46 85 46C72 46 60 35 60 21C60 7 72 -4 85 -4Z" glyph-name="line.003.005" horiz-adv-x="350" /><glyph d="M85 8 435 29V55L85 34ZM85 -4C99 -4 110 7 110 21C110 35 99 46 85 46C72 46 60 35 60 21C60 7 72 -4 85 -4Z" glyph-name="line.003.006" horiz-adv-x="350" /><glyph d="M85 8 435 36V62L85 34ZM85 -4C99 -4 110 7 110 21C110 35 99 46 85 46C72 46 60 35 60 21C60 7 72 -4 85 -4Z" glyph-name="line.003.007" horiz-adv-x="350" /><glyph d="M85 8 435 43V69L85 34ZM85 -4C99 -4 110 7 110 21C110 35 99 46 85 46C72 46 60 35 60 21C60 7 72 -4 85 -4Z" glyph-name="line.003.008" horiz-adv-x="350" /><glyph d="M85 8 435 50V76L85 34ZM85 -4C99 -4 110 7 110 21C110 35 99 46 85 46C72 46 60 35 60 21C60 7 72 -4 85 -4Z" glyph-name="line.003.009" horiz-adv-x="350" /><glyph d="M85 8 435 57V83L85 34ZM85 -4C99 -4 110 7 110 21C110 35 99 46 85 46C72 46 60 35 60 21C60 7 72 -4 85 -4Z" glyph-name="line.003.010" horiz-adv-x="350" /><glyph d="M85 8 435 64V90L85 34ZM85 -4C99 -4 110 7 110 21C110 35 99 46 85 46C72 46 60 35 60 21C60 7 72 -4 85 -4Z" glyph-name="line.003.011" horiz-adv-x="350" /><glyph d="M85 8 435 71V97L85 34ZM85 -4C99 -4 110 7 110 21C110 35 99 46 85 46C72 46 60 35 60 21C60 7 72 -4 85 -4Z" glyph-name="line.003.012" horiz-adv-x="350" /><glyph d="M85 7 435 77V105L85 35ZM85 -4C99 -4 110 7 110 21C110 35 99 46 85 46C72 46 60 35 60 21C60 7 72 -4 85 -4Z" glyph-name="line.003.013" horiz-adv-x="350" /><glyph d="M85 7 435 84V112L85 35ZM85 -4C99 -4 110 7 110 21C110 35 99 46 85 46C72 46 60 35 60 21C60 7 72 -4 85 -4Z" glyph-name="line.003.014" horiz-adv-x="350" /><glyph d="M85 7 435 91V119L85 35ZM85 -4C99 -4 110 7 110 21C110 35 99 46 85 46C72 46 60 35 60 21C60 7 72 -4 85 -4Z" glyph-name="line.003.015" horiz-adv-x="350" /><glyph d="M85 7 435 98V126L85 35ZM85 -4C99 -4 110 7 110 21C110 35 99 46 85 46C72 46 60 35 60 21C60 7 72 -4 85 -4Z" glyph-name="line.003.016" horiz-adv-x="350" /><glyph d="M85 7 435 105V133L85 35ZM85 -4C99 -4 110 7 110 21C110 35 99 46 85 46C72 46 60 35 60 21C60 7 72 -4 85 -4Z" glyph-name="line.003.017" horiz-adv-x="350" /><glyph d="M85 7 435 112V140L85 35ZM85 -4C99 -4 110 7 110 21C110 35 99 46 85 46C72 46 60 35 60 21C60 7 72 -4 85 -4Z" glyph-name="line.003.018" horiz-adv-x="350" /><glyph d="M85 7 435 119V147L85 35ZM85 -4C99 -4 110 7 110 21C110 35 99 46 85 46C72 46 60 35 60 21C60 7 72 -4 85 -4Z" glyph-name="line.003.019" horiz-adv-x="350" /><glyph d="M85 7 435 126V154L85 35ZM85 -4C99 -4 110 7 110 21C110 35 99 46 85 46C72 46 60 35 60 21C60 7 72 -4 85 -4Z" glyph-name="line.003.020" horiz-adv-x="350" /><glyph d="M85 7 435 133V161L85 35ZM85 -4C99 -4 110 7 110 21C110 35 99 46 85 46C72 46 60 35 60 21C60 7 72 -4 85 -4Z" glyph-name="line.003.021" horiz-adv-x="350" /><glyph d="M85 7 435 140V168L85 35ZM85 -4C99 -4 110 7 110 21C110 35 99 46 85 46C72 46 60 35 60 21C60 7 72 -4 85 -4Z" glyph-name="line.003.022" horiz-adv-x="350" /><glyph d="M85 7 435 147V175L85 35ZM85 -4C99 -4 110 7 110 21C110 35 99 46 85 46C72 46 60 35 60 21C60 7 72 -4 85 -4Z" glyph-name="line.003.023" horiz-adv-x="350" /><glyph d="M85 7 435 154V182L85 35ZM85 -4C99 -4 110 7 110 21C110 35 99 46 85 46C72 46 60 35 60 21C60 7 72 -4 85 -4Z" glyph-name="line.003.024" horiz-adv-x="350" /><glyph d="M85 7 435 161V189L85 35ZM85 -4C99 -4 110 7 110 21C110 35 99 46 85 46C72 46 60 35 60 21C60 7 72 -4 85 -4Z" glyph-name="line.003.025" horiz-adv-x="350" /><glyph d="M85 7 435 168V196L85 35ZM85 -4C99 -4 110 7 110 21C110 35 99 46 85 46C72 46 60 35 60 21C60 7 72 -4 85 -4Z" glyph-name="line.003.026" horiz-adv-x="350" /><glyph d="M85 7 435 175V203L85 35ZM85 -4C99 -4 110 7 110 21C110 35 99 46 85 46C72 46 60 35 60 21C60 7 72 -4 85 -4Z" glyph-name="line.003.027" horiz-adv-x="350" /><glyph d="M85 6 435 181V211L85 36ZM85 -4C99 -4 110 7 110 21C110 35 99 46 85 46C72 46 60 35 60 21C60 7 72 -4 85 -4Z" glyph-name="line.003.028" horiz-adv-x="350" /><glyph d="M85 6 435 188V218L85 36ZM85 -4C99 -4 110 7 110 21C110 35 99 46 85 46C72 46 60 35 60 21C60 7 72 -4 85 -4Z" glyph-name="line.003.029" horiz-adv-x="350" /><glyph d="M85 6 435 195V225L85 36ZM85 -4C99 -4 110 7 110 21C110 35 99 46 85 46C72 46 60 35 60 21C60 7 72 -4 85 -4Z" glyph-name="line.003.030" horiz-adv-x="350" /><glyph d="M85 6 435 202V232L85 36ZM85 -4C99 -4 110 7 110 21C110 35 99 46 85 46C72 46 60 35 60 21C60 7 72 -4 85 -4Z" glyph-name="line.003.031" horiz-adv-x="350" /><glyph d="M85 6 435 209V239L85 36ZM85 -4C99 -4 110 7 110 21C110 35 99 46 85 46C72 46 60 35 60 21C60 7 72 -4 85 -4Z" glyph-name="line.003.032" horiz-adv-x="350" /><glyph d="M85 6 435 216V246L85 36ZM85 -4C99 -4 110 7 110 21C110 35 99 46 85 46C72 46 60 35 60 21C60 7 72 -4 85 -4Z" glyph-name="line.003.033" horiz-adv-x="350" /><glyph d="M85 6 435 223V253L85 36ZM85 -4C99 -4 110 7 110 21C110 35 99 46 85 46C72 46 60 35 60 21C60 7 72 -4 85 -4Z" glyph-name="line.003.034" horiz-adv-x="350" /><glyph d="M85 6 435 230V260L85 36ZM85 -4C99 -4 110 7 110 21C110 35 99 46 85 46C72 46 60 35 60 21C60 7 72 -4 85 -4Z" glyph-name="line.003.035" horiz-adv-x="350" /><glyph d="M85 6 435 237V267L85 36ZM85 -4C99 -4 110 7 110 21C110 35 99 46 85 46C72 46 60 35 60 21C60 7 72 -4 85 -4Z" glyph-name="line.003.036" horiz-adv-x="350" /><glyph d="M85 6 435 244V274L85 36ZM85 -4C99 -4 110 7 110 21C110 35 99 46 85 46C72 46 60 35 60 21C60 7 72 -4 85 -4Z" glyph-name="line.003.037" horiz-adv-x="350" /><glyph d="M85 5 435 250V282L85 37ZM85 -4C99 -4 110 7 110 21C110 35 99 46 85 46C72 46 60 35 60 21C60 7 72 -4 85 -4Z" glyph-name="line.003.038" horiz-adv-x="350" /><glyph d="M85 5 435 257V289L85 37ZM85 -4C99 -4 110 7 110 21C110 35 99 46 85 46C72 46 60 35 60 21C60 7 72 -4 85 -4Z" glyph-name="line.003.039" horiz-adv-x="350" /><glyph d="M85 5 435 264V296L85 37ZM85 -4C99 -4 110 7 110 21C110 35 99 46 85 46C72 46 60 35 60 21C60 7 72 -4 85 -4Z" glyph-name="line.003.040" horiz-adv-x="350" /><glyph d="M85 5 435 271V303L85 37ZM85 -4C99 -4 110 7 110 21C110 35 99 46 85 46C72 46 60 35 60 21C60 7 72 -4 85 -4Z" glyph-name="line.003.041" horiz-adv-x="350" /><glyph d="M85 5 435 278V310L85 37ZM85 -4C99 -4 110 7 110 21C110 35 99 46 85 46C72 46 60 35 60 21C60 7 72 -4 85 -4Z" glyph-name="line.003.042" horiz-adv-x="350" /><glyph d="M85 4 435 284V318L85 38ZM85 -4C99 -4 110 7 110 21C110 35 99 46 85 46C72 46 60 35 60 21C60 7 72 -4 85 -4Z" glyph-name="line.003.043" horiz-adv-x="350" /><glyph d="M85 4 435 291V325L85 38ZM85 -4C99 -4 110 7 110 21C110 35 99 46 85 46C72 46 60 35 60 21C60 7 72 -4 85 -4Z" glyph-name="line.003.044" horiz-adv-x="350" /><glyph d="M85 4 435 298V332L85 38ZM85 -4C99 -4 110 7 110 21C110 35 99 46 85 46C72 46 60 35 60 21C60 7 72 -4 85 -4Z" glyph-name="line.003.045" horiz-adv-x="350" /><glyph d="M85 4 435 305V339L85 38ZM85 -4C99 -4 110 7 110 21C110 35 99 46 85 46C72 46 60 35 60 21C60 7 72 -4 85 -4Z" glyph-name="line.003.046" horiz-adv-x="350" /><glyph d="M85 4 435 312V346L85 38ZM85 -4C99 -4 110 7 110 21C110 35 99 46 85 46C72 46 60 35 60 21C60 7 72 -4 85 -4Z" glyph-name="line.003.047" horiz-adv-x="350" /><glyph d="M85 3 435 318V354L85 39ZM85 -4C99 -4 110 7 110 21C110 35 99 46 85 46C72 46 60 35 60 21C60 7 72 -4 85 -4Z" glyph-name="line.003.048" horiz-adv-x="350" /><glyph d="M85 3 435 325V361L85 39ZM85 -4C99 -4 110 7 110 21C110 35 99 46 85 46C72 46 60 35 60 21C60 7 72 -4 85 -4Z" glyph-name="line.003.049" horiz-adv-x="350" /><glyph d="M85 3 435 332V368L85 39ZM85 -4C99 -4 110 7 110 21C110 35 99 46 85 46C72 46 60 35 60 21C60 7 72 -4 85 -4Z" glyph-name="line.003.050" horiz-adv-x="350" /><glyph d="M85 3 435 339V375L85 39ZM85 -4C99 -4 110 7 110 21C110 35 99 46 85 46C72 46 60 35 60 21C60 7 72 -4 85 -4Z" glyph-name="line.003.051" horiz-adv-x="350" /><glyph d="M85 3 435 346V382L85 39ZM85 -4C99 -4 110 7 110 21C110 35 99 46 85 46C72 46 60 35 60 21C60 7 72 -4 85 -4Z" glyph-name="line.003.052" horiz-adv-x="350" /><glyph d="M85 2 435 352V390L85 40ZM85 -4C99 -4 110 7 110 21C110 35 99 46 85 46C72 46 60 35 60 21C60 7 72 -4 85 -4Z" glyph-name="line.003.053" horiz-adv-x="350" /><glyph d="M85 2 435 359V397L85 40ZM85 -4C99 -4 110 7 110 21C110 35 99 46 85 46C72 46 60 35 60 21C60 7 72 -4 85 -4Z" glyph-name="line.003.054" horiz-adv-x="350" /><glyph d="M85 2 435 366V404L85 40ZM85 -4C99 -4 110 7 110 21C110 35 99 46 85 46C72 46 60 35 60 21C60 7 72 -4 85 -4Z" glyph-name="line.003.055" horiz-adv-x="350" /><glyph d="M85 2 435 373V411L85 40ZM85 -4C99 -4 110 7 110 21C110 35 99 46 85 46C72 46 60 35 60 21C60 7 72 -4 85 -4Z" glyph-name="line.003.056" horiz-adv-x="350" /><glyph d="M85 1 435 379V419L85 41ZM85 -4C99 -4 110 7 110 21C110 35 99 46 85 46C72 46 60 35 60 21C60 7 72 -4 85 -4Z" glyph-name="line.003.057" horiz-adv-x="350" /><glyph d="M85 1 435 386V426L85 41ZM85 -4C99 -4 110 7 110 21C110 35 99 46 85 46C72 46 60 35 60 21C60 7 72 -4 85 -4Z" glyph-name="line.003.058" horiz-adv-x="350" /><glyph d="M85 1 435 393V433L85 41ZM85 -4C99 -4 110 7 110 21C110 35 99 46 85 46C72 46 60 35 60 21C60 7 72 -4 85 -4Z" glyph-name="line.003.059" horiz-adv-x="350" /><glyph d="M85 0 435 399V441L85 42ZM85 -4C99 -4 110 7 110 21C110 35 99 46 85 46C72 46 60 35 60 21C60 7 72 -4 85 -4Z" glyph-name="line.003.060" horiz-adv-x="350" /><glyph d="M85 0 435 406V448L85 42ZM85 -4C99 -4 110 7 110 21C110 35 99 46 85 46C72 46 60 35 60 21C60 7 72 -4 85 -4Z" glyph-name="line.003.061" horiz-adv-x="350" /><glyph d="M85 0 435 413V455L85 42ZM85 -4C99 -4 110 7 110 21C110 35 99 46 85 46C72 46 60 35 60 21C60 7 72 -4 85 -4Z" glyph-name="line.003.062" horiz-adv-x="350" /><glyph d="M85 -1 435 419V463L85 43ZM85 -4C99 -4 110 7 110 21C110 35 99 46 85 46C72 46 60 35 60 21C60 7 72 -4 85 -4Z" glyph-name="line.003.063" horiz-adv-x="350" /><glyph d="M85 -1 435 426V470L85 43ZM85 -4C99 -4 110 7 110 21C110 35 99 46 85 46C72 46 60 35 60 21C60 7 72 -4 85 -4Z" glyph-name="line.003.064" horiz-adv-x="350" /><glyph d="M85 -1 435 433V477L85 43ZM85 -4C99 -4 110 7 110 21C110 35 99 46 85 46C72 46 60 35 60 21C60 7 72 -4 85 -4Z" glyph-name="line.003.065" horiz-adv-x="350" /><glyph d="M85 -1 435 440V484L85 43ZM85 -4C99 -4 110 7 110 21C110 35 99 46 85 46C72 46 60 35 60 21C60 7 72 -4 85 -4Z" glyph-name="line.003.066" horiz-adv-x="350" /><glyph d="M85 -1 435 447V491L85 43ZM85 -4C99 -4 110 7 110 21C110 35 99 46 85 46C72 46 60 35 60 21C60 7 72 -4 85 -4Z" glyph-name="line.003.067" horiz-adv-x="350" /><glyph d="M85 -2 435 453V499L85 44ZM85 -4C99 -4 110 7 110 21C110 35 99 46 85 46C72 46 60 35 60 21C60 7 72 -4 85 -4Z" glyph-name="line.003.068" horiz-adv-x="350" /><glyph d="M85 -2 435 460V506L85 44ZM85 -4C99 -4 110 7 110 21C110 35 99 46 85 46C72 46 60 35 60 21C60 7 72 -4 85 -4Z" glyph-name="line.003.069" horiz-adv-x="350" /><glyph d="M85 -4 435 465V515L85 46ZM85 -4C99 -4 110 7 110 21C110 35 99 46 85 46C72 46 60 35 60 21C60 7 72 -4 85 -4Z" glyph-name="line.003.070" horiz-adv-x="350" /><glyph d="M85 -3 435 473V521L85 45ZM85 -4C99 -4 110 7 110 21C110 35 99 46 85 46C72 46 60 35 60 21C60 7 72 -4 85 -4Z" glyph-name="line.003.071" horiz-adv-x="350" /><glyph d="M85 -3 435 481V529L85 45ZM85 -4C99 -4 110 7 110 21C110 35 99 46 85 46C72 46 60 35 60 21C60 7 72 -4 85 -4Z" glyph-name="line.003.072" horiz-adv-x="350" /><glyph d="M85 -3 435 487V535L85 45ZM85 -4C99 -4 110 7 110 21C110 35 99 46 85 46C72 46 60 35 60 21C60 7 72 -4 85 -4Z" glyph-name="line.003.073" horiz-adv-x="350" /><glyph d="M85 -3 435 494V542L85 45ZM85 -4C99 -4 110 7 110 21C110 35 99 46 85 46C72 46 60 35 60 21C60 7 72 -4 85 -4Z" glyph-name="line.003.074" horiz-adv-x="350" /><glyph d="M85 -3 435 501V549L85 45ZM85 -4C99 -4 110 7 110 21C110 35 99 46 85 46C72 46 60 35 60 21C60 7 72 -4 85 -4Z" glyph-name="line.003.075" horiz-adv-x="350" /><glyph d="M85 -4 435 507V557L85 46ZM85 -4C99 -4 110 7 110 21C110 35 99 46 85 46C72 46 60 35 60 21C60 7 72 -4 85 -4Z" glyph-name="line.003.076" horiz-adv-x="350" /><glyph d="M85 -4 435 514V564L85 46ZM85 -4C99 -4 110 7 110 21C110 35 99 46 85 46C72 46 60 35 60 21C60 7 72 -4 85 -4Z" glyph-name="line.003.077" horiz-adv-x="350" /><glyph d="M85 -4 435 521V571L85 46ZM85 -4C99 -4 110 7 110 21C110 35 99 46 85 46C72 46 60 35 60 21C60 7 72 -4 85 -4Z" glyph-name="line.003.078" horiz-adv-x="350" /><glyph d="M85 -4 435 528V578L85 46ZM85 -4C99 -4 110 7 110 21C110 35 99 46 85 46C72 46 60 35 60 21C60 7 72 -4 85 -4Z" glyph-name="line.003.079" horiz-adv-x="350" /><glyph d="M87 -2 437 537 433 583 83 44ZM85 -4C99 -4 110 7 110 21C110 35 99 46 85 46C72 46 60 35 60 21C60 7 72 -4 85 -4Z" glyph-name="line.003.080" horiz-adv-x="350" /><glyph d="M87 -2 437 544 433 590 83 44ZM85 -4C99 -4 110 7 110 21C110 35 99 46 85 46C72 46 60 35 60 21C60 7 72 -4 85 -4Z" glyph-name="line.003.081" horiz-adv-x="350" /><glyph d="M90 3 440 556 430 592 80 39ZM85 -4C99 -4 110 7 110 21C110 35 99 46 85 46C72 46 60 35 60 21C60 7 72 -4 85 -4Z" glyph-name="line.003.082" horiz-adv-x="350" /><glyph d="M90 3 440 563 430 599 80 39ZM85 -4C99 -4 110 7 110 21C110 35 99 46 85 46C72 46 60 35 60 21C60 7 72 -4 85 -4Z" glyph-name="line.003.083" horiz-adv-x="350" /><glyph d="M87 -2 438 567 432 609 82 42ZM85 -4C99 -4 110 7 110 21C110 35 99 46 85 46C72 46 60 35 60 21C60 7 72 -4 85 -4Z" glyph-name="line.003.084" horiz-adv-x="350" /><glyph d="M88 -1 440 576 432 617 82 43ZM85 -4C99 -4 110 7 110 21C110 35 99 46 85 46C72 46 60 35 60 21C60 7 72 -4 85 -4Z" glyph-name="line.003.085" horiz-adv-x="350" /><glyph d="M88 -1 447 595 423 609 82 43ZM85 -4C99 -4 110 7 110 21C110 35 99 46 85 46C72 46 60 35 60 21C60 7 72 -4 85 -4Z" glyph-name="line.003.086" horiz-adv-x="350" /><glyph d="M88 -2 447 601 422 615 81 42ZM85 -4C99 -4 110 7 110 21C110 35 99 46 85 46C72 46 60 35 60 21C60 7 72 -4 85 -4Z" glyph-name="line.003.087" horiz-adv-x="350" /><glyph d="M88 -2 444 603 422 622 78 37ZM85 -4C99 -4 110 7 110 21C110 35 99 46 85 46C72 46 60 35 60 21C60 7 72 -4 85 -4Z" glyph-name="line.003.088" horiz-adv-x="350" /><glyph d="M88 -3 445 611 421 628 77 36ZM85 -4C99 -4 110 7 110 21C110 35 99 46 85 46C72 46 60 35 60 21C60 7 72 -4 85 -4Z" glyph-name="line.003.089" horiz-adv-x="350" /><glyph d="M88 -2 446 621 423 637 82 44ZM85 -4C99 -4 110 7 110 21C110 35 99 46 85 46C72 46 60 35 60 21C60 7 72 -4 85 -4Z" glyph-name="line.003.090" horiz-adv-x="350" /><glyph d="M89 -1 447 629 423 645 81 43ZM85 -4C99 -4 110 7 110 21C110 35 99 46 85 46C72 46 60 35 60 21C60 7 72 -4 85 -4Z" glyph-name="line.003.091" horiz-adv-x="350" /><glyph d="M89 -1 445 633 422 650 81 43ZM85 -4C99 -4 110 7 110 21C110 35 99 46 85 46C72 46 60 35 60 21C60 7 72 -4 85 -4Z" glyph-name="line.003.092" horiz-adv-x="350" /><glyph d="M90 1 449 647 425 662 80 41ZM85 -4C99 -4 110 7 110 21C110 35 99 46 85 46C72 46 60 35 60 21C60 7 72 -4 85 -4Z" glyph-name="line.003.093" horiz-adv-x="350" /><glyph d="M90 1 445 647 423 665 80 41ZM85 -4C99 -4 110 7 110 21C110 35 99 46 85 46C72 46 60 35 60 21C60 7 72 -4 85 -4Z" glyph-name="line.003.094" horiz-adv-x="350" /><glyph d="M91 3 447 658 423 672 79 39ZM85 -4C99 -4 110 7 110 21C110 35 99 46 85 46C72 46 60 35 60 21C60 7 72 -4 85 -4Z" glyph-name="line.003.095" horiz-adv-x="350" /><glyph d="M92 4 451 672 427 687 78 38ZM85 -4C99 -4 110 7 110 21C110 35 99 46 85 46C72 46 60 35 60 21C60 7 72 -4 85 -4Z" glyph-name="line.003.096" horiz-adv-x="350" /><glyph d="M93 6 448 673 424 688 77 36ZM85 -4C99 -4 110 7 110 21C110 35 99 46 85 46C72 46 60 35 60 21C60 7 72 -4 85 -4Z" glyph-name="line.003.097" horiz-adv-x="350" /><glyph d="M94 8 449 683 426 699 76 34ZM85 -4C99 -4 110 7 110 21C110 35 99 46 85 46C72 46 60 35 60 21C60 7 72 -4 85 -4Z" glyph-name="line.003.098" horiz-adv-x="350" /><glyph d="M96 11 448 687 424 703 74 31ZM85 -4C99 -4 110 7 110 21C110 35 99 46 85 46C72 46 60 35 60 21C60 7 72 -4 85 -4Z" glyph-name="line.003.099" horiz-adv-x="350" /><glyph d="M99 17 444 686 419 700 71 25ZM85 -4C99 -4 110 7 110 21C110 35 99 46 85 46C72 46 60 35 60 21C60 7 72 -4 85 -4Z" glyph-name="line.003.100" horiz-adv-x="350" /><glyph d="M85 41 435 13V-13L85 15ZM85 53C99 53 110 42 110 28C110 14 99 3 85 3C72 3 60 14 60 28C60 42 72 53 85 53Z" glyph-name="line.004.000" horiz-adv-x="350" /><glyph d="M85 41 435 20V-6L85 15ZM85 53C99 53 110 42 110 28C110 14 99 3 85 3C72 3 60 14 60 28C60 42 72 53 85 53Z" glyph-name="line.004.001" horiz-adv-x="350" /><glyph d="M85 41 435 27V1L85 15ZM85 53C99 53 110 42 110 28C110 14 99 3 85 3C72 3 60 14 60 28C60 42 72 53 85 53Z" glyph-name="line.004.002" horiz-adv-x="350" /><glyph d="M85 41 435 34V8L85 15ZM85 53C99 53 110 42 110 28C110 14 99 3 85 3C72 3 60 14 60 28C60 42 72 53 85 53Z" glyph-name="line.004.003" horiz-adv-x="350" /><glyph d="M85 15H435V41H85ZM85 3C99 3 110 14 110 28C110 42 99 53 85 53C72 53 60 42 60 28C60 14 72 3 85 3Z" glyph-name="line.004.004" horiz-adv-x="350" /><glyph d="M85 15 435 22V48L85 41ZM85 3C99 3 110 14 110 28C110 42 99 53 85 53C72 53 60 42 60 28C60 14 72 3 85 3Z" glyph-name="line.004.005" horiz-adv-x="350" /><glyph d="M85 15 435 29V55L85 41ZM85 3C99 3 110 14 110 28C110 42 99 53 85 53C72 53 60 42 60 28C60 14 72 3 85 3Z" glyph-name="line.004.006" horiz-adv-x="350" /><glyph d="M85 15 435 36V62L85 41ZM85 3C99 3 110 14 110 28C110 42 99 53 85 53C72 53 60 42 60 28C60 14 72 3 85 3Z" glyph-name="line.004.007" horiz-adv-x="350" /><glyph d="M85 15 435 43V69L85 41ZM85 3C99 3 110 14 110 28C110 42 99 53 85 53C72 53 60 42 60 28C60 14 72 3 85 3Z" glyph-name="line.004.008" horiz-adv-x="350" /><glyph d="M85 15 435 50V76L85 41ZM85 3C99 3 110 14 110 28C110 42 99 53 85 53C72 53 60 42 60 28C60 14 72 3 85 3Z" glyph-name="line.004.009" horiz-adv-x="350" /><glyph d="M85 15 435 57V83L85 41ZM85 3C99 3 110 14 110 28C110 42 99 53 85 53C72 53 60 42 60 28C60 14 72 3 85 3Z" glyph-name="line.004.010" horiz-adv-x="350" /><glyph d="M85 15 435 64V90L85 41ZM85 3C99 3 110 14 110 28C110 42 99 53 85 53C72 53 60 42 60 28C60 14 72 3 85 3Z" glyph-name="line.004.011" horiz-adv-x="350" /><glyph d="M85 15 435 71V97L85 41ZM85 3C99 3 110 14 110 28C110 42 99 53 85 53C72 53 60 42 60 28C60 14 72 3 85 3Z" glyph-name="line.004.012" horiz-adv-x="350" /><glyph d="M85 15 435 78V104L85 41ZM85 3C99 3 110 14 110 28C110 42 99 53 85 53C72 53 60 42 60 28C60 14 72 3 85 3Z" glyph-name="line.004.013" horiz-adv-x="350" /><glyph d="M85 14 435 84V112L85 42ZM85 3C99 3 110 14 110 28C110 42 99 53 85 53C72 53 60 42 60 28C60 14 72 3 85 3Z" glyph-name="line.004.014" horiz-adv-x="350" /><glyph d="M85 14 435 91V119L85 42ZM85 3C99 3 110 14 110 28C110 42 99 53 85 53C72 53 60 42 60 28C60 14 72 3 85 3Z" glyph-name="line.004.015" horiz-adv-x="350" /><glyph d="M85 14 435 98V126L85 42ZM85 3C99 3 110 14 110 28C110 42 99 53 85 53C72 53 60 42 60 28C60 14 72 3 85 3Z" glyph-name="line.004.016" horiz-adv-x="350" /><glyph d="M85 14 435 105V133L85 42ZM85 3C99 3 110 14 110 28C110 42 99 53 85 53C72 53 60 42 60 28C60 14 72 3 85 3Z" glyph-name="line.004.017" horiz-adv-x="350" /><glyph d="M85 14 435 112V140L85 42ZM85 3C99 3 110 14 110 28C110 42 99 53 85 53C72 53 60 42 60 28C60 14 72 3 85 3Z" glyph-name="line.004.018" horiz-adv-x="350" /><glyph d="M85 14 435 119V147L85 42ZM85 3C99 3 110 14 110 28C110 42 99 53 85 53C72 53 60 42 60 28C60 14 72 3 85 3Z" glyph-name="line.004.019" horiz-adv-x="350" /><glyph d="M85 14 435 126V154L85 42ZM85 3C99 3 110 14 110 28C110 42 99 53 85 53C72 53 60 42 60 28C60 14 72 3 85 3Z" glyph-name="line.004.020" horiz-adv-x="350" /><glyph d="M85 14 435 133V161L85 42ZM85 3C99 3 110 14 110 28C110 42 99 53 85 53C72 53 60 42 60 28C60 14 72 3 85 3Z" glyph-name="line.004.021" horiz-adv-x="350" /><glyph d="M85 14 435 140V168L85 42ZM85 3C99 3 110 14 110 28C110 42 99 53 85 53C72 53 60 42 60 28C60 14 72 3 85 3Z" glyph-name="line.004.022" horiz-adv-x="350" /><glyph d="M85 14 435 147V175L85 42ZM85 3C99 3 110 14 110 28C110 42 99 53 85 53C72 53 60 42 60 28C60 14 72 3 85 3Z" glyph-name="line.004.023" horiz-adv-x="350" /><glyph d="M85 14 435 154V182L85 42ZM85 3C99 3 110 14 110 28C110 42 99 53 85 53C72 53 60 42 60 28C60 14 72 3 85 3Z" glyph-name="line.004.024" horiz-adv-x="350" /><glyph d="M85 14 435 161V189L85 42ZM85 3C99 3 110 14 110 28C110 42 99 53 85 53C72 53 60 42 60 28C60 14 72 3 85 3Z" glyph-name="line.004.025" horiz-adv-x="350" /><glyph d="M85 14 435 168V196L85 42ZM85 3C99 3 110 14 110 28C110 42 99 53 85 53C72 53 60 42 60 28C60 14 72 3 85 3Z" glyph-name="line.004.026" horiz-adv-x="350" /><glyph d="M85 14 435 175V203L85 42ZM85 3C99 3 110 14 110 28C110 42 99 53 85 53C72 53 60 42 60 28C60 14 72 3 85 3Z" glyph-name="line.004.027" horiz-adv-x="350" /><glyph d="M85 14 435 182V210L85 42ZM85 3C99 3 110 14 110 28C110 42 99 53 85 53C72 53 60 42 60 28C60 14 72 3 85 3Z" glyph-name="line.004.028" horiz-adv-x="350" /><glyph d="M85 13 435 188V218L85 43ZM85 3C99 3 110 14 110 28C110 42 99 53 85 53C72 53 60 42 60 28C60 14 72 3 85 3Z" glyph-name="line.004.029" horiz-adv-x="350" /><glyph d="M85 13 435 195V225L85 43ZM85 3C99 3 110 14 110 28C110 42 99 53 85 53C72 53 60 42 60 28C60 14 72 3 85 3Z" glyph-name="line.004.030" horiz-adv-x="350" /><glyph d="M85 13 435 202V232L85 43ZM85 3C99 3 110 14 110 28C110 42 99 53 85 53C72 53 60 42 60 28C60 14 72 3 85 3Z" glyph-name="line.004.031" horiz-adv-x="350" /><glyph d="M85 13 435 209V239L85 43ZM85 3C99 3 110 14 110 28C110 42 99 53 85 53C72 53 60 42 60 28C60 14 72 3 85 3Z" glyph-name="line.004.032" horiz-adv-x="350" /><glyph d="M85 13 435 216V246L85 43ZM85 3C99 3 110 14 110 28C110 42 99 53 85 53C72 53 60 42 60 28C60 14 72 3 85 3Z" glyph-name="line.004.033" horiz-adv-x="350" /><glyph d="M85 13 435 223V253L85 43ZM85 3C99 3 110 14 110 28C110 42 99 53 85 53C72 53 60 42 60 28C60 14 72 3 85 3Z" glyph-name="line.004.034" horiz-adv-x="350" /><glyph d="M85 13 435 230V260L85 43ZM85 3C99 3 110 14 110 28C110 42 99 53 85 53C72 53 60 42 60 28C60 14 72 3 85 3Z" glyph-name="line.004.035" horiz-adv-x="350" /><glyph d="M85 13 435 237V267L85 43ZM85 3C99 3 110 14 110 28C110 42 99 53 85 53C72 53 60 42 60 28C60 14 72 3 85 3Z" glyph-name="line.004.036" horiz-adv-x="350" /><glyph d="M85 13 435 244V274L85 43ZM85 3C99 3 110 14 110 28C110 42 99 53 85 53C72 53 60 42 60 28C60 14 72 3 85 3Z" glyph-name="line.004.037" horiz-adv-x="350" /><glyph d="M85 13 435 251V281L85 43ZM85 3C99 3 110 14 110 28C110 42 99 53 85 53C72 53 60 42 60 28C60 14 72 3 85 3Z" glyph-name="line.004.038" horiz-adv-x="350" /><glyph d="M85 12 435 257V289L85 44ZM85 3C99 3 110 14 110 28C110 42 99 53 85 53C72 53 60 42 60 28C60 14 72 3 85 3Z" glyph-name="line.004.039" horiz-adv-x="350" /><glyph d="M85 12 435 264V296L85 44ZM85 3C99 3 110 14 110 28C110 42 99 53 85 53C72 53 60 42 60 28C60 14 72 3 85 3Z" glyph-name="line.004.040" horiz-adv-x="350" /><glyph d="M85 12 435 271V303L85 44ZM85 3C99 3 110 14 110 28C110 42 99 53 85 53C72 53 60 42 60 28C60 14 72 3 85 3Z" glyph-name="line.004.041" horiz-adv-x="350" /><glyph d="M85 12 435 278V310L85 44ZM85 3C99 3 110 14 110 28C110 42 99 53 85 53C72 53 60 42 60 28C60 14 72 3 85 3Z" glyph-name="line.004.042" horiz-adv-x="350" /><glyph d="M85 12 435 285V317L85 44ZM85 3C99 3 110 14 110 28C110 42 99 53 85 53C72 53 60 42 60 28C60 14 72 3 85 3Z" glyph-name="line.004.043" horiz-adv-x="350" /><glyph d="M85 11 435 291V325L85 45ZM85 3C99 3 110 14 110 28C110 42 99 53 85 53C72 53 60 42 60 28C60 14 72 3 85 3Z" glyph-name="line.004.044" horiz-adv-x="350" /><glyph d="M85 11 435 298V332L85 45ZM85 3C99 3 110 14 110 28C110 42 99 53 85 53C72 53 60 42 60 28C60 14 72 3 85 3Z" glyph-name="line.004.045" horiz-adv-x="350" /><glyph d="M85 11 435 305V339L85 45ZM85 3C99 3 110 14 110 28C110 42 99 53 85 53C72 53 60 42 60 28C60 14 72 3 85 3Z" glyph-name="line.004.046" horiz-adv-x="350" /><glyph d="M85 11 435 312V346L85 45ZM85 3C99 3 110 14 110 28C110 42 99 53 85 53C72 53 60 42 60 28C60 14 72 3 85 3Z" glyph-name="line.004.047" horiz-adv-x="350" /><glyph d="M85 11 435 319V353L85 45ZM85 3C99 3 110 14 110 28C110 42 99 53 85 53C72 53 60 42 60 28C60 14 72 3 85 3Z" glyph-name="line.004.048" horiz-adv-x="350" /><glyph d="M85 10 435 325V361L85 46ZM85 3C99 3 110 14 110 28C110 42 99 53 85 53C72 53 60 42 60 28C60 14 72 3 85 3Z" glyph-name="line.004.049" horiz-adv-x="350" /><glyph d="M85 10 435 332V368L85 46ZM85 3C99 3 110 14 110 28C110 42 99 53 85 53C72 53 60 42 60 28C60 14 72 3 85 3Z" glyph-name="line.004.050" horiz-adv-x="350" /><glyph d="M85 10 435 339V375L85 46ZM85 3C99 3 110 14 110 28C110 42 99 53 85 53C72 53 60 42 60 28C60 14 72 3 85 3Z" glyph-name="line.004.051" horiz-adv-x="350" /><glyph d="M85 10 435 346V382L85 46ZM85 3C99 3 110 14 110 28C110 42 99 53 85 53C72 53 60 42 60 28C60 14 72 3 85 3Z" glyph-name="line.004.052" horiz-adv-x="350" /><glyph d="M85 10 435 353V389L85 46ZM85 3C99 3 110 14 110 28C110 42 99 53 85 53C72 53 60 42 60 28C60 14 72 3 85 3Z" glyph-name="line.004.053" horiz-adv-x="350" /><glyph d="M85 9 435 359V397L85 47ZM85 3C99 3 110 14 110 28C110 42 99 53 85 53C72 53 60 42 60 28C60 14 72 3 85 3Z" glyph-name="line.004.054" horiz-adv-x="350" /><glyph d="M85 9 435 366V404L85 47ZM85 3C99 3 110 14 110 28C110 42 99 53 85 53C72 53 60 42 60 28C60 14 72 3 85 3Z" glyph-name="line.004.055" horiz-adv-x="350" /><glyph d="M85 9 435 373V411L85 47ZM85 3C99 3 110 14 110 28C110 42 99 53 85 53C72 53 60 42 60 28C60 14 72 3 85 3Z" glyph-name="line.004.056" horiz-adv-x="350" /><glyph d="M85 9 435 380V418L85 47ZM85 3C99 3 110 14 110 28C110 42 99 53 85 53C72 53 60 42 60 28C60 14 72 3 85 3Z" glyph-name="line.004.057" horiz-adv-x="350" /><glyph d="M85 8 435 386V426L85 48ZM85 3C99 3 110 14 110 28C110 42 99 53 85 53C72 53 60 42 60 28C60 14 72 3 85 3Z" glyph-name="line.004.058" horiz-adv-x="350" /><glyph d="M85 8 435 393V433L85 48ZM85 3C99 3 110 14 110 28C110 42 99 53 85 53C72 53 60 42 60 28C60 14 72 3 85 3Z" glyph-name="line.004.059" horiz-adv-x="350" /><glyph d="M85 8 435 400V440L85 48ZM85 3C99 3 110 14 110 28C110 42 99 53 85 53C72 53 60 42 60 28C60 14 72 3 85 3Z" glyph-name="line.004.060" horiz-adv-x="350" /><glyph d="M85 7 435 406V448L85 49ZM85 3C99 3 110 14 110 28C110 42 99 53 85 53C72 53 60 42 60 28C60 14 72 3 85 3Z" glyph-name="line.004.061" horiz-adv-x="350" /><glyph d="M85 7 435 413V455L85 49ZM85 3C99 3 110 14 110 28C110 42 99 53 85 53C72 53 60 42 60 28C60 14 72 3 85 3Z" glyph-name="line.004.062" horiz-adv-x="350" /><glyph d="M85 7 435 420V462L85 49ZM85 3C99 3 110 14 110 28C110 42 99 53 85 53C72 53 60 42 60 28C60 14 72 3 85 3Z" glyph-name="line.004.063" horiz-adv-x="350" /><glyph d="M85 6 435 426V470L85 50ZM85 3C99 3 110 14 110 28C110 42 99 53 85 53C72 53 60 42 60 28C60 14 72 3 85 3Z" glyph-name="line.004.064" horiz-adv-x="350" /><glyph d="M85 6 435 433V477L85 50ZM85 3C99 3 110 14 110 28C110 42 99 53 85 53C72 53 60 42 60 28C60 14 72 3 85 3Z" glyph-name="line.004.065" horiz-adv-x="350" /><glyph d="M85 6 435 440V484L85 50ZM85 3C99 3 110 14 110 28C110 42 99 53 85 53C72 53 60 42 60 28C60 14 72 3 85 3Z" glyph-name="line.004.066" horiz-adv-x="350" /><glyph d="M85 6 435 447V491L85 50ZM85 3C99 3 110 14 110 28C110 42 99 53 85 53C72 53 60 42 60 28C60 14 72 3 85 3Z" glyph-name="line.004.067" horiz-adv-x="350" /><glyph d="M85 6 435 454V498L85 50ZM85 3C99 3 110 14 110 28C110 42 99 53 85 53C72 53 60 42 60 28C60 14 72 3 85 3Z" glyph-name="line.004.068" horiz-adv-x="350" /><glyph d="M85 5 435 460V506L85 51ZM85 3C99 3 110 14 110 28C110 42 99 53 85 53C72 53 60 42 60 28C60 14 72 3 85 3Z" glyph-name="line.004.069" horiz-adv-x="350" /><glyph d="M85 5 435 467V513L85 51ZM85 3C99 3 110 14 110 28C110 42 99 53 85 53C72 53 60 42 60 28C60 14 72 3 85 3Z" glyph-name="line.004.070" horiz-adv-x="350" /><glyph d="M85 3 435 472V522L85 53ZM85 3C99 3 110 14 110 28C110 42 99 53 85 53C72 53 60 42 60 28C60 14 72 3 85 3Z" glyph-name="line.004.071" horiz-adv-x="350" /><glyph d="M85 4 435 480V528L85 52ZM85 3C99 3 110 14 110 28C110 42 99 53 85 53C72 53 60 42 60 28C60 14 72 3 85 3Z" glyph-name="line.004.072" horiz-adv-x="350" /><glyph d="M85 4 435 488V536L85 52ZM85 3C99 3 110 14 110 28C110 42 99 53 85 53C72 53 60 42 60 28C60 14 72 3 85 3Z" glyph-name="line.004.073" horiz-adv-x="350" /><glyph d="M85 4 435 494V542L85 52ZM85 3C99 3 110 14 110 28C110 42 99 53 85 53C72 53 60 42 60 28C60 14 72 3 85 3Z" glyph-name="line.004.074" horiz-adv-x="350" /><glyph d="M85 4 435 501V549L85 52ZM85 3C99 3 110 14 110 28C110 42 99 53 85 53C72 53 60 42 60 28C60 14 72 3 85 3Z" glyph-name="line.004.075" horiz-adv-x="350" /><glyph d="M85 4 435 508V556L85 52ZM85 3C99 3 110 14 110 28C110 42 99 53 85 53C72 53 60 42 60 28C60 14 72 3 85 3Z" glyph-name="line.004.076" horiz-adv-x="350" /><glyph d="M85 3 435 514V564L85 53ZM85 3C99 3 110 14 110 28C110 42 99 53 85 53C72 53 60 42 60 28C60 14 72 3 85 3Z" glyph-name="line.004.077" horiz-adv-x="350" /><glyph d="M85 3 435 521V571L85 53ZM85 3C99 3 110 14 110 28C110 42 99 53 85 53C72 53 60 42 60 28C60 14 72 3 85 3Z" glyph-name="line.004.078" horiz-adv-x="350" /><glyph d="M85 3 435 528V578L85 53ZM85 3C99 3 110 14 110 28C110 42 99 53 85 53C72 53 60 42 60 28C60 14 72 3 85 3Z" glyph-name="line.004.079" horiz-adv-x="350" /><glyph d="M85 3 435 535V585L85 53ZM85 3C99 3 110 14 110 28C110 42 99 53 85 53C72 53 60 42 60 28C60 14 72 3 85 3Z" glyph-name="line.004.080" horiz-adv-x="350" /><glyph d="M87 5 437 544 433 590 83 51ZM85 3C99 3 110 14 110 28C110 42 99 53 85 53C72 53 60 42 60 28C60 14 72 3 85 3Z" glyph-name="line.004.081" horiz-adv-x="350" /><glyph d="M87 5 437 551 433 597 83 51ZM85 3C99 3 110 14 110 28C110 42 99 53 85 53C72 53 60 42 60 28C60 14 72 3 85 3Z" glyph-name="line.004.082" horiz-adv-x="350" /><glyph d="M90 10 440 563 430 599 80 46ZM85 3C99 3 110 14 110 28C110 42 99 53 85 53C72 53 60 42 60 28C60 14 72 3 85 3Z" glyph-name="line.004.083" horiz-adv-x="350" /><glyph d="M90 10 440 570 430 606 80 46ZM85 3C99 3 110 14 110 28C110 42 99 53 85 53C72 53 60 42 60 28C60 14 72 3 85 3Z" glyph-name="line.004.084" horiz-adv-x="350" /><glyph d="M87 5 438 574 432 616 82 49ZM85 3C99 3 110 14 110 28C110 42 99 53 85 53C72 53 60 42 60 28C60 14 72 3 85 3Z" glyph-name="line.004.085" horiz-adv-x="350" /><glyph d="M88 6 440 583 432 624 82 50ZM85 3C99 3 110 14 110 28C110 42 99 53 85 53C72 53 60 42 60 28C60 14 72 3 85 3Z" glyph-name="line.004.086" horiz-adv-x="350" /><glyph d="M88 6 447 602 423 616 82 50ZM85 3C99 3 110 14 110 28C110 42 99 53 85 53C72 53 60 42 60 28C60 14 72 3 85 3Z" glyph-name="line.004.087" horiz-adv-x="350" /><glyph d="M88 5 447 608 422 622 81 49ZM85 3C99 3 110 14 110 28C110 42 99 53 85 53C72 53 60 42 60 28C60 14 72 3 85 3Z" glyph-name="line.004.088" horiz-adv-x="350" /><glyph d="M88 5 444 610 422 629 78 44ZM85 3C99 3 110 14 110 28C110 42 99 53 85 53C72 53 60 42 60 28C60 14 72 3 85 3Z" glyph-name="line.004.089" horiz-adv-x="350" /><glyph d="M88 4 445 618 421 635 77 43ZM85 3C99 3 110 14 110 28C110 42 99 53 85 53C72 53 60 42 60 28C60 14 72 3 85 3Z" glyph-name="line.004.090" horiz-adv-x="350" /><glyph d="M88 5 446 628 423 644 82 51ZM85 3C99 3 110 14 110 28C110 42 99 53 85 53C72 53 60 42 60 28C60 14 72 3 85 3Z" glyph-name="line.004.091" horiz-adv-x="350" /><glyph d="M89 6 447 636 423 652 81 50ZM85 3C99 3 110 14 110 28C110 42 99 53 85 53C72 53 60 42 60 28C60 14 72 3 85 3Z" glyph-name="line.004.092" horiz-adv-x="350" /><glyph d="M89 6 445 640 422 657 81 50ZM85 3C99 3 110 14 110 28C110 42 99 53 85 53C72 53 60 42 60 28C60 14 72 3 85 3Z" glyph-name="line.004.093" horiz-adv-x="350" /><glyph d="M90 8 449 654 425 669 80 48ZM85 3C99 3 110 14 110 28C110 42 99 53 85 53C72 53 60 42 60 28C60 14 72 3 85 3Z" glyph-name="line.004.094" horiz-adv-x="350" /><glyph d="M90 8 445 654 423 672 80 48ZM85 3C99 3 110 14 110 28C110 42 99 53 85 53C72 53 60 42 60 28C60 14 72 3 85 3Z" glyph-name="line.004.095" horiz-adv-x="350" /><glyph d="M91 10 447 665 423 679 79 46ZM85 3C99 3 110 14 110 28C110 42 99 53 85 53C72 53 60 42 60 28C60 14 72 3 85 3Z" glyph-name="line.004.096" horiz-adv-x="350" /><glyph d="M92 11 451 679 427 694 78 45ZM85 3C99 3 110 14 110 28C110 42 99 53 85 53C72 53 60 42 60 28C60 14 72 3 85 3Z" glyph-name="line.004.097" horiz-adv-x="350" /><glyph d="M93 13 448 680 424 695 77 43ZM85 3C99 3 110 14 110 28C110 42 99 53 85 53C72 53 60 42 60 28C60 14 72 3 85 3Z" glyph-name="line.004.098" horiz-adv-x="350" /><glyph d="M94 15 449 690 426 706 76 41ZM85 3C99 3 110 14 110 28C110 42 99 53 85 53C72 53 60 42 60 28C60 14 72 3 85 3Z" glyph-name="line.004.099" horiz-adv-x="350" /><glyph d="M96 18 448 694 424 710 74 38ZM85 3C99 3 110 14 110 28C110 42 99 53 85 53C72 53 60 42 60 28C60 14 72 3 85 3Z" glyph-name="line.004.100" horiz-adv-x="350" /><glyph d="M85 48 435 13V-13L85 22ZM85 60C99 60 110 49 110 35C110 21 99 10 85 10C72 10 60 21 60 35C60 49 72 60 85 60Z" glyph-name="line.005.000" horiz-adv-x="350" /><glyph d="M85 48 435 20V-6L85 22ZM85 60C99 60 110 49 110 35C110 21 99 10 85 10C72 10 60 21 60 35C60 49 72 60 85 60Z" glyph-name="line.005.001" horiz-adv-x="350" /><glyph d="M85 48 435 27V1L85 22ZM85 60C99 60 110 49 110 35C110 21 99 10 85 10C72 10 60 21 60 35C60 49 72 60 85 60Z" glyph-name="line.005.002" horiz-adv-x="350" /><glyph d="M85 48 435 34V8L85 22ZM85 60C99 60 110 49 110 35C110 21 99 10 85 10C72 10 60 21 60 35C60 49 72 60 85 60Z" glyph-name="line.005.003" horiz-adv-x="350" /><glyph d="M85 48 435 41V15L85 22ZM85 60C99 60 110 49 110 35C110 21 99 10 85 10C72 10 60 21 60 35C60 49 72 60 85 60Z" glyph-name="line.005.004" horiz-adv-x="350" /><glyph d="M85 22H435V48H85ZM85 10C99 10 110 21 110 35C110 49 99 60 85 60C72 60 60 49 60 35C60 21 72 10 85 10Z" glyph-name="line.005.005" horiz-adv-x="350" /><glyph d="M85 22 435 29V55L85 48ZM85 10C99 10 110 21 110 35C110 49 99 60 85 60C72 60 60 49 60 35C60 21 72 10 85 10Z" glyph-name="line.005.006" horiz-adv-x="350" /><glyph d="M85 22 435 36V62L85 48ZM85 10C99 10 110 21 110 35C110 49 99 60 85 60C72 60 60 49 60 35C60 21 72 10 85 10Z" glyph-name="line.005.007" horiz-adv-x="350" /><glyph d="M85 22 435 43V69L85 48ZM85 10C99 10 110 21 110 35C110 49 99 60 85 60C72 60 60 49 60 35C60 21 72 10 85 10Z" glyph-name="line.005.008" horiz-adv-x="350" /><glyph d="M85 22 435 50V76L85 48ZM85 10C99 10 110 21 110 35C110 49 99 60 85 60C72 60 60 49 60 35C60 21 72 10 85 10Z" glyph-name="line.005.009" horiz-adv-x="350" /><glyph d="M85 22 435 57V83L85 48ZM85 10C99 10 110 21 110 35C110 49 99 60 85 60C72 60 60 49 60 35C60 21 72 10 85 10Z" glyph-name="line.005.010" horiz-adv-x="350" /><glyph d="M85 22 435 64V90L85 48ZM85 10C99 10 110 21 110 35C110 49 99 60 85 60C72 60 60 49 60 35C60 21 72 10 85 10Z" glyph-name="line.005.011" horiz-adv-x="350" /><glyph d="M85 22 435 71V97L85 48ZM85 10C99 10 110 21 110 35C110 49 99 60 85 60C72 60 60 49 60 35C60 21 72 10 85 10Z" glyph-name="line.005.012" horiz-adv-x="350" /><glyph d="M85 22 435 78V104L85 48ZM85 10C99 10 110 21 110 35C110 49 99 60 85 60C72 60 60 49 60 35C60 21 72 10 85 10Z" glyph-name="line.005.013" horiz-adv-x="350" /><glyph d="M85 22 435 85V111L85 48ZM85 10C99 10 110 21 110 35C110 49 99 60 85 60C72 60 60 49 60 35C60 21 72 10 85 10Z" glyph-name="line.005.014" horiz-adv-x="350" /><glyph d="M85 21 435 91V119L85 49ZM85 10C99 10 110 21 110 35C110 49 99 60 85 60C72 60 60 49 60 35C60 21 72 10 85 10Z" glyph-name="line.005.015" horiz-adv-x="350" /><glyph d="M85 21 435 98V126L85 49ZM85 10C99 10 110 21 110 35C110 49 99 60 85 60C72 60 60 49 60 35C60 21 72 10 85 10Z" glyph-name="line.005.016" horiz-adv-x="350" /><glyph d="M85 21 435 105V133L85 49ZM85 10C99 10 110 21 110 35C110 49 99 60 85 60C72 60 60 49 60 35C60 21 72 10 85 10Z" glyph-name="line.005.017" horiz-adv-x="350" /><glyph d="M85 21 435 112V140L85 49ZM85 10C99 10 110 21 110 35C110 49 99 60 85 60C72 60 60 49 60 35C60 21 72 10 85 10Z" glyph-name="line.005.018" horiz-adv-x="350" /><glyph d="M85 21 435 119V147L85 49ZM85 10C99 10 110 21 110 35C110 49 99 60 85 60C72 60 60 49 60 35C60 21 72 10 85 10Z" glyph-name="line.005.019" horiz-adv-x="350" /><glyph d="M85 21 435 126V154L85 49ZM85 10C99 10 110 21 110 35C110 49 99 60 85 60C72 60 60 49 60 35C60 21 72 10 85 10Z" glyph-name="line.005.020" horiz-adv-x="350" /><glyph d="M85 21 435 133V161L85 49ZM85 10C99 10 110 21 110 35C110 49 99 60 85 60C72 60 60 49 60 35C60 21 72 10 85 10Z" glyph-name="line.005.021" horiz-adv-x="350" /><glyph d="M85 21 435 140V168L85 49ZM85 10C99 10 110 21 110 35C110 49 99 60 85 60C72 60 60 49 60 35C60 21 72 10 85 10Z" glyph-name="line.005.022" horiz-adv-x="350" /><glyph d="M85 21 435 147V175L85 49ZM85 10C99 10 110 21 110 35C110 49 99 60 85 60C72 60 60 49 60 35C60 21 72 10 85 10Z" glyph-name="line.005.023" horiz-adv-x="350" /><glyph d="M85 21 435 154V182L85 49ZM85 10C99 10 110 21 110 35C110 49 99 60 85 60C72 60 60 49 60 35C60 21 72 10 85 10Z" glyph-name="line.005.024" horiz-adv-x="350" /><glyph d="M85 21 435 161V189L85 49ZM85 10C99 10 110 21 110 35C110 49 99 60 85 60C72 60 60 49 60 35C60 21 72 10 85 10Z" glyph-name="line.005.025" horiz-adv-x="350" /><glyph d="M85 21 435 168V196L85 49ZM85 10C99 10 110 21 110 35C110 49 99 60 85 60C72 60 60 49 60 35C60 21 72 10 85 10Z" glyph-name="line.005.026" horiz-adv-x="350" /><glyph d="M85 21 435 175V203L85 49ZM85 10C99 10 110 21 110 35C110 49 99 60 85 60C72 60 60 49 60 35C60 21 72 10 85 10Z" glyph-name="line.005.027" horiz-adv-x="350" /><glyph d="M85 21 435 182V210L85 49ZM85 10C99 10 110 21 110 35C110 49 99 60 85 60C72 60 60 49 60 35C60 21 72 10 85 10Z" glyph-name="line.005.028" horiz-adv-x="350" /><glyph d="M85 21 435 189V217L85 49ZM85 10C99 10 110 21 110 35C110 49 99 60 85 60C72 60 60 49 60 35C60 21 72 10 85 10Z" glyph-name="line.005.029" horiz-adv-x="350" /><glyph d="M85 20 435 195V225L85 50ZM85 10C99 10 110 21 110 35C110 49 99 60 85 60C72 60 60 49 60 35C60 21 72 10 85 10Z" glyph-name="line.005.030" horiz-adv-x="350" /><glyph d="M85 20 435 202V232L85 50ZM85 10C99 10 110 21 110 35C110 49 99 60 85 60C72 60 60 49 60 35C60 21 72 10 85 10Z" glyph-name="line.005.031" horiz-adv-x="350" /><glyph d="M85 20 435 209V239L85 50ZM85 10C99 10 110 21 110 35C110 49 99 60 85 60C72 60 60 49 60 35C60 21 72 10 85 10Z" glyph-name="line.005.032" horiz-adv-x="350" /><glyph d="M85 20 435 216V246L85 50ZM85 10C99 10 110 21 110 35C110 49 99 60 85 60C72 60 60 49 60 35C60 21 72 10 85 10Z" glyph-name="line.005.033" horiz-adv-x="350" /><glyph d="M85 20 435 223V253L85 50ZM85 10C99 10 110 21 110 35C110 49 99 60 85 60C72 60 60 49 60 35C60 21 72 10 85 10Z" glyph-name="line.005.034" horiz-adv-x="350" /><glyph d="M85 20 435 230V260L85 50ZM85 10C99 10 110 21 110 35C110 49 99 60 85 60C72 60 60 49 60 35C60 21 72 10 85 10Z" glyph-name="line.005.035" horiz-adv-x="350" /><glyph d="M85 20 435 237V267L85 50ZM85 10C99 10 110 21 110 35C110 49 99 60 85 60C72 60 60 49 60 35C60 21 72 10 85 10Z" glyph-name="line.005.036" horiz-adv-x="350" /><glyph d="M85 20 435 244V274L85 50ZM85 10C99 10 110 21 110 35C110 49 99 60 85 60C72 60 60 49 60 35C60 21 72 10 85 10Z" glyph-name="line.005.037" horiz-adv-x="350" /><glyph d="M85 20 435 251V281L85 50ZM85 10C99 10 110 21 110 35C110 49 99 60 85 60C72 60 60 49 60 35C60 21 72 10 85 10Z" glyph-name="line.005.038" horiz-adv-x="350" /><glyph d="M85 20 435 258V288L85 50ZM85 10C99 10 110 21 110 35C110 49 99 60 85 60C72 60 60 49 60 35C60 21 72 10 85 10Z" glyph-name="line.005.039" horiz-adv-x="350" /><glyph d="M85 19 435 264V296L85 51ZM85 10C99 10 110 21 110 35C110 49 99 60 85 60C72 60 60 49 60 35C60 21 72 10 85 10Z" glyph-name="line.005.040" horiz-adv-x="350" /><glyph d="M85 19 435 271V303L85 51ZM85 10C99 10 110 21 110 35C110 49 99 60 85 60C72 60 60 49 60 35C60 21 72 10 85 10Z" glyph-name="line.005.041" horiz-adv-x="350" /><glyph d="M85 19 435 278V310L85 51ZM85 10C99 10 110 21 110 35C110 49 99 60 85 60C72 60 60 49 60 35C60 21 72 10 85 10Z" glyph-name="line.005.042" horiz-adv-x="350" /><glyph d="M85 19 435 285V317L85 51ZM85 10C99 10 110 21 110 35C110 49 99 60 85 60C72 60 60 49 60 35C60 21 72 10 85 10Z" glyph-name="line.005.043" horiz-adv-x="350" /><glyph d="M85 19 435 292V324L85 51ZM85 10C99 10 110 21 110 35C110 49 99 60 85 60C72 60 60 49 60 35C60 21 72 10 85 10Z" glyph-name="line.005.044" horiz-adv-x="350" /><glyph d="M85 18 435 298V332L85 52ZM85 10C99 10 110 21 110 35C110 49 99 60 85 60C72 60 60 49 60 35C60 21 72 10 85 10Z" glyph-name="line.005.045" horiz-adv-x="350" /><glyph d="M85 18 435 305V339L85 52ZM85 10C99 10 110 21 110 35C110 49 99 60 85 60C72 60 60 49 60 35C60 21 72 10 85 10Z" glyph-name="line.005.046" horiz-adv-x="350" /><glyph d="M85 18 435 312V346L85 52ZM85 10C99 10 110 21 110 35C110 49 99 60 85 60C72 60 60 49 60 35C60 21 72 10 85 10Z" glyph-name="line.005.047" horiz-adv-x="350" /><glyph d="M85 18 435 319V353L85 52ZM85 10C99 10 110 21 110 35C110 49 99 60 85 60C72 60 60 49 60 35C60 21 72 10 85 10Z" glyph-name="line.005.048" horiz-adv-x="350" /><glyph d="M85 18 435 326V360L85 52ZM85 10C99 10 110 21 110 35C110 49 99 60 85 60C72 60 60 49 60 35C60 21 72 10 85 10Z" glyph-name="line.005.049" horiz-adv-x="350" /><glyph d="M85 17 435 332V368L85 53ZM85 10C99 10 110 21 110 35C110 49 99 60 85 60C72 60 60 49 60 35C60 21 72 10 85 10Z" glyph-name="line.005.050" horiz-adv-x="350" /><glyph d="M85 17 435 339V375L85 53ZM85 10C99 10 110 21 110 35C110 49 99 60 85 60C72 60 60 49 60 35C60 21 72 10 85 10Z" glyph-name="line.005.051" horiz-adv-x="350" /><glyph d="M85 17 435 346V382L85 53ZM85 10C99 10 110 21 110 35C110 49 99 60 85 60C72 60 60 49 60 35C60 21 72 10 85 10Z" glyph-name="line.005.052" horiz-adv-x="350" /><glyph d="M85 17 435 353V389L85 53ZM85 10C99 10 110 21 110 35C110 49 99 60 85 60C72 60 60 49 60 35C60 21 72 10 85 10Z" glyph-name="line.005.053" horiz-adv-x="350" /><glyph d="M85 17 435 360V396L85 53ZM85 10C99 10 110 21 110 35C110 49 99 60 85 60C72 60 60 49 60 35C60 21 72 10 85 10Z" glyph-name="line.005.054" horiz-adv-x="350" /><glyph d="M85 16 435 366V404L85 54ZM85 10C99 10 110 21 110 35C110 49 99 60 85 60C72 60 60 49 60 35C60 21 72 10 85 10Z" glyph-name="line.005.055" horiz-adv-x="350" /><glyph d="M85 16 435 373V411L85 54ZM85 10C99 10 110 21 110 35C110 49 99 60 85 60C72 60 60 49 60 35C60 21 72 10 85 10Z" glyph-name="line.005.056" horiz-adv-x="350" /><glyph d="M85 16 435 380V418L85 54ZM85 10C99 10 110 21 110 35C110 49 99 60 85 60C72 60 60 49 60 35C60 21 72 10 85 10Z" glyph-name="line.005.057" horiz-adv-x="350" /><glyph d="M85 16 435 387V425L85 54ZM85 10C99 10 110 21 110 35C110 49 99 60 85 60C72 60 60 49 60 35C60 21 72 10 85 10Z" glyph-name="line.005.058" horiz-adv-x="350" /><glyph d="M85 15 435 393V433L85 55ZM85 10C99 10 110 21 110 35C110 49 99 60 85 60C72 60 60 49 60 35C60 21 72 10 85 10Z" glyph-name="line.005.059" horiz-adv-x="350" /><glyph d="M85 15 435 400V440L85 55ZM85 10C99 10 110 21 110 35C110 49 99 60 85 60C72 60 60 49 60 35C60 21 72 10 85 10Z" glyph-name="line.005.060" horiz-adv-x="350" /><glyph d="M85 15 435 407V447L85 55ZM85 10C99 10 110 21 110 35C110 49 99 60 85 60C72 60 60 49 60 35C60 21 72 10 85 10Z" glyph-name="line.005.061" horiz-adv-x="350" /><glyph d="M85 14 435 413V455L85 56ZM85 10C99 10 110 21 110 35C110 49 99 60 85 60C72 60 60 49 60 35C60 21 72 10 85 10Z" glyph-name="line.005.062" horiz-adv-x="350" /><glyph d="M85 14 435 420V462L85 56ZM85 10C99 10 110 21 110 35C110 49 99 60 85 60C72 60 60 49 60 35C60 21 72 10 85 10Z" glyph-name="line.005.063" horiz-adv-x="350" /><glyph d="M85 14 435 427V469L85 56ZM85 10C99 10 110 21 110 35C110 49 99 60 85 60C72 60 60 49 60 35C60 21 72 10 85 10Z" glyph-name="line.005.064" horiz-adv-x="350" /><glyph d="M85 13 435 433V477L85 57ZM85 10C99 10 110 21 110 35C110 49 99 60 85 60C72 60 60 49 60 35C60 21 72 10 85 10Z" glyph-name="line.005.065" horiz-adv-x="350" /><glyph d="M85 13 435 440V484L85 57ZM85 10C99 10 110 21 110 35C110 49 99 60 85 60C72 60 60 49 60 35C60 21 72 10 85 10Z" glyph-name="line.005.066" horiz-adv-x="350" /><glyph d="M85 13 435 447V491L85 57ZM85 10C99 10 110 21 110 35C110 49 99 60 85 60C72 60 60 49 60 35C60 21 72 10 85 10Z" glyph-name="line.005.067" horiz-adv-x="350" /><glyph d="M85 13 435 454V498L85 57ZM85 10C99 10 110 21 110 35C110 49 99 60 85 60C72 60 60 49 60 35C60 21 72 10 85 10Z" glyph-name="line.005.068" horiz-adv-x="350" /><glyph d="M85 13 435 461V505L85 57ZM85 10C99 10 110 21 110 35C110 49 99 60 85 60C72 60 60 49 60 35C60 21 72 10 85 10Z" glyph-name="line.005.069" horiz-adv-x="350" /><glyph d="M85 12 435 467V513L85 58ZM85 10C99 10 110 21 110 35C110 49 99 60 85 60C72 60 60 49 60 35C60 21 72 10 85 10Z" glyph-name="line.005.070" horiz-adv-x="350" /><glyph d="M85 12 435 474V520L85 58ZM85 10C99 10 110 21 110 35C110 49 99 60 85 60C72 60 60 49 60 35C60 21 72 10 85 10Z" glyph-name="line.005.071" horiz-adv-x="350" /><glyph d="M85 10 435 479V529L85 60ZM85 10C99 10 110 21 110 35C110 49 99 60 85 60C72 60 60 49 60 35C60 21 72 10 85 10Z" glyph-name="line.005.072" horiz-adv-x="350" /><glyph d="M85 11 435 487V535L85 59ZM85 10C99 10 110 21 110 35C110 49 99 60 85 60C72 60 60 49 60 35C60 21 72 10 85 10Z" glyph-name="line.005.073" horiz-adv-x="350" /><glyph d="M85 11 435 495V543L85 59ZM85 10C99 10 110 21 110 35C110 49 99 60 85 60C72 60 60 49 60 35C60 21 72 10 85 10Z" glyph-name="line.005.074" horiz-adv-x="350" /><glyph d="M85 11 435 501V549L85 59ZM85 10C99 10 110 21 110 35C110 49 99 60 85 60C72 60 60 49 60 35C60 21 72 10 85 10Z" glyph-name="line.005.075" horiz-adv-x="350" /><glyph d="M85 11 435 508V556L85 59ZM85 10C99 10 110 21 110 35C110 49 99 60 85 60C72 60 60 49 60 35C60 21 72 10 85 10Z" glyph-name="line.005.076" horiz-adv-x="350" /><glyph d="M85 11 435 515V563L85 59ZM85 10C99 10 110 21 110 35C110 49 99 60 85 60C72 60 60 49 60 35C60 21 72 10 85 10Z" glyph-name="line.005.077" horiz-adv-x="350" /><glyph d="M85 10 435 521V571L85 60ZM85 10C99 10 110 21 110 35C110 49 99 60 85 60C72 60 60 49 60 35C60 21 72 10 85 10Z" glyph-name="line.005.078" horiz-adv-x="350" /><glyph d="M85 10 435 528V578L85 60ZM85 10C99 10 110 21 110 35C110 49 99 60 85 60C72 60 60 49 60 35C60 21 72 10 85 10Z" glyph-name="line.005.079" horiz-adv-x="350" /><glyph d="M85 10 435 535V585L85 60ZM85 10C99 10 110 21 110 35C110 49 99 60 85 60C72 60 60 49 60 35C60 21 72 10 85 10Z" glyph-name="line.005.080" horiz-adv-x="350" /><glyph d="M85 10 435 542V592L85 60ZM85 10C99 10 110 21 110 35C110 49 99 60 85 60C72 60 60 49 60 35C60 21 72 10 85 10Z" glyph-name="line.005.081" horiz-adv-x="350" /><glyph d="M87 12 437 551 433 597 83 58ZM85 10C99 10 110 21 110 35C110 49 99 60 85 60C72 60 60 49 60 35C60 21 72 10 85 10Z" glyph-name="line.005.082" horiz-adv-x="350" /><glyph d="M87 12 437 558 433 604 83 58ZM85 10C99 10 110 21 110 35C110 49 99 60 85 60C72 60 60 49 60 35C60 21 72 10 85 10Z" glyph-name="line.005.083" horiz-adv-x="350" /><glyph d="M90 17 440 570 430 606 80 53ZM85 10C99 10 110 21 110 35C110 49 99 60 85 60C72 60 60 49 60 35C60 21 72 10 85 10Z" glyph-name="line.005.084" horiz-adv-x="350" /><glyph d="M90 17 440 577 430 613 80 53ZM85 10C99 10 110 21 110 35C110 49 99 60 85 60C72 60 60 49 60 35C60 21 72 10 85 10Z" glyph-name="line.005.085" horiz-adv-x="350" /><glyph d="M87 12 438 581 432 623 82 56ZM85 10C99 10 110 21 110 35C110 49 99 60 85 60C72 60 60 49 60 35C60 21 72 10 85 10Z" glyph-name="line.005.086" horiz-adv-x="350" /><glyph d="M88 13 440 590 432 631 82 57ZM85 10C99 10 110 21 110 35C110 49 99 60 85 60C72 60 60 49 60 35C60 21 72 10 85 10Z" glyph-name="line.005.087" horiz-adv-x="350" /><glyph d="M88 13 447 609 423 623 82 57ZM85 10C99 10 110 21 110 35C110 49 99 60 85 60C72 60 60 49 60 35C60 21 72 10 85 10Z" glyph-name="line.005.088" horiz-adv-x="350" /><glyph d="M88 12 447 615 422 629 81 56ZM85 10C99 10 110 21 110 35C110 49 99 60 85 60C72 60 60 49 60 35C60 21 72 10 85 10Z" glyph-name="line.005.089" horiz-adv-x="350" /><glyph d="M88 12 444 617 422 636 78 51ZM85 10C99 10 110 21 110 35C110 49 99 60 85 60C72 60 60 49 60 35C60 21 72 10 85 10Z" glyph-name="line.005.090" horiz-adv-x="350" /><glyph d="M88 11 445 625 421 642 77 50ZM85 10C99 10 110 21 110 35C110 49 99 60 85 60C72 60 60 49 60 35C60 21 72 10 85 10Z" glyph-name="line.005.091" horiz-adv-x="350" /><glyph d="M88 12 446 635 423 651 82 58ZM85 10C99 10 110 21 110 35C110 49 99 60 85 60C72 60 60 49 60 35C60 21 72 10 85 10Z" glyph-name="line.005.092" horiz-adv-x="350" /><glyph d="M89 13 447 643 423 659 81 57ZM85 10C99 10 110 21 110 35C110 49 99 60 85 60C72 60 60 49 60 35C60 21 72 10 85 10Z" glyph-name="line.005.093" horiz-adv-x="350" /><glyph d="M89 13 445 647 422 664 81 57ZM85 10C99 10 110 21 110 35C110 49 99 60 85 60C72 60 60 49 60 35C60 21 72 10 85 10Z" glyph-name="line.005.094" horiz-adv-x="350" /><glyph d="M90 15 449 661 425 676 80 55ZM85 10C99 10 110 21 110 35C110 49 99 60 85 60C72 60 60 49 60 35C60 21 72 10 85 10Z" glyph-name="line.005.095" horiz-adv-x="350" /><glyph d="M90 15 445 661 423 679 80 55ZM85 10C99 10 110 21 110 35C110 49 99 60 85 60C72 60 60 49 60 35C60 21 72 10 85 10Z" glyph-name="line.005.096" horiz-adv-x="350" /><glyph d="M91 17 447 672 423 686 79 53ZM85 10C99 10 110 21 110 35C110 49 99 60 85 60C72 60 60 49 60 35C60 21 72 10 85 10Z" glyph-name="line.005.097" horiz-adv-x="350" /><glyph d="M92 18 451 686 427 701 78 52ZM85 10C99 10 110 21 110 35C110 49 99 60 85 60C72 60 60 49 60 35C60 21 72 10 85 10Z" glyph-name="line.005.098" horiz-adv-x="350" /><glyph d="M93 20 448 687 424 702 77 50ZM85 10C99 10 110 21 110 35C110 49 99 60 85 60C72 60 60 49 60 35C60 21 72 10 85 10Z" glyph-name="line.005.099" horiz-adv-x="350" /><glyph d="M94 22 449 697 426 713 76 48ZM85 10C99 10 110 21 110 35C110 49 99 60 85 60C72 60 60 49 60 35C60 21 72 10 85 10Z" glyph-name="line.005.100" horiz-adv-x="350" /><glyph d="M85 55 435 13V-13L85 29ZM85 67C99 67 110 56 110 42C110 28 99 17 85 17C72 17 60 28 60 42C60 56 72 67 85 67Z" glyph-name="line.006.000" horiz-adv-x="350" /><glyph d="M85 55 435 20V-6L85 29ZM85 67C99 67 110 56 110 42C110 28 99 17 85 17C72 17 60 28 60 42C60 56 72 67 85 67Z" glyph-name="line.006.001" horiz-adv-x="350" /><glyph d="M85 55 435 27V1L85 29ZM85 67C99 67 110 56 110 42C110 28 99 17 85 17C72 17 60 28 60 42C60 56 72 67 85 67Z" glyph-name="line.006.002" horiz-adv-x="350" /><glyph d="M85 55 435 34V8L85 29ZM85 67C99 67 110 56 110 42C110 28 99 17 85 17C72 17 60 28 60 42C60 56 72 67 85 67Z" glyph-name="line.006.003" horiz-adv-x="350" /><glyph d="M85 55 435 41V15L85 29ZM85 67C99 67 110 56 110 42C110 28 99 17 85 17C72 17 60 28 60 42C60 56 72 67 85 67Z" glyph-name="line.006.004" horiz-adv-x="350" /><glyph d="M85 55 435 48V22L85 29ZM85 67C99 67 110 56 110 42C110 28 99 17 85 17C72 17 60 28 60 42C60 56 72 67 85 67Z" glyph-name="line.006.005" horiz-adv-x="350" /><glyph d="M85 29H435V55H85ZM85 17C99 17 110 28 110 42C110 56 99 67 85 67C72 67 60 56 60 42C60 28 72 17 85 17Z" glyph-name="line.006.006" horiz-adv-x="350" /><glyph d="M85 29 435 36V62L85 55ZM85 17C99 17 110 28 110 42C110 56 99 67 85 67C72 67 60 56 60 42C60 28 72 17 85 17Z" glyph-name="line.006.007" horiz-adv-x="350" /><glyph d="M85 29 435 43V69L85 55ZM85 17C99 17 110 28 110 42C110 56 99 67 85 67C72 67 60 56 60 42C60 28 72 17 85 17Z" glyph-name="line.006.008" horiz-adv-x="350" /><glyph d="M85 29 435 50V76L85 55ZM85 17C99 17 110 28 110 42C110 56 99 67 85 67C72 67 60 56 60 42C60 28 72 17 85 17Z" glyph-name="line.006.009" horiz-adv-x="350" /><glyph d="M85 29 435 57V83L85 55ZM85 17C99 17 110 28 110 42C110 56 99 67 85 67C72 67 60 56 60 42C60 28 72 17 85 17Z" glyph-name="line.006.010" horiz-adv-x="350" /><glyph d="M85 29 435 64V90L85 55ZM85 17C99 17 110 28 110 42C110 56 99 67 85 67C72 67 60 56 60 42C60 28 72 17 85 17Z" glyph-name="line.006.011" horiz-adv-x="350" /><glyph d="M85 29 435 71V97L85 55ZM85 17C99 17 110 28 110 42C110 56 99 67 85 67C72 67 60 56 60 42C60 28 72 17 85 17Z" glyph-name="line.006.012" horiz-adv-x="350" /><glyph d="M85 29 435 78V104L85 55ZM85 17C99 17 110 28 110 42C110 56 99 67 85 67C72 67 60 56 60 42C60 28 72 17 85 17Z" glyph-name="line.006.013" horiz-adv-x="350" /><glyph d="M85 29 435 85V111L85 55ZM85 17C99 17 110 28 110 42C110 56 99 67 85 67C72 67 60 56 60 42C60 28 72 17 85 17Z" glyph-name="line.006.014" horiz-adv-x="350" /><glyph d="M85 29 435 92V118L85 55ZM85 17C99 17 110 28 110 42C110 56 99 67 85 67C72 67 60 56 60 42C60 28 72 17 85 17Z" glyph-name="line.006.015" horiz-adv-x="350" /><glyph d="M85 28 435 98V126L85 56ZM85 17C99 17 110 28 110 42C110 56 99 67 85 67C72 67 60 56 60 42C60 28 72 17 85 17Z" glyph-name="line.006.016" horiz-adv-x="350" /><glyph d="M85 28 435 105V133L85 56ZM85 17C99 17 110 28 110 42C110 56 99 67 85 67C72 67 60 56 60 42C60 28 72 17 85 17Z" glyph-name="line.006.017" horiz-adv-x="350" /><glyph d="M85 28 435 112V140L85 56ZM85 17C99 17 110 28 110 42C110 56 99 67 85 67C72 67 60 56 60 42C60 28 72 17 85 17Z" glyph-name="line.006.018" horiz-adv-x="350" /><glyph d="M85 28 435 119V147L85 56ZM85 17C99 17 110 28 110 42C110 56 99 67 85 67C72 67 60 56 60 42C60 28 72 17 85 17Z" glyph-name="line.006.019" horiz-adv-x="350" /><glyph d="M85 28 435 126V154L85 56ZM85 17C99 17 110 28 110 42C110 56 99 67 85 67C72 67 60 56 60 42C60 28 72 17 85 17Z" glyph-name="line.006.020" horiz-adv-x="350" /><glyph d="M85 28 435 133V161L85 56ZM85 17C99 17 110 28 110 42C110 56 99 67 85 67C72 67 60 56 60 42C60 28 72 17 85 17Z" glyph-name="line.006.021" horiz-adv-x="350" /><glyph d="M85 28 435 140V168L85 56ZM85 17C99 17 110 28 110 42C110 56 99 67 85 67C72 67 60 56 60 42C60 28 72 17 85 17Z" glyph-name="line.006.022" horiz-adv-x="350" /><glyph d="M85 28 435 147V175L85 56ZM85 17C99 17 110 28 110 42C110 56 99 67 85 67C72 67 60 56 60 42C60 28 72 17 85 17Z" glyph-name="line.006.023" horiz-adv-x="350" /><glyph d="M85 28 435 154V182L85 56ZM85 17C99 17 110 28 110 42C110 56 99 67 85 67C72 67 60 56 60 42C60 28 72 17 85 17Z" glyph-name="line.006.024" horiz-adv-x="350" /><glyph d="M85 28 435 161V189L85 56ZM85 17C99 17 110 28 110 42C110 56 99 67 85 67C72 67 60 56 60 42C60 28 72 17 85 17Z" glyph-name="line.006.025" horiz-adv-x="350" /><glyph d="M85 28 435 168V196L85 56ZM85 17C99 17 110 28 110 42C110 56 99 67 85 67C72 67 60 56 60 42C60 28 72 17 85 17Z" glyph-name="line.006.026" horiz-adv-x="350" /><glyph d="M85 28 435 175V203L85 56ZM85 17C99 17 110 28 110 42C110 56 99 67 85 67C72 67 60 56 60 42C60 28 72 17 85 17Z" glyph-name="line.006.027" horiz-adv-x="350" /><glyph d="M85 28 435 182V210L85 56ZM85 17C99 17 110 28 110 42C110 56 99 67 85 67C72 67 60 56 60 42C60 28 72 17 85 17Z" glyph-name="line.006.028" horiz-adv-x="350" /><glyph d="M85 28 435 189V217L85 56ZM85 17C99 17 110 28 110 42C110 56 99 67 85 67C72 67 60 56 60 42C60 28 72 17 85 17Z" glyph-name="line.006.029" horiz-adv-x="350" /><glyph d="M85 28 435 196V224L85 56ZM85 17C99 17 110 28 110 42C110 56 99 67 85 67C72 67 60 56 60 42C60 28 72 17 85 17Z" glyph-name="line.006.030" horiz-adv-x="350" /><glyph d="M85 27 435 202V232L85 57ZM85 17C99 17 110 28 110 42C110 56 99 67 85 67C72 67 60 56 60 42C60 28 72 17 85 17Z" glyph-name="line.006.031" horiz-adv-x="350" /><glyph d="M85 27 435 209V239L85 57ZM85 17C99 17 110 28 110 42C110 56 99 67 85 67C72 67 60 56 60 42C60 28 72 17 85 17Z" glyph-name="line.006.032" horiz-adv-x="350" /><glyph d="M85 27 435 216V246L85 57ZM85 17C99 17 110 28 110 42C110 56 99 67 85 67C72 67 60 56 60 42C60 28 72 17 85 17Z" glyph-name="line.006.033" horiz-adv-x="350" /><glyph d="M85 27 435 223V253L85 57ZM85 17C99 17 110 28 110 42C110 56 99 67 85 67C72 67 60 56 60 42C60 28 72 17 85 17Z" glyph-name="line.006.034" horiz-adv-x="350" /><glyph d="M85 27 435 230V260L85 57ZM85 17C99 17 110 28 110 42C110 56 99 67 85 67C72 67 60 56 60 42C60 28 72 17 85 17Z" glyph-name="line.006.035" horiz-adv-x="350" /><glyph d="M85 27 435 237V267L85 57ZM85 17C99 17 110 28 110 42C110 56 99 67 85 67C72 67 60 56 60 42C60 28 72 17 85 17Z" glyph-name="line.006.036" horiz-adv-x="350" /><glyph d="M85 27 435 244V274L85 57ZM85 17C99 17 110 28 110 42C110 56 99 67 85 67C72 67 60 56 60 42C60 28 72 17 85 17Z" glyph-name="line.006.037" horiz-adv-x="350" /><glyph d="M85 27 435 251V281L85 57ZM85 17C99 17 110 28 110 42C110 56 99 67 85 67C72 67 60 56 60 42C60 28 72 17 85 17Z" glyph-name="line.006.038" horiz-adv-x="350" /><glyph d="M85 27 435 258V288L85 57ZM85 17C99 17 110 28 110 42C110 56 99 67 85 67C72 67 60 56 60 42C60 28 72 17 85 17Z" glyph-name="line.006.039" horiz-adv-x="350" /><glyph d="M85 27 435 265V295L85 57ZM85 17C99 17 110 28 110 42C110 56 99 67 85 67C72 67 60 56 60 42C60 28 72 17 85 17Z" glyph-name="line.006.040" horiz-adv-x="350" /><glyph d="M85 26 435 271V303L85 58ZM85 17C99 17 110 28 110 42C110 56 99 67 85 67C72 67 60 56 60 42C60 28 72 17 85 17Z" glyph-name="line.006.041" horiz-adv-x="350" /><glyph d="M85 26 435 278V310L85 58ZM85 17C99 17 110 28 110 42C110 56 99 67 85 67C72 67 60 56 60 42C60 28 72 17 85 17Z" glyph-name="line.006.042" horiz-adv-x="350" /><glyph d="M85 26 435 285V317L85 58ZM85 17C99 17 110 28 110 42C110 56 99 67 85 67C72 67 60 56 60 42C60 28 72 17 85 17Z" glyph-name="line.006.043" horiz-adv-x="350" /><glyph d="M85 26 435 292V324L85 58ZM85 17C99 17 110 28 110 42C110 56 99 67 85 67C72 67 60 56 60 42C60 28 72 17 85 17Z" glyph-name="line.006.044" horiz-adv-x="350" /><glyph d="M85 26 435 299V331L85 58ZM85 17C99 17 110 28 110 42C110 56 99 67 85 67C72 67 60 56 60 42C60 28 72 17 85 17Z" glyph-name="line.006.045" horiz-adv-x="350" /><glyph d="M85 25 435 305V339L85 59ZM85 17C99 17 110 28 110 42C110 56 99 67 85 67C72 67 60 56 60 42C60 28 72 17 85 17Z" glyph-name="line.006.046" horiz-adv-x="350" /><glyph d="M85 25 435 312V346L85 59ZM85 17C99 17 110 28 110 42C110 56 99 67 85 67C72 67 60 56 60 42C60 28 72 17 85 17Z" glyph-name="line.006.047" horiz-adv-x="350" /><glyph d="M85 25 435 319V353L85 59ZM85 17C99 17 110 28 110 42C110 56 99 67 85 67C72 67 60 56 60 42C60 28 72 17 85 17Z" glyph-name="line.006.048" horiz-adv-x="350" /><glyph d="M85 25 435 326V360L85 59ZM85 17C99 17 110 28 110 42C110 56 99 67 85 67C72 67 60 56 60 42C60 28 72 17 85 17Z" glyph-name="line.006.049" horiz-adv-x="350" /><glyph d="M85 25 435 333V367L85 59ZM85 17C99 17 110 28 110 42C110 56 99 67 85 67C72 67 60 56 60 42C60 28 72 17 85 17Z" glyph-name="line.006.050" horiz-adv-x="350" /><glyph d="M85 24 435 339V375L85 60ZM85 17C99 17 110 28 110 42C110 56 99 67 85 67C72 67 60 56 60 42C60 28 72 17 85 17Z" glyph-name="line.006.051" horiz-adv-x="350" /><glyph d="M85 24 435 346V382L85 60ZM85 17C99 17 110 28 110 42C110 56 99 67 85 67C72 67 60 56 60 42C60 28 72 17 85 17Z" glyph-name="line.006.052" horiz-adv-x="350" /><glyph d="M85 24 435 353V389L85 60ZM85 17C99 17 110 28 110 42C110 56 99 67 85 67C72 67 60 56 60 42C60 28 72 17 85 17Z" glyph-name="line.006.053" horiz-adv-x="350" /><glyph d="M85 24 435 360V396L85 60ZM85 17C99 17 110 28 110 42C110 56 99 67 85 67C72 67 60 56 60 42C60 28 72 17 85 17Z" glyph-name="line.006.054" horiz-adv-x="350" /><glyph d="M85 24 435 367V403L85 60ZM85 17C99 17 110 28 110 42C110 56 99 67 85 67C72 67 60 56 60 42C60 28 72 17 85 17Z" glyph-name="line.006.055" horiz-adv-x="350" /><glyph d="M85 23 435 373V411L85 61ZM85 17C99 17 110 28 110 42C110 56 99 67 85 67C72 67 60 56 60 42C60 28 72 17 85 17Z" glyph-name="line.006.056" horiz-adv-x="350" /><glyph d="M85 23 435 380V418L85 61ZM85 17C99 17 110 28 110 42C110 56 99 67 85 67C72 67 60 56 60 42C60 28 72 17 85 17Z" glyph-name="line.006.057" horiz-adv-x="350" /><glyph d="M85 23 435 387V425L85 61ZM85 17C99 17 110 28 110 42C110 56 99 67 85 67C72 67 60 56 60 42C60 28 72 17 85 17Z" glyph-name="line.006.058" horiz-adv-x="350" /><glyph d="M85 23 435 394V432L85 61ZM85 17C99 17 110 28 110 42C110 56 99 67 85 67C72 67 60 56 60 42C60 28 72 17 85 17Z" glyph-name="line.006.059" horiz-adv-x="350" /><glyph d="M85 22 435 400V440L85 62ZM85 17C99 17 110 28 110 42C110 56 99 67 85 67C72 67 60 56 60 42C60 28 72 17 85 17Z" glyph-name="line.006.060" horiz-adv-x="350" /><glyph d="M85 22 435 407V447L85 62ZM85 17C99 17 110 28 110 42C110 56 99 67 85 67C72 67 60 56 60 42C60 28 72 17 85 17Z" glyph-name="line.006.061" horiz-adv-x="350" /><glyph d="M85 22 435 414V454L85 62ZM85 17C99 17 110 28 110 42C110 56 99 67 85 67C72 67 60 56 60 42C60 28 72 17 85 17Z" glyph-name="line.006.062" horiz-adv-x="350" /><glyph d="M85 21 435 420V462L85 63ZM85 17C99 17 110 28 110 42C110 56 99 67 85 67C72 67 60 56 60 42C60 28 72 17 85 17Z" glyph-name="line.006.063" horiz-adv-x="350" /><glyph d="M85 21 435 427V469L85 63ZM85 17C99 17 110 28 110 42C110 56 99 67 85 67C72 67 60 56 60 42C60 28 72 17 85 17Z" glyph-name="line.006.064" horiz-adv-x="350" /><glyph d="M85 21 435 434V476L85 63ZM85 17C99 17 110 28 110 42C110 56 99 67 85 67C72 67 60 56 60 42C60 28 72 17 85 17Z" glyph-name="line.006.065" horiz-adv-x="350" /><glyph d="M85 20 435 440V484L85 64ZM85 17C99 17 110 28 110 42C110 56 99 67 85 67C72 67 60 56 60 42C60 28 72 17 85 17Z" glyph-name="line.006.066" horiz-adv-x="350" /><glyph d="M85 20 435 447V491L85 64ZM85 17C99 17 110 28 110 42C110 56 99 67 85 67C72 67 60 56 60 42C60 28 72 17 85 17Z" glyph-name="line.006.067" horiz-adv-x="350" /><glyph d="M85 20 435 454V498L85 64ZM85 17C99 17 110 28 110 42C110 56 99 67 85 67C72 67 60 56 60 42C60 28 72 17 85 17Z" glyph-name="line.006.068" horiz-adv-x="350" /><glyph d="M85 20 435 461V505L85 64ZM85 17C99 17 110 28 110 42C110 56 99 67 85 67C72 67 60 56 60 42C60 28 72 17 85 17Z" glyph-name="line.006.069" horiz-adv-x="350" /><glyph d="M85 20 435 468V512L85 64ZM85 17C99 17 110 28 110 42C110 56 99 67 85 67C72 67 60 56 60 42C60 28 72 17 85 17Z" glyph-name="line.006.070" horiz-adv-x="350" /><glyph d="M85 19 435 474V520L85 65ZM85 17C99 17 110 28 110 42C110 56 99 67 85 67C72 67 60 56 60 42C60 28 72 17 85 17Z" glyph-name="line.006.071" horiz-adv-x="350" /><glyph d="M85 19 435 481V527L85 65ZM85 17C99 17 110 28 110 42C110 56 99 67 85 67C72 67 60 56 60 42C60 28 72 17 85 17Z" glyph-name="line.006.072" horiz-adv-x="350" /><glyph d="M85 17 435 486V536L85 67ZM85 17C99 17 110 28 110 42C110 56 99 67 85 67C72 67 60 56 60 42C60 28 72 17 85 17Z" glyph-name="line.006.073" horiz-adv-x="350" /><glyph d="M85 18 435 494V542L85 66ZM85 17C99 17 110 28 110 42C110 56 99 67 85 67C72 67 60 56 60 42C60 28 72 17 85 17Z" glyph-name="line.006.074" horiz-adv-x="350" /><glyph d="M85 18 435 502V550L85 66ZM85 17C99 17 110 28 110 42C110 56 99 67 85 67C72 67 60 56 60 42C60 28 72 17 85 17Z" glyph-name="line.006.075" horiz-adv-x="350" /><glyph d="M85 18 435 508V556L85 66ZM85 17C99 17 110 28 110 42C110 56 99 67 85 67C72 67 60 56 60 42C60 28 72 17 85 17Z" glyph-name="line.006.076" horiz-adv-x="350" /><glyph d="M85 18 435 515V563L85 66ZM85 17C99 17 110 28 110 42C110 56 99 67 85 67C72 67 60 56 60 42C60 28 72 17 85 17Z" glyph-name="line.006.077" horiz-adv-x="350" /><glyph d="M85 18 435 522V570L85 66ZM85 17C99 17 110 28 110 42C110 56 99 67 85 67C72 67 60 56 60 42C60 28 72 17 85 17Z" glyph-name="line.006.078" horiz-adv-x="350" /><glyph d="M85 17 435 528V578L85 67ZM85 17C99 17 110 28 110 42C110 56 99 67 85 67C72 67 60 56 60 42C60 28 72 17 85 17Z" glyph-name="line.006.079" horiz-adv-x="350" /><glyph d="M85 17 435 535V585L85 67ZM85 17C99 17 110 28 110 42C110 56 99 67 85 67C72 67 60 56 60 42C60 28 72 17 85 17Z" glyph-name="line.006.080" horiz-adv-x="350" /><glyph d="M85 17 435 542V592L85 67ZM85 17C99 17 110 28 110 42C110 56 99 67 85 67C72 67 60 56 60 42C60 28 72 17 85 17Z" glyph-name="line.006.081" horiz-adv-x="350" /><glyph d="M85 17 435 549V599L85 67ZM85 17C99 17 110 28 110 42C110 56 99 67 85 67C72 67 60 56 60 42C60 28 72 17 85 17Z" glyph-name="line.006.082" horiz-adv-x="350" /><glyph d="M87 19 437 558 433 604 83 65ZM85 17C99 17 110 28 110 42C110 56 99 67 85 67C72 67 60 56 60 42C60 28 72 17 85 17Z" glyph-name="line.006.083" horiz-adv-x="350" /><glyph d="M87 19 437 565 433 611 83 65ZM85 17C99 17 110 28 110 42C110 56 99 67 85 67C72 67 60 56 60 42C60 28 72 17 85 17Z" glyph-name="line.006.084" horiz-adv-x="350" /><glyph d="M90 24 440 577 430 613 80 60ZM85 17C99 17 110 28 110 42C110 56 99 67 85 67C72 67 60 56 60 42C60 28 72 17 85 17Z" glyph-name="line.006.085" horiz-adv-x="350" /><glyph d="M90 24 440 584 430 620 80 60ZM85 17C99 17 110 28 110 42C110 56 99 67 85 67C72 67 60 56 60 42C60 28 72 17 85 17Z" glyph-name="line.006.086" horiz-adv-x="350" /><glyph d="M87 19 438 588 432 630 82 63ZM85 17C99 17 110 28 110 42C110 56 99 67 85 67C72 67 60 56 60 42C60 28 72 17 85 17Z" glyph-name="line.006.087" horiz-adv-x="350" /><glyph d="M88 20 440 597 432 638 82 64ZM85 17C99 17 110 28 110 42C110 56 99 67 85 67C72 67 60 56 60 42C60 28 72 17 85 17Z" glyph-name="line.006.088" horiz-adv-x="350" /><glyph d="M88 20 447 616 423 630 82 64ZM85 17C99 17 110 28 110 42C110 56 99 67 85 67C72 67 60 56 60 42C60 28 72 17 85 17Z" glyph-name="line.006.089" horiz-adv-x="350" /><glyph d="M88 19 447 622 422 636 81 63ZM85 17C99 17 110 28 110 42C110 56 99 67 85 67C72 67 60 56 60 42C60 28 72 17 85 17Z" glyph-name="line.006.090" horiz-adv-x="350" /><glyph d="M88 19 444 624 422 643 78 58ZM85 17C99 17 110 28 110 42C110 56 99 67 85 67C72 67 60 56 60 42C60 28 72 17 85 17Z" glyph-name="line.006.091" horiz-adv-x="350" /><glyph d="M88 18 445 632 421 649 77 57ZM85 17C99 17 110 28 110 42C110 56 99 67 85 67C72 67 60 56 60 42C60 28 72 17 85 17Z" glyph-name="line.006.092" horiz-adv-x="350" /><glyph d="M88 19 446 642 423 658 82 65ZM85 17C99 17 110 28 110 42C110 56 99 67 85 67C72 67 60 56 60 42C60 28 72 17 85 17Z" glyph-name="line.006.093" horiz-adv-x="350" /><glyph d="M89 20 447 650 423 666 81 64ZM85 17C99 17 110 28 110 42C110 56 99 67 85 67C72 67 60 56 60 42C60 28 72 17 85 17Z" glyph-name="line.006.094" horiz-adv-x="350" /><glyph d="M89 20 445 654 422 671 81 64ZM85 17C99 17 110 28 110 42C110 56 99 67 85 67C72 67 60 56 60 42C60 28 72 17 85 17Z" glyph-name="line.006.095" horiz-adv-x="350" /><glyph d="M90 22 449 668 425 683 80 62ZM85 17C99 17 110 28 110 42C110 56 99 67 85 67C72 67 60 56 60 42C60 28 72 17 85 17Z" glyph-name="line.006.096" horiz-adv-x="350" /><glyph d="M90 22 445 668 423 686 80 62ZM85 17C99 17 110 28 110 42C110 56 99 67 85 67C72 67 60 56 60 42C60 28 72 17 85 17Z" glyph-name="line.006.097" horiz-adv-x="350" /><glyph d="M91 24 447 679 423 693 79 60ZM85 17C99 17 110 28 110 42C110 56 99 67 85 67C72 67 60 56 60 42C60 28 72 17 85 17Z" glyph-name="line.006.098" horiz-adv-x="350" /><glyph d="M92 25 451 693 427 708 78 59ZM85 17C99 17 110 28 110 42C110 56 99 67 85 67C72 67 60 56 60 42C60 28 72 17 85 17Z" glyph-name="line.006.099" horiz-adv-x="350" /><glyph d="M93 27 448 694 424 709 77 57ZM85 17C99 17 110 28 110 42C110 56 99 67 85 67C72 67 60 56 60 42C60 28 72 17 85 17Z" glyph-name="line.006.100" horiz-adv-x="350" /><glyph d="M85 62 435 13V-13L85 36ZM85 74C99 74 110 63 110 49C110 35 99 24 85 24C72 24 60 35 60 49C60 63 72 74 85 74Z" glyph-name="line.007.000" horiz-adv-x="350" /><glyph d="M85 62 435 20V-6L85 36ZM85 74C99 74 110 63 110 49C110 35 99 24 85 24C72 24 60 35 60 49C60 63 72 74 85 74Z" glyph-name="line.007.001" horiz-adv-x="350" /><glyph d="M85 62 435 27V1L85 36ZM85 74C99 74 110 63 110 49C110 35 99 24 85 24C72 24 60 35 60 49C60 63 72 74 85 74Z" glyph-name="line.007.002" horiz-adv-x="350" /><glyph d="M85 62 435 34V8L85 36ZM85 74C99 74 110 63 110 49C110 35 99 24 85 24C72 24 60 35 60 49C60 63 72 74 85 74Z" glyph-name="line.007.003" horiz-adv-x="350" /><glyph d="M85 62 435 41V15L85 36ZM85 74C99 74 110 63 110 49C110 35 99 24 85 24C72 24 60 35 60 49C60 63 72 74 85 74Z" glyph-name="line.007.004" horiz-adv-x="350" /><glyph d="M85 62 435 48V22L85 36ZM85 74C99 74 110 63 110 49C110 35 99 24 85 24C72 24 60 35 60 49C60 63 72 74 85 74Z" glyph-name="line.007.005" horiz-adv-x="350" /><glyph d="M85 62 435 55V29L85 36ZM85 74C99 74 110 63 110 49C110 35 99 24 85 24C72 24 60 35 60 49C60 63 72 74 85 74Z" glyph-name="line.007.006" horiz-adv-x="350" /><glyph d="M85 36H435V62H85ZM85 24C99 24 110 35 110 49C110 63 99 74 85 74C72 74 60 63 60 49C60 35 72 24 85 24Z" glyph-name="line.007.007" horiz-adv-x="350" /><glyph d="M85 36 435 43V69L85 62ZM85 24C99 24 110 35 110 49C110 63 99 74 85 74C72 74 60 63 60 49C60 35 72 24 85 24Z" glyph-name="line.007.008" horiz-adv-x="350" /><glyph d="M85 36 435 50V76L85 62ZM85 24C99 24 110 35 110 49C110 63 99 74 85 74C72 74 60 63 60 49C60 35 72 24 85 24Z" glyph-name="line.007.009" horiz-adv-x="350" /><glyph d="M85 36 435 57V83L85 62ZM85 24C99 24 110 35 110 49C110 63 99 74 85 74C72 74 60 63 60 49C60 35 72 24 85 24Z" glyph-name="line.007.010" horiz-adv-x="350" /><glyph d="M85 36 435 64V90L85 62ZM85 24C99 24 110 35 110 49C110 63 99 74 85 74C72 74 60 63 60 49C60 35 72 24 85 24Z" glyph-name="line.007.011" horiz-adv-x="350" /><glyph d="M85 36 435 71V97L85 62ZM85 24C99 24 110 35 110 49C110 63 99 74 85 74C72 74 60 63 60 49C60 35 72 24 85 24Z" glyph-name="line.007.012" horiz-adv-x="350" /><glyph d="M85 36 435 78V104L85 62ZM85 24C99 24 110 35 110 49C110 63 99 74 85 74C72 74 60 63 60 49C60 35 72 24 85 24Z" glyph-name="line.007.013" horiz-adv-x="350" /><glyph d="M85 36 435 85V111L85 62ZM85 24C99 24 110 35 110 49C110 63 99 74 85 74C72 74 60 63 60 49C60 35 72 24 85 24Z" glyph-name="line.007.014" horiz-adv-x="350" /><glyph d="M85 36 435 92V118L85 62ZM85 24C99 24 110 35 110 49C110 63 99 74 85 74C72 74 60 63 60 49C60 35 72 24 85 24Z" glyph-name="line.007.015" horiz-adv-x="350" /><glyph d="M85 36 435 99V125L85 62ZM85 24C99 24 110 35 110 49C110 63 99 74 85 74C72 74 60 63 60 49C60 35 72 24 85 24Z" glyph-name="line.007.016" horiz-adv-x="350" /><glyph d="M85 35 435 105V133L85 63ZM85 24C99 24 110 35 110 49C110 63 99 74 85 74C72 74 60 63 60 49C60 35 72 24 85 24Z" glyph-name="line.007.017" horiz-adv-x="350" /><glyph d="M85 35 435 112V140L85 63ZM85 24C99 24 110 35 110 49C110 63 99 74 85 74C72 74 60 63 60 49C60 35 72 24 85 24Z" glyph-name="line.007.018" horiz-adv-x="350" /><glyph d="M85 35 435 119V147L85 63ZM85 24C99 24 110 35 110 49C110 63 99 74 85 74C72 74 60 63 60 49C60 35 72 24 85 24Z" glyph-name="line.007.019" horiz-adv-x="350" /><glyph d="M85 35 435 126V154L85 63ZM85 24C99 24 110 35 110 49C110 63 99 74 85 74C72 74 60 63 60 49C60 35 72 24 85 24Z" glyph-name="line.007.020" horiz-adv-x="350" /><glyph d="M85 35 435 133V161L85 63ZM85 24C99 24 110 35 110 49C110 63 99 74 85 74C72 74 60 63 60 49C60 35 72 24 85 24Z" glyph-name="line.007.021" horiz-adv-x="350" /><glyph d="M85 35 435 140V168L85 63ZM85 24C99 24 110 35 110 49C110 63 99 74 85 74C72 74 60 63 60 49C60 35 72 24 85 24Z" glyph-name="line.007.022" horiz-adv-x="350" /><glyph d="M85 35 435 147V175L85 63ZM85 24C99 24 110 35 110 49C110 63 99 74 85 74C72 74 60 63 60 49C60 35 72 24 85 24Z" glyph-name="line.007.023" horiz-adv-x="350" /><glyph d="M85 35 435 154V182L85 63ZM85 24C99 24 110 35 110 49C110 63 99 74 85 74C72 74 60 63 60 49C60 35 72 24 85 24Z" glyph-name="line.007.024" horiz-adv-x="350" /><glyph d="M85 35 435 161V189L85 63ZM85 24C99 24 110 35 110 49C110 63 99 74 85 74C72 74 60 63 60 49C60 35 72 24 85 24Z" glyph-name="line.007.025" horiz-adv-x="350" /><glyph d="M85 35 435 168V196L85 63ZM85 24C99 24 110 35 110 49C110 63 99 74 85 74C72 74 60 63 60 49C60 35 72 24 85 24Z" glyph-name="line.007.026" horiz-adv-x="350" /><glyph d="M85 35 435 175V203L85 63ZM85 24C99 24 110 35 110 49C110 63 99 74 85 74C72 74 60 63 60 49C60 35 72 24 85 24Z" glyph-name="line.007.027" horiz-adv-x="350" /><glyph d="M85 35 435 182V210L85 63ZM85 24C99 24 110 35 110 49C110 63 99 74 85 74C72 74 60 63 60 49C60 35 72 24 85 24Z" glyph-name="line.007.028" horiz-adv-x="350" /><glyph d="M85 35 435 189V217L85 63ZM85 24C99 24 110 35 110 49C110 63 99 74 85 74C72 74 60 63 60 49C60 35 72 24 85 24Z" glyph-name="line.007.029" horiz-adv-x="350" /><glyph d="M85 35 435 196V224L85 63ZM85 24C99 24 110 35 110 49C110 63 99 74 85 74C72 74 60 63 60 49C60 35 72 24 85 24Z" glyph-name="line.007.030" horiz-adv-x="350" /><glyph d="M85 35 435 203V231L85 63ZM85 24C99 24 110 35 110 49C110 63 99 74 85 74C72 74 60 63 60 49C60 35 72 24 85 24Z" glyph-name="line.007.031" horiz-adv-x="350" /><glyph d="M85 34 435 209V239L85 64ZM85 24C99 24 110 35 110 49C110 63 99 74 85 74C72 74 60 63 60 49C60 35 72 24 85 24Z" glyph-name="line.007.032" horiz-adv-x="350" /><glyph d="M85 34 435 216V246L85 64ZM85 24C99 24 110 35 110 49C110 63 99 74 85 74C72 74 60 63 60 49C60 35 72 24 85 24Z" glyph-name="line.007.033" horiz-adv-x="350" /><glyph d="M85 34 435 223V253L85 64ZM85 24C99 24 110 35 110 49C110 63 99 74 85 74C72 74 60 63 60 49C60 35 72 24 85 24Z" glyph-name="line.007.034" horiz-adv-x="350" /><glyph d="M85 34 435 230V260L85 64ZM85 24C99 24 110 35 110 49C110 63 99 74 85 74C72 74 60 63 60 49C60 35 72 24 85 24Z" glyph-name="line.007.035" horiz-adv-x="350" /><glyph d="M85 34 435 237V267L85 64ZM85 24C99 24 110 35 110 49C110 63 99 74 85 74C72 74 60 63 60 49C60 35 72 24 85 24Z" glyph-name="line.007.036" horiz-adv-x="350" /><glyph d="M85 34 435 244V274L85 64ZM85 24C99 24 110 35 110 49C110 63 99 74 85 74C72 74 60 63 60 49C60 35 72 24 85 24Z" glyph-name="line.007.037" horiz-adv-x="350" /><glyph d="M85 34 435 251V281L85 64ZM85 24C99 24 110 35 110 49C110 63 99 74 85 74C72 74 60 63 60 49C60 35 72 24 85 24Z" glyph-name="line.007.038" horiz-adv-x="350" /><glyph d="M85 34 435 258V288L85 64ZM85 24C99 24 110 35 110 49C110 63 99 74 85 74C72 74 60 63 60 49C60 35 72 24 85 24Z" glyph-name="line.007.039" horiz-adv-x="350" /><glyph d="M85 34 435 265V295L85 64ZM85 24C99 24 110 35 110 49C110 63 99 74 85 74C72 74 60 63 60 49C60 35 72 24 85 24Z" glyph-name="line.007.040" horiz-adv-x="350" /><glyph d="M85 34 435 272V302L85 64ZM85 24C99 24 110 35 110 49C110 63 99 74 85 74C72 74 60 63 60 49C60 35 72 24 85 24Z" glyph-name="line.007.041" horiz-adv-x="350" /><glyph d="M85 33 435 278V310L85 65ZM85 24C99 24 110 35 110 49C110 63 99 74 85 74C72 74 60 63 60 49C60 35 72 24 85 24Z" glyph-name="line.007.042" horiz-adv-x="350" /><glyph d="M85 33 435 285V317L85 65ZM85 24C99 24 110 35 110 49C110 63 99 74 85 74C72 74 60 63 60 49C60 35 72 24 85 24Z" glyph-name="line.007.043" horiz-adv-x="350" /><glyph d="M85 33 435 292V324L85 65ZM85 24C99 24 110 35 110 49C110 63 99 74 85 74C72 74 60 63 60 49C60 35 72 24 85 24Z" glyph-name="line.007.044" horiz-adv-x="350" /><glyph d="M85 33 435 299V331L85 65ZM85 24C99 24 110 35 110 49C110 63 99 74 85 74C72 74 60 63 60 49C60 35 72 24 85 24Z" glyph-name="line.007.045" horiz-adv-x="350" /><glyph d="M85 33 435 306V338L85 65ZM85 24C99 24 110 35 110 49C110 63 99 74 85 74C72 74 60 63 60 49C60 35 72 24 85 24Z" glyph-name="line.007.046" horiz-adv-x="350" /><glyph d="M85 32 435 312V346L85 66ZM85 24C99 24 110 35 110 49C110 63 99 74 85 74C72 74 60 63 60 49C60 35 72 24 85 24Z" glyph-name="line.007.047" horiz-adv-x="350" /><glyph d="M85 32 435 319V353L85 66ZM85 24C99 24 110 35 110 49C110 63 99 74 85 74C72 74 60 63 60 49C60 35 72 24 85 24Z" glyph-name="line.007.048" horiz-adv-x="350" /><glyph d="M85 32 435 326V360L85 66ZM85 24C99 24 110 35 110 49C110 63 99 74 85 74C72 74 60 63 60 49C60 35 72 24 85 24Z" glyph-name="line.007.049" horiz-adv-x="350" /><glyph d="M85 32 435 333V367L85 66ZM85 24C99 24 110 35 110 49C110 63 99 74 85 74C72 74 60 63 60 49C60 35 72 24 85 24Z" glyph-name="line.007.050" horiz-adv-x="350" /><glyph d="M85 32 435 340V374L85 66ZM85 24C99 24 110 35 110 49C110 63 99 74 85 74C72 74 60 63 60 49C60 35 72 24 85 24Z" glyph-name="line.007.051" horiz-adv-x="350" /><glyph d="M85 31 435 346V382L85 67ZM85 24C99 24 110 35 110 49C110 63 99 74 85 74C72 74 60 63 60 49C60 35 72 24 85 24Z" glyph-name="line.007.052" horiz-adv-x="350" /><glyph d="M85 31 435 353V389L85 67ZM85 24C99 24 110 35 110 49C110 63 99 74 85 74C72 74 60 63 60 49C60 35 72 24 85 24Z" glyph-name="line.007.053" horiz-adv-x="350" /><glyph d="M85 31 435 360V396L85 67ZM85 24C99 24 110 35 110 49C110 63 99 74 85 74C72 74 60 63 60 49C60 35 72 24 85 24Z" glyph-name="line.007.054" horiz-adv-x="350" /><glyph d="M85 31 435 367V403L85 67ZM85 24C99 24 110 35 110 49C110 63 99 74 85 74C72 74 60 63 60 49C60 35 72 24 85 24Z" glyph-name="line.007.055" horiz-adv-x="350" /><glyph d="M85 31 435 374V410L85 67ZM85 24C99 24 110 35 110 49C110 63 99 74 85 74C72 74 60 63 60 49C60 35 72 24 85 24Z" glyph-name="line.007.056" horiz-adv-x="350" /><glyph d="M85 30 435 380V418L85 68ZM85 24C99 24 110 35 110 49C110 63 99 74 85 74C72 74 60 63 60 49C60 35 72 24 85 24Z" glyph-name="line.007.057" horiz-adv-x="350" /><glyph d="M85 30 435 387V425L85 68ZM85 24C99 24 110 35 110 49C110 63 99 74 85 74C72 74 60 63 60 49C60 35 72 24 85 24Z" glyph-name="line.007.058" horiz-adv-x="350" /><glyph d="M85 30 435 394V432L85 68ZM85 24C99 24 110 35 110 49C110 63 99 74 85 74C72 74 60 63 60 49C60 35 72 24 85 24Z" glyph-name="line.007.059" horiz-adv-x="350" /><glyph d="M85 30 435 401V439L85 68ZM85 24C99 24 110 35 110 49C110 63 99 74 85 74C72 74 60 63 60 49C60 35 72 24 85 24Z" glyph-name="line.007.060" horiz-adv-x="350" /><glyph d="M85 29 435 407V447L85 69ZM85 24C99 24 110 35 110 49C110 63 99 74 85 74C72 74 60 63 60 49C60 35 72 24 85 24Z" glyph-name="line.007.061" horiz-adv-x="350" /><glyph d="M85 29 435 414V454L85 69ZM85 24C99 24 110 35 110 49C110 63 99 74 85 74C72 74 60 63 60 49C60 35 72 24 85 24Z" glyph-name="line.007.062" horiz-adv-x="350" /><glyph d="M85 29 435 421V461L85 69ZM85 24C99 24 110 35 110 49C110 63 99 74 85 74C72 74 60 63 60 49C60 35 72 24 85 24Z" glyph-name="line.007.063" horiz-adv-x="350" /><glyph d="M85 28 435 427V469L85 70ZM85 24C99 24 110 35 110 49C110 63 99 74 85 74C72 74 60 63 60 49C60 35 72 24 85 24Z" glyph-name="line.007.064" horiz-adv-x="350" /><glyph d="M85 28 435 434V476L85 70ZM85 24C99 24 110 35 110 49C110 63 99 74 85 74C72 74 60 63 60 49C60 35 72 24 85 24Z" glyph-name="line.007.065" horiz-adv-x="350" /><glyph d="M85 28 435 441V483L85 70ZM85 24C99 24 110 35 110 49C110 63 99 74 85 74C72 74 60 63 60 49C60 35 72 24 85 24Z" glyph-name="line.007.066" horiz-adv-x="350" /><glyph d="M85 27 435 447V491L85 71ZM85 24C99 24 110 35 110 49C110 63 99 74 85 74C72 74 60 63 60 49C60 35 72 24 85 24Z" glyph-name="line.007.067" horiz-adv-x="350" /><glyph d="M85 27 435 454V498L85 71ZM85 24C99 24 110 35 110 49C110 63 99 74 85 74C72 74 60 63 60 49C60 35 72 24 85 24Z" glyph-name="line.007.068" horiz-adv-x="350" /><glyph d="M85 27 435 461V505L85 71ZM85 24C99 24 110 35 110 49C110 63 99 74 85 74C72 74 60 63 60 49C60 35 72 24 85 24Z" glyph-name="line.007.069" horiz-adv-x="350" /><glyph d="M85 27 435 468V512L85 71ZM85 24C99 24 110 35 110 49C110 63 99 74 85 74C72 74 60 63 60 49C60 35 72 24 85 24Z" glyph-name="line.007.070" horiz-adv-x="350" /><glyph d="M85 27 435 475V519L85 71ZM85 24C99 24 110 35 110 49C110 63 99 74 85 74C72 74 60 63 60 49C60 35 72 24 85 24Z" glyph-name="line.007.071" horiz-adv-x="350" /><glyph d="M85 26 435 481V527L85 72ZM85 24C99 24 110 35 110 49C110 63 99 74 85 74C72 74 60 63 60 49C60 35 72 24 85 24Z" glyph-name="line.007.072" horiz-adv-x="350" /><glyph d="M85 26 435 488V534L85 72ZM85 24C99 24 110 35 110 49C110 63 99 74 85 74C72 74 60 63 60 49C60 35 72 24 85 24Z" glyph-name="line.007.073" horiz-adv-x="350" /><glyph d="M85 24 435 493V543L85 74ZM85 24C99 24 110 35 110 49C110 63 99 74 85 74C72 74 60 63 60 49C60 35 72 24 85 24Z" glyph-name="line.007.074" horiz-adv-x="350" /><glyph d="M85 25 435 501V549L85 73ZM85 24C99 24 110 35 110 49C110 63 99 74 85 74C72 74 60 63 60 49C60 35 72 24 85 24Z" glyph-name="line.007.075" horiz-adv-x="350" /><glyph d="M85 25 435 509V557L85 73ZM85 24C99 24 110 35 110 49C110 63 99 74 85 74C72 74 60 63 60 49C60 35 72 24 85 24Z" glyph-name="line.007.076" horiz-adv-x="350" /><glyph d="M85 25 435 515V563L85 73ZM85 24C99 24 110 35 110 49C110 63 99 74 85 74C72 74 60 63 60 49C60 35 72 24 85 24Z" glyph-name="line.007.077" horiz-adv-x="350" /><glyph d="M85 25 435 522V570L85 73ZM85 24C99 24 110 35 110 49C110 63 99 74 85 74C72 74 60 63 60 49C60 35 72 24 85 24Z" glyph-name="line.007.078" horiz-adv-x="350" /><glyph d="M85 25 435 529V577L85 73ZM85 24C99 24 110 35 110 49C110 63 99 74 85 74C72 74 60 63 60 49C60 35 72 24 85 24Z" glyph-name="line.007.079" horiz-adv-x="350" /><glyph d="M85 24 435 535V585L85 74ZM85 24C99 24 110 35 110 49C110 63 99 74 85 74C72 74 60 63 60 49C60 35 72 24 85 24Z" glyph-name="line.007.080" horiz-adv-x="350" /><glyph d="M85 24 435 542V592L85 74ZM85 24C99 24 110 35 110 49C110 63 99 74 85 74C72 74 60 63 60 49C60 35 72 24 85 24Z" glyph-name="line.007.081" horiz-adv-x="350" /><glyph d="M85 24 435 549V599L85 74ZM85 24C99 24 110 35 110 49C110 63 99 74 85 74C72 74 60 63 60 49C60 35 72 24 85 24Z" glyph-name="line.007.082" horiz-adv-x="350" /><glyph d="M85 24 435 556V606L85 74ZM85 24C99 24 110 35 110 49C110 63 99 74 85 74C72 74 60 63 60 49C60 35 72 24 85 24Z" glyph-name="line.007.083" horiz-adv-x="350" /><glyph d="M87 26 437 565 433 611 83 72ZM85 24C99 24 110 35 110 49C110 63 99 74 85 74C72 74 60 63 60 49C60 35 72 24 85 24Z" glyph-name="line.007.084" horiz-adv-x="350" /><glyph d="M87 26 437 572 433 618 83 72ZM85 24C99 24 110 35 110 49C110 63 99 74 85 74C72 74 60 63 60 49C60 35 72 24 85 24Z" glyph-name="line.007.085" horiz-adv-x="350" /><glyph d="M90 31 440 584 430 620 80 67ZM85 24C99 24 110 35 110 49C110 63 99 74 85 74C72 74 60 63 60 49C60 35 72 24 85 24Z" glyph-name="line.007.086" horiz-adv-x="350" /><glyph d="M90 31 440 591 430 627 80 67ZM85 24C99 24 110 35 110 49C110 63 99 74 85 74C72 74 60 63 60 49C60 35 72 24 85 24Z" glyph-name="line.007.087" horiz-adv-x="350" /><glyph d="M87 26 438 595 432 637 82 70ZM85 24C99 24 110 35 110 49C110 63 99 74 85 74C72 74 60 63 60 49C60 35 72 24 85 24Z" glyph-name="line.007.088" horiz-adv-x="350" /><glyph d="M88 27 440 604 432 645 82 71ZM85 24C99 24 110 35 110 49C110 63 99 74 85 74C72 74 60 63 60 49C60 35 72 24 85 24Z" glyph-name="line.007.089" horiz-adv-x="350" /><glyph d="M88 27 447 623 423 637 82 71ZM85 24C99 24 110 35 110 49C110 63 99 74 85 74C72 74 60 63 60 49C60 35 72 24 85 24Z" glyph-name="line.007.090" horiz-adv-x="350" /><glyph d="M88 26 447 629 422 643 81 70ZM85 24C99 24 110 35 110 49C110 63 99 74 85 74C72 74 60 63 60 49C60 35 72 24 85 24Z" glyph-name="line.007.091" horiz-adv-x="350" /><glyph d="M88 26 444 631 422 650 78 65ZM85 24C99 24 110 35 110 49C110 63 99 74 85 74C72 74 60 63 60 49C60 35 72 24 85 24Z" glyph-name="line.007.092" horiz-adv-x="350" /><glyph d="M88 25 445 639 421 656 77 64ZM85 24C99 24 110 35 110 49C110 63 99 74 85 74C72 74 60 63 60 49C60 35 72 24 85 24Z" glyph-name="line.007.093" horiz-adv-x="350" /><glyph d="M88 26 446 649 423 665 82 72ZM85 24C99 24 110 35 110 49C110 63 99 74 85 74C72 74 60 63 60 49C60 35 72 24 85 24Z" glyph-name="line.007.094" horiz-adv-x="350" /><glyph d="M89 27 447 657 423 673 81 71ZM85 24C99 24 110 35 110 49C110 63 99 74 85 74C72 74 60 63 60 49C60 35 72 24 85 24Z" glyph-name="line.007.095" horiz-adv-x="350" /><glyph d="M89 27 445 661 422 678 81 71ZM85 24C99 24 110 35 110 49C110 63 99 74 85 74C72 74 60 63 60 49C60 35 72 24 85 24Z" glyph-name="line.007.096" horiz-adv-x="350" /><glyph d="M90 29 449 675 425 690 80 69ZM85 24C99 24 110 35 110 49C110 63 99 74 85 74C72 74 60 63 60 49C60 35 72 24 85 24Z" glyph-name="line.007.097" horiz-adv-x="350" /><glyph d="M90 29 445 675 423 693 80 69ZM85 24C99 24 110 35 110 49C110 63 99 74 85 74C72 74 60 63 60 49C60 35 72 24 85 24Z" glyph-name="line.007.098" horiz-adv-x="350" /><glyph d="M91 31 447 686 423 700 79 67ZM85 24C99 24 110 35 110 49C110 63 99 74 85 74C72 74 60 63 60 49C60 35 72 24 85 24Z" glyph-name="line.007.099" horiz-adv-x="350" /><glyph d="M92 32 451 700 427 715 78 66ZM85 24C99 24 110 35 110 49C110 63 99 74 85 74C72 74 60 63 60 49C60 35 72 24 85 24Z" glyph-name="line.007.100" horiz-adv-x="350" /><glyph d="M85 69 435 13V-13L85 43ZM85 81C99 81 110 70 110 56C110 42 99 31 85 31C72 31 60 42 60 56C60 70 72 81 85 81Z" glyph-name="line.008.000" horiz-adv-x="350" /><glyph d="M85 69 435 20V-6L85 43ZM85 81C99 81 110 70 110 56C110 42 99 31 85 31C72 31 60 42 60 56C60 70 72 81 85 81Z" glyph-name="line.008.001" horiz-adv-x="350" /><glyph d="M85 69 435 27V1L85 43ZM85 81C99 81 110 70 110 56C110 42 99 31 85 31C72 31 60 42 60 56C60 70 72 81 85 81Z" glyph-name="line.008.002" horiz-adv-x="350" /><glyph d="M85 69 435 34V8L85 43ZM85 81C99 81 110 70 110 56C110 42 99 31 85 31C72 31 60 42 60 56C60 70 72 81 85 81Z" glyph-name="line.008.003" horiz-adv-x="350" /><glyph d="M85 69 435 41V15L85 43ZM85 81C99 81 110 70 110 56C110 42 99 31 85 31C72 31 60 42 60 56C60 70 72 81 85 81Z" glyph-name="line.008.004" horiz-adv-x="350" /><glyph d="M85 69 435 48V22L85 43ZM85 81C99 81 110 70 110 56C110 42 99 31 85 31C72 31 60 42 60 56C60 70 72 81 85 81Z" glyph-name="line.008.005" horiz-adv-x="350" /><glyph d="M85 69 435 55V29L85 43ZM85 81C99 81 110 70 110 56C110 42 99 31 85 31C72 31 60 42 60 56C60 70 72 81 85 81Z" glyph-name="line.008.006" horiz-adv-x="350" /><glyph d="M85 69 435 62V36L85 43ZM85 81C99 81 110 70 110 56C110 42 99 31 85 31C72 31 60 42 60 56C60 70 72 81 85 81Z" glyph-name="line.008.007" horiz-adv-x="350" /><glyph d="M85 43H435V69H85ZM85 31C99 31 110 42 110 56C110 70 99 81 85 81C72 81 60 70 60 56C60 42 72 31 85 31Z" glyph-name="line.008.008" horiz-adv-x="350" /><glyph d="M85 43 435 50V76L85 69ZM85 31C99 31 110 42 110 56C110 70 99 81 85 81C72 81 60 70 60 56C60 42 72 31 85 31Z" glyph-name="line.008.009" horiz-adv-x="350" /><glyph d="M85 43 435 57V83L85 69ZM85 31C99 31 110 42 110 56C110 70 99 81 85 81C72 81 60 70 60 56C60 42 72 31 85 31Z" glyph-name="line.008.010" horiz-adv-x="350" /><glyph d="M85 43 435 64V90L85 69ZM85 31C99 31 110 42 110 56C110 70 99 81 85 81C72 81 60 70 60 56C60 42 72 31 85 31Z" glyph-name="line.008.011" horiz-adv-x="350" /><glyph d="M85 43 435 71V97L85 69ZM85 31C99 31 110 42 110 56C110 70 99 81 85 81C72 81 60 70 60 56C60 42 72 31 85 31Z" glyph-name="line.008.012" horiz-adv-x="350" /><glyph d="M85 43 435 78V104L85 69ZM85 31C99 31 110 42 110 56C110 70 99 81 85 81C72 81 60 70 60 56C60 42 72 31 85 31Z" glyph-name="line.008.013" horiz-adv-x="350" /><glyph d="M85 43 435 85V111L85 69ZM85 31C99 31 110 42 110 56C110 70 99 81 85 81C72 81 60 70 60 56C60 42 72 31 85 31Z" glyph-name="line.008.014" horiz-adv-x="350" /><glyph d="M85 43 435 92V118L85 69ZM85 31C99 31 110 42 110 56C110 70 99 81 85 81C72 81 60 70 60 56C60 42 72 31 85 31Z" glyph-name="line.008.015" horiz-adv-x="350" /><glyph d="M85 43 435 99V125L85 69ZM85 31C99 31 110 42 110 56C110 70 99 81 85 81C72 81 60 70 60 56C60 42 72 31 85 31Z" glyph-name="line.008.016" horiz-adv-x="350" /><glyph d="M85 43 435 106V132L85 69ZM85 31C99 31 110 42 110 56C110 70 99 81 85 81C72 81 60 70 60 56C60 42 72 31 85 31Z" glyph-name="line.008.017" horiz-adv-x="350" /><glyph d="M85 42 435 112V140L85 70ZM85 31C99 31 110 42 110 56C110 70 99 81 85 81C72 81 60 70 60 56C60 42 72 31 85 31Z" glyph-name="line.008.018" horiz-adv-x="350" /><glyph d="M85 42 435 119V147L85 70ZM85 31C99 31 110 42 110 56C110 70 99 81 85 81C72 81 60 70 60 56C60 42 72 31 85 31Z" glyph-name="line.008.019" horiz-adv-x="350" /><glyph d="M85 42 435 126V154L85 70ZM85 31C99 31 110 42 110 56C110 70 99 81 85 81C72 81 60 70 60 56C60 42 72 31 85 31Z" glyph-name="line.008.020" horiz-adv-x="350" /><glyph d="M85 42 435 133V161L85 70ZM85 31C99 31 110 42 110 56C110 70 99 81 85 81C72 81 60 70 60 56C60 42 72 31 85 31Z" glyph-name="line.008.021" horiz-adv-x="350" /><glyph d="M85 42 435 140V168L85 70ZM85 31C99 31 110 42 110 56C110 70 99 81 85 81C72 81 60 70 60 56C60 42 72 31 85 31Z" glyph-name="line.008.022" horiz-adv-x="350" /><glyph d="M85 42 435 147V175L85 70ZM85 31C99 31 110 42 110 56C110 70 99 81 85 81C72 81 60 70 60 56C60 42 72 31 85 31Z" glyph-name="line.008.023" horiz-adv-x="350" /><glyph d="M85 42 435 154V182L85 70ZM85 31C99 31 110 42 110 56C110 70 99 81 85 81C72 81 60 70 60 56C60 42 72 31 85 31Z" glyph-name="line.008.024" horiz-adv-x="350" /><glyph d="M85 42 435 161V189L85 70ZM85 31C99 31 110 42 110 56C110 70 99 81 85 81C72 81 60 70 60 56C60 42 72 31 85 31Z" glyph-name="line.008.025" horiz-adv-x="350" /><glyph d="M85 42 435 168V196L85 70ZM85 31C99 31 110 42 110 56C110 70 99 81 85 81C72 81 60 70 60 56C60 42 72 31 85 31Z" glyph-name="line.008.026" horiz-adv-x="350" /><glyph d="M85 42 435 175V203L85 70ZM85 31C99 31 110 42 110 56C110 70 99 81 85 81C72 81 60 70 60 56C60 42 72 31 85 31Z" glyph-name="line.008.027" horiz-adv-x="350" /><glyph d="M85 42 435 182V210L85 70ZM85 31C99 31 110 42 110 56C110 70 99 81 85 81C72 81 60 70 60 56C60 42 72 31 85 31Z" glyph-name="line.008.028" horiz-adv-x="350" /><glyph d="M85 42 435 189V217L85 70ZM85 31C99 31 110 42 110 56C110 70 99 81 85 81C72 81 60 70 60 56C60 42 72 31 85 31Z" glyph-name="line.008.029" horiz-adv-x="350" /><glyph d="M85 42 435 196V224L85 70ZM85 31C99 31 110 42 110 56C110 70 99 81 85 81C72 81 60 70 60 56C60 42 72 31 85 31Z" glyph-name="line.008.030" horiz-adv-x="350" /><glyph d="M85 42 435 203V231L85 70ZM85 31C99 31 110 42 110 56C110 70 99 81 85 81C72 81 60 70 60 56C60 42 72 31 85 31Z" glyph-name="line.008.031" horiz-adv-x="350" /><glyph d="M85 42 435 210V238L85 70ZM85 31C99 31 110 42 110 56C110 70 99 81 85 81C72 81 60 70 60 56C60 42 72 31 85 31Z" glyph-name="line.008.032" horiz-adv-x="350" /><glyph d="M85 41 435 216V246L85 71ZM85 31C99 31 110 42 110 56C110 70 99 81 85 81C72 81 60 70 60 56C60 42 72 31 85 31Z" glyph-name="line.008.033" horiz-adv-x="350" /><glyph d="M85 41 435 223V253L85 71ZM85 31C99 31 110 42 110 56C110 70 99 81 85 81C72 81 60 70 60 56C60 42 72 31 85 31Z" glyph-name="line.008.034" horiz-adv-x="350" /><glyph d="M85 41 435 230V260L85 71ZM85 31C99 31 110 42 110 56C110 70 99 81 85 81C72 81 60 70 60 56C60 42 72 31 85 31Z" glyph-name="line.008.035" horiz-adv-x="350" /><glyph d="M85 41 435 237V267L85 71ZM85 31C99 31 110 42 110 56C110 70 99 81 85 81C72 81 60 70 60 56C60 42 72 31 85 31Z" glyph-name="line.008.036" horiz-adv-x="350" /><glyph d="M85 41 435 244V274L85 71ZM85 31C99 31 110 42 110 56C110 70 99 81 85 81C72 81 60 70 60 56C60 42 72 31 85 31Z" glyph-name="line.008.037" horiz-adv-x="350" /><glyph d="M85 41 435 251V281L85 71ZM85 31C99 31 110 42 110 56C110 70 99 81 85 81C72 81 60 70 60 56C60 42 72 31 85 31Z" glyph-name="line.008.038" horiz-adv-x="350" /><glyph d="M85 41 435 258V288L85 71ZM85 31C99 31 110 42 110 56C110 70 99 81 85 81C72 81 60 70 60 56C60 42 72 31 85 31Z" glyph-name="line.008.039" horiz-adv-x="350" /><glyph d="M85 41 435 265V295L85 71ZM85 31C99 31 110 42 110 56C110 70 99 81 85 81C72 81 60 70 60 56C60 42 72 31 85 31Z" glyph-name="line.008.040" horiz-adv-x="350" /><glyph d="M85 41 435 272V302L85 71ZM85 31C99 31 110 42 110 56C110 70 99 81 85 81C72 81 60 70 60 56C60 42 72 31 85 31Z" glyph-name="line.008.041" horiz-adv-x="350" /><glyph d="M85 41 435 279V309L85 71ZM85 31C99 31 110 42 110 56C110 70 99 81 85 81C72 81 60 70 60 56C60 42 72 31 85 31Z" glyph-name="line.008.042" horiz-adv-x="350" /><glyph d="M85 40 435 285V317L85 72ZM85 31C99 31 110 42 110 56C110 70 99 81 85 81C72 81 60 70 60 56C60 42 72 31 85 31Z" glyph-name="line.008.043" horiz-adv-x="350" /><glyph d="M85 40 435 292V324L85 72ZM85 31C99 31 110 42 110 56C110 70 99 81 85 81C72 81 60 70 60 56C60 42 72 31 85 31Z" glyph-name="line.008.044" horiz-adv-x="350" /><glyph d="M85 40 435 299V331L85 72ZM85 31C99 31 110 42 110 56C110 70 99 81 85 81C72 81 60 70 60 56C60 42 72 31 85 31Z" glyph-name="line.008.045" horiz-adv-x="350" /><glyph d="M85 40 435 306V338L85 72ZM85 31C99 31 110 42 110 56C110 70 99 81 85 81C72 81 60 70 60 56C60 42 72 31 85 31Z" glyph-name="line.008.046" horiz-adv-x="350" /><glyph d="M85 40 435 313V345L85 72ZM85 31C99 31 110 42 110 56C110 70 99 81 85 81C72 81 60 70 60 56C60 42 72 31 85 31Z" glyph-name="line.008.047" horiz-adv-x="350" /><glyph d="M85 39 435 319V353L85 73ZM85 31C99 31 110 42 110 56C110 70 99 81 85 81C72 81 60 70 60 56C60 42 72 31 85 31Z" glyph-name="line.008.048" horiz-adv-x="350" /><glyph d="M85 39 435 326V360L85 73ZM85 31C99 31 110 42 110 56C110 70 99 81 85 81C72 81 60 70 60 56C60 42 72 31 85 31Z" glyph-name="line.008.049" horiz-adv-x="350" /><glyph d="M85 39 435 333V367L85 73ZM85 31C99 31 110 42 110 56C110 70 99 81 85 81C72 81 60 70 60 56C60 42 72 31 85 31Z" glyph-name="line.008.050" horiz-adv-x="350" /><glyph d="M85 39 435 340V374L85 73ZM85 31C99 31 110 42 110 56C110 70 99 81 85 81C72 81 60 70 60 56C60 42 72 31 85 31Z" glyph-name="line.008.051" horiz-adv-x="350" /><glyph d="M85 39 435 347V381L85 73ZM85 31C99 31 110 42 110 56C110 70 99 81 85 81C72 81 60 70 60 56C60 42 72 31 85 31Z" glyph-name="line.008.052" horiz-adv-x="350" /><glyph d="M85 38 435 353V389L85 74ZM85 31C99 31 110 42 110 56C110 70 99 81 85 81C72 81 60 70 60 56C60 42 72 31 85 31Z" glyph-name="line.008.053" horiz-adv-x="350" /><glyph d="M85 38 435 360V396L85 74ZM85 31C99 31 110 42 110 56C110 70 99 81 85 81C72 81 60 70 60 56C60 42 72 31 85 31Z" glyph-name="line.008.054" horiz-adv-x="350" /><glyph d="M85 38 435 367V403L85 74ZM85 31C99 31 110 42 110 56C110 70 99 81 85 81C72 81 60 70 60 56C60 42 72 31 85 31Z" glyph-name="line.008.055" horiz-adv-x="350" /><glyph d="M85 38 435 374V410L85 74ZM85 31C99 31 110 42 110 56C110 70 99 81 85 81C72 81 60 70 60 56C60 42 72 31 85 31Z" glyph-name="line.008.056" horiz-adv-x="350" /><glyph d="M85 38 435 381V417L85 74ZM85 31C99 31 110 42 110 56C110 70 99 81 85 81C72 81 60 70 60 56C60 42 72 31 85 31Z" glyph-name="line.008.057" horiz-adv-x="350" /><glyph d="M85 37 435 387V425L85 75ZM85 31C99 31 110 42 110 56C110 70 99 81 85 81C72 81 60 70 60 56C60 42 72 31 85 31Z" glyph-name="line.008.058" horiz-adv-x="350" /><glyph d="M85 37 435 394V432L85 75ZM85 31C99 31 110 42 110 56C110 70 99 81 85 81C72 81 60 70 60 56C60 42 72 31 85 31Z" glyph-name="line.008.059" horiz-adv-x="350" /><glyph d="M85 37 435 401V439L85 75ZM85 31C99 31 110 42 110 56C110 70 99 81 85 81C72 81 60 70 60 56C60 42 72 31 85 31Z" glyph-name="line.008.060" horiz-adv-x="350" /><glyph d="M85 37 435 408V446L85 75ZM85 31C99 31 110 42 110 56C110 70 99 81 85 81C72 81 60 70 60 56C60 42 72 31 85 31Z" glyph-name="line.008.061" horiz-adv-x="350" /><glyph d="M85 36 435 414V454L85 76ZM85 31C99 31 110 42 110 56C110 70 99 81 85 81C72 81 60 70 60 56C60 42 72 31 85 31Z" glyph-name="line.008.062" horiz-adv-x="350" /><glyph d="M85 36 435 421V461L85 76ZM85 31C99 31 110 42 110 56C110 70 99 81 85 81C72 81 60 70 60 56C60 42 72 31 85 31Z" glyph-name="line.008.063" horiz-adv-x="350" /><glyph d="M85 36 435 428V468L85 76ZM85 31C99 31 110 42 110 56C110 70 99 81 85 81C72 81 60 70 60 56C60 42 72 31 85 31Z" glyph-name="line.008.064" horiz-adv-x="350" /><glyph d="M85 35 435 434V476L85 77ZM85 31C99 31 110 42 110 56C110 70 99 81 85 81C72 81 60 70 60 56C60 42 72 31 85 31Z" glyph-name="line.008.065" horiz-adv-x="350" /><glyph d="M85 35 435 441V483L85 77ZM85 31C99 31 110 42 110 56C110 70 99 81 85 81C72 81 60 70 60 56C60 42 72 31 85 31Z" glyph-name="line.008.066" horiz-adv-x="350" /><glyph d="M85 35 435 448V490L85 77ZM85 31C99 31 110 42 110 56C110 70 99 81 85 81C72 81 60 70 60 56C60 42 72 31 85 31Z" glyph-name="line.008.067" horiz-adv-x="350" /><glyph d="M85 34 435 454V498L85 78ZM85 31C99 31 110 42 110 56C110 70 99 81 85 81C72 81 60 70 60 56C60 42 72 31 85 31Z" glyph-name="line.008.068" horiz-adv-x="350" /><glyph d="M85 34 435 461V505L85 78ZM85 31C99 31 110 42 110 56C110 70 99 81 85 81C72 81 60 70 60 56C60 42 72 31 85 31Z" glyph-name="line.008.069" horiz-adv-x="350" /><glyph d="M85 34 435 468V512L85 78ZM85 31C99 31 110 42 110 56C110 70 99 81 85 81C72 81 60 70 60 56C60 42 72 31 85 31Z" glyph-name="line.008.070" horiz-adv-x="350" /><glyph d="M85 34 435 475V519L85 78ZM85 31C99 31 110 42 110 56C110 70 99 81 85 81C72 81 60 70 60 56C60 42 72 31 85 31Z" glyph-name="line.008.071" horiz-adv-x="350" /><glyph d="M85 34 435 482V526L85 78ZM85 31C99 31 110 42 110 56C110 70 99 81 85 81C72 81 60 70 60 56C60 42 72 31 85 31Z" glyph-name="line.008.072" horiz-adv-x="350" /><glyph d="M85 33 435 488V534L85 79ZM85 31C99 31 110 42 110 56C110 70 99 81 85 81C72 81 60 70 60 56C60 42 72 31 85 31Z" glyph-name="line.008.073" horiz-adv-x="350" /><glyph d="M85 33 435 495V541L85 79ZM85 31C99 31 110 42 110 56C110 70 99 81 85 81C72 81 60 70 60 56C60 42 72 31 85 31Z" glyph-name="line.008.074" horiz-adv-x="350" /><glyph d="M85 31 435 500V550L85 81ZM85 31C99 31 110 42 110 56C110 70 99 81 85 81C72 81 60 70 60 56C60 42 72 31 85 31Z" glyph-name="line.008.075" horiz-adv-x="350" /><glyph d="M85 32 435 508V556L85 80ZM85 31C99 31 110 42 110 56C110 70 99 81 85 81C72 81 60 70 60 56C60 42 72 31 85 31Z" glyph-name="line.008.076" horiz-adv-x="350" /><glyph d="M85 32 435 516V564L85 80ZM85 31C99 31 110 42 110 56C110 70 99 81 85 81C72 81 60 70 60 56C60 42 72 31 85 31Z" glyph-name="line.008.077" horiz-adv-x="350" /><glyph d="M85 32 435 522V570L85 80ZM85 31C99 31 110 42 110 56C110 70 99 81 85 81C72 81 60 70 60 56C60 42 72 31 85 31Z" glyph-name="line.008.078" horiz-adv-x="350" /><glyph d="M85 32 435 529V577L85 80ZM85 31C99 31 110 42 110 56C110 70 99 81 85 81C72 81 60 70 60 56C60 42 72 31 85 31Z" glyph-name="line.008.079" horiz-adv-x="350" /><glyph d="M85 32 435 536V584L85 80ZM85 31C99 31 110 42 110 56C110 70 99 81 85 81C72 81 60 70 60 56C60 42 72 31 85 31Z" glyph-name="line.008.080" horiz-adv-x="350" /><glyph d="M85 31 435 542V592L85 81ZM85 31C99 31 110 42 110 56C110 70 99 81 85 81C72 81 60 70 60 56C60 42 72 31 85 31Z" glyph-name="line.008.081" horiz-adv-x="350" /><glyph d="M85 31 435 549V599L85 81ZM85 31C99 31 110 42 110 56C110 70 99 81 85 81C72 81 60 70 60 56C60 42 72 31 85 31Z" glyph-name="line.008.082" horiz-adv-x="350" /><glyph d="M85 31 435 556V606L85 81ZM85 31C99 31 110 42 110 56C110 70 99 81 85 81C72 81 60 70 60 56C60 42 72 31 85 31Z" glyph-name="line.008.083" horiz-adv-x="350" /><glyph d="M85 31 435 563V613L85 81ZM85 31C99 31 110 42 110 56C110 70 99 81 85 81C72 81 60 70 60 56C60 42 72 31 85 31Z" glyph-name="line.008.084" horiz-adv-x="350" /><glyph d="M87 33 437 572 433 618 83 79ZM85 31C99 31 110 42 110 56C110 70 99 81 85 81C72 81 60 70 60 56C60 42 72 31 85 31Z" glyph-name="line.008.085" horiz-adv-x="350" /><glyph d="M87 33 437 579 433 625 83 79ZM85 31C99 31 110 42 110 56C110 70 99 81 85 81C72 81 60 70 60 56C60 42 72 31 85 31Z" glyph-name="line.008.086" horiz-adv-x="350" /><glyph d="M90 38 440 591 430 627 80 74ZM85 31C99 31 110 42 110 56C110 70 99 81 85 81C72 81 60 70 60 56C60 42 72 31 85 31Z" glyph-name="line.008.087" horiz-adv-x="350" /><glyph d="M90 38 440 598 430 634 80 74ZM85 31C99 31 110 42 110 56C110 70 99 81 85 81C72 81 60 70 60 56C60 42 72 31 85 31Z" glyph-name="line.008.088" horiz-adv-x="350" /><glyph d="M87 33 438 602 432 644 82 77ZM85 31C99 31 110 42 110 56C110 70 99 81 85 81C72 81 60 70 60 56C60 42 72 31 85 31Z" glyph-name="line.008.089" horiz-adv-x="350" /><glyph d="M88 34 440 611 432 652 82 78ZM85 31C99 31 110 42 110 56C110 70 99 81 85 81C72 81 60 70 60 56C60 42 72 31 85 31Z" glyph-name="line.008.090" horiz-adv-x="350" /><glyph d="M88 34 447 630 423 644 82 78ZM85 31C99 31 110 42 110 56C110 70 99 81 85 81C72 81 60 70 60 56C60 42 72 31 85 31Z" glyph-name="line.008.091" horiz-adv-x="350" /><glyph d="M88 33 447 636 422 650 81 77ZM85 31C99 31 110 42 110 56C110 70 99 81 85 81C72 81 60 70 60 56C60 42 72 31 85 31Z" glyph-name="line.008.092" horiz-adv-x="350" /><glyph d="M88 33 444 638 422 657 78 72ZM85 31C99 31 110 42 110 56C110 70 99 81 85 81C72 81 60 70 60 56C60 42 72 31 85 31Z" glyph-name="line.008.093" horiz-adv-x="350" /><glyph d="M88 32 445 646 421 663 77 71ZM85 31C99 31 110 42 110 56C110 70 99 81 85 81C72 81 60 70 60 56C60 42 72 31 85 31Z" glyph-name="line.008.094" horiz-adv-x="350" /><glyph d="M88 33 446 656 423 672 82 79ZM85 31C99 31 110 42 110 56C110 70 99 81 85 81C72 81 60 70 60 56C60 42 72 31 85 31Z" glyph-name="line.008.095" horiz-adv-x="350" /><glyph d="M89 34 447 664 423 680 81 78ZM85 31C99 31 110 42 110 56C110 70 99 81 85 81C72 81 60 70 60 56C60 42 72 31 85 31Z" glyph-name="line.008.096" horiz-adv-x="350" /><glyph d="M89 34 445 668 422 685 81 78ZM85 31C99 31 110 42 110 56C110 70 99 81 85 81C72 81 60 70 60 56C60 42 72 31 85 31Z" glyph-name="line.008.097" horiz-adv-x="350" /><glyph d="M90 36 449 682 425 697 80 76ZM85 31C99 31 110 42 110 56C110 70 99 81 85 81C72 81 60 70 60 56C60 42 72 31 85 31Z" glyph-name="line.008.098" horiz-adv-x="350" /><glyph d="M90 36 445 682 423 700 80 76ZM85 31C99 31 110 42 110 56C110 70 99 81 85 81C72 81 60 70 60 56C60 42 72 31 85 31Z" glyph-name="line.008.099" horiz-adv-x="350" /><glyph d="M91 38 447 693 423 707 79 74ZM85 31C99 31 110 42 110 56C110 70 99 81 85 81C72 81 60 70 60 56C60 42 72 31 85 31Z" glyph-name="line.008.100" horiz-adv-x="350" /><glyph d="M85 76 435 13V-13L85 50ZM85 88C99 88 110 77 110 63C110 49 99 38 85 38C72 38 60 49 60 63C60 77 72 88 85 88Z" glyph-name="line.009.000" horiz-adv-x="350" /><glyph d="M85 76 435 20V-6L85 50ZM85 88C99 88 110 77 110 63C110 49 99 38 85 38C72 38 60 49 60 63C60 77 72 88 85 88Z" glyph-name="line.009.001" horiz-adv-x="350" /><glyph d="M85 76 435 27V1L85 50ZM85 88C99 88 110 77 110 63C110 49 99 38 85 38C72 38 60 49 60 63C60 77 72 88 85 88Z" glyph-name="line.009.002" horiz-adv-x="350" /><glyph d="M85 76 435 34V8L85 50ZM85 88C99 88 110 77 110 63C110 49 99 38 85 38C72 38 60 49 60 63C60 77 72 88 85 88Z" glyph-name="line.009.003" horiz-adv-x="350" /><glyph d="M85 76 435 41V15L85 50ZM85 88C99 88 110 77 110 63C110 49 99 38 85 38C72 38 60 49 60 63C60 77 72 88 85 88Z" glyph-name="line.009.004" horiz-adv-x="350" /><glyph d="M85 76 435 48V22L85 50ZM85 88C99 88 110 77 110 63C110 49 99 38 85 38C72 38 60 49 60 63C60 77 72 88 85 88Z" glyph-name="line.009.005" horiz-adv-x="350" /><glyph d="M85 76 435 55V29L85 50ZM85 88C99 88 110 77 110 63C110 49 99 38 85 38C72 38 60 49 60 63C60 77 72 88 85 88Z" glyph-name="line.009.006" horiz-adv-x="350" /><glyph d="M85 76 435 62V36L85 50ZM85 88C99 88 110 77 110 63C110 49 99 38 85 38C72 38 60 49 60 63C60 77 72 88 85 88Z" glyph-name="line.009.007" horiz-adv-x="350" /><glyph d="M85 76 435 69V43L85 50ZM85 88C99 88 110 77 110 63C110 49 99 38 85 38C72 38 60 49 60 63C60 77 72 88 85 88Z" glyph-name="line.009.008" horiz-adv-x="350" /><glyph d="M85 50H435V76H85ZM85 38C99 38 110 49 110 63C110 77 99 88 85 88C72 88 60 77 60 63C60 49 72 38 85 38Z" glyph-name="line.009.009" horiz-adv-x="350" /><glyph d="M85 50 435 57V83L85 76ZM85 38C99 38 110 49 110 63C110 77 99 88 85 88C72 88 60 77 60 63C60 49 72 38 85 38Z" glyph-name="line.009.010" horiz-adv-x="350" /><glyph d="M85 50 435 64V90L85 76ZM85 38C99 38 110 49 110 63C110 77 99 88 85 88C72 88 60 77 60 63C60 49 72 38 85 38Z" glyph-name="line.009.011" horiz-adv-x="350" /><glyph d="M85 50 435 71V97L85 76ZM85 38C99 38 110 49 110 63C110 77 99 88 85 88C72 88 60 77 60 63C60 49 72 38 85 38Z" glyph-name="line.009.012" horiz-adv-x="350" /><glyph d="M85 50 435 78V104L85 76ZM85 38C99 38 110 49 110 63C110 77 99 88 85 88C72 88 60 77 60 63C60 49 72 38 85 38Z" glyph-name="line.009.013" horiz-adv-x="350" /><glyph d="M85 50 435 85V111L85 76ZM85 38C99 38 110 49 110 63C110 77 99 88 85 88C72 88 60 77 60 63C60 49 72 38 85 38Z" glyph-name="line.009.014" horiz-adv-x="350" /><glyph d="M85 50 435 92V118L85 76ZM85 38C99 38 110 49 110 63C110 77 99 88 85 88C72 88 60 77 60 63C60 49 72 38 85 38Z" glyph-name="line.009.015" horiz-adv-x="350" /><glyph d="M85 50 435 99V125L85 76ZM85 38C99 38 110 49 110 63C110 77 99 88 85 88C72 88 60 77 60 63C60 49 72 38 85 38Z" glyph-name="line.009.016" horiz-adv-x="350" /><glyph d="M85 50 435 106V132L85 76ZM85 38C99 38 110 49 110 63C110 77 99 88 85 88C72 88 60 77 60 63C60 49 72 38 85 38Z" glyph-name="line.009.017" horiz-adv-x="350" /><glyph d="M85 50 435 113V139L85 76ZM85 38C99 38 110 49 110 63C110 77 99 88 85 88C72 88 60 77 60 63C60 49 72 38 85 38Z" glyph-name="line.009.018" horiz-adv-x="350" /><glyph d="M85 49 435 119V147L85 77ZM85 38C99 38 110 49 110 63C110 77 99 88 85 88C72 88 60 77 60 63C60 49 72 38 85 38Z" glyph-name="line.009.019" horiz-adv-x="350" /><glyph d="M85 49 435 126V154L85 77ZM85 38C99 38 110 49 110 63C110 77 99 88 85 88C72 88 60 77 60 63C60 49 72 38 85 38Z" glyph-name="line.009.020" horiz-adv-x="350" /></font>
</defs>
</svg>
