<?xml version="1.0" standalone="no"?><!DOCTYPE svg PUBLIC "-//W3C//DTD SVG 1.1//EN" "http://www.w3.org/Graphics/SVG/1.1/DTD/svg11.dtd" ><svg version="1.1" xmlns="http://www.w3.org/2000/svg"><defs><font horiz-adv-x="0" id="font"><font-face ascent="700" bbox="-65 -700 698 734" cap-height="700" descent="-250" font-family="Sparks" font-stretch="normal" font-style="normal" font-weight="400" units-per-em="1000" x-height="500" /><missing-glyph d="M52 0H448V500H52ZM86 34V467H414V34ZM225.8 192H269L270.8 225.6C326.6 230.4 360.8 264 360.8 316.2C360.8 375.6 316.4 408 256.4 408C192.8 408 146.6 376.2 140 310.2H189.8C195.8 346.2 219.8 363.6 254.6 363.6C287.6 363.6 309.8 345.6 309.8 316.2C309.8 279.6 286.4 264 223.4 262.8ZM216.8 162V102H278V162Z" horiz-adv-x="500" /><glyph glyph-name=".null" horiz-adv-x="500" /><glyph d="M79 98H358V170H79ZM1 0H86L206 346C211 361 219 385 224 404H226C230 385 238 361 243 346L361 0H449L267 500H183Z" glyph-name="A" horiz-adv-x="450" unicode="A" /><glyph d="M298 0H591V72H380V219H552V291H380V428H585V500H298ZM105 98H350V170H105ZM-12 0H79L258 362C267 381 277 405 283 422H298L339 500H245Z" glyph-name="AE" horiz-adv-x="618" unicode="&#198;" /><glyph d="M79 98H358V170H79ZM1 0H86L206 346C211 361 219 385 224 404H226C230 385 238 361 243 346L361 0H449L267 500H183ZM258 560 362 670H258L191 560Z" glyph-name="Aacute" horiz-adv-x="450" unicode="&#193;" /><glyph d="M79 98H358V170H79ZM1 0H86L206 346C211 361 219 385 224 404H226C230 385 238 361 243 346L361 0H449L267 500H183ZM273 670H177L66 570H161L225 629L289 570H384Z" glyph-name="Acircumflex" horiz-adv-x="450" unicode="&#194;" /><glyph d="M79 98H358V170H79ZM1 0H86L206 346C211 361 219 385 224 404H226C230 385 238 361 243 346L361 0H449L267 500H183ZM95 670V574H191V670ZM260 670V574H356V670Z" glyph-name="Adieresis" horiz-adv-x="450" unicode="&#196;" /><glyph d="M79 98H358V170H79ZM1 0H86L206 346C211 361 219 385 224 404H226C230 385 238 361 243 346L361 0H449L267 500H183ZM191 560H258L191 670H87Z" glyph-name="Agrave" horiz-adv-x="450" unicode="&#192;" /><glyph d="M79 98H358V170H79ZM1 0H86L206 346C211 361 219 385 224 404H226C230 385 238 361 243 346L361 0H449L267 500H183ZM223 556C274 556 315 595 315 645C315 695 274 734 223 734C172 734 131 695 131 645C131 595 172 556 223 556ZM223 604C198 604 181 621 181 645C181 669 198 686 223 686C248 686 265 669 265 645C265 621 248 604 223 604Z" glyph-name="Aring" horiz-adv-x="450" unicode="&#197;" /><glyph d="M79 98H358V170H79ZM1 0H86L206 346C211 361 219 385 224 404H226C230 385 238 361 243 346L361 0H449L267 500H183ZM302 670C300 646 289 632 268 632C238 632 216 670 169 670C118 670 86 629 83 570H137C140 594 151 608 172 608C204 608 222 570 271 570C322 570 353 611 356 670Z" glyph-name="Atilde" horiz-adv-x="450" unicode="&#195;" /><glyph d="M254 0C365 0 429 53 429 146C429 205 400 240 351 263V265C386 283 413 320 413 368C413 455 355 500 248 500H52V0ZM134 294V428H240C297 428 328 410 328 363C328 317 297 294 240 294ZM244 73H134V225H244C312 225 344 201 344 150C344 99 312 73 244 73Z" glyph-name="B" horiz-adv-x="456" unicode="B" /><glyph d="M25 122H268V178H25ZM279 0C390 0 454 53 454 146C454 205 425 240 376 263V265C411 283 438 320 438 368C438 455 380 500 273 500H77V0ZM159 294V428H265C322 428 353 410 353 363C353 317 322 294 265 294ZM269 73H159V225H269C337 225 369 201 369 150C369 99 337 73 269 73Z" glyph-name="Bstroke" horiz-adv-x="481" unicode="&#579;" /><glyph d="M457 156H369C354 100 321 66 252 66C165 66 112 132 112 248C112 365 165 434 252 434C321 434 358 396 368 339H455C444 445 366 510 256 510C125 510 26 423 26 252C26 82 117 -10 248 -10C357 -10 437 49 457 156Z" glyph-name="C" horiz-adv-x="473" unicode="C" /><glyph d="M457 156H369C354 100 321 66 252 66C165 66 112 132 112 248C112 365 165 434 252 434C321 434 358 396 368 339H455C444 445 366 510 256 510C125 510 26 423 26 252C26 82 117 -10 248 -10C357 -10 437 49 457 156ZM232 5 209 -65 226 -84C233 -82 243 -80 252 -80C277 -80 295 -91 295 -111C295 -132 277 -142 249 -142C224 -142 203 -135 188 -127L176 -160C195 -175 235 -187 263 -187C325 -187 357 -157 357 -110C357 -64 330 -36 286 -36C276 -36 262 -37 252 -40L267 5Z" glyph-name="Ccedilla" horiz-adv-x="473" unicode="&#199;" /><glyph d="M52 0H178C339 0 436 80 436 250C436 421 346 500 184 500H52ZM180 428C303 428 353 377 353 254C353 132 305 72 182 72H134V428Z" glyph-name="D" horiz-adv-x="462" unicode="D" /><glyph d="M52 0H361V72H134V219H316V291H134V428H355V500H52Z" glyph-name="E" horiz-adv-x="388" unicode="E" /><glyph d="M52 0H361V72H134V219H316V291H134V428H355V500H52ZM223 560 327 670H223L156 560Z" glyph-name="Eacute" horiz-adv-x="388" unicode="&#201;" /><glyph d="M52 0H361V72H134V219H316V291H134V428H355V500H52ZM252 670H156L45 570H140L204 629L268 570H363Z" glyph-name="Ecircumflex" horiz-adv-x="388" unicode="&#202;" /><glyph d="M52 0H361V72H134V219H316V291H134V428H355V500H52ZM71 670V574H167V670ZM236 670V574H332V670Z" glyph-name="Edieresis" horiz-adv-x="388" unicode="&#203;" /><glyph d="M52 0H361V72H134V219H316V291H134V428H355V500H52ZM179 560H246L179 670H75Z" glyph-name="Egrave" horiz-adv-x="388" unicode="&#200;" /><glyph d="M25 225H277V285H25ZM77 0H203C364 0 461 80 461 250C461 421 371 500 209 500H77ZM205 428C328 428 378 377 378 254C378 132 330 72 207 72H159V428Z" glyph-name="Eth" horiz-adv-x="487" unicode="&#208;" /><glyph d="M350 111C341 81 315 62 280 62C190 62 159 141 159 248C159 356 184 438 274 438C311 438 343 414 351 379H430C415 457 353 509 276 509C147 509 76 408 76 252C76 97 145 -9 274 -9C347 -9 412 41 432 111ZM32 273H309L320 333H32ZM32 161H289L300 221H32Z" glyph-name="Euro" horiz-adv-x="440" unicode="&#8364;" /><glyph d="M52 0H134V210H320V282H134V428H359V500H52Z" glyph-name="F" horiz-adv-x="374" unicode="F" /><glyph d="M472 241V252H239V180H383C379 116 338 66 255 66C168 66 112 132 112 248C112 365 170 434 257 434C324 434 362 403 373 349H459C447 451 368 510 261 510C130 510 26 423 26 252C26 82 120 -10 251 -10C398 -10 472 81 472 241Z" glyph-name="G" horiz-adv-x="497" unicode="G" /><glyph d="M52 0H134V218H363V0H445V500H363V290H134V500H52Z" glyph-name="H" horiz-adv-x="497" unicode="H" /><glyph d="M52 0H135V500H52Z" glyph-name="I" horiz-adv-x="187" unicode="I" /><glyph d="M52 0H135V500H52ZM127 560 231 670H127L60 560Z" glyph-name="Iacute" horiz-adv-x="187" unicode="&#205;" /><glyph d="M52 0H135V500H52ZM142 670H46L-65 570H30L94 629L158 570H253Z" glyph-name="Icircumflex" horiz-adv-x="187" unicode="&#206;" /><glyph d="M52 0H135V500H52ZM-37 670V574H59V670ZM128 670V574H224V670Z" glyph-name="Idieresis" horiz-adv-x="187" unicode="&#207;" /><glyph d="M52 0H135V500H52ZM60 560H127L60 670H-44Z" glyph-name="Igrave" horiz-adv-x="187" unicode="&#204;" /><glyph d="M133 161C133 94 116 66 57 66C45 66 24 67 10 69V-7C25 -9 44 -10 59 -10C170 -10 216 28 216 145V500H133Z" glyph-name="J" horiz-adv-x="266" unicode="J" /><glyph d="M56 0H139V140L214 229L361 0H460L268 292L446 500H349L139 251V500H56Z" glyph-name="K" horiz-adv-x="456" unicode="K" /><glyph d="M52 0H361V73H134V500H52Z" glyph-name="L" horiz-adv-x="366" unicode="L" /><glyph d="M347 0 473 335H475C473 295 471 239 471 200V0H553V500H463L304 86H302L142 500H52V0H134V200C134 239 132 295 130 335H132L258 0Z" glyph-name="M" horiz-adv-x="605" unicode="M" /><glyph d="M52 0H134V223C134 256 133 322 131 358H133C144 340 158 318 168 303L373 0H445V500H363V276C363 243 365 176 367 141H365C354 159 340 181 329 197L124 500H52Z" glyph-name="N" horiz-adv-x="497" unicode="N" /><glyph d="M52 0H134V223C134 256 133 322 131 358H133C144 340 158 318 168 303L373 0H445V500H363V276C363 243 365 176 367 141H365C354 159 340 181 329 197L124 500H52ZM332 670C330 646 319 632 298 632C268 632 246 670 199 670C148 670 116 629 113 570H167C170 594 181 608 202 608C234 608 252 570 301 570C352 570 383 611 386 670Z" glyph-name="Ntilde" horiz-adv-x="497" unicode="&#209;" /><glyph d="M260 66C168 66 112 133 112 248C112 364 163 434 256 434C348 434 404 367 404 252C404 136 353 66 260 66ZM256 -10C386 -10 490 76 490 248C490 421 391 510 260 510C130 510 26 424 26 252C26 79 125 -10 256 -10Z" glyph-name="O" horiz-adv-x="516" unicode="O" /><glyph d="M26 250C26 80 123 0 284 0H591V72H380V219H552V291H380V428H585V500H278C116 500 26 421 26 250ZM282 428H298V72H280C157 72 109 132 109 254C109 377 159 428 282 428Z" glyph-name="OE" horiz-adv-x="618" unicode="&#338;" /><glyph d="M260 66C168 66 112 133 112 248C112 364 163 434 256 434C348 434 404 367 404 252C404 136 353 66 260 66ZM256 -10C386 -10 490 76 490 248C490 421 391 510 260 510C130 510 26 424 26 252C26 79 125 -10 256 -10ZM287 560 391 670H287L220 560Z" glyph-name="Oacute" horiz-adv-x="516" unicode="&#211;" /><glyph d="M260 66C168 66 112 133 112 248C112 364 163 434 256 434C348 434 404 367 404 252C404 136 353 66 260 66ZM256 -10C386 -10 490 76 490 248C490 421 391 510 260 510C130 510 26 424 26 252C26 79 125 -10 256 -10ZM306 670H210L99 570H194L258 629L322 570H417Z" glyph-name="Ocircumflex" horiz-adv-x="516" unicode="&#212;" /><glyph d="M260 66C168 66 112 133 112 248C112 364 163 434 256 434C348 434 404 367 404 252C404 136 353 66 260 66ZM256 -10C386 -10 490 76 490 248C490 421 391 510 260 510C130 510 26 424 26 252C26 79 125 -10 256 -10ZM129 670V574H225V670ZM294 670V574H390V670Z" glyph-name="Odieresis" horiz-adv-x="516" unicode="&#214;" /><glyph d="M260 66C168 66 112 133 112 248C112 364 163 434 256 434C348 434 404 367 404 252C404 136 353 66 260 66ZM256 -10C386 -10 490 76 490 248C490 421 391 510 260 510C130 510 26 424 26 252C26 79 125 -10 256 -10ZM223 560H290L223 670H119Z" glyph-name="Ograve" horiz-adv-x="516" unicode="&#210;" /><glyph d="M260 66C168 66 112 133 112 248C112 364 163 434 256 434C348 434 404 367 404 252C404 136 353 66 260 66ZM256 -10C386 -10 490 76 490 248C490 421 391 510 260 510C130 510 26 424 26 252C26 79 125 -10 256 -10ZM44 11 88 -22 473 489 429 522Z" glyph-name="Oslash" horiz-adv-x="516" unicode="&#216;" /><glyph d="M260 66C168 66 112 133 112 248C112 364 163 434 256 434C348 434 404 367 404 252C404 136 353 66 260 66ZM256 -10C386 -10 490 76 490 248C490 421 391 510 260 510C130 510 26 424 26 252C26 79 125 -10 256 -10ZM339 670C337 646 326 632 305 632C275 632 253 670 206 670C155 670 123 629 120 570H174C177 594 188 608 209 608C241 608 259 570 308 570C359 570 390 611 393 670Z" glyph-name="Otilde" horiz-adv-x="516" unicode="&#213;" /><glyph d="M225 428C299 428 330 397 330 342C330 286 299 256 225 256H134V428ZM238 500H52V0H134V184H238C355 184 416 244 416 342C416 440 355 500 238 500Z" glyph-name="P" horiz-adv-x="431" unicode="P" /><glyph d="M260 66C168 66 112 133 112 248C112 364 163 434 256 434C348 434 404 367 404 252C404 136 353 66 260 66ZM256 -10C386 -10 490 76 490 248C490 421 391 510 260 510C130 510 26 424 26 252C26 79 125 -10 256 -10ZM432 -39 482 10 304 185 255 135Z" glyph-name="Q" horiz-adv-x="516" unicode="Q" /><glyph d="M345 0H435L323 207V209C382 232 416 277 416 346C416 442 355 500 239 500H52V0H134V190H245ZM226 428C299 428 330 398 330 345C330 291 299 262 226 262H134V428Z" glyph-name="R" horiz-adv-x="443" unicode="R" /><glyph d="M255 203C316 192 340 175 340 136C340 91 301 63 230 63C147 63 105 105 100 155H20C29 65 96 -10 227 -10C343 -10 423 45 423 145C423 218 377 263 287 279L199 295C142 305 117 323 117 362C117 408 151 437 214 437C290 437 322 403 328 353H410C403 455 322 510 218 510C107 510 34 447 34 358C34 280 80 235 167 219Z" glyph-name="S" horiz-adv-x="445" unicode="S" /><glyph d="M156 0H239V428H392V500H3V428H156Z" glyph-name="T" horiz-adv-x="395" unicode="T" /><glyph d="M238 408H134V500H52V0H134V92H238C355 92 416 152 416 250C416 348 355 408 238 408ZM225 336C299 336 330 305 330 250C330 194 299 164 225 164H134V336Z" glyph-name="Thorn" horiz-adv-x="428" unicode="&#222;" /><glyph d="M361 196C361 106 322 66 247 66C172 66 133 106 133 196V500H50V192C50 46 128 -10 247 -10C366 -10 444 46 444 192V500H361Z" glyph-name="U" horiz-adv-x="494" unicode="U" /><glyph d="M361 196C361 106 322 66 247 66C172 66 133 106 133 196V500H50V192C50 46 128 -10 247 -10C366 -10 444 46 444 192V500H361ZM275 560 379 670H275L208 560Z" glyph-name="Uacute" horiz-adv-x="494" unicode="&#218;" /><glyph d="M361 196C361 106 322 66 247 66C172 66 133 106 133 196V500H50V192C50 46 128 -10 247 -10C366 -10 444 46 444 192V500H361ZM296 670H200L89 570H184L248 629L312 570H407Z" glyph-name="Ucircumflex" horiz-adv-x="494" unicode="&#219;" /><glyph d="M361 196C361 106 322 66 247 66C172 66 133 106 133 196V500H50V192C50 46 128 -10 247 -10C366 -10 444 46 444 192V500H361ZM117 670V574H213V670ZM282 670V574H378V670Z" glyph-name="Udieresis" horiz-adv-x="494" unicode="&#220;" /><glyph d="M361 196C361 106 322 66 247 66C172 66 133 106 133 196V500H50V192C50 46 128 -10 247 -10C366 -10 444 46 444 192V500H361ZM219 560H286L219 670H115Z" glyph-name="Ugrave" horiz-adv-x="494" unicode="&#217;" /><glyph d="M453 500H368L248 154C243 139 235 115 230 96H228C224 115 216 139 211 154L93 500H5L187 0H271Z" glyph-name="V" horiz-adv-x="458" unicode="V" /><glyph d="M384 500H308L217 162C212 145 205 118 200 96H198C193 118 187 144 182 162L93 500H5L155 0H243L306 210C316 244 335 317 343 357H345C354 316 373 244 383 211L446 0H534L684 500H599L508 162C503 145 496 118 491 96H489C484 118 478 144 473 162Z" glyph-name="W" horiz-adv-x="689" unicode="W" /><glyph d="M92 0 209 186H211L328 0H427L262 257L418 500H321L212 326H210L101 500H2L159 256L-5 0Z" glyph-name="X" horiz-adv-x="422" unicode="X" /><glyph d="M173 0H256V197L438 500H347L279 386C254 344 232 305 215 273H213C197 304 175 343 150 386L84 500H-10L173 195Z" glyph-name="Y" horiz-adv-x="428" unicode="Y" /><glyph d="M173 0H256V197L438 500H347L279 386C254 344 232 305 215 273H213C197 304 175 343 150 386L84 500H-10L173 195ZM238 560 342 670H238L171 560Z" glyph-name="Yacute" horiz-adv-x="428" unicode="&#221;" /><glyph d="M400 72H114V74L383 435V499H26V427H285V425L14 64V0H400Z" glyph-name="Z" horiz-adv-x="414" unicode="Z" /><glyph d="M79 98H358V170H79ZM1 0H86L206 346C211 361 219 385 224 404H226C230 385 238 361 243 346L361 0H449L267 500H183Z" glyph-name="a" horiz-adv-x="450" unicode="a" /><glyph d="M79 98H358V170H79ZM1 0H86L206 346C211 361 219 385 224 404H226C230 385 238 361 243 346L361 0H449L267 500H183ZM258 560 362 670H258L191 560Z" glyph-name="aacute" horiz-adv-x="450" unicode="&#225;" /><glyph d="M79 98H358V170H79ZM1 0H86L206 346C211 361 219 385 224 404H226C230 385 238 361 243 346L361 0H449L267 500H183ZM273 670H177L66 570H161L225 629L289 570H384Z" glyph-name="acircumflex" horiz-adv-x="450" unicode="&#226;" /><glyph d="M117 560 221 670H117L50 560Z" glyph-name="acute" horiz-adv-x="271" unicode="&#180;" /><glyph d="M79 98H358V170H79ZM1 0H86L206 346C211 361 219 385 224 404H226C230 385 238 361 243 346L361 0H449L267 500H183ZM95 670V574H191V670ZM260 670V574H356V670Z" glyph-name="adieresis" horiz-adv-x="450" unicode="&#228;" /><glyph d="M298 0H591V72H380V219H552V291H380V428H585V500H298ZM105 98H350V170H105ZM-12 0H79L258 362C267 381 277 405 283 422H298L339 500H245Z" glyph-name="ae" horiz-adv-x="618" unicode="&#230;" /><glyph d="M79 98H358V170H79ZM1 0H86L206 346C211 361 219 385 224 404H226C230 385 238 361 243 346L361 0H449L267 500H183ZM191 560H258L191 670H87Z" glyph-name="agrave" horiz-adv-x="450" unicode="&#224;" /><glyph d="M192 508C120 508 60 462 60 394C60 355 80 314 112 279C45 245 7 204 7 136C7 46 69 -8 183 -8C248 -8 298 12 338 45L384 0H488L392 99C420 144 436 202 440 269H358C356 223 349 185 336 155L230 265C292 298 319 340 319 394C319 463 269 508 192 508ZM137 392C137 419 158 442 190 442C224 442 244 417 244 390C244 356 228 334 185 309C149 343 137 365 137 392ZM91 136C91 171 109 199 158 229L288 97C260 73 227 61 189 61C130 61 91 92 91 136Z" glyph-name="ampersand" horiz-adv-x="463" unicode="&amp;" /><glyph d="M79 98H358V170H79ZM1 0H86L206 346C211 361 219 385 224 404H226C230 385 238 361 243 346L361 0H449L267 500H183ZM223 556C274 556 315 595 315 645C315 695 274 734 223 734C172 734 131 695 131 645C131 595 172 556 223 556ZM223 604C198 604 181 621 181 645C181 669 198 686 223 686C248 686 265 669 265 645C265 621 248 604 223 604Z" glyph-name="aring" horiz-adv-x="450" unicode="&#229;" /><glyph d="M152.11 500.18V436.55L405.923 440.085L6.468 40.63L53.13 -6.032L452.585 393.423L449.05 139.61H512.68L512.68 500.18Z" glyph-name="arrowNE" horiz-adv-x="557" unicode="&#8599;" /><glyph d="M43.82 139.11H107.45L103.915 392.923L503.37 -6.532L550.032 40.13L150.577 439.585L404.39 436.05V499.68L43.82 499.68Z" glyph-name="arrowNW" horiz-adv-x="556" unicode="&#8598;" /><glyph d="M512.18 360.89H448.55L452.085 107.077L52.63 506.532L5.968 459.87L405.423 60.415L151.61 63.95V0.32L512.18 0.32Z" glyph-name="arrowSE" horiz-adv-x="556" unicode="&#8600;" /><glyph d="M404.89 -0.18V63.45L151.077 59.915L550.532 459.37L503.87 506.032L104.415 106.577L107.95 360.39H44.32L44.32 -0.18Z" glyph-name="arrowSW" horiz-adv-x="556" unicode="&#8601;" /><glyph d="M519 266 474 311 297 129V694H231V129L54 311L9 266L264 11Z" glyph-name="arrowdown" horiz-adv-x="528" unicode="&#8595;" /><glyph d="M265 -5 310 40 128 217H693V283H128L310 460L265 505L10 250Z" glyph-name="arrowleft" horiz-adv-x="708" unicode="&#8592;" /><glyph d="M443 -5 398 40 580 217H15V283H580L398 460L443 505L698 250Z" glyph-name="arrowright" horiz-adv-x="708" unicode="&#8594;" /><glyph d="M9 442 54 397 231 579V14H297V579L474 397L519 442L264 697Z" glyph-name="arrowup" horiz-adv-x="528" unicode="&#8593;" /><glyph d="M169 500 30 200H120L215 425L310 200H400L261 500Z" glyph-name="asciicircum" horiz-adv-x="430" unicode="^" /><glyph d="M354 335C352 299 333 276 301 276C253 276 226 336 147 336C82 336 41 287 38 213H96C99 249 118 272 150 272C196 272 225 212 304 212C369 212 409 261 412 335Z" glyph-name="asciitilde" horiz-adv-x="450" unicode="~" /><glyph d="M52 341 128 396 120 301H185L177 396L253 340L286 396L200 436L285 475L253 532L177 476L185 570H120L128 476L53 531L20 474L104 436L20 397Z" glyph-name="asterisk" horiz-adv-x="306" unicode="*" /><glyph d="M347 372 340 338H338C327 360 302 378 273 378C209 378 157 313 157 233C157 161 197 122 251 122C283 122 313 137 332 166H334C346 139 370 122 411 122C497 122 545 177 545 274C545 424 440 512 290 512C142 512 20 394 20 245C20 90 125 -12 280 -12C330 -12 388 2 420 21L401 72C365 56 323 48 280 48C159 48 87 128 87 245C87 360 174 452 289 452C410 452 480 386 480 267C480 205 455 176 416 176C393 176 382 188 382 210C382 221 383 233 385 246L403 372ZM265 178C235 178 220 200 220 233C220 288 246 322 283 322C311 322 327 297 327 265C327 206 302 178 265 178Z" glyph-name="at" horiz-adv-x="563" unicode="@" /><glyph d="M79 98H358V170H79ZM1 0H86L206 346C211 361 219 385 224 404H226C230 385 238 361 243 346L361 0H449L267 500H183ZM302 670C300 646 289 632 268 632C238 632 216 670 169 670C118 670 86 629 83 570H137C140 594 151 608 172 608C204 608 222 570 271 570C322 570 353 611 356 670Z" glyph-name="atilde" horiz-adv-x="450" unicode="&#227;" /><glyph d="M254 0C365 0 429 53 429 146C429 205 400 240 351 263V265C386 283 413 320 413 368C413 455 355 500 248 500H52V0ZM134 294V428H240C297 428 328 410 328 363C328 317 297 294 240 294ZM244 73H134V225H244C312 225 344 201 344 150C344 99 312 73 244 73Z" glyph-name="b" horiz-adv-x="456" unicode="b" /><glyph d="M431 0H341L0 500H90Z" glyph-name="backslash" horiz-adv-x="436" unicode="\" /><glyph d="M82 -100H160V600H82Z" glyph-name="bar" horiz-adv-x="242" unicode="|" /><glyph d="M57 217C90 213 107 196 107 161V115C107 28 155 -16 268 -16V51C204 51 185 80 185 129V182C185 212 170 239 143 247C170 255 185 282 185 312V365C185 414 204 443 268 443V510C155 510 107 466 107 379V333C107 298 90 281 57 277Z" glyph-name="braceleft" horiz-adv-x="300" unicode="{" /><glyph d="M243 217C210 213 193 196 193 161V115C193 28 145 -16 32 -16V51C96 51 115 80 115 129V182C115 212 130 239 157 247C130 255 115 282 115 312V365C115 414 96 443 32 443V510C145 510 193 466 193 379V333C193 298 210 281 243 277Z" glyph-name="braceright" horiz-adv-x="300" unicode="}" /><glyph d="M82 0H263V69H160V431H263V500H82Z" glyph-name="bracketleft" horiz-adv-x="300" unicode="[" /><glyph d="M218 0H37V69H140V431H37V500H218Z" glyph-name="bracketright" horiz-adv-x="300" unicode="]" /><glyph d="M118 670C122 645 145 624 178 624C211 624 234 645 238 670H306C299 605 247 560 178 560C109 560 57 605 50 670Z" glyph-name="breve" horiz-adv-x="356" unicode="&#728;" /><glyph d="M82 330H160V600H82ZM82 -100H160V170H82Z" glyph-name="brokenbar" horiz-adv-x="242" unicode="&#166;" /><glyph d="M457 156H369C354 100 321 66 252 66C165 66 112 132 112 248C112 365 165 434 252 434C321 434 358 396 368 339H455C444 445 366 510 256 510C125 510 26 423 26 252C26 82 117 -10 248 -10C357 -10 437 49 457 156Z" glyph-name="c" horiz-adv-x="473" unicode="c" /><glyph d="M257 570 368 670H273L209 611L145 670H50L161 570Z" glyph-name="caron" horiz-adv-x="418" unicode="&#711;" /><glyph d="M457 156H369C354 100 321 66 252 66C165 66 112 132 112 248C112 365 165 434 252 434C321 434 358 396 368 339H455C444 445 366 510 256 510C125 510 26 423 26 252C26 82 117 -10 248 -10C357 -10 437 49 457 156ZM232 5 209 -65 226 -84C233 -82 243 -80 252 -80C277 -80 295 -91 295 -111C295 -132 277 -142 249 -142C224 -142 203 -135 188 -127L176 -160C195 -175 235 -187 263 -187C325 -187 357 -157 357 -110C357 -64 330 -36 286 -36C276 -36 262 -37 252 -40L267 5Z" glyph-name="ccedilla" horiz-adv-x="473" unicode="&#231;" /><glyph d="M106 5 83 -65 100 -84C107 -82 117 -80 126 -80C151 -80 169 -91 169 -111C169 -132 151 -142 123 -142C98 -142 77 -135 62 -127L50 -160C69 -175 109 -187 137 -187C199 -187 231 -157 231 -110C231 -64 204 -36 160 -36C150 -36 136 -37 126 -40L141 5Z" glyph-name="cedilla" horiz-adv-x="281" unicode="&#184;" /><glyph d="M156 -80H218L321 580H259ZM340 161C331 104 297 67 239 67C154 67 114 141 114 248C114 356 150 434 235 434C291 434 330 401 340 345H423C409 446 343 509 239 509C116 509 30 416 30 252C30 89 112 -9 235 -9C339 -9 409 56 425 161Z" glyph-name="cent" horiz-adv-x="440" unicode="&#162;" /><glyph d="M85 -32C102 -32 117 -17 117 0C117 17 102 32 85 32C68 32 53 17 53 0C53 -17 68 -32 85 -32Z" glyph-name="chart.dot" horiz-adv-x="170" /><glyph d="M283 113 159 328H407ZM282 -12C430 -12 545 102 545 250C545 398 430 512 282 512C134 512 20 398 20 250C20 102 134 -12 282 -12Z" glyph-name="circle.arrowdown" horiz-adv-x="565" /><glyph d="M282 -12C430 -12 545 102 545 250C545 398 430 512 282 512C134 512 20 398 20 250C20 102 134 -12 282 -12ZM282 387 406 172H158Z" glyph-name="circle.arrowup" horiz-adv-x="565" /><glyph d="M282 -12C430 -12 545 102 545 250C545 398 430 512 282 512C134 512 20 398 20 250C20 102 134 -12 282 -12ZM194 118V386H268C363 386 415 348 415 252C415 157 359 118 265 118ZM264 338H247V166H265C329 166 358 191 358 254C358 318 328 338 264 338Z" glyph-name="circle.d" horiz-adv-x="565" /><glyph d="M282 -12C430 -12 545 102 545 250C545 398 430 512 282 512C134 512 20 398 20 250C20 102 134 -12 282 -12ZM211 118V384H264V166H384V118Z" glyph-name="circle.l" horiz-adv-x="565" /><glyph d="M282 -12C430 -12 545 102 545 250C545 398 430 512 282 512C134 512 20 398 20 250C20 102 134 -12 282 -12ZM308 374 344 218 352 182H355L364 218L400 374H452L380 118H326L297 234L284 295H281L267 234L239 118H185L113 374H166L202 218L210 182H213L222 218L259 374Z" glyph-name="circle.w" horiz-adv-x="565" /><glyph d="M257 670H161L50 570H145L209 629L273 570H368Z" glyph-name="circumflex" horiz-adv-x="418" unicode="&#710;" /><glyph d="M70 120V0H190V120ZM70 370V250H190V370Z" glyph-name="colon" horiz-adv-x="260" unicode=":" /><glyph d="M111 0C111 -42 95 -62 55 -69V-113C122 -104 162 -62 162 14V114H55V0Z" glyph-name="comma" horiz-adv-x="217" unicode="," /><glyph d="M282 48C167 48 87 139 87 250C87 361 167 452 282 452C397 452 478 361 478 250C478 139 397 48 282 48ZM282 -12C430 -12 545 102 545 250C545 398 430 512 282 512C134 512 20 398 20 250C20 102 134 -12 282 -12ZM396 205H336C331 179 313 164 284 164C240 164 220 194 220 249C220 304 240 336 284 336C311 336 330 318 336 292H395C389 349 344 388 286 388C214 388 160 341 160 251C160 162 210 112 281 112C339 112 385 147 396 205Z" glyph-name="copyright" horiz-adv-x="565" unicode="&#169;" /><glyph d="M18 89 64 43 119 98C149 76 185 64 225 64C265 64 301 76 331 98L386 43L432 89L377 144C398 174 410 210 410 249C410 289 398 325 376 355L432 411L386 457L330 401C300 422 264 434 225 434C186 434 149 422 120 401L64 457L18 411L73 356C52 326 40 289 40 249C40 210 52 174 73 144ZM225 146C167 146 124 191 124 249C124 307 167 352 225 352C283 352 326 308 326 249C326 191 283 146 225 146Z" glyph-name="currency" horiz-adv-x="450" unicode="&#164;" /><glyph d="M52 0H178C339 0 436 80 436 250C436 421 346 500 184 500H52ZM180 428C303 428 353 377 353 254C353 132 305 72 182 72H134V428Z" glyph-name="d" horiz-adv-x="462" unicode="d" /><glyph d="M153 477C188 477 213 504 213 538C213 572 190 600 153 600C118 600 93 572 93 538C93 504 118 477 153 477ZM153 411C81 411 25 466 25 538C25 610 81 666 153 666C225 666 281 610 281 538C281 466 225 411 153 411Z" glyph-name="degree" horiz-adv-x="306" unicode="&#176;" /><glyph d="M50 670V574H146V670ZM215 670V574H311V670Z" glyph-name="dieresis" horiz-adv-x="361" unicode="&#168;" /><glyph d="M49 217H401V277H49ZM225 323C197 323 178 343 178 372C178 401 197 421 225 421C253 421 273 401 273 372C273 343 253 323 225 323ZM225 73C197 73 178 93 178 122C178 151 197 171 225 171C253 171 273 151 273 122C273 93 253 73 225 73Z" glyph-name="divide" horiz-adv-x="450" unicode="&#247;" /><glyph d="M252 203C300 189 329 173 329 136C329 84 284 63 228 63C154 63 121 96 113 147H35C40 52 123 -9 222 -9C324 -9 409 42 409 144C409 223 361 252 279 276L199 299C155 312 133 332 133 367C133 415 172 438 221 438C277 438 311 413 320 358H404C396 456 323 509 225 509C129 509 52 460 52 368C52 292 92 250 167 228ZM143 -80H204L307 580H246Z" glyph-name="dollar" horiz-adv-x="440" unicode="$" /><glyph d="M85 -32C102 -32 117 -17 117 0C117 17 102 32 85 32C68 32 53 17 53 0C53 -17 68 -32 85 -32Z" glyph-name="dot.000" horiz-adv-x="170" /><glyph d="M85 -25C102 -25 117 -10 117 7C117 24 102 39 85 39C68 39 53 24 53 7C53 -10 68 -25 85 -25Z" glyph-name="dot.001" horiz-adv-x="170" /><glyph d="M85 -18C102 -18 117 -3 117 14C117 31 102 46 85 46C68 46 53 31 53 14C53 -3 68 -18 85 -18Z" glyph-name="dot.002" horiz-adv-x="170" /><glyph d="M85 -11C102 -11 117 4 117 21C117 38 102 53 85 53C68 53 53 38 53 21C53 4 68 -11 85 -11Z" glyph-name="dot.003" horiz-adv-x="170" /><glyph d="M85 -4C102 -4 117 11 117 28C117 45 102 60 85 60C68 60 53 45 53 28C53 11 68 -4 85 -4Z" glyph-name="dot.004" horiz-adv-x="170" /><glyph d="M85 3C102 3 117 18 117 35C117 52 102 67 85 67C68 67 53 52 53 35C53 18 68 3 85 3Z" glyph-name="dot.005" horiz-adv-x="170" /><glyph d="M85 10C102 10 117 25 117 42C117 59 102 74 85 74C68 74 53 59 53 42C53 25 68 10 85 10Z" glyph-name="dot.006" horiz-adv-x="170" /><glyph d="M85 17C102 17 117 32 117 49C117 66 102 81 85 81C68 81 53 66 53 49C53 32 68 17 85 17Z" glyph-name="dot.007" horiz-adv-x="170" /><glyph d="M85 24C102 24 117 39 117 56C117 73 102 88 85 88C68 88 53 73 53 56C53 39 68 24 85 24Z" glyph-name="dot.008" horiz-adv-x="170" /><glyph d="M85 31C102 31 117 46 117 63C117 80 102 95 85 95C68 95 53 80 53 63C53 46 68 31 85 31Z" glyph-name="dot.009" horiz-adv-x="170" /><glyph d="M85 38C102 38 117 53 117 70C117 87 102 102 85 102C68 102 53 87 53 70C53 53 68 38 85 38Z" glyph-name="dot.010" horiz-adv-x="170" /><glyph d="M85 45C102 45 117 60 117 77C117 94 102 109 85 109C68 109 53 94 53 77C53 60 68 45 85 45Z" glyph-name="dot.011" horiz-adv-x="170" /><glyph d="M85 52C102 52 117 67 117 84C117 101 102 116 85 116C68 116 53 101 53 84C53 67 68 52 85 52Z" glyph-name="dot.012" horiz-adv-x="170" /><glyph d="M85 59C102 59 117 74 117 91C117 108 102 123 85 123C68 123 53 108 53 91C53 74 68 59 85 59Z" glyph-name="dot.013" horiz-adv-x="170" /><glyph d="M85 66C102 66 117 81 117 98C117 115 102 130 85 130C68 130 53 115 53 98C53 81 68 66 85 66Z" glyph-name="dot.014" horiz-adv-x="170" /><glyph d="M85 73C102 73 117 88 117 105C117 122 102 137 85 137C68 137 53 122 53 105C53 88 68 73 85 73Z" glyph-name="dot.015" horiz-adv-x="170" /><glyph d="M85 80C102 80 117 95 117 112C117 129 102 144 85 144C68 144 53 129 53 112C53 95 68 80 85 80Z" glyph-name="dot.016" horiz-adv-x="170" /><glyph d="M85 87C102 87 117 102 117 119C117 136 102 151 85 151C68 151 53 136 53 119C53 102 68 87 85 87Z" glyph-name="dot.017" horiz-adv-x="170" /><glyph d="M85 94C102 94 117 109 117 126C117 143 102 158 85 158C68 158 53 143 53 126C53 109 68 94 85 94Z" glyph-name="dot.018" horiz-adv-x="170" /><glyph d="M85 101C102 101 117 116 117 133C117 150 102 165 85 165C68 165 53 150 53 133C53 116 68 101 85 101Z" glyph-name="dot.019" horiz-adv-x="170" /><glyph d="M85 108C102 108 117 123 117 140C117 157 102 172 85 172C68 172 53 157 53 140C53 123 68 108 85 108Z" glyph-name="dot.020" horiz-adv-x="170" /><glyph d="M85 115C102 115 117 130 117 147C117 164 102 179 85 179C68 179 53 164 53 147C53 130 68 115 85 115Z" glyph-name="dot.021" horiz-adv-x="170" /><glyph d="M85 122C102 122 117 137 117 154C117 171 102 186 85 186C68 186 53 171 53 154C53 137 68 122 85 122Z" glyph-name="dot.022" horiz-adv-x="170" /><glyph d="M85 129C102 129 117 144 117 161C117 178 102 193 85 193C68 193 53 178 53 161C53 144 68 129 85 129Z" glyph-name="dot.023" horiz-adv-x="170" /><glyph d="M85 136C102 136 117 151 117 168C117 185 102 200 85 200C68 200 53 185 53 168C53 151 68 136 85 136Z" glyph-name="dot.024" horiz-adv-x="170" /><glyph d="M85 143C102 143 117 158 117 175C117 192 102 207 85 207C68 207 53 192 53 175C53 158 68 143 85 143Z" glyph-name="dot.025" horiz-adv-x="170" /><glyph d="M85 150C102 150 117 165 117 182C117 199 102 214 85 214C68 214 53 199 53 182C53 165 68 150 85 150Z" glyph-name="dot.026" horiz-adv-x="170" /><glyph d="M85 157C102 157 117 172 117 189C117 206 102 221 85 221C68 221 53 206 53 189C53 172 68 157 85 157Z" glyph-name="dot.027" horiz-adv-x="170" /><glyph d="M85 164C102 164 117 179 117 196C117 213 102 228 85 228C68 228 53 213 53 196C53 179 68 164 85 164Z" glyph-name="dot.028" horiz-adv-x="170" /><glyph d="M85 171C102 171 117 186 117 203C117 220 102 235 85 235C68 235 53 220 53 203C53 186 68 171 85 171Z" glyph-name="dot.029" horiz-adv-x="170" /><glyph d="M85 178C102 178 117 193 117 210C117 227 102 242 85 242C68 242 53 227 53 210C53 193 68 178 85 178Z" glyph-name="dot.030" horiz-adv-x="170" /><glyph d="M85 185C102 185 117 200 117 217C117 234 102 249 85 249C68 249 53 234 53 217C53 200 68 185 85 185Z" glyph-name="dot.031" horiz-adv-x="170" /><glyph d="M85 192C102 192 117 207 117 224C117 241 102 256 85 256C68 256 53 241 53 224C53 207 68 192 85 192Z" glyph-name="dot.032" horiz-adv-x="170" /><glyph d="M85 199C102 199 117 214 117 231C117 248 102 263 85 263C68 263 53 248 53 231C53 214 68 199 85 199Z" glyph-name="dot.033" horiz-adv-x="170" /><glyph d="M85 206C102 206 117 221 117 238C117 255 102 270 85 270C68 270 53 255 53 238C53 221 68 206 85 206Z" glyph-name="dot.034" horiz-adv-x="170" /><glyph d="M85 213C102 213 117 228 117 245C117 262 102 277 85 277C68 277 53 262 53 245C53 228 68 213 85 213Z" glyph-name="dot.035" horiz-adv-x="170" /><glyph d="M85 220C102 220 117 235 117 252C117 269 102 284 85 284C68 284 53 269 53 252C53 235 68 220 85 220Z" glyph-name="dot.036" horiz-adv-x="170" /><glyph d="M85 227C102 227 117 242 117 259C117 276 102 291 85 291C68 291 53 276 53 259C53 242 68 227 85 227Z" glyph-name="dot.037" horiz-adv-x="170" /><glyph d="M85 234C102 234 117 249 117 266C117 283 102 298 85 298C68 298 53 283 53 266C53 249 68 234 85 234Z" glyph-name="dot.038" horiz-adv-x="170" /><glyph d="M85 241C102 241 117 256 117 273C117 290 102 305 85 305C68 305 53 290 53 273C53 256 68 241 85 241Z" glyph-name="dot.039" horiz-adv-x="170" /><glyph d="M85 248C102 248 117 263 117 280C117 297 102 312 85 312C68 312 53 297 53 280C53 263 68 248 85 248Z" glyph-name="dot.040" horiz-adv-x="170" /><glyph d="M85 255C102 255 117 270 117 287C117 304 102 319 85 319C68 319 53 304 53 287C53 270 68 255 85 255Z" glyph-name="dot.041" horiz-adv-x="170" /><glyph d="M85 262C102 262 117 277 117 294C117 311 102 326 85 326C68 326 53 311 53 294C53 277 68 262 85 262Z" glyph-name="dot.042" horiz-adv-x="170" /><glyph d="M85 269C102 269 117 284 117 301C117 318 102 333 85 333C68 333 53 318 53 301C53 284 68 269 85 269Z" glyph-name="dot.043" horiz-adv-x="170" /><glyph d="M85 276C102 276 117 291 117 308C117 325 102 340 85 340C68 340 53 325 53 308C53 291 68 276 85 276Z" glyph-name="dot.044" horiz-adv-x="170" /><glyph d="M85 283C102 283 117 298 117 315C117 332 102 347 85 347C68 347 53 332 53 315C53 298 68 283 85 283Z" glyph-name="dot.045" horiz-adv-x="170" /><glyph d="M85 290C102 290 117 305 117 322C117 339 102 354 85 354C68 354 53 339 53 322C53 305 68 290 85 290Z" glyph-name="dot.046" horiz-adv-x="170" /><glyph d="M85 297C102 297 117 312 117 329C117 346 102 361 85 361C68 361 53 346 53 329C53 312 68 297 85 297Z" glyph-name="dot.047" horiz-adv-x="170" /><glyph d="M85 304C102 304 117 319 117 336C117 353 102 368 85 368C68 368 53 353 53 336C53 319 68 304 85 304Z" glyph-name="dot.048" horiz-adv-x="170" /><glyph d="M85 311C102 311 117 326 117 343C117 360 102 375 85 375C68 375 53 360 53 343C53 326 68 311 85 311Z" glyph-name="dot.049" horiz-adv-x="170" /><glyph d="M85 318C102 318 117 333 117 350C117 367 102 382 85 382C68 382 53 367 53 350C53 333 68 318 85 318Z" glyph-name="dot.050" horiz-adv-x="170" /><glyph d="M85 325C102 325 117 340 117 357C117 374 102 389 85 389C68 389 53 374 53 357C53 340 68 325 85 325Z" glyph-name="dot.051" horiz-adv-x="170" /><glyph d="M85 332C102 332 117 347 117 364C117 381 102 396 85 396C68 396 53 381 53 364C53 347 68 332 85 332Z" glyph-name="dot.052" horiz-adv-x="170" /><glyph d="M85 339C102 339 117 354 117 371C117 388 102 403 85 403C68 403 53 388 53 371C53 354 68 339 85 339Z" glyph-name="dot.053" horiz-adv-x="170" /><glyph d="M85 346C102 346 117 361 117 378C117 395 102 410 85 410C68 410 53 395 53 378C53 361 68 346 85 346Z" glyph-name="dot.054" horiz-adv-x="170" /><glyph d="M85 353C102 353 117 368 117 385C117 402 102 417 85 417C68 417 53 402 53 385C53 368 68 353 85 353Z" glyph-name="dot.055" horiz-adv-x="170" /><glyph d="M85 360C102 360 117 375 117 392C117 409 102 424 85 424C68 424 53 409 53 392C53 375 68 360 85 360Z" glyph-name="dot.056" horiz-adv-x="170" /><glyph d="M85 367C102 367 117 382 117 399C117 416 102 431 85 431C68 431 53 416 53 399C53 382 68 367 85 367Z" glyph-name="dot.057" horiz-adv-x="170" /><glyph d="M85 374C102 374 117 389 117 406C117 423 102 438 85 438C68 438 53 423 53 406C53 389 68 374 85 374Z" glyph-name="dot.058" horiz-adv-x="170" /><glyph d="M85 381C102 381 117 396 117 413C117 430 102 445 85 445C68 445 53 430 53 413C53 396 68 381 85 381Z" glyph-name="dot.059" horiz-adv-x="170" /><glyph d="M85 388C102 388 117 403 117 420C117 437 102 452 85 452C68 452 53 437 53 420C53 403 68 388 85 388Z" glyph-name="dot.060" horiz-adv-x="170" /><glyph d="M85 395C102 395 117 410 117 427C117 444 102 459 85 459C68 459 53 444 53 427C53 410 68 395 85 395Z" glyph-name="dot.061" horiz-adv-x="170" /><glyph d="M85 402C102 402 117 417 117 434C117 451 102 466 85 466C68 466 53 451 53 434C53 417 68 402 85 402Z" glyph-name="dot.062" horiz-adv-x="170" /><glyph d="M85 409C102 409 117 424 117 441C117 458 102 473 85 473C68 473 53 458 53 441C53 424 68 409 85 409Z" glyph-name="dot.063" horiz-adv-x="170" /><glyph d="M85 416C102 416 117 431 117 448C117 465 102 480 85 480C68 480 53 465 53 448C53 431 68 416 85 416Z" glyph-name="dot.064" horiz-adv-x="170" /><glyph d="M85 423C102 423 117 438 117 455C117 472 102 487 85 487C68 487 53 472 53 455C53 438 68 423 85 423Z" glyph-name="dot.065" horiz-adv-x="170" /><glyph d="M85 430C102 430 117 445 117 462C117 479 102 494 85 494C68 494 53 479 53 462C53 445 68 430 85 430Z" glyph-name="dot.066" horiz-adv-x="170" /><glyph d="M85 437C102 437 117 452 117 469C117 486 102 501 85 501C68 501 53 486 53 469C53 452 68 437 85 437Z" glyph-name="dot.067" horiz-adv-x="170" /><glyph d="M85 444C102 444 117 459 117 476C117 493 102 508 85 508C68 508 53 493 53 476C53 459 68 444 85 444Z" glyph-name="dot.068" horiz-adv-x="170" /><glyph d="M85 451C102 451 117 466 117 483C117 500 102 515 85 515C68 515 53 500 53 483C53 466 68 451 85 451Z" glyph-name="dot.069" horiz-adv-x="170" /><glyph d="M85 458C102 458 117 473 117 490C117 507 102 522 85 522C68 522 53 507 53 490C53 473 68 458 85 458Z" glyph-name="dot.070" horiz-adv-x="170" /><glyph d="M85 465C102 465 117 480 117 497C117 514 102 529 85 529C68 529 53 514 53 497C53 480 68 465 85 465Z" glyph-name="dot.071" horiz-adv-x="170" /><glyph d="M85 472C102 472 117 487 117 504C117 521 102 536 85 536C68 536 53 521 53 504C53 487 68 472 85 472Z" glyph-name="dot.072" horiz-adv-x="170" /><glyph d="M85 479C102 479 117 494 117 511C117 528 102 543 85 543C68 543 53 528 53 511C53 494 68 479 85 479Z" glyph-name="dot.073" horiz-adv-x="170" /><glyph d="M85 486C102 486 117 501 117 518C117 535 102 550 85 550C68 550 53 535 53 518C53 501 68 486 85 486Z" glyph-name="dot.074" horiz-adv-x="170" /><glyph d="M85 493C102 493 117 508 117 525C117 542 102 557 85 557C68 557 53 542 53 525C53 508 68 493 85 493Z" glyph-name="dot.075" horiz-adv-x="170" /><glyph d="M85 500C102 500 117 515 117 532C117 549 102 564 85 564C68 564 53 549 53 532C53 515 68 500 85 500Z" glyph-name="dot.076" horiz-adv-x="170" /><glyph d="M85 507C102 507 117 522 117 539C117 556 102 571 85 571C68 571 53 556 53 539C53 522 68 507 85 507Z" glyph-name="dot.077" horiz-adv-x="170" /><glyph d="M85 514C102 514 117 529 117 546C117 563 102 578 85 578C68 578 53 563 53 546C53 529 68 514 85 514Z" glyph-name="dot.078" horiz-adv-x="170" /><glyph d="M85 521C102 521 117 536 117 553C117 570 102 585 85 585C68 585 53 570 53 553C53 536 68 521 85 521Z" glyph-name="dot.079" horiz-adv-x="170" /><glyph d="M85 528C102 528 117 543 117 560C117 577 102 592 85 592C68 592 53 577 53 560C53 543 68 528 85 528Z" glyph-name="dot.080" horiz-adv-x="170" /><glyph d="M85 535C102 535 117 550 117 567C117 584 102 599 85 599C68 599 53 584 53 567C53 550 68 535 85 535Z" glyph-name="dot.081" horiz-adv-x="170" /><glyph d="M85 542C102 542 117 557 117 574C117 591 102 606 85 606C68 606 53 591 53 574C53 557 68 542 85 542Z" glyph-name="dot.082" horiz-adv-x="170" /><glyph d="M85 549C102 549 117 564 117 581C117 598 102 613 85 613C68 613 53 598 53 581C53 564 68 549 85 549Z" glyph-name="dot.083" horiz-adv-x="170" /><glyph d="M85 556C102 556 117 571 117 588C117 605 102 620 85 620C68 620 53 605 53 588C53 571 68 556 85 556Z" glyph-name="dot.084" horiz-adv-x="170" /><glyph d="M85 563C102 563 117 578 117 595C117 612 102 627 85 627C68 627 53 612 53 595C53 578 68 563 85 563Z" glyph-name="dot.085" horiz-adv-x="170" /><glyph d="M85 570C102 570 117 585 117 602C117 619 102 634 85 634C68 634 53 619 53 602C53 585 68 570 85 570Z" glyph-name="dot.086" horiz-adv-x="170" /><glyph d="M85 577C102 577 117 592 117 609C117 626 102 641 85 641C68 641 53 626 53 609C53 592 68 577 85 577Z" glyph-name="dot.087" horiz-adv-x="170" /><glyph d="M85 584C102 584 117 599 117 616C117 633 102 648 85 648C68 648 53 633 53 616C53 599 68 584 85 584Z" glyph-name="dot.088" horiz-adv-x="170" /><glyph d="M85 591C102 591 117 606 117 623C117 640 102 655 85 655C68 655 53 640 53 623C53 606 68 591 85 591Z" glyph-name="dot.089" horiz-adv-x="170" /><glyph d="M85 598C102 598 117 613 117 630C117 647 102 662 85 662C68 662 53 647 53 630C53 613 68 598 85 598Z" glyph-name="dot.090" horiz-adv-x="170" /><glyph d="M85 605C102 605 117 620 117 637C117 654 102 669 85 669C68 669 53 654 53 637C53 620 68 605 85 605Z" glyph-name="dot.091" horiz-adv-x="170" /><glyph d="M85 612C102 612 117 627 117 644C117 661 102 676 85 676C68 676 53 661 53 644C53 627 68 612 85 612Z" glyph-name="dot.092" horiz-adv-x="170" /><glyph d="M85 619C102 619 117 634 117 651C117 668 102 683 85 683C68 683 53 668 53 651C53 634 68 619 85 619Z" glyph-name="dot.093" horiz-adv-x="170" /><glyph d="M85 626C102 626 117 641 117 658C117 675 102 690 85 690C68 690 53 675 53 658C53 641 68 626 85 626Z" glyph-name="dot.094" horiz-adv-x="170" /><glyph d="M85 633C102 633 117 648 117 665C117 682 102 697 85 697C68 697 53 682 53 665C53 648 68 633 85 633Z" glyph-name="dot.095" horiz-adv-x="170" /><glyph d="M85 640C102 640 117 655 117 672C117 689 102 704 85 704C68 704 53 689 53 672C53 655 68 640 85 640Z" glyph-name="dot.096" horiz-adv-x="170" /><glyph d="M85 647C102 647 117 662 117 679C117 696 102 711 85 711C68 711 53 696 53 679C53 662 68 647 85 647Z" glyph-name="dot.097" horiz-adv-x="170" /><glyph d="M85 654C102 654 117 669 117 686C117 703 102 718 85 718C68 718 53 703 53 686C53 669 68 654 85 654Z" glyph-name="dot.098" horiz-adv-x="170" /><glyph d="M85 661C102 661 117 676 117 693C117 710 102 725 85 725C68 725 53 710 53 693C53 676 68 661 85 661Z" glyph-name="dot.099" horiz-adv-x="170" /><glyph d="M85 668C102 668 117 683 117 700C117 717 102 732 85 732C68 732 53 717 53 700C53 683 68 668 85 668Z" glyph-name="dot.100" horiz-adv-x="170" /><glyph d="M50 670V570H150V670Z" glyph-name="dotaccent" horiz-adv-x="200" unicode="&#729;" /><glyph d="M52 0H135V500H52Z" glyph-name="dotlessi" horiz-adv-x="187" unicode="&#305;" /><glyph d="M52 0H361V72H134V219H316V291H134V428H355V500H52Z" glyph-name="e" horiz-adv-x="388" unicode="e" /><glyph d="M52 0H361V72H134V219H316V291H134V428H355V500H52ZM223 560 327 670H223L156 560Z" glyph-name="eacute" horiz-adv-x="388" unicode="&#233;" /><glyph d="M52 0H361V72H134V219H316V291H134V428H355V500H52ZM252 670H156L45 570H140L204 629L268 570H363Z" glyph-name="ecircumflex" horiz-adv-x="388" unicode="&#234;" /><glyph d="M52 0H361V72H134V219H316V291H134V428H355V500H52ZM71 670V574H167V670ZM236 670V574H332V670Z" glyph-name="edieresis" horiz-adv-x="388" unicode="&#235;" /><glyph d="M52 0H361V72H134V219H316V291H134V428H355V500H52ZM179 560H246L179 670H75Z" glyph-name="egrave" horiz-adv-x="388" unicode="&#232;" /><glyph d="M418 141C418 194 381 237 335 254V256C371 276 400 316 400 364C400 452 331 510 226 510C121 510 50 456 50 368C50 319 80 277 117 256V254C70 236 32 194 32 139C32 40 113 -10 227 -10C341 -10 418 42 418 141ZM226 282C171 282 133 311 133 360C133 409 169 440 224 440C279 440 317 411 317 362C317 313 281 282 226 282ZM224 223C290 223 331 193 331 142C331 91 292 59 226 59C160 59 119 89 119 140C119 191 158 223 224 223Z" glyph-name="eight" horiz-adv-x="450" unicode="8" /><glyph d="M55 105V0H160V105ZM245 105V0H350V105ZM435 105V0H540V105Z" glyph-name="ellipsis" horiz-adv-x="595" unicode="&#8230;" /><glyph d="M43 218H577V276H43Z" glyph-name="emdash" horiz-adv-x="620" unicode="&#8212;" /><glyph d="M44 217H396V277H44Z" glyph-name="endash" horiz-adv-x="440" unicode="&#8211;" /><glyph d="M65 144H385V209H65ZM65 286H385V351H65Z" glyph-name="equal" horiz-adv-x="450" unicode="=" /><glyph d="M25 225H277V285H25ZM77 0H203C364 0 461 80 461 250C461 421 371 500 209 500H77ZM205 428C328 428 378 377 378 254C378 132 330 72 207 72H159V428Z" glyph-name="eth" horiz-adv-x="487" unicode="&#240;" /><glyph d="M61 100V0H163V100ZM51 500 81 150H143L173 500Z" glyph-name="exclam" horiz-adv-x="224" unicode="!" /><glyph d="M61 400V500H163V400ZM51 0 81 350H143L173 0Z" glyph-name="exclamdown" horiz-adv-x="224" unicode="&#161;" /><glyph d="M52 0H134V210H320V282H134V428H359V500H52Z" glyph-name="f" horiz-adv-x="374" unicode="f" /><glyph d="M55 216H127C147 250 177 271 225 271C296 271 329 226 329 167C329 108 292 62 221 62C166 62 128 91 120 134H40C43 103 58 70 74 50C104 13 153 -10 218 -10C331 -10 412 60 412 170C412 278 338 339 237 339C197 339 162 327 134 303H132L142 428H388V500H77Z" glyph-name="five" horiz-adv-x="450" unicode="5" /><glyph d="M27 100H268V0H347V100H424V169H347V502H259L27 160ZM108 169 269 411H271C269 378 268 334 268 304V169Z" glyph-name="four" horiz-adv-x="450" unicode="4" /><glyph d="M20 280H154V223H218V280H261V334H218V500H143L20 329ZM80 334 157 443H158L154 334Z" glyph-name="foursuperscript" horiz-adv-x="283" /><glyph d="M472 241V252H239V180H383C379 116 338 66 255 66C168 66 112 132 112 248C112 365 170 434 257 434C324 434 362 403 373 349H459C447 451 368 510 261 510C130 510 26 423 26 252C26 82 120 -10 251 -10C398 -10 472 81 472 241Z" glyph-name="g" horiz-adv-x="497" unicode="g" /><glyph d="M199 0H235C346 0 410 53 410 146C410 205 381 240 332 263V265C367 283 394 320 394 368C394 455 330 500 229 500C125 500 51 451 51 357V0H133V352C133 404 168 428 221 428C272 428 309 410 309 363C309 317 278 294 221 294H199V225H225C293 225 325 201 325 150C325 99 293 73 225 73H199Z" glyph-name="germandbls" horiz-adv-x="437" unicode="&#223;" /><glyph d="M154 560H221L154 670H50Z" glyph-name="grave" horiz-adv-x="271" unicode="`" /><glyph d="M393 206 53 35V126L322 250L53 374V465L393 294Z" glyph-name="greater" horiz-adv-x="450" unicode="&gt;" /><glyph d="M131 400H220L126 250L220 100H131L32 250ZM281 400H370L276 250L370 100H281L182 250Z" glyph-name="guillemetleft" horiz-adv-x="406" unicode="&#171;" /><glyph d="M125 400H36L130 250L36 100H125L224 250ZM275 400H186L280 250L186 100H275L374 250Z" glyph-name="guillemetright" horiz-adv-x="406" unicode="&#187;" /><glyph d="M131 400H220L126 250L220 100H131L32 250Z" glyph-name="guilsinglleft" horiz-adv-x="256" unicode="&#8249;" /><glyph d="M125 400H36L130 250L36 100H125L224 250Z" glyph-name="guilsinglright" horiz-adv-x="256" unicode="&#8250;" /><glyph d="M52 0H134V218H363V0H445V500H363V290H134V500H52Z" glyph-name="h" horiz-adv-x="497" unicode="h" /><glyph d="M123 560 231 670H135L50 560ZM266 560 374 670H278L193 560Z" glyph-name="hungarumlaut" horiz-adv-x="424" unicode="&#733;" /><glyph d="M45 213H295V285H45Z" glyph-name="hyphen" horiz-adv-x="340" unicode="-" /><glyph d="M52 0H135V500H52Z" glyph-name="i" horiz-adv-x="187" unicode="i" /><glyph d="M52 0H135V500H52ZM127 560 231 670H127L60 560Z" glyph-name="iacute" horiz-adv-x="187" unicode="&#237;" /><glyph d="M52 0H135V500H52ZM142 670H46L-65 570H30L94 629L158 570H253Z" glyph-name="icircumflex" horiz-adv-x="187" unicode="&#238;" /><glyph d="M52 0H135V500H52ZM-37 670V574H59V670ZM128 670V574H224V670Z" glyph-name="idieresis" horiz-adv-x="187" unicode="&#239;" /><glyph d="M52 0H135V500H52ZM60 560H127L60 670H-44Z" glyph-name="igrave" horiz-adv-x="187" unicode="&#236;" /><glyph d="M133 161C133 94 116 66 57 66C45 66 24 67 10 69V-7C25 -9 44 -10 59 -10C170 -10 216 28 216 145V500H133Z" glyph-name="j" horiz-adv-x="266" unicode="j" /><glyph d="M56 0H139V140L214 229L361 0H460L268 292L446 500H349L139 251V500H56Z" glyph-name="k" horiz-adv-x="456" unicode="k" /><glyph d="M52 0H361V73H134V500H52Z" glyph-name="l" horiz-adv-x="366" unicode="l" /><glyph d="M57 206 397 35V126L128 250L397 374V465L57 294Z" glyph-name="less" horiz-adv-x="450" unicode="&lt;" /><glyph d="M85 -18H435V18H85ZM85 -32C102 -32 117 -17 117 0C117 17 102 32 85 32C68 32 53 17 53 0C53 -17 68 -32 85 -32Z" glyph-name="line.000.000" horiz-adv-x="350" /><glyph d="M85 -18 435 -11V25L85 18ZM85 -32C102 -32 117 -17 117 0C117 17 102 32 85 32C68 32 53 17 53 0C53 -17 68 -32 85 -32Z" glyph-name="line.000.001" horiz-adv-x="350" /><glyph d="M85 -18 435 -4V32L85 18ZM85 -32C102 -32 117 -17 117 0C117 17 102 32 85 32C68 32 53 17 53 0C53 -17 68 -32 85 -32Z" glyph-name="line.000.002" horiz-adv-x="350" /><glyph d="M85 -18 435 3V39L85 18ZM85 -32C102 -32 117 -17 117 0C117 17 102 32 85 32C68 32 53 17 53 0C53 -17 68 -32 85 -32Z" glyph-name="line.000.003" horiz-adv-x="350" /><glyph d="M85 -18 435 10V46L85 18ZM85 -32C102 -32 117 -17 117 0C117 17 102 32 85 32C68 32 53 17 53 0C53 -17 68 -32 85 -32Z" glyph-name="line.000.004" horiz-adv-x="350" /><glyph d="M85 -18 435 17V53L85 18ZM85 -32C102 -32 117 -17 117 0C117 17 102 32 85 32C68 32 53 17 53 0C53 -17 68 -32 85 -32Z" glyph-name="line.000.005" horiz-adv-x="350" /><glyph d="M85 -19 435 23V61L85 19ZM85 -32C102 -32 117 -17 117 0C117 17 102 32 85 32C68 32 53 17 53 0C53 -17 68 -32 85 -32Z" glyph-name="line.000.006" horiz-adv-x="350" /><glyph d="M85 -19 435 30V68L85 19ZM85 -32C102 -32 117 -17 117 0C117 17 102 32 85 32C68 32 53 17 53 0C53 -17 68 -32 85 -32Z" glyph-name="line.000.007" horiz-adv-x="350" /><glyph d="M85 -19 435 37V75L85 19ZM85 -32C102 -32 117 -17 117 0C117 17 102 32 85 32C68 32 53 17 53 0C53 -17 68 -32 85 -32Z" glyph-name="line.000.008" horiz-adv-x="350" /><glyph d="M85 -19 435 44V82L85 19ZM85 -32C102 -32 117 -17 117 0C117 17 102 32 85 32C68 32 53 17 53 0C53 -17 68 -32 85 -32Z" glyph-name="line.000.009" horiz-adv-x="350" /><glyph d="M85 -19 435 51V89L85 19ZM85 -32C102 -32 117 -17 117 0C117 17 102 32 85 32C68 32 53 17 53 0C53 -17 68 -32 85 -32Z" glyph-name="line.000.010" horiz-adv-x="350" /><glyph d="M85 -19 435 58V96L85 19ZM85 -32C102 -32 117 -17 117 0C117 17 102 32 85 32C68 32 53 17 53 0C53 -17 68 -32 85 -32Z" glyph-name="line.000.011" horiz-adv-x="350" /><glyph d="M85 -19 435 65V103L85 19ZM85 -32C102 -32 117 -17 117 0C117 17 102 32 85 32C68 32 53 17 53 0C53 -17 68 -32 85 -32Z" glyph-name="line.000.012" horiz-adv-x="350" /><glyph d="M85 -19 435 72V110L85 19ZM85 -32C102 -32 117 -17 117 0C117 17 102 32 85 32C68 32 53 17 53 0C53 -17 68 -32 85 -32Z" glyph-name="line.000.013" horiz-adv-x="350" /><glyph d="M85 -19 435 79V117L85 19ZM85 -32C102 -32 117 -17 117 0C117 17 102 32 85 32C68 32 53 17 53 0C53 -17 68 -32 85 -32Z" glyph-name="line.000.014" horiz-adv-x="350" /><glyph d="M85 -19 435 86V124L85 19ZM85 -32C102 -32 117 -17 117 0C117 17 102 32 85 32C68 32 53 17 53 0C53 -17 68 -32 85 -32Z" glyph-name="line.000.015" horiz-adv-x="350" /><glyph d="M85 -19 435 93V131L85 19ZM85 -32C102 -32 117 -17 117 0C117 17 102 32 85 32C68 32 53 17 53 0C53 -17 68 -32 85 -32Z" glyph-name="line.000.016" horiz-adv-x="350" /><glyph d="M85 -19 435 100V138L85 19ZM85 -32C102 -32 117 -17 117 0C117 17 102 32 85 32C68 32 53 17 53 0C53 -17 68 -32 85 -32Z" glyph-name="line.000.017" horiz-adv-x="350" /><glyph d="M85 -19 435 107V145L85 19ZM85 -32C102 -32 117 -17 117 0C117 17 102 32 85 32C68 32 53 17 53 0C53 -17 68 -32 85 -32Z" glyph-name="line.000.018" horiz-adv-x="350" /><glyph d="M85 -20 435 113V153L85 20ZM85 -32C102 -32 117 -17 117 0C117 17 102 32 85 32C68 32 53 17 53 0C53 -17 68 -32 85 -32Z" glyph-name="line.000.019" horiz-adv-x="350" /><glyph d="M85 -20 435 120V160L85 20ZM85 -32C102 -32 117 -17 117 0C117 17 102 32 85 32C68 32 53 17 53 0C53 -17 68 -32 85 -32Z" glyph-name="line.000.020" horiz-adv-x="350" /><glyph d="M85 -20 435 127V167L85 20ZM85 -32C102 -32 117 -17 117 0C117 17 102 32 85 32C68 32 53 17 53 0C53 -17 68 -32 85 -32Z" glyph-name="line.000.021" horiz-adv-x="350" /><glyph d="M85 -20 435 134V174L85 20ZM85 -32C102 -32 117 -17 117 0C117 17 102 32 85 32C68 32 53 17 53 0C53 -17 68 -32 85 -32Z" glyph-name="line.000.022" horiz-adv-x="350" /><glyph d="M85 -20 435 141V181L85 20ZM85 -32C102 -32 117 -17 117 0C117 17 102 32 85 32C68 32 53 17 53 0C53 -17 68 -32 85 -32Z" glyph-name="line.000.023" horiz-adv-x="350" /><glyph d="M85 -20 435 148V188L85 20ZM85 -32C102 -32 117 -17 117 0C117 17 102 32 85 32C68 32 53 17 53 0C53 -17 68 -32 85 -32Z" glyph-name="line.000.024" horiz-adv-x="350" /><glyph d="M85 -20 435 155V195L85 20ZM85 -32C102 -32 117 -17 117 0C117 17 102 32 85 32C68 32 53 17 53 0C53 -17 68 -32 85 -32Z" glyph-name="line.000.025" horiz-adv-x="350" /><glyph d="M85 -20 435 162V202L85 20ZM85 -32C102 -32 117 -17 117 0C117 17 102 32 85 32C68 32 53 17 53 0C53 -17 68 -32 85 -32Z" glyph-name="line.000.026" horiz-adv-x="350" /><glyph d="M85 -21 435 168V210L85 21ZM85 -32C102 -32 117 -17 117 0C117 17 102 32 85 32C68 32 53 17 53 0C53 -17 68 -32 85 -32Z" glyph-name="line.000.027" horiz-adv-x="350" /><glyph d="M85 -21 435 175V217L85 21ZM85 -32C102 -32 117 -17 117 0C117 17 102 32 85 32C68 32 53 17 53 0C53 -17 68 -32 85 -32Z" glyph-name="line.000.028" horiz-adv-x="350" /><glyph d="M85 -21 435 182V224L85 21ZM85 -32C102 -32 117 -17 117 0C117 17 102 32 85 32C68 32 53 17 53 0C53 -17 68 -32 85 -32Z" glyph-name="line.000.029" horiz-adv-x="350" /><glyph d="M85 -21 435 189V231L85 21ZM85 -32C102 -32 117 -17 117 0C117 17 102 32 85 32C68 32 53 17 53 0C53 -17 68 -32 85 -32Z" glyph-name="line.000.030" horiz-adv-x="350" /><glyph d="M85 -21 435 196V238L85 21ZM85 -32C102 -32 117 -17 117 0C117 17 102 32 85 32C68 32 53 17 53 0C53 -17 68 -32 85 -32Z" glyph-name="line.000.031" horiz-adv-x="350" /><glyph d="M85 -21 435 203V245L85 21ZM85 -32C102 -32 117 -17 117 0C117 17 102 32 85 32C68 32 53 17 53 0C53 -17 68 -32 85 -32Z" glyph-name="line.000.032" horiz-adv-x="350" /><glyph d="M85 -22 435 209V253L85 22ZM85 -32C102 -32 117 -17 117 0C117 17 102 32 85 32C68 32 53 17 53 0C53 -17 68 -32 85 -32Z" glyph-name="line.000.033" horiz-adv-x="350" /><glyph d="M85 -22 435 216V260L85 22ZM85 -32C102 -32 117 -17 117 0C117 17 102 32 85 32C68 32 53 17 53 0C53 -17 68 -32 85 -32Z" glyph-name="line.000.034" horiz-adv-x="350" /><glyph d="M85 -22 435 223V267L85 22ZM85 -32C102 -32 117 -17 117 0C117 17 102 32 85 32C68 32 53 17 53 0C53 -17 68 -32 85 -32Z" glyph-name="line.000.035" horiz-adv-x="350" /><glyph d="M85 -22 435 230V274L85 22ZM85 -32C102 -32 117 -17 117 0C117 17 102 32 85 32C68 32 53 17 53 0C53 -17 68 -32 85 -32Z" glyph-name="line.000.036" horiz-adv-x="350" /><glyph d="M85 -23 435 236V282L85 23ZM85 -32C102 -32 117 -17 117 0C117 17 102 32 85 32C68 32 53 17 53 0C53 -17 68 -32 85 -32Z" glyph-name="line.000.037" horiz-adv-x="350" /><glyph d="M85 -23 435 243V289L85 23ZM85 -32C102 -32 117 -17 117 0C117 17 102 32 85 32C68 32 53 17 53 0C53 -17 68 -32 85 -32Z" glyph-name="line.000.038" horiz-adv-x="350" /><glyph d="M85 -23 435 250V296L85 23ZM85 -32C102 -32 117 -17 117 0C117 17 102 32 85 32C68 32 53 17 53 0C53 -17 68 -32 85 -32Z" glyph-name="line.000.039" horiz-adv-x="350" /><glyph d="M85 -23 435 257V303L85 23ZM85 -32C102 -32 117 -17 117 0C117 17 102 32 85 32C68 32 53 17 53 0C53 -17 68 -32 85 -32Z" glyph-name="line.000.040" horiz-adv-x="350" /><glyph d="M85 -23 435 264V310L85 23ZM85 -32C102 -32 117 -17 117 0C117 17 102 32 85 32C68 32 53 17 53 0C53 -17 68 -32 85 -32Z" glyph-name="line.000.041" horiz-adv-x="350" /><glyph d="M85 -24 435 270V318L85 24ZM85 -32C102 -32 117 -17 117 0C117 17 102 32 85 32C68 32 53 17 53 0C53 -17 68 -32 85 -32Z" glyph-name="line.000.042" horiz-adv-x="350" /><glyph d="M85 -24 435 277V325L85 24ZM85 -32C102 -32 117 -17 117 0C117 17 102 32 85 32C68 32 53 17 53 0C53 -17 68 -32 85 -32Z" glyph-name="line.000.043" horiz-adv-x="350" /><glyph d="M85 -24 435 284V332L85 24ZM85 -32C102 -32 117 -17 117 0C117 17 102 32 85 32C68 32 53 17 53 0C53 -17 68 -32 85 -32Z" glyph-name="line.000.044" horiz-adv-x="350" /><glyph d="M85 -24 435 291V339L85 24ZM85 -32C102 -32 117 -17 117 0C117 17 102 32 85 32C68 32 53 17 53 0C53 -17 68 -32 85 -32Z" glyph-name="line.000.045" horiz-adv-x="350" /><glyph d="M85 -25 435 297V347L85 25ZM85 -32C102 -32 117 -17 117 0C117 17 102 32 85 32C68 32 53 17 53 0C53 -17 68 -32 85 -32Z" glyph-name="line.000.046" horiz-adv-x="350" /><glyph d="M85 -25 435 304V354L85 25ZM85 -32C102 -32 117 -17 117 0C117 17 102 32 85 32C68 32 53 17 53 0C53 -17 68 -32 85 -32Z" glyph-name="line.000.047" horiz-adv-x="350" /><glyph d="M85 -25 435 311V361L85 25ZM85 -32C102 -32 117 -17 117 0C117 17 102 32 85 32C68 32 53 17 53 0C53 -17 68 -32 85 -32Z" glyph-name="line.000.048" horiz-adv-x="350" /><glyph d="M85 -25 435 318V368L85 25ZM85 -32C102 -32 117 -17 117 0C117 17 102 32 85 32C68 32 53 17 53 0C53 -17 68 -32 85 -32Z" glyph-name="line.000.049" horiz-adv-x="350" /><glyph d="M85 -25 435 325V375L85 25ZM85 -32C102 -32 117 -17 117 0C117 17 102 32 85 32C68 32 53 17 53 0C53 -17 68 -32 85 -32Z" glyph-name="line.000.050" horiz-adv-x="350" /><glyph d="M85 -25 435 332V382L85 25ZM85 -32C102 -32 117 -17 117 0C117 17 102 32 85 32C68 32 53 17 53 0C53 -17 68 -32 85 -32Z" glyph-name="line.000.051" horiz-adv-x="350" /><glyph d="M85 -25 435 339V389L85 25ZM85 -32C102 -32 117 -17 117 0C117 17 102 32 85 32C68 32 53 17 53 0C53 -17 68 -32 85 -32Z" glyph-name="line.000.052" horiz-adv-x="350" /><glyph d="M85 -26 435 345V397L85 26ZM85 -32C102 -32 117 -17 117 0C117 17 102 32 85 32C68 32 53 17 53 0C53 -17 68 -32 85 -32Z" glyph-name="line.000.053" horiz-adv-x="350" /><glyph d="M85 -27 435 351V405L85 27ZM85 -32C102 -32 117 -17 117 0C117 17 102 32 85 32C68 32 53 17 53 0C53 -17 68 -32 85 -32Z" glyph-name="line.000.054" horiz-adv-x="350" /><glyph d="M85 -28 435 357V413L85 28ZM85 -32C102 -32 117 -17 117 0C117 17 102 32 85 32C68 32 53 17 53 0C53 -17 68 -32 85 -32Z" glyph-name="line.000.055" horiz-adv-x="350" /><glyph d="M85 -29 435 363V421L85 29ZM85 -32C102 -32 117 -17 117 0C117 17 102 32 85 32C68 32 53 17 53 0C53 -17 68 -32 85 -32Z" glyph-name="line.000.056" horiz-adv-x="350" /><glyph d="M85 -29 435 370V428L85 29ZM85 -32C102 -32 117 -17 117 0C117 17 102 32 85 32C68 32 53 17 53 0C53 -17 68 -32 85 -32Z" glyph-name="line.000.057" horiz-adv-x="350" /><glyph d="M85 -30 435 376V436L85 30ZM85 -32C102 -32 117 -17 117 0C117 17 102 32 85 32C68 32 53 17 53 0C53 -17 68 -32 85 -32Z" glyph-name="line.000.058" horiz-adv-x="350" /><glyph d="M85 -30 435 383V443L85 30ZM85 -32C102 -32 117 -17 117 0C117 17 102 32 85 32C68 32 53 17 53 0C53 -17 68 -32 85 -32Z" glyph-name="line.000.059" horiz-adv-x="350" /><glyph d="M85 -30 435 390V450L85 30ZM85 -32C102 -32 117 -17 117 0C117 17 102 32 85 32C68 32 53 17 53 0C53 -17 68 -32 85 -32Z" glyph-name="line.000.060" horiz-adv-x="350" /><glyph d="M85 -30 435 397V457L85 30ZM85 -32C102 -32 117 -17 117 0C117 17 102 32 85 32C68 32 53 17 53 0C53 -17 68 -32 85 -32Z" glyph-name="line.000.061" horiz-adv-x="350" /><glyph d="M85 -31 435 403V465L85 31ZM85 -32C102 -32 117 -17 117 0C117 17 102 32 85 32C68 32 53 17 53 0C53 -17 68 -32 85 -32Z" glyph-name="line.000.062" horiz-adv-x="350" /><glyph d="M85 -31 435 410V472L85 31ZM85 -32C102 -32 117 -17 117 0C117 17 102 32 85 32C68 32 53 17 53 0C53 -17 68 -32 85 -32Z" glyph-name="line.000.063" horiz-adv-x="350" /><glyph d="M85 -31 435 417V479L85 31ZM85 -32C102 -32 117 -17 117 0C117 17 102 32 85 32C68 32 53 17 53 0C53 -17 68 -32 85 -32Z" glyph-name="line.000.064" horiz-adv-x="350" /><glyph d="M85 -31 435 424V486L85 31ZM85 -32C102 -32 117 -17 117 0C117 17 102 32 85 32C68 32 53 17 53 0C53 -17 68 -32 85 -32Z" glyph-name="line.000.065" horiz-adv-x="350" /><glyph d="M85 -31 435 431V493L85 31ZM85 -32C102 -32 117 -17 117 0C117 17 102 32 85 32C68 32 53 17 53 0C53 -17 68 -32 85 -32Z" glyph-name="line.000.066" horiz-adv-x="350" /><glyph d="M85 -32 435 437V501L85 32ZM85 -32C102 -32 117 -17 117 0C117 17 102 32 85 32C68 32 53 17 53 0C53 -17 68 -32 85 -32Z" glyph-name="line.000.067" horiz-adv-x="350" /><glyph d="M85 -32 435 444V508L85 32ZM85 -32C102 -32 117 -17 117 0C117 17 102 32 85 32C68 32 53 17 53 0C53 -17 68 -32 85 -32Z" glyph-name="line.000.068" horiz-adv-x="350" /><glyph d="M109 0 459 483H411L61 0ZM85 -32C102 -32 117 -17 117 0C117 17 102 32 85 32C68 32 53 17 53 0C53 -17 68 -32 85 -32Z" glyph-name="line.000.069" horiz-adv-x="350" /><glyph d="M108 0 458 490H412L62 0ZM85 -32C102 -32 117 -17 117 0C117 17 102 32 85 32C68 32 53 17 53 0C53 -17 68 -32 85 -32Z" glyph-name="line.000.070" horiz-adv-x="350" /><glyph d="M108 0 458 497H412L62 0ZM85 -32C102 -32 117 -17 117 0C117 17 102 32 85 32C68 32 53 17 53 0C53 -17 68 -32 85 -32Z" glyph-name="line.000.071" horiz-adv-x="350" /><glyph d="M108 0 458 504H412L62 0ZM85 -32C102 -32 117 -17 117 0C117 17 102 32 85 32C68 32 53 17 53 0C53 -17 68 -32 85 -32Z" glyph-name="line.000.072" horiz-adv-x="350" /><glyph d="M108 0 458 511H412L62 0ZM85 -32C102 -32 117 -17 117 0C117 17 102 32 85 32C68 32 53 17 53 0C53 -17 68 -32 85 -32Z" glyph-name="line.000.073" horiz-adv-x="350" /><glyph d="M108 0 458 518H412L62 0ZM85 -32C102 -32 117 -17 117 0C117 17 102 32 85 32C68 32 53 17 53 0C53 -17 68 -32 85 -32Z" glyph-name="line.000.074" horiz-adv-x="350" /><glyph d="M108 0 458 525H412L62 0ZM85 -32C102 -32 117 -17 117 0C117 17 102 32 85 32C68 32 53 17 53 0C53 -17 68 -32 85 -32Z" glyph-name="line.000.075" horiz-adv-x="350" /><glyph d="M108 0 458 532H412L62 0ZM85 -32C102 -32 117 -17 117 0C117 17 102 32 85 32C68 32 53 17 53 0C53 -17 68 -32 85 -32Z" glyph-name="line.000.076" horiz-adv-x="350" /><glyph d="M108 0 458 539H412L62 0ZM85 -32C102 -32 117 -17 117 0C117 17 102 32 85 32C68 32 53 17 53 0C53 -17 68 -32 85 -32Z" glyph-name="line.000.077" horiz-adv-x="350" /><glyph d="M108 0 458 546H412L62 0ZM85 -32C102 -32 117 -17 117 0C117 17 102 32 85 32C68 32 53 17 53 0C53 -17 68 -32 85 -32Z" glyph-name="line.000.078" horiz-adv-x="350" /><glyph d="M108 0 458 553H412L62 0ZM85 -32C102 -32 117 -17 117 0C117 17 102 32 85 32C68 32 53 17 53 0C53 -17 68 -32 85 -32Z" glyph-name="line.000.079" horiz-adv-x="350" /><glyph d="M108 0 458 560H412L62 0ZM85 -32C102 -32 117 -17 117 0C117 17 102 32 85 32C68 32 53 17 53 0C53 -17 68 -32 85 -32Z" glyph-name="line.000.080" horiz-adv-x="350" /><glyph d="M108 0 458 567H412L62 0ZM85 -32C102 -32 117 -17 117 0C117 17 102 32 85 32C68 32 53 17 53 0C53 -17 68 -32 85 -32Z" glyph-name="line.000.081" horiz-adv-x="350" /><glyph d="M108 0 458 574H412L62 0ZM85 -32C102 -32 117 -17 117 0C117 17 102 32 85 32C68 32 53 17 53 0C53 -17 68 -32 85 -32Z" glyph-name="line.000.082" horiz-adv-x="350" /><glyph d="M108 0 458 581H412L62 0ZM85 -32C102 -32 117 -17 117 0C117 17 102 32 85 32C68 32 53 17 53 0C53 -17 68 -32 85 -32Z" glyph-name="line.000.083" horiz-adv-x="350" /><glyph d="M108 0 458 588H412L62 0ZM85 -32C102 -32 117 -17 117 0C117 17 102 32 85 32C68 32 53 17 53 0C53 -17 68 -32 85 -32Z" glyph-name="line.000.084" horiz-adv-x="350" /><glyph d="M108 0 458 595H412L62 0ZM85 -32C102 -32 117 -17 117 0C117 17 102 32 85 32C68 32 53 17 53 0C53 -17 68 -32 85 -32Z" glyph-name="line.000.085" horiz-adv-x="350" /><glyph d="M108 0 458 602H412L62 0ZM85 -32C102 -32 117 -17 117 0C117 17 102 32 85 32C68 32 53 17 53 0C53 -17 68 -32 85 -32Z" glyph-name="line.000.086" horiz-adv-x="350" /><glyph d="M108 0 458 609H412L62 0ZM85 -32C102 -32 117 -17 117 0C117 17 102 32 85 32C68 32 53 17 53 0C53 -17 68 -32 85 -32Z" glyph-name="line.000.087" horiz-adv-x="350" /><glyph d="M108 0 458 616H412L62 0ZM85 -32C102 -32 117 -17 117 0C117 17 102 32 85 32C68 32 53 17 53 0C53 -17 68 -32 85 -32Z" glyph-name="line.000.088" horiz-adv-x="350" /><glyph d="M108 0 458 623H412L62 0ZM85 -32C102 -32 117 -17 117 0C117 17 102 32 85 32C68 32 53 17 53 0C53 -17 68 -32 85 -32Z" glyph-name="line.000.089" horiz-adv-x="350" /><glyph d="M108 0 458 630H412L62 0ZM85 -32C102 -32 117 -17 117 0C117 17 102 32 85 32C68 32 53 17 53 0C53 -17 68 -32 85 -32Z" glyph-name="line.000.090" horiz-adv-x="350" /><glyph d="M107 0 457 637H413L63 0ZM85 -32C102 -32 117 -17 117 0C117 17 102 32 85 32C68 32 53 17 53 0C53 -17 68 -32 85 -32Z" glyph-name="line.000.091" horiz-adv-x="350" /><glyph d="M107 0 457 644H413L63 0ZM85 -32C102 -32 117 -17 117 0C117 17 102 32 85 32C68 32 53 17 53 0C53 -17 68 -32 85 -32Z" glyph-name="line.000.092" horiz-adv-x="350" /><glyph d="M107 0 457 651H413L63 0ZM85 -32C102 -32 117 -17 117 0C117 17 102 32 85 32C68 32 53 17 53 0C53 -17 68 -32 85 -32Z" glyph-name="line.000.093" horiz-adv-x="350" /><glyph d="M107 0 457 658H413L63 0ZM85 -32C102 -32 117 -17 117 0C117 17 102 32 85 32C68 32 53 17 53 0C53 -17 68 -32 85 -32Z" glyph-name="line.000.094" horiz-adv-x="350" /><glyph d="M107 0 457 665H413L63 0ZM85 -32C102 -32 117 -17 117 0C117 17 102 32 85 32C68 32 53 17 53 0C53 -17 68 -32 85 -32Z" glyph-name="line.000.095" horiz-adv-x="350" /><glyph d="M107 0 457 672H413L63 0ZM85 -32C102 -32 117 -17 117 0C117 17 102 32 85 32C68 32 53 17 53 0C53 -17 68 -32 85 -32Z" glyph-name="line.000.096" horiz-adv-x="350" /><glyph d="M107 0 457 679H413L63 0ZM85 -32C102 -32 117 -17 117 0C117 17 102 32 85 32C68 32 53 17 53 0C53 -17 68 -32 85 -32Z" glyph-name="line.000.097" horiz-adv-x="350" /><glyph d="M107 0 457 686H413L63 0ZM85 -32C102 -32 117 -17 117 0C117 17 102 32 85 32C68 32 53 17 53 0C53 -17 68 -32 85 -32Z" glyph-name="line.000.098" horiz-adv-x="350" /><glyph d="M107 0 457 693H413L63 0ZM85 -32C102 -32 117 -17 117 0C117 17 102 32 85 32C68 32 53 17 53 0C53 -17 68 -32 85 -32Z" glyph-name="line.000.099" horiz-adv-x="350" /><glyph d="M107 0 457 700H413L63 0ZM85 -32C102 -32 117 -17 117 0C117 17 102 32 85 32C68 32 53 17 53 0C53 -17 68 -32 85 -32Z" glyph-name="line.000.100" horiz-adv-x="350" /><glyph d="M85 25 435 18V-18L85 -11ZM85 39C102 39 117 24 117 7C117 -10 102 -25 85 -25C68 -25 53 -10 53 7C53 24 68 39 85 39Z" glyph-name="line.001.000" horiz-adv-x="350" /><glyph d="M85 -11H435V25H85ZM85 -25C102 -25 117 -10 117 7C117 24 102 39 85 39C68 39 53 24 53 7C53 -10 68 -25 85 -25Z" glyph-name="line.001.001" horiz-adv-x="350" /><glyph d="M85 -11 435 -4V32L85 25ZM85 -25C102 -25 117 -10 117 7C117 24 102 39 85 39C68 39 53 24 53 7C53 -10 68 -25 85 -25Z" glyph-name="line.001.002" horiz-adv-x="350" /><glyph d="M85 -11 435 3V39L85 25ZM85 -25C102 -25 117 -10 117 7C117 24 102 39 85 39C68 39 53 24 53 7C53 -10 68 -25 85 -25Z" glyph-name="line.001.003" horiz-adv-x="350" /><glyph d="M85 -11 435 10V46L85 25ZM85 -25C102 -25 117 -10 117 7C117 24 102 39 85 39C68 39 53 24 53 7C53 -10 68 -25 85 -25Z" glyph-name="line.001.004" horiz-adv-x="350" /><glyph d="M85 -11 435 17V53L85 25ZM85 -25C102 -25 117 -10 117 7C117 24 102 39 85 39C68 39 53 24 53 7C53 -10 68 -25 85 -25Z" glyph-name="line.001.005" horiz-adv-x="350" /><glyph d="M85 -11 435 24V60L85 25ZM85 -25C102 -25 117 -10 117 7C117 24 102 39 85 39C68 39 53 24 53 7C53 -10 68 -25 85 -25Z" glyph-name="line.001.006" horiz-adv-x="350" /><glyph d="M85 -12 435 30V68L85 26ZM85 -25C102 -25 117 -10 117 7C117 24 102 39 85 39C68 39 53 24 53 7C53 -10 68 -25 85 -25Z" glyph-name="line.001.007" horiz-adv-x="350" /><glyph d="M85 -12 435 37V75L85 26ZM85 -25C102 -25 117 -10 117 7C117 24 102 39 85 39C68 39 53 24 53 7C53 -10 68 -25 85 -25Z" glyph-name="line.001.008" horiz-adv-x="350" /><glyph d="M85 -12 435 44V82L85 26ZM85 -25C102 -25 117 -10 117 7C117 24 102 39 85 39C68 39 53 24 53 7C53 -10 68 -25 85 -25Z" glyph-name="line.001.009" horiz-adv-x="350" /><glyph d="M85 -12 435 51V89L85 26ZM85 -25C102 -25 117 -10 117 7C117 24 102 39 85 39C68 39 53 24 53 7C53 -10 68 -25 85 -25Z" glyph-name="line.001.010" horiz-adv-x="350" /><glyph d="M85 -12 435 58V96L85 26ZM85 -25C102 -25 117 -10 117 7C117 24 102 39 85 39C68 39 53 24 53 7C53 -10 68 -25 85 -25Z" glyph-name="line.001.011" horiz-adv-x="350" /><glyph d="M85 -12 435 65V103L85 26ZM85 -25C102 -25 117 -10 117 7C117 24 102 39 85 39C68 39 53 24 53 7C53 -10 68 -25 85 -25Z" glyph-name="line.001.012" horiz-adv-x="350" /><glyph d="M85 -12 435 72V110L85 26ZM85 -25C102 -25 117 -10 117 7C117 24 102 39 85 39C68 39 53 24 53 7C53 -10 68 -25 85 -25Z" glyph-name="line.001.013" horiz-adv-x="350" /><glyph d="M85 -12 435 79V117L85 26ZM85 -25C102 -25 117 -10 117 7C117 24 102 39 85 39C68 39 53 24 53 7C53 -10 68 -25 85 -25Z" glyph-name="line.001.014" horiz-adv-x="350" /><glyph d="M85 -12 435 86V124L85 26ZM85 -25C102 -25 117 -10 117 7C117 24 102 39 85 39C68 39 53 24 53 7C53 -10 68 -25 85 -25Z" glyph-name="line.001.015" horiz-adv-x="350" /><glyph d="M85 -12 435 93V131L85 26ZM85 -25C102 -25 117 -10 117 7C117 24 102 39 85 39C68 39 53 24 53 7C53 -10 68 -25 85 -25Z" glyph-name="line.001.016" horiz-adv-x="350" /><glyph d="M85 -12 435 100V138L85 26ZM85 -25C102 -25 117 -10 117 7C117 24 102 39 85 39C68 39 53 24 53 7C53 -10 68 -25 85 -25Z" glyph-name="line.001.017" horiz-adv-x="350" /><glyph d="M85 -12 435 107V145L85 26ZM85 -25C102 -25 117 -10 117 7C117 24 102 39 85 39C68 39 53 24 53 7C53 -10 68 -25 85 -25Z" glyph-name="line.001.018" horiz-adv-x="350" /><glyph d="M85 -12 435 114V152L85 26ZM85 -25C102 -25 117 -10 117 7C117 24 102 39 85 39C68 39 53 24 53 7C53 -10 68 -25 85 -25Z" glyph-name="line.001.019" horiz-adv-x="350" /><glyph d="M85 -13 435 120V160L85 27ZM85 -25C102 -25 117 -10 117 7C117 24 102 39 85 39C68 39 53 24 53 7C53 -10 68 -25 85 -25Z" glyph-name="line.001.020" horiz-adv-x="350" /><glyph d="M85 -13 435 127V167L85 27ZM85 -25C102 -25 117 -10 117 7C117 24 102 39 85 39C68 39 53 24 53 7C53 -10 68 -25 85 -25Z" glyph-name="line.001.021" horiz-adv-x="350" /><glyph d="M85 -13 435 134V174L85 27ZM85 -25C102 -25 117 -10 117 7C117 24 102 39 85 39C68 39 53 24 53 7C53 -10 68 -25 85 -25Z" glyph-name="line.001.022" horiz-adv-x="350" /><glyph d="M85 -13 435 141V181L85 27ZM85 -25C102 -25 117 -10 117 7C117 24 102 39 85 39C68 39 53 24 53 7C53 -10 68 -25 85 -25Z" glyph-name="line.001.023" horiz-adv-x="350" /><glyph d="M85 -13 435 148V188L85 27ZM85 -25C102 -25 117 -10 117 7C117 24 102 39 85 39C68 39 53 24 53 7C53 -10 68 -25 85 -25Z" glyph-name="line.001.024" horiz-adv-x="350" /><glyph d="M85 -13 435 155V195L85 27ZM85 -25C102 -25 117 -10 117 7C117 24 102 39 85 39C68 39 53 24 53 7C53 -10 68 -25 85 -25Z" glyph-name="line.001.025" horiz-adv-x="350" /><glyph d="M85 -13 435 162V202L85 27ZM85 -25C102 -25 117 -10 117 7C117 24 102 39 85 39C68 39 53 24 53 7C53 -10 68 -25 85 -25Z" glyph-name="line.001.026" horiz-adv-x="350" /><glyph d="M85 -13 435 169V209L85 27ZM85 -25C102 -25 117 -10 117 7C117 24 102 39 85 39C68 39 53 24 53 7C53 -10 68 -25 85 -25Z" glyph-name="line.001.027" horiz-adv-x="350" /><glyph d="M85 -14 435 175V217L85 28ZM85 -25C102 -25 117 -10 117 7C117 24 102 39 85 39C68 39 53 24 53 7C53 -10 68 -25 85 -25Z" glyph-name="line.001.028" horiz-adv-x="350" /><glyph d="M85 -14 435 182V224L85 28ZM85 -25C102 -25 117 -10 117 7C117 24 102 39 85 39C68 39 53 24 53 7C53 -10 68 -25 85 -25Z" glyph-name="line.001.029" horiz-adv-x="350" /><glyph d="M85 -14 435 189V231L85 28ZM85 -25C102 -25 117 -10 117 7C117 24 102 39 85 39C68 39 53 24 53 7C53 -10 68 -25 85 -25Z" glyph-name="line.001.030" horiz-adv-x="350" /><glyph d="M85 -14 435 196V238L85 28ZM85 -25C102 -25 117 -10 117 7C117 24 102 39 85 39C68 39 53 24 53 7C53 -10 68 -25 85 -25Z" glyph-name="line.001.031" horiz-adv-x="350" /><glyph d="M85 -14 435 203V245L85 28ZM85 -25C102 -25 117 -10 117 7C117 24 102 39 85 39C68 39 53 24 53 7C53 -10 68 -25 85 -25Z" glyph-name="line.001.032" horiz-adv-x="350" /><glyph d="M85 -14 435 210V252L85 28ZM85 -25C102 -25 117 -10 117 7C117 24 102 39 85 39C68 39 53 24 53 7C53 -10 68 -25 85 -25Z" glyph-name="line.001.033" horiz-adv-x="350" /><glyph d="M85 -15 435 216V260L85 29ZM85 -25C102 -25 117 -10 117 7C117 24 102 39 85 39C68 39 53 24 53 7C53 -10 68 -25 85 -25Z" glyph-name="line.001.034" horiz-adv-x="350" /><glyph d="M85 -15 435 223V267L85 29ZM85 -25C102 -25 117 -10 117 7C117 24 102 39 85 39C68 39 53 24 53 7C53 -10 68 -25 85 -25Z" glyph-name="line.001.035" horiz-adv-x="350" /><glyph d="M85 -15 435 230V274L85 29ZM85 -25C102 -25 117 -10 117 7C117 24 102 39 85 39C68 39 53 24 53 7C53 -10 68 -25 85 -25Z" glyph-name="line.001.036" horiz-adv-x="350" /><glyph d="M85 -15 435 237V281L85 29ZM85 -25C102 -25 117 -10 117 7C117 24 102 39 85 39C68 39 53 24 53 7C53 -10 68 -25 85 -25Z" glyph-name="line.001.037" horiz-adv-x="350" /><glyph d="M85 -16 435 243V289L85 30ZM85 -25C102 -25 117 -10 117 7C117 24 102 39 85 39C68 39 53 24 53 7C53 -10 68 -25 85 -25Z" glyph-name="line.001.038" horiz-adv-x="350" /><glyph d="M85 -16 435 250V296L85 30ZM85 -25C102 -25 117 -10 117 7C117 24 102 39 85 39C68 39 53 24 53 7C53 -10 68 -25 85 -25Z" glyph-name="line.001.039" horiz-adv-x="350" /><glyph d="M85 -16 435 257V303L85 30ZM85 -25C102 -25 117 -10 117 7C117 24 102 39 85 39C68 39 53 24 53 7C53 -10 68 -25 85 -25Z" glyph-name="line.001.040" horiz-adv-x="350" /><glyph d="M85 -16 435 264V310L85 30ZM85 -25C102 -25 117 -10 117 7C117 24 102 39 85 39C68 39 53 24 53 7C53 -10 68 -25 85 -25Z" glyph-name="line.001.041" horiz-adv-x="350" /><glyph d="M85 -16 435 271V317L85 30ZM85 -25C102 -25 117 -10 117 7C117 24 102 39 85 39C68 39 53 24 53 7C53 -10 68 -25 85 -25Z" glyph-name="line.001.042" horiz-adv-x="350" /><glyph d="M85 -17 435 277V325L85 31ZM85 -25C102 -25 117 -10 117 7C117 24 102 39 85 39C68 39 53 24 53 7C53 -10 68 -25 85 -25Z" glyph-name="line.001.043" horiz-adv-x="350" /><glyph d="M85 -17 435 284V332L85 31ZM85 -25C102 -25 117 -10 117 7C117 24 102 39 85 39C68 39 53 24 53 7C53 -10 68 -25 85 -25Z" glyph-name="line.001.044" horiz-adv-x="350" /><glyph d="M85 -17 435 291V339L85 31ZM85 -25C102 -25 117 -10 117 7C117 24 102 39 85 39C68 39 53 24 53 7C53 -10 68 -25 85 -25Z" glyph-name="line.001.045" horiz-adv-x="350" /><glyph d="M85 -17 435 298V346L85 31ZM85 -25C102 -25 117 -10 117 7C117 24 102 39 85 39C68 39 53 24 53 7C53 -10 68 -25 85 -25Z" glyph-name="line.001.046" horiz-adv-x="350" /><glyph d="M85 -18 435 304V354L85 32ZM85 -25C102 -25 117 -10 117 7C117 24 102 39 85 39C68 39 53 24 53 7C53 -10 68 -25 85 -25Z" glyph-name="line.001.047" horiz-adv-x="350" /><glyph d="M85 -18 435 311V361L85 32ZM85 -25C102 -25 117 -10 117 7C117 24 102 39 85 39C68 39 53 24 53 7C53 -10 68 -25 85 -25Z" glyph-name="line.001.048" horiz-adv-x="350" /><glyph d="M85 -18 435 318V368L85 32ZM85 -25C102 -25 117 -10 117 7C117 24 102 39 85 39C68 39 53 24 53 7C53 -10 68 -25 85 -25Z" glyph-name="line.001.049" horiz-adv-x="350" /><glyph d="M85 -18 435 325V375L85 32ZM85 -25C102 -25 117 -10 117 7C117 24 102 39 85 39C68 39 53 24 53 7C53 -10 68 -25 85 -25Z" glyph-name="line.001.050" horiz-adv-x="350" /><glyph d="M85 -18 435 332V382L85 32ZM85 -25C102 -25 117 -10 117 7C117 24 102 39 85 39C68 39 53 24 53 7C53 -10 68 -25 85 -25Z" glyph-name="line.001.051" horiz-adv-x="350" /><glyph d="M85 -18 435 339V389L85 32ZM85 -25C102 -25 117 -10 117 7C117 24 102 39 85 39C68 39 53 24 53 7C53 -10 68 -25 85 -25Z" glyph-name="line.001.052" horiz-adv-x="350" /><glyph d="M85 -18 435 346V396L85 32ZM85 -25C102 -25 117 -10 117 7C117 24 102 39 85 39C68 39 53 24 53 7C53 -10 68 -25 85 -25Z" glyph-name="line.001.053" horiz-adv-x="350" /><glyph d="M85 -19 435 352V404L85 33ZM85 -25C102 -25 117 -10 117 7C117 24 102 39 85 39C68 39 53 24 53 7C53 -10 68 -25 85 -25Z" glyph-name="line.001.054" horiz-adv-x="350" /><glyph d="M85 -20 435 358V412L85 34ZM85 -25C102 -25 117 -10 117 7C117 24 102 39 85 39C68 39 53 24 53 7C53 -10 68 -25 85 -25Z" glyph-name="line.001.055" horiz-adv-x="350" /><glyph d="M85 -21 435 364V420L85 35ZM85 -25C102 -25 117 -10 117 7C117 24 102 39 85 39C68 39 53 24 53 7C53 -10 68 -25 85 -25Z" glyph-name="line.001.056" horiz-adv-x="350" /><glyph d="M85 -22 435 370V428L85 36ZM85 -25C102 -25 117 -10 117 7C117 24 102 39 85 39C68 39 53 24 53 7C53 -10 68 -25 85 -25Z" glyph-name="line.001.057" horiz-adv-x="350" /><glyph d="M85 -22 435 377V435L85 36ZM85 -25C102 -25 117 -10 117 7C117 24 102 39 85 39C68 39 53 24 53 7C53 -10 68 -25 85 -25Z" glyph-name="line.001.058" horiz-adv-x="350" /><glyph d="M85 -23 435 383V443L85 37ZM85 -25C102 -25 117 -10 117 7C117 24 102 39 85 39C68 39 53 24 53 7C53 -10 68 -25 85 -25Z" glyph-name="line.001.059" horiz-adv-x="350" /><glyph d="M85 -23 435 390V450L85 37ZM85 -25C102 -25 117 -10 117 7C117 24 102 39 85 39C68 39 53 24 53 7C53 -10 68 -25 85 -25Z" glyph-name="line.001.060" horiz-adv-x="350" /><glyph d="M85 -23 435 397V457L85 37ZM85 -25C102 -25 117 -10 117 7C117 24 102 39 85 39C68 39 53 24 53 7C53 -10 68 -25 85 -25Z" glyph-name="line.001.061" horiz-adv-x="350" /><glyph d="M85 -23 435 404V464L85 37ZM85 -25C102 -25 117 -10 117 7C117 24 102 39 85 39C68 39 53 24 53 7C53 -10 68 -25 85 -25Z" glyph-name="line.001.062" horiz-adv-x="350" /><glyph d="M85 -24 435 410V472L85 38ZM85 -25C102 -25 117 -10 117 7C117 24 102 39 85 39C68 39 53 24 53 7C53 -10 68 -25 85 -25Z" glyph-name="line.001.063" horiz-adv-x="350" /><glyph d="M85 -24 435 417V479L85 38ZM85 -25C102 -25 117 -10 117 7C117 24 102 39 85 39C68 39 53 24 53 7C53 -10 68 -25 85 -25Z" glyph-name="line.001.064" horiz-adv-x="350" /><glyph d="M85 -24 435 424V486L85 38ZM85 -25C102 -25 117 -10 117 7C117 24 102 39 85 39C68 39 53 24 53 7C53 -10 68 -25 85 -25Z" glyph-name="line.001.065" horiz-adv-x="350" /><glyph d="M85 -24 435 431V493L85 38ZM85 -25C102 -25 117 -10 117 7C117 24 102 39 85 39C68 39 53 24 53 7C53 -10 68 -25 85 -25Z" glyph-name="line.001.066" horiz-adv-x="350" /><glyph d="M85 -24 435 438V500L85 38ZM85 -25C102 -25 117 -10 117 7C117 24 102 39 85 39C68 39 53 24 53 7C53 -10 68 -25 85 -25Z" glyph-name="line.001.067" horiz-adv-x="350" /><glyph d="M85 -25 435 444V508L85 39ZM85 -25C102 -25 117 -10 117 7C117 24 102 39 85 39C68 39 53 24 53 7C53 -10 68 -25 85 -25Z" glyph-name="line.001.068" horiz-adv-x="350" /><glyph d="M85 -25 435 451V515L85 39ZM85 -25C102 -25 117 -10 117 7C117 24 102 39 85 39C68 39 53 24 53 7C53 -10 68 -25 85 -25Z" glyph-name="line.001.069" horiz-adv-x="350" /><glyph d="M109 7 459 490H411L61 7ZM85 -25C102 -25 117 -10 117 7C117 24 102 39 85 39C68 39 53 24 53 7C53 -10 68 -25 85 -25Z" glyph-name="line.001.070" horiz-adv-x="350" /><glyph d="M108 7 458 497H412L62 7ZM85 -25C102 -25 117 -10 117 7C117 24 102 39 85 39C68 39 53 24 53 7C53 -10 68 -25 85 -25Z" glyph-name="line.001.071" horiz-adv-x="350" /><glyph d="M108 7 458 504H412L62 7ZM85 -25C102 -25 117 -10 117 7C117 24 102 39 85 39C68 39 53 24 53 7C53 -10 68 -25 85 -25Z" glyph-name="line.001.072" horiz-adv-x="350" /><glyph d="M108 7 458 511H412L62 7ZM85 -25C102 -25 117 -10 117 7C117 24 102 39 85 39C68 39 53 24 53 7C53 -10 68 -25 85 -25Z" glyph-name="line.001.073" horiz-adv-x="350" /><glyph d="M108 7 458 518H412L62 7ZM85 -25C102 -25 117 -10 117 7C117 24 102 39 85 39C68 39 53 24 53 7C53 -10 68 -25 85 -25Z" glyph-name="line.001.074" horiz-adv-x="350" /><glyph d="M108 7 458 525H412L62 7ZM85 -25C102 -25 117 -10 117 7C117 24 102 39 85 39C68 39 53 24 53 7C53 -10 68 -25 85 -25Z" glyph-name="line.001.075" horiz-adv-x="350" /><glyph d="M108 7 458 532H412L62 7ZM85 -25C102 -25 117 -10 117 7C117 24 102 39 85 39C68 39 53 24 53 7C53 -10 68 -25 85 -25Z" glyph-name="line.001.076" horiz-adv-x="350" /><glyph d="M108 7 458 539H412L62 7ZM85 -25C102 -25 117 -10 117 7C117 24 102 39 85 39C68 39 53 24 53 7C53 -10 68 -25 85 -25Z" glyph-name="line.001.077" horiz-adv-x="350" /><glyph d="M108 7 458 546H412L62 7ZM85 -25C102 -25 117 -10 117 7C117 24 102 39 85 39C68 39 53 24 53 7C53 -10 68 -25 85 -25Z" glyph-name="line.001.078" horiz-adv-x="350" /><glyph d="M108 7 458 553H412L62 7ZM85 -25C102 -25 117 -10 117 7C117 24 102 39 85 39C68 39 53 24 53 7C53 -10 68 -25 85 -25Z" glyph-name="line.001.079" horiz-adv-x="350" /><glyph d="M108 7 458 560H412L62 7ZM85 -25C102 -25 117 -10 117 7C117 24 102 39 85 39C68 39 53 24 53 7C53 -10 68 -25 85 -25Z" glyph-name="line.001.080" horiz-adv-x="350" /><glyph d="M108 7 458 567H412L62 7ZM85 -25C102 -25 117 -10 117 7C117 24 102 39 85 39C68 39 53 24 53 7C53 -10 68 -25 85 -25Z" glyph-name="line.001.081" horiz-adv-x="350" /><glyph d="M108 7 458 574H412L62 7ZM85 -25C102 -25 117 -10 117 7C117 24 102 39 85 39C68 39 53 24 53 7C53 -10 68 -25 85 -25Z" glyph-name="line.001.082" horiz-adv-x="350" /><glyph d="M108 7 458 581H412L62 7ZM85 -25C102 -25 117 -10 117 7C117 24 102 39 85 39C68 39 53 24 53 7C53 -10 68 -25 85 -25Z" glyph-name="line.001.083" horiz-adv-x="350" /><glyph d="M108 7 458 588H412L62 7ZM85 -25C102 -25 117 -10 117 7C117 24 102 39 85 39C68 39 53 24 53 7C53 -10 68 -25 85 -25Z" glyph-name="line.001.084" horiz-adv-x="350" /><glyph d="M108 7 458 595H412L62 7ZM85 -25C102 -25 117 -10 117 7C117 24 102 39 85 39C68 39 53 24 53 7C53 -10 68 -25 85 -25Z" glyph-name="line.001.085" horiz-adv-x="350" /><glyph d="M108 7 458 602H412L62 7ZM85 -25C102 -25 117 -10 117 7C117 24 102 39 85 39C68 39 53 24 53 7C53 -10 68 -25 85 -25Z" glyph-name="line.001.086" horiz-adv-x="350" /><glyph d="M108 7 458 609H412L62 7ZM85 -25C102 -25 117 -10 117 7C117 24 102 39 85 39C68 39 53 24 53 7C53 -10 68 -25 85 -25Z" glyph-name="line.001.087" horiz-adv-x="350" /><glyph d="M108 7 458 616H412L62 7ZM85 -25C102 -25 117 -10 117 7C117 24 102 39 85 39C68 39 53 24 53 7C53 -10 68 -25 85 -25Z" glyph-name="line.001.088" horiz-adv-x="350" /><glyph d="M108 7 458 623H412L62 7ZM85 -25C102 -25 117 -10 117 7C117 24 102 39 85 39C68 39 53 24 53 7C53 -10 68 -25 85 -25Z" glyph-name="line.001.089" horiz-adv-x="350" /><glyph d="M108 7 458 630H412L62 7ZM85 -25C102 -25 117 -10 117 7C117 24 102 39 85 39C68 39 53 24 53 7C53 -10 68 -25 85 -25Z" glyph-name="line.001.090" horiz-adv-x="350" /><glyph d="M108 7 458 637H412L62 7ZM85 -25C102 -25 117 -10 117 7C117 24 102 39 85 39C68 39 53 24 53 7C53 -10 68 -25 85 -25Z" glyph-name="line.001.091" horiz-adv-x="350" /><glyph d="M107 7 457 644H413L63 7ZM85 -25C102 -25 117 -10 117 7C117 24 102 39 85 39C68 39 53 24 53 7C53 -10 68 -25 85 -25Z" glyph-name="line.001.092" horiz-adv-x="350" /><glyph d="M107 7 457 651H413L63 7ZM85 -25C102 -25 117 -10 117 7C117 24 102 39 85 39C68 39 53 24 53 7C53 -10 68 -25 85 -25Z" glyph-name="line.001.093" horiz-adv-x="350" /><glyph d="M107 7 457 658H413L63 7ZM85 -25C102 -25 117 -10 117 7C117 24 102 39 85 39C68 39 53 24 53 7C53 -10 68 -25 85 -25Z" glyph-name="line.001.094" horiz-adv-x="350" /><glyph d="M107 7 457 665H413L63 7ZM85 -25C102 -25 117 -10 117 7C117 24 102 39 85 39C68 39 53 24 53 7C53 -10 68 -25 85 -25Z" glyph-name="line.001.095" horiz-adv-x="350" /><glyph d="M107 7 457 672H413L63 7ZM85 -25C102 -25 117 -10 117 7C117 24 102 39 85 39C68 39 53 24 53 7C53 -10 68 -25 85 -25Z" glyph-name="line.001.096" horiz-adv-x="350" /><glyph d="M107 7 457 679H413L63 7ZM85 -25C102 -25 117 -10 117 7C117 24 102 39 85 39C68 39 53 24 53 7C53 -10 68 -25 85 -25Z" glyph-name="line.001.097" horiz-adv-x="350" /><glyph d="M107 7 457 686H413L63 7ZM85 -25C102 -25 117 -10 117 7C117 24 102 39 85 39C68 39 53 24 53 7C53 -10 68 -25 85 -25Z" glyph-name="line.001.098" horiz-adv-x="350" /><glyph d="M107 7 457 693H413L63 7ZM85 -25C102 -25 117 -10 117 7C117 24 102 39 85 39C68 39 53 24 53 7C53 -10 68 -25 85 -25Z" glyph-name="line.001.099" horiz-adv-x="350" /><glyph d="M107 7 457 700H413L63 7ZM85 -25C102 -25 117 -10 117 7C117 24 102 39 85 39C68 39 53 24 53 7C53 -10 68 -25 85 -25Z" glyph-name="line.001.100" horiz-adv-x="350" /><glyph d="M85 32 435 18V-18L85 -4ZM85 46C102 46 117 31 117 14C117 -3 102 -18 85 -18C68 -18 53 -3 53 14C53 31 68 46 85 46Z" glyph-name="line.002.000" horiz-adv-x="350" /><glyph d="M85 32 435 25V-11L85 -4ZM85 46C102 46 117 31 117 14C117 -3 102 -18 85 -18C68 -18 53 -3 53 14C53 31 68 46 85 46Z" glyph-name="line.002.001" horiz-adv-x="350" /><glyph d="M85 -4H435V32H85ZM85 -18C102 -18 117 -3 117 14C117 31 102 46 85 46C68 46 53 31 53 14C53 -3 68 -18 85 -18Z" glyph-name="line.002.002" horiz-adv-x="350" /><glyph d="M85 -4 435 3V39L85 32ZM85 -18C102 -18 117 -3 117 14C117 31 102 46 85 46C68 46 53 31 53 14C53 -3 68 -18 85 -18Z" glyph-name="line.002.003" horiz-adv-x="350" /><glyph d="M85 -4 435 10V46L85 32ZM85 -18C102 -18 117 -3 117 14C117 31 102 46 85 46C68 46 53 31 53 14C53 -3 68 -18 85 -18Z" glyph-name="line.002.004" horiz-adv-x="350" /><glyph d="M85 -4 435 17V53L85 32ZM85 -18C102 -18 117 -3 117 14C117 31 102 46 85 46C68 46 53 31 53 14C53 -3 68 -18 85 -18Z" glyph-name="line.002.005" horiz-adv-x="350" /><glyph d="M85 -4 435 24V60L85 32ZM85 -18C102 -18 117 -3 117 14C117 31 102 46 85 46C68 46 53 31 53 14C53 -3 68 -18 85 -18Z" glyph-name="line.002.006" horiz-adv-x="350" /><glyph d="M85 -4 435 31V67L85 32ZM85 -18C102 -18 117 -3 117 14C117 31 102 46 85 46C68 46 53 31 53 14C53 -3 68 -18 85 -18Z" glyph-name="line.002.007" horiz-adv-x="350" /><glyph d="M85 -5 435 37V75L85 33ZM85 -18C102 -18 117 -3 117 14C117 31 102 46 85 46C68 46 53 31 53 14C53 -3 68 -18 85 -18Z" glyph-name="line.002.008" horiz-adv-x="350" /><glyph d="M85 -5 435 44V82L85 33ZM85 -18C102 -18 117 -3 117 14C117 31 102 46 85 46C68 46 53 31 53 14C53 -3 68 -18 85 -18Z" glyph-name="line.002.009" horiz-adv-x="350" /><glyph d="M85 -5 435 51V89L85 33ZM85 -18C102 -18 117 -3 117 14C117 31 102 46 85 46C68 46 53 31 53 14C53 -3 68 -18 85 -18Z" glyph-name="line.002.010" horiz-adv-x="350" /><glyph d="M85 -5 435 58V96L85 33ZM85 -18C102 -18 117 -3 117 14C117 31 102 46 85 46C68 46 53 31 53 14C53 -3 68 -18 85 -18Z" glyph-name="line.002.011" horiz-adv-x="350" /><glyph d="M85 -5 435 65V103L85 33ZM85 -18C102 -18 117 -3 117 14C117 31 102 46 85 46C68 46 53 31 53 14C53 -3 68 -18 85 -18Z" glyph-name="line.002.012" horiz-adv-x="350" /><glyph d="M85 -5 435 72V110L85 33ZM85 -18C102 -18 117 -3 117 14C117 31 102 46 85 46C68 46 53 31 53 14C53 -3 68 -18 85 -18Z" glyph-name="line.002.013" horiz-adv-x="350" /><glyph d="M85 -5 435 79V117L85 33ZM85 -18C102 -18 117 -3 117 14C117 31 102 46 85 46C68 46 53 31 53 14C53 -3 68 -18 85 -18Z" glyph-name="line.002.014" horiz-adv-x="350" /><glyph d="M85 -5 435 86V124L85 33ZM85 -18C102 -18 117 -3 117 14C117 31 102 46 85 46C68 46 53 31 53 14C53 -3 68 -18 85 -18Z" glyph-name="line.002.015" horiz-adv-x="350" /><glyph d="M85 -5 435 93V131L85 33ZM85 -18C102 -18 117 -3 117 14C117 31 102 46 85 46C68 46 53 31 53 14C53 -3 68 -18 85 -18Z" glyph-name="line.002.016" horiz-adv-x="350" /><glyph d="M85 -5 435 100V138L85 33ZM85 -18C102 -18 117 -3 117 14C117 31 102 46 85 46C68 46 53 31 53 14C53 -3 68 -18 85 -18Z" glyph-name="line.002.017" horiz-adv-x="350" /><glyph d="M85 -5 435 107V145L85 33ZM85 -18C102 -18 117 -3 117 14C117 31 102 46 85 46C68 46 53 31 53 14C53 -3 68 -18 85 -18Z" glyph-name="line.002.018" horiz-adv-x="350" /><glyph d="M85 -5 435 114V152L85 33ZM85 -18C102 -18 117 -3 117 14C117 31 102 46 85 46C68 46 53 31 53 14C53 -3 68 -18 85 -18Z" glyph-name="line.002.019" horiz-adv-x="350" /><glyph d="M85 -5 435 121V159L85 33ZM85 -18C102 -18 117 -3 117 14C117 31 102 46 85 46C68 46 53 31 53 14C53 -3 68 -18 85 -18Z" glyph-name="line.002.020" horiz-adv-x="350" /><glyph d="M85 -6 435 127V167L85 34ZM85 -18C102 -18 117 -3 117 14C117 31 102 46 85 46C68 46 53 31 53 14C53 -3 68 -18 85 -18Z" glyph-name="line.002.021" horiz-adv-x="350" /><glyph d="M85 -6 435 134V174L85 34ZM85 -18C102 -18 117 -3 117 14C117 31 102 46 85 46C68 46 53 31 53 14C53 -3 68 -18 85 -18Z" glyph-name="line.002.022" horiz-adv-x="350" /><glyph d="M85 -6 435 141V181L85 34ZM85 -18C102 -18 117 -3 117 14C117 31 102 46 85 46C68 46 53 31 53 14C53 -3 68 -18 85 -18Z" glyph-name="line.002.023" horiz-adv-x="350" /><glyph d="M85 -6 435 148V188L85 34ZM85 -18C102 -18 117 -3 117 14C117 31 102 46 85 46C68 46 53 31 53 14C53 -3 68 -18 85 -18Z" glyph-name="line.002.024" horiz-adv-x="350" /><glyph d="M85 -6 435 155V195L85 34ZM85 -18C102 -18 117 -3 117 14C117 31 102 46 85 46C68 46 53 31 53 14C53 -3 68 -18 85 -18Z" glyph-name="line.002.025" horiz-adv-x="350" /><glyph d="M85 -6 435 162V202L85 34ZM85 -18C102 -18 117 -3 117 14C117 31 102 46 85 46C68 46 53 31 53 14C53 -3 68 -18 85 -18Z" glyph-name="line.002.026" horiz-adv-x="350" /><glyph d="M85 -6 435 169V209L85 34ZM85 -18C102 -18 117 -3 117 14C117 31 102 46 85 46C68 46 53 31 53 14C53 -3 68 -18 85 -18Z" glyph-name="line.002.027" horiz-adv-x="350" /><glyph d="M85 -6 435 176V216L85 34ZM85 -18C102 -18 117 -3 117 14C117 31 102 46 85 46C68 46 53 31 53 14C53 -3 68 -18 85 -18Z" glyph-name="line.002.028" horiz-adv-x="350" /><glyph d="M85 -7 435 182V224L85 35ZM85 -18C102 -18 117 -3 117 14C117 31 102 46 85 46C68 46 53 31 53 14C53 -3 68 -18 85 -18Z" glyph-name="line.002.029" horiz-adv-x="350" /><glyph d="M85 -7 435 189V231L85 35ZM85 -18C102 -18 117 -3 117 14C117 31 102 46 85 46C68 46 53 31 53 14C53 -3 68 -18 85 -18Z" glyph-name="line.002.030" horiz-adv-x="350" /><glyph d="M85 -7 435 196V238L85 35ZM85 -18C102 -18 117 -3 117 14C117 31 102 46 85 46C68 46 53 31 53 14C53 -3 68 -18 85 -18Z" glyph-name="line.002.031" horiz-adv-x="350" /><glyph d="M85 -7 435 203V245L85 35ZM85 -18C102 -18 117 -3 117 14C117 31 102 46 85 46C68 46 53 31 53 14C53 -3 68 -18 85 -18Z" glyph-name="line.002.032" horiz-adv-x="350" /><glyph d="M85 -7 435 210V252L85 35ZM85 -18C102 -18 117 -3 117 14C117 31 102 46 85 46C68 46 53 31 53 14C53 -3 68 -18 85 -18Z" glyph-name="line.002.033" horiz-adv-x="350" /><glyph d="M85 -7 435 217V259L85 35ZM85 -18C102 -18 117 -3 117 14C117 31 102 46 85 46C68 46 53 31 53 14C53 -3 68 -18 85 -18Z" glyph-name="line.002.034" horiz-adv-x="350" /><glyph d="M85 -8 435 223V267L85 36ZM85 -18C102 -18 117 -3 117 14C117 31 102 46 85 46C68 46 53 31 53 14C53 -3 68 -18 85 -18Z" glyph-name="line.002.035" horiz-adv-x="350" /><glyph d="M85 -8 435 230V274L85 36ZM85 -18C102 -18 117 -3 117 14C117 31 102 46 85 46C68 46 53 31 53 14C53 -3 68 -18 85 -18Z" glyph-name="line.002.036" horiz-adv-x="350" /><glyph d="M85 -8 435 237V281L85 36ZM85 -18C102 -18 117 -3 117 14C117 31 102 46 85 46C68 46 53 31 53 14C53 -3 68 -18 85 -18Z" glyph-name="line.002.037" horiz-adv-x="350" /><glyph d="M85 -8 435 244V288L85 36ZM85 -18C102 -18 117 -3 117 14C117 31 102 46 85 46C68 46 53 31 53 14C53 -3 68 -18 85 -18Z" glyph-name="line.002.038" horiz-adv-x="350" /><glyph d="M85 -9 435 250V296L85 37ZM85 -18C102 -18 117 -3 117 14C117 31 102 46 85 46C68 46 53 31 53 14C53 -3 68 -18 85 -18Z" glyph-name="line.002.039" horiz-adv-x="350" /><glyph d="M85 -9 435 257V303L85 37ZM85 -18C102 -18 117 -3 117 14C117 31 102 46 85 46C68 46 53 31 53 14C53 -3 68 -18 85 -18Z" glyph-name="line.002.040" horiz-adv-x="350" /><glyph d="M85 -9 435 264V310L85 37ZM85 -18C102 -18 117 -3 117 14C117 31 102 46 85 46C68 46 53 31 53 14C53 -3 68 -18 85 -18Z" glyph-name="line.002.041" horiz-adv-x="350" /><glyph d="M85 -9 435 271V317L85 37ZM85 -18C102 -18 117 -3 117 14C117 31 102 46 85 46C68 46 53 31 53 14C53 -3 68 -18 85 -18Z" glyph-name="line.002.042" horiz-adv-x="350" /><glyph d="M85 -9 435 278V324L85 37ZM85 -18C102 -18 117 -3 117 14C117 31 102 46 85 46C68 46 53 31 53 14C53 -3 68 -18 85 -18Z" glyph-name="line.002.043" horiz-adv-x="350" /><glyph d="M85 -10 435 284V332L85 38ZM85 -18C102 -18 117 -3 117 14C117 31 102 46 85 46C68 46 53 31 53 14C53 -3 68 -18 85 -18Z" glyph-name="line.002.044" horiz-adv-x="350" /><glyph d="M85 -10 435 291V339L85 38ZM85 -18C102 -18 117 -3 117 14C117 31 102 46 85 46C68 46 53 31 53 14C53 -3 68 -18 85 -18Z" glyph-name="line.002.045" horiz-adv-x="350" /><glyph d="M85 -10 435 298V346L85 38ZM85 -18C102 -18 117 -3 117 14C117 31 102 46 85 46C68 46 53 31 53 14C53 -3 68 -18 85 -18Z" glyph-name="line.002.046" horiz-adv-x="350" /><glyph d="M85 -10 435 305V353L85 38ZM85 -18C102 -18 117 -3 117 14C117 31 102 46 85 46C68 46 53 31 53 14C53 -3 68 -18 85 -18Z" glyph-name="line.002.047" horiz-adv-x="350" /><glyph d="M85 -11 435 311V361L85 39ZM85 -18C102 -18 117 -3 117 14C117 31 102 46 85 46C68 46 53 31 53 14C53 -3 68 -18 85 -18Z" glyph-name="line.002.048" horiz-adv-x="350" /><glyph d="M85 -11 435 318V368L85 39ZM85 -18C102 -18 117 -3 117 14C117 31 102 46 85 46C68 46 53 31 53 14C53 -3 68 -18 85 -18Z" glyph-name="line.002.049" horiz-adv-x="350" /><glyph d="M85 -11 435 325V375L85 39ZM85 -18C102 -18 117 -3 117 14C117 31 102 46 85 46C68 46 53 31 53 14C53 -3 68 -18 85 -18Z" glyph-name="line.002.050" horiz-adv-x="350" /><glyph d="M85 -11 435 332V382L85 39ZM85 -18C102 -18 117 -3 117 14C117 31 102 46 85 46C68 46 53 31 53 14C53 -3 68 -18 85 -18Z" glyph-name="line.002.051" horiz-adv-x="350" /><glyph d="M85 -11 435 339V389L85 39ZM85 -18C102 -18 117 -3 117 14C117 31 102 46 85 46C68 46 53 31 53 14C53 -3 68 -18 85 -18Z" glyph-name="line.002.052" horiz-adv-x="350" /><glyph d="M85 -11 435 346V396L85 39ZM85 -18C102 -18 117 -3 117 14C117 31 102 46 85 46C68 46 53 31 53 14C53 -3 68 -18 85 -18Z" glyph-name="line.002.053" horiz-adv-x="350" /><glyph d="M85 -11 435 353V403L85 39ZM85 -18C102 -18 117 -3 117 14C117 31 102 46 85 46C68 46 53 31 53 14C53 -3 68 -18 85 -18Z" glyph-name="line.002.054" horiz-adv-x="350" /><glyph d="M85 -12 435 359V411L85 40ZM85 -18C102 -18 117 -3 117 14C117 31 102 46 85 46C68 46 53 31 53 14C53 -3 68 -18 85 -18Z" glyph-name="line.002.055" horiz-adv-x="350" /><glyph d="M85 -13 435 365V419L85 41ZM85 -18C102 -18 117 -3 117 14C117 31 102 46 85 46C68 46 53 31 53 14C53 -3 68 -18 85 -18Z" glyph-name="line.002.056" horiz-adv-x="350" /><glyph d="M85 -14 435 371V427L85 42ZM85 -18C102 -18 117 -3 117 14C117 31 102 46 85 46C68 46 53 31 53 14C53 -3 68 -18 85 -18Z" glyph-name="line.002.057" horiz-adv-x="350" /><glyph d="M85 -15 435 377V435L85 43ZM85 -18C102 -18 117 -3 117 14C117 31 102 46 85 46C68 46 53 31 53 14C53 -3 68 -18 85 -18Z" glyph-name="line.002.058" horiz-adv-x="350" /><glyph d="M85 -15 435 384V442L85 43ZM85 -18C102 -18 117 -3 117 14C117 31 102 46 85 46C68 46 53 31 53 14C53 -3 68 -18 85 -18Z" glyph-name="line.002.059" horiz-adv-x="350" /><glyph d="M85 -16 435 390V450L85 44ZM85 -18C102 -18 117 -3 117 14C117 31 102 46 85 46C68 46 53 31 53 14C53 -3 68 -18 85 -18Z" glyph-name="line.002.060" horiz-adv-x="350" /><glyph d="M85 -16 435 397V457L85 44ZM85 -18C102 -18 117 -3 117 14C117 31 102 46 85 46C68 46 53 31 53 14C53 -3 68 -18 85 -18Z" glyph-name="line.002.061" horiz-adv-x="350" /><glyph d="M85 -16 435 404V464L85 44ZM85 -18C102 -18 117 -3 117 14C117 31 102 46 85 46C68 46 53 31 53 14C53 -3 68 -18 85 -18Z" glyph-name="line.002.062" horiz-adv-x="350" /><glyph d="M85 -16 435 411V471L85 44ZM85 -18C102 -18 117 -3 117 14C117 31 102 46 85 46C68 46 53 31 53 14C53 -3 68 -18 85 -18Z" glyph-name="line.002.063" horiz-adv-x="350" /><glyph d="M85 -17 435 417V479L85 45ZM85 -18C102 -18 117 -3 117 14C117 31 102 46 85 46C68 46 53 31 53 14C53 -3 68 -18 85 -18Z" glyph-name="line.002.064" horiz-adv-x="350" /><glyph d="M85 -17 435 424V486L85 45ZM85 -18C102 -18 117 -3 117 14C117 31 102 46 85 46C68 46 53 31 53 14C53 -3 68 -18 85 -18Z" glyph-name="line.002.065" horiz-adv-x="350" /><glyph d="M85 -17 435 431V493L85 45ZM85 -18C102 -18 117 -3 117 14C117 31 102 46 85 46C68 46 53 31 53 14C53 -3 68 -18 85 -18Z" glyph-name="line.002.066" horiz-adv-x="350" /><glyph d="M85 -17 435 438V500L85 45ZM85 -18C102 -18 117 -3 117 14C117 31 102 46 85 46C68 46 53 31 53 14C53 -3 68 -18 85 -18Z" glyph-name="line.002.067" horiz-adv-x="350" /><glyph d="M85 -17 435 445V507L85 45ZM85 -18C102 -18 117 -3 117 14C117 31 102 46 85 46C68 46 53 31 53 14C53 -3 68 -18 85 -18Z" glyph-name="line.002.068" horiz-adv-x="350" /><glyph d="M85 -18 435 451V515L85 46ZM85 -18C102 -18 117 -3 117 14C117 31 102 46 85 46C68 46 53 31 53 14C53 -3 68 -18 85 -18Z" glyph-name="line.002.069" horiz-adv-x="350" /><glyph d="M85 -18 435 458V522L85 46ZM85 -18C102 -18 117 -3 117 14C117 31 102 46 85 46C68 46 53 31 53 14C53 -3 68 -18 85 -18Z" glyph-name="line.002.070" horiz-adv-x="350" /><glyph d="M109 14 459 497H411L61 14ZM85 -18C102 -18 117 -3 117 14C117 31 102 46 85 46C68 46 53 31 53 14C53 -3 68 -18 85 -18Z" glyph-name="line.002.071" horiz-adv-x="350" /><glyph d="M108 14 458 504H412L62 14ZM85 -18C102 -18 117 -3 117 14C117 31 102 46 85 46C68 46 53 31 53 14C53 -3 68 -18 85 -18Z" glyph-name="line.002.072" horiz-adv-x="350" /><glyph d="M108 14 458 511H412L62 14ZM85 -18C102 -18 117 -3 117 14C117 31 102 46 85 46C68 46 53 31 53 14C53 -3 68 -18 85 -18Z" glyph-name="line.002.073" horiz-adv-x="350" /><glyph d="M108 14 458 518H412L62 14ZM85 -18C102 -18 117 -3 117 14C117 31 102 46 85 46C68 46 53 31 53 14C53 -3 68 -18 85 -18Z" glyph-name="line.002.074" horiz-adv-x="350" /><glyph d="M108 14 458 525H412L62 14ZM85 -18C102 -18 117 -3 117 14C117 31 102 46 85 46C68 46 53 31 53 14C53 -3 68 -18 85 -18Z" glyph-name="line.002.075" horiz-adv-x="350" /><glyph d="M108 14 458 532H412L62 14ZM85 -18C102 -18 117 -3 117 14C117 31 102 46 85 46C68 46 53 31 53 14C53 -3 68 -18 85 -18Z" glyph-name="line.002.076" horiz-adv-x="350" /><glyph d="M108 14 458 539H412L62 14ZM85 -18C102 -18 117 -3 117 14C117 31 102 46 85 46C68 46 53 31 53 14C53 -3 68 -18 85 -18Z" glyph-name="line.002.077" horiz-adv-x="350" /><glyph d="M108 14 458 546H412L62 14ZM85 -18C102 -18 117 -3 117 14C117 31 102 46 85 46C68 46 53 31 53 14C53 -3 68 -18 85 -18Z" glyph-name="line.002.078" horiz-adv-x="350" /><glyph d="M108 14 458 553H412L62 14ZM85 -18C102 -18 117 -3 117 14C117 31 102 46 85 46C68 46 53 31 53 14C53 -3 68 -18 85 -18Z" glyph-name="line.002.079" horiz-adv-x="350" /><glyph d="M108 14 458 560H412L62 14ZM85 -18C102 -18 117 -3 117 14C117 31 102 46 85 46C68 46 53 31 53 14C53 -3 68 -18 85 -18Z" glyph-name="line.002.080" horiz-adv-x="350" /><glyph d="M108 14 458 567H412L62 14ZM85 -18C102 -18 117 -3 117 14C117 31 102 46 85 46C68 46 53 31 53 14C53 -3 68 -18 85 -18Z" glyph-name="line.002.081" horiz-adv-x="350" /><glyph d="M108 14 458 574H412L62 14ZM85 -18C102 -18 117 -3 117 14C117 31 102 46 85 46C68 46 53 31 53 14C53 -3 68 -18 85 -18Z" glyph-name="line.002.082" horiz-adv-x="350" /><glyph d="M108 14 458 581H412L62 14ZM85 -18C102 -18 117 -3 117 14C117 31 102 46 85 46C68 46 53 31 53 14C53 -3 68 -18 85 -18Z" glyph-name="line.002.083" horiz-adv-x="350" /><glyph d="M108 14 458 588H412L62 14ZM85 -18C102 -18 117 -3 117 14C117 31 102 46 85 46C68 46 53 31 53 14C53 -3 68 -18 85 -18Z" glyph-name="line.002.084" horiz-adv-x="350" /><glyph d="M108 14 458 595H412L62 14ZM85 -18C102 -18 117 -3 117 14C117 31 102 46 85 46C68 46 53 31 53 14C53 -3 68 -18 85 -18Z" glyph-name="line.002.085" horiz-adv-x="350" /><glyph d="M108 14 458 602H412L62 14ZM85 -18C102 -18 117 -3 117 14C117 31 102 46 85 46C68 46 53 31 53 14C53 -3 68 -18 85 -18Z" glyph-name="line.002.086" horiz-adv-x="350" /><glyph d="M108 14 458 609H412L62 14ZM85 -18C102 -18 117 -3 117 14C117 31 102 46 85 46C68 46 53 31 53 14C53 -3 68 -18 85 -18Z" glyph-name="line.002.087" horiz-adv-x="350" /><glyph d="M108 14 458 616H412L62 14ZM85 -18C102 -18 117 -3 117 14C117 31 102 46 85 46C68 46 53 31 53 14C53 -3 68 -18 85 -18Z" glyph-name="line.002.088" horiz-adv-x="350" /><glyph d="M108 14 458 623H412L62 14ZM85 -18C102 -18 117 -3 117 14C117 31 102 46 85 46C68 46 53 31 53 14C53 -3 68 -18 85 -18Z" glyph-name="line.002.089" horiz-adv-x="350" /><glyph d="M108 14 458 630H412L62 14ZM85 -18C102 -18 117 -3 117 14C117 31 102 46 85 46C68 46 53 31 53 14C53 -3 68 -18 85 -18Z" glyph-name="line.002.090" horiz-adv-x="350" /><glyph d="M108 14 458 637H412L62 14ZM85 -18C102 -18 117 -3 117 14C117 31 102 46 85 46C68 46 53 31 53 14C53 -3 68 -18 85 -18Z" glyph-name="line.002.091" horiz-adv-x="350" /><glyph d="M108 14 458 644H412L62 14ZM85 -18C102 -18 117 -3 117 14C117 31 102 46 85 46C68 46 53 31 53 14C53 -3 68 -18 85 -18Z" glyph-name="line.002.092" horiz-adv-x="350" /><glyph d="M107 14 457 651H413L63 14ZM85 -18C102 -18 117 -3 117 14C117 31 102 46 85 46C68 46 53 31 53 14C53 -3 68 -18 85 -18Z" glyph-name="line.002.093" horiz-adv-x="350" /><glyph d="M107 14 457 658H413L63 14ZM85 -18C102 -18 117 -3 117 14C117 31 102 46 85 46C68 46 53 31 53 14C53 -3 68 -18 85 -18Z" glyph-name="line.002.094" horiz-adv-x="350" /><glyph d="M107 14 457 665H413L63 14ZM85 -18C102 -18 117 -3 117 14C117 31 102 46 85 46C68 46 53 31 53 14C53 -3 68 -18 85 -18Z" glyph-name="line.002.095" horiz-adv-x="350" /><glyph d="M107 14 457 672H413L63 14ZM85 -18C102 -18 117 -3 117 14C117 31 102 46 85 46C68 46 53 31 53 14C53 -3 68 -18 85 -18Z" glyph-name="line.002.096" horiz-adv-x="350" /><glyph d="M107 14 457 679H413L63 14ZM85 -18C102 -18 117 -3 117 14C117 31 102 46 85 46C68 46 53 31 53 14C53 -3 68 -18 85 -18Z" glyph-name="line.002.097" horiz-adv-x="350" /><glyph d="M107 14 457 686H413L63 14ZM85 -18C102 -18 117 -3 117 14C117 31 102 46 85 46C68 46 53 31 53 14C53 -3 68 -18 85 -18Z" glyph-name="line.002.098" horiz-adv-x="350" /><glyph d="M107 14 457 693H413L63 14ZM85 -18C102 -18 117 -3 117 14C117 31 102 46 85 46C68 46 53 31 53 14C53 -3 68 -18 85 -18Z" glyph-name="line.002.099" horiz-adv-x="350" /><glyph d="M107 14 457 700H413L63 14ZM85 -18C102 -18 117 -3 117 14C117 31 102 46 85 46C68 46 53 31 53 14C53 -3 68 -18 85 -18Z" glyph-name="line.002.100" horiz-adv-x="350" /><glyph d="M85 39 435 18V-18L85 3ZM85 53C102 53 117 38 117 21C117 4 102 -11 85 -11C68 -11 53 4 53 21C53 38 68 53 85 53Z" glyph-name="line.003.000" horiz-adv-x="350" /><glyph d="M85 39 435 25V-11L85 3ZM85 53C102 53 117 38 117 21C117 4 102 -11 85 -11C68 -11 53 4 53 21C53 38 68 53 85 53Z" glyph-name="line.003.001" horiz-adv-x="350" /><glyph d="M85 39 435 32V-4L85 3ZM85 53C102 53 117 38 117 21C117 4 102 -11 85 -11C68 -11 53 4 53 21C53 38 68 53 85 53Z" glyph-name="line.003.002" horiz-adv-x="350" /><glyph d="M85 3H435V39H85ZM85 -11C102 -11 117 4 117 21C117 38 102 53 85 53C68 53 53 38 53 21C53 4 68 -11 85 -11Z" glyph-name="line.003.003" horiz-adv-x="350" /><glyph d="M85 3 435 10V46L85 39ZM85 -11C102 -11 117 4 117 21C117 38 102 53 85 53C68 53 53 38 53 21C53 4 68 -11 85 -11Z" glyph-name="line.003.004" horiz-adv-x="350" /><glyph d="M85 3 435 17V53L85 39ZM85 -11C102 -11 117 4 117 21C117 38 102 53 85 53C68 53 53 38 53 21C53 4 68 -11 85 -11Z" glyph-name="line.003.005" horiz-adv-x="350" /><glyph d="M85 3 435 24V60L85 39ZM85 -11C102 -11 117 4 117 21C117 38 102 53 85 53C68 53 53 38 53 21C53 4 68 -11 85 -11Z" glyph-name="line.003.006" horiz-adv-x="350" /><glyph d="M85 3 435 31V67L85 39ZM85 -11C102 -11 117 4 117 21C117 38 102 53 85 53C68 53 53 38 53 21C53 4 68 -11 85 -11Z" glyph-name="line.003.007" horiz-adv-x="350" /><glyph d="M85 3 435 38V74L85 39ZM85 -11C102 -11 117 4 117 21C117 38 102 53 85 53C68 53 53 38 53 21C53 4 68 -11 85 -11Z" glyph-name="line.003.008" horiz-adv-x="350" /><glyph d="M85 2 435 44V82L85 40ZM85 -11C102 -11 117 4 117 21C117 38 102 53 85 53C68 53 53 38 53 21C53 4 68 -11 85 -11Z" glyph-name="line.003.009" horiz-adv-x="350" /><glyph d="M85 2 435 51V89L85 40ZM85 -11C102 -11 117 4 117 21C117 38 102 53 85 53C68 53 53 38 53 21C53 4 68 -11 85 -11Z" glyph-name="line.003.010" horiz-adv-x="350" /><glyph d="M85 2 435 58V96L85 40ZM85 -11C102 -11 117 4 117 21C117 38 102 53 85 53C68 53 53 38 53 21C53 4 68 -11 85 -11Z" glyph-name="line.003.011" horiz-adv-x="350" /><glyph d="M85 2 435 65V103L85 40ZM85 -11C102 -11 117 4 117 21C117 38 102 53 85 53C68 53 53 38 53 21C53 4 68 -11 85 -11Z" glyph-name="line.003.012" horiz-adv-x="350" /><glyph d="M85 2 435 72V110L85 40ZM85 -11C102 -11 117 4 117 21C117 38 102 53 85 53C68 53 53 38 53 21C53 4 68 -11 85 -11Z" glyph-name="line.003.013" horiz-adv-x="350" /><glyph d="M85 2 435 79V117L85 40ZM85 -11C102 -11 117 4 117 21C117 38 102 53 85 53C68 53 53 38 53 21C53 4 68 -11 85 -11Z" glyph-name="line.003.014" horiz-adv-x="350" /><glyph d="M85 2 435 86V124L85 40ZM85 -11C102 -11 117 4 117 21C117 38 102 53 85 53C68 53 53 38 53 21C53 4 68 -11 85 -11Z" glyph-name="line.003.015" horiz-adv-x="350" /><glyph d="M85 2 435 93V131L85 40ZM85 -11C102 -11 117 4 117 21C117 38 102 53 85 53C68 53 53 38 53 21C53 4 68 -11 85 -11Z" glyph-name="line.003.016" horiz-adv-x="350" /><glyph d="M85 2 435 100V138L85 40ZM85 -11C102 -11 117 4 117 21C117 38 102 53 85 53C68 53 53 38 53 21C53 4 68 -11 85 -11Z" glyph-name="line.003.017" horiz-adv-x="350" /><glyph d="M85 2 435 107V145L85 40ZM85 -11C102 -11 117 4 117 21C117 38 102 53 85 53C68 53 53 38 53 21C53 4 68 -11 85 -11Z" glyph-name="line.003.018" horiz-adv-x="350" /><glyph d="M85 2 435 114V152L85 40ZM85 -11C102 -11 117 4 117 21C117 38 102 53 85 53C68 53 53 38 53 21C53 4 68 -11 85 -11Z" glyph-name="line.003.019" horiz-adv-x="350" /><glyph d="M85 2 435 121V159L85 40ZM85 -11C102 -11 117 4 117 21C117 38 102 53 85 53C68 53 53 38 53 21C53 4 68 -11 85 -11Z" glyph-name="line.003.020" horiz-adv-x="350" /><glyph d="M85 2 435 128V166L85 40ZM85 -11C102 -11 117 4 117 21C117 38 102 53 85 53C68 53 53 38 53 21C53 4 68 -11 85 -11Z" glyph-name="line.003.021" horiz-adv-x="350" /><glyph d="M85 1 435 134V174L85 41ZM85 -11C102 -11 117 4 117 21C117 38 102 53 85 53C68 53 53 38 53 21C53 4 68 -11 85 -11Z" glyph-name="line.003.022" horiz-adv-x="350" /><glyph d="M85 1 435 141V181L85 41ZM85 -11C102 -11 117 4 117 21C117 38 102 53 85 53C68 53 53 38 53 21C53 4 68 -11 85 -11Z" glyph-name="line.003.023" horiz-adv-x="350" /><glyph d="M85 1 435 148V188L85 41ZM85 -11C102 -11 117 4 117 21C117 38 102 53 85 53C68 53 53 38 53 21C53 4 68 -11 85 -11Z" glyph-name="line.003.024" horiz-adv-x="350" /><glyph d="M85 1 435 155V195L85 41ZM85 -11C102 -11 117 4 117 21C117 38 102 53 85 53C68 53 53 38 53 21C53 4 68 -11 85 -11Z" glyph-name="line.003.025" horiz-adv-x="350" /><glyph d="M85 1 435 162V202L85 41ZM85 -11C102 -11 117 4 117 21C117 38 102 53 85 53C68 53 53 38 53 21C53 4 68 -11 85 -11Z" glyph-name="line.003.026" horiz-adv-x="350" /><glyph d="M85 1 435 169V209L85 41ZM85 -11C102 -11 117 4 117 21C117 38 102 53 85 53C68 53 53 38 53 21C53 4 68 -11 85 -11Z" glyph-name="line.003.027" horiz-adv-x="350" /><glyph d="M85 1 435 176V216L85 41ZM85 -11C102 -11 117 4 117 21C117 38 102 53 85 53C68 53 53 38 53 21C53 4 68 -11 85 -11Z" glyph-name="line.003.028" horiz-adv-x="350" /><glyph d="M85 1 435 183V223L85 41ZM85 -11C102 -11 117 4 117 21C117 38 102 53 85 53C68 53 53 38 53 21C53 4 68 -11 85 -11Z" glyph-name="line.003.029" horiz-adv-x="350" /><glyph d="M85 0 435 189V231L85 42ZM85 -11C102 -11 117 4 117 21C117 38 102 53 85 53C68 53 53 38 53 21C53 4 68 -11 85 -11Z" glyph-name="line.003.030" horiz-adv-x="350" /><glyph d="M85 0 435 196V238L85 42ZM85 -11C102 -11 117 4 117 21C117 38 102 53 85 53C68 53 53 38 53 21C53 4 68 -11 85 -11Z" glyph-name="line.003.031" horiz-adv-x="350" /><glyph d="M85 0 435 203V245L85 42ZM85 -11C102 -11 117 4 117 21C117 38 102 53 85 53C68 53 53 38 53 21C53 4 68 -11 85 -11Z" glyph-name="line.003.032" horiz-adv-x="350" /><glyph d="M85 0 435 210V252L85 42ZM85 -11C102 -11 117 4 117 21C117 38 102 53 85 53C68 53 53 38 53 21C53 4 68 -11 85 -11Z" glyph-name="line.003.033" horiz-adv-x="350" /><glyph d="M85 0 435 217V259L85 42ZM85 -11C102 -11 117 4 117 21C117 38 102 53 85 53C68 53 53 38 53 21C53 4 68 -11 85 -11Z" glyph-name="line.003.034" horiz-adv-x="350" /><glyph d="M85 0 435 224V266L85 42ZM85 -11C102 -11 117 4 117 21C117 38 102 53 85 53C68 53 53 38 53 21C53 4 68 -11 85 -11Z" glyph-name="line.003.035" horiz-adv-x="350" /><glyph d="M85 -1 435 230V274L85 43ZM85 -11C102 -11 117 4 117 21C117 38 102 53 85 53C68 53 53 38 53 21C53 4 68 -11 85 -11Z" glyph-name="line.003.036" horiz-adv-x="350" /><glyph d="M85 -1 435 237V281L85 43ZM85 -11C102 -11 117 4 117 21C117 38 102 53 85 53C68 53 53 38 53 21C53 4 68 -11 85 -11Z" glyph-name="line.003.037" horiz-adv-x="350" /><glyph d="M85 -1 435 244V288L85 43ZM85 -11C102 -11 117 4 117 21C117 38 102 53 85 53C68 53 53 38 53 21C53 4 68 -11 85 -11Z" glyph-name="line.003.038" horiz-adv-x="350" /><glyph d="M85 -1 435 251V295L85 43ZM85 -11C102 -11 117 4 117 21C117 38 102 53 85 53C68 53 53 38 53 21C53 4 68 -11 85 -11Z" glyph-name="line.003.039" horiz-adv-x="350" /><glyph d="M85 -2 435 257V303L85 44ZM85 -11C102 -11 117 4 117 21C117 38 102 53 85 53C68 53 53 38 53 21C53 4 68 -11 85 -11Z" glyph-name="line.003.040" horiz-adv-x="350" /><glyph d="M85 -2 435 264V310L85 44ZM85 -11C102 -11 117 4 117 21C117 38 102 53 85 53C68 53 53 38 53 21C53 4 68 -11 85 -11Z" glyph-name="line.003.041" horiz-adv-x="350" /><glyph d="M85 -2 435 271V317L85 44ZM85 -11C102 -11 117 4 117 21C117 38 102 53 85 53C68 53 53 38 53 21C53 4 68 -11 85 -11Z" glyph-name="line.003.042" horiz-adv-x="350" /><glyph d="M85 -2 435 278V324L85 44ZM85 -11C102 -11 117 4 117 21C117 38 102 53 85 53C68 53 53 38 53 21C53 4 68 -11 85 -11Z" glyph-name="line.003.043" horiz-adv-x="350" /><glyph d="M85 -2 435 285V331L85 44ZM85 -11C102 -11 117 4 117 21C117 38 102 53 85 53C68 53 53 38 53 21C53 4 68 -11 85 -11Z" glyph-name="line.003.044" horiz-adv-x="350" /><glyph d="M85 -3 435 291V339L85 45ZM85 -11C102 -11 117 4 117 21C117 38 102 53 85 53C68 53 53 38 53 21C53 4 68 -11 85 -11Z" glyph-name="line.003.045" horiz-adv-x="350" /><glyph d="M85 -3 435 298V346L85 45ZM85 -11C102 -11 117 4 117 21C117 38 102 53 85 53C68 53 53 38 53 21C53 4 68 -11 85 -11Z" glyph-name="line.003.046" horiz-adv-x="350" /><glyph d="M85 -3 435 305V353L85 45ZM85 -11C102 -11 117 4 117 21C117 38 102 53 85 53C68 53 53 38 53 21C53 4 68 -11 85 -11Z" glyph-name="line.003.047" horiz-adv-x="350" /><glyph d="M85 -3 435 312V360L85 45ZM85 -11C102 -11 117 4 117 21C117 38 102 53 85 53C68 53 53 38 53 21C53 4 68 -11 85 -11Z" glyph-name="line.003.048" horiz-adv-x="350" /><glyph d="M85 -4 435 318V368L85 46ZM85 -11C102 -11 117 4 117 21C117 38 102 53 85 53C68 53 53 38 53 21C53 4 68 -11 85 -11Z" glyph-name="line.003.049" horiz-adv-x="350" /><glyph d="M85 -4 435 325V375L85 46ZM85 -11C102 -11 117 4 117 21C117 38 102 53 85 53C68 53 53 38 53 21C53 4 68 -11 85 -11Z" glyph-name="line.003.050" horiz-adv-x="350" /><glyph d="M85 -4 435 332V382L85 46ZM85 -11C102 -11 117 4 117 21C117 38 102 53 85 53C68 53 53 38 53 21C53 4 68 -11 85 -11Z" glyph-name="line.003.051" horiz-adv-x="350" /><glyph d="M85 -4 435 339V389L85 46ZM85 -11C102 -11 117 4 117 21C117 38 102 53 85 53C68 53 53 38 53 21C53 4 68 -11 85 -11Z" glyph-name="line.003.052" horiz-adv-x="350" /><glyph d="M85 -4 435 346V396L85 46ZM85 -11C102 -11 117 4 117 21C117 38 102 53 85 53C68 53 53 38 53 21C53 4 68 -11 85 -11Z" glyph-name="line.003.053" horiz-adv-x="350" /><glyph d="M85 -4 435 353V403L85 46ZM85 -11C102 -11 117 4 117 21C117 38 102 53 85 53C68 53 53 38 53 21C53 4 68 -11 85 -11Z" glyph-name="line.003.054" horiz-adv-x="350" /><glyph d="M85 -4 435 360V410L85 46ZM85 -11C102 -11 117 4 117 21C117 38 102 53 85 53C68 53 53 38 53 21C53 4 68 -11 85 -11Z" glyph-name="line.003.055" horiz-adv-x="350" /><glyph d="M85 -5 435 366V418L85 47ZM85 -11C102 -11 117 4 117 21C117 38 102 53 85 53C68 53 53 38 53 21C53 4 68 -11 85 -11Z" glyph-name="line.003.056" horiz-adv-x="350" /><glyph d="M85 -6 435 372V426L85 48ZM85 -11C102 -11 117 4 117 21C117 38 102 53 85 53C68 53 53 38 53 21C53 4 68 -11 85 -11Z" glyph-name="line.003.057" horiz-adv-x="350" /><glyph d="M85 -7 435 378V434L85 49ZM85 -11C102 -11 117 4 117 21C117 38 102 53 85 53C68 53 53 38 53 21C53 4 68 -11 85 -11Z" glyph-name="line.003.058" horiz-adv-x="350" /><glyph d="M85 -8 435 384V442L85 50ZM85 -11C102 -11 117 4 117 21C117 38 102 53 85 53C68 53 53 38 53 21C53 4 68 -11 85 -11Z" glyph-name="line.003.059" horiz-adv-x="350" /><glyph d="M85 -8 435 391V449L85 50ZM85 -11C102 -11 117 4 117 21C117 38 102 53 85 53C68 53 53 38 53 21C53 4 68 -11 85 -11Z" glyph-name="line.003.060" horiz-adv-x="350" /><glyph d="M85 -9 435 397V457L85 51ZM85 -11C102 -11 117 4 117 21C117 38 102 53 85 53C68 53 53 38 53 21C53 4 68 -11 85 -11Z" glyph-name="line.003.061" horiz-adv-x="350" /><glyph d="M85 -9 435 404V464L85 51ZM85 -11C102 -11 117 4 117 21C117 38 102 53 85 53C68 53 53 38 53 21C53 4 68 -11 85 -11Z" glyph-name="line.003.062" horiz-adv-x="350" /><glyph d="M85 -9 435 411V471L85 51ZM85 -11C102 -11 117 4 117 21C117 38 102 53 85 53C68 53 53 38 53 21C53 4 68 -11 85 -11Z" glyph-name="line.003.063" horiz-adv-x="350" /><glyph d="M85 -9 435 418V478L85 51ZM85 -11C102 -11 117 4 117 21C117 38 102 53 85 53C68 53 53 38 53 21C53 4 68 -11 85 -11Z" glyph-name="line.003.064" horiz-adv-x="350" /><glyph d="M85 -10 435 424V486L85 52ZM85 -11C102 -11 117 4 117 21C117 38 102 53 85 53C68 53 53 38 53 21C53 4 68 -11 85 -11Z" glyph-name="line.003.065" horiz-adv-x="350" /><glyph d="M85 -10 435 431V493L85 52ZM85 -11C102 -11 117 4 117 21C117 38 102 53 85 53C68 53 53 38 53 21C53 4 68 -11 85 -11Z" glyph-name="line.003.066" horiz-adv-x="350" /><glyph d="M85 -10 435 438V500L85 52ZM85 -11C102 -11 117 4 117 21C117 38 102 53 85 53C68 53 53 38 53 21C53 4 68 -11 85 -11Z" glyph-name="line.003.067" horiz-adv-x="350" /><glyph d="M85 -10 435 445V507L85 52ZM85 -11C102 -11 117 4 117 21C117 38 102 53 85 53C68 53 53 38 53 21C53 4 68 -11 85 -11Z" glyph-name="line.003.068" horiz-adv-x="350" /><glyph d="M85 -10 435 452V514L85 52ZM85 -11C102 -11 117 4 117 21C117 38 102 53 85 53C68 53 53 38 53 21C53 4 68 -11 85 -11Z" glyph-name="line.003.069" horiz-adv-x="350" /><glyph d="M85 -11 435 458V522L85 53ZM85 -11C102 -11 117 4 117 21C117 38 102 53 85 53C68 53 53 38 53 21C53 4 68 -11 85 -11Z" glyph-name="line.003.070" horiz-adv-x="350" /><glyph d="M85 -11 435 465V529L85 53ZM85 -11C102 -11 117 4 117 21C117 38 102 53 85 53C68 53 53 38 53 21C53 4 68 -11 85 -11Z" glyph-name="line.003.071" horiz-adv-x="350" /><glyph d="M109 21 459 504H411L61 21ZM85 -11C102 -11 117 4 117 21C117 38 102 53 85 53C68 53 53 38 53 21C53 4 68 -11 85 -11Z" glyph-name="line.003.072" horiz-adv-x="350" /><glyph d="M108 21 458 511H412L62 21ZM85 -11C102 -11 117 4 117 21C117 38 102 53 85 53C68 53 53 38 53 21C53 4 68 -11 85 -11Z" glyph-name="line.003.073" horiz-adv-x="350" /><glyph d="M108 21 458 518H412L62 21ZM85 -11C102 -11 117 4 117 21C117 38 102 53 85 53C68 53 53 38 53 21C53 4 68 -11 85 -11Z" glyph-name="line.003.074" horiz-adv-x="350" /><glyph d="M108 21 458 525H412L62 21ZM85 -11C102 -11 117 4 117 21C117 38 102 53 85 53C68 53 53 38 53 21C53 4 68 -11 85 -11Z" glyph-name="line.003.075" horiz-adv-x="350" /><glyph d="M108 21 458 532H412L62 21ZM85 -11C102 -11 117 4 117 21C117 38 102 53 85 53C68 53 53 38 53 21C53 4 68 -11 85 -11Z" glyph-name="line.003.076" horiz-adv-x="350" /><glyph d="M108 21 458 539H412L62 21ZM85 -11C102 -11 117 4 117 21C117 38 102 53 85 53C68 53 53 38 53 21C53 4 68 -11 85 -11Z" glyph-name="line.003.077" horiz-adv-x="350" /><glyph d="M108 21 458 546H412L62 21ZM85 -11C102 -11 117 4 117 21C117 38 102 53 85 53C68 53 53 38 53 21C53 4 68 -11 85 -11Z" glyph-name="line.003.078" horiz-adv-x="350" /><glyph d="M108 21 458 553H412L62 21ZM85 -11C102 -11 117 4 117 21C117 38 102 53 85 53C68 53 53 38 53 21C53 4 68 -11 85 -11Z" glyph-name="line.003.079" horiz-adv-x="350" /><glyph d="M108 21 458 560H412L62 21ZM85 -11C102 -11 117 4 117 21C117 38 102 53 85 53C68 53 53 38 53 21C53 4 68 -11 85 -11Z" glyph-name="line.003.080" horiz-adv-x="350" /><glyph d="M108 21 458 567H412L62 21ZM85 -11C102 -11 117 4 117 21C117 38 102 53 85 53C68 53 53 38 53 21C53 4 68 -11 85 -11Z" glyph-name="line.003.081" horiz-adv-x="350" /><glyph d="M108 21 458 574H412L62 21ZM85 -11C102 -11 117 4 117 21C117 38 102 53 85 53C68 53 53 38 53 21C53 4 68 -11 85 -11Z" glyph-name="line.003.082" horiz-adv-x="350" /><glyph d="M108 21 458 581H412L62 21ZM85 -11C102 -11 117 4 117 21C117 38 102 53 85 53C68 53 53 38 53 21C53 4 68 -11 85 -11Z" glyph-name="line.003.083" horiz-adv-x="350" /><glyph d="M108 21 458 588H412L62 21ZM85 -11C102 -11 117 4 117 21C117 38 102 53 85 53C68 53 53 38 53 21C53 4 68 -11 85 -11Z" glyph-name="line.003.084" horiz-adv-x="350" /><glyph d="M108 21 458 595H412L62 21ZM85 -11C102 -11 117 4 117 21C117 38 102 53 85 53C68 53 53 38 53 21C53 4 68 -11 85 -11Z" glyph-name="line.003.085" horiz-adv-x="350" /><glyph d="M108 21 458 602H412L62 21ZM85 -11C102 -11 117 4 117 21C117 38 102 53 85 53C68 53 53 38 53 21C53 4 68 -11 85 -11Z" glyph-name="line.003.086" horiz-adv-x="350" /><glyph d="M108 21 458 609H412L62 21ZM85 -11C102 -11 117 4 117 21C117 38 102 53 85 53C68 53 53 38 53 21C53 4 68 -11 85 -11Z" glyph-name="line.003.087" horiz-adv-x="350" /><glyph d="M108 21 458 616H412L62 21ZM85 -11C102 -11 117 4 117 21C117 38 102 53 85 53C68 53 53 38 53 21C53 4 68 -11 85 -11Z" glyph-name="line.003.088" horiz-adv-x="350" /><glyph d="M108 21 458 623H412L62 21ZM85 -11C102 -11 117 4 117 21C117 38 102 53 85 53C68 53 53 38 53 21C53 4 68 -11 85 -11Z" glyph-name="line.003.089" horiz-adv-x="350" /><glyph d="M108 21 458 630H412L62 21ZM85 -11C102 -11 117 4 117 21C117 38 102 53 85 53C68 53 53 38 53 21C53 4 68 -11 85 -11Z" glyph-name="line.003.090" horiz-adv-x="350" /><glyph d="M108 21 458 637H412L62 21ZM85 -11C102 -11 117 4 117 21C117 38 102 53 85 53C68 53 53 38 53 21C53 4 68 -11 85 -11Z" glyph-name="line.003.091" horiz-adv-x="350" /><glyph d="M108 21 458 644H412L62 21ZM85 -11C102 -11 117 4 117 21C117 38 102 53 85 53C68 53 53 38 53 21C53 4 68 -11 85 -11Z" glyph-name="line.003.092" horiz-adv-x="350" /><glyph d="M108 21 458 651H412L62 21ZM85 -11C102 -11 117 4 117 21C117 38 102 53 85 53C68 53 53 38 53 21C53 4 68 -11 85 -11Z" glyph-name="line.003.093" horiz-adv-x="350" /><glyph d="M107 21 457 658H413L63 21ZM85 -11C102 -11 117 4 117 21C117 38 102 53 85 53C68 53 53 38 53 21C53 4 68 -11 85 -11Z" glyph-name="line.003.094" horiz-adv-x="350" /><glyph d="M107 21 457 665H413L63 21ZM85 -11C102 -11 117 4 117 21C117 38 102 53 85 53C68 53 53 38 53 21C53 4 68 -11 85 -11Z" glyph-name="line.003.095" horiz-adv-x="350" /><glyph d="M107 21 457 672H413L63 21ZM85 -11C102 -11 117 4 117 21C117 38 102 53 85 53C68 53 53 38 53 21C53 4 68 -11 85 -11Z" glyph-name="line.003.096" horiz-adv-x="350" /><glyph d="M107 21 457 679H413L63 21ZM85 -11C102 -11 117 4 117 21C117 38 102 53 85 53C68 53 53 38 53 21C53 4 68 -11 85 -11Z" glyph-name="line.003.097" horiz-adv-x="350" /><glyph d="M107 21 457 686H413L63 21ZM85 -11C102 -11 117 4 117 21C117 38 102 53 85 53C68 53 53 38 53 21C53 4 68 -11 85 -11Z" glyph-name="line.003.098" horiz-adv-x="350" /><glyph d="M107 21 457 693H413L63 21ZM85 -11C102 -11 117 4 117 21C117 38 102 53 85 53C68 53 53 38 53 21C53 4 68 -11 85 -11Z" glyph-name="line.003.099" horiz-adv-x="350" /><glyph d="M107 21 457 700H413L63 21ZM85 -11C102 -11 117 4 117 21C117 38 102 53 85 53C68 53 53 38 53 21C53 4 68 -11 85 -11Z" glyph-name="line.003.100" horiz-adv-x="350" /><glyph d="M85 46 435 18V-18L85 10ZM85 60C102 60 117 45 117 28C117 11 102 -4 85 -4C68 -4 53 11 53 28C53 45 68 60 85 60Z" glyph-name="line.004.000" horiz-adv-x="350" /><glyph d="M85 46 435 25V-11L85 10ZM85 60C102 60 117 45 117 28C117 11 102 -4 85 -4C68 -4 53 11 53 28C53 45 68 60 85 60Z" glyph-name="line.004.001" horiz-adv-x="350" /><glyph d="M85 46 435 32V-4L85 10ZM85 60C102 60 117 45 117 28C117 11 102 -4 85 -4C68 -4 53 11 53 28C53 45 68 60 85 60Z" glyph-name="line.004.002" horiz-adv-x="350" /><glyph d="M85 46 435 39V3L85 10ZM85 60C102 60 117 45 117 28C117 11 102 -4 85 -4C68 -4 53 11 53 28C53 45 68 60 85 60Z" glyph-name="line.004.003" horiz-adv-x="350" /><glyph d="M85 10H435V46H85ZM85 -4C102 -4 117 11 117 28C117 45 102 60 85 60C68 60 53 45 53 28C53 11 68 -4 85 -4Z" glyph-name="line.004.004" horiz-adv-x="350" /><glyph d="M85 10 435 17V53L85 46ZM85 -4C102 -4 117 11 117 28C117 45 102 60 85 60C68 60 53 45 53 28C53 11 68 -4 85 -4Z" glyph-name="line.004.005" horiz-adv-x="350" /><glyph d="M85 10 435 24V60L85 46ZM85 -4C102 -4 117 11 117 28C117 45 102 60 85 60C68 60 53 45 53 28C53 11 68 -4 85 -4Z" glyph-name="line.004.006" horiz-adv-x="350" /><glyph d="M85 10 435 31V67L85 46ZM85 -4C102 -4 117 11 117 28C117 45 102 60 85 60C68 60 53 45 53 28C53 11 68 -4 85 -4Z" glyph-name="line.004.007" horiz-adv-x="350" /><glyph d="M85 10 435 38V74L85 46ZM85 -4C102 -4 117 11 117 28C117 45 102 60 85 60C68 60 53 45 53 28C53 11 68 -4 85 -4Z" glyph-name="line.004.008" horiz-adv-x="350" /><glyph d="M85 10 435 45V81L85 46ZM85 -4C102 -4 117 11 117 28C117 45 102 60 85 60C68 60 53 45 53 28C53 11 68 -4 85 -4Z" glyph-name="line.004.009" horiz-adv-x="350" /><glyph d="M85 9 435 51V89L85 47ZM85 -4C102 -4 117 11 117 28C117 45 102 60 85 60C68 60 53 45 53 28C53 11 68 -4 85 -4Z" glyph-name="line.004.010" horiz-adv-x="350" /><glyph d="M85 9 435 58V96L85 47ZM85 -4C102 -4 117 11 117 28C117 45 102 60 85 60C68 60 53 45 53 28C53 11 68 -4 85 -4Z" glyph-name="line.004.011" horiz-adv-x="350" /><glyph d="M85 9 435 65V103L85 47ZM85 -4C102 -4 117 11 117 28C117 45 102 60 85 60C68 60 53 45 53 28C53 11 68 -4 85 -4Z" glyph-name="line.004.012" horiz-adv-x="350" /><glyph d="M85 9 435 72V110L85 47ZM85 -4C102 -4 117 11 117 28C117 45 102 60 85 60C68 60 53 45 53 28C53 11 68 -4 85 -4Z" glyph-name="line.004.013" horiz-adv-x="350" /><glyph d="M85 9 435 79V117L85 47ZM85 -4C102 -4 117 11 117 28C117 45 102 60 85 60C68 60 53 45 53 28C53 11 68 -4 85 -4Z" glyph-name="line.004.014" horiz-adv-x="350" /><glyph d="M85 9 435 86V124L85 47ZM85 -4C102 -4 117 11 117 28C117 45 102 60 85 60C68 60 53 45 53 28C53 11 68 -4 85 -4Z" glyph-name="line.004.015" horiz-adv-x="350" /><glyph d="M85 9 435 93V131L85 47ZM85 -4C102 -4 117 11 117 28C117 45 102 60 85 60C68 60 53 45 53 28C53 11 68 -4 85 -4Z" glyph-name="line.004.016" horiz-adv-x="350" /><glyph d="M85 9 435 100V138L85 47ZM85 -4C102 -4 117 11 117 28C117 45 102 60 85 60C68 60 53 45 53 28C53 11 68 -4 85 -4Z" glyph-name="line.004.017" horiz-adv-x="350" /><glyph d="M85 9 435 107V145L85 47ZM85 -4C102 -4 117 11 117 28C117 45 102 60 85 60C68 60 53 45 53 28C53 11 68 -4 85 -4Z" glyph-name="line.004.018" horiz-adv-x="350" /><glyph d="M85 9 435 114V152L85 47ZM85 -4C102 -4 117 11 117 28C117 45 102 60 85 60C68 60 53 45 53 28C53 11 68 -4 85 -4Z" glyph-name="line.004.019" horiz-adv-x="350" /><glyph d="M85 9 435 121V159L85 47ZM85 -4C102 -4 117 11 117 28C117 45 102 60 85 60C68 60 53 45 53 28C53 11 68 -4 85 -4Z" glyph-name="line.004.020" horiz-adv-x="350" /><glyph d="M85 9 435 128V166L85 47ZM85 -4C102 -4 117 11 117 28C117 45 102 60 85 60C68 60 53 45 53 28C53 11 68 -4 85 -4Z" glyph-name="line.004.021" horiz-adv-x="350" /><glyph d="M85 9 435 135V173L85 47ZM85 -4C102 -4 117 11 117 28C117 45 102 60 85 60C68 60 53 45 53 28C53 11 68 -4 85 -4Z" glyph-name="line.004.022" horiz-adv-x="350" /><glyph d="M85 8 435 141V181L85 48ZM85 -4C102 -4 117 11 117 28C117 45 102 60 85 60C68 60 53 45 53 28C53 11 68 -4 85 -4Z" glyph-name="line.004.023" horiz-adv-x="350" /><glyph d="M85 8 435 148V188L85 48ZM85 -4C102 -4 117 11 117 28C117 45 102 60 85 60C68 60 53 45 53 28C53 11 68 -4 85 -4Z" glyph-name="line.004.024" horiz-adv-x="350" /><glyph d="M85 8 435 155V195L85 48ZM85 -4C102 -4 117 11 117 28C117 45 102 60 85 60C68 60 53 45 53 28C53 11 68 -4 85 -4Z" glyph-name="line.004.025" horiz-adv-x="350" /><glyph d="M85 8 435 162V202L85 48ZM85 -4C102 -4 117 11 117 28C117 45 102 60 85 60C68 60 53 45 53 28C53 11 68 -4 85 -4Z" glyph-name="line.004.026" horiz-adv-x="350" /><glyph d="M85 8 435 169V209L85 48ZM85 -4C102 -4 117 11 117 28C117 45 102 60 85 60C68 60 53 45 53 28C53 11 68 -4 85 -4Z" glyph-name="line.004.027" horiz-adv-x="350" /><glyph d="M85 8 435 176V216L85 48ZM85 -4C102 -4 117 11 117 28C117 45 102 60 85 60C68 60 53 45 53 28C53 11 68 -4 85 -4Z" glyph-name="line.004.028" horiz-adv-x="350" /><glyph d="M85 8 435 183V223L85 48ZM85 -4C102 -4 117 11 117 28C117 45 102 60 85 60C68 60 53 45 53 28C53 11 68 -4 85 -4Z" glyph-name="line.004.029" horiz-adv-x="350" /><glyph d="M85 8 435 190V230L85 48ZM85 -4C102 -4 117 11 117 28C117 45 102 60 85 60C68 60 53 45 53 28C53 11 68 -4 85 -4Z" glyph-name="line.004.030" horiz-adv-x="350" /><glyph d="M85 7 435 196V238L85 49ZM85 -4C102 -4 117 11 117 28C117 45 102 60 85 60C68 60 53 45 53 28C53 11 68 -4 85 -4Z" glyph-name="line.004.031" horiz-adv-x="350" /><glyph d="M85 7 435 203V245L85 49ZM85 -4C102 -4 117 11 117 28C117 45 102 60 85 60C68 60 53 45 53 28C53 11 68 -4 85 -4Z" glyph-name="line.004.032" horiz-adv-x="350" /><glyph d="M85 7 435 210V252L85 49ZM85 -4C102 -4 117 11 117 28C117 45 102 60 85 60C68 60 53 45 53 28C53 11 68 -4 85 -4Z" glyph-name="line.004.033" horiz-adv-x="350" /><glyph d="M85 7 435 217V259L85 49ZM85 -4C102 -4 117 11 117 28C117 45 102 60 85 60C68 60 53 45 53 28C53 11 68 -4 85 -4Z" glyph-name="line.004.034" horiz-adv-x="350" /><glyph d="M85 7 435 224V266L85 49ZM85 -4C102 -4 117 11 117 28C117 45 102 60 85 60C68 60 53 45 53 28C53 11 68 -4 85 -4Z" glyph-name="line.004.035" horiz-adv-x="350" /><glyph d="M85 7 435 231V273L85 49ZM85 -4C102 -4 117 11 117 28C117 45 102 60 85 60C68 60 53 45 53 28C53 11 68 -4 85 -4Z" glyph-name="line.004.036" horiz-adv-x="350" /><glyph d="M85 6 435 237V281L85 50ZM85 -4C102 -4 117 11 117 28C117 45 102 60 85 60C68 60 53 45 53 28C53 11 68 -4 85 -4Z" glyph-name="line.004.037" horiz-adv-x="350" /><glyph d="M85 6 435 244V288L85 50ZM85 -4C102 -4 117 11 117 28C117 45 102 60 85 60C68 60 53 45 53 28C53 11 68 -4 85 -4Z" glyph-name="line.004.038" horiz-adv-x="350" /><glyph d="M85 6 435 251V295L85 50ZM85 -4C102 -4 117 11 117 28C117 45 102 60 85 60C68 60 53 45 53 28C53 11 68 -4 85 -4Z" glyph-name="line.004.039" horiz-adv-x="350" /><glyph d="M85 6 435 258V302L85 50ZM85 -4C102 -4 117 11 117 28C117 45 102 60 85 60C68 60 53 45 53 28C53 11 68 -4 85 -4Z" glyph-name="line.004.040" horiz-adv-x="350" /><glyph d="M85 5 435 264V310L85 51ZM85 -4C102 -4 117 11 117 28C117 45 102 60 85 60C68 60 53 45 53 28C53 11 68 -4 85 -4Z" glyph-name="line.004.041" horiz-adv-x="350" /><glyph d="M85 5 435 271V317L85 51ZM85 -4C102 -4 117 11 117 28C117 45 102 60 85 60C68 60 53 45 53 28C53 11 68 -4 85 -4Z" glyph-name="line.004.042" horiz-adv-x="350" /><glyph d="M85 5 435 278V324L85 51ZM85 -4C102 -4 117 11 117 28C117 45 102 60 85 60C68 60 53 45 53 28C53 11 68 -4 85 -4Z" glyph-name="line.004.043" horiz-adv-x="350" /><glyph d="M85 5 435 285V331L85 51ZM85 -4C102 -4 117 11 117 28C117 45 102 60 85 60C68 60 53 45 53 28C53 11 68 -4 85 -4Z" glyph-name="line.004.044" horiz-adv-x="350" /><glyph d="M85 5 435 292V338L85 51ZM85 -4C102 -4 117 11 117 28C117 45 102 60 85 60C68 60 53 45 53 28C53 11 68 -4 85 -4Z" glyph-name="line.004.045" horiz-adv-x="350" /><glyph d="M85 4 435 298V346L85 52ZM85 -4C102 -4 117 11 117 28C117 45 102 60 85 60C68 60 53 45 53 28C53 11 68 -4 85 -4Z" glyph-name="line.004.046" horiz-adv-x="350" /><glyph d="M85 4 435 305V353L85 52ZM85 -4C102 -4 117 11 117 28C117 45 102 60 85 60C68 60 53 45 53 28C53 11 68 -4 85 -4Z" glyph-name="line.004.047" horiz-adv-x="350" /><glyph d="M85 4 435 312V360L85 52ZM85 -4C102 -4 117 11 117 28C117 45 102 60 85 60C68 60 53 45 53 28C53 11 68 -4 85 -4Z" glyph-name="line.004.048" horiz-adv-x="350" /><glyph d="M85 4 435 319V367L85 52ZM85 -4C102 -4 117 11 117 28C117 45 102 60 85 60C68 60 53 45 53 28C53 11 68 -4 85 -4Z" glyph-name="line.004.049" horiz-adv-x="350" /><glyph d="M85 3 435 325V375L85 53ZM85 -4C102 -4 117 11 117 28C117 45 102 60 85 60C68 60 53 45 53 28C53 11 68 -4 85 -4Z" glyph-name="line.004.050" horiz-adv-x="350" /><glyph d="M85 3 435 332V382L85 53ZM85 -4C102 -4 117 11 117 28C117 45 102 60 85 60C68 60 53 45 53 28C53 11 68 -4 85 -4Z" glyph-name="line.004.051" horiz-adv-x="350" /><glyph d="M85 3 435 339V389L85 53ZM85 -4C102 -4 117 11 117 28C117 45 102 60 85 60C68 60 53 45 53 28C53 11 68 -4 85 -4Z" glyph-name="line.004.052" horiz-adv-x="350" /><glyph d="M85 3 435 346V396L85 53ZM85 -4C102 -4 117 11 117 28C117 45 102 60 85 60C68 60 53 45 53 28C53 11 68 -4 85 -4Z" glyph-name="line.004.053" horiz-adv-x="350" /><glyph d="M85 3 435 353V403L85 53ZM85 -4C102 -4 117 11 117 28C117 45 102 60 85 60C68 60 53 45 53 28C53 11 68 -4 85 -4Z" glyph-name="line.004.054" horiz-adv-x="350" /><glyph d="M85 3 435 360V410L85 53ZM85 -4C102 -4 117 11 117 28C117 45 102 60 85 60C68 60 53 45 53 28C53 11 68 -4 85 -4Z" glyph-name="line.004.055" horiz-adv-x="350" /><glyph d="M85 3 435 367V417L85 53ZM85 -4C102 -4 117 11 117 28C117 45 102 60 85 60C68 60 53 45 53 28C53 11 68 -4 85 -4Z" glyph-name="line.004.056" horiz-adv-x="350" /><glyph d="M85 2 435 373V425L85 54ZM85 -4C102 -4 117 11 117 28C117 45 102 60 85 60C68 60 53 45 53 28C53 11 68 -4 85 -4Z" glyph-name="line.004.057" horiz-adv-x="350" /><glyph d="M85 1 435 379V433L85 55ZM85 -4C102 -4 117 11 117 28C117 45 102 60 85 60C68 60 53 45 53 28C53 11 68 -4 85 -4Z" glyph-name="line.004.058" horiz-adv-x="350" /><glyph d="M85 0 435 385V441L85 56ZM85 -4C102 -4 117 11 117 28C117 45 102 60 85 60C68 60 53 45 53 28C53 11 68 -4 85 -4Z" glyph-name="line.004.059" horiz-adv-x="350" /><glyph d="M85 -1 435 391V449L85 57ZM85 -4C102 -4 117 11 117 28C117 45 102 60 85 60C68 60 53 45 53 28C53 11 68 -4 85 -4Z" glyph-name="line.004.060" horiz-adv-x="350" /><glyph d="M85 -1 435 398V456L85 57ZM85 -4C102 -4 117 11 117 28C117 45 102 60 85 60C68 60 53 45 53 28C53 11 68 -4 85 -4Z" glyph-name="line.004.061" horiz-adv-x="350" /><glyph d="M85 -2 435 404V464L85 58ZM85 -4C102 -4 117 11 117 28C117 45 102 60 85 60C68 60 53 45 53 28C53 11 68 -4 85 -4Z" glyph-name="line.004.062" horiz-adv-x="350" /><glyph d="M85 -2 435 411V471L85 58ZM85 -4C102 -4 117 11 117 28C117 45 102 60 85 60C68 60 53 45 53 28C53 11 68 -4 85 -4Z" glyph-name="line.004.063" horiz-adv-x="350" /><glyph d="M85 -2 435 418V478L85 58ZM85 -4C102 -4 117 11 117 28C117 45 102 60 85 60C68 60 53 45 53 28C53 11 68 -4 85 -4Z" glyph-name="line.004.064" horiz-adv-x="350" /><glyph d="M85 -2 435 425V485L85 58ZM85 -4C102 -4 117 11 117 28C117 45 102 60 85 60C68 60 53 45 53 28C53 11 68 -4 85 -4Z" glyph-name="line.004.065" horiz-adv-x="350" /><glyph d="M85 -3 435 431V493L85 59ZM85 -4C102 -4 117 11 117 28C117 45 102 60 85 60C68 60 53 45 53 28C53 11 68 -4 85 -4Z" glyph-name="line.004.066" horiz-adv-x="350" /><glyph d="M85 -3 435 438V500L85 59ZM85 -4C102 -4 117 11 117 28C117 45 102 60 85 60C68 60 53 45 53 28C53 11 68 -4 85 -4Z" glyph-name="line.004.067" horiz-adv-x="350" /><glyph d="M85 -3 435 445V507L85 59ZM85 -4C102 -4 117 11 117 28C117 45 102 60 85 60C68 60 53 45 53 28C53 11 68 -4 85 -4Z" glyph-name="line.004.068" horiz-adv-x="350" /><glyph d="M85 -3 435 452V514L85 59ZM85 -4C102 -4 117 11 117 28C117 45 102 60 85 60C68 60 53 45 53 28C53 11 68 -4 85 -4Z" glyph-name="line.004.069" horiz-adv-x="350" /><glyph d="M85 -3 435 459V521L85 59ZM85 -4C102 -4 117 11 117 28C117 45 102 60 85 60C68 60 53 45 53 28C53 11 68 -4 85 -4Z" glyph-name="line.004.070" horiz-adv-x="350" /><glyph d="M85 -4 435 465V529L85 60ZM85 -4C102 -4 117 11 117 28C117 45 102 60 85 60C68 60 53 45 53 28C53 11 68 -4 85 -4Z" glyph-name="line.004.071" horiz-adv-x="350" /><glyph d="M85 -4 435 472V536L85 60ZM85 -4C102 -4 117 11 117 28C117 45 102 60 85 60C68 60 53 45 53 28C53 11 68 -4 85 -4Z" glyph-name="line.004.072" horiz-adv-x="350" /><glyph d="M109 28 459 511H411L61 28ZM85 -4C102 -4 117 11 117 28C117 45 102 60 85 60C68 60 53 45 53 28C53 11 68 -4 85 -4Z" glyph-name="line.004.073" horiz-adv-x="350" /><glyph d="M108 28 458 518H412L62 28ZM85 -4C102 -4 117 11 117 28C117 45 102 60 85 60C68 60 53 45 53 28C53 11 68 -4 85 -4Z" glyph-name="line.004.074" horiz-adv-x="350" /><glyph d="M108 28 458 525H412L62 28ZM85 -4C102 -4 117 11 117 28C117 45 102 60 85 60C68 60 53 45 53 28C53 11 68 -4 85 -4Z" glyph-name="line.004.075" horiz-adv-x="350" /><glyph d="M108 28 458 532H412L62 28ZM85 -4C102 -4 117 11 117 28C117 45 102 60 85 60C68 60 53 45 53 28C53 11 68 -4 85 -4Z" glyph-name="line.004.076" horiz-adv-x="350" /><glyph d="M108 28 458 539H412L62 28ZM85 -4C102 -4 117 11 117 28C117 45 102 60 85 60C68 60 53 45 53 28C53 11 68 -4 85 -4Z" glyph-name="line.004.077" horiz-adv-x="350" /><glyph d="M108 28 458 546H412L62 28ZM85 -4C102 -4 117 11 117 28C117 45 102 60 85 60C68 60 53 45 53 28C53 11 68 -4 85 -4Z" glyph-name="line.004.078" horiz-adv-x="350" /><glyph d="M108 28 458 553H412L62 28ZM85 -4C102 -4 117 11 117 28C117 45 102 60 85 60C68 60 53 45 53 28C53 11 68 -4 85 -4Z" glyph-name="line.004.079" horiz-adv-x="350" /><glyph d="M108 28 458 560H412L62 28ZM85 -4C102 -4 117 11 117 28C117 45 102 60 85 60C68 60 53 45 53 28C53 11 68 -4 85 -4Z" glyph-name="line.004.080" horiz-adv-x="350" /><glyph d="M108 28 458 567H412L62 28ZM85 -4C102 -4 117 11 117 28C117 45 102 60 85 60C68 60 53 45 53 28C53 11 68 -4 85 -4Z" glyph-name="line.004.081" horiz-adv-x="350" /><glyph d="M108 28 458 574H412L62 28ZM85 -4C102 -4 117 11 117 28C117 45 102 60 85 60C68 60 53 45 53 28C53 11 68 -4 85 -4Z" glyph-name="line.004.082" horiz-adv-x="350" /><glyph d="M108 28 458 581H412L62 28ZM85 -4C102 -4 117 11 117 28C117 45 102 60 85 60C68 60 53 45 53 28C53 11 68 -4 85 -4Z" glyph-name="line.004.083" horiz-adv-x="350" /><glyph d="M108 28 458 588H412L62 28ZM85 -4C102 -4 117 11 117 28C117 45 102 60 85 60C68 60 53 45 53 28C53 11 68 -4 85 -4Z" glyph-name="line.004.084" horiz-adv-x="350" /><glyph d="M108 28 458 595H412L62 28ZM85 -4C102 -4 117 11 117 28C117 45 102 60 85 60C68 60 53 45 53 28C53 11 68 -4 85 -4Z" glyph-name="line.004.085" horiz-adv-x="350" /><glyph d="M108 28 458 602H412L62 28ZM85 -4C102 -4 117 11 117 28C117 45 102 60 85 60C68 60 53 45 53 28C53 11 68 -4 85 -4Z" glyph-name="line.004.086" horiz-adv-x="350" /><glyph d="M108 28 458 609H412L62 28ZM85 -4C102 -4 117 11 117 28C117 45 102 60 85 60C68 60 53 45 53 28C53 11 68 -4 85 -4Z" glyph-name="line.004.087" horiz-adv-x="350" /><glyph d="M108 28 458 616H412L62 28ZM85 -4C102 -4 117 11 117 28C117 45 102 60 85 60C68 60 53 45 53 28C53 11 68 -4 85 -4Z" glyph-name="line.004.088" horiz-adv-x="350" /><glyph d="M108 28 458 623H412L62 28ZM85 -4C102 -4 117 11 117 28C117 45 102 60 85 60C68 60 53 45 53 28C53 11 68 -4 85 -4Z" glyph-name="line.004.089" horiz-adv-x="350" /><glyph d="M108 28 458 630H412L62 28ZM85 -4C102 -4 117 11 117 28C117 45 102 60 85 60C68 60 53 45 53 28C53 11 68 -4 85 -4Z" glyph-name="line.004.090" horiz-adv-x="350" /><glyph d="M108 28 458 637H412L62 28ZM85 -4C102 -4 117 11 117 28C117 45 102 60 85 60C68 60 53 45 53 28C53 11 68 -4 85 -4Z" glyph-name="line.004.091" horiz-adv-x="350" /><glyph d="M108 28 458 644H412L62 28ZM85 -4C102 -4 117 11 117 28C117 45 102 60 85 60C68 60 53 45 53 28C53 11 68 -4 85 -4Z" glyph-name="line.004.092" horiz-adv-x="350" /><glyph d="M108 28 458 651H412L62 28ZM85 -4C102 -4 117 11 117 28C117 45 102 60 85 60C68 60 53 45 53 28C53 11 68 -4 85 -4Z" glyph-name="line.004.093" horiz-adv-x="350" /><glyph d="M108 28 458 658H412L62 28ZM85 -4C102 -4 117 11 117 28C117 45 102 60 85 60C68 60 53 45 53 28C53 11 68 -4 85 -4Z" glyph-name="line.004.094" horiz-adv-x="350" /><glyph d="M107 28 457 665H413L63 28ZM85 -4C102 -4 117 11 117 28C117 45 102 60 85 60C68 60 53 45 53 28C53 11 68 -4 85 -4Z" glyph-name="line.004.095" horiz-adv-x="350" /><glyph d="M107 28 457 672H413L63 28ZM85 -4C102 -4 117 11 117 28C117 45 102 60 85 60C68 60 53 45 53 28C53 11 68 -4 85 -4Z" glyph-name="line.004.096" horiz-adv-x="350" /><glyph d="M107 28 457 679H413L63 28ZM85 -4C102 -4 117 11 117 28C117 45 102 60 85 60C68 60 53 45 53 28C53 11 68 -4 85 -4Z" glyph-name="line.004.097" horiz-adv-x="350" /><glyph d="M107 28 457 686H413L63 28ZM85 -4C102 -4 117 11 117 28C117 45 102 60 85 60C68 60 53 45 53 28C53 11 68 -4 85 -4Z" glyph-name="line.004.098" horiz-adv-x="350" /><glyph d="M107 28 457 693H413L63 28ZM85 -4C102 -4 117 11 117 28C117 45 102 60 85 60C68 60 53 45 53 28C53 11 68 -4 85 -4Z" glyph-name="line.004.099" horiz-adv-x="350" /><glyph d="M107 28 457 700H413L63 28ZM85 -4C102 -4 117 11 117 28C117 45 102 60 85 60C68 60 53 45 53 28C53 11 68 -4 85 -4Z" glyph-name="line.004.100" horiz-adv-x="350" /><glyph d="M85 53 435 18V-18L85 17ZM85 67C102 67 117 52 117 35C117 18 102 3 85 3C68 3 53 18 53 35C53 52 68 67 85 67Z" glyph-name="line.005.000" horiz-adv-x="350" /><glyph d="M85 53 435 25V-11L85 17ZM85 67C102 67 117 52 117 35C117 18 102 3 85 3C68 3 53 18 53 35C53 52 68 67 85 67Z" glyph-name="line.005.001" horiz-adv-x="350" /><glyph d="M85 53 435 32V-4L85 17ZM85 67C102 67 117 52 117 35C117 18 102 3 85 3C68 3 53 18 53 35C53 52 68 67 85 67Z" glyph-name="line.005.002" horiz-adv-x="350" /><glyph d="M85 53 435 39V3L85 17ZM85 67C102 67 117 52 117 35C117 18 102 3 85 3C68 3 53 18 53 35C53 52 68 67 85 67Z" glyph-name="line.005.003" horiz-adv-x="350" /><glyph d="M85 53 435 46V10L85 17ZM85 67C102 67 117 52 117 35C117 18 102 3 85 3C68 3 53 18 53 35C53 52 68 67 85 67Z" glyph-name="line.005.004" horiz-adv-x="350" /><glyph d="M85 17H435V53H85ZM85 3C102 3 117 18 117 35C117 52 102 67 85 67C68 67 53 52 53 35C53 18 68 3 85 3Z" glyph-name="line.005.005" horiz-adv-x="350" /><glyph d="M85 17 435 24V60L85 53ZM85 3C102 3 117 18 117 35C117 52 102 67 85 67C68 67 53 52 53 35C53 18 68 3 85 3Z" glyph-name="line.005.006" horiz-adv-x="350" /><glyph d="M85 17 435 31V67L85 53ZM85 3C102 3 117 18 117 35C117 52 102 67 85 67C68 67 53 52 53 35C53 18 68 3 85 3Z" glyph-name="line.005.007" horiz-adv-x="350" /><glyph d="M85 17 435 38V74L85 53ZM85 3C102 3 117 18 117 35C117 52 102 67 85 67C68 67 53 52 53 35C53 18 68 3 85 3Z" glyph-name="line.005.008" horiz-adv-x="350" /><glyph d="M85 17 435 45V81L85 53ZM85 3C102 3 117 18 117 35C117 52 102 67 85 67C68 67 53 52 53 35C53 18 68 3 85 3Z" glyph-name="line.005.009" horiz-adv-x="350" /><glyph d="M85 17 435 52V88L85 53ZM85 3C102 3 117 18 117 35C117 52 102 67 85 67C68 67 53 52 53 35C53 18 68 3 85 3Z" glyph-name="line.005.010" horiz-adv-x="350" /><glyph d="M85 16 435 58V96L85 54ZM85 3C102 3 117 18 117 35C117 52 102 67 85 67C68 67 53 52 53 35C53 18 68 3 85 3Z" glyph-name="line.005.011" horiz-adv-x="350" /><glyph d="M85 16 435 65V103L85 54ZM85 3C102 3 117 18 117 35C117 52 102 67 85 67C68 67 53 52 53 35C53 18 68 3 85 3Z" glyph-name="line.005.012" horiz-adv-x="350" /><glyph d="M85 16 435 72V110L85 54ZM85 3C102 3 117 18 117 35C117 52 102 67 85 67C68 67 53 52 53 35C53 18 68 3 85 3Z" glyph-name="line.005.013" horiz-adv-x="350" /><glyph d="M85 16 435 79V117L85 54ZM85 3C102 3 117 18 117 35C117 52 102 67 85 67C68 67 53 52 53 35C53 18 68 3 85 3Z" glyph-name="line.005.014" horiz-adv-x="350" /><glyph d="M85 16 435 86V124L85 54ZM85 3C102 3 117 18 117 35C117 52 102 67 85 67C68 67 53 52 53 35C53 18 68 3 85 3Z" glyph-name="line.005.015" horiz-adv-x="350" /><glyph d="M85 16 435 93V131L85 54ZM85 3C102 3 117 18 117 35C117 52 102 67 85 67C68 67 53 52 53 35C53 18 68 3 85 3Z" glyph-name="line.005.016" horiz-adv-x="350" /><glyph d="M85 16 435 100V138L85 54ZM85 3C102 3 117 18 117 35C117 52 102 67 85 67C68 67 53 52 53 35C53 18 68 3 85 3Z" glyph-name="line.005.017" horiz-adv-x="350" /><glyph d="M85 16 435 107V145L85 54ZM85 3C102 3 117 18 117 35C117 52 102 67 85 67C68 67 53 52 53 35C53 18 68 3 85 3Z" glyph-name="line.005.018" horiz-adv-x="350" /><glyph d="M85 16 435 114V152L85 54ZM85 3C102 3 117 18 117 35C117 52 102 67 85 67C68 67 53 52 53 35C53 18 68 3 85 3Z" glyph-name="line.005.019" horiz-adv-x="350" /><glyph d="M85 16 435 121V159L85 54ZM85 3C102 3 117 18 117 35C117 52 102 67 85 67C68 67 53 52 53 35C53 18 68 3 85 3Z" glyph-name="line.005.020" horiz-adv-x="350" /><glyph d="M85 16 435 128V166L85 54ZM85 3C102 3 117 18 117 35C117 52 102 67 85 67C68 67 53 52 53 35C53 18 68 3 85 3Z" glyph-name="line.005.021" horiz-adv-x="350" /><glyph d="M85 16 435 135V173L85 54ZM85 3C102 3 117 18 117 35C117 52 102 67 85 67C68 67 53 52 53 35C53 18 68 3 85 3Z" glyph-name="line.005.022" horiz-adv-x="350" /><glyph d="M85 16 435 142V180L85 54ZM85 3C102 3 117 18 117 35C117 52 102 67 85 67C68 67 53 52 53 35C53 18 68 3 85 3Z" glyph-name="line.005.023" horiz-adv-x="350" /><glyph d="M85 15 435 148V188L85 55ZM85 3C102 3 117 18 117 35C117 52 102 67 85 67C68 67 53 52 53 35C53 18 68 3 85 3Z" glyph-name="line.005.024" horiz-adv-x="350" /><glyph d="M85 15 435 155V195L85 55ZM85 3C102 3 117 18 117 35C117 52 102 67 85 67C68 67 53 52 53 35C53 18 68 3 85 3Z" glyph-name="line.005.025" horiz-adv-x="350" /><glyph d="M85 15 435 162V202L85 55ZM85 3C102 3 117 18 117 35C117 52 102 67 85 67C68 67 53 52 53 35C53 18 68 3 85 3Z" glyph-name="line.005.026" horiz-adv-x="350" /><glyph d="M85 15 435 169V209L85 55ZM85 3C102 3 117 18 117 35C117 52 102 67 85 67C68 67 53 52 53 35C53 18 68 3 85 3Z" glyph-name="line.005.027" horiz-adv-x="350" /><glyph d="M85 15 435 176V216L85 55ZM85 3C102 3 117 18 117 35C117 52 102 67 85 67C68 67 53 52 53 35C53 18 68 3 85 3Z" glyph-name="line.005.028" horiz-adv-x="350" /><glyph d="M85 15 435 183V223L85 55ZM85 3C102 3 117 18 117 35C117 52 102 67 85 67C68 67 53 52 53 35C53 18 68 3 85 3Z" glyph-name="line.005.029" horiz-adv-x="350" /><glyph d="M85 15 435 190V230L85 55ZM85 3C102 3 117 18 117 35C117 52 102 67 85 67C68 67 53 52 53 35C53 18 68 3 85 3Z" glyph-name="line.005.030" horiz-adv-x="350" /><glyph d="M85 15 435 197V237L85 55ZM85 3C102 3 117 18 117 35C117 52 102 67 85 67C68 67 53 52 53 35C53 18 68 3 85 3Z" glyph-name="line.005.031" horiz-adv-x="350" /><glyph d="M85 14 435 203V245L85 56ZM85 3C102 3 117 18 117 35C117 52 102 67 85 67C68 67 53 52 53 35C53 18 68 3 85 3Z" glyph-name="line.005.032" horiz-adv-x="350" /><glyph d="M85 14 435 210V252L85 56ZM85 3C102 3 117 18 117 35C117 52 102 67 85 67C68 67 53 52 53 35C53 18 68 3 85 3Z" glyph-name="line.005.033" horiz-adv-x="350" /><glyph d="M85 14 435 217V259L85 56ZM85 3C102 3 117 18 117 35C117 52 102 67 85 67C68 67 53 52 53 35C53 18 68 3 85 3Z" glyph-name="line.005.034" horiz-adv-x="350" /><glyph d="M85 14 435 224V266L85 56ZM85 3C102 3 117 18 117 35C117 52 102 67 85 67C68 67 53 52 53 35C53 18 68 3 85 3Z" glyph-name="line.005.035" horiz-adv-x="350" /><glyph d="M85 14 435 231V273L85 56ZM85 3C102 3 117 18 117 35C117 52 102 67 85 67C68 67 53 52 53 35C53 18 68 3 85 3Z" glyph-name="line.005.036" horiz-adv-x="350" /><glyph d="M85 14 435 238V280L85 56ZM85 3C102 3 117 18 117 35C117 52 102 67 85 67C68 67 53 52 53 35C53 18 68 3 85 3Z" glyph-name="line.005.037" horiz-adv-x="350" /><glyph d="M85 13 435 244V288L85 57ZM85 3C102 3 117 18 117 35C117 52 102 67 85 67C68 67 53 52 53 35C53 18 68 3 85 3Z" glyph-name="line.005.038" horiz-adv-x="350" /><glyph d="M85 13 435 251V295L85 57ZM85 3C102 3 117 18 117 35C117 52 102 67 85 67C68 67 53 52 53 35C53 18 68 3 85 3Z" glyph-name="line.005.039" horiz-adv-x="350" /><glyph d="M85 13 435 258V302L85 57ZM85 3C102 3 117 18 117 35C117 52 102 67 85 67C68 67 53 52 53 35C53 18 68 3 85 3Z" glyph-name="line.005.040" horiz-adv-x="350" /><glyph d="M85 13 435 265V309L85 57ZM85 3C102 3 117 18 117 35C117 52 102 67 85 67C68 67 53 52 53 35C53 18 68 3 85 3Z" glyph-name="line.005.041" horiz-adv-x="350" /><glyph d="M85 12 435 271V317L85 58ZM85 3C102 3 117 18 117 35C117 52 102 67 85 67C68 67 53 52 53 35C53 18 68 3 85 3Z" glyph-name="line.005.042" horiz-adv-x="350" /><glyph d="M85 12 435 278V324L85 58ZM85 3C102 3 117 18 117 35C117 52 102 67 85 67C68 67 53 52 53 35C53 18 68 3 85 3Z" glyph-name="line.005.043" horiz-adv-x="350" /><glyph d="M85 12 435 285V331L85 58ZM85 3C102 3 117 18 117 35C117 52 102 67 85 67C68 67 53 52 53 35C53 18 68 3 85 3Z" glyph-name="line.005.044" horiz-adv-x="350" /><glyph d="M85 12 435 292V338L85 58ZM85 3C102 3 117 18 117 35C117 52 102 67 85 67C68 67 53 52 53 35C53 18 68 3 85 3Z" glyph-name="line.005.045" horiz-adv-x="350" /><glyph d="M85 12 435 299V345L85 58ZM85 3C102 3 117 18 117 35C117 52 102 67 85 67C68 67 53 52 53 35C53 18 68 3 85 3Z" glyph-name="line.005.046" horiz-adv-x="350" /><glyph d="M85 11 435 305V353L85 59ZM85 3C102 3 117 18 117 35C117 52 102 67 85 67C68 67 53 52 53 35C53 18 68 3 85 3Z" glyph-name="line.005.047" horiz-adv-x="350" /><glyph d="M85 11 435 312V360L85 59ZM85 3C102 3 117 18 117 35C117 52 102 67 85 67C68 67 53 52 53 35C53 18 68 3 85 3Z" glyph-name="line.005.048" horiz-adv-x="350" /><glyph d="M85 11 435 319V367L85 59ZM85 3C102 3 117 18 117 35C117 52 102 67 85 67C68 67 53 52 53 35C53 18 68 3 85 3Z" glyph-name="line.005.049" horiz-adv-x="350" /><glyph d="M85 11 435 326V374L85 59ZM85 3C102 3 117 18 117 35C117 52 102 67 85 67C68 67 53 52 53 35C53 18 68 3 85 3Z" glyph-name="line.005.050" horiz-adv-x="350" /><glyph d="M85 10 435 332V382L85 60ZM85 3C102 3 117 18 117 35C117 52 102 67 85 67C68 67 53 52 53 35C53 18 68 3 85 3Z" glyph-name="line.005.051" horiz-adv-x="350" /><glyph d="M85 10 435 339V389L85 60ZM85 3C102 3 117 18 117 35C117 52 102 67 85 67C68 67 53 52 53 35C53 18 68 3 85 3Z" glyph-name="line.005.052" horiz-adv-x="350" /><glyph d="M85 10 435 346V396L85 60ZM85 3C102 3 117 18 117 35C117 52 102 67 85 67C68 67 53 52 53 35C53 18 68 3 85 3Z" glyph-name="line.005.053" horiz-adv-x="350" /><glyph d="M85 10 435 353V403L85 60ZM85 3C102 3 117 18 117 35C117 52 102 67 85 67C68 67 53 52 53 35C53 18 68 3 85 3Z" glyph-name="line.005.054" horiz-adv-x="350" /><glyph d="M85 10 435 360V410L85 60ZM85 3C102 3 117 18 117 35C117 52 102 67 85 67C68 67 53 52 53 35C53 18 68 3 85 3Z" glyph-name="line.005.055" horiz-adv-x="350" /><glyph d="M85 10 435 367V417L85 60ZM85 3C102 3 117 18 117 35C117 52 102 67 85 67C68 67 53 52 53 35C53 18 68 3 85 3Z" glyph-name="line.005.056" horiz-adv-x="350" /><glyph d="M85 10 435 374V424L85 60ZM85 3C102 3 117 18 117 35C117 52 102 67 85 67C68 67 53 52 53 35C53 18 68 3 85 3Z" glyph-name="line.005.057" horiz-adv-x="350" /><glyph d="M85 9 435 380V432L85 61ZM85 3C102 3 117 18 117 35C117 52 102 67 85 67C68 67 53 52 53 35C53 18 68 3 85 3Z" glyph-name="line.005.058" horiz-adv-x="350" /><glyph d="M85 8 435 386V440L85 62ZM85 3C102 3 117 18 117 35C117 52 102 67 85 67C68 67 53 52 53 35C53 18 68 3 85 3Z" glyph-name="line.005.059" horiz-adv-x="350" /><glyph d="M85 7 435 392V448L85 63ZM85 3C102 3 117 18 117 35C117 52 102 67 85 67C68 67 53 52 53 35C53 18 68 3 85 3Z" glyph-name="line.005.060" horiz-adv-x="350" /><glyph d="M85 6 435 398V456L85 64ZM85 3C102 3 117 18 117 35C117 52 102 67 85 67C68 67 53 52 53 35C53 18 68 3 85 3Z" glyph-name="line.005.061" horiz-adv-x="350" /><glyph d="M85 6 435 405V463L85 64ZM85 3C102 3 117 18 117 35C117 52 102 67 85 67C68 67 53 52 53 35C53 18 68 3 85 3Z" glyph-name="line.005.062" horiz-adv-x="350" /><glyph d="M85 5 435 411V471L85 65ZM85 3C102 3 117 18 117 35C117 52 102 67 85 67C68 67 53 52 53 35C53 18 68 3 85 3Z" glyph-name="line.005.063" horiz-adv-x="350" /><glyph d="M85 5 435 418V478L85 65ZM85 3C102 3 117 18 117 35C117 52 102 67 85 67C68 67 53 52 53 35C53 18 68 3 85 3Z" glyph-name="line.005.064" horiz-adv-x="350" /><glyph d="M85 5 435 425V485L85 65ZM85 3C102 3 117 18 117 35C117 52 102 67 85 67C68 67 53 52 53 35C53 18 68 3 85 3Z" glyph-name="line.005.065" horiz-adv-x="350" /><glyph d="M85 5 435 432V492L85 65ZM85 3C102 3 117 18 117 35C117 52 102 67 85 67C68 67 53 52 53 35C53 18 68 3 85 3Z" glyph-name="line.005.066" horiz-adv-x="350" /><glyph d="M85 4 435 438V500L85 66ZM85 3C102 3 117 18 117 35C117 52 102 67 85 67C68 67 53 52 53 35C53 18 68 3 85 3Z" glyph-name="line.005.067" horiz-adv-x="350" /><glyph d="M85 4 435 445V507L85 66ZM85 3C102 3 117 18 117 35C117 52 102 67 85 67C68 67 53 52 53 35C53 18 68 3 85 3Z" glyph-name="line.005.068" horiz-adv-x="350" /><glyph d="M85 4 435 452V514L85 66ZM85 3C102 3 117 18 117 35C117 52 102 67 85 67C68 67 53 52 53 35C53 18 68 3 85 3Z" glyph-name="line.005.069" horiz-adv-x="350" /><glyph d="M85 4 435 459V521L85 66ZM85 3C102 3 117 18 117 35C117 52 102 67 85 67C68 67 53 52 53 35C53 18 68 3 85 3Z" glyph-name="line.005.070" horiz-adv-x="350" /><glyph d="M85 4 435 466V528L85 66ZM85 3C102 3 117 18 117 35C117 52 102 67 85 67C68 67 53 52 53 35C53 18 68 3 85 3Z" glyph-name="line.005.071" horiz-adv-x="350" /><glyph d="M85 3 435 472V536L85 67ZM85 3C102 3 117 18 117 35C117 52 102 67 85 67C68 67 53 52 53 35C53 18 68 3 85 3Z" glyph-name="line.005.072" horiz-adv-x="350" /><glyph d="M85 3 435 479V543L85 67ZM85 3C102 3 117 18 117 35C117 52 102 67 85 67C68 67 53 52 53 35C53 18 68 3 85 3Z" glyph-name="line.005.073" horiz-adv-x="350" /><glyph d="M109 35 459 518H411L61 35ZM85 3C102 3 117 18 117 35C117 52 102 67 85 67C68 67 53 52 53 35C53 18 68 3 85 3Z" glyph-name="line.005.074" horiz-adv-x="350" /><glyph d="M108 35 458 525H412L62 35ZM85 3C102 3 117 18 117 35C117 52 102 67 85 67C68 67 53 52 53 35C53 18 68 3 85 3Z" glyph-name="line.005.075" horiz-adv-x="350" /><glyph d="M108 35 458 532H412L62 35ZM85 3C102 3 117 18 117 35C117 52 102 67 85 67C68 67 53 52 53 35C53 18 68 3 85 3Z" glyph-name="line.005.076" horiz-adv-x="350" /><glyph d="M108 35 458 539H412L62 35ZM85 3C102 3 117 18 117 35C117 52 102 67 85 67C68 67 53 52 53 35C53 18 68 3 85 3Z" glyph-name="line.005.077" horiz-adv-x="350" /><glyph d="M108 35 458 546H412L62 35ZM85 3C102 3 117 18 117 35C117 52 102 67 85 67C68 67 53 52 53 35C53 18 68 3 85 3Z" glyph-name="line.005.078" horiz-adv-x="350" /><glyph d="M108 35 458 553H412L62 35ZM85 3C102 3 117 18 117 35C117 52 102 67 85 67C68 67 53 52 53 35C53 18 68 3 85 3Z" glyph-name="line.005.079" horiz-adv-x="350" /><glyph d="M108 35 458 560H412L62 35ZM85 3C102 3 117 18 117 35C117 52 102 67 85 67C68 67 53 52 53 35C53 18 68 3 85 3Z" glyph-name="line.005.080" horiz-adv-x="350" /><glyph d="M108 35 458 567H412L62 35ZM85 3C102 3 117 18 117 35C117 52 102 67 85 67C68 67 53 52 53 35C53 18 68 3 85 3Z" glyph-name="line.005.081" horiz-adv-x="350" /><glyph d="M108 35 458 574H412L62 35ZM85 3C102 3 117 18 117 35C117 52 102 67 85 67C68 67 53 52 53 35C53 18 68 3 85 3Z" glyph-name="line.005.082" horiz-adv-x="350" /><glyph d="M108 35 458 581H412L62 35ZM85 3C102 3 117 18 117 35C117 52 102 67 85 67C68 67 53 52 53 35C53 18 68 3 85 3Z" glyph-name="line.005.083" horiz-adv-x="350" /><glyph d="M108 35 458 588H412L62 35ZM85 3C102 3 117 18 117 35C117 52 102 67 85 67C68 67 53 52 53 35C53 18 68 3 85 3Z" glyph-name="line.005.084" horiz-adv-x="350" /><glyph d="M108 35 458 595H412L62 35ZM85 3C102 3 117 18 117 35C117 52 102 67 85 67C68 67 53 52 53 35C53 18 68 3 85 3Z" glyph-name="line.005.085" horiz-adv-x="350" /><glyph d="M108 35 458 602H412L62 35ZM85 3C102 3 117 18 117 35C117 52 102 67 85 67C68 67 53 52 53 35C53 18 68 3 85 3Z" glyph-name="line.005.086" horiz-adv-x="350" /><glyph d="M108 35 458 609H412L62 35ZM85 3C102 3 117 18 117 35C117 52 102 67 85 67C68 67 53 52 53 35C53 18 68 3 85 3Z" glyph-name="line.005.087" horiz-adv-x="350" /><glyph d="M108 35 458 616H412L62 35ZM85 3C102 3 117 18 117 35C117 52 102 67 85 67C68 67 53 52 53 35C53 18 68 3 85 3Z" glyph-name="line.005.088" horiz-adv-x="350" /><glyph d="M108 35 458 623H412L62 35ZM85 3C102 3 117 18 117 35C117 52 102 67 85 67C68 67 53 52 53 35C53 18 68 3 85 3Z" glyph-name="line.005.089" horiz-adv-x="350" /><glyph d="M108 35 458 630H412L62 35ZM85 3C102 3 117 18 117 35C117 52 102 67 85 67C68 67 53 52 53 35C53 18 68 3 85 3Z" glyph-name="line.005.090" horiz-adv-x="350" /><glyph d="M108 35 458 637H412L62 35ZM85 3C102 3 117 18 117 35C117 52 102 67 85 67C68 67 53 52 53 35C53 18 68 3 85 3Z" glyph-name="line.005.091" horiz-adv-x="350" /><glyph d="M108 35 458 644H412L62 35ZM85 3C102 3 117 18 117 35C117 52 102 67 85 67C68 67 53 52 53 35C53 18 68 3 85 3Z" glyph-name="line.005.092" horiz-adv-x="350" /><glyph d="M108 35 458 651H412L62 35ZM85 3C102 3 117 18 117 35C117 52 102 67 85 67C68 67 53 52 53 35C53 18 68 3 85 3Z" glyph-name="line.005.093" horiz-adv-x="350" /><glyph d="M108 35 458 658H412L62 35ZM85 3C102 3 117 18 117 35C117 52 102 67 85 67C68 67 53 52 53 35C53 18 68 3 85 3Z" glyph-name="line.005.094" horiz-adv-x="350" /><glyph d="M108 35 458 665H412L62 35ZM85 3C102 3 117 18 117 35C117 52 102 67 85 67C68 67 53 52 53 35C53 18 68 3 85 3Z" glyph-name="line.005.095" horiz-adv-x="350" /><glyph d="M107 35 457 672H413L63 35ZM85 3C102 3 117 18 117 35C117 52 102 67 85 67C68 67 53 52 53 35C53 18 68 3 85 3Z" glyph-name="line.005.096" horiz-adv-x="350" /><glyph d="M107 35 457 679H413L63 35ZM85 3C102 3 117 18 117 35C117 52 102 67 85 67C68 67 53 52 53 35C53 18 68 3 85 3Z" glyph-name="line.005.097" horiz-adv-x="350" /><glyph d="M107 35 457 686H413L63 35ZM85 3C102 3 117 18 117 35C117 52 102 67 85 67C68 67 53 52 53 35C53 18 68 3 85 3Z" glyph-name="line.005.098" horiz-adv-x="350" /><glyph d="M107 35 457 693H413L63 35ZM85 3C102 3 117 18 117 35C117 52 102 67 85 67C68 67 53 52 53 35C53 18 68 3 85 3Z" glyph-name="line.005.099" horiz-adv-x="350" /><glyph d="M107 35 457 700H413L63 35ZM85 3C102 3 117 18 117 35C117 52 102 67 85 67C68 67 53 52 53 35C53 18 68 3 85 3Z" glyph-name="line.005.100" horiz-adv-x="350" /><glyph d="M85 61 435 19V-19L85 23ZM85 74C102 74 117 59 117 42C117 25 102 10 85 10C68 10 53 25 53 42C53 59 68 74 85 74Z" glyph-name="line.006.000" horiz-adv-x="350" /><glyph d="M85 60 435 25V-11L85 24ZM85 74C102 74 117 59 117 42C117 25 102 10 85 10C68 10 53 25 53 42C53 59 68 74 85 74Z" glyph-name="line.006.001" horiz-adv-x="350" /><glyph d="M85 60 435 32V-4L85 24ZM85 74C102 74 117 59 117 42C117 25 102 10 85 10C68 10 53 25 53 42C53 59 68 74 85 74Z" glyph-name="line.006.002" horiz-adv-x="350" /><glyph d="M85 60 435 39V3L85 24ZM85 74C102 74 117 59 117 42C117 25 102 10 85 10C68 10 53 25 53 42C53 59 68 74 85 74Z" glyph-name="line.006.003" horiz-adv-x="350" /><glyph d="M85 60 435 46V10L85 24ZM85 74C102 74 117 59 117 42C117 25 102 10 85 10C68 10 53 25 53 42C53 59 68 74 85 74Z" glyph-name="line.006.004" horiz-adv-x="350" /><glyph d="M85 60 435 53V17L85 24ZM85 74C102 74 117 59 117 42C117 25 102 10 85 10C68 10 53 25 53 42C53 59 68 74 85 74Z" glyph-name="line.006.005" horiz-adv-x="350" /><glyph d="M85 24H435V60H85ZM85 10C102 10 117 25 117 42C117 59 102 74 85 74C68 74 53 59 53 42C53 25 68 10 85 10Z" glyph-name="line.006.006" horiz-adv-x="350" /><glyph d="M85 24 435 31V67L85 60ZM85 10C102 10 117 25 117 42C117 59 102 74 85 74C68 74 53 59 53 42C53 25 68 10 85 10Z" glyph-name="line.006.007" horiz-adv-x="350" /><glyph d="M85 24 435 38V74L85 60ZM85 10C102 10 117 25 117 42C117 59 102 74 85 74C68 74 53 59 53 42C53 25 68 10 85 10Z" glyph-name="line.006.008" horiz-adv-x="350" /><glyph d="M85 24 435 45V81L85 60ZM85 10C102 10 117 25 117 42C117 59 102 74 85 74C68 74 53 59 53 42C53 25 68 10 85 10Z" glyph-name="line.006.009" horiz-adv-x="350" /><glyph d="M85 24 435 52V88L85 60ZM85 10C102 10 117 25 117 42C117 59 102 74 85 74C68 74 53 59 53 42C53 25 68 10 85 10Z" glyph-name="line.006.010" horiz-adv-x="350" /><glyph d="M85 24 435 59V95L85 60ZM85 10C102 10 117 25 117 42C117 59 102 74 85 74C68 74 53 59 53 42C53 25 68 10 85 10Z" glyph-name="line.006.011" horiz-adv-x="350" /><glyph d="M85 23 435 65V103L85 61ZM85 10C102 10 117 25 117 42C117 59 102 74 85 74C68 74 53 59 53 42C53 25 68 10 85 10Z" glyph-name="line.006.012" horiz-adv-x="350" /><glyph d="M85 23 435 72V110L85 61ZM85 10C102 10 117 25 117 42C117 59 102 74 85 74C68 74 53 59 53 42C53 25 68 10 85 10Z" glyph-name="line.006.013" horiz-adv-x="350" /><glyph d="M85 23 435 79V117L85 61ZM85 10C102 10 117 25 117 42C117 59 102 74 85 74C68 74 53 59 53 42C53 25 68 10 85 10Z" glyph-name="line.006.014" horiz-adv-x="350" /><glyph d="M85 23 435 86V124L85 61ZM85 10C102 10 117 25 117 42C117 59 102 74 85 74C68 74 53 59 53 42C53 25 68 10 85 10Z" glyph-name="line.006.015" horiz-adv-x="350" /><glyph d="M85 23 435 93V131L85 61ZM85 10C102 10 117 25 117 42C117 59 102 74 85 74C68 74 53 59 53 42C53 25 68 10 85 10Z" glyph-name="line.006.016" horiz-adv-x="350" /><glyph d="M85 23 435 100V138L85 61ZM85 10C102 10 117 25 117 42C117 59 102 74 85 74C68 74 53 59 53 42C53 25 68 10 85 10Z" glyph-name="line.006.017" horiz-adv-x="350" /><glyph d="M85 23 435 107V145L85 61ZM85 10C102 10 117 25 117 42C117 59 102 74 85 74C68 74 53 59 53 42C53 25 68 10 85 10Z" glyph-name="line.006.018" horiz-adv-x="350" /><glyph d="M85 23 435 114V152L85 61ZM85 10C102 10 117 25 117 42C117 59 102 74 85 74C68 74 53 59 53 42C53 25 68 10 85 10Z" glyph-name="line.006.019" horiz-adv-x="350" /><glyph d="M85 23 435 121V159L85 61ZM85 10C102 10 117 25 117 42C117 59 102 74 85 74C68 74 53 59 53 42C53 25 68 10 85 10Z" glyph-name="line.006.020" horiz-adv-x="350" /><glyph d="M85 23 435 128V166L85 61ZM85 10C102 10 117 25 117 42C117 59 102 74 85 74C68 74 53 59 53 42C53 25 68 10 85 10Z" glyph-name="line.006.021" horiz-adv-x="350" /><glyph d="M85 23 435 135V173L85 61ZM85 10C102 10 117 25 117 42C117 59 102 74 85 74C68 74 53 59 53 42C53 25 68 10 85 10Z" glyph-name="line.006.022" horiz-adv-x="350" /><glyph d="M85 23 435 142V180L85 61ZM85 10C102 10 117 25 117 42C117 59 102 74 85 74C68 74 53 59 53 42C53 25 68 10 85 10Z" glyph-name="line.006.023" horiz-adv-x="350" /><glyph d="M85 23 435 149V187L85 61ZM85 10C102 10 117 25 117 42C117 59 102 74 85 74C68 74 53 59 53 42C53 25 68 10 85 10Z" glyph-name="line.006.024" horiz-adv-x="350" /><glyph d="M85 22 435 155V195L85 62ZM85 10C102 10 117 25 117 42C117 59 102 74 85 74C68 74 53 59 53 42C53 25 68 10 85 10Z" glyph-name="line.006.025" horiz-adv-x="350" /><glyph d="M85 22 435 162V202L85 62ZM85 10C102 10 117 25 117 42C117 59 102 74 85 74C68 74 53 59 53 42C53 25 68 10 85 10Z" glyph-name="line.006.026" horiz-adv-x="350" /><glyph d="M85 22 435 169V209L85 62ZM85 10C102 10 117 25 117 42C117 59 102 74 85 74C68 74 53 59 53 42C53 25 68 10 85 10Z" glyph-name="line.006.027" horiz-adv-x="350" /><glyph d="M85 22 435 176V216L85 62ZM85 10C102 10 117 25 117 42C117 59 102 74 85 74C68 74 53 59 53 42C53 25 68 10 85 10Z" glyph-name="line.006.028" horiz-adv-x="350" /><glyph d="M85 22 435 183V223L85 62ZM85 10C102 10 117 25 117 42C117 59 102 74 85 74C68 74 53 59 53 42C53 25 68 10 85 10Z" glyph-name="line.006.029" horiz-adv-x="350" /><glyph d="M85 22 435 190V230L85 62ZM85 10C102 10 117 25 117 42C117 59 102 74 85 74C68 74 53 59 53 42C53 25 68 10 85 10Z" glyph-name="line.006.030" horiz-adv-x="350" /><glyph d="M85 22 435 197V237L85 62ZM85 10C102 10 117 25 117 42C117 59 102 74 85 74C68 74 53 59 53 42C53 25 68 10 85 10Z" glyph-name="line.006.031" horiz-adv-x="350" /><glyph d="M85 22 435 204V244L85 62ZM85 10C102 10 117 25 117 42C117 59 102 74 85 74C68 74 53 59 53 42C53 25 68 10 85 10Z" glyph-name="line.006.032" horiz-adv-x="350" /><glyph d="M85 21 435 210V252L85 63ZM85 10C102 10 117 25 117 42C117 59 102 74 85 74C68 74 53 59 53 42C53 25 68 10 85 10Z" glyph-name="line.006.033" horiz-adv-x="350" /><glyph d="M85 21 435 217V259L85 63ZM85 10C102 10 117 25 117 42C117 59 102 74 85 74C68 74 53 59 53 42C53 25 68 10 85 10Z" glyph-name="line.006.034" horiz-adv-x="350" /><glyph d="M85 21 435 224V266L85 63ZM85 10C102 10 117 25 117 42C117 59 102 74 85 74C68 74 53 59 53 42C53 25 68 10 85 10Z" glyph-name="line.006.035" horiz-adv-x="350" /><glyph d="M85 21 435 231V273L85 63ZM85 10C102 10 117 25 117 42C117 59 102 74 85 74C68 74 53 59 53 42C53 25 68 10 85 10Z" glyph-name="line.006.036" horiz-adv-x="350" /><glyph d="M85 21 435 238V280L85 63ZM85 10C102 10 117 25 117 42C117 59 102 74 85 74C68 74 53 59 53 42C53 25 68 10 85 10Z" glyph-name="line.006.037" horiz-adv-x="350" /><glyph d="M85 21 435 245V287L85 63ZM85 10C102 10 117 25 117 42C117 59 102 74 85 74C68 74 53 59 53 42C53 25 68 10 85 10Z" glyph-name="line.006.038" horiz-adv-x="350" /><glyph d="M85 20 435 251V295L85 64ZM85 10C102 10 117 25 117 42C117 59 102 74 85 74C68 74 53 59 53 42C53 25 68 10 85 10Z" glyph-name="line.006.039" horiz-adv-x="350" /><glyph d="M85 20 435 258V302L85 64ZM85 10C102 10 117 25 117 42C117 59 102 74 85 74C68 74 53 59 53 42C53 25 68 10 85 10Z" glyph-name="line.006.040" horiz-adv-x="350" /><glyph d="M85 20 435 265V309L85 64ZM85 10C102 10 117 25 117 42C117 59 102 74 85 74C68 74 53 59 53 42C53 25 68 10 85 10Z" glyph-name="line.006.041" horiz-adv-x="350" /><glyph d="M85 20 435 272V316L85 64ZM85 10C102 10 117 25 117 42C117 59 102 74 85 74C68 74 53 59 53 42C53 25 68 10 85 10Z" glyph-name="line.006.042" horiz-adv-x="350" /><glyph d="M85 19 435 278V324L85 65ZM85 10C102 10 117 25 117 42C117 59 102 74 85 74C68 74 53 59 53 42C53 25 68 10 85 10Z" glyph-name="line.006.043" horiz-adv-x="350" /><glyph d="M85 19 435 285V331L85 65ZM85 10C102 10 117 25 117 42C117 59 102 74 85 74C68 74 53 59 53 42C53 25 68 10 85 10Z" glyph-name="line.006.044" horiz-adv-x="350" /><glyph d="M85 19 435 292V338L85 65ZM85 10C102 10 117 25 117 42C117 59 102 74 85 74C68 74 53 59 53 42C53 25 68 10 85 10Z" glyph-name="line.006.045" horiz-adv-x="350" /><glyph d="M85 19 435 299V345L85 65ZM85 10C102 10 117 25 117 42C117 59 102 74 85 74C68 74 53 59 53 42C53 25 68 10 85 10Z" glyph-name="line.006.046" horiz-adv-x="350" /><glyph d="M85 19 435 306V352L85 65ZM85 10C102 10 117 25 117 42C117 59 102 74 85 74C68 74 53 59 53 42C53 25 68 10 85 10Z" glyph-name="line.006.047" horiz-adv-x="350" /><glyph d="M85 18 435 312V360L85 66ZM85 10C102 10 117 25 117 42C117 59 102 74 85 74C68 74 53 59 53 42C53 25 68 10 85 10Z" glyph-name="line.006.048" horiz-adv-x="350" /><glyph d="M85 18 435 319V367L85 66ZM85 10C102 10 117 25 117 42C117 59 102 74 85 74C68 74 53 59 53 42C53 25 68 10 85 10Z" glyph-name="line.006.049" horiz-adv-x="350" /><glyph d="M85 18 435 326V374L85 66ZM85 10C102 10 117 25 117 42C117 59 102 74 85 74C68 74 53 59 53 42C53 25 68 10 85 10Z" glyph-name="line.006.050" horiz-adv-x="350" /><glyph d="M85 18 435 333V381L85 66ZM85 10C102 10 117 25 117 42C117 59 102 74 85 74C68 74 53 59 53 42C53 25 68 10 85 10Z" glyph-name="line.006.051" horiz-adv-x="350" /><glyph d="M85 17 435 339V389L85 67ZM85 10C102 10 117 25 117 42C117 59 102 74 85 74C68 74 53 59 53 42C53 25 68 10 85 10Z" glyph-name="line.006.052" horiz-adv-x="350" /><glyph d="M85 17 435 346V396L85 67ZM85 10C102 10 117 25 117 42C117 59 102 74 85 74C68 74 53 59 53 42C53 25 68 10 85 10Z" glyph-name="line.006.053" horiz-adv-x="350" /><glyph d="M85 17 435 353V403L85 67ZM85 10C102 10 117 25 117 42C117 59 102 74 85 74C68 74 53 59 53 42C53 25 68 10 85 10Z" glyph-name="line.006.054" horiz-adv-x="350" /><glyph d="M85 17 435 360V410L85 67ZM85 10C102 10 117 25 117 42C117 59 102 74 85 74C68 74 53 59 53 42C53 25 68 10 85 10Z" glyph-name="line.006.055" horiz-adv-x="350" /><glyph d="M85 17 435 367V417L85 67ZM85 10C102 10 117 25 117 42C117 59 102 74 85 74C68 74 53 59 53 42C53 25 68 10 85 10Z" glyph-name="line.006.056" horiz-adv-x="350" /><glyph d="M85 17 435 374V424L85 67ZM85 10C102 10 117 25 117 42C117 59 102 74 85 74C68 74 53 59 53 42C53 25 68 10 85 10Z" glyph-name="line.006.057" horiz-adv-x="350" /><glyph d="M85 17 435 381V431L85 67ZM85 10C102 10 117 25 117 42C117 59 102 74 85 74C68 74 53 59 53 42C53 25 68 10 85 10Z" glyph-name="line.006.058" horiz-adv-x="350" /><glyph d="M85 16 435 387V439L85 68ZM85 10C102 10 117 25 117 42C117 59 102 74 85 74C68 74 53 59 53 42C53 25 68 10 85 10Z" glyph-name="line.006.059" horiz-adv-x="350" /><glyph d="M85 15 435 393V447L85 69ZM85 10C102 10 117 25 117 42C117 59 102 74 85 74C68 74 53 59 53 42C53 25 68 10 85 10Z" glyph-name="line.006.060" horiz-adv-x="350" /><glyph d="M85 14 435 399V455L85 70ZM85 10C102 10 117 25 117 42C117 59 102 74 85 74C68 74 53 59 53 42C53 25 68 10 85 10Z" glyph-name="line.006.061" horiz-adv-x="350" /><glyph d="M85 13 435 405V463L85 71ZM85 10C102 10 117 25 117 42C117 59 102 74 85 74C68 74 53 59 53 42C53 25 68 10 85 10Z" glyph-name="line.006.062" horiz-adv-x="350" /><glyph d="M85 13 435 412V470L85 71ZM85 10C102 10 117 25 117 42C117 59 102 74 85 74C68 74 53 59 53 42C53 25 68 10 85 10Z" glyph-name="line.006.063" horiz-adv-x="350" /><glyph d="M85 12 435 418V478L85 72ZM85 10C102 10 117 25 117 42C117 59 102 74 85 74C68 74 53 59 53 42C53 25 68 10 85 10Z" glyph-name="line.006.064" horiz-adv-x="350" /><glyph d="M85 12 435 425V485L85 72ZM85 10C102 10 117 25 117 42C117 59 102 74 85 74C68 74 53 59 53 42C53 25 68 10 85 10Z" glyph-name="line.006.065" horiz-adv-x="350" /><glyph d="M85 12 435 432V492L85 72ZM85 10C102 10 117 25 117 42C117 59 102 74 85 74C68 74 53 59 53 42C53 25 68 10 85 10Z" glyph-name="line.006.066" horiz-adv-x="350" /><glyph d="M85 12 435 439V499L85 72ZM85 10C102 10 117 25 117 42C117 59 102 74 85 74C68 74 53 59 53 42C53 25 68 10 85 10Z" glyph-name="line.006.067" horiz-adv-x="350" /><glyph d="M85 11 435 445V507L85 73ZM85 10C102 10 117 25 117 42C117 59 102 74 85 74C68 74 53 59 53 42C53 25 68 10 85 10Z" glyph-name="line.006.068" horiz-adv-x="350" /><glyph d="M85 11 435 452V514L85 73ZM85 10C102 10 117 25 117 42C117 59 102 74 85 74C68 74 53 59 53 42C53 25 68 10 85 10Z" glyph-name="line.006.069" horiz-adv-x="350" /><glyph d="M85 11 435 459V521L85 73ZM85 10C102 10 117 25 117 42C117 59 102 74 85 74C68 74 53 59 53 42C53 25 68 10 85 10Z" glyph-name="line.006.070" horiz-adv-x="350" /><glyph d="M85 11 435 466V528L85 73ZM85 10C102 10 117 25 117 42C117 59 102 74 85 74C68 74 53 59 53 42C53 25 68 10 85 10Z" glyph-name="line.006.071" horiz-adv-x="350" /><glyph d="M85 11 435 473V535L85 73ZM85 10C102 10 117 25 117 42C117 59 102 74 85 74C68 74 53 59 53 42C53 25 68 10 85 10Z" glyph-name="line.006.072" horiz-adv-x="350" /><glyph d="M85 10 435 479V543L85 74ZM85 10C102 10 117 25 117 42C117 59 102 74 85 74C68 74 53 59 53 42C53 25 68 10 85 10Z" glyph-name="line.006.073" horiz-adv-x="350" /><glyph d="M85 10 435 486V550L85 74ZM85 10C102 10 117 25 117 42C117 59 102 74 85 74C68 74 53 59 53 42C53 25 68 10 85 10Z" glyph-name="line.006.074" horiz-adv-x="350" /><glyph d="M109 42 459 525H411L61 42ZM85 10C102 10 117 25 117 42C117 59 102 74 85 74C68 74 53 59 53 42C53 25 68 10 85 10Z" glyph-name="line.006.075" horiz-adv-x="350" /><glyph d="M108 42 458 532H412L62 42ZM85 10C102 10 117 25 117 42C117 59 102 74 85 74C68 74 53 59 53 42C53 25 68 10 85 10Z" glyph-name="line.006.076" horiz-adv-x="350" /><glyph d="M108 42 458 539H412L62 42ZM85 10C102 10 117 25 117 42C117 59 102 74 85 74C68 74 53 59 53 42C53 25 68 10 85 10Z" glyph-name="line.006.077" horiz-adv-x="350" /><glyph d="M108 42 458 546H412L62 42ZM85 10C102 10 117 25 117 42C117 59 102 74 85 74C68 74 53 59 53 42C53 25 68 10 85 10Z" glyph-name="line.006.078" horiz-adv-x="350" /><glyph d="M108 42 458 553H412L62 42ZM85 10C102 10 117 25 117 42C117 59 102 74 85 74C68 74 53 59 53 42C53 25 68 10 85 10Z" glyph-name="line.006.079" horiz-adv-x="350" /><glyph d="M108 42 458 560H412L62 42ZM85 10C102 10 117 25 117 42C117 59 102 74 85 74C68 74 53 59 53 42C53 25 68 10 85 10Z" glyph-name="line.006.080" horiz-adv-x="350" /><glyph d="M108 42 458 567H412L62 42ZM85 10C102 10 117 25 117 42C117 59 102 74 85 74C68 74 53 59 53 42C53 25 68 10 85 10Z" glyph-name="line.006.081" horiz-adv-x="350" /><glyph d="M108 42 458 574H412L62 42ZM85 10C102 10 117 25 117 42C117 59 102 74 85 74C68 74 53 59 53 42C53 25 68 10 85 10Z" glyph-name="line.006.082" horiz-adv-x="350" /><glyph d="M108 42 458 581H412L62 42ZM85 10C102 10 117 25 117 42C117 59 102 74 85 74C68 74 53 59 53 42C53 25 68 10 85 10Z" glyph-name="line.006.083" horiz-adv-x="350" /><glyph d="M108 42 458 588H412L62 42ZM85 10C102 10 117 25 117 42C117 59 102 74 85 74C68 74 53 59 53 42C53 25 68 10 85 10Z" glyph-name="line.006.084" horiz-adv-x="350" /><glyph d="M108 42 458 595H412L62 42ZM85 10C102 10 117 25 117 42C117 59 102 74 85 74C68 74 53 59 53 42C53 25 68 10 85 10Z" glyph-name="line.006.085" horiz-adv-x="350" /><glyph d="M108 42 458 602H412L62 42ZM85 10C102 10 117 25 117 42C117 59 102 74 85 74C68 74 53 59 53 42C53 25 68 10 85 10Z" glyph-name="line.006.086" horiz-adv-x="350" /><glyph d="M108 42 458 609H412L62 42ZM85 10C102 10 117 25 117 42C117 59 102 74 85 74C68 74 53 59 53 42C53 25 68 10 85 10Z" glyph-name="line.006.087" horiz-adv-x="350" /><glyph d="M108 42 458 616H412L62 42ZM85 10C102 10 117 25 117 42C117 59 102 74 85 74C68 74 53 59 53 42C53 25 68 10 85 10Z" glyph-name="line.006.088" horiz-adv-x="350" /><glyph d="M108 42 458 623H412L62 42ZM85 10C102 10 117 25 117 42C117 59 102 74 85 74C68 74 53 59 53 42C53 25 68 10 85 10Z" glyph-name="line.006.089" horiz-adv-x="350" /><glyph d="M108 42 458 630H412L62 42ZM85 10C102 10 117 25 117 42C117 59 102 74 85 74C68 74 53 59 53 42C53 25 68 10 85 10Z" glyph-name="line.006.090" horiz-adv-x="350" /><glyph d="M108 42 458 637H412L62 42ZM85 10C102 10 117 25 117 42C117 59 102 74 85 74C68 74 53 59 53 42C53 25 68 10 85 10Z" glyph-name="line.006.091" horiz-adv-x="350" /><glyph d="M108 42 458 644H412L62 42ZM85 10C102 10 117 25 117 42C117 59 102 74 85 74C68 74 53 59 53 42C53 25 68 10 85 10Z" glyph-name="line.006.092" horiz-adv-x="350" /><glyph d="M108 42 458 651H412L62 42ZM85 10C102 10 117 25 117 42C117 59 102 74 85 74C68 74 53 59 53 42C53 25 68 10 85 10Z" glyph-name="line.006.093" horiz-adv-x="350" /><glyph d="M108 42 458 658H412L62 42ZM85 10C102 10 117 25 117 42C117 59 102 74 85 74C68 74 53 59 53 42C53 25 68 10 85 10Z" glyph-name="line.006.094" horiz-adv-x="350" /><glyph d="M108 42 458 665H412L62 42ZM85 10C102 10 117 25 117 42C117 59 102 74 85 74C68 74 53 59 53 42C53 25 68 10 85 10Z" glyph-name="line.006.095" horiz-adv-x="350" /><glyph d="M108 42 458 672H412L62 42ZM85 10C102 10 117 25 117 42C117 59 102 74 85 74C68 74 53 59 53 42C53 25 68 10 85 10Z" glyph-name="line.006.096" horiz-adv-x="350" /><glyph d="M107 42 457 679H413L63 42ZM85 10C102 10 117 25 117 42C117 59 102 74 85 74C68 74 53 59 53 42C53 25 68 10 85 10Z" glyph-name="line.006.097" horiz-adv-x="350" /><glyph d="M107 42 457 686H413L63 42ZM85 10C102 10 117 25 117 42C117 59 102 74 85 74C68 74 53 59 53 42C53 25 68 10 85 10Z" glyph-name="line.006.098" horiz-adv-x="350" /><glyph d="M107 42 457 693H413L63 42ZM85 10C102 10 117 25 117 42C117 59 102 74 85 74C68 74 53 59 53 42C53 25 68 10 85 10Z" glyph-name="line.006.099" horiz-adv-x="350" /><glyph d="M107 42 457 700H413L63 42ZM85 10C102 10 117 25 117 42C117 59 102 74 85 74C68 74 53 59 53 42C53 25 68 10 85 10Z" glyph-name="line.006.100" horiz-adv-x="350" /><glyph d="M85 68 435 19V-19L85 30ZM85 81C102 81 117 66 117 49C117 32 102 17 85 17C68 17 53 32 53 49C53 66 68 81 85 81Z" glyph-name="line.007.000" horiz-adv-x="350" /><glyph d="M85 68 435 26V-12L85 30ZM85 81C102 81 117 66 117 49C117 32 102 17 85 17C68 17 53 32 53 49C53 66 68 81 85 81Z" glyph-name="line.007.001" horiz-adv-x="350" /><glyph d="M85 67 435 32V-4L85 31ZM85 81C102 81 117 66 117 49C117 32 102 17 85 17C68 17 53 32 53 49C53 66 68 81 85 81Z" glyph-name="line.007.002" horiz-adv-x="350" /><glyph d="M85 67 435 39V3L85 31ZM85 81C102 81 117 66 117 49C117 32 102 17 85 17C68 17 53 32 53 49C53 66 68 81 85 81Z" glyph-name="line.007.003" horiz-adv-x="350" /><glyph d="M85 67 435 46V10L85 31ZM85 81C102 81 117 66 117 49C117 32 102 17 85 17C68 17 53 32 53 49C53 66 68 81 85 81Z" glyph-name="line.007.004" horiz-adv-x="350" /><glyph d="M85 67 435 53V17L85 31ZM85 81C102 81 117 66 117 49C117 32 102 17 85 17C68 17 53 32 53 49C53 66 68 81 85 81Z" glyph-name="line.007.005" horiz-adv-x="350" /><glyph d="M85 67 435 60V24L85 31ZM85 81C102 81 117 66 117 49C117 32 102 17 85 17C68 17 53 32 53 49C53 66 68 81 85 81Z" glyph-name="line.007.006" horiz-adv-x="350" /><glyph d="M85 31H435V67H85ZM85 17C102 17 117 32 117 49C117 66 102 81 85 81C68 81 53 66 53 49C53 32 68 17 85 17Z" glyph-name="line.007.007" horiz-adv-x="350" /><glyph d="M85 31 435 38V74L85 67ZM85 17C102 17 117 32 117 49C117 66 102 81 85 81C68 81 53 66 53 49C53 32 68 17 85 17Z" glyph-name="line.007.008" horiz-adv-x="350" /><glyph d="M85 31 435 45V81L85 67ZM85 17C102 17 117 32 117 49C117 66 102 81 85 81C68 81 53 66 53 49C53 32 68 17 85 17Z" glyph-name="line.007.009" horiz-adv-x="350" /><glyph d="M85 31 435 52V88L85 67ZM85 17C102 17 117 32 117 49C117 66 102 81 85 81C68 81 53 66 53 49C53 32 68 17 85 17Z" glyph-name="line.007.010" horiz-adv-x="350" /><glyph d="M85 31 435 59V95L85 67ZM85 17C102 17 117 32 117 49C117 66 102 81 85 81C68 81 53 66 53 49C53 32 68 17 85 17Z" glyph-name="line.007.011" horiz-adv-x="350" /><glyph d="M85 31 435 66V102L85 67ZM85 17C102 17 117 32 117 49C117 66 102 81 85 81C68 81 53 66 53 49C53 32 68 17 85 17Z" glyph-name="line.007.012" horiz-adv-x="350" /><glyph d="M85 30 435 72V110L85 68ZM85 17C102 17 117 32 117 49C117 66 102 81 85 81C68 81 53 66 53 49C53 32 68 17 85 17Z" glyph-name="line.007.013" horiz-adv-x="350" /><glyph d="M85 30 435 79V117L85 68ZM85 17C102 17 117 32 117 49C117 66 102 81 85 81C68 81 53 66 53 49C53 32 68 17 85 17Z" glyph-name="line.007.014" horiz-adv-x="350" /><glyph d="M85 30 435 86V124L85 68ZM85 17C102 17 117 32 117 49C117 66 102 81 85 81C68 81 53 66 53 49C53 32 68 17 85 17Z" glyph-name="line.007.015" horiz-adv-x="350" /><glyph d="M85 30 435 93V131L85 68ZM85 17C102 17 117 32 117 49C117 66 102 81 85 81C68 81 53 66 53 49C53 32 68 17 85 17Z" glyph-name="line.007.016" horiz-adv-x="350" /><glyph d="M85 30 435 100V138L85 68ZM85 17C102 17 117 32 117 49C117 66 102 81 85 81C68 81 53 66 53 49C53 32 68 17 85 17Z" glyph-name="line.007.017" horiz-adv-x="350" /><glyph d="M85 30 435 107V145L85 68ZM85 17C102 17 117 32 117 49C117 66 102 81 85 81C68 81 53 66 53 49C53 32 68 17 85 17Z" glyph-name="line.007.018" horiz-adv-x="350" /><glyph d="M85 30 435 114V152L85 68ZM85 17C102 17 117 32 117 49C117 66 102 81 85 81C68 81 53 66 53 49C53 32 68 17 85 17Z" glyph-name="line.007.019" horiz-adv-x="350" /><glyph d="M85 30 435 121V159L85 68ZM85 17C102 17 117 32 117 49C117 66 102 81 85 81C68 81 53 66 53 49C53 32 68 17 85 17Z" glyph-name="line.007.020" horiz-adv-x="350" /><glyph d="M85 30 435 128V166L85 68ZM85 17C102 17 117 32 117 49C117 66 102 81 85 81C68 81 53 66 53 49C53 32 68 17 85 17Z" glyph-name="line.007.021" horiz-adv-x="350" /><glyph d="M85 30 435 135V173L85 68ZM85 17C102 17 117 32 117 49C117 66 102 81 85 81C68 81 53 66 53 49C53 32 68 17 85 17Z" glyph-name="line.007.022" horiz-adv-x="350" /><glyph d="M85 30 435 142V180L85 68ZM85 17C102 17 117 32 117 49C117 66 102 81 85 81C68 81 53 66 53 49C53 32 68 17 85 17Z" glyph-name="line.007.023" horiz-adv-x="350" /><glyph d="M85 30 435 149V187L85 68ZM85 17C102 17 117 32 117 49C117 66 102 81 85 81C68 81 53 66 53 49C53 32 68 17 85 17Z" glyph-name="line.007.024" horiz-adv-x="350" /><glyph d="M85 30 435 156V194L85 68ZM85 17C102 17 117 32 117 49C117 66 102 81 85 81C68 81 53 66 53 49C53 32 68 17 85 17Z" glyph-name="line.007.025" horiz-adv-x="350" /><glyph d="M85 29 435 162V202L85 69ZM85 17C102 17 117 32 117 49C117 66 102 81 85 81C68 81 53 66 53 49C53 32 68 17 85 17Z" glyph-name="line.007.026" horiz-adv-x="350" /><glyph d="M85 29 435 169V209L85 69ZM85 17C102 17 117 32 117 49C117 66 102 81 85 81C68 81 53 66 53 49C53 32 68 17 85 17Z" glyph-name="line.007.027" horiz-adv-x="350" /><glyph d="M85 29 435 176V216L85 69ZM85 17C102 17 117 32 117 49C117 66 102 81 85 81C68 81 53 66 53 49C53 32 68 17 85 17Z" glyph-name="line.007.028" horiz-adv-x="350" /><glyph d="M85 29 435 183V223L85 69ZM85 17C102 17 117 32 117 49C117 66 102 81 85 81C68 81 53 66 53 49C53 32 68 17 85 17Z" glyph-name="line.007.029" horiz-adv-x="350" /><glyph d="M85 29 435 190V230L85 69ZM85 17C102 17 117 32 117 49C117 66 102 81 85 81C68 81 53 66 53 49C53 32 68 17 85 17Z" glyph-name="line.007.030" horiz-adv-x="350" /><glyph d="M85 29 435 197V237L85 69ZM85 17C102 17 117 32 117 49C117 66 102 81 85 81C68 81 53 66 53 49C53 32 68 17 85 17Z" glyph-name="line.007.031" horiz-adv-x="350" /><glyph d="M85 29 435 204V244L85 69ZM85 17C102 17 117 32 117 49C117 66 102 81 85 81C68 81 53 66 53 49C53 32 68 17 85 17Z" glyph-name="line.007.032" horiz-adv-x="350" /><glyph d="M85 29 435 211V251L85 69ZM85 17C102 17 117 32 117 49C117 66 102 81 85 81C68 81 53 66 53 49C53 32 68 17 85 17Z" glyph-name="line.007.033" horiz-adv-x="350" /><glyph d="M85 28 435 217V259L85 70ZM85 17C102 17 117 32 117 49C117 66 102 81 85 81C68 81 53 66 53 49C53 32 68 17 85 17Z" glyph-name="line.007.034" horiz-adv-x="350" /><glyph d="M85 28 435 224V266L85 70ZM85 17C102 17 117 32 117 49C117 66 102 81 85 81C68 81 53 66 53 49C53 32 68 17 85 17Z" glyph-name="line.007.035" horiz-adv-x="350" /><glyph d="M85 28 435 231V273L85 70ZM85 17C102 17 117 32 117 49C117 66 102 81 85 81C68 81 53 66 53 49C53 32 68 17 85 17Z" glyph-name="line.007.036" horiz-adv-x="350" /><glyph d="M85 28 435 238V280L85 70ZM85 17C102 17 117 32 117 49C117 66 102 81 85 81C68 81 53 66 53 49C53 32 68 17 85 17Z" glyph-name="line.007.037" horiz-adv-x="350" /><glyph d="M85 28 435 245V287L85 70ZM85 17C102 17 117 32 117 49C117 66 102 81 85 81C68 81 53 66 53 49C53 32 68 17 85 17Z" glyph-name="line.007.038" horiz-adv-x="350" /><glyph d="M85 28 435 252V294L85 70ZM85 17C102 17 117 32 117 49C117 66 102 81 85 81C68 81 53 66 53 49C53 32 68 17 85 17Z" glyph-name="line.007.039" horiz-adv-x="350" /><glyph d="M85 27 435 258V302L85 71ZM85 17C102 17 117 32 117 49C117 66 102 81 85 81C68 81 53 66 53 49C53 32 68 17 85 17Z" glyph-name="line.007.040" horiz-adv-x="350" /><glyph d="M85 27 435 265V309L85 71ZM85 17C102 17 117 32 117 49C117 66 102 81 85 81C68 81 53 66 53 49C53 32 68 17 85 17Z" glyph-name="line.007.041" horiz-adv-x="350" /><glyph d="M85 27 435 272V316L85 71ZM85 17C102 17 117 32 117 49C117 66 102 81 85 81C68 81 53 66 53 49C53 32 68 17 85 17Z" glyph-name="line.007.042" horiz-adv-x="350" /><glyph d="M85 27 435 279V323L85 71ZM85 17C102 17 117 32 117 49C117 66 102 81 85 81C68 81 53 66 53 49C53 32 68 17 85 17Z" glyph-name="line.007.043" horiz-adv-x="350" /><glyph d="M85 26 435 285V331L85 72ZM85 17C102 17 117 32 117 49C117 66 102 81 85 81C68 81 53 66 53 49C53 32 68 17 85 17Z" glyph-name="line.007.044" horiz-adv-x="350" /><glyph d="M85 26 435 292V338L85 72ZM85 17C102 17 117 32 117 49C117 66 102 81 85 81C68 81 53 66 53 49C53 32 68 17 85 17Z" glyph-name="line.007.045" horiz-adv-x="350" /><glyph d="M85 26 435 299V345L85 72ZM85 17C102 17 117 32 117 49C117 66 102 81 85 81C68 81 53 66 53 49C53 32 68 17 85 17Z" glyph-name="line.007.046" horiz-adv-x="350" /><glyph d="M85 26 435 306V352L85 72ZM85 17C102 17 117 32 117 49C117 66 102 81 85 81C68 81 53 66 53 49C53 32 68 17 85 17Z" glyph-name="line.007.047" horiz-adv-x="350" /><glyph d="M85 26 435 313V359L85 72ZM85 17C102 17 117 32 117 49C117 66 102 81 85 81C68 81 53 66 53 49C53 32 68 17 85 17Z" glyph-name="line.007.048" horiz-adv-x="350" /><glyph d="M85 25 435 319V367L85 73ZM85 17C102 17 117 32 117 49C117 66 102 81 85 81C68 81 53 66 53 49C53 32 68 17 85 17Z" glyph-name="line.007.049" horiz-adv-x="350" /><glyph d="M85 25 435 326V374L85 73ZM85 17C102 17 117 32 117 49C117 66 102 81 85 81C68 81 53 66 53 49C53 32 68 17 85 17Z" glyph-name="line.007.050" horiz-adv-x="350" /><glyph d="M85 25 435 333V381L85 73ZM85 17C102 17 117 32 117 49C117 66 102 81 85 81C68 81 53 66 53 49C53 32 68 17 85 17Z" glyph-name="line.007.051" horiz-adv-x="350" /><glyph d="M85 25 435 340V388L85 73ZM85 17C102 17 117 32 117 49C117 66 102 81 85 81C68 81 53 66 53 49C53 32 68 17 85 17Z" glyph-name="line.007.052" horiz-adv-x="350" /><glyph d="M85 24 435 346V396L85 74ZM85 17C102 17 117 32 117 49C117 66 102 81 85 81C68 81 53 66 53 49C53 32 68 17 85 17Z" glyph-name="line.007.053" horiz-adv-x="350" /><glyph d="M85 24 435 353V403L85 74ZM85 17C102 17 117 32 117 49C117 66 102 81 85 81C68 81 53 66 53 49C53 32 68 17 85 17Z" glyph-name="line.007.054" horiz-adv-x="350" /><glyph d="M85 24 435 360V410L85 74ZM85 17C102 17 117 32 117 49C117 66 102 81 85 81C68 81 53 66 53 49C53 32 68 17 85 17Z" glyph-name="line.007.055" horiz-adv-x="350" /><glyph d="M85 24 435 367V417L85 74ZM85 17C102 17 117 32 117 49C117 66 102 81 85 81C68 81 53 66 53 49C53 32 68 17 85 17Z" glyph-name="line.007.056" horiz-adv-x="350" /><glyph d="M85 24 435 374V424L85 74ZM85 17C102 17 117 32 117 49C117 66 102 81 85 81C68 81 53 66 53 49C53 32 68 17 85 17Z" glyph-name="line.007.057" horiz-adv-x="350" /><glyph d="M85 24 435 381V431L85 74ZM85 17C102 17 117 32 117 49C117 66 102 81 85 81C68 81 53 66 53 49C53 32 68 17 85 17Z" glyph-name="line.007.058" horiz-adv-x="350" /><glyph d="M85 24 435 388V438L85 74ZM85 17C102 17 117 32 117 49C117 66 102 81 85 81C68 81 53 66 53 49C53 32 68 17 85 17Z" glyph-name="line.007.059" horiz-adv-x="350" /><glyph d="M85 23 435 394V446L85 75ZM85 17C102 17 117 32 117 49C117 66 102 81 85 81C68 81 53 66 53 49C53 32 68 17 85 17Z" glyph-name="line.007.060" horiz-adv-x="350" /><glyph d="M85 22 435 400V454L85 76ZM85 17C102 17 117 32 117 49C117 66 102 81 85 81C68 81 53 66 53 49C53 32 68 17 85 17Z" glyph-name="line.007.061" horiz-adv-x="350" /><glyph d="M85 21 435 406V462L85 77ZM85 17C102 17 117 32 117 49C117 66 102 81 85 81C68 81 53 66 53 49C53 32 68 17 85 17Z" glyph-name="line.007.062" horiz-adv-x="350" /><glyph d="M85 20 435 412V470L85 78ZM85 17C102 17 117 32 117 49C117 66 102 81 85 81C68 81 53 66 53 49C53 32 68 17 85 17Z" glyph-name="line.007.063" horiz-adv-x="350" /><glyph d="M85 20 435 419V477L85 78ZM85 17C102 17 117 32 117 49C117 66 102 81 85 81C68 81 53 66 53 49C53 32 68 17 85 17Z" glyph-name="line.007.064" horiz-adv-x="350" /><glyph d="M85 19 435 425V485L85 79ZM85 17C102 17 117 32 117 49C117 66 102 81 85 81C68 81 53 66 53 49C53 32 68 17 85 17Z" glyph-name="line.007.065" horiz-adv-x="350" /><glyph d="M85 19 435 432V492L85 79ZM85 17C102 17 117 32 117 49C117 66 102 81 85 81C68 81 53 66 53 49C53 32 68 17 85 17Z" glyph-name="line.007.066" horiz-adv-x="350" /><glyph d="M85 19 435 439V499L85 79ZM85 17C102 17 117 32 117 49C117 66 102 81 85 81C68 81 53 66 53 49C53 32 68 17 85 17Z" glyph-name="line.007.067" horiz-adv-x="350" /><glyph d="M85 19 435 446V506L85 79ZM85 17C102 17 117 32 117 49C117 66 102 81 85 81C68 81 53 66 53 49C53 32 68 17 85 17Z" glyph-name="line.007.068" horiz-adv-x="350" /><glyph d="M85 18 435 452V514L85 80ZM85 17C102 17 117 32 117 49C117 66 102 81 85 81C68 81 53 66 53 49C53 32 68 17 85 17Z" glyph-name="line.007.069" horiz-adv-x="350" /><glyph d="M85 18 435 459V521L85 80ZM85 17C102 17 117 32 117 49C117 66 102 81 85 81C68 81 53 66 53 49C53 32 68 17 85 17Z" glyph-name="line.007.070" horiz-adv-x="350" /><glyph d="M85 18 435 466V528L85 80ZM85 17C102 17 117 32 117 49C117 66 102 81 85 81C68 81 53 66 53 49C53 32 68 17 85 17Z" glyph-name="line.007.071" horiz-adv-x="350" /><glyph d="M85 18 435 473V535L85 80ZM85 17C102 17 117 32 117 49C117 66 102 81 85 81C68 81 53 66 53 49C53 32 68 17 85 17Z" glyph-name="line.007.072" horiz-adv-x="350" /><glyph d="M85 18 435 480V542L85 80ZM85 17C102 17 117 32 117 49C117 66 102 81 85 81C68 81 53 66 53 49C53 32 68 17 85 17Z" glyph-name="line.007.073" horiz-adv-x="350" /><glyph d="M85 17 435 486V550L85 81ZM85 17C102 17 117 32 117 49C117 66 102 81 85 81C68 81 53 66 53 49C53 32 68 17 85 17Z" glyph-name="line.007.074" horiz-adv-x="350" /><glyph d="M85 17 435 493V557L85 81ZM85 17C102 17 117 32 117 49C117 66 102 81 85 81C68 81 53 66 53 49C53 32 68 17 85 17Z" glyph-name="line.007.075" horiz-adv-x="350" /><glyph d="M109 49 459 532H411L61 49ZM85 17C102 17 117 32 117 49C117 66 102 81 85 81C68 81 53 66 53 49C53 32 68 17 85 17Z" glyph-name="line.007.076" horiz-adv-x="350" /><glyph d="M108 49 458 539H412L62 49ZM85 17C102 17 117 32 117 49C117 66 102 81 85 81C68 81 53 66 53 49C53 32 68 17 85 17Z" glyph-name="line.007.077" horiz-adv-x="350" /><glyph d="M108 49 458 546H412L62 49ZM85 17C102 17 117 32 117 49C117 66 102 81 85 81C68 81 53 66 53 49C53 32 68 17 85 17Z" glyph-name="line.007.078" horiz-adv-x="350" /><glyph d="M108 49 458 553H412L62 49ZM85 17C102 17 117 32 117 49C117 66 102 81 85 81C68 81 53 66 53 49C53 32 68 17 85 17Z" glyph-name="line.007.079" horiz-adv-x="350" /><glyph d="M108 49 458 560H412L62 49ZM85 17C102 17 117 32 117 49C117 66 102 81 85 81C68 81 53 66 53 49C53 32 68 17 85 17Z" glyph-name="line.007.080" horiz-adv-x="350" /><glyph d="M108 49 458 567H412L62 49ZM85 17C102 17 117 32 117 49C117 66 102 81 85 81C68 81 53 66 53 49C53 32 68 17 85 17Z" glyph-name="line.007.081" horiz-adv-x="350" /><glyph d="M108 49 458 574H412L62 49ZM85 17C102 17 117 32 117 49C117 66 102 81 85 81C68 81 53 66 53 49C53 32 68 17 85 17Z" glyph-name="line.007.082" horiz-adv-x="350" /><glyph d="M108 49 458 581H412L62 49ZM85 17C102 17 117 32 117 49C117 66 102 81 85 81C68 81 53 66 53 49C53 32 68 17 85 17Z" glyph-name="line.007.083" horiz-adv-x="350" /><glyph d="M108 49 458 588H412L62 49ZM85 17C102 17 117 32 117 49C117 66 102 81 85 81C68 81 53 66 53 49C53 32 68 17 85 17Z" glyph-name="line.007.084" horiz-adv-x="350" /><glyph d="M108 49 458 595H412L62 49ZM85 17C102 17 117 32 117 49C117 66 102 81 85 81C68 81 53 66 53 49C53 32 68 17 85 17Z" glyph-name="line.007.085" horiz-adv-x="350" /><glyph d="M108 49 458 602H412L62 49ZM85 17C102 17 117 32 117 49C117 66 102 81 85 81C68 81 53 66 53 49C53 32 68 17 85 17Z" glyph-name="line.007.086" horiz-adv-x="350" /><glyph d="M108 49 458 609H412L62 49ZM85 17C102 17 117 32 117 49C117 66 102 81 85 81C68 81 53 66 53 49C53 32 68 17 85 17Z" glyph-name="line.007.087" horiz-adv-x="350" /><glyph d="M108 49 458 616H412L62 49ZM85 17C102 17 117 32 117 49C117 66 102 81 85 81C68 81 53 66 53 49C53 32 68 17 85 17Z" glyph-name="line.007.088" horiz-adv-x="350" /><glyph d="M108 49 458 623H412L62 49ZM85 17C102 17 117 32 117 49C117 66 102 81 85 81C68 81 53 66 53 49C53 32 68 17 85 17Z" glyph-name="line.007.089" horiz-adv-x="350" /><glyph d="M108 49 458 630H412L62 49ZM85 17C102 17 117 32 117 49C117 66 102 81 85 81C68 81 53 66 53 49C53 32 68 17 85 17Z" glyph-name="line.007.090" horiz-adv-x="350" /><glyph d="M108 49 458 637H412L62 49ZM85 17C102 17 117 32 117 49C117 66 102 81 85 81C68 81 53 66 53 49C53 32 68 17 85 17Z" glyph-name="line.007.091" horiz-adv-x="350" /><glyph d="M108 49 458 644H412L62 49ZM85 17C102 17 117 32 117 49C117 66 102 81 85 81C68 81 53 66 53 49C53 32 68 17 85 17Z" glyph-name="line.007.092" horiz-adv-x="350" /><glyph d="M108 49 458 651H412L62 49ZM85 17C102 17 117 32 117 49C117 66 102 81 85 81C68 81 53 66 53 49C53 32 68 17 85 17Z" glyph-name="line.007.093" horiz-adv-x="350" /><glyph d="M108 49 458 658H412L62 49ZM85 17C102 17 117 32 117 49C117 66 102 81 85 81C68 81 53 66 53 49C53 32 68 17 85 17Z" glyph-name="line.007.094" horiz-adv-x="350" /><glyph d="M108 49 458 665H412L62 49ZM85 17C102 17 117 32 117 49C117 66 102 81 85 81C68 81 53 66 53 49C53 32 68 17 85 17Z" glyph-name="line.007.095" horiz-adv-x="350" /><glyph d="M108 49 458 672H412L62 49ZM85 17C102 17 117 32 117 49C117 66 102 81 85 81C68 81 53 66 53 49C53 32 68 17 85 17Z" glyph-name="line.007.096" horiz-adv-x="350" /><glyph d="M108 49 458 679H412L62 49ZM85 17C102 17 117 32 117 49C117 66 102 81 85 81C68 81 53 66 53 49C53 32 68 17 85 17Z" glyph-name="line.007.097" horiz-adv-x="350" /><glyph d="M107 49 457 686H413L63 49ZM85 17C102 17 117 32 117 49C117 66 102 81 85 81C68 81 53 66 53 49C53 32 68 17 85 17Z" glyph-name="line.007.098" horiz-adv-x="350" /><glyph d="M107 49 457 693H413L63 49ZM85 17C102 17 117 32 117 49C117 66 102 81 85 81C68 81 53 66 53 49C53 32 68 17 85 17Z" glyph-name="line.007.099" horiz-adv-x="350" /><glyph d="M107 49 457 700H413L63 49ZM85 17C102 17 117 32 117 49C117 66 102 81 85 81C68 81 53 66 53 49C53 32 68 17 85 17Z" glyph-name="line.007.100" horiz-adv-x="350" /><glyph d="M85 75 435 19V-19L85 37ZM85 88C102 88 117 73 117 56C117 39 102 24 85 24C68 24 53 39 53 56C53 73 68 88 85 88Z" glyph-name="line.008.000" horiz-adv-x="350" /><glyph d="M85 75 435 26V-12L85 37ZM85 88C102 88 117 73 117 56C117 39 102 24 85 24C68 24 53 39 53 56C53 73 68 88 85 88Z" glyph-name="line.008.001" horiz-adv-x="350" /><glyph d="M85 75 435 33V-5L85 37ZM85 88C102 88 117 73 117 56C117 39 102 24 85 24C68 24 53 39 53 56C53 73 68 88 85 88Z" glyph-name="line.008.002" horiz-adv-x="350" /><glyph d="M85 74 435 39V3L85 38ZM85 88C102 88 117 73 117 56C117 39 102 24 85 24C68 24 53 39 53 56C53 73 68 88 85 88Z" glyph-name="line.008.003" horiz-adv-x="350" /><glyph d="M85 74 435 46V10L85 38ZM85 88C102 88 117 73 117 56C117 39 102 24 85 24C68 24 53 39 53 56C53 73 68 88 85 88Z" glyph-name="line.008.004" horiz-adv-x="350" /><glyph d="M85 74 435 53V17L85 38ZM85 88C102 88 117 73 117 56C117 39 102 24 85 24C68 24 53 39 53 56C53 73 68 88 85 88Z" glyph-name="line.008.005" horiz-adv-x="350" /><glyph d="M85 74 435 60V24L85 38ZM85 88C102 88 117 73 117 56C117 39 102 24 85 24C68 24 53 39 53 56C53 73 68 88 85 88Z" glyph-name="line.008.006" horiz-adv-x="350" /><glyph d="M85 74 435 67V31L85 38ZM85 88C102 88 117 73 117 56C117 39 102 24 85 24C68 24 53 39 53 56C53 73 68 88 85 88Z" glyph-name="line.008.007" horiz-adv-x="350" /><glyph d="M85 38H435V74H85ZM85 24C102 24 117 39 117 56C117 73 102 88 85 88C68 88 53 73 53 56C53 39 68 24 85 24Z" glyph-name="line.008.008" horiz-adv-x="350" /><glyph d="M85 38 435 45V81L85 74ZM85 24C102 24 117 39 117 56C117 73 102 88 85 88C68 88 53 73 53 56C53 39 68 24 85 24Z" glyph-name="line.008.009" horiz-adv-x="350" /><glyph d="M85 38 435 52V88L85 74ZM85 24C102 24 117 39 117 56C117 73 102 88 85 88C68 88 53 73 53 56C53 39 68 24 85 24Z" glyph-name="line.008.010" horiz-adv-x="350" /><glyph d="M85 38 435 59V95L85 74ZM85 24C102 24 117 39 117 56C117 73 102 88 85 88C68 88 53 73 53 56C53 39 68 24 85 24Z" glyph-name="line.008.011" horiz-adv-x="350" /><glyph d="M85 38 435 66V102L85 74ZM85 24C102 24 117 39 117 56C117 73 102 88 85 88C68 88 53 73 53 56C53 39 68 24 85 24Z" glyph-name="line.008.012" horiz-adv-x="350" /><glyph d="M85 38 435 73V109L85 74ZM85 24C102 24 117 39 117 56C117 73 102 88 85 88C68 88 53 73 53 56C53 39 68 24 85 24Z" glyph-name="line.008.013" horiz-adv-x="350" /><glyph d="M85 37 435 79V117L85 75ZM85 24C102 24 117 39 117 56C117 73 102 88 85 88C68 88 53 73 53 56C53 39 68 24 85 24Z" glyph-name="line.008.014" horiz-adv-x="350" /><glyph d="M85 37 435 86V124L85 75ZM85 24C102 24 117 39 117 56C117 73 102 88 85 88C68 88 53 73 53 56C53 39 68 24 85 24Z" glyph-name="line.008.015" horiz-adv-x="350" /><glyph d="M85 37 435 93V131L85 75ZM85 24C102 24 117 39 117 56C117 73 102 88 85 88C68 88 53 73 53 56C53 39 68 24 85 24Z" glyph-name="line.008.016" horiz-adv-x="350" /><glyph d="M85 37 435 100V138L85 75ZM85 24C102 24 117 39 117 56C117 73 102 88 85 88C68 88 53 73 53 56C53 39 68 24 85 24Z" glyph-name="line.008.017" horiz-adv-x="350" /><glyph d="M85 37 435 107V145L85 75ZM85 24C102 24 117 39 117 56C117 73 102 88 85 88C68 88 53 73 53 56C53 39 68 24 85 24Z" glyph-name="line.008.018" horiz-adv-x="350" /><glyph d="M85 37 435 114V152L85 75ZM85 24C102 24 117 39 117 56C117 73 102 88 85 88C68 88 53 73 53 56C53 39 68 24 85 24Z" glyph-name="line.008.019" horiz-adv-x="350" /><glyph d="M85 37 435 121V159L85 75ZM85 24C102 24 117 39 117 56C117 73 102 88 85 88C68 88 53 73 53 56C53 39 68 24 85 24Z" glyph-name="line.008.020" horiz-adv-x="350" /><glyph d="M85 37 435 128V166L85 75ZM85 24C102 24 117 39 117 56C117 73 102 88 85 88C68 88 53 73 53 56C53 39 68 24 85 24Z" glyph-name="line.008.021" horiz-adv-x="350" /><glyph d="M85 37 435 135V173L85 75ZM85 24C102 24 117 39 117 56C117 73 102 88 85 88C68 88 53 73 53 56C53 39 68 24 85 24Z" glyph-name="line.008.022" horiz-adv-x="350" /><glyph d="M85 37 435 142V180L85 75ZM85 24C102 24 117 39 117 56C117 73 102 88 85 88C68 88 53 73 53 56C53 39 68 24 85 24Z" glyph-name="line.008.023" horiz-adv-x="350" /><glyph d="M85 37 435 149V187L85 75ZM85 24C102 24 117 39 117 56C117 73 102 88 85 88C68 88 53 73 53 56C53 39 68 24 85 24Z" glyph-name="line.008.024" horiz-adv-x="350" /><glyph d="M85 37 435 156V194L85 75ZM85 24C102 24 117 39 117 56C117 73 102 88 85 88C68 88 53 73 53 56C53 39 68 24 85 24Z" glyph-name="line.008.025" horiz-adv-x="350" /><glyph d="M85 37 435 163V201L85 75ZM85 24C102 24 117 39 117 56C117 73 102 88 85 88C68 88 53 73 53 56C53 39 68 24 85 24Z" glyph-name="line.008.026" horiz-adv-x="350" /><glyph d="M85 36 435 169V209L85 76ZM85 24C102 24 117 39 117 56C117 73 102 88 85 88C68 88 53 73 53 56C53 39 68 24 85 24Z" glyph-name="line.008.027" horiz-adv-x="350" /><glyph d="M85 36 435 176V216L85 76ZM85 24C102 24 117 39 117 56C117 73 102 88 85 88C68 88 53 73 53 56C53 39 68 24 85 24Z" glyph-name="line.008.028" horiz-adv-x="350" /><glyph d="M85 36 435 183V223L85 76ZM85 24C102 24 117 39 117 56C117 73 102 88 85 88C68 88 53 73 53 56C53 39 68 24 85 24Z" glyph-name="line.008.029" horiz-adv-x="350" /><glyph d="M85 36 435 190V230L85 76ZM85 24C102 24 117 39 117 56C117 73 102 88 85 88C68 88 53 73 53 56C53 39 68 24 85 24Z" glyph-name="line.008.030" horiz-adv-x="350" /><glyph d="M85 36 435 197V237L85 76ZM85 24C102 24 117 39 117 56C117 73 102 88 85 88C68 88 53 73 53 56C53 39 68 24 85 24Z" glyph-name="line.008.031" horiz-adv-x="350" /><glyph d="M85 36 435 204V244L85 76ZM85 24C102 24 117 39 117 56C117 73 102 88 85 88C68 88 53 73 53 56C53 39 68 24 85 24Z" glyph-name="line.008.032" horiz-adv-x="350" /><glyph d="M85 36 435 211V251L85 76ZM85 24C102 24 117 39 117 56C117 73 102 88 85 88C68 88 53 73 53 56C53 39 68 24 85 24Z" glyph-name="line.008.033" horiz-adv-x="350" /><glyph d="M85 36 435 218V258L85 76ZM85 24C102 24 117 39 117 56C117 73 102 88 85 88C68 88 53 73 53 56C53 39 68 24 85 24Z" glyph-name="line.008.034" horiz-adv-x="350" /><glyph d="M85 35 435 224V266L85 77ZM85 24C102 24 117 39 117 56C117 73 102 88 85 88C68 88 53 73 53 56C53 39 68 24 85 24Z" glyph-name="line.008.035" horiz-adv-x="350" /><glyph d="M85 35 435 231V273L85 77ZM85 24C102 24 117 39 117 56C117 73 102 88 85 88C68 88 53 73 53 56C53 39 68 24 85 24Z" glyph-name="line.008.036" horiz-adv-x="350" /><glyph d="M85 35 435 238V280L85 77ZM85 24C102 24 117 39 117 56C117 73 102 88 85 88C68 88 53 73 53 56C53 39 68 24 85 24Z" glyph-name="line.008.037" horiz-adv-x="350" /><glyph d="M85 35 435 245V287L85 77ZM85 24C102 24 117 39 117 56C117 73 102 88 85 88C68 88 53 73 53 56C53 39 68 24 85 24Z" glyph-name="line.008.038" horiz-adv-x="350" /><glyph d="M85 35 435 252V294L85 77ZM85 24C102 24 117 39 117 56C117 73 102 88 85 88C68 88 53 73 53 56C53 39 68 24 85 24Z" glyph-name="line.008.039" horiz-adv-x="350" /><glyph d="M85 35 435 259V301L85 77ZM85 24C102 24 117 39 117 56C117 73 102 88 85 88C68 88 53 73 53 56C53 39 68 24 85 24Z" glyph-name="line.008.040" horiz-adv-x="350" /><glyph d="M85 34 435 265V309L85 78ZM85 24C102 24 117 39 117 56C117 73 102 88 85 88C68 88 53 73 53 56C53 39 68 24 85 24Z" glyph-name="line.008.041" horiz-adv-x="350" /><glyph d="M85 34 435 272V316L85 78ZM85 24C102 24 117 39 117 56C117 73 102 88 85 88C68 88 53 73 53 56C53 39 68 24 85 24Z" glyph-name="line.008.042" horiz-adv-x="350" /><glyph d="M85 34 435 279V323L85 78ZM85 24C102 24 117 39 117 56C117 73 102 88 85 88C68 88 53 73 53 56C53 39 68 24 85 24Z" glyph-name="line.008.043" horiz-adv-x="350" /><glyph d="M85 34 435 286V330L85 78ZM85 24C102 24 117 39 117 56C117 73 102 88 85 88C68 88 53 73 53 56C53 39 68 24 85 24Z" glyph-name="line.008.044" horiz-adv-x="350" /><glyph d="M85 33 435 292V338L85 79ZM85 24C102 24 117 39 117 56C117 73 102 88 85 88C68 88 53 73 53 56C53 39 68 24 85 24Z" glyph-name="line.008.045" horiz-adv-x="350" /><glyph d="M85 33 435 299V345L85 79ZM85 24C102 24 117 39 117 56C117 73 102 88 85 88C68 88 53 73 53 56C53 39 68 24 85 24Z" glyph-name="line.008.046" horiz-adv-x="350" /><glyph d="M85 33 435 306V352L85 79ZM85 24C102 24 117 39 117 56C117 73 102 88 85 88C68 88 53 73 53 56C53 39 68 24 85 24Z" glyph-name="line.008.047" horiz-adv-x="350" /><glyph d="M85 33 435 313V359L85 79ZM85 24C102 24 117 39 117 56C117 73 102 88 85 88C68 88 53 73 53 56C53 39 68 24 85 24Z" glyph-name="line.008.048" horiz-adv-x="350" /><glyph d="M85 33 435 320V366L85 79ZM85 24C102 24 117 39 117 56C117 73 102 88 85 88C68 88 53 73 53 56C53 39 68 24 85 24Z" glyph-name="line.008.049" horiz-adv-x="350" /><glyph d="M85 32 435 326V374L85 80ZM85 24C102 24 117 39 117 56C117 73 102 88 85 88C68 88 53 73 53 56C53 39 68 24 85 24Z" glyph-name="line.008.050" horiz-adv-x="350" /><glyph d="M85 32 435 333V381L85 80ZM85 24C102 24 117 39 117 56C117 73 102 88 85 88C68 88 53 73 53 56C53 39 68 24 85 24Z" glyph-name="line.008.051" horiz-adv-x="350" /><glyph d="M85 32 435 340V388L85 80ZM85 24C102 24 117 39 117 56C117 73 102 88 85 88C68 88 53 73 53 56C53 39 68 24 85 24Z" glyph-name="line.008.052" horiz-adv-x="350" /><glyph d="M85 32 435 347V395L85 80ZM85 24C102 24 117 39 117 56C117 73 102 88 85 88C68 88 53 73 53 56C53 39 68 24 85 24Z" glyph-name="line.008.053" horiz-adv-x="350" /><glyph d="M85 31 435 353V403L85 81ZM85 24C102 24 117 39 117 56C117 73 102 88 85 88C68 88 53 73 53 56C53 39 68 24 85 24Z" glyph-name="line.008.054" horiz-adv-x="350" /><glyph d="M85 31 435 360V410L85 81ZM85 24C102 24 117 39 117 56C117 73 102 88 85 88C68 88 53 73 53 56C53 39 68 24 85 24Z" glyph-name="line.008.055" horiz-adv-x="350" /><glyph d="M85 31 435 367V417L85 81ZM85 24C102 24 117 39 117 56C117 73 102 88 85 88C68 88 53 73 53 56C53 39 68 24 85 24Z" glyph-name="line.008.056" horiz-adv-x="350" /><glyph d="M85 31 435 374V424L85 81ZM85 24C102 24 117 39 117 56C117 73 102 88 85 88C68 88 53 73 53 56C53 39 68 24 85 24Z" glyph-name="line.008.057" horiz-adv-x="350" /><glyph d="M85 31 435 381V431L85 81ZM85 24C102 24 117 39 117 56C117 73 102 88 85 88C68 88 53 73 53 56C53 39 68 24 85 24Z" glyph-name="line.008.058" horiz-adv-x="350" /><glyph d="M85 31 435 388V438L85 81ZM85 24C102 24 117 39 117 56C117 73 102 88 85 88C68 88 53 73 53 56C53 39 68 24 85 24Z" glyph-name="line.008.059" horiz-adv-x="350" /><glyph d="M85 31 435 395V445L85 81ZM85 24C102 24 117 39 117 56C117 73 102 88 85 88C68 88 53 73 53 56C53 39 68 24 85 24Z" glyph-name="line.008.060" horiz-adv-x="350" /><glyph d="M85 30 435 401V453L85 82ZM85 24C102 24 117 39 117 56C117 73 102 88 85 88C68 88 53 73 53 56C53 39 68 24 85 24Z" glyph-name="line.008.061" horiz-adv-x="350" /><glyph d="M85 29 435 407V461L85 83ZM85 24C102 24 117 39 117 56C117 73 102 88 85 88C68 88 53 73 53 56C53 39 68 24 85 24Z" glyph-name="line.008.062" horiz-adv-x="350" /><glyph d="M85 28 435 413V469L85 84ZM85 24C102 24 117 39 117 56C117 73 102 88 85 88C68 88 53 73 53 56C53 39 68 24 85 24Z" glyph-name="line.008.063" horiz-adv-x="350" /><glyph d="M85 27 435 419V477L85 85ZM85 24C102 24 117 39 117 56C117 73 102 88 85 88C68 88 53 73 53 56C53 39 68 24 85 24Z" glyph-name="line.008.064" horiz-adv-x="350" /><glyph d="M85 27 435 426V484L85 85ZM85 24C102 24 117 39 117 56C117 73 102 88 85 88C68 88 53 73 53 56C53 39 68 24 85 24Z" glyph-name="line.008.065" horiz-adv-x="350" /><glyph d="M85 26 435 432V492L85 86ZM85 24C102 24 117 39 117 56C117 73 102 88 85 88C68 88 53 73 53 56C53 39 68 24 85 24Z" glyph-name="line.008.066" horiz-adv-x="350" /><glyph d="M85 26 435 439V499L85 86ZM85 24C102 24 117 39 117 56C117 73 102 88 85 88C68 88 53 73 53 56C53 39 68 24 85 24Z" glyph-name="line.008.067" horiz-adv-x="350" /><glyph d="M85 26 435 446V506L85 86ZM85 24C102 24 117 39 117 56C117 73 102 88 85 88C68 88 53 73 53 56C53 39 68 24 85 24Z" glyph-name="line.008.068" horiz-adv-x="350" /><glyph d="M85 26 435 453V513L85 86ZM85 24C102 24 117 39 117 56C117 73 102 88 85 88C68 88 53 73 53 56C53 39 68 24 85 24Z" glyph-name="line.008.069" horiz-adv-x="350" /><glyph d="M85 25 435 459V521L85 87ZM85 24C102 24 117 39 117 56C117 73 102 88 85 88C68 88 53 73 53 56C53 39 68 24 85 24Z" glyph-name="line.008.070" horiz-adv-x="350" /><glyph d="M85 25 435 466V528L85 87ZM85 24C102 24 117 39 117 56C117 73 102 88 85 88C68 88 53 73 53 56C53 39 68 24 85 24Z" glyph-name="line.008.071" horiz-adv-x="350" /><glyph d="M85 25 435 473V535L85 87ZM85 24C102 24 117 39 117 56C117 73 102 88 85 88C68 88 53 73 53 56C53 39 68 24 85 24Z" glyph-name="line.008.072" horiz-adv-x="350" /><glyph d="M85 25 435 480V542L85 87ZM85 24C102 24 117 39 117 56C117 73 102 88 85 88C68 88 53 73 53 56C53 39 68 24 85 24Z" glyph-name="line.008.073" horiz-adv-x="350" /><glyph d="M85 25 435 487V549L85 87ZM85 24C102 24 117 39 117 56C117 73 102 88 85 88C68 88 53 73 53 56C53 39 68 24 85 24Z" glyph-name="line.008.074" horiz-adv-x="350" /><glyph d="M85 24 435 493V557L85 88ZM85 24C102 24 117 39 117 56C117 73 102 88 85 88C68 88 53 73 53 56C53 39 68 24 85 24Z" glyph-name="line.008.075" horiz-adv-x="350" /><glyph d="M85 24 435 500V564L85 88ZM85 24C102 24 117 39 117 56C117 73 102 88 85 88C68 88 53 73 53 56C53 39 68 24 85 24Z" glyph-name="line.008.076" horiz-adv-x="350" /><glyph d="M109 56 459 539H411L61 56ZM85 24C102 24 117 39 117 56C117 73 102 88 85 88C68 88 53 73 53 56C53 39 68 24 85 24Z" glyph-name="line.008.077" horiz-adv-x="350" /><glyph d="M108 56 458 546H412L62 56ZM85 24C102 24 117 39 117 56C117 73 102 88 85 88C68 88 53 73 53 56C53 39 68 24 85 24Z" glyph-name="line.008.078" horiz-adv-x="350" /><glyph d="M108 56 458 553H412L62 56ZM85 24C102 24 117 39 117 56C117 73 102 88 85 88C68 88 53 73 53 56C53 39 68 24 85 24Z" glyph-name="line.008.079" horiz-adv-x="350" /><glyph d="M108 56 458 560H412L62 56ZM85 24C102 24 117 39 117 56C117 73 102 88 85 88C68 88 53 73 53 56C53 39 68 24 85 24Z" glyph-name="line.008.080" horiz-adv-x="350" /><glyph d="M108 56 458 567H412L62 56ZM85 24C102 24 117 39 117 56C117 73 102 88 85 88C68 88 53 73 53 56C53 39 68 24 85 24Z" glyph-name="line.008.081" horiz-adv-x="350" /><glyph d="M108 56 458 574H412L62 56ZM85 24C102 24 117 39 117 56C117 73 102 88 85 88C68 88 53 73 53 56C53 39 68 24 85 24Z" glyph-name="line.008.082" horiz-adv-x="350" /><glyph d="M108 56 458 581H412L62 56ZM85 24C102 24 117 39 117 56C117 73 102 88 85 88C68 88 53 73 53 56C53 39 68 24 85 24Z" glyph-name="line.008.083" horiz-adv-x="350" /><glyph d="M108 56 458 588H412L62 56ZM85 24C102 24 117 39 117 56C117 73 102 88 85 88C68 88 53 73 53 56C53 39 68 24 85 24Z" glyph-name="line.008.084" horiz-adv-x="350" /><glyph d="M108 56 458 595H412L62 56ZM85 24C102 24 117 39 117 56C117 73 102 88 85 88C68 88 53 73 53 56C53 39 68 24 85 24Z" glyph-name="line.008.085" horiz-adv-x="350" /><glyph d="M108 56 458 602H412L62 56ZM85 24C102 24 117 39 117 56C117 73 102 88 85 88C68 88 53 73 53 56C53 39 68 24 85 24Z" glyph-name="line.008.086" horiz-adv-x="350" /><glyph d="M108 56 458 609H412L62 56ZM85 24C102 24 117 39 117 56C117 73 102 88 85 88C68 88 53 73 53 56C53 39 68 24 85 24Z" glyph-name="line.008.087" horiz-adv-x="350" /><glyph d="M108 56 458 616H412L62 56ZM85 24C102 24 117 39 117 56C117 73 102 88 85 88C68 88 53 73 53 56C53 39 68 24 85 24Z" glyph-name="line.008.088" horiz-adv-x="350" /><glyph d="M108 56 458 623H412L62 56ZM85 24C102 24 117 39 117 56C117 73 102 88 85 88C68 88 53 73 53 56C53 39 68 24 85 24Z" glyph-name="line.008.089" horiz-adv-x="350" /><glyph d="M108 56 458 630H412L62 56ZM85 24C102 24 117 39 117 56C117 73 102 88 85 88C68 88 53 73 53 56C53 39 68 24 85 24Z" glyph-name="line.008.090" horiz-adv-x="350" /><glyph d="M108 56 458 637H412L62 56ZM85 24C102 24 117 39 117 56C117 73 102 88 85 88C68 88 53 73 53 56C53 39 68 24 85 24Z" glyph-name="line.008.091" horiz-adv-x="350" /><glyph d="M108 56 458 644H412L62 56ZM85 24C102 24 117 39 117 56C117 73 102 88 85 88C68 88 53 73 53 56C53 39 68 24 85 24Z" glyph-name="line.008.092" horiz-adv-x="350" /><glyph d="M108 56 458 651H412L62 56ZM85 24C102 24 117 39 117 56C117 73 102 88 85 88C68 88 53 73 53 56C53 39 68 24 85 24Z" glyph-name="line.008.093" horiz-adv-x="350" /><glyph d="M108 56 458 658H412L62 56ZM85 24C102 24 117 39 117 56C117 73 102 88 85 88C68 88 53 73 53 56C53 39 68 24 85 24Z" glyph-name="line.008.094" horiz-adv-x="350" /><glyph d="M108 56 458 665H412L62 56ZM85 24C102 24 117 39 117 56C117 73 102 88 85 88C68 88 53 73 53 56C53 39 68 24 85 24Z" glyph-name="line.008.095" horiz-adv-x="350" /><glyph d="M108 56 458 672H412L62 56ZM85 24C102 24 117 39 117 56C117 73 102 88 85 88C68 88 53 73 53 56C53 39 68 24 85 24Z" glyph-name="line.008.096" horiz-adv-x="350" /><glyph d="M108 56 458 679H412L62 56ZM85 24C102 24 117 39 117 56C117 73 102 88 85 88C68 88 53 73 53 56C53 39 68 24 85 24Z" glyph-name="line.008.097" horiz-adv-x="350" /><glyph d="M108 56 458 686H412L62 56ZM85 24C102 24 117 39 117 56C117 73 102 88 85 88C68 88 53 73 53 56C53 39 68 24 85 24Z" glyph-name="line.008.098" horiz-adv-x="350" /><glyph d="M107 56 457 693H413L63 56ZM85 24C102 24 117 39 117 56C117 73 102 88 85 88C68 88 53 73 53 56C53 39 68 24 85 24Z" glyph-name="line.008.099" horiz-adv-x="350" /><glyph d="M107 56 457 700H413L63 56ZM85 24C102 24 117 39 117 56C117 73 102 88 85 88C68 88 53 73 53 56C53 39 68 24 85 24Z" glyph-name="line.008.100" horiz-adv-x="350" /><glyph d="M85 82 435 19V-19L85 44ZM85 95C102 95 117 80 117 63C117 46 102 31 85 31C68 31 53 46 53 63C53 80 68 95 85 95Z" glyph-name="line.009.000" horiz-adv-x="350" /><glyph d="M85 82 435 26V-12L85 44ZM85 95C102 95 117 80 117 63C117 46 102 31 85 31C68 31 53 46 53 63C53 80 68 95 85 95Z" glyph-name="line.009.001" horiz-adv-x="350" /><glyph d="M85 82 435 33V-5L85 44ZM85 95C102 95 117 80 117 63C117 46 102 31 85 31C68 31 53 46 53 63C53 80 68 95 85 95Z" glyph-name="line.009.002" horiz-adv-x="350" /><glyph d="M85 82 435 40V2L85 44ZM85 95C102 95 117 80 117 63C117 46 102 31 85 31C68 31 53 46 53 63C53 80 68 95 85 95Z" glyph-name="line.009.003" horiz-adv-x="350" /><glyph d="M85 81 435 46V10L85 45ZM85 95C102 95 117 80 117 63C117 46 102 31 85 31C68 31 53 46 53 63C53 80 68 95 85 95Z" glyph-name="line.009.004" horiz-adv-x="350" /><glyph d="M85 81 435 53V17L85 45ZM85 95C102 95 117 80 117 63C117 46 102 31 85 31C68 31 53 46 53 63C53 80 68 95 85 95Z" glyph-name="line.009.005" horiz-adv-x="350" /><glyph d="M85 81 435 60V24L85 45ZM85 95C102 95 117 80 117 63C117 46 102 31 85 31C68 31 53 46 53 63C53 80 68 95 85 95Z" glyph-name="line.009.006" horiz-adv-x="350" /></font>
</defs>
</svg>
